<?xml version="1.0" encoding="UTF-8" standalone="no"?>
<!-- Created with Inkscape (http://www.inkscape.org/) -->

<svg
   xmlns:dc="http://purl.org/dc/elements/1.1/"
   xmlns:cc="http://creativecommons.org/ns#"
   xmlns:rdf="http://www.w3.org/1999/02/22-rdf-syntax-ns#"
   xmlns:svg="http://www.w3.org/2000/svg"
   xmlns="http://www.w3.org/2000/svg"
   xmlns:sodipodi="http://sodipodi.sourceforge.net/DTD/sodipodi-0.dtd"
   xmlns:inkscape="http://www.inkscape.org/namespaces/inkscape"
   width="323.93411"
   height="213.38455"
   id="svg2"
   version="1.1"
   inkscape:version="0.48.5 r10040"
   sodipodi:docname="scenario_poubelle_scene_transition.svg">
  <defs
     id="defs4">
    <marker
       inkscape:stockid="Arrow1Mstart"
       orient="auto"
       refY="0"
       refX="0"
       id="Arrow1Mstart"
       style="overflow:visible">
      <path
         id="path3873"
         d="M 0,0 5,-5 -12.5,0 5,5 0,0 z"
         style="fill-rule:evenodd;stroke:#000000;stroke-width:1pt"
         transform="matrix(0.4,0,0,0.4,4,0)"
         inkscape:connector-curvature="0" />
    </marker>
    <marker
       inkscape:stockid="Arrow1Mend"
       orient="auto"
       refY="0"
       refX="0"
       id="Arrow1Mend"
       style="overflow:visible">
      <path
         id="path3876"
         d="M 0,0 5,-5 -12.5,0 5,5 0,0 z"
         style="fill-rule:evenodd;stroke:#000000;stroke-width:1pt"
         transform="matrix(-0.4,0,0,-0.4,-4,0)"
         inkscape:connector-curvature="0" />
    </marker>
    <marker
       inkscape:stockid="StopL"
       orient="auto"
       refY="0"
       refX="0"
       id="StopL"
       style="overflow:visible">
      <path
         id="path4036"
         d="M 0,5.65 0,-5.65"
         style="fill:none;stroke:#000000;stroke-width:1pt"
         transform="scale(0.8,0.8)"
         inkscape:connector-curvature="0" />
    </marker>
    <marker
       style="overflow:visible"
       id="DistanceStart"
       refX="0"
       refY="0"
       orient="auto"
       inkscape:stockid="DistanceStart">
      <g
         id="g2300">
        <path
           style="fill:none;stroke:#ffffff;stroke-width:1.14999998;stroke-linecap:square"
           d="M 0,0 2,0"
           id="path2306"
           inkscape:connector-curvature="0" />
        <path
           style="fill:#000000;fill-rule:evenodd;stroke:none"
           d="M 0,0 13,4 9,0 13,-4 0,0 z"
           id="path2302"
           inkscape:connector-curvature="0" />
        <path
           style="fill:none;stroke:#000000;stroke-width:1;stroke-linecap:square"
           d="M 0,-4 0,40"
           id="path2304"
           inkscape:connector-curvature="0" />
      </g>
    </marker>
    <marker
       inkscape:stockid="Arrow1Lend"
       orient="auto"
       refY="0"
       refX="0"
       id="Arrow1Lend"
       style="overflow:visible">
      <path
         id="path3870"
         d="M 0,0 5,-5 -12.5,0 5,5 0,0 z"
         style="fill-rule:evenodd;stroke:#000000;stroke-width:1pt"
         transform="matrix(-0.8,0,0,-0.8,-10,0)"
         inkscape:connector-curvature="0" />
    </marker>
    <marker
       inkscape:stockid="Arrow1Mstart"
       orient="auto"
       refY="0"
       refX="0"
       id="Arrow1Mstart-2"
       style="overflow:visible">
      <path
         inkscape:connector-curvature="0"
         id="path3873-8"
         d="M 0,0 5,-5 -12.5,0 5,5 0,0 z"
         style="fill-rule:evenodd;stroke:#000000;stroke-width:1pt"
         transform="matrix(0.4,0,0,0.4,4,0)" />
    </marker>
    <marker
       inkscape:stockid="Arrow1Mstart"
       orient="auto"
       refY="0"
       refX="0"
       id="Arrow1Mstart-8"
       style="overflow:visible">
      <path
         inkscape:connector-curvature="0"
         id="path3873-6"
         d="M 0,0 5,-5 -12.5,0 5,5 0,0 z"
         style="fill-rule:evenodd;stroke:#000000;stroke-width:1pt"
         transform="matrix(0.4,0,0,0.4,4,0)" />
    </marker>
    <marker
       inkscape:stockid="Arrow1Mend"
       orient="auto"
       refY="0"
       refX="0"
       id="Arrow1Mend-9"
       style="overflow:visible">
      <path
         inkscape:connector-curvature="0"
         id="path3876-7"
         d="M 0,0 5,-5 -12.5,0 5,5 0,0 z"
         style="fill-rule:evenodd;stroke:#000000;stroke-width:1pt"
         transform="matrix(-0.4,0,0,-0.4,-4,0)" />
    </marker>
    <filter
       inkscape:collect="always"
       id="filter8798"
       color-interpolation-filters="sRGB">
      <feGaussianBlur
         inkscape:collect="always"
         stdDeviation="1.2"
         id="feGaussianBlur8800" />
    </filter>
    <filter
       color-interpolation-filters="sRGB"
       inkscape:collect="always"
       id="filter8798-0-7-6">
      <feGaussianBlur
         inkscape:collect="always"
         stdDeviation="1.2"
         id="feGaussianBlur8800-7-3-7" />
    </filter>
    <filter
       inkscape:collect="always"
       id="filter14998"
       color-interpolation-filters="sRGB">
      <feGaussianBlur
         inkscape:collect="always"
         stdDeviation="1.2930465"
         id="feGaussianBlur15000" />
    </filter>
    <filter
       inkscape:collect="always"
       id="filter15036"
       color-interpolation-filters="sRGB">
      <feGaussianBlur
         inkscape:collect="always"
         stdDeviation="1.2"
         id="feGaussianBlur15038" />
    </filter>
    <filter
       inkscape:collect="always"
       id="filter15058"
       color-interpolation-filters="sRGB">
      <feGaussianBlur
         inkscape:collect="always"
         stdDeviation="1.36125"
         id="feGaussianBlur15060" />
    </filter>
    <filter
       inkscape:collect="always"
       id="filter15105"
       color-interpolation-filters="sRGB">
      <feGaussianBlur
         inkscape:collect="always"
         stdDeviation="1.0019531"
         id="feGaussianBlur15107" />
    </filter>
  </defs>
  <sodipodi:namedview
     id="base"
     pagecolor="#ffffff"
     bordercolor="#666666"
     borderopacity="1.0"
     inkscape:pageopacity="0.0"
     inkscape:pageshadow="2"
     inkscape:zoom="5.12"
     inkscape:cx="229.58988"
     inkscape:cy="91.612957"
     inkscape:document-units="px"
     inkscape:current-layer="layer1"
     showgrid="true"
     showborder="true"
     inkscape:snap-grids="false"
     inkscape:snap-bbox="true"
     inkscape:bbox-nodes="true"
     inkscape:bbox-paths="true"
     inkscape:snap-bbox-edge-midpoints="true"
     inkscape:snap-bbox-midpoints="true"
     inkscape:snap-global="true"
     showguides="true"
     inkscape:guide-bbox="true"
     fit-margin-top="5"
     fit-margin-left="5"
     fit-margin-right="5"
     fit-margin-bottom="5"
     inkscape:window-width="1920"
     inkscape:window-height="1053"
     inkscape:window-x="0"
     inkscape:window-y="27"
     inkscape:window-maximized="1">
    <inkscape:grid
       type="xygrid"
       id="grid2985"
       empspacing="5"
       visible="true"
       enabled="true"
       snapvisiblegridlinesonly="true"
       spacingx="5px"
       spacingy="5px"
       originx="2161.2987px"
       originy="-1619.3132px" />
  </sodipodi:namedview>
  <metadata
     id="metadata7">
    <rdf:RDF>
      <cc:Work
         rdf:about="">
        <dc:format>image/svg+xml</dc:format>
        <dc:type
           rdf:resource="http://purl.org/dc/dcmitype/StillImage" />
        <dc:title></dc:title>
      </cc:Work>
    </rdf:RDF>
  </metadata>
  <g
     inkscape:label="Calque 1"
     inkscape:groupmode="layer"
     id="layer1"
     transform="translate(2161.2987,780.3356)">
    <rect
       style="opacity:0.75;fill:#00249b;fill-opacity:1;fill-rule:evenodd;stroke:none;filter:url(#filter15105)"
       id="rect11774-4"
       width="104.6875"
       height="28.90625"
       x="-2050"
       y="-760.45544"
       rx="52.34375"
       ry="31.054689" />
    <path
       style="opacity:0.75;fill:#00249b;fill-opacity:1;fill-rule:evenodd;stroke:none;filter:url(#filter15058)"
       d="m -2048.0777,-637.81649 c -3.3844,0 -6.0937,2.70928 -6.0937,6.09375 l 0,12.15625 c 6.4893,0 11.75,5.26066 11.75,11.75 0,6.48934 -5.2607,11.75 -11.75,11.75 l 0,11.625 c 0,3.38447 2.7093,6.125 6.0937,6.125 l 98.2188,0 c 3.3845,0 6.125,-2.74053 6.125,-6.125 l 0,-13.34375 c 0.5398,0.0936 1.0905,0.15625 1.6562,0.15625 5.4695,0 9.9063,-4.56713 9.9063,-10.1875 0,-5.62037 -4.4368,-10.1875 -9.9063,-10.1875 -0.5657,0 -1.1164,0.0626 -1.6562,0.15625 l 0,-13.875 c 0,-3.38447 -2.7405,-6.09375 -6.125,-6.09375 l -37.6875,0 c 0.064,0.49566 0.125,0.98699 0.125,1.5 0,6.48934 -5.2607,11.75 -11.75,11.75 -6.4894,0 -11.75,-5.26066 -11.75,-11.75 0,-0.51301 0.061,-1.00434 0.125,-1.5 l -37.2813,0 z"
       id="rect10706-4"
       inkscape:connector-curvature="0" />
    <text
       xml:space="preserve"
       style="font-size:7.13934183px;font-style:normal;font-variant:normal;font-weight:normal;font-stretch:normal;line-height:125%;letter-spacing:0px;word-spacing:0px;fill:#000000;fill-opacity:1;stroke:none;font-family:Linux Biolinum O;-inkscape-font-specification:Linux Biolinum O"
       x="-2156.251"
       y="-760.34753"
       id="text3759"
       sodipodi:linespacing="125%"><tspan
         sodipodi:role="line"
         id="tspan3761"
         x="-2156.251"
         y="-760.34753" /></text>
    <g
       id="g7437"
       transform="translate(-267.31245,31.185939)">
      <g
         transform="matrix(1,0,0,1.0636911,10.000051,58.15956)"
         id="g7178">
        <path
           style="fill:#fff8d7;fill-opacity:1;fill-rule:evenodd;stroke:#000000;stroke-width:1.03135407;stroke-linecap:butt;stroke-linejoin:round;stroke-miterlimit:4;stroke-opacity:1;stroke-dasharray:none;stroke-dashoffset:0"
           d="m 80.5,150.53125 c -1.769528,0 -3.550346,0.48749 -4.90625,1.5 L 36.3125,181.375 c -2.711807,2.02502 -2.711807,5.28748 0,7.3125 l 39.28125,29.34375 c 2.711807,2.02502 7.100693,2.02502 9.8125,0 l 32.40625,-24.1875 c 0.15822,0.007 0.30867,0 0.46875,0 5.46945,0 9.90625,-4.06666 9.90625,-9.09375 0,-5.02709 -4.4368,-9.09375 -9.90625,-9.09375 -0.39561,0 -0.77276,0.021 -1.15625,0.0625 l -31.71875,-23.6875 c -1.355904,-1.01251 -3.136722,-1.5 -4.90625,-1.5 z"
           transform="matrix(1,0,0,0.94012256,-2165.5001,-851.58846)"
           id="rect2989-7"
           inkscape:connector-curvature="0" />
        <text
           xml:space="preserve"
           style="font-size:16px;font-style:normal;font-variant:normal;font-weight:normal;font-stretch:normal;line-height:125%;letter-spacing:0px;word-spacing:0px;fill:#000000;fill-opacity:1;stroke:none;font-family:Linux Biolinum O;-inkscape-font-specification:Linux Biolinum O"
           x="-2085.3076"
           y="-680.19757"
           id="text6222-1"
           sodipodi:linespacing="125%"><tspan
             sodipodi:role="line"
             id="tspan6224-2"
             x="-2085.3076"
             y="-680.19757"
             style="font-size:11.63519001px;text-align:center;text-anchor:middle">Étape</tspan><tspan
             id="tspan6272"
             sodipodi:role="line"
             x="-2085.3076"
             y="-665.65356"
             style="font-size:11.63519001px;text-align:center;text-anchor:middle">Flash</tspan></text>
      </g>
    </g>
    <text
       xml:space="preserve"
       style="font-size:10px;font-style:normal;font-variant:normal;font-weight:normal;font-stretch:normal;line-height:125%;letter-spacing:0px;word-spacing:0px;fill:#000000;fill-opacity:1;stroke:none;font-family:Linux Biolinum O;-inkscape-font-specification:Linux Biolinum O"
       x="-2203.5156"
       y="-727.71594"
       id="text7645"
       sodipodi:linespacing="125%"><tspan
         sodipodi:role="line"
         id="tspan7647"
         x="-2203.5156"
         y="-727.71594" /></text>
    <path
       sodipodi:type="arc"
       style="fill:#fff8d7;fill-opacity:1;stroke:#000000;stroke-width:0.68093723;stroke-opacity:1"
       id="path9913-2-2"
       sodipodi:cx="39.0625"
       sodipodi:cy="234.08438"
       sodipodi:rx="6.8359375"
       sodipodi:ry="6.8359375"
       d="m 45.898437,234.08438 c 0,3.77539 -3.060553,6.83594 -6.835937,6.83594 -3.775384,0 -6.835938,-3.06055 -6.835938,-6.83594 0,-3.77538 3.060554,-6.83594 6.835938,-6.83594 3.775384,0 6.835937,3.06056 6.835937,6.83594 z"
       transform="matrix(1.4487126,0,0,1.4886875,-2345.8091,-1133.6163)" />
    <path
       sodipodi:type="arc"
       style="fill:#fff8d7;fill-opacity:1;stroke:#000000;stroke-width:0.68093723;stroke-opacity:1"
       id="path9913-2-2-8"
       sodipodi:cx="39.0625"
       sodipodi:cy="234.08438"
       sodipodi:rx="6.8359375"
       sodipodi:ry="6.8359375"
       d="m 45.898437,234.08438 c 0,3.77539 -3.060553,6.83594 -6.835937,6.83594 -3.775384,0 -6.835938,-3.06055 -6.835938,-6.83594 0,-3.77538 3.060554,-6.83594 6.835938,-6.83594 3.775384,0 6.835937,3.06056 6.835937,6.83594 z"
       transform="matrix(1.4487126,0,0,1.4886875,-2343.995,-1093.9539)" />
    <rect
       transform="matrix(0.80125068,-0.59832879,0.80125068,0.59832879,0,0)"
       y="-1892.5359"
       x="-990.96692"
       height="61.254826"
       width="61.254826"
       id="rect2989-5-5"
       style="fill:#fff8d7;fill-opacity:1;fill-rule:evenodd;stroke:#000000;stroke-width:1.05326736;stroke-linecap:butt;stroke-linejoin:round;stroke-miterlimit:4;stroke-opacity:1;stroke-dasharray:none;stroke-dashoffset:0"
       ry="6.109148"
       rx="6.109148" />
    <path
       sodipodi:type="arc"
       style="fill:#fff8d7;fill-opacity:1;stroke:#000000;stroke-width:0.58178228;stroke-opacity:1"
       id="path9913-8-6-1-9"
       sodipodi:cx="39.0625"
       sodipodi:cy="234.08438"
       sodipodi:rx="6.8359375"
       sodipodi:ry="6.8359375"
       d="m 45.898437,234.08438 c 0,3.77539 -3.060553,6.83594 -6.835937,6.83594 -3.775384,0 -6.835938,-3.06055 -6.835938,-6.83594 0,-3.77538 3.060554,-6.83594 6.835938,-6.83594 3.775384,0 6.835937,3.06056 6.835937,6.83594 z"
       transform="matrix(1.7188561,0,0,1.7188561,-2293.9859,-989.07172)" />
    <path
       sodipodi:type="arc"
       style="fill:#f2f5ff;fill-opacity:1;stroke:#000000;stroke-width:0.58178228;stroke-opacity:1"
       id="path9913-8-6-1-9-3"
       sodipodi:cx="39.0625"
       sodipodi:cy="234.08438"
       sodipodi:rx="6.8359375"
       sodipodi:ry="6.8359375"
       d="m 45.898437,234.08438 c 0,3.77539 -3.060553,6.83594 -6.835937,6.83594 -3.775384,0 -6.835938,-3.06055 -6.835938,-6.83594 0,-3.77538 3.060554,-6.83594 6.835938,-6.83594 3.775384,0 6.835937,3.06056 6.835937,6.83594 z"
       transform="matrix(1.7188561,0,0,1.7188561,-2296.4149,-1021.9779)" />
    <path
       style="fill:#f2f5ff;fill-opacity:1;fill-rule:evenodd;stroke:#000000;stroke-width:0.99999994px;stroke-linecap:butt;stroke-linejoin:miter;stroke-opacity:1"
       d="m -2048.9063,-638.23082 c -3.3844,0 -6.0937,2.70928 -6.0937,6.09375 l 0,12.15625 c 6.4893,0 11.75,5.26066 11.75,11.75 0,6.48934 -5.2607,11.75 -11.75,11.75 l 0,11.625 c 0,3.38447 2.7093,6.125 6.0937,6.125 l 98.2188,0 c 3.3845,0 6.125,-2.74053 6.125,-6.125 l 0,-13.34375 c 0.5398,0.0936 1.0905,0.15625 1.6562,0.15625 5.4695,0 9.9063,-4.56713 9.9063,-10.1875 0,-5.62037 -4.4368,-10.1875 -9.9063,-10.1875 -0.5657,0 -1.1164,0.0626 -1.6562,0.15625 l 0,-13.875 c 0,-3.38447 -2.7405,-6.09375 -6.125,-6.09375 l -37.6875,0 c 0.064,0.49566 0.125,0.98699 0.125,1.5 0,6.48934 -5.2607,11.75 -11.75,11.75 -6.4894,0 -11.75,-5.26066 -11.75,-11.75 0,-0.51301 0.061,-1.00434 0.125,-1.5 l -37.2813,0 z"
       id="rect10706"
       inkscape:connector-curvature="0" />
    <path
       style="fill:none;stroke:#000000;stroke-width:0.99999994px;stroke-linecap:butt;stroke-linejoin:miter;stroke-opacity:1;marker-end:url(#Arrow1Mend-9)"
       d="m -2000,-728.44583 0,90.52864"
       id="path11360"
       inkscape:connector-curvature="0" />
    <text
       xml:space="preserve"
       style="font-size:8px;font-style:normal;font-variant:normal;font-weight:normal;font-stretch:normal;line-height:125%;letter-spacing:0px;word-spacing:0px;fill:#000000;fill-opacity:1;stroke:none;font-family:Linux Libertine O;-inkscape-font-specification:Linux Libertine O"
       x="-2035.3429"
       y="-604.7818"
       id="text11579"
       sodipodi:linespacing="125%"><tspan
         sodipodi:role="line"
         id="tspan11581"
         x="-2035.3429"
         y="-604.7818"
         style="font-size:12px;font-weight:bold;-inkscape-font-specification:Linux Libertine O Bold">TRANSITION</tspan></text>
    <rect
       style="fill:#f2f5ff;fill-opacity:1;fill-rule:evenodd;stroke:#000000;stroke-width:1px;stroke-linecap:butt;stroke-linejoin:miter;stroke-opacity:1"
       id="rect11774"
       width="104.6875"
       height="28.90625"
       x="-2050.7812"
       y="-761.23669"
       rx="52.34375"
       ry="31.054689" />
    <text
       xml:space="preserve"
       style="font-size:8px;font-style:normal;font-variant:normal;font-weight:normal;font-stretch:normal;line-height:125%;letter-spacing:0px;word-spacing:0px;fill:#000000;fill-opacity:1;stroke:none;font-family:Linux Libertine O;-inkscape-font-specification:Linux Libertine O"
       x="-2018.0568"
       y="-765.5636"
       id="text11648"
       sodipodi:linespacing="125%"><tspan
         sodipodi:role="line"
         id="tspan11650"
         x="-2018.0568"
         y="-765.5636"
         style="font-size:14px;font-weight:bold;-inkscape-font-specification:Linux Libertine O Bold">Signal</tspan></text>
    <g
       id="g11788"
       transform="translate(0,24)">
      <rect
         ry="6.1091485"
         rx="6.1091475"
         y="-731.37531"
         x="-2051.125"
         height="33.238739"
         width="102.24976"
         id="rect9947"
         style="fill:#fbfcff;fill-opacity:1;fill-rule:evenodd;stroke:#000000;stroke-width:0.30000001;stroke-linecap:butt;stroke-linejoin:miter;stroke-miterlimit:4;stroke-opacity:1;stroke-dasharray:none;stroke-dashoffset:0" />
      <text
         sodipodi:linespacing="125%"
         id="text9992"
         y="-716.98444"
         x="-2042.152"
         style="font-size:8px;font-style:normal;font-variant:normal;font-weight:normal;font-stretch:normal;line-height:125%;letter-spacing:0px;word-spacing:0px;fill:#000000;fill-opacity:1;stroke:none;font-family:Linux Libertine O;-inkscape-font-specification:Linux Libertine O"
         xml:space="preserve"><tspan
           id="tspan9998"
           y="-716.98444"
           x="-2042.152"
           sodipodi:role="line">if message == &quot;nuit&quot; :</tspan><tspan
           id="tspan11772"
           y="-706.98444"
           x="-2042.152"
           sodipodi:role="line">      OK</tspan><tspan
           id="tspan11770"
           y="-696.98444"
           x="-2042.152"
           sodipodi:role="line" /><tspan
           id="tspan11768"
           y="-686.98444"
           x="-2042.152"
           sodipodi:role="line" /></text>
    </g>
    <text
       xml:space="preserve"
       style="font-size:8px;font-style:normal;font-variant:normal;font-weight:normal;font-stretch:normal;line-height:125%;letter-spacing:0px;word-spacing:0px;fill:#000000;fill-opacity:1;stroke:none;font-family:Linux Libertine O;-inkscape-font-specification:Linux Libertine O"
       x="-2036.8595"
       y="-745.13959"
       id="text11784"
       sodipodi:linespacing="125%"><tspan
         sodipodi:role="line"
         id="tspan11786"
         x="-2036.8595"
         y="-745.13959">Nouveau message WIFI</tspan></text>
    <g
       id="g8817"
       transform="translate(-2386.0664,-535.2925)">
      <g
         transform="translate(-21.428571,-88.214286)"
         id="g8802">
        <g
           id="g8568">
          <rect
             rx="15"
             ry="15"
             y="508.36218"
             x="-199"
             height="65"
             width="95"
             id="rect8014-7"
             style="opacity:0.75;fill:#00249b;fill-opacity:1;fill-rule:evenodd;stroke:none;filter:url(#filter8798)" />
          <rect
             rx="15"
             ry="15"
             y="507.36218"
             x="-200"
             height="65"
             width="95"
             id="rect8014"
             style="fill:#f2f5ff;fill-opacity:1;fill-rule:evenodd;stroke:#000000;stroke-width:1px;stroke-linecap:butt;stroke-linejoin:miter;stroke-opacity:1" />
        </g>
      </g>
      <text
         sodipodi:linespacing="125%"
         id="text8807"
         y="228.72314"
         x="205.75531"
         style="font-size:10px;font-style:normal;font-variant:normal;font-weight:normal;font-stretch:normal;line-height:125%;letter-spacing:0px;word-spacing:0px;fill:#000000;fill-opacity:1;stroke:none;font-family:Linux Libertine O;-inkscape-font-specification:Linux Libertine O"
         xml:space="preserve"><tspan
           style="font-size:12px;font-style:normal;font-variant:normal;font-weight:bold;font-stretch:normal;text-align:center;text-anchor:middle;font-family:Linux Libertine O;-inkscape-font-specification:Linux Libertine O Bold"
           id="tspan8815"
           y="228.72314"
           x="205.75531"
           sodipodi:role="line">Scène de</tspan><tspan
           style="font-size:12px;font-style:normal;font-variant:normal;font-weight:bold;font-stretch:normal;text-align:center;text-anchor:middle;font-family:Linux Libertine O;-inkscape-font-specification:Linux Libertine O Bold"
           y="243.72314"
           x="205.75531"
           sodipodi:role="line"
           id="tspan14025">nuit</tspan></text>
    </g>
    <rect
       style="opacity:0.75;fill:#00249b;fill-opacity:1;fill-rule:evenodd;stroke:none;filter:url(#filter8798-0-7-6)"
       id="rect8014-7-6-9-3"
       width="95"
       height="65"
       x="-2374.8813"
       y="-731.91882"
       ry="15"
       rx="15" />
    <g
       id="g15006"
       transform="translate(-0.78125,0)">
      <g
         id="g15002">
        <path
           style="opacity:0.75;fill:#00249b;fill-opacity:1;fill-rule:evenodd;stroke:none;filter:url(#filter14998)"
           d="m -2137.4141,-640.05436 c -8.31,0 -15,6.69 -15,15 l 0,35 c 0,8.31 6.69,15 15,15 l 65,0 c 8.31,0 15,-6.69 15,-15 l 0,-7.65625 c 0.8,0.21422 1.6348,0.3125 2.5,0.3125 5.4694,0 9.9062,-4.53588 9.9062,-10.15625 0,-5.62037 -4.4368,-10.1875 -9.9062,-10.1875 -0.8652,0 -1.7,0.12953 -2.5,0.34375 l 0,-7.65625 c 0,-8.31 -6.69,-15 -15,-15 l -65,0 z"
           id="rect8014-5-3-5-4"
           inkscape:connector-curvature="0" />
        <path
           style="fill:#f2f5ff;fill-opacity:1;fill-rule:evenodd;stroke:#000000;stroke-width:1px;stroke-linecap:butt;stroke-linejoin:miter;stroke-opacity:1"
           d="m -2138,-640.8356 c -8.31,0 -15,6.69 -15,15 l 0,35 c 0,8.31 6.69,15 15,15 l 65,0 c 8.31,0 15,-6.69 15,-15 l 0,-7.65625 c 0.8,0.21422 1.6348,0.3125 2.5,0.3125 5.4694,0 9.9062,-4.53588 9.9062,-10.15625 0,-5.62037 -4.4368,-10.1875 -9.9062,-10.1875 -0.8652,0 -1.7,0.12953 -2.5,0.34375 l 0,-7.65625 c 0,-8.31 -6.69,-15 -15,-15 l -65,0 z"
           id="rect8014-5-3-5"
           inkscape:connector-curvature="0" />
      </g>
      <text
         sodipodi:linespacing="125%"
         id="text8807-8-4-0"
         y="-613.03961"
         x="-2103.2051"
         style="font-size:10px;font-style:normal;font-variant:normal;font-weight:normal;font-stretch:normal;line-height:125%;letter-spacing:0px;word-spacing:0px;fill:#000000;fill-opacity:1;stroke:none;font-family:Linux Libertine O;-inkscape-font-specification:Linux Libertine O"
         xml:space="preserve"><tspan
           style="font-size:12px;font-style:normal;font-variant:normal;font-weight:bold;font-stretch:normal;text-align:center;text-anchor:middle;font-family:Linux Libertine O;-inkscape-font-specification:Linux Libertine O Bold"
           id="tspan8815-7-3-78"
           y="-613.03961"
           x="-2103.2051"
           sodipodi:role="line">Scène de</tspan><tspan
           style="font-size:12px;font-style:normal;font-variant:normal;font-weight:bold;font-stretch:normal;text-align:center;text-anchor:middle;font-family:Linux Libertine O;-inkscape-font-specification:Linux Libertine O Bold"
           y="-598.03961"
           x="-2103.2051"
           sodipodi:role="line"
           id="tspan14021">journée</tspan></text>
    </g>
    <path
       sodipodi:type="arc"
       style="fill:#f2f5ff;fill-opacity:1;stroke:#000000;stroke-width:0.68093723;stroke-opacity:1"
       id="path9913-2-2-0-7"
       sodipodi:cx="39.0625"
       sodipodi:cy="234.08438"
       sodipodi:rx="6.8359375"
       sodipodi:ry="6.8359375"
       d="m 45.898437,234.08438 c 0,3.77539 -3.060553,6.83594 -6.835937,6.83594 -3.775384,0 -6.835938,-3.06055 -6.835938,-6.83594 0,-3.77538 3.060554,-6.83594 6.835938,-6.83594 3.775384,0 6.835937,3.06056 6.835937,6.83594 z"
       transform="matrix(1.4487126,0,0,1.4886875,-2206.2622,-823.29315)" />
    <g
       id="g15068"
       transform="translate(0.94305216,0)">
      <path
         inkscape:connector-curvature="0"
         id="rect8014-5-3-5-1-5"
         d="m -1926.1876,-639.93439 c -8.31,0 -15,6.69 -15,15 l 0,5.78125 c 6.2528,0.267 11.25,5.40027 11.25,11.71875 0,6.31848 -4.9972,11.45175 -11.25,11.71875 l 0,5.78125 c 0,8.31 6.69,15 15,15 l 65,0 c 8.31,0 15,-6.69 15,-15 l 0,-35 c 0,-8.31 -6.69,-15 -15,-15 l -65,0 z"
         style="opacity:0.75;fill:#00249b;fill-opacity:1;fill-rule:evenodd;stroke:none;filter:url(#filter15036)" />
      <g
         id="g15062">
        <path
           style="fill:#f2f5ff;fill-opacity:1;fill-rule:evenodd;stroke:#000000;stroke-width:1px;stroke-linecap:butt;stroke-linejoin:miter;stroke-opacity:1"
           d="m -1926.9688,-640.71563 c -8.31,0 -15,6.69 -15,15 l 0,5.78125 c 6.2528,0.267 11.25,5.40027 11.25,11.71875 0,6.31848 -4.9972,11.45175 -11.25,11.71875 l 0,5.78125 c 0,8.31 6.69,15 15,15 l 65,0 c 8.31,0 15,-6.69 15,-15 l 0,-35 c 0,-8.31 -6.69,-15 -15,-15 l -65,0 z"
           id="rect8014-5-3-5-1"
           inkscape:connector-curvature="0" />
        <text
           sodipodi:linespacing="125%"
           id="text8807-2"
           y="-612.96857"
           x="-1892.7677"
           style="font-size:10px;font-style:normal;font-variant:normal;font-weight:normal;font-stretch:normal;line-height:125%;letter-spacing:0px;word-spacing:0px;fill:#000000;fill-opacity:1;stroke:none;font-family:Linux Libertine O;-inkscape-font-specification:Linux Libertine O"
           xml:space="preserve"><tspan
             style="font-size:12px;font-style:normal;font-variant:normal;font-weight:bold;font-stretch:normal;text-align:center;text-anchor:middle;font-family:Linux Libertine O;-inkscape-font-specification:Linux Libertine O Bold"
             id="tspan8815-9"
             y="-612.96857"
             x="-1892.7677"
             sodipodi:role="line">Scène de</tspan><tspan
             style="font-size:12px;font-style:normal;font-variant:normal;font-weight:bold;font-stretch:normal;text-align:center;text-anchor:middle;font-family:Linux Libertine O;-inkscape-font-specification:Linux Libertine O Bold"
             y="-597.96857"
             x="-1892.7677"
             sodipodi:role="line"
             id="tspan14025-7">nuit</tspan></text>
      </g>
    </g>
  </g>
</svg>
