G75*
%MOIN*%
%OFA0B0*%
%FSLAX24Y24*%
%IPPOS*%
%LPD*%
%AMOC8*
5,1,8,0,0,1.08239X$1,22.5*
%
%ADD10C,0.0160*%
%ADD11C,0.0000*%
D10*
X004043Y005930D02*
X004043Y038680D01*
X042918Y038680D01*
X042843Y005905D01*
X042788Y005930D02*
X004043Y005930D01*
D11*
X004870Y007308D02*
X004872Y007355D01*
X004878Y007401D01*
X004888Y007447D01*
X004901Y007492D01*
X004919Y007535D01*
X004940Y007577D01*
X004964Y007617D01*
X004992Y007654D01*
X005023Y007689D01*
X005057Y007722D01*
X005093Y007751D01*
X005132Y007777D01*
X005173Y007800D01*
X005216Y007819D01*
X005260Y007835D01*
X005305Y007847D01*
X005351Y007855D01*
X005398Y007859D01*
X005444Y007859D01*
X005491Y007855D01*
X005537Y007847D01*
X005582Y007835D01*
X005626Y007819D01*
X005669Y007800D01*
X005710Y007777D01*
X005749Y007751D01*
X005785Y007722D01*
X005819Y007689D01*
X005850Y007654D01*
X005878Y007617D01*
X005902Y007577D01*
X005923Y007535D01*
X005941Y007492D01*
X005954Y007447D01*
X005964Y007401D01*
X005970Y007355D01*
X005972Y007308D01*
X005970Y007261D01*
X005964Y007215D01*
X005954Y007169D01*
X005941Y007124D01*
X005923Y007081D01*
X005902Y007039D01*
X005878Y006999D01*
X005850Y006962D01*
X005819Y006927D01*
X005785Y006894D01*
X005749Y006865D01*
X005710Y006839D01*
X005669Y006816D01*
X005626Y006797D01*
X005582Y006781D01*
X005537Y006769D01*
X005491Y006761D01*
X005444Y006757D01*
X005398Y006757D01*
X005351Y006761D01*
X005305Y006769D01*
X005260Y006781D01*
X005216Y006797D01*
X005173Y006816D01*
X005132Y006839D01*
X005093Y006865D01*
X005057Y006894D01*
X005023Y006927D01*
X004992Y006962D01*
X004964Y006999D01*
X004940Y007039D01*
X004919Y007081D01*
X004901Y007124D01*
X004888Y007169D01*
X004878Y007215D01*
X004872Y007261D01*
X004870Y007308D01*
X024161Y007308D02*
X024163Y007355D01*
X024169Y007401D01*
X024179Y007447D01*
X024192Y007492D01*
X024210Y007535D01*
X024231Y007577D01*
X024255Y007617D01*
X024283Y007654D01*
X024314Y007689D01*
X024348Y007722D01*
X024384Y007751D01*
X024423Y007777D01*
X024464Y007800D01*
X024507Y007819D01*
X024551Y007835D01*
X024596Y007847D01*
X024642Y007855D01*
X024689Y007859D01*
X024735Y007859D01*
X024782Y007855D01*
X024828Y007847D01*
X024873Y007835D01*
X024917Y007819D01*
X024960Y007800D01*
X025001Y007777D01*
X025040Y007751D01*
X025076Y007722D01*
X025110Y007689D01*
X025141Y007654D01*
X025169Y007617D01*
X025193Y007577D01*
X025214Y007535D01*
X025232Y007492D01*
X025245Y007447D01*
X025255Y007401D01*
X025261Y007355D01*
X025263Y007308D01*
X025261Y007261D01*
X025255Y007215D01*
X025245Y007169D01*
X025232Y007124D01*
X025214Y007081D01*
X025193Y007039D01*
X025169Y006999D01*
X025141Y006962D01*
X025110Y006927D01*
X025076Y006894D01*
X025040Y006865D01*
X025001Y006839D01*
X024960Y006816D01*
X024917Y006797D01*
X024873Y006781D01*
X024828Y006769D01*
X024782Y006761D01*
X024735Y006757D01*
X024689Y006757D01*
X024642Y006761D01*
X024596Y006769D01*
X024551Y006781D01*
X024507Y006797D01*
X024464Y006816D01*
X024423Y006839D01*
X024384Y006865D01*
X024348Y006894D01*
X024314Y006927D01*
X024283Y006962D01*
X024255Y006999D01*
X024231Y007039D01*
X024210Y007081D01*
X024192Y007124D01*
X024179Y007169D01*
X024169Y007215D01*
X024163Y007261D01*
X024161Y007308D01*
X024161Y030143D02*
X024163Y030190D01*
X024169Y030236D01*
X024179Y030282D01*
X024192Y030327D01*
X024210Y030370D01*
X024231Y030412D01*
X024255Y030452D01*
X024283Y030489D01*
X024314Y030524D01*
X024348Y030557D01*
X024384Y030586D01*
X024423Y030612D01*
X024464Y030635D01*
X024507Y030654D01*
X024551Y030670D01*
X024596Y030682D01*
X024642Y030690D01*
X024689Y030694D01*
X024735Y030694D01*
X024782Y030690D01*
X024828Y030682D01*
X024873Y030670D01*
X024917Y030654D01*
X024960Y030635D01*
X025001Y030612D01*
X025040Y030586D01*
X025076Y030557D01*
X025110Y030524D01*
X025141Y030489D01*
X025169Y030452D01*
X025193Y030412D01*
X025214Y030370D01*
X025232Y030327D01*
X025245Y030282D01*
X025255Y030236D01*
X025261Y030190D01*
X025263Y030143D01*
X025261Y030096D01*
X025255Y030050D01*
X025245Y030004D01*
X025232Y029959D01*
X025214Y029916D01*
X025193Y029874D01*
X025169Y029834D01*
X025141Y029797D01*
X025110Y029762D01*
X025076Y029729D01*
X025040Y029700D01*
X025001Y029674D01*
X024960Y029651D01*
X024917Y029632D01*
X024873Y029616D01*
X024828Y029604D01*
X024782Y029596D01*
X024735Y029592D01*
X024689Y029592D01*
X024642Y029596D01*
X024596Y029604D01*
X024551Y029616D01*
X024507Y029632D01*
X024464Y029651D01*
X024423Y029674D01*
X024384Y029700D01*
X024348Y029729D01*
X024314Y029762D01*
X024283Y029797D01*
X024255Y029834D01*
X024231Y029874D01*
X024210Y029916D01*
X024192Y029959D01*
X024179Y030004D01*
X024169Y030050D01*
X024163Y030096D01*
X024161Y030143D01*
X004870Y030143D02*
X004872Y030190D01*
X004878Y030236D01*
X004888Y030282D01*
X004901Y030327D01*
X004919Y030370D01*
X004940Y030412D01*
X004964Y030452D01*
X004992Y030489D01*
X005023Y030524D01*
X005057Y030557D01*
X005093Y030586D01*
X005132Y030612D01*
X005173Y030635D01*
X005216Y030654D01*
X005260Y030670D01*
X005305Y030682D01*
X005351Y030690D01*
X005398Y030694D01*
X005444Y030694D01*
X005491Y030690D01*
X005537Y030682D01*
X005582Y030670D01*
X005626Y030654D01*
X005669Y030635D01*
X005710Y030612D01*
X005749Y030586D01*
X005785Y030557D01*
X005819Y030524D01*
X005850Y030489D01*
X005878Y030452D01*
X005902Y030412D01*
X005923Y030370D01*
X005941Y030327D01*
X005954Y030282D01*
X005964Y030236D01*
X005970Y030190D01*
X005972Y030143D01*
X005970Y030096D01*
X005964Y030050D01*
X005954Y030004D01*
X005941Y029959D01*
X005923Y029916D01*
X005902Y029874D01*
X005878Y029834D01*
X005850Y029797D01*
X005819Y029762D01*
X005785Y029729D01*
X005749Y029700D01*
X005710Y029674D01*
X005669Y029651D01*
X005626Y029632D01*
X005582Y029616D01*
X005537Y029604D01*
X005491Y029596D01*
X005444Y029592D01*
X005398Y029592D01*
X005351Y029596D01*
X005305Y029604D01*
X005260Y029616D01*
X005216Y029632D01*
X005173Y029651D01*
X005132Y029674D01*
X005093Y029700D01*
X005057Y029729D01*
X005023Y029762D01*
X004992Y029797D01*
X004964Y029834D01*
X004940Y029874D01*
X004919Y029916D01*
X004901Y029959D01*
X004888Y030004D01*
X004878Y030050D01*
X004872Y030096D01*
X004870Y030143D01*
M02*
