%
M48
M72
T01C0.0236
T02C0.0315
T03C0.0320
T04C0.0354
T05C0.0400
T06C0.0440
T07C0.0512
T08C0.1102
%
T01
X6543Y10930
X6918Y11555
X7293Y11930
X9418Y10930
X9793Y12180
X11593Y10280
X13793Y9305
X14343Y10780
X15543Y11430
X15043Y12130
X13543Y13430
X11793Y14930
X11918Y15805
X14343Y16430
X15543Y16930
X15043Y17530
X17793Y19430
X15543Y21430
X15043Y21930
X14343Y20930
X11843Y20330
X13293Y23680
X12043Y25130
X11643Y24680
X9918Y25805
X8043Y26680
X7293Y26180
X6918Y25430
X6543Y24955
X7693Y24580
X7293Y21680
X6918Y21180
X6543Y20430
X7293Y17430
X9043Y16430
X6918Y15555
X6543Y15055
X17043Y13430
X17543Y9930
X23418Y6680
X25918Y8680
X28023Y9160
X29823Y9130
X31673Y9080
X35793Y11180
X36543Y12930
X36668Y14680
X35143Y15830
X34343Y16130
X33443Y16430
X32618Y17830
X33093Y18205
X33668Y18680
X35423Y18340
X35443Y17830
X35543Y17230
X36043Y16830
X37383Y18510
X40043Y16930
X38643Y15230
X38643Y14030
X40293Y13680
X38543Y12680
X40043Y11180
X31693Y15180
X31418Y17180
X30156Y18143
X29918Y20680
X30918Y20805
X31418Y21930
X31793Y22305
X32293Y22180
X32668Y21805
X33243Y21305
X33668Y22055
X34643Y21430
X34643Y20830
X32418Y23930
X32043Y25055
X29168Y25555
X28543Y23680
X28293Y22180
X29918Y21805
X27043Y19930
X26143Y17830
X23343Y19230
X21373Y22040
X19743Y22630
X19053Y24290
X19673Y24640
X19493Y25370
X20053Y25360
X20903Y24990
X21323Y24510
X23243Y25330
X26143Y24230
X27543Y27930
X23043Y30180
X21893Y30605
X21443Y28255
X22293Y28180
X20673Y27320
X19303Y27320
X18883Y25360
X17418Y24870
X16543Y25180
X16043Y25680
X15543Y26130
X15043Y26630
X14343Y25630
X16343Y24230
X16763Y27310
X15543Y29430
X14343Y29430
X13043Y29930
X12043Y30430
X10043Y29930
X10043Y30930
X12643Y32430
X13543Y32430
X13043Y34430
X12918Y35305
X11543Y35680
X11043Y34430
X10043Y34430
X6543Y33055
X5293Y34430
X5168Y36180
X5918Y36805
X7293Y30930
X6918Y30180
X6543Y29680
X5043Y26930
X13293Y28430
X16543Y31430
X18793Y32180
X21943Y35730
X24793Y35180
X24918Y36680
X37793Y28180
X41628Y27545
X39993Y21780
X28168Y13555
X26043Y14055
T02
X9043Y9380
X9043Y14130
X9043Y19380
X9043Y23880
X9043Y28380
X9043Y32880
X14043Y32930
X15043Y32930
X16043Y32930
X17043Y32930
X18043Y32930
X19043Y32930
X20043Y32930
X21043Y32930
X21043Y33930
X20043Y33930
X19043Y33930
X18043Y33930
X17043Y33930
X16043Y33930
X15043Y33930
X14043Y33930
X14043Y35930
X15043Y35930
X16043Y35930
X17043Y35930
X18043Y35930
X19043Y35930
X20043Y35930
X21043Y35930
X21043Y36930
X20043Y36930
X19043Y36930
X18043Y36930
X17043Y36930
X16043Y36930
X15043Y36930
X14043Y36930
X27006Y24893
X33306Y24893
X42043Y26705
X42043Y28705
X33306Y10719
X27006Y10719
T03
X27043Y15880
X28043Y15880
T04
X8043Y8480
X9043Y8380
X10043Y8480
X11043Y8380
X12043Y8480
X12043Y9480
X11043Y9380
X10043Y9480
X8043Y9480
X9043Y13130
X10043Y13230
X10043Y14230
X11043Y14130
X12043Y14230
X12043Y13230
X11043Y13130
X8043Y13230
X8043Y14230
X8043Y18480
X8043Y19480
X9043Y18380
X10043Y18480
X10043Y19480
X11043Y19380
X11043Y18380
X12043Y18480
X12043Y19480
X11043Y22880
X12043Y22980
X12043Y23980
X11043Y23880
X10043Y23980
X10043Y22980
X9043Y22880
X8043Y22980
X8043Y23980
X8043Y27480
X9043Y27380
X10043Y27480
X11043Y27380
X11043Y28380
X12043Y28480
X12043Y27480
X10043Y28480
X8043Y28480
X8043Y31980
X8043Y32980
X9043Y31880
X10043Y31980
X10043Y32980
X11043Y32880
X11043Y31880
X12043Y31980
X12043Y32980
X23965Y28009
X24965Y28009
X25065Y27009
X24965Y26040
X23965Y26040
X24065Y27009
X24065Y25040
X23965Y24072
X24965Y24072
X25065Y25040
X25065Y23072
X24965Y22103
X23965Y22103
X24065Y23072
X24065Y21103
X23965Y20135
X24965Y20135
X25065Y21103
X25065Y19135
X24065Y19135
X23965Y18166
X24965Y18166
X25065Y17166
X24965Y16198
X23965Y16198
X24065Y17166
X24065Y15198
X23965Y14229
X24965Y14229
X25065Y15198
X25065Y13229
X24065Y13229
X23965Y12261
X24965Y12261
X25065Y11261
X24965Y10292
X23965Y10292
X24065Y11261
X24065Y9292
X25065Y9292
T05
X19093Y7980
X20193Y7980
X20193Y9930
X19093Y9930
X19093Y11930
X20193Y11930
X20193Y13930
X19093Y13930
X27043Y7930
X28143Y7930
X29043Y7930
X30143Y7930
X31043Y7930
X32143Y7930
X34043Y7980
X35043Y7880
X36043Y7980
X37043Y7980
X38043Y7880
X39043Y7980
X40043Y7980
X41043Y7880
X42043Y7980
X27043Y21930
X27043Y23030
X32043Y29980
X33043Y29880
X34043Y29980
X35043Y29880
X36043Y29980
X37043Y29880
X10043Y35930
X10043Y36930
X9043Y36830
X9043Y35830
X8043Y35930
X8043Y36930
T06
X31043Y22930
X31043Y23930
T07
X42043Y12930
X42043Y14899
X42043Y17930
X42043Y19899
X42043Y22930
X42043Y24899
X41918Y31055
X39949Y31055
T08
X5421Y7308
X24712Y7308
X24712Y30143
X5421Y30143
M30
