G75*
%MOIN*%
%OFA0B0*%
%FSLAX24Y24*%
%IPPOS*%
%LPD*%
%AMOC8*
5,1,8,0,0,1.08239X$1,22.5*
%
%ADD10C,0.0160*%
%ADD11C,0.0030*%
%ADD12C,0.0080*%
%ADD13C,0.0020*%
%ADD14C,0.0060*%
%ADD15C,0.0010*%
%ADD16C,0.0040*%
%ADD17C,0.0050*%
%ADD18R,0.0180X0.0300*%
%ADD19R,0.0300X0.0180*%
%ADD20R,0.1000X0.0250*%
%ADD21C,0.0000*%
D10*
X004043Y005930D02*
X004043Y038680D01*
X042918Y038680D01*
X042843Y005905D01*
X042788Y005930D02*
X004043Y005930D01*
D11*
X007524Y007373D02*
X007572Y007325D01*
X007717Y007325D01*
X007717Y007277D02*
X007717Y007518D01*
X007572Y007518D01*
X007524Y007470D01*
X007524Y007373D01*
X007621Y007228D02*
X007669Y007228D01*
X007717Y007277D01*
X007819Y007325D02*
X007819Y007518D01*
X007964Y007518D01*
X008012Y007470D01*
X008012Y007325D01*
X008113Y007373D02*
X008113Y007470D01*
X008162Y007518D01*
X008307Y007518D01*
X008307Y007615D02*
X008307Y007325D01*
X008162Y007325D01*
X008113Y007373D01*
X012738Y008195D02*
X013028Y008195D01*
X013028Y008388D01*
X013028Y008490D02*
X012738Y008683D01*
X012738Y008784D02*
X012738Y008978D01*
X012738Y008881D02*
X013028Y008881D01*
X013028Y008683D02*
X012738Y008490D01*
X012738Y008388D02*
X012738Y008195D01*
X012883Y008195D02*
X012883Y008292D01*
X012834Y009079D02*
X012738Y009176D01*
X013028Y009176D01*
X013028Y009272D02*
X013028Y009079D01*
X013028Y012945D02*
X012738Y012945D01*
X012738Y013138D01*
X012738Y013240D02*
X013028Y013433D01*
X013028Y013240D02*
X012738Y013433D01*
X012738Y013534D02*
X012738Y013728D01*
X012738Y013631D02*
X013028Y013631D01*
X013028Y013829D02*
X012834Y014022D01*
X012786Y014022D01*
X012738Y013974D01*
X012738Y013877D01*
X012786Y013829D01*
X013028Y013829D02*
X013028Y014022D01*
X013028Y013138D02*
X013028Y012945D01*
X012883Y012945D02*
X012883Y013042D01*
X008307Y012365D02*
X008307Y012075D01*
X008162Y012075D01*
X008113Y012123D01*
X008113Y012220D01*
X008162Y012268D01*
X008307Y012268D01*
X008012Y012220D02*
X008012Y012075D01*
X008012Y012220D02*
X007964Y012268D01*
X007819Y012268D01*
X007819Y012075D01*
X007717Y012075D02*
X007572Y012075D01*
X007524Y012123D01*
X007524Y012220D01*
X007572Y012268D01*
X007717Y012268D01*
X007717Y012027D01*
X007669Y011978D01*
X007621Y011978D01*
X007621Y017228D02*
X007669Y017228D01*
X007717Y017277D01*
X007717Y017518D01*
X007572Y017518D01*
X007524Y017470D01*
X007524Y017373D01*
X007572Y017325D01*
X007717Y017325D01*
X007819Y017325D02*
X007819Y017518D01*
X007964Y017518D01*
X008012Y017470D01*
X008012Y017325D01*
X008113Y017373D02*
X008113Y017470D01*
X008162Y017518D01*
X008307Y017518D01*
X008307Y017615D02*
X008307Y017325D01*
X008162Y017325D01*
X008113Y017373D01*
X012738Y018195D02*
X013028Y018195D01*
X013028Y018388D01*
X013028Y018490D02*
X012738Y018683D01*
X012738Y018784D02*
X012738Y018978D01*
X012738Y018881D02*
X013028Y018881D01*
X013028Y018683D02*
X012738Y018490D01*
X012738Y018388D02*
X012738Y018195D01*
X012883Y018195D02*
X012883Y018292D01*
X012980Y019079D02*
X013028Y019127D01*
X013028Y019224D01*
X012980Y019272D01*
X012931Y019272D01*
X012883Y019224D01*
X012883Y019176D01*
X012883Y019224D02*
X012834Y019272D01*
X012786Y019272D01*
X012738Y019224D01*
X012738Y019127D01*
X012786Y019079D01*
X012738Y022695D02*
X013028Y022695D01*
X013028Y022888D01*
X013028Y022990D02*
X012738Y023183D01*
X012738Y023284D02*
X012738Y023478D01*
X012738Y023381D02*
X013028Y023381D01*
X013028Y023183D02*
X012738Y022990D01*
X012738Y022888D02*
X012738Y022695D01*
X012883Y022695D02*
X012883Y022792D01*
X012883Y023579D02*
X012738Y023724D01*
X013028Y023724D01*
X012883Y023772D02*
X012883Y023579D01*
X012883Y027195D02*
X012883Y027292D01*
X013028Y027388D02*
X013028Y027195D01*
X012738Y027195D01*
X012738Y027388D01*
X012738Y027490D02*
X013028Y027683D01*
X013028Y027490D02*
X012738Y027683D01*
X012738Y027784D02*
X012738Y027978D01*
X012738Y027881D02*
X013028Y027881D01*
X012980Y028079D02*
X013028Y028127D01*
X013028Y028224D01*
X012980Y028272D01*
X012883Y028272D01*
X012834Y028224D01*
X012834Y028176D01*
X012883Y028079D01*
X012738Y028079D01*
X012738Y028272D01*
X012738Y031695D02*
X013028Y031695D01*
X013028Y031888D01*
X013028Y031990D02*
X012738Y032183D01*
X012738Y032284D02*
X012738Y032478D01*
X012738Y032381D02*
X013028Y032381D01*
X013028Y032183D02*
X012738Y031990D01*
X012738Y031888D02*
X012738Y031695D01*
X012883Y031695D02*
X012883Y031792D01*
X012883Y032579D02*
X012786Y032676D01*
X012738Y032772D01*
X012883Y032724D02*
X012883Y032579D01*
X012980Y032579D01*
X013028Y032627D01*
X013028Y032724D01*
X012980Y032772D01*
X012931Y032772D01*
X012883Y032724D01*
X008307Y031115D02*
X008307Y030825D01*
X008162Y030825D01*
X008113Y030873D01*
X008113Y030970D01*
X008162Y031018D01*
X008307Y031018D01*
X008012Y030970D02*
X007964Y031018D01*
X007819Y031018D01*
X007819Y030825D01*
X007717Y030825D02*
X007572Y030825D01*
X007524Y030873D01*
X007524Y030970D01*
X007572Y031018D01*
X007717Y031018D01*
X007717Y030777D01*
X007669Y030728D01*
X007621Y030728D01*
X008012Y030825D02*
X008012Y030970D01*
X008307Y026615D02*
X008307Y026325D01*
X008162Y026325D01*
X008113Y026373D01*
X008113Y026470D01*
X008162Y026518D01*
X008307Y026518D01*
X008012Y026470D02*
X008012Y026325D01*
X008012Y026470D02*
X007964Y026518D01*
X007819Y026518D01*
X007819Y026325D01*
X007717Y026325D02*
X007572Y026325D01*
X007524Y026373D01*
X007524Y026470D01*
X007572Y026518D01*
X007717Y026518D01*
X007717Y026277D01*
X007669Y026228D01*
X007621Y026228D01*
X008307Y022115D02*
X008307Y021825D01*
X008162Y021825D01*
X008113Y021873D01*
X008113Y021970D01*
X008162Y022018D01*
X008307Y022018D01*
X008012Y021970D02*
X008012Y021825D01*
X008012Y021970D02*
X007964Y022018D01*
X007819Y022018D01*
X007819Y021825D01*
X007717Y021825D02*
X007572Y021825D01*
X007524Y021873D01*
X007524Y021970D01*
X007572Y022018D01*
X007717Y022018D01*
X007717Y021777D01*
X007669Y021728D01*
X007621Y021728D01*
X018558Y019365D02*
X018558Y019075D01*
X018558Y019172D02*
X018751Y019365D01*
X018853Y019365D02*
X019046Y019075D01*
X019147Y019075D02*
X019147Y019365D01*
X019046Y019365D02*
X018853Y019075D01*
X018751Y019075D02*
X018606Y019220D01*
X018606Y018885D02*
X018558Y018837D01*
X018558Y018643D01*
X018606Y018595D01*
X018703Y018595D01*
X018751Y018643D01*
X018853Y018643D02*
X018901Y018692D01*
X019046Y018692D01*
X019046Y018740D02*
X019046Y018595D01*
X018901Y018595D01*
X018853Y018643D01*
X018901Y018788D02*
X018998Y018788D01*
X019046Y018740D01*
X019147Y018692D02*
X019244Y018788D01*
X019292Y018788D01*
X019393Y018788D02*
X019490Y018788D01*
X019441Y018837D02*
X019441Y018643D01*
X019490Y018595D01*
X019589Y018643D02*
X019589Y018740D01*
X019638Y018788D01*
X019734Y018788D01*
X019783Y018740D01*
X019783Y018692D01*
X019589Y018692D01*
X019589Y018643D02*
X019638Y018595D01*
X019734Y018595D01*
X019686Y018405D02*
X019686Y018115D01*
X019589Y018115D02*
X019783Y018115D01*
X019589Y018308D02*
X019686Y018405D01*
X019490Y018163D02*
X019490Y018115D01*
X019442Y018115D01*
X019442Y018163D01*
X019490Y018163D01*
X019341Y018163D02*
X019292Y018115D01*
X019196Y018115D01*
X019147Y018163D01*
X019341Y018357D01*
X019341Y018163D01*
X019147Y018163D02*
X019147Y018357D01*
X019196Y018405D01*
X019292Y018405D01*
X019341Y018357D01*
X019147Y018595D02*
X019147Y018788D01*
X019341Y019075D02*
X019196Y019220D01*
X019147Y019172D02*
X019341Y019365D01*
X019442Y019365D02*
X019539Y019268D01*
X019635Y019365D01*
X019635Y019075D01*
X019442Y019075D02*
X019442Y019365D01*
X020031Y019220D02*
X020225Y019220D01*
X020620Y019365D02*
X020620Y019075D01*
X020766Y019075D01*
X020814Y019123D01*
X020814Y019317D01*
X020766Y019365D01*
X020620Y019365D01*
X020915Y019365D02*
X021109Y019075D01*
X021109Y019365D01*
X021210Y019317D02*
X021210Y019123D01*
X021258Y019075D01*
X021355Y019075D01*
X021403Y019123D01*
X021403Y019317D02*
X021355Y019365D01*
X021258Y019365D01*
X021210Y019317D01*
X020915Y019365D02*
X020915Y019075D01*
X021062Y018837D02*
X021062Y018643D01*
X021110Y018595D01*
X021210Y018643D02*
X021210Y018740D01*
X021258Y018788D01*
X021355Y018788D01*
X021403Y018740D01*
X021403Y018643D01*
X021355Y018595D01*
X021258Y018595D01*
X021210Y018643D01*
X021110Y018788D02*
X021013Y018788D01*
X020912Y018740D02*
X020864Y018788D01*
X020767Y018788D01*
X020719Y018740D01*
X020719Y018643D01*
X020767Y018595D01*
X020864Y018595D01*
X020912Y018643D01*
X020912Y018740D01*
X020618Y018788D02*
X020570Y018788D01*
X020473Y018692D01*
X020473Y018788D02*
X020473Y018595D01*
X020372Y018643D02*
X020324Y018595D01*
X020178Y018595D01*
X020178Y018498D02*
X020178Y018788D01*
X020324Y018788D01*
X020372Y018740D01*
X020372Y018643D01*
X020669Y017494D02*
X020669Y017445D01*
X020669Y017348D02*
X020669Y017155D01*
X020717Y017155D02*
X020620Y017155D01*
X020521Y017155D02*
X020472Y017203D01*
X020472Y017397D01*
X020424Y017348D02*
X020521Y017348D01*
X020620Y017348D02*
X020669Y017348D01*
X020817Y017300D02*
X020817Y017203D01*
X020865Y017155D01*
X020962Y017155D01*
X021010Y017203D01*
X021010Y017300D01*
X020962Y017348D01*
X020865Y017348D01*
X020817Y017300D01*
X021112Y017348D02*
X021257Y017348D01*
X021305Y017300D01*
X021305Y017155D01*
X021112Y017155D02*
X021112Y017348D01*
X020912Y016965D02*
X020912Y016675D01*
X021013Y016723D02*
X021062Y016675D01*
X021158Y016675D01*
X021207Y016723D01*
X021207Y016820D01*
X021158Y016868D01*
X021062Y016868D01*
X021013Y016820D01*
X021013Y016723D01*
X020912Y016820D02*
X020719Y016820D01*
X020719Y016675D02*
X020719Y016965D01*
X020323Y016820D02*
X020323Y016772D01*
X020129Y016772D01*
X020129Y016820D02*
X020178Y016868D01*
X020275Y016868D01*
X020323Y016820D01*
X020275Y016675D02*
X020178Y016675D01*
X020129Y016723D01*
X020129Y016820D01*
X020029Y016868D02*
X019981Y016868D01*
X019884Y016772D01*
X019884Y016868D02*
X019884Y016675D01*
X019883Y016534D02*
X019883Y016485D01*
X019883Y016388D02*
X019883Y016195D01*
X019835Y016195D02*
X019931Y016195D01*
X020031Y016243D02*
X020031Y016340D01*
X020080Y016388D01*
X020176Y016388D01*
X020225Y016340D01*
X020225Y016292D01*
X020031Y016292D01*
X020031Y016243D02*
X020080Y016195D01*
X020176Y016195D01*
X020326Y016195D02*
X020326Y016388D01*
X020326Y016292D02*
X020423Y016388D01*
X020471Y016388D01*
X020866Y016292D02*
X021011Y016292D01*
X021060Y016340D01*
X021060Y016437D01*
X021011Y016485D01*
X020866Y016485D01*
X020866Y016195D01*
X020963Y016292D02*
X021060Y016195D01*
X021161Y016243D02*
X021209Y016292D01*
X021354Y016292D01*
X021354Y016340D02*
X021354Y016195D01*
X021209Y016195D01*
X021161Y016243D01*
X021209Y016388D02*
X021306Y016388D01*
X021354Y016340D01*
X021455Y016340D02*
X021504Y016388D01*
X021649Y016388D01*
X021649Y016485D02*
X021649Y016195D01*
X021504Y016195D01*
X021455Y016243D01*
X021455Y016340D01*
X021750Y016388D02*
X021798Y016388D01*
X021798Y016195D01*
X021750Y016195D02*
X021847Y016195D01*
X021946Y016195D02*
X022092Y016195D01*
X022140Y016243D01*
X022092Y016292D01*
X021995Y016292D01*
X021946Y016340D01*
X021995Y016388D01*
X022140Y016388D01*
X022241Y016340D02*
X022289Y016388D01*
X022435Y016388D01*
X022386Y016292D02*
X022289Y016292D01*
X022241Y016340D01*
X022241Y016195D02*
X022386Y016195D01*
X022435Y016243D01*
X022386Y016292D01*
X022536Y016340D02*
X022536Y016243D01*
X022584Y016195D01*
X022681Y016195D01*
X022729Y016243D01*
X022729Y016340D01*
X022681Y016388D01*
X022584Y016388D01*
X022536Y016340D01*
X022830Y016388D02*
X022975Y016388D01*
X023024Y016340D01*
X023024Y016195D01*
X022830Y016195D02*
X022830Y016388D01*
X022730Y016675D02*
X022633Y016675D01*
X022585Y016723D01*
X022585Y016820D01*
X022633Y016868D01*
X022730Y016868D01*
X022778Y016820D01*
X022778Y016772D01*
X022585Y016772D01*
X022485Y016675D02*
X022388Y016675D01*
X022437Y016675D02*
X022437Y016965D01*
X022388Y016965D01*
X022240Y016965D02*
X022240Y016675D01*
X022192Y016675D02*
X022289Y016675D01*
X022091Y016772D02*
X021897Y016772D01*
X021897Y016820D02*
X021946Y016868D01*
X022042Y016868D01*
X022091Y016820D01*
X022091Y016772D01*
X022042Y016675D02*
X021946Y016675D01*
X021897Y016723D01*
X021897Y016820D01*
X021796Y016868D02*
X021603Y016675D01*
X021796Y016675D01*
X021798Y016534D02*
X021798Y016485D01*
X021796Y016868D02*
X021603Y016868D01*
X021501Y016820D02*
X021501Y016772D01*
X021308Y016772D01*
X021308Y016820D02*
X021356Y016868D01*
X021453Y016868D01*
X021501Y016820D01*
X021453Y016675D02*
X021356Y016675D01*
X021308Y016723D01*
X021308Y016820D01*
X021701Y017155D02*
X021701Y017203D01*
X021749Y017203D01*
X021749Y017155D01*
X021701Y017155D01*
X021701Y017300D02*
X021701Y017348D01*
X021749Y017348D01*
X021749Y017300D01*
X021701Y017300D01*
X022192Y016965D02*
X022240Y016965D01*
X022289Y018595D02*
X022240Y018643D01*
X022240Y018837D01*
X022192Y018788D02*
X022289Y018788D01*
X022388Y018788D02*
X022388Y018595D01*
X022388Y018692D02*
X022485Y018788D01*
X022534Y018788D01*
X022634Y018740D02*
X022682Y018788D01*
X022779Y018788D01*
X022827Y018740D01*
X022827Y018692D01*
X022634Y018692D01*
X022634Y018740D02*
X022634Y018643D01*
X022682Y018595D01*
X022779Y018595D01*
X022929Y018643D02*
X022977Y018595D01*
X023122Y018595D01*
X023122Y018788D01*
X023223Y018788D02*
X023223Y018595D01*
X023223Y018692D02*
X023320Y018788D01*
X023368Y018788D01*
X022929Y018788D02*
X022929Y018643D01*
X022092Y018595D02*
X021996Y018595D01*
X022044Y018595D02*
X022044Y018788D01*
X021996Y018788D01*
X021896Y018788D02*
X021799Y018788D01*
X021847Y018837D02*
X021847Y018643D01*
X021896Y018595D01*
X022044Y018885D02*
X022044Y018934D01*
X020323Y017300D02*
X020323Y017155D01*
X020178Y017155D01*
X020129Y017203D01*
X020178Y017252D01*
X020323Y017252D01*
X020323Y017300D02*
X020275Y017348D01*
X020178Y017348D01*
X020028Y017348D02*
X019883Y017348D01*
X019835Y017300D01*
X019883Y017252D01*
X019980Y017252D01*
X020028Y017203D01*
X019980Y017155D01*
X019835Y017155D01*
X019735Y017155D02*
X019638Y017155D01*
X019687Y017155D02*
X019687Y017348D01*
X019638Y017348D01*
X019687Y017445D02*
X019687Y017494D01*
X019490Y017445D02*
X019490Y017155D01*
X019442Y017155D02*
X019539Y017155D01*
X019341Y017155D02*
X019196Y017155D01*
X019147Y017203D01*
X019196Y017252D01*
X019341Y017252D01*
X019341Y017300D02*
X019341Y017155D01*
X019341Y017300D02*
X019292Y017348D01*
X019196Y017348D01*
X019046Y017300D02*
X019046Y017252D01*
X018853Y017252D01*
X018853Y017300D02*
X018901Y017348D01*
X018998Y017348D01*
X019046Y017300D01*
X018998Y017155D02*
X018901Y017155D01*
X018853Y017203D01*
X018853Y017300D01*
X018751Y017300D02*
X018703Y017252D01*
X018558Y017252D01*
X018655Y017252D02*
X018751Y017155D01*
X018751Y017300D02*
X018751Y017397D01*
X018703Y017445D01*
X018558Y017445D01*
X018558Y017155D01*
X018853Y016965D02*
X018998Y016965D01*
X019046Y016917D01*
X019046Y016820D01*
X018998Y016772D01*
X018853Y016772D01*
X018853Y016675D02*
X018853Y016965D01*
X019147Y016868D02*
X019196Y016868D01*
X019196Y016675D01*
X019244Y016675D02*
X019147Y016675D01*
X019147Y016485D02*
X019196Y016485D01*
X019196Y016195D01*
X019244Y016195D02*
X019147Y016195D01*
X019046Y016243D02*
X019046Y016437D01*
X018998Y016485D01*
X018901Y016485D01*
X018853Y016437D01*
X018853Y016243D01*
X018901Y016195D01*
X018998Y016195D01*
X019046Y016243D01*
X019344Y016195D02*
X019440Y016195D01*
X019392Y016195D02*
X019392Y016388D01*
X019344Y016388D01*
X019392Y016485D02*
X019392Y016534D01*
X019392Y016675D02*
X019344Y016723D01*
X019344Y016820D01*
X019392Y016868D01*
X019489Y016868D01*
X019537Y016820D01*
X019537Y016772D01*
X019344Y016772D01*
X019392Y016675D02*
X019489Y016675D01*
X019638Y016675D02*
X019638Y016868D01*
X019638Y016772D02*
X019735Y016868D01*
X019783Y016868D01*
X019734Y016388D02*
X019637Y016195D01*
X019540Y016388D01*
X019835Y016388D02*
X019883Y016388D01*
X019196Y016965D02*
X019196Y017014D01*
X019442Y017445D02*
X019490Y017445D01*
X018998Y017494D02*
X018901Y017445D01*
X018655Y018115D02*
X018751Y018308D01*
X018558Y018308D02*
X018655Y018115D01*
X018751Y018837D02*
X018703Y018885D01*
X018606Y018885D01*
X019608Y023095D02*
X019608Y023385D01*
X019753Y023385D01*
X019801Y023337D01*
X019801Y023240D01*
X019753Y023192D01*
X019608Y023192D01*
X019705Y023192D02*
X019801Y023095D01*
X019903Y023095D02*
X020096Y023095D01*
X020197Y023143D02*
X020246Y023095D01*
X020342Y023095D01*
X020391Y023143D01*
X020391Y023240D01*
X020294Y023240D01*
X020197Y023337D02*
X020197Y023143D01*
X020197Y023337D02*
X020246Y023385D01*
X020342Y023385D01*
X020391Y023337D01*
X020492Y023337D02*
X020540Y023385D01*
X020637Y023385D01*
X020685Y023337D01*
X020685Y023288D01*
X020492Y023095D01*
X020685Y023095D01*
X020096Y023385D02*
X019903Y023385D01*
X019903Y023095D01*
X019903Y023240D02*
X019999Y023240D01*
X019335Y027420D02*
X019142Y027420D01*
X019239Y027420D02*
X019239Y027710D01*
X019142Y027613D01*
X019041Y027565D02*
X018944Y027565D01*
X019041Y027565D02*
X019041Y027468D01*
X018992Y027420D01*
X018896Y027420D01*
X018847Y027468D01*
X018847Y027662D01*
X018896Y027710D01*
X018992Y027710D01*
X019041Y027662D01*
X018746Y027710D02*
X018553Y027710D01*
X018553Y027420D01*
X018746Y027420D01*
X018649Y027565D02*
X018553Y027565D01*
X018451Y027565D02*
X018403Y027517D01*
X018258Y027517D01*
X018355Y027517D02*
X018451Y027420D01*
X018451Y027565D02*
X018451Y027662D01*
X018403Y027710D01*
X018258Y027710D01*
X018258Y027420D01*
X018721Y031725D02*
X018721Y032015D01*
X018817Y032015D02*
X018624Y032015D01*
X018919Y032015D02*
X019015Y032015D01*
X018967Y032015D02*
X018967Y031725D01*
X018919Y031725D02*
X019015Y031725D01*
X019212Y031725D02*
X019212Y032015D01*
X019115Y032015D02*
X019309Y032015D01*
X019410Y032015D02*
X019555Y032015D01*
X019603Y031967D01*
X019603Y031870D01*
X019555Y031822D01*
X019410Y031822D01*
X019506Y031822D02*
X019603Y031725D01*
X019704Y031725D02*
X019704Y032015D01*
X019898Y032015D01*
X019999Y032015D02*
X019999Y031773D01*
X020047Y031725D01*
X020144Y031725D01*
X020192Y031773D01*
X020192Y032015D01*
X020294Y032015D02*
X020439Y032015D01*
X020487Y031967D01*
X020487Y031870D01*
X020439Y031822D01*
X020294Y031822D01*
X020390Y031822D02*
X020487Y031725D01*
X020588Y031725D02*
X020782Y031918D01*
X020782Y031967D01*
X020733Y032015D01*
X020637Y032015D01*
X020588Y031967D01*
X020588Y031725D02*
X020782Y031725D01*
X020294Y031725D02*
X020294Y032015D01*
X019898Y031725D02*
X019704Y031725D01*
X019704Y031870D02*
X019801Y031870D01*
X019410Y031725D02*
X019410Y032015D01*
X015907Y037850D02*
X015713Y037850D01*
X015810Y037850D02*
X015810Y038140D01*
X015713Y038043D01*
X015612Y037995D02*
X015564Y037947D01*
X015419Y037947D01*
X015515Y037947D02*
X015612Y037850D01*
X015612Y037995D02*
X015612Y038092D01*
X015564Y038140D01*
X015419Y038140D01*
X015419Y037850D01*
X015317Y037898D02*
X015317Y038140D01*
X015124Y038140D02*
X015124Y037898D01*
X015172Y037850D01*
X015269Y037850D01*
X015317Y037898D01*
X015023Y037850D02*
X014829Y037850D01*
X014829Y038140D01*
X015023Y038140D01*
X014926Y037995D02*
X014829Y037995D01*
X014728Y037995D02*
X014680Y037947D01*
X014535Y037947D01*
X014631Y037947D02*
X014728Y037850D01*
X014728Y037995D02*
X014728Y038092D01*
X014680Y038140D01*
X014535Y038140D01*
X014535Y037850D01*
X014337Y037850D02*
X014337Y038140D01*
X014240Y038140D02*
X014434Y038140D01*
X014140Y038140D02*
X014044Y038140D01*
X014092Y038140D02*
X014092Y037850D01*
X014044Y037850D02*
X014140Y037850D01*
X013846Y037850D02*
X013846Y038140D01*
X013942Y038140D02*
X013749Y038140D01*
X039738Y025604D02*
X040028Y025604D01*
X040028Y025508D02*
X040028Y025701D01*
X039834Y025508D02*
X039738Y025604D01*
X039738Y025406D02*
X039738Y025213D01*
X039738Y025310D02*
X040028Y025310D01*
X039980Y025112D02*
X039738Y025112D01*
X039738Y024918D02*
X039980Y024918D01*
X040028Y024967D01*
X040028Y025063D01*
X039980Y025112D01*
X039980Y024817D02*
X039786Y024817D01*
X039738Y024769D01*
X039738Y024672D01*
X039786Y024624D01*
X039980Y024624D01*
X040028Y024672D01*
X040028Y024769D01*
X039980Y024817D01*
X040076Y024522D02*
X040076Y024329D01*
X040028Y024228D02*
X039931Y024131D01*
X039931Y024179D02*
X039931Y024034D01*
X040028Y024034D02*
X039738Y024034D01*
X039738Y024179D01*
X039786Y024228D01*
X039883Y024228D01*
X039931Y024179D01*
X040028Y023933D02*
X039738Y023933D01*
X039738Y023740D02*
X040028Y023740D01*
X039931Y023836D01*
X040028Y023933D01*
X039883Y023638D02*
X039786Y023638D01*
X039738Y023590D01*
X039738Y023445D01*
X040028Y023445D01*
X039931Y023445D02*
X039931Y023590D01*
X039883Y023638D01*
X039834Y020951D02*
X039786Y020951D01*
X039738Y020903D01*
X039738Y020806D01*
X039786Y020758D01*
X039738Y020656D02*
X039738Y020463D01*
X039738Y020560D02*
X040028Y020560D01*
X040028Y020758D02*
X039834Y020951D01*
X040028Y020951D02*
X040028Y020758D01*
X039980Y020362D02*
X039738Y020362D01*
X039738Y020168D02*
X039980Y020168D01*
X040028Y020217D01*
X040028Y020313D01*
X039980Y020362D01*
X039980Y020067D02*
X039786Y020067D01*
X039738Y020019D01*
X039738Y019922D01*
X039786Y019874D01*
X039980Y019874D01*
X040028Y019922D01*
X040028Y020019D01*
X039980Y020067D01*
X040076Y019772D02*
X040076Y019579D01*
X040028Y019478D02*
X039931Y019381D01*
X039931Y019429D02*
X039931Y019284D01*
X040028Y019284D02*
X039738Y019284D01*
X039738Y019429D01*
X039786Y019478D01*
X039883Y019478D01*
X039931Y019429D01*
X040028Y019183D02*
X039738Y019183D01*
X039738Y018990D02*
X040028Y018990D01*
X039931Y019086D01*
X040028Y019183D01*
X039883Y018888D02*
X039786Y018888D01*
X039738Y018840D01*
X039738Y018695D01*
X040028Y018695D01*
X039931Y018695D02*
X039931Y018840D01*
X039883Y018888D01*
X039855Y015576D02*
X039903Y015528D01*
X039903Y015431D01*
X039855Y015383D01*
X039758Y015479D02*
X039758Y015528D01*
X039806Y015576D01*
X039855Y015576D01*
X039758Y015528D02*
X039709Y015576D01*
X039661Y015576D01*
X039613Y015528D01*
X039613Y015431D01*
X039661Y015383D01*
X039613Y015281D02*
X039613Y015088D01*
X039613Y015185D02*
X039903Y015185D01*
X039855Y014987D02*
X039903Y014938D01*
X039903Y014842D01*
X039855Y014793D01*
X039613Y014793D01*
X039661Y014692D02*
X039613Y014644D01*
X039613Y014547D01*
X039661Y014499D01*
X039855Y014499D01*
X039903Y014547D01*
X039903Y014644D01*
X039855Y014692D01*
X039661Y014692D01*
X039613Y014987D02*
X039855Y014987D01*
X039951Y014397D02*
X039951Y014204D01*
X039903Y014103D02*
X039806Y014006D01*
X039806Y014054D02*
X039806Y013909D01*
X039903Y013909D02*
X039613Y013909D01*
X039613Y014054D01*
X039661Y014103D01*
X039758Y014103D01*
X039806Y014054D01*
X039903Y013808D02*
X039613Y013808D01*
X039613Y013615D02*
X039903Y013615D01*
X039806Y013711D01*
X039903Y013808D01*
X039758Y013513D02*
X039806Y013465D01*
X039806Y013320D01*
X039903Y013320D02*
X039613Y013320D01*
X039613Y013465D01*
X039661Y013513D01*
X039758Y013513D01*
X040578Y007327D02*
X040578Y007133D01*
X040482Y007230D02*
X040675Y007230D01*
X039793Y007230D02*
X039668Y007230D01*
X037675Y007230D02*
X037482Y007230D01*
X037578Y007327D02*
X037578Y007133D01*
X036793Y007230D02*
X036668Y007230D01*
X034675Y007230D02*
X034482Y007230D01*
X034578Y007327D02*
X034578Y007133D01*
X033793Y007230D02*
X033668Y007230D01*
X032660Y008423D02*
X032660Y008617D01*
X032563Y008520D02*
X032757Y008520D01*
X030757Y008520D02*
X030563Y008520D01*
X030660Y008617D02*
X030660Y008423D01*
X028757Y008520D02*
X028563Y008520D01*
X028660Y008617D02*
X028660Y008423D01*
X018601Y009340D02*
X018408Y009340D01*
X018505Y009437D02*
X018505Y009243D01*
X018505Y007487D02*
X018505Y007293D01*
X018601Y007390D02*
X018408Y007390D01*
X018505Y011243D02*
X018505Y011437D01*
X018601Y011340D02*
X018408Y011340D01*
X018505Y013243D02*
X018505Y013437D01*
X018601Y013340D02*
X018408Y013340D01*
X040138Y032875D02*
X040138Y033165D01*
X040283Y033165D01*
X040332Y033117D01*
X040332Y033020D01*
X040283Y032972D01*
X040138Y032972D01*
X040235Y032972D02*
X040332Y032875D01*
X040433Y032875D02*
X040433Y033068D01*
X040530Y033165D01*
X040626Y033068D01*
X040626Y032875D01*
X040728Y032875D02*
X040824Y032972D01*
X040921Y032875D01*
X040921Y033165D01*
X040728Y033165D02*
X040728Y032875D01*
X040626Y033020D02*
X040433Y033020D01*
X041022Y032827D02*
X041216Y032827D01*
X041317Y032875D02*
X041414Y032875D01*
X041365Y032875D02*
X041365Y033165D01*
X041317Y033165D02*
X041414Y033165D01*
X041513Y033165D02*
X041707Y032875D01*
X041707Y033165D01*
X041513Y033165D02*
X041513Y032875D01*
D12*
X043138Y032354D02*
X043138Y031961D01*
X038729Y031961D01*
X038729Y032354D01*
X043138Y032354D01*
X043138Y031961D02*
X043138Y029401D01*
X038729Y029401D01*
X038729Y031961D01*
X037293Y030430D02*
X036793Y030430D01*
X036543Y030180D01*
X036543Y029680D01*
X036293Y029430D01*
X035793Y029430D01*
X035543Y029680D01*
X035543Y030180D01*
X035793Y030430D01*
X036293Y030430D01*
X036543Y030180D01*
X037293Y030430D02*
X037543Y030180D01*
X037543Y029680D01*
X037293Y029430D01*
X036793Y029430D01*
X036543Y029680D01*
X035543Y029680D02*
X035293Y029430D01*
X034793Y029430D01*
X034543Y029680D01*
X034543Y030180D01*
X034793Y030430D01*
X035293Y030430D01*
X035543Y030180D01*
X034543Y030180D02*
X034293Y030430D01*
X033793Y030430D01*
X033543Y030180D01*
X033543Y029680D01*
X033293Y029430D01*
X032793Y029430D01*
X032543Y029680D01*
X032543Y030180D01*
X032793Y030430D01*
X033293Y030430D01*
X033543Y030180D01*
X033543Y029680D02*
X033793Y029430D01*
X034293Y029430D01*
X034543Y029680D01*
X032543Y029680D02*
X032293Y029430D01*
X031793Y029430D01*
X031543Y029680D01*
X031543Y030180D01*
X031793Y030430D01*
X032293Y030430D01*
X032543Y030180D01*
X039159Y028702D02*
X039159Y027758D01*
X039749Y027758D01*
X039604Y027481D02*
X039919Y027481D01*
X039919Y027245D01*
X040537Y027758D02*
X040970Y027758D01*
X041127Y027915D01*
X041127Y028545D01*
X040970Y028702D01*
X040537Y028702D01*
X039749Y028702D02*
X039159Y028702D01*
X039919Y026615D02*
X039919Y026379D01*
X039604Y026379D01*
X040389Y026119D02*
X042948Y026119D01*
X042948Y021710D01*
X040389Y021710D01*
X040389Y026119D01*
X041443Y026205D02*
X041443Y029205D01*
X042643Y029205D01*
X042643Y026205D01*
X041443Y026205D01*
X042948Y026119D02*
X043342Y026119D01*
X043342Y021710D01*
X042948Y021710D01*
X042948Y021119D02*
X042948Y016710D01*
X040389Y016710D01*
X040389Y021119D01*
X042948Y021119D01*
X043342Y021119D01*
X043342Y016710D01*
X042948Y016710D01*
X042948Y016119D02*
X042948Y011710D01*
X040389Y011710D01*
X040389Y016119D01*
X042948Y016119D01*
X043342Y016119D01*
X043342Y011710D01*
X042948Y011710D01*
X039682Y012297D02*
X039367Y012297D01*
X039367Y012415D01*
X039367Y013045D02*
X039367Y013163D01*
X039682Y013163D01*
X039682Y017297D02*
X039367Y017297D01*
X039367Y017415D01*
X039367Y018045D02*
X039367Y018163D01*
X039682Y018163D01*
X039682Y022297D02*
X039367Y022297D01*
X039367Y022415D01*
X039367Y023045D02*
X039367Y023163D01*
X039682Y023163D01*
X030144Y016206D02*
X030144Y015891D01*
X030144Y016206D02*
X029908Y016206D01*
X029278Y016206D02*
X029042Y016206D01*
X029042Y015891D01*
X028626Y011806D02*
X028508Y011806D01*
X028626Y011806D02*
X028626Y011491D01*
X027878Y011806D02*
X027760Y011806D01*
X027760Y011491D01*
X029660Y011491D02*
X029660Y011806D01*
X029778Y011806D01*
X030408Y011806D02*
X030526Y011806D01*
X030526Y011491D01*
X031560Y011491D02*
X031560Y011806D01*
X031678Y011806D01*
X032308Y011806D02*
X032426Y011806D01*
X032426Y011491D01*
X032483Y008430D02*
X032593Y008320D01*
X032593Y007930D01*
X032593Y007540D01*
X032483Y007430D01*
X032493Y007930D02*
X032593Y007930D01*
X031743Y007930D02*
X031443Y007930D01*
X030693Y007930D02*
X030593Y007930D01*
X030593Y007540D01*
X030703Y007430D01*
X030593Y007540D02*
X030483Y007430D01*
X030593Y007540D02*
X030593Y007930D01*
X030593Y008320D01*
X030703Y008430D01*
X030593Y008320D02*
X030483Y008430D01*
X030593Y008320D02*
X030593Y007930D01*
X030493Y007930D01*
X029743Y007930D02*
X029443Y007930D01*
X028693Y007930D02*
X028593Y007930D01*
X028593Y007540D01*
X028703Y007430D01*
X028593Y007540D02*
X028483Y007430D01*
X028593Y007540D02*
X028593Y007930D01*
X028593Y008320D01*
X028703Y008430D01*
X028593Y008320D02*
X028483Y008430D01*
X028593Y008320D02*
X028593Y007930D01*
X028493Y007930D01*
X027743Y007930D02*
X027443Y007930D01*
X026693Y007930D02*
X026593Y007930D01*
X026593Y007540D01*
X026703Y007430D01*
X026593Y007930D02*
X026593Y008320D01*
X026703Y008430D01*
X020643Y008370D02*
X020643Y007980D01*
X020643Y007590D01*
X020533Y007480D01*
X020543Y007980D02*
X020643Y007980D01*
X020643Y008370D02*
X020533Y008480D01*
X019793Y007980D02*
X019493Y007980D01*
X018743Y007980D02*
X018643Y007980D01*
X018643Y007590D01*
X018753Y007480D01*
X018643Y007980D02*
X018643Y008370D01*
X018753Y008480D01*
X018753Y009430D02*
X018643Y009540D01*
X018643Y009930D01*
X018643Y010320D01*
X018753Y010430D01*
X018743Y009930D02*
X018643Y009930D01*
X019493Y009930D02*
X019793Y009930D01*
X020543Y009930D02*
X020643Y009930D01*
X020643Y010320D01*
X020533Y010430D01*
X020643Y009930D02*
X020643Y009540D01*
X020533Y009430D01*
X020533Y011430D02*
X020643Y011540D01*
X020643Y011930D01*
X020643Y012320D01*
X020533Y012430D01*
X020543Y011930D02*
X020643Y011930D01*
X019793Y011930D02*
X019493Y011930D01*
X018743Y011930D02*
X018643Y011930D01*
X018643Y011540D01*
X018753Y011430D01*
X018643Y011930D02*
X018643Y012320D01*
X018753Y012430D01*
X018753Y013430D02*
X018643Y013540D01*
X018643Y013930D01*
X018643Y014320D01*
X018753Y014430D01*
X018743Y013930D02*
X018643Y013930D01*
X019493Y013930D02*
X019793Y013930D01*
X020543Y013930D02*
X020643Y013930D01*
X020643Y014320D01*
X020533Y014430D01*
X020643Y013930D02*
X020643Y013540D01*
X020533Y013430D01*
X026653Y021480D02*
X026543Y021590D01*
X026653Y021480D02*
X027043Y021480D01*
X027433Y021480D01*
X027543Y021590D01*
X027043Y021580D02*
X027043Y021480D01*
X027043Y022330D02*
X027043Y022630D01*
X027043Y023380D02*
X027043Y023480D01*
X026653Y023480D01*
X026543Y023370D01*
X027043Y023480D02*
X027433Y023480D01*
X027543Y023370D01*
X010543Y035680D02*
X010543Y037180D01*
X010293Y037430D01*
X009793Y037430D01*
X009543Y037180D01*
X009543Y035680D01*
X009793Y035430D01*
X010293Y035430D01*
X010543Y035680D01*
X009543Y035680D02*
X009293Y035430D01*
X008793Y035430D01*
X008543Y035680D01*
X008543Y037180D01*
X008793Y037430D01*
X009293Y037430D01*
X009543Y037180D01*
X008543Y037180D02*
X008293Y037430D01*
X007793Y037430D01*
X007543Y037180D01*
X007543Y035680D01*
X007793Y035430D01*
X008293Y035430D01*
X008543Y035680D01*
X008293Y035298D02*
X007793Y035298D01*
X033653Y008430D02*
X033543Y008320D01*
X033543Y007930D01*
X033543Y007540D01*
X033653Y007430D01*
X033643Y007930D02*
X033543Y007930D01*
X034443Y007930D02*
X034643Y007930D01*
X035443Y007930D02*
X035643Y007930D01*
X036443Y007930D02*
X036543Y007930D01*
X036543Y007540D01*
X036653Y007430D01*
X036543Y007540D02*
X036433Y007430D01*
X036543Y007540D02*
X036543Y007930D01*
X036543Y008320D01*
X036653Y008430D01*
X036543Y008320D02*
X036433Y008430D01*
X036543Y008320D02*
X036543Y007930D01*
X036643Y007930D01*
X037443Y007930D02*
X037643Y007930D01*
X038443Y007930D02*
X038643Y007930D01*
X039443Y007930D02*
X039543Y007930D01*
X039543Y007540D01*
X039653Y007430D01*
X039543Y007540D02*
X039433Y007430D01*
X039543Y007540D02*
X039543Y007930D01*
X039543Y008320D01*
X039653Y008430D01*
X039543Y008320D02*
X039433Y008430D01*
X039543Y008320D02*
X039543Y007930D01*
X039643Y007930D01*
X040443Y007930D02*
X040643Y007930D01*
X041443Y007930D02*
X041643Y007930D01*
X042443Y007930D02*
X042543Y007930D01*
X042543Y008320D01*
X042433Y008430D01*
X042543Y007930D02*
X042543Y007540D01*
X042433Y007430D01*
D13*
X039194Y012197D02*
X038973Y012197D01*
X039047Y012270D01*
X038973Y012344D01*
X039194Y012344D01*
X039157Y012418D02*
X039194Y012455D01*
X039194Y012528D01*
X039157Y012565D01*
X039010Y012565D01*
X038973Y012528D01*
X038973Y012455D01*
X039010Y012418D01*
X039157Y012418D01*
X039157Y012639D02*
X039194Y012676D01*
X039194Y012749D01*
X039157Y012786D01*
X039120Y012786D01*
X039083Y012749D01*
X039083Y012676D01*
X039047Y012639D01*
X039010Y012639D01*
X038973Y012676D01*
X038973Y012749D01*
X039010Y012786D01*
X039230Y012860D02*
X039230Y013007D01*
X039194Y013081D02*
X038973Y013081D01*
X038973Y013191D01*
X039010Y013228D01*
X039083Y013228D01*
X039120Y013191D01*
X039120Y013081D01*
X039194Y013302D02*
X039120Y013375D01*
X039194Y013449D01*
X038973Y013449D01*
X038973Y013523D02*
X038973Y013633D01*
X039010Y013670D01*
X039083Y013670D01*
X039120Y013633D01*
X039120Y013523D01*
X039120Y013596D02*
X039194Y013670D01*
X039157Y013744D02*
X039194Y013781D01*
X039194Y013854D01*
X039157Y013891D01*
X039120Y013891D01*
X039083Y013854D01*
X039083Y013817D01*
X039083Y013854D02*
X039047Y013891D01*
X039010Y013891D01*
X038973Y013854D01*
X038973Y013781D01*
X039010Y013744D01*
X038973Y013523D02*
X039194Y013523D01*
X039194Y013302D02*
X038973Y013302D01*
X038134Y013337D02*
X038097Y013300D01*
X038134Y013263D01*
X038134Y013227D01*
X038097Y013190D01*
X038024Y013190D01*
X037987Y013227D01*
X038060Y013300D02*
X038097Y013300D01*
X038134Y013337D02*
X038134Y013373D01*
X038097Y013410D01*
X038024Y013410D01*
X037987Y013373D01*
X037913Y013410D02*
X037766Y013410D01*
X037839Y013410D02*
X037839Y013190D01*
X037692Y013227D02*
X037692Y013410D01*
X037545Y013410D02*
X037545Y013227D01*
X037582Y013190D01*
X037655Y013190D01*
X037692Y013227D01*
X037471Y013227D02*
X037471Y013373D01*
X037434Y013410D01*
X037361Y013410D01*
X037324Y013373D01*
X037324Y013227D01*
X037361Y013190D01*
X037434Y013190D01*
X037471Y013227D01*
X037250Y013190D02*
X037176Y013263D01*
X037213Y013263D02*
X037103Y013263D01*
X037103Y013190D02*
X037103Y013410D01*
X037213Y013410D01*
X037250Y013373D01*
X037250Y013300D01*
X037213Y013263D01*
X037200Y013590D02*
X037053Y013590D01*
X037126Y013590D02*
X037126Y013810D01*
X037053Y013737D01*
X037274Y013773D02*
X037311Y013810D01*
X037384Y013810D01*
X037421Y013773D01*
X037274Y013627D01*
X037311Y013590D01*
X037384Y013590D01*
X037421Y013627D01*
X037421Y013773D01*
X037495Y013773D02*
X037532Y013810D01*
X037605Y013810D01*
X037642Y013773D01*
X037495Y013627D01*
X037532Y013590D01*
X037605Y013590D01*
X037642Y013627D01*
X037642Y013773D01*
X037716Y013810D02*
X037716Y013590D01*
X037716Y013663D02*
X037826Y013590D01*
X037716Y013663D02*
X037826Y013737D01*
X037495Y013773D02*
X037495Y013627D01*
X037274Y013627D02*
X037274Y013773D01*
X037250Y014340D02*
X037176Y014413D01*
X037213Y014413D02*
X037103Y014413D01*
X037103Y014340D02*
X037103Y014560D01*
X037213Y014560D01*
X037250Y014523D01*
X037250Y014450D01*
X037213Y014413D01*
X037324Y014377D02*
X037361Y014340D01*
X037434Y014340D01*
X037471Y014377D01*
X037471Y014523D01*
X037434Y014560D01*
X037361Y014560D01*
X037324Y014523D01*
X037324Y014377D01*
X037545Y014377D02*
X037545Y014560D01*
X037692Y014560D02*
X037692Y014377D01*
X037655Y014340D01*
X037582Y014340D01*
X037545Y014377D01*
X037766Y014560D02*
X037913Y014560D01*
X037839Y014560D02*
X037839Y014340D01*
X037987Y014340D02*
X038134Y014487D01*
X038134Y014523D01*
X038097Y014560D01*
X038024Y014560D01*
X037987Y014523D01*
X037987Y014340D02*
X038134Y014340D01*
X037951Y014790D02*
X037841Y014863D01*
X037951Y014937D01*
X037841Y015010D02*
X037841Y014790D01*
X037767Y014827D02*
X037730Y014790D01*
X037657Y014790D01*
X037620Y014827D01*
X037767Y014973D01*
X037767Y014827D01*
X037767Y014973D02*
X037730Y015010D01*
X037657Y015010D01*
X037620Y014973D01*
X037620Y014827D01*
X037546Y014827D02*
X037509Y014790D01*
X037436Y014790D01*
X037399Y014827D01*
X037546Y014973D01*
X037546Y014827D01*
X037546Y014973D02*
X037509Y015010D01*
X037436Y015010D01*
X037399Y014973D01*
X037399Y014827D01*
X037325Y014790D02*
X037178Y014790D01*
X037251Y014790D02*
X037251Y015010D01*
X037178Y014937D01*
X037250Y015540D02*
X037176Y015613D01*
X037213Y015613D02*
X037103Y015613D01*
X037103Y015540D02*
X037103Y015760D01*
X037213Y015760D01*
X037250Y015723D01*
X037250Y015650D01*
X037213Y015613D01*
X037324Y015577D02*
X037361Y015540D01*
X037434Y015540D01*
X037471Y015577D01*
X037471Y015723D01*
X037434Y015760D01*
X037361Y015760D01*
X037324Y015723D01*
X037324Y015577D01*
X037545Y015577D02*
X037545Y015760D01*
X037692Y015760D02*
X037692Y015577D01*
X037655Y015540D01*
X037582Y015540D01*
X037545Y015577D01*
X037766Y015760D02*
X037913Y015760D01*
X037839Y015760D02*
X037839Y015540D01*
X037987Y015540D02*
X038134Y015540D01*
X038060Y015540D02*
X038060Y015760D01*
X037987Y015687D01*
X038076Y016150D02*
X038003Y016223D01*
X038223Y016223D01*
X038223Y016150D02*
X038223Y016297D01*
X038186Y016371D02*
X038039Y016518D01*
X038186Y016518D01*
X038223Y016481D01*
X038223Y016408D01*
X038186Y016371D01*
X038039Y016371D01*
X038003Y016408D01*
X038003Y016481D01*
X038039Y016518D01*
X038003Y016592D02*
X038223Y016592D01*
X038150Y016592D02*
X038003Y016739D01*
X038113Y016629D02*
X038223Y016739D01*
X038249Y017340D02*
X038213Y017377D01*
X038213Y017450D01*
X038249Y017487D01*
X038396Y017340D01*
X038433Y017377D01*
X038433Y017450D01*
X038396Y017487D01*
X038249Y017487D01*
X038249Y017340D02*
X038396Y017340D01*
X038396Y017561D02*
X038396Y017598D01*
X038433Y017598D01*
X038433Y017561D01*
X038396Y017561D01*
X038433Y017671D02*
X038433Y017818D01*
X038433Y017745D02*
X038213Y017745D01*
X038286Y017671D01*
X038286Y017892D02*
X038396Y017892D01*
X038433Y017929D01*
X038433Y018039D01*
X038286Y018039D01*
X038323Y018113D02*
X038323Y018187D01*
X038433Y018113D02*
X038213Y018113D01*
X038213Y018260D01*
X038848Y018302D02*
X039069Y018302D01*
X038995Y018375D01*
X039069Y018449D01*
X038848Y018449D01*
X038848Y018523D02*
X038848Y018633D01*
X038885Y018670D01*
X038958Y018670D01*
X038995Y018633D01*
X038995Y018523D01*
X038995Y018596D02*
X039069Y018670D01*
X039069Y018744D02*
X038922Y018891D01*
X038885Y018891D01*
X038848Y018854D01*
X038848Y018781D01*
X038885Y018744D01*
X039069Y018744D02*
X039069Y018891D01*
X039069Y018523D02*
X038848Y018523D01*
X038885Y018228D02*
X038958Y018228D01*
X038995Y018191D01*
X038995Y018081D01*
X039069Y018081D02*
X038848Y018081D01*
X038848Y018191D01*
X038885Y018228D01*
X039105Y018007D02*
X039105Y017860D01*
X039032Y017786D02*
X039069Y017749D01*
X039069Y017676D01*
X039032Y017639D01*
X039032Y017565D02*
X038885Y017565D01*
X038848Y017528D01*
X038848Y017455D01*
X038885Y017418D01*
X039032Y017418D01*
X039069Y017455D01*
X039069Y017528D01*
X039032Y017565D01*
X038922Y017639D02*
X038958Y017676D01*
X038958Y017749D01*
X038995Y017786D01*
X039032Y017786D01*
X038885Y017786D02*
X038848Y017749D01*
X038848Y017676D01*
X038885Y017639D01*
X038922Y017639D01*
X038848Y017344D02*
X039069Y017344D01*
X039069Y017197D02*
X038848Y017197D01*
X038922Y017270D01*
X038848Y017344D01*
X036833Y016876D02*
X036613Y016876D01*
X036613Y016803D02*
X036613Y016950D01*
X036649Y016729D02*
X036613Y016692D01*
X036613Y016619D01*
X036649Y016582D01*
X036686Y016582D01*
X036723Y016619D01*
X036723Y016692D01*
X036760Y016729D01*
X036796Y016729D01*
X036833Y016692D01*
X036833Y016619D01*
X036796Y016582D01*
X036833Y016508D02*
X036760Y016434D01*
X036760Y016471D02*
X036760Y016361D01*
X036833Y016361D02*
X036613Y016361D01*
X036613Y016471D01*
X036649Y016508D01*
X036723Y016508D01*
X036760Y016471D01*
X036723Y016287D02*
X036760Y016250D01*
X036760Y016140D01*
X036833Y016140D02*
X036613Y016140D01*
X036613Y016250D01*
X036649Y016287D01*
X036723Y016287D01*
X036760Y016213D02*
X036833Y016287D01*
X036661Y017440D02*
X036698Y017477D01*
X036698Y017550D01*
X036661Y017587D01*
X036625Y017661D02*
X036625Y017771D01*
X036588Y017808D01*
X036514Y017808D01*
X036478Y017771D01*
X036478Y017661D01*
X036698Y017661D01*
X036625Y017734D02*
X036698Y017808D01*
X036661Y017882D02*
X036698Y017919D01*
X036698Y017992D01*
X036661Y018029D01*
X036625Y018029D01*
X036588Y017992D01*
X036588Y017919D01*
X036551Y017882D01*
X036514Y017882D01*
X036478Y017919D01*
X036478Y017992D01*
X036514Y018029D01*
X036478Y018103D02*
X036478Y018250D01*
X036478Y018176D02*
X036698Y018176D01*
X036514Y017587D02*
X036478Y017550D01*
X036478Y017477D01*
X036514Y017440D01*
X036661Y017440D01*
X031555Y014898D02*
X031555Y014752D01*
X031518Y014715D01*
X031445Y014715D01*
X031408Y014752D01*
X031555Y014898D01*
X031518Y014935D01*
X031445Y014935D01*
X031408Y014898D01*
X031408Y014752D01*
X031334Y014825D02*
X031297Y014788D01*
X031187Y014788D01*
X031187Y014715D02*
X031187Y014935D01*
X031297Y014935D01*
X031334Y014898D01*
X031334Y014825D01*
X031113Y014935D02*
X031113Y014715D01*
X030966Y014715D02*
X030966Y014935D01*
X031039Y014862D01*
X031113Y014935D01*
X030892Y014935D02*
X030745Y014935D01*
X030745Y014715D01*
X030892Y014715D01*
X030818Y014825D02*
X030745Y014825D01*
X030671Y014935D02*
X030524Y014935D01*
X030597Y014935D02*
X030597Y014715D01*
X030450Y014715D02*
X030376Y014788D01*
X030413Y014788D02*
X030303Y014788D01*
X030303Y014715D02*
X030303Y014935D01*
X030413Y014935D01*
X030450Y014898D01*
X030450Y014825D01*
X030413Y014788D01*
X030412Y013945D02*
X030449Y013908D01*
X030449Y013835D01*
X030412Y013798D01*
X030302Y013798D01*
X030302Y013725D02*
X030302Y013945D01*
X030412Y013945D01*
X030523Y013945D02*
X030670Y013945D01*
X030596Y013945D02*
X030596Y013725D01*
X030449Y013725D02*
X030375Y013798D01*
X030744Y013835D02*
X030817Y013835D01*
X030744Y013725D02*
X030891Y013725D01*
X030965Y013725D02*
X030965Y013945D01*
X031038Y013872D01*
X031112Y013945D01*
X031112Y013725D01*
X031186Y013725D02*
X031186Y013945D01*
X031296Y013945D01*
X031333Y013908D01*
X031333Y013835D01*
X031296Y013798D01*
X031186Y013798D01*
X031407Y013725D02*
X031554Y013872D01*
X031554Y013908D01*
X031517Y013945D01*
X031444Y013945D01*
X031407Y013908D01*
X031407Y013725D02*
X031554Y013725D01*
X030891Y013945D02*
X030744Y013945D01*
X030744Y013725D01*
X030228Y012425D02*
X030228Y012388D01*
X030081Y012241D01*
X030081Y012204D01*
X030007Y012204D02*
X029933Y012278D01*
X029860Y012241D02*
X029897Y012204D01*
X029970Y012204D01*
X030007Y012241D01*
X030007Y012388D01*
X029970Y012425D01*
X029897Y012425D01*
X029860Y012388D01*
X029860Y012241D01*
X030081Y012425D02*
X030228Y012425D01*
X031760Y012388D02*
X031760Y012241D01*
X031797Y012204D01*
X031870Y012204D01*
X031907Y012241D01*
X031907Y012388D01*
X031870Y012425D01*
X031797Y012425D01*
X031760Y012388D01*
X031833Y012278D02*
X031907Y012204D01*
X031981Y012241D02*
X031981Y012278D01*
X032017Y012314D01*
X032091Y012314D01*
X032128Y012278D01*
X032128Y012241D01*
X032091Y012204D01*
X032017Y012204D01*
X031981Y012241D01*
X032017Y012314D02*
X031981Y012351D01*
X031981Y012388D01*
X032017Y012425D01*
X032091Y012425D01*
X032128Y012388D01*
X032128Y012351D01*
X032091Y012314D01*
X031396Y010647D02*
X031433Y010610D01*
X031433Y010537D01*
X031396Y010500D01*
X031249Y010647D01*
X031396Y010647D01*
X031249Y010647D02*
X031213Y010610D01*
X031213Y010537D01*
X031249Y010500D01*
X031396Y010500D01*
X031433Y010426D02*
X031433Y010279D01*
X031433Y010353D02*
X031213Y010353D01*
X031286Y010279D01*
X031213Y010205D02*
X031433Y010205D01*
X031213Y010058D01*
X031433Y010058D01*
X031433Y009984D02*
X031433Y009911D01*
X031433Y009948D02*
X031213Y009948D01*
X031213Y009984D02*
X031213Y009911D01*
X031249Y009837D02*
X031323Y009837D01*
X031360Y009800D01*
X031360Y009690D01*
X031433Y009690D02*
X031213Y009690D01*
X031213Y009800D01*
X031249Y009837D01*
X031360Y009763D02*
X031433Y009837D01*
X032088Y009838D02*
X032161Y009765D01*
X032088Y009838D02*
X032308Y009838D01*
X032308Y009765D02*
X032308Y009912D01*
X032271Y009986D02*
X032124Y010133D01*
X032271Y010133D01*
X032308Y010096D01*
X032308Y010023D01*
X032271Y009986D01*
X032124Y009986D01*
X032088Y010023D01*
X032088Y010096D01*
X032124Y010133D01*
X032124Y010207D02*
X032088Y010244D01*
X032088Y010317D01*
X032124Y010354D01*
X032271Y010207D01*
X032308Y010244D01*
X032308Y010317D01*
X032271Y010354D01*
X032124Y010354D01*
X032088Y010428D02*
X032308Y010428D01*
X032235Y010428D02*
X032161Y010538D01*
X032235Y010428D02*
X032308Y010538D01*
X032271Y010207D02*
X032124Y010207D01*
X030408Y010242D02*
X030408Y010169D01*
X030371Y010132D01*
X030224Y010279D01*
X030371Y010279D01*
X030408Y010242D01*
X030408Y010353D02*
X030188Y010353D01*
X030224Y010279D02*
X030188Y010242D01*
X030188Y010169D01*
X030224Y010132D01*
X030371Y010132D01*
X030371Y010058D02*
X030408Y010021D01*
X030408Y009948D01*
X030371Y009911D01*
X030224Y010058D01*
X030371Y010058D01*
X030224Y010058D02*
X030188Y010021D01*
X030188Y009948D01*
X030224Y009911D01*
X030371Y009911D01*
X030408Y009837D02*
X030408Y009690D01*
X030408Y009763D02*
X030188Y009763D01*
X030261Y009690D01*
X030335Y010353D02*
X030261Y010463D01*
X030335Y010353D02*
X030408Y010463D01*
X029533Y010439D02*
X029496Y010476D01*
X029349Y010476D01*
X029313Y010439D01*
X029313Y010366D01*
X029349Y010329D01*
X029386Y010329D01*
X029423Y010366D01*
X029423Y010476D01*
X029533Y010439D02*
X029533Y010366D01*
X029496Y010329D01*
X029533Y010255D02*
X029313Y010255D01*
X029313Y010108D02*
X029533Y010255D01*
X029533Y010108D02*
X029313Y010108D01*
X029313Y010034D02*
X029313Y009961D01*
X029313Y009998D02*
X029533Y009998D01*
X029533Y010034D02*
X029533Y009961D01*
X029533Y009887D02*
X029460Y009813D01*
X029460Y009850D02*
X029460Y009740D01*
X029533Y009740D02*
X029313Y009740D01*
X029313Y009850D01*
X029349Y009887D01*
X029423Y009887D01*
X029460Y009850D01*
X028458Y009837D02*
X028458Y009690D01*
X028458Y009763D02*
X028238Y009763D01*
X028311Y009690D01*
X028274Y009911D02*
X028238Y009948D01*
X028238Y010021D01*
X028274Y010058D01*
X028421Y009911D01*
X028458Y009948D01*
X028458Y010021D01*
X028421Y010058D01*
X028274Y010058D01*
X028274Y010132D02*
X028238Y010169D01*
X028238Y010242D01*
X028274Y010279D01*
X028421Y010132D01*
X028458Y010169D01*
X028458Y010242D01*
X028421Y010279D01*
X028274Y010279D01*
X028238Y010353D02*
X028458Y010353D01*
X028385Y010353D02*
X028311Y010463D01*
X028385Y010353D02*
X028458Y010463D01*
X028421Y010132D02*
X028274Y010132D01*
X028274Y009911D02*
X028421Y009911D01*
X027583Y009887D02*
X027510Y009813D01*
X027510Y009850D02*
X027510Y009740D01*
X027583Y009740D02*
X027363Y009740D01*
X027363Y009850D01*
X027399Y009887D01*
X027473Y009887D01*
X027510Y009850D01*
X027583Y009961D02*
X027583Y010034D01*
X027583Y009998D02*
X027363Y009998D01*
X027363Y010034D02*
X027363Y009961D01*
X027363Y010108D02*
X027583Y010255D01*
X027363Y010255D01*
X027399Y010329D02*
X027436Y010329D01*
X027473Y010366D01*
X027473Y010439D01*
X027510Y010476D01*
X027546Y010476D01*
X027583Y010439D01*
X027583Y010366D01*
X027546Y010329D01*
X027510Y010329D01*
X027473Y010366D01*
X027473Y010439D02*
X027436Y010476D01*
X027399Y010476D01*
X027363Y010439D01*
X027363Y010366D01*
X027399Y010329D01*
X027363Y010108D02*
X027583Y010108D01*
X027997Y012204D02*
X027960Y012241D01*
X027960Y012388D01*
X027997Y012425D01*
X028070Y012425D01*
X028107Y012388D01*
X028107Y012241D01*
X028070Y012204D01*
X027997Y012204D01*
X028033Y012278D02*
X028107Y012204D01*
X028181Y012241D02*
X028217Y012204D01*
X028291Y012204D01*
X028328Y012241D01*
X028328Y012314D01*
X028291Y012351D01*
X028254Y012351D01*
X028181Y012314D01*
X028181Y012425D01*
X028328Y012425D01*
X028326Y014715D02*
X028326Y014935D01*
X028253Y014862D01*
X028253Y014715D02*
X028400Y014715D01*
X028474Y014752D02*
X028621Y014898D01*
X028621Y014752D01*
X028584Y014715D01*
X028511Y014715D01*
X028474Y014752D01*
X028474Y014898D01*
X028511Y014935D01*
X028584Y014935D01*
X028621Y014898D01*
X028695Y014898D02*
X028732Y014935D01*
X028805Y014935D01*
X028842Y014898D01*
X028695Y014752D01*
X028732Y014715D01*
X028805Y014715D01*
X028842Y014752D01*
X028842Y014898D01*
X028916Y014935D02*
X028916Y014715D01*
X028916Y014788D02*
X029026Y014862D01*
X028916Y014788D02*
X029026Y014715D01*
X028695Y014752D02*
X028695Y014898D01*
X027842Y014877D02*
X027805Y014840D01*
X027732Y014840D01*
X027695Y014877D01*
X027695Y015023D01*
X027732Y015060D01*
X027805Y015060D01*
X027842Y015023D01*
X027621Y015060D02*
X027474Y015060D01*
X027547Y015060D02*
X027547Y014840D01*
X027400Y014950D02*
X027363Y014913D01*
X027253Y014913D01*
X027253Y014840D02*
X027253Y015060D01*
X027363Y015060D01*
X027400Y015023D01*
X027400Y014950D01*
X028828Y015840D02*
X028828Y016060D01*
X028901Y015987D01*
X028975Y016060D01*
X028975Y015840D01*
X029049Y015877D02*
X029086Y015840D01*
X029159Y015840D01*
X029196Y015877D01*
X029196Y016023D01*
X029159Y016060D01*
X029086Y016060D01*
X029049Y016023D01*
X029049Y015877D01*
X029270Y015877D02*
X029307Y015840D01*
X029380Y015840D01*
X029417Y015877D01*
X029417Y015913D01*
X029380Y015950D01*
X029307Y015950D01*
X029270Y015987D01*
X029270Y016023D01*
X029307Y016060D01*
X029380Y016060D01*
X029417Y016023D01*
X029491Y015803D02*
X029638Y015803D01*
X029785Y015840D02*
X029785Y016060D01*
X029712Y016060D02*
X029859Y016060D01*
X029933Y016060D02*
X029933Y015840D01*
X030080Y015840D01*
X030154Y015840D02*
X030154Y016060D01*
X030227Y015987D01*
X030301Y016060D01*
X030301Y015840D01*
X030375Y015840D02*
X030375Y016060D01*
X030485Y016060D01*
X030522Y016023D01*
X030522Y015950D01*
X030485Y015913D01*
X030375Y015913D01*
X030080Y016060D02*
X029933Y016060D01*
X029933Y015950D02*
X030006Y015950D01*
X030273Y017025D02*
X030273Y017245D01*
X030383Y017245D01*
X030420Y017208D01*
X030420Y017135D01*
X030383Y017098D01*
X030273Y017098D01*
X030346Y017098D02*
X030420Y017025D01*
X030494Y017062D02*
X030531Y017025D01*
X030604Y017025D01*
X030641Y017062D01*
X030715Y017062D02*
X030752Y017025D01*
X030825Y017025D01*
X030862Y017062D01*
X030862Y017208D01*
X030825Y017245D01*
X030752Y017245D01*
X030715Y017208D01*
X030715Y017062D01*
X030641Y017208D02*
X030604Y017245D01*
X030531Y017245D01*
X030494Y017208D01*
X030494Y017062D01*
X030936Y017025D02*
X031046Y017025D01*
X031083Y017062D01*
X031083Y017208D01*
X031046Y017245D01*
X030936Y017245D01*
X030936Y017025D01*
X031157Y017025D02*
X031304Y017025D01*
X031230Y017135D02*
X031157Y017135D01*
X031157Y017245D02*
X031157Y017025D01*
X031157Y017245D02*
X031304Y017245D01*
X029658Y018477D02*
X029658Y018550D01*
X029621Y018587D01*
X029658Y018661D02*
X029438Y018661D01*
X029511Y018734D01*
X029438Y018808D01*
X029658Y018808D01*
X029658Y018882D02*
X029438Y018882D01*
X029548Y018882D02*
X029548Y019029D01*
X029621Y019103D02*
X029658Y019103D01*
X029658Y019250D01*
X029621Y019103D02*
X029474Y019250D01*
X029438Y019250D01*
X029438Y019103D01*
X029438Y019029D02*
X029658Y019029D01*
X029474Y018587D02*
X029438Y018550D01*
X029438Y018477D01*
X029474Y018440D01*
X029621Y018440D01*
X029658Y018477D01*
X028408Y018602D02*
X028371Y018565D01*
X028224Y018712D01*
X028371Y018712D01*
X028408Y018675D01*
X028408Y018602D01*
X028371Y018565D02*
X028224Y018565D01*
X028188Y018602D01*
X028188Y018675D01*
X028224Y018712D01*
X028371Y018786D02*
X028371Y018823D01*
X028408Y018823D01*
X028408Y018786D01*
X028371Y018786D01*
X028408Y018896D02*
X028408Y019043D01*
X028408Y018970D02*
X028188Y018970D01*
X028261Y018896D01*
X028261Y019117D02*
X028371Y019117D01*
X028408Y019154D01*
X028408Y019264D01*
X028261Y019264D01*
X028298Y019338D02*
X028298Y019412D01*
X028408Y019338D02*
X028188Y019338D01*
X028188Y019485D01*
X028224Y020265D02*
X028188Y020302D01*
X028188Y020375D01*
X028224Y020412D01*
X028371Y020265D01*
X028408Y020302D01*
X028408Y020375D01*
X028371Y020412D01*
X028224Y020412D01*
X028224Y020265D02*
X028371Y020265D01*
X028371Y020486D02*
X028371Y020523D01*
X028408Y020523D01*
X028408Y020486D01*
X028371Y020486D01*
X028408Y020596D02*
X028408Y020743D01*
X028408Y020670D02*
X028188Y020670D01*
X028261Y020596D01*
X028261Y020817D02*
X028371Y020817D01*
X028408Y020854D01*
X028408Y020964D01*
X028261Y020964D01*
X028298Y021038D02*
X028298Y021112D01*
X028408Y021038D02*
X028188Y021038D01*
X028188Y021185D01*
X027933Y021790D02*
X027786Y021790D01*
X027713Y021863D01*
X027786Y021937D01*
X027933Y021937D01*
X027823Y021937D02*
X027823Y021790D01*
X027823Y022011D02*
X027823Y022158D01*
X027896Y022084D02*
X027749Y022084D01*
X027970Y022232D02*
X027970Y022379D01*
X027896Y022453D02*
X027933Y022490D01*
X027933Y022563D01*
X027896Y022600D01*
X027713Y022600D01*
X027786Y022674D02*
X027713Y022747D01*
X027786Y022821D01*
X027933Y022821D01*
X027933Y022895D02*
X027713Y022895D01*
X027713Y023005D01*
X027749Y023042D01*
X027823Y023042D01*
X027860Y023005D01*
X027860Y022895D01*
X027860Y022968D02*
X027933Y023042D01*
X027933Y023189D02*
X027713Y023189D01*
X027713Y023116D02*
X027713Y023263D01*
X027823Y022821D02*
X027823Y022674D01*
X027786Y022674D02*
X027933Y022674D01*
X027896Y022453D02*
X027713Y022453D01*
X029438Y020928D02*
X029474Y020964D01*
X029511Y020964D01*
X029548Y020928D01*
X029585Y020964D01*
X029621Y020964D01*
X029658Y020928D01*
X029658Y020854D01*
X029621Y020817D01*
X029621Y020744D02*
X029658Y020744D01*
X029658Y020707D01*
X029621Y020707D01*
X029621Y020744D01*
X029621Y020633D02*
X029658Y020596D01*
X029658Y020523D01*
X029621Y020486D01*
X029621Y020412D02*
X029658Y020375D01*
X029658Y020302D01*
X029621Y020265D01*
X029474Y020265D01*
X029438Y020302D01*
X029438Y020375D01*
X029474Y020412D01*
X029474Y020486D02*
X029438Y020523D01*
X029438Y020596D01*
X029474Y020633D01*
X029511Y020633D01*
X029548Y020596D01*
X029585Y020633D01*
X029621Y020633D01*
X029548Y020596D02*
X029548Y020559D01*
X029474Y020817D02*
X029438Y020854D01*
X029438Y020928D01*
X029548Y020928D02*
X029548Y020891D01*
X036828Y026340D02*
X036975Y026340D01*
X036901Y026340D02*
X036901Y026560D01*
X036828Y026487D01*
X037049Y026523D02*
X037086Y026560D01*
X037159Y026560D01*
X037196Y026523D01*
X037049Y026377D01*
X037086Y026340D01*
X037159Y026340D01*
X037196Y026377D01*
X037196Y026523D01*
X037270Y026560D02*
X037270Y026340D01*
X037270Y026413D02*
X037380Y026340D01*
X037270Y026413D02*
X037380Y026487D01*
X037049Y026523D02*
X037049Y026377D01*
X037778Y026765D02*
X037778Y026985D01*
X037888Y026985D01*
X037925Y026948D01*
X037925Y026875D01*
X037888Y026838D01*
X037778Y026838D01*
X037851Y026838D02*
X037925Y026765D01*
X037999Y026765D02*
X038109Y026765D01*
X038146Y026802D01*
X038146Y026838D01*
X038109Y026875D01*
X037999Y026875D01*
X038109Y026875D02*
X038146Y026912D01*
X038146Y026948D01*
X038109Y026985D01*
X037999Y026985D01*
X037999Y026765D01*
X038220Y026765D02*
X038220Y026912D01*
X038293Y026985D01*
X038367Y026912D01*
X038367Y026765D01*
X038367Y026875D02*
X038220Y026875D01*
X038441Y026985D02*
X038588Y026985D01*
X038514Y026985D02*
X038514Y026765D01*
X038662Y026765D02*
X038809Y026912D01*
X038809Y026948D01*
X038772Y026985D01*
X038699Y026985D01*
X038662Y026948D01*
X038662Y026765D02*
X038809Y026765D01*
X039553Y026720D02*
X039553Y026647D01*
X039589Y026610D01*
X039626Y026610D01*
X039663Y026647D01*
X039663Y026720D01*
X039700Y026757D01*
X039736Y026757D01*
X039773Y026720D01*
X039773Y026647D01*
X039736Y026610D01*
X039736Y026536D02*
X039589Y026536D01*
X039553Y026499D01*
X039553Y026426D01*
X039589Y026389D01*
X039736Y026389D01*
X039773Y026426D01*
X039773Y026499D01*
X039736Y026536D01*
X039773Y026315D02*
X039553Y026315D01*
X039626Y026241D01*
X039553Y026168D01*
X039773Y026168D01*
X040278Y026365D02*
X040425Y026365D01*
X040351Y026365D02*
X040351Y026585D01*
X040278Y026512D01*
X040499Y026548D02*
X040536Y026585D01*
X040609Y026585D01*
X040646Y026548D01*
X040499Y026402D01*
X040536Y026365D01*
X040609Y026365D01*
X040646Y026402D01*
X040646Y026548D01*
X040720Y026548D02*
X040757Y026585D01*
X040830Y026585D01*
X040867Y026548D01*
X040720Y026402D01*
X040757Y026365D01*
X040830Y026365D01*
X040867Y026402D01*
X040867Y026548D01*
X040941Y026585D02*
X040941Y026365D01*
X040941Y026438D02*
X041051Y026512D01*
X040941Y026438D02*
X041051Y026365D01*
X040720Y026402D02*
X040720Y026548D01*
X040499Y026548D02*
X040499Y026402D01*
X039810Y026831D02*
X039810Y026978D01*
X039773Y027052D02*
X039773Y027162D01*
X039736Y027199D01*
X039700Y027199D01*
X039663Y027162D01*
X039663Y027052D01*
X039773Y027052D02*
X039553Y027052D01*
X039553Y027162D01*
X039589Y027199D01*
X039626Y027199D01*
X039663Y027162D01*
X039663Y027273D02*
X039663Y027420D01*
X039626Y027420D02*
X039773Y027420D01*
X039626Y027420D02*
X039553Y027346D01*
X039626Y027273D01*
X039773Y027273D01*
X039773Y027567D02*
X039553Y027567D01*
X039553Y027494D02*
X039553Y027641D01*
X040328Y027460D02*
X040438Y027460D01*
X040475Y027423D01*
X040475Y027350D01*
X040438Y027313D01*
X040328Y027313D01*
X040328Y027240D02*
X040328Y027460D01*
X040401Y027313D02*
X040475Y027240D01*
X040549Y027240D02*
X040659Y027240D01*
X040696Y027277D01*
X040696Y027313D01*
X040659Y027350D01*
X040549Y027350D01*
X040659Y027350D02*
X040696Y027387D01*
X040696Y027423D01*
X040659Y027460D01*
X040549Y027460D01*
X040549Y027240D01*
X040770Y027240D02*
X040770Y027387D01*
X040843Y027460D01*
X040917Y027387D01*
X040917Y027240D01*
X040917Y027350D02*
X040770Y027350D01*
X040991Y027460D02*
X041138Y027460D01*
X041064Y027460D02*
X041064Y027240D01*
X041212Y027240D02*
X041359Y027240D01*
X041285Y027240D02*
X041285Y027460D01*
X041212Y027387D01*
X041978Y027623D02*
X041978Y027770D01*
X042051Y027844D02*
X041978Y027917D01*
X042198Y027917D01*
X042198Y027844D02*
X042198Y027991D01*
X042088Y027696D02*
X042088Y027623D01*
X042198Y027623D02*
X041978Y027623D01*
X041102Y028764D02*
X041102Y028985D01*
X041248Y028985D01*
X041175Y028875D02*
X041102Y028875D01*
X041027Y028911D02*
X041027Y028764D01*
X040917Y028764D01*
X040881Y028801D01*
X040881Y028911D01*
X040806Y028948D02*
X040660Y028801D01*
X040696Y028764D01*
X040770Y028764D01*
X040806Y028801D01*
X040806Y028948D01*
X040770Y028985D01*
X040696Y028985D01*
X040660Y028948D01*
X040660Y028801D01*
X040585Y028764D02*
X040439Y028764D01*
X040512Y028764D02*
X040512Y028985D01*
X040439Y028911D01*
X039646Y028930D02*
X039499Y028784D01*
X039646Y028784D01*
X039646Y028930D02*
X039646Y028967D01*
X039609Y029004D01*
X039536Y029004D01*
X039499Y028967D01*
X039425Y028967D02*
X039388Y029004D01*
X039315Y029004D01*
X039278Y028967D01*
X039278Y028820D01*
X039315Y028784D01*
X039388Y028784D01*
X039425Y028820D01*
X038772Y027935D02*
X038809Y027898D01*
X038662Y027752D01*
X038699Y027715D01*
X038772Y027715D01*
X038809Y027752D01*
X038809Y027898D01*
X038772Y027935D02*
X038699Y027935D01*
X038662Y027898D01*
X038662Y027752D01*
X038514Y027715D02*
X038514Y027935D01*
X038441Y027935D02*
X038588Y027935D01*
X038367Y027862D02*
X038367Y027715D01*
X038367Y027825D02*
X038220Y027825D01*
X038220Y027862D02*
X038293Y027935D01*
X038367Y027862D01*
X038220Y027862D02*
X038220Y027715D01*
X038146Y027752D02*
X038109Y027715D01*
X037999Y027715D01*
X037999Y027935D01*
X038109Y027935D01*
X038146Y027898D01*
X038146Y027862D01*
X038109Y027825D01*
X037999Y027825D01*
X037925Y027825D02*
X037888Y027788D01*
X037778Y027788D01*
X037778Y027715D02*
X037778Y027935D01*
X037888Y027935D01*
X037925Y027898D01*
X037925Y027825D01*
X037851Y027788D02*
X037925Y027715D01*
X038109Y027825D02*
X038146Y027788D01*
X038146Y027752D01*
X037513Y027510D02*
X037366Y027363D01*
X037403Y027400D02*
X037513Y027290D01*
X037366Y027290D02*
X037366Y027510D01*
X037292Y027473D02*
X037145Y027327D01*
X037182Y027290D01*
X037255Y027290D01*
X037292Y027327D01*
X037292Y027473D01*
X037255Y027510D01*
X037182Y027510D01*
X037145Y027473D01*
X037145Y027327D01*
X037071Y027327D02*
X037034Y027290D01*
X036961Y027290D01*
X036924Y027327D01*
X037071Y027473D01*
X037071Y027327D01*
X037071Y027473D02*
X037034Y027510D01*
X036961Y027510D01*
X036924Y027473D01*
X036924Y027327D01*
X036850Y027290D02*
X036703Y027290D01*
X036776Y027290D02*
X036776Y027510D01*
X036703Y027437D01*
X039553Y026720D02*
X039589Y026757D01*
X039194Y023891D02*
X039194Y023744D01*
X039194Y023817D02*
X038973Y023817D01*
X039047Y023744D01*
X039083Y023670D02*
X039120Y023633D01*
X039120Y023523D01*
X039120Y023596D02*
X039194Y023670D01*
X039083Y023670D02*
X039010Y023670D01*
X038973Y023633D01*
X038973Y023523D01*
X039194Y023523D01*
X039194Y023449D02*
X038973Y023449D01*
X038973Y023302D02*
X039194Y023302D01*
X039120Y023375D01*
X039194Y023449D01*
X039083Y023228D02*
X039120Y023191D01*
X039120Y023081D01*
X039194Y023081D02*
X038973Y023081D01*
X038973Y023191D01*
X039010Y023228D01*
X039083Y023228D01*
X039230Y023007D02*
X039230Y022860D01*
X039157Y022786D02*
X039194Y022749D01*
X039194Y022676D01*
X039157Y022639D01*
X039157Y022565D02*
X039010Y022565D01*
X038973Y022528D01*
X038973Y022455D01*
X039010Y022418D01*
X039157Y022418D01*
X039194Y022455D01*
X039194Y022528D01*
X039157Y022565D01*
X039047Y022639D02*
X039083Y022676D01*
X039083Y022749D01*
X039120Y022786D01*
X039157Y022786D01*
X039010Y022786D02*
X038973Y022749D01*
X038973Y022676D01*
X039010Y022639D01*
X039047Y022639D01*
X038973Y022344D02*
X039194Y022344D01*
X039194Y022197D02*
X038973Y022197D01*
X039047Y022270D01*
X038973Y022344D01*
X037716Y012660D02*
X037716Y012440D01*
X037716Y012513D02*
X037826Y012587D01*
X037716Y012513D02*
X037826Y012440D01*
X037642Y012477D02*
X037605Y012440D01*
X037532Y012440D01*
X037495Y012477D01*
X037642Y012623D01*
X037642Y012477D01*
X037642Y012623D02*
X037605Y012660D01*
X037532Y012660D01*
X037495Y012623D01*
X037495Y012477D01*
X037421Y012477D02*
X037384Y012440D01*
X037311Y012440D01*
X037274Y012477D01*
X037421Y012623D01*
X037421Y012477D01*
X037421Y012623D02*
X037384Y012660D01*
X037311Y012660D01*
X037274Y012623D01*
X037274Y012477D01*
X037200Y012440D02*
X037053Y012440D01*
X037126Y012440D02*
X037126Y012660D01*
X037053Y012587D01*
X022339Y012573D02*
X022339Y012537D01*
X022302Y012500D01*
X022339Y012463D01*
X022339Y012427D01*
X022302Y012390D01*
X022229Y012390D01*
X022192Y012427D01*
X022118Y012390D02*
X022118Y012610D01*
X022192Y012573D02*
X022229Y012610D01*
X022302Y012610D01*
X022339Y012573D01*
X022302Y012500D02*
X022266Y012500D01*
X022118Y012390D02*
X021971Y012610D01*
X021971Y012390D01*
X021897Y012390D02*
X021824Y012390D01*
X021861Y012390D02*
X021861Y012610D01*
X021897Y012610D02*
X021824Y012610D01*
X021750Y012573D02*
X021750Y012500D01*
X021713Y012463D01*
X021603Y012463D01*
X021603Y012390D02*
X021603Y012610D01*
X021713Y012610D01*
X021750Y012573D01*
X021676Y012463D02*
X021750Y012390D01*
X021713Y010610D02*
X021603Y010610D01*
X021603Y010390D01*
X021603Y010463D02*
X021713Y010463D01*
X021750Y010500D01*
X021750Y010573D01*
X021713Y010610D01*
X021824Y010610D02*
X021897Y010610D01*
X021861Y010610D02*
X021861Y010390D01*
X021897Y010390D02*
X021824Y010390D01*
X021750Y010390D02*
X021676Y010463D01*
X021971Y010390D02*
X021971Y010610D01*
X022118Y010390D01*
X022118Y010610D01*
X022192Y010573D02*
X022229Y010610D01*
X022302Y010610D01*
X022339Y010573D01*
X022339Y010537D01*
X022192Y010390D01*
X022339Y010390D01*
X022266Y008610D02*
X022266Y008390D01*
X022339Y008390D02*
X022192Y008390D01*
X022118Y008390D02*
X022118Y008610D01*
X022192Y008537D02*
X022266Y008610D01*
X022118Y008390D02*
X021971Y008610D01*
X021971Y008390D01*
X021897Y008390D02*
X021824Y008390D01*
X021861Y008390D02*
X021861Y008610D01*
X021897Y008610D02*
X021824Y008610D01*
X021750Y008573D02*
X021750Y008500D01*
X021713Y008463D01*
X021603Y008463D01*
X021603Y008390D02*
X021603Y008610D01*
X021713Y008610D01*
X021750Y008573D01*
X021676Y008463D02*
X021750Y008390D01*
X021721Y024900D02*
X021648Y024900D01*
X021611Y024937D01*
X021611Y025010D02*
X021684Y025047D01*
X021721Y025047D01*
X021758Y025010D01*
X021758Y024937D01*
X021721Y024900D01*
X021832Y024900D02*
X021942Y024900D01*
X021979Y024937D01*
X021979Y025083D01*
X021942Y025120D01*
X021832Y025120D01*
X021832Y024900D01*
X021758Y025120D02*
X021611Y025120D01*
X021611Y025010D01*
X021537Y025010D02*
X021427Y025010D01*
X021390Y025047D01*
X021390Y025083D01*
X021427Y025120D01*
X021500Y025120D01*
X021537Y025083D01*
X021537Y024937D01*
X021500Y024900D01*
X021427Y024900D01*
X021390Y024937D01*
X021316Y024937D02*
X021279Y024900D01*
X021206Y024900D01*
X021169Y024937D01*
X021169Y025010D02*
X021242Y025047D01*
X021279Y025047D01*
X021316Y025010D01*
X021316Y024937D01*
X021169Y025010D02*
X021169Y025120D01*
X021316Y025120D01*
X021095Y025083D02*
X021058Y025120D01*
X020985Y025120D01*
X020948Y025083D01*
X020948Y024937D01*
X020985Y024900D01*
X021058Y024900D01*
X021095Y024937D01*
X020874Y024900D02*
X020874Y025120D01*
X020874Y025010D02*
X020727Y025010D01*
X020653Y025010D02*
X020506Y025010D01*
X020616Y025120D01*
X020616Y024900D01*
X020727Y024900D02*
X020727Y025120D01*
X020432Y025120D02*
X020432Y025083D01*
X020285Y024937D01*
X020285Y024900D01*
X020285Y025120D02*
X020432Y025120D01*
X018543Y025460D02*
X022543Y025460D01*
X020667Y029250D02*
X020704Y029287D01*
X020704Y029433D01*
X020667Y029470D01*
X020557Y029470D01*
X020557Y029250D01*
X020667Y029250D01*
X020483Y029287D02*
X020446Y029250D01*
X020373Y029250D01*
X020336Y029287D01*
X020336Y029360D02*
X020409Y029397D01*
X020446Y029397D01*
X020483Y029360D01*
X020483Y029287D01*
X020336Y029360D02*
X020336Y029470D01*
X020483Y029470D01*
X020262Y029433D02*
X020225Y029470D01*
X020152Y029470D01*
X020115Y029433D01*
X020115Y029397D01*
X020152Y029360D01*
X020262Y029360D01*
X020262Y029287D02*
X020262Y029433D01*
X020262Y029287D02*
X020225Y029250D01*
X020152Y029250D01*
X020115Y029287D01*
X020041Y029287D02*
X020004Y029250D01*
X019931Y029250D01*
X019894Y029287D01*
X019894Y029360D02*
X019967Y029397D01*
X020004Y029397D01*
X020041Y029360D01*
X020041Y029287D01*
X019894Y029360D02*
X019894Y029470D01*
X020041Y029470D01*
X019820Y029433D02*
X019783Y029470D01*
X019710Y029470D01*
X019673Y029433D01*
X019673Y029287D01*
X019710Y029250D01*
X019783Y029250D01*
X019820Y029287D01*
X019599Y029250D02*
X019599Y029470D01*
X019599Y029360D02*
X019452Y029360D01*
X019378Y029360D02*
X019231Y029360D01*
X019341Y029470D01*
X019341Y029250D01*
X019452Y029250D02*
X019452Y029470D01*
X019157Y029470D02*
X019157Y029433D01*
X019010Y029287D01*
X019010Y029250D01*
X019010Y029470D02*
X019157Y029470D01*
X017168Y029810D02*
X021168Y029810D01*
D14*
X021168Y029800D02*
X021168Y029380D01*
X021168Y028980D01*
X021168Y028560D01*
X021166Y028537D01*
X021161Y028514D01*
X021152Y028492D01*
X021139Y028472D01*
X021124Y028454D01*
X021106Y028439D01*
X021086Y028426D01*
X021064Y028417D01*
X021041Y028412D01*
X021018Y028410D01*
X021168Y028980D02*
X021141Y028982D01*
X021114Y028987D01*
X021088Y028997D01*
X021064Y029009D01*
X021042Y029025D01*
X021022Y029043D01*
X021005Y029065D01*
X020990Y029088D01*
X020980Y029113D01*
X020972Y029139D01*
X020968Y029166D01*
X020968Y029194D01*
X020972Y029221D01*
X020980Y029247D01*
X020990Y029272D01*
X021005Y029295D01*
X021022Y029317D01*
X021042Y029335D01*
X021064Y029351D01*
X021088Y029363D01*
X021114Y029373D01*
X021141Y029378D01*
X021168Y029380D01*
X021168Y029800D02*
X021166Y029823D01*
X021161Y029846D01*
X021152Y029868D01*
X021139Y029888D01*
X021124Y029906D01*
X021106Y029921D01*
X021086Y029934D01*
X021064Y029943D01*
X021041Y029948D01*
X021018Y029950D01*
X020793Y032430D02*
X020543Y032680D01*
X020293Y032430D01*
X019793Y032430D01*
X019543Y032680D01*
X019293Y032430D01*
X018793Y032430D01*
X018543Y032680D01*
X018293Y032430D01*
X017793Y032430D01*
X017543Y032680D01*
X017293Y032430D01*
X016793Y032430D01*
X016543Y032680D01*
X016293Y032430D01*
X015793Y032430D01*
X015543Y032680D01*
X015293Y032430D01*
X014793Y032430D01*
X014543Y032680D01*
X014293Y032430D01*
X013793Y032430D01*
X013543Y032680D01*
X013543Y034180D01*
X013793Y034430D01*
X014293Y034430D01*
X014543Y034180D01*
X014793Y034430D01*
X015293Y034430D01*
X015543Y034180D01*
X015793Y034430D01*
X016293Y034430D01*
X016543Y034180D01*
X016793Y034430D01*
X017293Y034430D01*
X017543Y034180D01*
X017793Y034430D01*
X018293Y034430D01*
X018543Y034180D01*
X018793Y034430D01*
X019293Y034430D01*
X019543Y034180D01*
X019793Y034430D01*
X020293Y034430D01*
X020543Y034180D01*
X020793Y034430D01*
X021293Y034430D01*
X021543Y034180D01*
X021543Y032680D01*
X021293Y032430D01*
X020793Y032430D01*
X020793Y035430D02*
X020543Y035680D01*
X020293Y035430D01*
X019793Y035430D01*
X019543Y035680D01*
X019293Y035430D01*
X018793Y035430D01*
X018543Y035680D01*
X018293Y035430D01*
X017793Y035430D01*
X017543Y035680D01*
X017293Y035430D01*
X016793Y035430D01*
X016543Y035680D01*
X016293Y035430D01*
X015793Y035430D01*
X015543Y035680D01*
X015293Y035430D01*
X014793Y035430D01*
X014543Y035680D01*
X014293Y035430D01*
X013793Y035430D01*
X013543Y035680D01*
X013543Y037180D01*
X013793Y037430D01*
X014293Y037430D01*
X014543Y037180D01*
X014793Y037430D01*
X015293Y037430D01*
X015543Y037180D01*
X015793Y037430D01*
X016293Y037430D01*
X016543Y037180D01*
X016793Y037430D01*
X017293Y037430D01*
X017543Y037180D01*
X017793Y037430D01*
X018293Y037430D01*
X018543Y037180D01*
X018793Y037430D01*
X019293Y037430D01*
X019543Y037180D01*
X019793Y037430D01*
X020293Y037430D01*
X020543Y037180D01*
X020793Y037430D01*
X021293Y037430D01*
X021543Y037180D01*
X021543Y035680D01*
X021293Y035430D01*
X020793Y035430D01*
X017318Y029950D02*
X017295Y029948D01*
X017272Y029943D01*
X017250Y029934D01*
X017230Y029921D01*
X017212Y029906D01*
X017197Y029888D01*
X017184Y029868D01*
X017175Y029846D01*
X017170Y029823D01*
X017168Y029800D01*
X017168Y028560D01*
X017170Y028537D01*
X017175Y028514D01*
X017184Y028492D01*
X017197Y028472D01*
X017212Y028454D01*
X017230Y028439D01*
X017250Y028426D01*
X017272Y028417D01*
X017295Y028412D01*
X017318Y028410D01*
X018543Y025450D02*
X018543Y024210D01*
X018545Y024187D01*
X018550Y024164D01*
X018559Y024142D01*
X018572Y024122D01*
X018587Y024104D01*
X018605Y024089D01*
X018625Y024076D01*
X018647Y024067D01*
X018670Y024062D01*
X018693Y024060D01*
X018543Y025450D02*
X018545Y025473D01*
X018550Y025496D01*
X018559Y025518D01*
X018572Y025538D01*
X018587Y025556D01*
X018605Y025571D01*
X018625Y025584D01*
X018647Y025593D01*
X018670Y025598D01*
X018693Y025600D01*
X022393Y025600D02*
X022416Y025598D01*
X022439Y025593D01*
X022461Y025584D01*
X022481Y025571D01*
X022499Y025556D01*
X022514Y025538D01*
X022527Y025518D01*
X022536Y025496D01*
X022541Y025473D01*
X022543Y025450D01*
X022543Y025030D01*
X022543Y024630D01*
X022543Y024210D01*
X022541Y024187D01*
X022536Y024164D01*
X022527Y024142D01*
X022514Y024122D01*
X022499Y024104D01*
X022481Y024089D01*
X022461Y024076D01*
X022439Y024067D01*
X022416Y024062D01*
X022393Y024060D01*
X022543Y024630D02*
X022516Y024632D01*
X022489Y024637D01*
X022463Y024647D01*
X022439Y024659D01*
X022417Y024675D01*
X022397Y024693D01*
X022380Y024715D01*
X022365Y024738D01*
X022355Y024763D01*
X022347Y024789D01*
X022343Y024816D01*
X022343Y024844D01*
X022347Y024871D01*
X022355Y024897D01*
X022365Y024922D01*
X022380Y024945D01*
X022397Y024967D01*
X022417Y024985D01*
X022439Y025001D01*
X022463Y025013D01*
X022489Y025023D01*
X022516Y025028D01*
X022543Y025030D01*
X031663Y020310D02*
X031663Y017550D01*
X034283Y017550D01*
X034423Y017690D01*
X034423Y020310D01*
X031663Y020310D01*
X033982Y017850D02*
X033984Y017873D01*
X033990Y017896D01*
X033999Y017917D01*
X034012Y017937D01*
X034028Y017954D01*
X034046Y017968D01*
X034066Y017979D01*
X034088Y017987D01*
X034111Y017991D01*
X034135Y017991D01*
X034158Y017987D01*
X034180Y017979D01*
X034200Y017968D01*
X034218Y017954D01*
X034234Y017937D01*
X034247Y017917D01*
X034256Y017896D01*
X034262Y017873D01*
X034264Y017850D01*
X034262Y017827D01*
X034256Y017804D01*
X034247Y017783D01*
X034234Y017763D01*
X034218Y017746D01*
X034200Y017732D01*
X034180Y017721D01*
X034158Y017713D01*
X034135Y017709D01*
X034111Y017709D01*
X034088Y017713D01*
X034066Y017721D01*
X034046Y017732D01*
X034028Y017746D01*
X034012Y017763D01*
X033999Y017783D01*
X033990Y017804D01*
X033984Y017827D01*
X033982Y017850D01*
X028148Y016233D02*
X028120Y016277D01*
X028089Y016319D01*
X028054Y016358D01*
X028017Y016395D01*
X027978Y016429D01*
X027936Y016459D01*
X027892Y016487D01*
X027846Y016511D01*
X027798Y016532D01*
X027748Y016549D01*
X027698Y016563D01*
X027647Y016572D01*
X027595Y016578D01*
X027543Y016580D01*
X026938Y015527D02*
X026966Y015483D01*
X026997Y015441D01*
X027032Y015402D01*
X027069Y015365D01*
X027108Y015331D01*
X027150Y015301D01*
X027194Y015273D01*
X027240Y015249D01*
X027288Y015228D01*
X027338Y015211D01*
X027388Y015197D01*
X027439Y015188D01*
X027491Y015182D01*
X027543Y015180D01*
X026938Y016233D02*
X026966Y016277D01*
X026997Y016319D01*
X027032Y016358D01*
X027069Y016395D01*
X027108Y016429D01*
X027150Y016459D01*
X027194Y016487D01*
X027240Y016511D01*
X027288Y016532D01*
X027338Y016549D01*
X027388Y016563D01*
X027439Y016572D01*
X027491Y016578D01*
X027543Y016580D01*
X028148Y015527D02*
X028120Y015483D01*
X028089Y015441D01*
X028054Y015402D01*
X028017Y015365D01*
X027978Y015331D01*
X027936Y015301D01*
X027892Y015273D01*
X027846Y015249D01*
X027798Y015228D01*
X027748Y015211D01*
X027698Y015197D01*
X027647Y015188D01*
X027595Y015182D01*
X027543Y015180D01*
D15*
X022091Y014460D02*
X021991Y014460D01*
X022066Y014535D01*
X022066Y014385D01*
X021944Y014385D02*
X021944Y014535D01*
X021843Y014535D02*
X021944Y014385D01*
X021843Y014385D02*
X021843Y014535D01*
X021795Y014535D02*
X021745Y014535D01*
X021770Y014535D02*
X021770Y014385D01*
X021745Y014385D02*
X021795Y014385D01*
X021698Y014385D02*
X021648Y014435D01*
X021673Y014435D02*
X021598Y014435D01*
X021598Y014385D02*
X021598Y014535D01*
X021673Y014535D01*
X021698Y014510D01*
X021698Y014460D01*
X021673Y014435D01*
X033561Y016775D02*
X033561Y016875D01*
X033611Y016925D01*
X033661Y016875D01*
X033661Y016775D01*
X033661Y016850D02*
X033561Y016850D01*
X033709Y016925D02*
X033809Y016925D01*
X033759Y016925D02*
X033759Y016775D01*
X033856Y016800D02*
X033881Y016775D01*
X033931Y016775D01*
X033956Y016800D01*
X033956Y016825D01*
X033931Y016850D01*
X033906Y016850D01*
X033931Y016850D02*
X033956Y016875D01*
X033956Y016900D01*
X033931Y016925D01*
X033881Y016925D01*
X033856Y016900D01*
X034003Y016900D02*
X034028Y016925D01*
X034078Y016925D01*
X034103Y016900D01*
X034103Y016875D01*
X034003Y016775D01*
X034103Y016775D01*
X034151Y016800D02*
X034151Y016825D01*
X034176Y016850D01*
X034226Y016850D01*
X034251Y016825D01*
X034251Y016800D01*
X034226Y016775D01*
X034176Y016775D01*
X034151Y016800D01*
X034176Y016850D02*
X034151Y016875D01*
X034151Y016900D01*
X034176Y016925D01*
X034226Y016925D01*
X034251Y016900D01*
X034251Y016875D01*
X034226Y016850D01*
D16*
X039889Y017873D02*
X040196Y017873D01*
X040043Y017720D02*
X040043Y018027D01*
X040043Y022720D02*
X040043Y023027D01*
X039889Y022873D02*
X040196Y022873D01*
X037409Y028700D02*
X037103Y028700D01*
X037256Y028700D02*
X037256Y029160D01*
X037103Y029007D01*
X036949Y029084D02*
X036872Y029160D01*
X036719Y029160D01*
X036642Y029084D01*
X036642Y028777D01*
X036719Y028700D01*
X036872Y028700D01*
X036949Y028777D01*
X036949Y028930D01*
X036796Y028930D01*
X036489Y028777D02*
X036489Y029084D01*
X036412Y029160D01*
X036258Y029160D01*
X036182Y029084D01*
X036182Y028777D01*
X036258Y028700D01*
X036412Y028700D01*
X036489Y028777D01*
X036028Y028700D02*
X035875Y028853D01*
X035952Y028853D02*
X035721Y028853D01*
X035721Y028700D02*
X035721Y029160D01*
X035952Y029160D01*
X036028Y029084D01*
X036028Y028930D01*
X035952Y028853D01*
X035568Y028930D02*
X035491Y028853D01*
X035261Y028853D01*
X035261Y028700D02*
X035261Y029160D01*
X035491Y029160D01*
X035568Y029084D01*
X035568Y028930D01*
X041708Y029055D02*
X042015Y029055D01*
X041861Y029209D02*
X041861Y028902D01*
X040043Y013027D02*
X040043Y012720D01*
X040196Y012873D02*
X039889Y012873D01*
X040316Y007160D02*
X040470Y007007D01*
X040470Y006700D01*
X040623Y006623D02*
X040930Y006623D01*
X041084Y006700D02*
X041237Y006700D01*
X041160Y006700D02*
X041160Y007160D01*
X041084Y007160D02*
X041237Y007160D01*
X041391Y007160D02*
X041698Y006700D01*
X041698Y007160D01*
X041851Y007084D02*
X041928Y007160D01*
X042081Y007160D01*
X042158Y007084D01*
X042158Y007007D01*
X042081Y006930D01*
X042158Y006853D01*
X042158Y006777D01*
X042081Y006700D01*
X041928Y006700D01*
X041851Y006777D01*
X042004Y006930D02*
X042081Y006930D01*
X041391Y006700D02*
X041391Y007160D01*
X040470Y006930D02*
X040163Y006930D01*
X040163Y007007D02*
X040316Y007160D01*
X040163Y007007D02*
X040163Y006700D01*
X039158Y006700D02*
X038851Y006700D01*
X039158Y007007D01*
X039158Y007084D01*
X039081Y007160D01*
X038928Y007160D01*
X038851Y007084D01*
X038698Y007160D02*
X038698Y006700D01*
X038391Y007160D01*
X038391Y006700D01*
X038237Y006700D02*
X038084Y006700D01*
X038160Y006700D02*
X038160Y007160D01*
X038084Y007160D02*
X038237Y007160D01*
X037930Y006623D02*
X037623Y006623D01*
X037470Y006700D02*
X037470Y007007D01*
X037316Y007160D01*
X037163Y007007D01*
X037163Y006700D01*
X037163Y006930D02*
X037470Y006930D01*
X036058Y006700D02*
X035751Y006700D01*
X035598Y006700D02*
X035598Y007160D01*
X035751Y007007D02*
X035904Y007160D01*
X035904Y006700D01*
X035598Y006700D02*
X035291Y007160D01*
X035291Y006700D01*
X035137Y006700D02*
X034984Y006700D01*
X035060Y006700D02*
X035060Y007160D01*
X034984Y007160D02*
X035137Y007160D01*
X034830Y006623D02*
X034523Y006623D01*
X034370Y006700D02*
X034370Y007007D01*
X034216Y007160D01*
X034063Y007007D01*
X034063Y006700D01*
X034063Y006930D02*
X034370Y006930D01*
X032559Y006903D02*
X032559Y006827D01*
X032483Y006750D01*
X032329Y006750D01*
X032253Y006827D01*
X032406Y006980D02*
X032483Y006980D01*
X032559Y006903D01*
X032483Y006980D02*
X032559Y007057D01*
X032559Y007134D01*
X032483Y007210D01*
X032329Y007210D01*
X032253Y007134D01*
X032099Y007210D02*
X031792Y007210D01*
X031639Y007210D02*
X031639Y006827D01*
X031562Y006750D01*
X031408Y006750D01*
X031332Y006827D01*
X031332Y007210D01*
X031178Y007134D02*
X031102Y007210D01*
X030948Y007210D01*
X030871Y007134D01*
X030871Y006827D01*
X030948Y006750D01*
X031102Y006750D01*
X031178Y006827D01*
X031178Y007134D01*
X031946Y007210D02*
X031946Y006750D01*
X030359Y006750D02*
X030053Y006750D01*
X030359Y007057D01*
X030359Y007134D01*
X030283Y007210D01*
X030129Y007210D01*
X030053Y007134D01*
X029899Y007210D02*
X029592Y007210D01*
X029439Y007210D02*
X029439Y006827D01*
X029362Y006750D01*
X029208Y006750D01*
X029132Y006827D01*
X029132Y007210D01*
X028978Y007134D02*
X028902Y007210D01*
X028748Y007210D01*
X028671Y007134D01*
X028671Y006827D01*
X028748Y006750D01*
X028902Y006750D01*
X028978Y006827D01*
X028978Y007134D01*
X028259Y006750D02*
X027953Y006750D01*
X028106Y006750D02*
X028106Y007210D01*
X027953Y007057D01*
X027799Y007210D02*
X027492Y007210D01*
X027339Y007210D02*
X027339Y006827D01*
X027262Y006750D01*
X027108Y006750D01*
X027032Y006827D01*
X027032Y007210D01*
X026878Y007134D02*
X026802Y007210D01*
X026648Y007210D01*
X026571Y007134D01*
X026571Y006827D01*
X026648Y006750D01*
X026802Y006750D01*
X026878Y006827D01*
X026878Y007134D01*
X027646Y007210D02*
X027646Y006750D01*
X029746Y006750D02*
X029746Y007210D01*
X020237Y008700D02*
X019930Y008700D01*
X019777Y008700D02*
X019777Y009160D01*
X019930Y009007D02*
X020084Y009160D01*
X020084Y008700D01*
X019777Y008700D02*
X019470Y009160D01*
X019470Y008700D01*
X019316Y008700D02*
X019163Y008700D01*
X019240Y008700D02*
X019240Y009160D01*
X019316Y009160D02*
X019163Y009160D01*
X019163Y010650D02*
X019316Y010650D01*
X019240Y010650D02*
X019240Y011110D01*
X019316Y011110D02*
X019163Y011110D01*
X019470Y011110D02*
X019470Y010650D01*
X019777Y010650D02*
X019470Y011110D01*
X019777Y011110D02*
X019777Y010650D01*
X019930Y010650D02*
X020237Y010957D01*
X020237Y011034D01*
X020160Y011110D01*
X020007Y011110D01*
X019930Y011034D01*
X019930Y010650D02*
X020237Y010650D01*
X020160Y012650D02*
X020007Y012650D01*
X019930Y012727D01*
X019777Y012650D02*
X019777Y013110D01*
X019930Y013034D02*
X020007Y013110D01*
X020160Y013110D01*
X020237Y013034D01*
X020237Y012957D01*
X020160Y012880D01*
X020237Y012803D01*
X020237Y012727D01*
X020160Y012650D01*
X020160Y012880D02*
X020084Y012880D01*
X019777Y012650D02*
X019470Y013110D01*
X019470Y012650D01*
X019316Y012650D02*
X019163Y012650D01*
X019240Y012650D02*
X019240Y013110D01*
X019316Y013110D02*
X019163Y013110D01*
X019163Y014650D02*
X019316Y014650D01*
X019240Y014650D02*
X019240Y015110D01*
X019316Y015110D02*
X019163Y015110D01*
X019470Y015110D02*
X019470Y014650D01*
X019777Y014650D02*
X019470Y015110D01*
X019777Y015110D02*
X019777Y014650D01*
X019930Y014880D02*
X020237Y014880D01*
X020160Y014650D02*
X020160Y015110D01*
X019930Y014880D01*
D17*
X004043Y005930D02*
X004043Y031521D01*
X026090Y031521D01*
X026090Y028765D01*
X025303Y028765D01*
X025303Y008686D01*
X023531Y008686D01*
X023531Y028765D01*
X025303Y028765D01*
X026090Y028765D02*
X026090Y008686D01*
X025303Y008686D01*
X026090Y008686D02*
X026090Y005930D01*
X004043Y005930D01*
X007543Y007730D02*
X010543Y007730D01*
X010543Y010230D01*
X009443Y010230D01*
X009443Y009930D01*
X008643Y009930D01*
X008643Y010230D01*
X007543Y010230D01*
X007543Y007730D01*
X007543Y012480D02*
X010543Y012480D01*
X010543Y014980D01*
X009443Y014980D01*
X009443Y014680D01*
X008643Y014680D01*
X008643Y014980D01*
X007543Y014980D01*
X007543Y012480D01*
X007543Y017730D02*
X010543Y017730D01*
X010543Y020230D01*
X009443Y020230D01*
X009443Y019930D01*
X008643Y019930D01*
X008643Y020230D01*
X007543Y020230D01*
X007543Y017730D01*
X007543Y022230D02*
X010543Y022230D01*
X010543Y024730D01*
X009443Y024730D01*
X009443Y024430D01*
X008643Y024430D01*
X008643Y024730D01*
X007543Y024730D01*
X007543Y022230D01*
X007543Y026730D02*
X010543Y026730D01*
X010543Y029230D01*
X009443Y029230D01*
X009443Y028930D01*
X008643Y028930D01*
X008643Y029230D01*
X007543Y029230D01*
X007543Y026730D01*
X007543Y031230D02*
X010543Y031230D01*
X010543Y033730D01*
X009443Y033730D01*
X009443Y033430D01*
X008643Y033430D01*
X008643Y033730D01*
X007543Y033730D01*
X007543Y031230D01*
X008618Y034755D02*
X008768Y034755D01*
X008693Y034755D02*
X008693Y035205D01*
X008618Y035205D02*
X008768Y035205D01*
X008925Y035130D02*
X008925Y035055D01*
X009000Y034980D01*
X009150Y034980D01*
X009225Y034905D01*
X009225Y034830D01*
X009150Y034755D01*
X009000Y034755D01*
X008925Y034830D01*
X008925Y035130D02*
X009000Y035205D01*
X009150Y035205D01*
X009225Y035130D01*
X009385Y035205D02*
X009385Y034755D01*
X009385Y034905D02*
X009610Y034905D01*
X009685Y034980D01*
X009685Y035130D01*
X009610Y035205D01*
X009385Y035205D01*
X013647Y035105D02*
X013797Y035255D01*
X013797Y034805D01*
X013647Y034805D02*
X013947Y034805D01*
X014108Y034880D02*
X014183Y034805D01*
X014333Y034805D01*
X014408Y034880D01*
X014408Y034955D01*
X014333Y035030D01*
X014108Y035030D01*
X014108Y034880D01*
X014108Y035030D02*
X014258Y035180D01*
X014408Y035255D01*
X014408Y032255D02*
X014258Y032180D01*
X014108Y032030D01*
X014333Y032030D01*
X014408Y031955D01*
X014408Y031880D01*
X014333Y031805D01*
X014183Y031805D01*
X014108Y031880D01*
X014108Y032030D01*
X013947Y031805D02*
X013647Y031805D01*
X013797Y031805D02*
X013797Y032255D01*
X013647Y032105D01*
X020808Y034605D02*
X021108Y034605D01*
X020958Y034605D02*
X020958Y035055D01*
X020808Y034905D01*
X020808Y037605D02*
X021108Y037605D01*
X020958Y037605D02*
X020958Y038055D01*
X020808Y037905D01*
X039718Y029055D02*
X040068Y029055D01*
X040293Y028630D02*
X040293Y027830D01*
X040043Y025130D02*
X040043Y024780D01*
X040043Y020130D02*
X040043Y019780D01*
X040043Y015130D02*
X040043Y014780D01*
D18*
X037443Y015230D03*
X037443Y014030D03*
X037443Y012880D03*
X029643Y013880D03*
X029643Y014780D03*
X029643Y017180D03*
X021943Y014080D03*
X021943Y012080D03*
X021943Y010080D03*
X021943Y008080D03*
X038093Y026430D03*
X038093Y027380D03*
X041293Y026930D03*
D19*
X031743Y010030D03*
X029843Y010080D03*
X027893Y010080D03*
D20*
X017493Y034705D03*
X017493Y037705D03*
D21*
X024161Y030143D02*
X024163Y030190D01*
X024169Y030236D01*
X024179Y030282D01*
X024192Y030327D01*
X024210Y030370D01*
X024231Y030412D01*
X024255Y030452D01*
X024283Y030489D01*
X024314Y030524D01*
X024348Y030557D01*
X024384Y030586D01*
X024423Y030612D01*
X024464Y030635D01*
X024507Y030654D01*
X024551Y030670D01*
X024596Y030682D01*
X024642Y030690D01*
X024689Y030694D01*
X024735Y030694D01*
X024782Y030690D01*
X024828Y030682D01*
X024873Y030670D01*
X024917Y030654D01*
X024960Y030635D01*
X025001Y030612D01*
X025040Y030586D01*
X025076Y030557D01*
X025110Y030524D01*
X025141Y030489D01*
X025169Y030452D01*
X025193Y030412D01*
X025214Y030370D01*
X025232Y030327D01*
X025245Y030282D01*
X025255Y030236D01*
X025261Y030190D01*
X025263Y030143D01*
X025261Y030096D01*
X025255Y030050D01*
X025245Y030004D01*
X025232Y029959D01*
X025214Y029916D01*
X025193Y029874D01*
X025169Y029834D01*
X025141Y029797D01*
X025110Y029762D01*
X025076Y029729D01*
X025040Y029700D01*
X025001Y029674D01*
X024960Y029651D01*
X024917Y029632D01*
X024873Y029616D01*
X024828Y029604D01*
X024782Y029596D01*
X024735Y029592D01*
X024689Y029592D01*
X024642Y029596D01*
X024596Y029604D01*
X024551Y029616D01*
X024507Y029632D01*
X024464Y029651D01*
X024423Y029674D01*
X024384Y029700D01*
X024348Y029729D01*
X024314Y029762D01*
X024283Y029797D01*
X024255Y029834D01*
X024231Y029874D01*
X024210Y029916D01*
X024192Y029959D01*
X024179Y030004D01*
X024169Y030050D01*
X024163Y030096D01*
X024161Y030143D01*
X004870Y030143D02*
X004872Y030190D01*
X004878Y030236D01*
X004888Y030282D01*
X004901Y030327D01*
X004919Y030370D01*
X004940Y030412D01*
X004964Y030452D01*
X004992Y030489D01*
X005023Y030524D01*
X005057Y030557D01*
X005093Y030586D01*
X005132Y030612D01*
X005173Y030635D01*
X005216Y030654D01*
X005260Y030670D01*
X005305Y030682D01*
X005351Y030690D01*
X005398Y030694D01*
X005444Y030694D01*
X005491Y030690D01*
X005537Y030682D01*
X005582Y030670D01*
X005626Y030654D01*
X005669Y030635D01*
X005710Y030612D01*
X005749Y030586D01*
X005785Y030557D01*
X005819Y030524D01*
X005850Y030489D01*
X005878Y030452D01*
X005902Y030412D01*
X005923Y030370D01*
X005941Y030327D01*
X005954Y030282D01*
X005964Y030236D01*
X005970Y030190D01*
X005972Y030143D01*
X005970Y030096D01*
X005964Y030050D01*
X005954Y030004D01*
X005941Y029959D01*
X005923Y029916D01*
X005902Y029874D01*
X005878Y029834D01*
X005850Y029797D01*
X005819Y029762D01*
X005785Y029729D01*
X005749Y029700D01*
X005710Y029674D01*
X005669Y029651D01*
X005626Y029632D01*
X005582Y029616D01*
X005537Y029604D01*
X005491Y029596D01*
X005444Y029592D01*
X005398Y029592D01*
X005351Y029596D01*
X005305Y029604D01*
X005260Y029616D01*
X005216Y029632D01*
X005173Y029651D01*
X005132Y029674D01*
X005093Y029700D01*
X005057Y029729D01*
X005023Y029762D01*
X004992Y029797D01*
X004964Y029834D01*
X004940Y029874D01*
X004919Y029916D01*
X004901Y029959D01*
X004888Y030004D01*
X004878Y030050D01*
X004872Y030096D01*
X004870Y030143D01*
X004870Y007308D02*
X004872Y007355D01*
X004878Y007401D01*
X004888Y007447D01*
X004901Y007492D01*
X004919Y007535D01*
X004940Y007577D01*
X004964Y007617D01*
X004992Y007654D01*
X005023Y007689D01*
X005057Y007722D01*
X005093Y007751D01*
X005132Y007777D01*
X005173Y007800D01*
X005216Y007819D01*
X005260Y007835D01*
X005305Y007847D01*
X005351Y007855D01*
X005398Y007859D01*
X005444Y007859D01*
X005491Y007855D01*
X005537Y007847D01*
X005582Y007835D01*
X005626Y007819D01*
X005669Y007800D01*
X005710Y007777D01*
X005749Y007751D01*
X005785Y007722D01*
X005819Y007689D01*
X005850Y007654D01*
X005878Y007617D01*
X005902Y007577D01*
X005923Y007535D01*
X005941Y007492D01*
X005954Y007447D01*
X005964Y007401D01*
X005970Y007355D01*
X005972Y007308D01*
X005970Y007261D01*
X005964Y007215D01*
X005954Y007169D01*
X005941Y007124D01*
X005923Y007081D01*
X005902Y007039D01*
X005878Y006999D01*
X005850Y006962D01*
X005819Y006927D01*
X005785Y006894D01*
X005749Y006865D01*
X005710Y006839D01*
X005669Y006816D01*
X005626Y006797D01*
X005582Y006781D01*
X005537Y006769D01*
X005491Y006761D01*
X005444Y006757D01*
X005398Y006757D01*
X005351Y006761D01*
X005305Y006769D01*
X005260Y006781D01*
X005216Y006797D01*
X005173Y006816D01*
X005132Y006839D01*
X005093Y006865D01*
X005057Y006894D01*
X005023Y006927D01*
X004992Y006962D01*
X004964Y006999D01*
X004940Y007039D01*
X004919Y007081D01*
X004901Y007124D01*
X004888Y007169D01*
X004878Y007215D01*
X004872Y007261D01*
X004870Y007308D01*
X024161Y007308D02*
X024163Y007355D01*
X024169Y007401D01*
X024179Y007447D01*
X024192Y007492D01*
X024210Y007535D01*
X024231Y007577D01*
X024255Y007617D01*
X024283Y007654D01*
X024314Y007689D01*
X024348Y007722D01*
X024384Y007751D01*
X024423Y007777D01*
X024464Y007800D01*
X024507Y007819D01*
X024551Y007835D01*
X024596Y007847D01*
X024642Y007855D01*
X024689Y007859D01*
X024735Y007859D01*
X024782Y007855D01*
X024828Y007847D01*
X024873Y007835D01*
X024917Y007819D01*
X024960Y007800D01*
X025001Y007777D01*
X025040Y007751D01*
X025076Y007722D01*
X025110Y007689D01*
X025141Y007654D01*
X025169Y007617D01*
X025193Y007577D01*
X025214Y007535D01*
X025232Y007492D01*
X025245Y007447D01*
X025255Y007401D01*
X025261Y007355D01*
X025263Y007308D01*
X025261Y007261D01*
X025255Y007215D01*
X025245Y007169D01*
X025232Y007124D01*
X025214Y007081D01*
X025193Y007039D01*
X025169Y006999D01*
X025141Y006962D01*
X025110Y006927D01*
X025076Y006894D01*
X025040Y006865D01*
X025001Y006839D01*
X024960Y006816D01*
X024917Y006797D01*
X024873Y006781D01*
X024828Y006769D01*
X024782Y006761D01*
X024735Y006757D01*
X024689Y006757D01*
X024642Y006761D01*
X024596Y006769D01*
X024551Y006781D01*
X024507Y006797D01*
X024464Y006816D01*
X024423Y006839D01*
X024384Y006865D01*
X024348Y006894D01*
X024314Y006927D01*
X024283Y006962D01*
X024255Y006999D01*
X024231Y007039D01*
X024210Y007081D01*
X024192Y007124D01*
X024179Y007169D01*
X024169Y007215D01*
X024163Y007261D01*
X024161Y007308D01*
M02*
