G75*
%MOIN*%
%OFA0B0*%
%FSLAX24Y24*%
%IPPOS*%
%LPD*%
%AMOC8*
5,1,8,0,0,1.08239X$1,22.5*
%
%ADD10C,0.0160*%
%ADD11C,0.0740*%
%ADD12C,0.0600*%
%ADD13R,0.0740X0.0740*%
%ADD14OC8,0.0740*%
%ADD15C,0.0740*%
%ADD16R,0.0800X0.0800*%
%ADD17C,0.0800*%
%ADD18C,0.0520*%
%ADD19OC8,0.0660*%
%ADD20C,0.0000*%
%ADD21R,0.0515X0.0515*%
%ADD22C,0.0396*%
%ADD23C,0.0400*%
%ADD24C,0.0240*%
%ADD25C,0.0320*%
D10*
X004043Y005930D02*
X004043Y038680D01*
X042918Y038680D01*
X042843Y005905D01*
X042788Y005930D02*
X004043Y005930D01*
X004603Y007948D02*
X004603Y029502D01*
X004788Y029317D01*
X005023Y029182D01*
X005285Y029111D01*
X005557Y029111D01*
X005819Y029182D01*
X006054Y029317D01*
X006232Y029495D01*
X006239Y029477D01*
X006303Y029414D01*
X006303Y025221D01*
X006239Y025158D01*
X006185Y025026D01*
X006185Y024884D01*
X006239Y024752D01*
X006303Y024689D01*
X006303Y020696D01*
X006239Y020633D01*
X006185Y020501D01*
X006185Y020359D01*
X006239Y020227D01*
X006303Y020164D01*
X006303Y015321D01*
X006239Y015258D01*
X006185Y015126D01*
X006185Y014984D01*
X006239Y014852D01*
X006303Y014789D01*
X006303Y011196D01*
X006239Y011133D01*
X006185Y011001D01*
X006185Y010859D01*
X006239Y010727D01*
X006303Y010664D01*
X006303Y007843D01*
X006246Y007941D01*
X006054Y008133D01*
X005819Y008269D01*
X005557Y008339D01*
X005285Y008339D01*
X005023Y008269D01*
X004788Y008133D01*
X004603Y007948D01*
X004603Y007991D02*
X004645Y007991D01*
X004603Y008149D02*
X004815Y008149D01*
X004603Y008308D02*
X005167Y008308D01*
X005675Y008308D02*
X006303Y008308D01*
X006303Y008466D02*
X004603Y008466D01*
X004603Y008625D02*
X006303Y008625D01*
X006303Y008783D02*
X004603Y008783D01*
X004603Y008942D02*
X006303Y008942D01*
X006303Y009100D02*
X004603Y009100D01*
X004603Y009259D02*
X006303Y009259D01*
X006303Y009417D02*
X004603Y009417D01*
X004603Y009576D02*
X006303Y009576D01*
X006303Y009734D02*
X004603Y009734D01*
X004603Y009893D02*
X006303Y009893D01*
X006303Y010051D02*
X004603Y010051D01*
X004603Y010210D02*
X006303Y010210D01*
X006303Y010368D02*
X004603Y010368D01*
X004603Y010527D02*
X006303Y010527D01*
X006281Y010685D02*
X004603Y010685D01*
X004603Y010844D02*
X006191Y010844D01*
X006185Y011002D02*
X004603Y011002D01*
X004603Y011161D02*
X006267Y011161D01*
X006303Y011319D02*
X004603Y011319D01*
X004603Y011478D02*
X006303Y011478D01*
X006303Y011636D02*
X004603Y011636D01*
X004603Y011795D02*
X006303Y011795D01*
X006303Y011953D02*
X004603Y011953D01*
X004603Y012112D02*
X006303Y012112D01*
X006303Y012270D02*
X004603Y012270D01*
X004603Y012429D02*
X006303Y012429D01*
X006303Y012587D02*
X004603Y012587D01*
X004603Y012746D02*
X006303Y012746D01*
X006303Y012904D02*
X004603Y012904D01*
X004603Y013063D02*
X006303Y013063D01*
X006303Y013221D02*
X004603Y013221D01*
X004603Y013380D02*
X006303Y013380D01*
X006303Y013538D02*
X004603Y013538D01*
X004603Y013697D02*
X006303Y013697D01*
X006303Y013855D02*
X004603Y013855D01*
X004603Y014014D02*
X006303Y014014D01*
X006303Y014172D02*
X004603Y014172D01*
X004603Y014331D02*
X006303Y014331D01*
X006303Y014489D02*
X004603Y014489D01*
X004603Y014648D02*
X006303Y014648D01*
X006285Y014806D02*
X004603Y014806D01*
X004603Y014965D02*
X006193Y014965D01*
X006185Y015123D02*
X004603Y015123D01*
X004603Y015282D02*
X006263Y015282D01*
X006303Y015440D02*
X004603Y015440D01*
X004603Y015599D02*
X006303Y015599D01*
X006303Y015757D02*
X004603Y015757D01*
X004603Y015916D02*
X006303Y015916D01*
X006303Y016074D02*
X004603Y016074D01*
X004603Y016233D02*
X006303Y016233D01*
X006303Y016391D02*
X004603Y016391D01*
X004603Y016550D02*
X006303Y016550D01*
X006303Y016708D02*
X004603Y016708D01*
X004603Y016867D02*
X006303Y016867D01*
X006303Y017025D02*
X004603Y017025D01*
X004603Y017184D02*
X006303Y017184D01*
X006303Y017342D02*
X004603Y017342D01*
X004603Y017501D02*
X006303Y017501D01*
X006303Y017659D02*
X004603Y017659D01*
X004603Y017818D02*
X006303Y017818D01*
X006303Y017976D02*
X004603Y017976D01*
X004603Y018135D02*
X006303Y018135D01*
X006303Y018293D02*
X004603Y018293D01*
X004603Y018452D02*
X006303Y018452D01*
X006303Y018610D02*
X004603Y018610D01*
X004603Y018769D02*
X006303Y018769D01*
X006303Y018927D02*
X004603Y018927D01*
X004603Y019086D02*
X006303Y019086D01*
X006303Y019244D02*
X004603Y019244D01*
X004603Y019403D02*
X006303Y019403D01*
X006303Y019561D02*
X004603Y019561D01*
X004603Y019720D02*
X006303Y019720D01*
X006303Y019878D02*
X004603Y019878D01*
X004603Y020037D02*
X006303Y020037D01*
X006271Y020195D02*
X004603Y020195D01*
X004603Y020354D02*
X006187Y020354D01*
X006189Y020512D02*
X004603Y020512D01*
X004603Y020671D02*
X006277Y020671D01*
X006303Y020829D02*
X004603Y020829D01*
X004603Y020988D02*
X006303Y020988D01*
X006303Y021146D02*
X004603Y021146D01*
X004603Y021305D02*
X006303Y021305D01*
X006303Y021463D02*
X004603Y021463D01*
X004603Y021622D02*
X006303Y021622D01*
X006303Y021780D02*
X004603Y021780D01*
X004603Y021939D02*
X006303Y021939D01*
X006303Y022097D02*
X004603Y022097D01*
X004603Y022256D02*
X006303Y022256D01*
X006303Y022414D02*
X004603Y022414D01*
X004603Y022573D02*
X006303Y022573D01*
X006303Y022731D02*
X004603Y022731D01*
X004603Y022890D02*
X006303Y022890D01*
X006303Y023048D02*
X004603Y023048D01*
X004603Y023207D02*
X006303Y023207D01*
X006303Y023365D02*
X004603Y023365D01*
X004603Y023524D02*
X006303Y023524D01*
X006303Y023682D02*
X004603Y023682D01*
X004603Y023841D02*
X006303Y023841D01*
X006303Y023999D02*
X004603Y023999D01*
X004603Y024158D02*
X006303Y024158D01*
X006303Y024316D02*
X004603Y024316D01*
X004603Y024475D02*
X006303Y024475D01*
X006303Y024633D02*
X004603Y024633D01*
X004603Y024792D02*
X006223Y024792D01*
X006185Y024950D02*
X004603Y024950D01*
X004603Y025109D02*
X006219Y025109D01*
X006303Y025267D02*
X004603Y025267D01*
X004603Y025426D02*
X006303Y025426D01*
X006303Y025584D02*
X004603Y025584D01*
X004603Y025743D02*
X006303Y025743D01*
X006303Y025901D02*
X004603Y025901D01*
X004603Y026060D02*
X006303Y026060D01*
X006303Y026218D02*
X004603Y026218D01*
X004603Y026377D02*
X006303Y026377D01*
X006303Y026535D02*
X004603Y026535D01*
X004603Y026694D02*
X006303Y026694D01*
X006303Y026852D02*
X004603Y026852D01*
X004603Y027011D02*
X006303Y027011D01*
X006303Y027169D02*
X004603Y027169D01*
X004603Y027328D02*
X006303Y027328D01*
X006303Y027486D02*
X004603Y027486D01*
X004603Y027645D02*
X006303Y027645D01*
X006303Y027803D02*
X004603Y027803D01*
X004603Y027962D02*
X006303Y027962D01*
X006303Y028120D02*
X004603Y028120D01*
X004603Y028279D02*
X006303Y028279D01*
X006303Y028437D02*
X004603Y028437D01*
X004603Y028596D02*
X006303Y028596D01*
X006303Y028754D02*
X004603Y028754D01*
X004603Y028913D02*
X006303Y028913D01*
X006303Y029071D02*
X004603Y029071D01*
X004603Y029230D02*
X004940Y029230D01*
X004717Y029388D02*
X004603Y029388D01*
X005902Y029230D02*
X006303Y029230D01*
X006303Y029388D02*
X006125Y029388D01*
X006543Y029680D02*
X006543Y033055D01*
X006212Y033192D02*
X004603Y033192D01*
X004603Y033034D02*
X006185Y033034D01*
X006185Y032984D02*
X006239Y032852D01*
X006303Y032789D01*
X006303Y030677D01*
X006246Y030776D01*
X006054Y030968D01*
X005819Y031104D01*
X005557Y031174D01*
X005285Y031174D01*
X005023Y031104D01*
X004788Y030968D01*
X004603Y030783D01*
X004603Y038120D01*
X042357Y038120D01*
X042342Y031615D01*
X041452Y031615D01*
X041358Y031521D01*
X041358Y030589D01*
X041452Y030495D01*
X042339Y030495D01*
X042336Y029157D01*
X042148Y029235D01*
X041937Y029235D01*
X041743Y029154D01*
X041594Y029005D01*
X041513Y028810D01*
X041513Y028600D01*
X041594Y028405D01*
X041743Y028256D01*
X041937Y028175D01*
X042148Y028175D01*
X042334Y028252D01*
X042332Y027159D01*
X042148Y027235D01*
X041937Y027235D01*
X041743Y027154D01*
X041594Y027005D01*
X041513Y026810D01*
X041513Y026600D01*
X041594Y026405D01*
X041743Y026256D01*
X041937Y026175D01*
X042148Y026175D01*
X042329Y026250D01*
X042328Y025404D01*
X042266Y025436D01*
X042179Y025464D01*
X042091Y025478D01*
X042091Y024946D01*
X041995Y024946D01*
X041995Y024851D01*
X041463Y024851D01*
X041477Y024763D01*
X041505Y024676D01*
X041547Y024595D01*
X041601Y024521D01*
X041665Y024456D01*
X041739Y024402D01*
X041820Y024361D01*
X041907Y024333D01*
X041995Y024319D01*
X041995Y024851D01*
X042091Y024851D01*
X042091Y024319D01*
X042179Y024333D01*
X042266Y024361D01*
X042325Y024391D01*
X042323Y023490D01*
X041577Y023490D01*
X041483Y023396D01*
X041483Y022464D01*
X041577Y022370D01*
X042321Y022370D01*
X042316Y020410D01*
X042266Y020436D01*
X042179Y020464D01*
X042091Y020478D01*
X042091Y019946D01*
X041995Y019946D01*
X041995Y019851D01*
X041463Y019851D01*
X041477Y019763D01*
X041505Y019676D01*
X041547Y019595D01*
X041601Y019521D01*
X041665Y019456D01*
X041739Y019402D01*
X041820Y019361D01*
X041907Y019333D01*
X041995Y019319D01*
X041995Y019851D01*
X042091Y019851D01*
X042091Y019319D01*
X042179Y019333D01*
X042266Y019361D01*
X042314Y019386D01*
X042312Y018490D01*
X041577Y018490D01*
X041483Y018396D01*
X041483Y017464D01*
X041577Y017370D01*
X042309Y017370D01*
X042305Y015416D01*
X042266Y015436D01*
X042179Y015464D01*
X042091Y015478D01*
X042091Y014946D01*
X041995Y014946D01*
X041995Y014851D01*
X041463Y014851D01*
X041477Y014763D01*
X041505Y014676D01*
X041547Y014595D01*
X041601Y014521D01*
X041665Y014456D01*
X041739Y014402D01*
X041820Y014361D01*
X041907Y014333D01*
X041995Y014319D01*
X041995Y014851D01*
X042091Y014851D01*
X042091Y014319D01*
X042179Y014333D01*
X042266Y014361D01*
X042302Y014380D01*
X042300Y013490D01*
X041577Y013490D01*
X041483Y013396D01*
X041483Y012464D01*
X041577Y012370D01*
X042298Y012370D01*
X042289Y008676D01*
X042134Y008740D01*
X041951Y008740D01*
X041782Y008670D01*
X041653Y008541D01*
X041583Y008371D01*
X041583Y007588D01*
X041653Y007419D01*
X041782Y007290D01*
X041951Y007220D01*
X042134Y007220D01*
X042286Y007283D01*
X042284Y006490D01*
X025353Y006490D01*
X025537Y006675D01*
X025673Y006910D01*
X025743Y007172D01*
X025743Y007444D01*
X025673Y007706D01*
X025537Y007941D01*
X025345Y008133D01*
X025110Y008269D01*
X024848Y008339D01*
X024576Y008339D01*
X024314Y008269D01*
X024079Y008133D01*
X023887Y007941D01*
X023751Y007706D01*
X023681Y007444D01*
X023681Y007172D01*
X023751Y006910D01*
X023887Y006675D01*
X024072Y006490D01*
X022317Y006490D01*
X023496Y007669D01*
X023533Y007757D01*
X023533Y009047D01*
X023838Y008742D01*
X024057Y008742D01*
X024057Y009284D01*
X024074Y009284D01*
X024074Y008742D01*
X024293Y008742D01*
X024579Y009029D01*
X024846Y008762D01*
X025285Y008762D01*
X025595Y009073D01*
X025595Y009512D01*
X025285Y009822D01*
X025245Y009822D01*
X025495Y010073D01*
X025495Y010512D01*
X025276Y010731D01*
X025285Y010731D01*
X025595Y011041D01*
X025595Y011480D01*
X025285Y011791D01*
X025273Y011791D01*
X025515Y012033D01*
X025515Y012252D01*
X024974Y012252D01*
X024974Y012269D01*
X025515Y012269D01*
X025515Y012489D01*
X025295Y012709D01*
X025410Y012824D01*
X025603Y012631D01*
X025603Y008855D01*
X025560Y008751D01*
X025560Y008609D01*
X025614Y008477D01*
X025715Y008376D01*
X025847Y008322D01*
X025989Y008322D01*
X026121Y008376D01*
X026222Y008477D01*
X026276Y008609D01*
X026276Y008751D01*
X026222Y008883D01*
X026121Y008984D01*
X026083Y008999D01*
X026083Y012778D01*
X026046Y012866D01*
X025979Y012933D01*
X025595Y013317D01*
X025595Y013449D01*
X025285Y013759D01*
X025273Y013759D01*
X025515Y014001D01*
X025515Y014221D01*
X024974Y014221D01*
X024974Y014238D01*
X025515Y014238D01*
X025515Y014457D01*
X025295Y014678D01*
X025595Y014978D01*
X025595Y015417D01*
X025285Y015728D01*
X025245Y015728D01*
X025495Y015978D01*
X025495Y016417D01*
X025276Y016636D01*
X025285Y016636D01*
X025595Y016947D01*
X025595Y017386D01*
X025285Y017696D01*
X025245Y017696D01*
X025495Y017947D01*
X025495Y018386D01*
X025295Y018586D01*
X025615Y018907D01*
X025615Y019126D01*
X025074Y019126D01*
X025074Y019143D01*
X025615Y019143D01*
X025615Y019363D01*
X025293Y019685D01*
X025265Y019685D01*
X025495Y019915D01*
X025495Y020354D01*
X025276Y020573D01*
X025285Y020573D01*
X025595Y020884D01*
X025595Y021323D01*
X025285Y021633D01*
X025273Y021633D01*
X025515Y021875D01*
X025515Y022095D01*
X024974Y022095D01*
X024974Y022112D01*
X025515Y022112D01*
X025515Y022331D01*
X025295Y022552D01*
X025595Y022852D01*
X025595Y023291D01*
X025285Y023602D01*
X025245Y023602D01*
X025495Y023852D01*
X025495Y024291D01*
X025276Y024510D01*
X025285Y024510D01*
X025595Y024821D01*
X025595Y025260D01*
X025285Y025570D01*
X025245Y025570D01*
X025495Y025821D01*
X025495Y026043D01*
X026303Y026851D01*
X026303Y024553D01*
X026215Y024590D01*
X026071Y024590D01*
X025939Y024535D01*
X025838Y024434D01*
X025783Y024302D01*
X025783Y017758D01*
X025838Y017626D01*
X025939Y017525D01*
X026071Y017470D01*
X026215Y017470D01*
X026347Y017525D01*
X026448Y017626D01*
X026503Y017758D01*
X026503Y021532D01*
X026651Y021470D01*
X027434Y021470D01*
X027603Y021540D01*
X027733Y021669D01*
X027803Y021838D01*
X027803Y022021D01*
X027733Y022191D01*
X027603Y022320D01*
X027434Y022390D01*
X026651Y022390D01*
X026503Y022328D01*
X026503Y022632D01*
X026651Y022570D01*
X027434Y022570D01*
X027603Y022640D01*
X027733Y022769D01*
X027803Y022938D01*
X027803Y023121D01*
X027733Y023291D01*
X027650Y023373D01*
X029053Y022404D01*
X029053Y021882D01*
X029089Y021794D01*
X029303Y021581D01*
X029303Y020132D01*
X029339Y020044D01*
X029407Y019977D01*
X029495Y019940D01*
X030553Y019940D01*
X030553Y017959D01*
X030492Y018020D01*
X030514Y018071D01*
X030514Y018214D01*
X030459Y018345D01*
X030358Y018446D01*
X030227Y018501D01*
X030084Y018501D01*
X029953Y018446D01*
X029852Y018345D01*
X029797Y018214D01*
X029797Y018071D01*
X029852Y017940D01*
X029953Y017839D01*
X030024Y017809D01*
X030303Y017531D01*
X030303Y015882D01*
X030339Y015794D01*
X030407Y015727D01*
X030495Y015690D01*
X031453Y015690D01*
X031453Y015446D01*
X031389Y015383D01*
X031335Y015251D01*
X031335Y015109D01*
X031389Y014977D01*
X031490Y014876D01*
X031622Y014822D01*
X031764Y014822D01*
X031896Y014876D01*
X031997Y014977D01*
X032051Y015109D01*
X032051Y015251D01*
X031997Y015383D01*
X031933Y015446D01*
X031933Y015978D01*
X031896Y016066D01*
X031829Y016133D01*
X031741Y016170D01*
X030783Y016170D01*
X030783Y016601D01*
X031089Y016294D01*
X031157Y016227D01*
X031245Y016190D01*
X033176Y016190D01*
X033240Y016126D01*
X033372Y016072D01*
X033514Y016072D01*
X033646Y016126D01*
X033747Y016227D01*
X033801Y016359D01*
X033801Y016501D01*
X033747Y016633D01*
X033686Y016693D01*
X033830Y016691D01*
X034103Y016467D01*
X034103Y016396D01*
X034039Y016333D01*
X033985Y016201D01*
X033985Y016059D01*
X034039Y015927D01*
X034140Y015826D01*
X034272Y015772D01*
X034414Y015772D01*
X034546Y015826D01*
X034647Y015927D01*
X034701Y016059D01*
X034701Y016201D01*
X034647Y016333D01*
X034583Y016396D01*
X034583Y016544D01*
X034586Y016556D01*
X034583Y016592D01*
X034583Y016628D01*
X034578Y016639D01*
X034577Y016651D01*
X034560Y016683D01*
X034546Y016716D01*
X034538Y016724D01*
X034532Y016735D01*
X034504Y016758D01*
X034479Y016783D01*
X034468Y016788D01*
X034081Y017107D01*
X034057Y017132D01*
X034044Y017137D01*
X034034Y017146D01*
X034001Y017156D01*
X033969Y017169D01*
X033955Y017169D01*
X033942Y017173D01*
X033908Y017170D01*
X032383Y017192D01*
X032383Y017559D01*
X032415Y017526D01*
X032547Y017472D01*
X032689Y017472D01*
X032821Y017526D01*
X032922Y017627D01*
X032976Y017759D01*
X032976Y017866D01*
X033022Y017847D01*
X033164Y017847D01*
X033296Y017901D01*
X033397Y018002D01*
X033451Y018134D01*
X033451Y018276D01*
X033397Y018408D01*
X033333Y018471D01*
X033333Y018553D01*
X033364Y018477D01*
X033465Y018376D01*
X033597Y018322D01*
X033739Y018322D01*
X033871Y018376D01*
X033972Y018477D01*
X034026Y018609D01*
X034026Y018751D01*
X033972Y018883D01*
X033908Y018946D01*
X033908Y019331D01*
X034642Y020065D01*
X035841Y020065D01*
X035929Y020102D01*
X035996Y020169D01*
X036746Y020919D01*
X036783Y021007D01*
X036783Y027706D01*
X037017Y027940D01*
X037526Y027940D01*
X037590Y027876D01*
X037722Y027822D01*
X037864Y027822D01*
X037996Y027876D01*
X038097Y027977D01*
X038151Y028109D01*
X038151Y028251D01*
X038097Y028383D01*
X037996Y028484D01*
X037864Y028538D01*
X037722Y028538D01*
X037590Y028484D01*
X037526Y028420D01*
X036870Y028420D01*
X036782Y028383D01*
X036407Y028008D01*
X036339Y027941D01*
X036303Y027853D01*
X036303Y021154D01*
X035694Y020545D01*
X034864Y020545D01*
X034947Y020627D01*
X035001Y020759D01*
X035001Y020901D01*
X034947Y021033D01*
X034849Y021130D01*
X034947Y021227D01*
X035001Y021359D01*
X035001Y021501D01*
X034947Y021633D01*
X034846Y021734D01*
X034714Y021788D01*
X034572Y021788D01*
X034440Y021734D01*
X034339Y021633D01*
X034285Y021501D01*
X034285Y021461D01*
X032498Y020115D01*
X032482Y020108D01*
X032460Y020087D01*
X032435Y020068D01*
X032427Y020053D01*
X032414Y020041D01*
X032403Y020012D01*
X032387Y019986D01*
X032385Y019969D01*
X032383Y019965D01*
X032383Y021065D01*
X032976Y021065D01*
X033040Y021001D01*
X033172Y020947D01*
X033314Y020947D01*
X033446Y021001D01*
X033547Y021102D01*
X033601Y021234D01*
X033601Y021376D01*
X033547Y021508D01*
X033446Y021609D01*
X033314Y021663D01*
X033172Y021663D01*
X033040Y021609D01*
X032976Y021545D01*
X032914Y021545D01*
X032972Y021602D01*
X033026Y021734D01*
X033026Y021876D01*
X032972Y022008D01*
X032871Y022109D01*
X032739Y022163D01*
X032651Y022163D01*
X032651Y022241D01*
X032658Y022257D01*
X032658Y023664D01*
X032722Y023727D01*
X032776Y023859D01*
X032776Y024001D01*
X032722Y024133D01*
X032621Y024234D01*
X032489Y024288D01*
X032347Y024288D01*
X032283Y024262D01*
X032283Y024789D01*
X032347Y024852D01*
X032401Y024984D01*
X032401Y025126D01*
X032347Y025258D01*
X032246Y025359D01*
X032114Y025413D01*
X031972Y025413D01*
X031840Y025359D01*
X031739Y025258D01*
X031685Y025126D01*
X031685Y024984D01*
X031739Y024852D01*
X031803Y024789D01*
X031803Y024290D01*
X031713Y024379D01*
X031518Y024460D01*
X030567Y024460D01*
X030373Y024379D01*
X030224Y024230D01*
X030143Y024035D01*
X030143Y023825D01*
X030224Y023630D01*
X030373Y023481D01*
X030495Y023430D01*
X030373Y023379D01*
X030224Y023230D01*
X030143Y023035D01*
X030143Y022825D01*
X030224Y022630D01*
X030308Y022545D01*
X030267Y022545D01*
X029408Y023404D01*
X029408Y025289D01*
X029472Y025352D01*
X029526Y025484D01*
X029526Y025626D01*
X029472Y025758D01*
X029371Y025859D01*
X029239Y025913D01*
X029097Y025913D01*
X028965Y025859D01*
X028864Y025758D01*
X028810Y025626D01*
X028810Y025484D01*
X028864Y025352D01*
X028928Y025289D01*
X028928Y023257D01*
X028964Y023169D01*
X029354Y022780D01*
X026900Y024475D01*
X027330Y024475D01*
X027424Y024569D01*
X027424Y024957D01*
X028958Y028620D01*
X038824Y028620D01*
X038826Y028619D01*
X038895Y028620D01*
X038965Y028620D01*
X038967Y028621D01*
X040595Y028642D01*
X040816Y028289D01*
X041311Y027374D01*
X041324Y027342D01*
X041333Y027334D01*
X041345Y027311D01*
X041400Y027266D01*
X041425Y027242D01*
X041436Y027237D01*
X041456Y027221D01*
X041525Y027200D01*
X041556Y027187D01*
X041569Y027187D01*
X041593Y027180D01*
X041664Y027187D01*
X041699Y027187D01*
X041710Y027192D01*
X041736Y027195D01*
X041799Y027229D01*
X041830Y027242D01*
X041839Y027250D01*
X041862Y027263D01*
X041907Y027318D01*
X041931Y027342D01*
X041936Y027354D01*
X041952Y027374D01*
X041973Y027442D01*
X041986Y027474D01*
X041986Y027486D01*
X042332Y027486D01*
X042332Y027328D02*
X041916Y027328D01*
X041986Y027486D02*
X041993Y027511D01*
X041986Y027582D01*
X041986Y027617D01*
X041981Y027628D01*
X041978Y027654D01*
X041944Y027716D01*
X041931Y027748D01*
X041922Y027757D01*
X041473Y028589D01*
X041471Y028601D01*
X041439Y028652D01*
X041410Y028705D01*
X041401Y028712D01*
X041113Y029173D01*
X041095Y029213D01*
X041075Y029233D01*
X041060Y029257D01*
X041024Y029282D01*
X040993Y029313D01*
X040966Y029323D01*
X040943Y029340D01*
X040901Y029350D01*
X040860Y029366D01*
X040831Y029366D01*
X040804Y029372D01*
X040761Y029365D01*
X038891Y029340D01*
X033149Y029340D01*
X033172Y029344D01*
X033254Y029370D01*
X033331Y029410D01*
X033401Y029460D01*
X033462Y029522D01*
X033513Y029592D01*
X033553Y029669D01*
X033573Y029730D01*
X033594Y029680D01*
X033743Y029531D01*
X033937Y029450D01*
X034148Y029450D01*
X034343Y029531D01*
X034492Y029680D01*
X034522Y029752D01*
X034594Y029580D01*
X034743Y029431D01*
X034937Y029350D01*
X035148Y029350D01*
X035343Y029431D01*
X035492Y029580D01*
X035564Y029752D01*
X035594Y029680D01*
X035743Y029531D01*
X035937Y029450D01*
X036148Y029450D01*
X036343Y029531D01*
X036492Y029680D01*
X036522Y029752D01*
X036594Y029580D01*
X036743Y029431D01*
X036937Y029350D01*
X037148Y029350D01*
X037343Y029431D01*
X037492Y029580D01*
X037573Y029775D01*
X037573Y029985D01*
X037492Y030180D01*
X037343Y030329D01*
X037148Y030410D01*
X036937Y030410D01*
X036743Y030329D01*
X036594Y030180D01*
X036564Y030108D01*
X036492Y030280D01*
X036343Y030429D01*
X036148Y030510D01*
X035937Y030510D01*
X035743Y030429D01*
X035594Y030280D01*
X035522Y030108D01*
X035492Y030180D01*
X035343Y030329D01*
X035148Y030410D01*
X034937Y030410D01*
X034743Y030329D01*
X034594Y030180D01*
X034564Y030108D01*
X034492Y030280D01*
X034343Y030429D01*
X034148Y030510D01*
X033937Y030510D01*
X033743Y030429D01*
X033594Y030280D01*
X033532Y030132D01*
X033513Y030168D01*
X033462Y030238D01*
X033401Y030300D01*
X033331Y030350D01*
X033254Y030390D01*
X033172Y030416D01*
X033086Y030430D01*
X033063Y030430D01*
X033063Y029900D01*
X033023Y029900D01*
X033023Y030430D01*
X033000Y030430D01*
X032914Y030416D01*
X032832Y030390D01*
X032755Y030350D01*
X032685Y030300D01*
X032623Y030238D01*
X032573Y030168D01*
X032565Y030153D01*
X032553Y030191D01*
X032513Y030268D01*
X032462Y030338D01*
X032401Y030400D01*
X032331Y030450D01*
X032254Y030490D01*
X032172Y030516D01*
X032086Y030530D01*
X032063Y030530D01*
X032063Y030000D01*
X032023Y030000D01*
X032023Y030530D01*
X032000Y030530D01*
X031914Y030516D01*
X031832Y030490D01*
X031755Y030450D01*
X031685Y030400D01*
X031623Y030338D01*
X031573Y030268D01*
X031533Y030191D01*
X031506Y030109D01*
X031493Y030023D01*
X031493Y030000D01*
X032023Y030000D01*
X032023Y029960D01*
X032063Y029960D01*
X032063Y029430D01*
X032086Y029430D01*
X032172Y029444D01*
X032254Y029470D01*
X032331Y029510D01*
X032401Y029560D01*
X032462Y029622D01*
X032513Y029692D01*
X032521Y029707D01*
X032533Y029669D01*
X032573Y029592D01*
X032623Y029522D01*
X032685Y029460D01*
X032755Y029410D01*
X032832Y029370D01*
X032914Y029344D01*
X032937Y029340D01*
X028719Y029340D01*
X028649Y029340D01*
X028648Y029340D01*
X028647Y029340D01*
X028582Y029313D01*
X028516Y029286D01*
X028515Y029285D01*
X028465Y029235D01*
X028414Y029185D01*
X028414Y029184D01*
X028414Y029184D01*
X028386Y029119D01*
X027901Y027960D01*
X027901Y028001D01*
X027847Y028133D01*
X027746Y028234D01*
X027614Y028288D01*
X027533Y028288D01*
X027533Y031103D01*
X027496Y031191D01*
X027429Y031258D01*
X026054Y032633D01*
X025966Y032670D01*
X023908Y032670D01*
X023908Y036353D01*
X023871Y036441D01*
X023804Y036508D01*
X022429Y037883D01*
X022341Y037920D01*
X019245Y037920D01*
X019157Y037883D01*
X019089Y037816D01*
X018839Y037566D01*
X018803Y037478D01*
X018803Y037383D01*
X018553Y037133D01*
X018553Y036727D01*
X018840Y036440D01*
X019246Y036440D01*
X019533Y036727D01*
X019533Y037133D01*
X019309Y037357D01*
X019392Y037440D01*
X022194Y037440D01*
X023428Y036206D01*
X023428Y035134D01*
X023341Y035170D01*
X013250Y035170D01*
X013276Y035234D01*
X013276Y035376D01*
X013222Y035508D01*
X013158Y035571D01*
X013158Y037081D01*
X013467Y037390D01*
X013782Y037390D01*
X013533Y037141D01*
X013533Y036930D01*
X013533Y036719D01*
X013832Y036420D01*
X014043Y036420D01*
X014254Y036420D01*
X014543Y036709D01*
X014832Y036420D01*
X015043Y036420D01*
X015254Y036420D01*
X015543Y036709D01*
X015832Y036420D01*
X016043Y036420D01*
X016254Y036420D01*
X016553Y036719D01*
X016553Y036930D01*
X016553Y037141D01*
X016304Y037390D01*
X016810Y037390D01*
X016553Y037133D01*
X016553Y036727D01*
X016840Y036440D01*
X017246Y036440D01*
X017533Y036727D01*
X017533Y037101D01*
X017553Y037081D01*
X017553Y036727D01*
X017840Y036440D01*
X018246Y036440D01*
X018533Y036727D01*
X018533Y037133D01*
X018246Y037420D01*
X017892Y037420D01*
X017479Y037833D01*
X017391Y037870D01*
X009192Y037870D01*
X009179Y037883D01*
X009091Y037920D01*
X007245Y037920D01*
X007157Y037883D01*
X007089Y037816D01*
X006407Y037133D01*
X006339Y037066D01*
X006303Y036978D01*
X006303Y036710D01*
X006299Y036692D01*
X006303Y036662D01*
X006303Y036632D01*
X006310Y036615D01*
X006313Y036597D01*
X006328Y036572D01*
X006339Y036544D01*
X006352Y036531D01*
X006453Y036364D01*
X006453Y035860D01*
X006434Y035880D01*
X006431Y035881D01*
X006429Y035883D01*
X006388Y035901D01*
X005510Y036291D01*
X005472Y036383D01*
X005371Y036484D01*
X005239Y036538D01*
X005097Y036538D01*
X004965Y036484D01*
X004864Y036383D01*
X004810Y036251D01*
X004810Y036109D01*
X004864Y035977D01*
X004965Y035876D01*
X005097Y035822D01*
X005239Y035822D01*
X005313Y035853D01*
X006053Y035524D01*
X006053Y033882D01*
X006089Y033794D01*
X006157Y033727D01*
X006471Y033413D01*
X006340Y033359D01*
X006239Y033258D01*
X006185Y033126D01*
X006185Y032984D01*
X006230Y032875D02*
X004603Y032875D01*
X004603Y032717D02*
X006303Y032717D01*
X006303Y032558D02*
X004603Y032558D01*
X004603Y032400D02*
X006303Y032400D01*
X006303Y032241D02*
X004603Y032241D01*
X004603Y032083D02*
X006303Y032083D01*
X006303Y031924D02*
X004603Y031924D01*
X004603Y031766D02*
X006303Y031766D01*
X006303Y031607D02*
X004603Y031607D01*
X004603Y031449D02*
X006303Y031449D01*
X006303Y031290D02*
X004603Y031290D01*
X004603Y031132D02*
X005127Y031132D01*
X004797Y030973D02*
X004603Y030973D01*
X004603Y030815D02*
X004634Y030815D01*
X005714Y031132D02*
X006303Y031132D01*
X006303Y030973D02*
X006045Y030973D01*
X006207Y030815D02*
X006303Y030815D01*
X006918Y030180D02*
X006918Y033305D01*
X006293Y033930D01*
X006293Y035680D01*
X005168Y036180D01*
X004836Y036045D02*
X004603Y036045D01*
X004603Y035887D02*
X004955Y035887D01*
X004810Y036204D02*
X004603Y036204D01*
X004603Y036362D02*
X004856Y036362D01*
X005054Y036521D02*
X004603Y036521D01*
X004603Y036679D02*
X006300Y036679D01*
X006303Y036838D02*
X004603Y036838D01*
X004603Y036996D02*
X006310Y036996D01*
X006407Y037133D02*
X006407Y037133D01*
X006428Y037155D02*
X004603Y037155D01*
X004603Y037313D02*
X006587Y037313D01*
X006745Y037472D02*
X004603Y037472D01*
X004603Y037630D02*
X006904Y037630D01*
X007062Y037789D02*
X004603Y037789D01*
X004603Y037947D02*
X042356Y037947D01*
X042356Y037789D02*
X022524Y037789D01*
X022682Y037630D02*
X042356Y037630D01*
X042355Y037472D02*
X022841Y037472D01*
X022999Y037313D02*
X042355Y037313D01*
X042354Y037155D02*
X023158Y037155D01*
X023316Y036996D02*
X042354Y036996D01*
X042354Y036838D02*
X023475Y036838D01*
X023633Y036679D02*
X042353Y036679D01*
X042353Y036521D02*
X023792Y036521D01*
X023904Y036362D02*
X042353Y036362D01*
X042352Y036204D02*
X023908Y036204D01*
X023908Y036045D02*
X042352Y036045D01*
X042352Y035887D02*
X023908Y035887D01*
X023908Y035728D02*
X042351Y035728D01*
X042351Y035570D02*
X023908Y035570D01*
X023908Y035411D02*
X042350Y035411D01*
X042350Y035253D02*
X023908Y035253D01*
X023908Y035094D02*
X042350Y035094D01*
X042349Y034936D02*
X023908Y034936D01*
X023908Y034777D02*
X042349Y034777D01*
X042349Y034619D02*
X023908Y034619D01*
X023908Y034460D02*
X042348Y034460D01*
X042348Y034302D02*
X023908Y034302D01*
X023908Y034143D02*
X042348Y034143D01*
X042347Y033985D02*
X023908Y033985D01*
X023908Y033826D02*
X042347Y033826D01*
X042346Y033668D02*
X023908Y033668D01*
X023908Y033509D02*
X042346Y033509D01*
X042346Y033351D02*
X023908Y033351D01*
X023908Y033192D02*
X042345Y033192D01*
X042345Y033034D02*
X023908Y033034D01*
X023908Y032875D02*
X042345Y032875D01*
X042344Y032717D02*
X023908Y032717D01*
X023668Y032555D02*
X023793Y032430D01*
X025918Y032430D01*
X027293Y031055D01*
X027293Y028180D01*
X027543Y027930D01*
X027901Y027962D02*
X027902Y027962D01*
X027852Y028120D02*
X027968Y028120D01*
X028035Y028279D02*
X027637Y028279D01*
X027533Y028437D02*
X028101Y028437D01*
X028167Y028596D02*
X027533Y028596D01*
X027533Y028754D02*
X028234Y028754D01*
X028300Y028913D02*
X027533Y028913D01*
X027533Y029071D02*
X028367Y029071D01*
X028459Y029230D02*
X027533Y029230D01*
X027533Y029388D02*
X032797Y029388D01*
X032605Y029547D02*
X032382Y029547D01*
X032520Y029705D02*
X032521Y029705D01*
X032063Y029705D02*
X032023Y029705D01*
X032023Y029547D02*
X032063Y029547D01*
X032023Y029430D02*
X032023Y029960D01*
X031493Y029960D01*
X031493Y029937D01*
X031506Y029851D01*
X031533Y029769D01*
X031573Y029692D01*
X031623Y029622D01*
X031685Y029560D01*
X031755Y029510D01*
X031832Y029470D01*
X031914Y029444D01*
X032000Y029430D01*
X032023Y029430D01*
X031704Y029547D02*
X027533Y029547D01*
X027533Y029705D02*
X031566Y029705D01*
X031505Y029864D02*
X027533Y029864D01*
X027533Y030022D02*
X031493Y030022D01*
X031530Y030181D02*
X027533Y030181D01*
X027533Y030339D02*
X031624Y030339D01*
X031856Y030498D02*
X027533Y030498D01*
X027533Y030656D02*
X039528Y030656D01*
X039507Y030677D02*
X039572Y030613D01*
X039645Y030559D01*
X039727Y030517D01*
X039814Y030489D01*
X039901Y030475D01*
X039901Y031007D01*
X039370Y031007D01*
X039384Y030919D01*
X039412Y030832D01*
X039453Y030751D01*
X039507Y030677D01*
X039421Y030815D02*
X027533Y030815D01*
X027533Y030973D02*
X039375Y030973D01*
X039370Y031103D02*
X039901Y031103D01*
X039901Y031007D01*
X039997Y031007D01*
X039997Y030475D01*
X040085Y030489D01*
X040172Y030517D01*
X040253Y030559D01*
X040327Y030613D01*
X040392Y030677D01*
X040445Y030751D01*
X040487Y030832D01*
X040515Y030919D01*
X040529Y031007D01*
X039997Y031007D01*
X039997Y031103D01*
X039901Y031103D01*
X039901Y031635D01*
X039814Y031621D01*
X039727Y031593D01*
X039645Y031551D01*
X039572Y031497D01*
X039507Y031433D01*
X039453Y031359D01*
X039412Y031278D01*
X039384Y031191D01*
X039370Y031103D01*
X039374Y031132D02*
X027521Y031132D01*
X027397Y031290D02*
X039418Y031290D01*
X039523Y031449D02*
X027239Y031449D01*
X027080Y031607D02*
X039771Y031607D01*
X039901Y031607D02*
X039997Y031607D01*
X039997Y031635D02*
X040085Y031621D01*
X040172Y031593D01*
X040253Y031551D01*
X040327Y031497D01*
X040392Y031433D01*
X040445Y031359D01*
X040487Y031278D01*
X040515Y031191D01*
X040529Y031103D01*
X039997Y031103D01*
X039997Y031635D01*
X040127Y031607D02*
X041444Y031607D01*
X041358Y031449D02*
X040376Y031449D01*
X040481Y031290D02*
X041358Y031290D01*
X041358Y031132D02*
X040525Y031132D01*
X040524Y030973D02*
X041358Y030973D01*
X041358Y030815D02*
X040478Y030815D01*
X040371Y030656D02*
X041358Y030656D01*
X041449Y030498D02*
X040111Y030498D01*
X039997Y030498D02*
X039901Y030498D01*
X039788Y030498D02*
X036178Y030498D01*
X035907Y030498D02*
X034178Y030498D01*
X033907Y030498D02*
X032230Y030498D01*
X032063Y030498D02*
X032023Y030498D01*
X032023Y030339D02*
X032063Y030339D01*
X032063Y030181D02*
X032023Y030181D01*
X032023Y030022D02*
X032063Y030022D01*
X032063Y029864D02*
X032023Y029864D01*
X032556Y030181D02*
X032581Y030181D01*
X032462Y030339D02*
X032739Y030339D01*
X033023Y030339D02*
X033063Y030339D01*
X033063Y030181D02*
X033023Y030181D01*
X033023Y030022D02*
X033063Y030022D01*
X033347Y030339D02*
X033652Y030339D01*
X033552Y030181D02*
X033504Y030181D01*
X034433Y030339D02*
X034766Y030339D01*
X034594Y030181D02*
X034534Y030181D01*
X035320Y030339D02*
X035652Y030339D01*
X035552Y030181D02*
X035492Y030181D01*
X035544Y029705D02*
X035583Y029705D01*
X035459Y029547D02*
X035727Y029547D01*
X035240Y029388D02*
X036846Y029388D01*
X036627Y029547D02*
X036359Y029547D01*
X036503Y029705D02*
X036542Y029705D01*
X037240Y029388D02*
X042337Y029388D01*
X042336Y029230D02*
X042162Y029230D01*
X041924Y029230D02*
X041078Y029230D01*
X041176Y029071D02*
X041659Y029071D01*
X041555Y028913D02*
X041275Y028913D01*
X041375Y028754D02*
X041513Y028754D01*
X041515Y028596D02*
X041472Y028596D01*
X041555Y028437D02*
X041580Y028437D01*
X041640Y028279D02*
X041720Y028279D01*
X041726Y028120D02*
X042334Y028120D01*
X042333Y027962D02*
X041812Y027962D01*
X041898Y027803D02*
X042333Y027803D01*
X042333Y027645D02*
X041979Y027645D01*
X041778Y027169D02*
X036783Y027169D01*
X036783Y027011D02*
X041599Y027011D01*
X041530Y026852D02*
X036783Y026852D01*
X036783Y026694D02*
X041513Y026694D01*
X041540Y026535D02*
X036783Y026535D01*
X036783Y026377D02*
X041622Y026377D01*
X041834Y026218D02*
X036783Y026218D01*
X036783Y026060D02*
X042329Y026060D01*
X042329Y026218D02*
X042252Y026218D01*
X042329Y025901D02*
X036783Y025901D01*
X036783Y025743D02*
X042328Y025743D01*
X042328Y025584D02*
X036783Y025584D01*
X036783Y025426D02*
X041800Y025426D01*
X041820Y025436D02*
X041739Y025395D01*
X041665Y025341D01*
X041601Y025276D01*
X041547Y025202D01*
X041505Y025121D01*
X041477Y025034D01*
X041463Y024946D01*
X041995Y024946D01*
X041995Y025478D01*
X041907Y025464D01*
X041820Y025436D01*
X041995Y025426D02*
X042091Y025426D01*
X042091Y025267D02*
X041995Y025267D01*
X041995Y025109D02*
X042091Y025109D01*
X042091Y024950D02*
X041995Y024950D01*
X041995Y024792D02*
X042091Y024792D01*
X042091Y024633D02*
X041995Y024633D01*
X041995Y024475D02*
X042091Y024475D01*
X042325Y024316D02*
X036783Y024316D01*
X036783Y024158D02*
X042325Y024158D01*
X042324Y023999D02*
X036783Y023999D01*
X036783Y023841D02*
X042324Y023841D01*
X042324Y023682D02*
X036783Y023682D01*
X036783Y023524D02*
X042323Y023524D01*
X041483Y023365D02*
X036783Y023365D01*
X036783Y023207D02*
X041483Y023207D01*
X041483Y023048D02*
X036783Y023048D01*
X036783Y022890D02*
X041483Y022890D01*
X041483Y022731D02*
X036783Y022731D01*
X036783Y022573D02*
X041483Y022573D01*
X041533Y022414D02*
X036783Y022414D01*
X036783Y022256D02*
X042320Y022256D01*
X042320Y022097D02*
X040163Y022097D01*
X040196Y022084D02*
X040064Y022138D01*
X039922Y022138D01*
X039790Y022084D01*
X039689Y021983D01*
X039635Y021851D01*
X039635Y021709D01*
X039689Y021577D01*
X039753Y021514D01*
X039753Y020079D01*
X038139Y018466D01*
X038103Y018378D01*
X038103Y017470D01*
X035809Y017470D01*
X035746Y017534D01*
X035680Y017561D01*
X035747Y017627D01*
X035801Y017759D01*
X035801Y017901D01*
X035747Y018033D01*
X035646Y018134D01*
X035514Y018188D01*
X035372Y018188D01*
X035240Y018134D01*
X035139Y018033D01*
X035085Y017901D01*
X035085Y017811D01*
X034939Y017666D01*
X034903Y017578D01*
X034903Y016096D01*
X034839Y016033D01*
X034785Y015901D01*
X034785Y015759D01*
X034839Y015627D01*
X034940Y015526D01*
X035072Y015472D01*
X035214Y015472D01*
X035346Y015526D01*
X035447Y015627D01*
X035501Y015759D01*
X035501Y015901D01*
X035447Y016033D01*
X035383Y016096D01*
X035383Y016909D01*
X035472Y016872D01*
X035614Y016872D01*
X035685Y016901D01*
X035685Y016759D01*
X035723Y016667D01*
X035723Y012366D01*
X035772Y012249D01*
X035862Y012159D01*
X037723Y010297D01*
X037723Y008511D01*
X037653Y008441D01*
X037583Y008271D01*
X037583Y007488D01*
X037653Y007319D01*
X037782Y007190D01*
X037951Y007120D01*
X038134Y007120D01*
X038303Y007190D01*
X038433Y007319D01*
X038503Y007488D01*
X038503Y008271D01*
X038433Y008441D01*
X038363Y008511D01*
X038363Y010494D01*
X038314Y010611D01*
X036363Y012563D01*
X036363Y016667D01*
X036401Y016759D01*
X036401Y016901D01*
X036364Y016990D01*
X038244Y016990D01*
X038403Y016831D01*
X038403Y015496D01*
X038339Y015433D01*
X038285Y015301D01*
X038285Y015159D01*
X038339Y015027D01*
X038440Y014926D01*
X038572Y014872D01*
X038714Y014872D01*
X038846Y014926D01*
X038947Y015027D01*
X039001Y015159D01*
X039001Y015301D01*
X038947Y015433D01*
X038883Y015496D01*
X038883Y016978D01*
X038846Y017066D01*
X038779Y017133D01*
X038583Y017329D01*
X038583Y018231D01*
X040129Y019777D01*
X040196Y019844D01*
X040233Y019932D01*
X040233Y021514D01*
X040297Y021577D01*
X040351Y021709D01*
X040351Y021851D01*
X040297Y021983D01*
X040196Y022084D01*
X040315Y021939D02*
X042320Y021939D01*
X042319Y021780D02*
X040351Y021780D01*
X040315Y021622D02*
X042319Y021622D01*
X042319Y021463D02*
X040233Y021463D01*
X040233Y021305D02*
X042318Y021305D01*
X042318Y021146D02*
X040233Y021146D01*
X040233Y020988D02*
X042317Y020988D01*
X042317Y020829D02*
X040233Y020829D01*
X040233Y020671D02*
X042317Y020671D01*
X042316Y020512D02*
X040233Y020512D01*
X040233Y020354D02*
X041682Y020354D01*
X041665Y020341D02*
X041601Y020276D01*
X041547Y020202D01*
X041505Y020121D01*
X041477Y020034D01*
X041463Y019946D01*
X041995Y019946D01*
X041995Y020478D01*
X041907Y020464D01*
X041820Y020436D01*
X041739Y020395D01*
X041665Y020341D01*
X041543Y020195D02*
X040233Y020195D01*
X040233Y020037D02*
X041478Y020037D01*
X041491Y019720D02*
X040072Y019720D01*
X040210Y019878D02*
X041995Y019878D01*
X041995Y019720D02*
X042091Y019720D01*
X042091Y019561D02*
X041995Y019561D01*
X041995Y019403D02*
X042091Y019403D01*
X042313Y019244D02*
X039596Y019244D01*
X039438Y019086D02*
X042313Y019086D01*
X042313Y018927D02*
X039279Y018927D01*
X039121Y018769D02*
X042312Y018769D01*
X042312Y018610D02*
X038962Y018610D01*
X038804Y018452D02*
X041538Y018452D01*
X041483Y018293D02*
X038645Y018293D01*
X038583Y018135D02*
X041483Y018135D01*
X041483Y017976D02*
X038583Y017976D01*
X038583Y017818D02*
X041483Y017818D01*
X041483Y017659D02*
X038583Y017659D01*
X038583Y017501D02*
X041483Y017501D01*
X042309Y017342D02*
X038583Y017342D01*
X038729Y017184D02*
X039790Y017184D01*
X039840Y017234D02*
X039739Y017133D01*
X039685Y017001D01*
X039685Y016859D01*
X039739Y016727D01*
X039803Y016664D01*
X039803Y014329D01*
X039744Y014270D01*
X038909Y014270D01*
X038846Y014334D01*
X038714Y014388D01*
X038572Y014388D01*
X038440Y014334D01*
X038339Y014233D01*
X038285Y014101D01*
X038285Y013959D01*
X038339Y013827D01*
X038440Y013726D01*
X038572Y013672D01*
X038714Y013672D01*
X038846Y013726D01*
X038909Y013790D01*
X039891Y013790D01*
X039979Y013827D01*
X040179Y014027D01*
X040246Y014094D01*
X040283Y014182D01*
X040283Y016664D01*
X040347Y016727D01*
X040401Y016859D01*
X040401Y017001D01*
X040347Y017133D01*
X040246Y017234D01*
X040114Y017288D01*
X039972Y017288D01*
X039840Y017234D01*
X039695Y017025D02*
X038863Y017025D01*
X038883Y016867D02*
X039685Y016867D01*
X039758Y016708D02*
X038883Y016708D01*
X038883Y016550D02*
X039803Y016550D01*
X039803Y016391D02*
X038883Y016391D01*
X038883Y016233D02*
X039803Y016233D01*
X039803Y016074D02*
X038883Y016074D01*
X038883Y015916D02*
X039803Y015916D01*
X039803Y015757D02*
X038883Y015757D01*
X038883Y015599D02*
X039803Y015599D01*
X039803Y015440D02*
X038939Y015440D01*
X039001Y015282D02*
X039803Y015282D01*
X039803Y015123D02*
X038986Y015123D01*
X038884Y014965D02*
X039803Y014965D01*
X039803Y014806D02*
X036363Y014806D01*
X036363Y014648D02*
X039803Y014648D01*
X039803Y014489D02*
X036363Y014489D01*
X036363Y014331D02*
X038437Y014331D01*
X038314Y014172D02*
X036363Y014172D01*
X036363Y014014D02*
X038285Y014014D01*
X038328Y013855D02*
X036363Y013855D01*
X036363Y013697D02*
X038512Y013697D01*
X038774Y013697D02*
X042301Y013697D01*
X042301Y013855D02*
X040007Y013855D01*
X040166Y014014D02*
X042301Y014014D01*
X042302Y014172D02*
X040279Y014172D01*
X040283Y014331D02*
X041921Y014331D01*
X041995Y014331D02*
X042091Y014331D01*
X042164Y014331D02*
X042302Y014331D01*
X042091Y014489D02*
X041995Y014489D01*
X041995Y014648D02*
X042091Y014648D01*
X042091Y014806D02*
X041995Y014806D01*
X041995Y014946D02*
X041463Y014946D01*
X041477Y015034D01*
X041505Y015121D01*
X041547Y015202D01*
X041601Y015276D01*
X041665Y015341D01*
X041739Y015395D01*
X041820Y015436D01*
X041907Y015464D01*
X041995Y015478D01*
X041995Y014946D01*
X041995Y014965D02*
X042091Y014965D01*
X042091Y015123D02*
X041995Y015123D01*
X041995Y015282D02*
X042091Y015282D01*
X042091Y015440D02*
X041995Y015440D01*
X041833Y015440D02*
X040283Y015440D01*
X040283Y015282D02*
X041606Y015282D01*
X041506Y015123D02*
X040283Y015123D01*
X040283Y014965D02*
X041466Y014965D01*
X041470Y014806D02*
X040283Y014806D01*
X040283Y014648D02*
X041520Y014648D01*
X041632Y014489D02*
X040283Y014489D01*
X040043Y014230D02*
X039843Y014030D01*
X038643Y014030D01*
X038849Y014331D02*
X039803Y014331D01*
X040043Y014230D02*
X040043Y016930D01*
X040296Y017184D02*
X042309Y017184D01*
X042308Y017025D02*
X040391Y017025D01*
X040401Y016867D02*
X042308Y016867D01*
X042308Y016708D02*
X040327Y016708D01*
X040283Y016550D02*
X042307Y016550D01*
X042307Y016391D02*
X040283Y016391D01*
X040283Y016233D02*
X042307Y016233D01*
X042306Y016074D02*
X040283Y016074D01*
X040283Y015916D02*
X042306Y015916D01*
X042305Y015757D02*
X040283Y015757D01*
X040283Y015599D02*
X042305Y015599D01*
X042305Y015440D02*
X042253Y015440D01*
X042300Y013538D02*
X036363Y013538D01*
X036363Y013380D02*
X041483Y013380D01*
X041483Y013221D02*
X036363Y013221D01*
X036363Y013063D02*
X041483Y013063D01*
X041483Y012904D02*
X036363Y012904D01*
X036363Y012746D02*
X041483Y012746D01*
X041483Y012587D02*
X036363Y012587D01*
X036497Y012429D02*
X041518Y012429D01*
X042297Y012270D02*
X036655Y012270D01*
X036814Y012112D02*
X042297Y012112D01*
X042297Y011953D02*
X036972Y011953D01*
X037131Y011795D02*
X042296Y011795D01*
X042296Y011636D02*
X037289Y011636D01*
X037448Y011478D02*
X042296Y011478D01*
X042295Y011319D02*
X037606Y011319D01*
X037765Y011161D02*
X042295Y011161D01*
X042295Y011002D02*
X037923Y011002D01*
X038082Y010844D02*
X042294Y010844D01*
X042294Y010685D02*
X038240Y010685D01*
X038349Y010527D02*
X042293Y010527D01*
X042293Y010368D02*
X038363Y010368D01*
X038363Y010210D02*
X042293Y010210D01*
X042292Y010051D02*
X038363Y010051D01*
X038363Y009893D02*
X042292Y009893D01*
X042292Y009734D02*
X038363Y009734D01*
X038363Y009576D02*
X042291Y009576D01*
X042291Y009417D02*
X038363Y009417D01*
X038363Y009259D02*
X042291Y009259D01*
X042290Y009100D02*
X038363Y009100D01*
X038363Y008942D02*
X042290Y008942D01*
X042289Y008783D02*
X038363Y008783D01*
X038363Y008625D02*
X038737Y008625D01*
X038782Y008670D02*
X038653Y008541D01*
X038583Y008371D01*
X038583Y007588D01*
X038653Y007419D01*
X038782Y007290D01*
X038951Y007220D01*
X039134Y007220D01*
X039303Y007290D01*
X039433Y007419D01*
X039503Y007588D01*
X039503Y008371D01*
X039433Y008541D01*
X039303Y008670D01*
X039134Y008740D01*
X038951Y008740D01*
X038782Y008670D01*
X038622Y008466D02*
X038407Y008466D01*
X038488Y008308D02*
X038583Y008308D01*
X038583Y008149D02*
X038503Y008149D01*
X038503Y007991D02*
X038583Y007991D01*
X038583Y007832D02*
X038503Y007832D01*
X038503Y007674D02*
X038583Y007674D01*
X038613Y007515D02*
X038503Y007515D01*
X038448Y007357D02*
X038716Y007357D01*
X038311Y007198D02*
X040774Y007198D01*
X040782Y007190D02*
X040951Y007120D01*
X041134Y007120D01*
X041303Y007190D01*
X041433Y007319D01*
X041503Y007488D01*
X041503Y008271D01*
X041433Y008441D01*
X041303Y008570D01*
X041134Y008640D01*
X040951Y008640D01*
X040782Y008570D01*
X040653Y008441D01*
X040583Y008271D01*
X040583Y007488D01*
X040653Y007319D01*
X040782Y007190D01*
X040638Y007357D02*
X040398Y007357D01*
X040409Y007367D02*
X040453Y007428D01*
X040488Y007496D01*
X040511Y007568D01*
X040523Y007642D01*
X040523Y007960D01*
X040063Y007960D01*
X040063Y008000D01*
X040523Y008000D01*
X040523Y008318D01*
X040511Y008392D01*
X040488Y008464D01*
X040453Y008532D01*
X040409Y008593D01*
X040356Y008646D01*
X040294Y008691D01*
X040227Y008725D01*
X040155Y008748D01*
X040081Y008760D01*
X040063Y008760D01*
X040063Y008000D01*
X040023Y008000D01*
X040023Y008760D01*
X040005Y008760D01*
X039931Y008748D01*
X039859Y008725D01*
X039791Y008691D01*
X039730Y008646D01*
X039677Y008593D01*
X039632Y008532D01*
X039598Y008464D01*
X039575Y008392D01*
X039563Y008318D01*
X039563Y008000D01*
X040023Y008000D01*
X040023Y007960D01*
X040063Y007960D01*
X040063Y007200D01*
X040081Y007200D01*
X040155Y007212D01*
X040227Y007235D01*
X040294Y007269D01*
X040356Y007314D01*
X040409Y007367D01*
X040494Y007515D02*
X040583Y007515D01*
X040583Y007674D02*
X040523Y007674D01*
X040523Y007832D02*
X040583Y007832D01*
X040583Y007991D02*
X040063Y007991D01*
X040023Y007991D02*
X039503Y007991D01*
X039563Y007960D02*
X039563Y007642D01*
X039575Y007568D01*
X039598Y007496D01*
X039632Y007428D01*
X039677Y007367D01*
X039730Y007314D01*
X039791Y007269D01*
X039859Y007235D01*
X039931Y007212D01*
X040005Y007200D01*
X040023Y007200D01*
X040023Y007960D01*
X039563Y007960D01*
X039563Y007832D02*
X039503Y007832D01*
X039503Y007674D02*
X039563Y007674D01*
X039592Y007515D02*
X039472Y007515D01*
X039370Y007357D02*
X039688Y007357D01*
X040023Y007357D02*
X040063Y007357D01*
X040063Y007515D02*
X040023Y007515D01*
X040023Y007674D02*
X040063Y007674D01*
X040063Y007832D02*
X040023Y007832D01*
X040023Y008149D02*
X040063Y008149D01*
X040063Y008308D02*
X040023Y008308D01*
X040023Y008466D02*
X040063Y008466D01*
X040063Y008625D02*
X040023Y008625D01*
X039709Y008625D02*
X039349Y008625D01*
X039464Y008466D02*
X039599Y008466D01*
X039563Y008308D02*
X039503Y008308D01*
X039503Y008149D02*
X039563Y008149D01*
X040377Y008625D02*
X040914Y008625D01*
X041172Y008625D02*
X041737Y008625D01*
X041622Y008466D02*
X041407Y008466D01*
X041488Y008308D02*
X041583Y008308D01*
X041583Y008149D02*
X041503Y008149D01*
X041503Y007991D02*
X041583Y007991D01*
X041583Y007832D02*
X041503Y007832D01*
X041503Y007674D02*
X041583Y007674D01*
X041613Y007515D02*
X041503Y007515D01*
X041448Y007357D02*
X041716Y007357D01*
X041311Y007198D02*
X042286Y007198D01*
X042286Y007040D02*
X025708Y007040D01*
X025743Y007198D02*
X026833Y007198D01*
X026859Y007185D02*
X026931Y007162D01*
X027005Y007150D01*
X027023Y007150D01*
X027023Y007910D01*
X027063Y007910D01*
X027063Y007950D01*
X027523Y007950D01*
X027523Y008268D01*
X027511Y008342D01*
X027488Y008414D01*
X027453Y008482D01*
X027409Y008543D01*
X027356Y008596D01*
X027294Y008641D01*
X027227Y008675D01*
X027155Y008698D01*
X027081Y008710D01*
X027063Y008710D01*
X027063Y007950D01*
X027023Y007950D01*
X027023Y008710D01*
X027005Y008710D01*
X026931Y008698D01*
X026859Y008675D01*
X026791Y008641D01*
X026730Y008596D01*
X026677Y008543D01*
X026632Y008482D01*
X026598Y008414D01*
X026575Y008342D01*
X026563Y008268D01*
X026563Y007950D01*
X027023Y007950D01*
X027023Y007910D01*
X026563Y007910D01*
X026563Y007592D01*
X026575Y007518D01*
X026598Y007446D01*
X026632Y007378D01*
X026677Y007317D01*
X026730Y007264D01*
X026791Y007219D01*
X026859Y007185D01*
X027023Y007198D02*
X027063Y007198D01*
X027063Y007150D02*
X027081Y007150D01*
X027155Y007162D01*
X027227Y007185D01*
X027294Y007219D01*
X027356Y007264D01*
X027409Y007317D01*
X027453Y007378D01*
X027488Y007446D01*
X027511Y007518D01*
X027523Y007592D01*
X027523Y007910D01*
X027063Y007910D01*
X027063Y007150D01*
X027252Y007198D02*
X027984Y007198D01*
X028051Y007170D02*
X028234Y007170D01*
X028403Y007240D01*
X028533Y007369D01*
X028583Y007491D01*
X028598Y007446D01*
X028632Y007378D01*
X028677Y007317D01*
X028730Y007264D01*
X028791Y007219D01*
X028859Y007185D01*
X028931Y007162D01*
X029005Y007150D01*
X029023Y007150D01*
X029023Y007910D01*
X029063Y007910D01*
X029063Y007950D01*
X029523Y007950D01*
X029523Y008268D01*
X029511Y008342D01*
X029488Y008414D01*
X029453Y008482D01*
X029409Y008543D01*
X029356Y008596D01*
X029294Y008641D01*
X029227Y008675D01*
X029155Y008698D01*
X029081Y008710D01*
X029063Y008710D01*
X029063Y007950D01*
X029023Y007950D01*
X029023Y008710D01*
X029005Y008710D01*
X028931Y008698D01*
X028859Y008675D01*
X028791Y008641D01*
X028730Y008596D01*
X028677Y008543D01*
X028632Y008482D01*
X028598Y008414D01*
X028583Y008369D01*
X028533Y008491D01*
X028403Y008620D01*
X028234Y008690D01*
X028051Y008690D01*
X027882Y008620D01*
X027753Y008491D01*
X027683Y008321D01*
X027683Y007538D01*
X027753Y007369D01*
X027882Y007240D01*
X028051Y007170D01*
X028302Y007198D02*
X028833Y007198D01*
X029023Y007198D02*
X029063Y007198D01*
X029063Y007150D02*
X029081Y007150D01*
X029155Y007162D01*
X029227Y007185D01*
X029294Y007219D01*
X029356Y007264D01*
X029409Y007317D01*
X029453Y007378D01*
X029488Y007446D01*
X029511Y007518D01*
X029523Y007592D01*
X029523Y007910D01*
X029063Y007910D01*
X029063Y007150D01*
X029252Y007198D02*
X029984Y007198D01*
X030051Y007170D02*
X029882Y007240D01*
X029753Y007369D01*
X029683Y007538D01*
X029683Y008321D01*
X029753Y008491D01*
X029882Y008620D01*
X030051Y008690D01*
X030234Y008690D01*
X030403Y008620D01*
X030533Y008491D01*
X030583Y008369D01*
X030598Y008414D01*
X030632Y008482D01*
X030677Y008543D01*
X030730Y008596D01*
X030791Y008641D01*
X030859Y008675D01*
X030931Y008698D01*
X031005Y008710D01*
X031023Y008710D01*
X031023Y007950D01*
X031063Y007950D01*
X031523Y007950D01*
X031523Y008268D01*
X031511Y008342D01*
X031488Y008414D01*
X031453Y008482D01*
X031409Y008543D01*
X031356Y008596D01*
X031294Y008641D01*
X031227Y008675D01*
X031155Y008698D01*
X031081Y008710D01*
X031063Y008710D01*
X031063Y007950D01*
X031063Y007910D01*
X031523Y007910D01*
X031523Y007592D01*
X031511Y007518D01*
X031488Y007446D01*
X031453Y007378D01*
X031409Y007317D01*
X031356Y007264D01*
X031294Y007219D01*
X031227Y007185D01*
X031155Y007162D01*
X031081Y007150D01*
X031063Y007150D01*
X031063Y007910D01*
X031023Y007910D01*
X031023Y007150D01*
X031005Y007150D01*
X030931Y007162D01*
X030859Y007185D01*
X030791Y007219D01*
X030730Y007264D01*
X030677Y007317D01*
X030632Y007378D01*
X030598Y007446D01*
X030583Y007491D01*
X030533Y007369D01*
X030403Y007240D01*
X030234Y007170D01*
X030051Y007170D01*
X030302Y007198D02*
X030833Y007198D01*
X031023Y007198D02*
X031063Y007198D01*
X031063Y007357D02*
X031023Y007357D01*
X031023Y007515D02*
X031063Y007515D01*
X031063Y007674D02*
X031023Y007674D01*
X031023Y007832D02*
X031063Y007832D01*
X031063Y007991D02*
X031023Y007991D01*
X031023Y008149D02*
X031063Y008149D01*
X031063Y008308D02*
X031023Y008308D01*
X031023Y008466D02*
X031063Y008466D01*
X031063Y008625D02*
X031023Y008625D01*
X030769Y008625D02*
X030393Y008625D01*
X030543Y008466D02*
X030624Y008466D01*
X031317Y008625D02*
X031893Y008625D01*
X031882Y008620D02*
X031753Y008491D01*
X031683Y008321D01*
X031683Y007538D01*
X031753Y007369D01*
X031882Y007240D01*
X032051Y007170D01*
X032234Y007170D01*
X032403Y007240D01*
X032533Y007369D01*
X032603Y007538D01*
X032603Y008321D01*
X032533Y008491D01*
X032403Y008620D01*
X032234Y008690D01*
X032051Y008690D01*
X031882Y008620D01*
X031743Y008466D02*
X031461Y008466D01*
X031517Y008308D02*
X031683Y008308D01*
X031683Y008149D02*
X031523Y008149D01*
X031523Y007991D02*
X031683Y007991D01*
X031683Y007832D02*
X031523Y007832D01*
X031523Y007674D02*
X031683Y007674D01*
X031693Y007515D02*
X031510Y007515D01*
X031438Y007357D02*
X031766Y007357D01*
X031984Y007198D02*
X031252Y007198D01*
X030648Y007357D02*
X030520Y007357D01*
X029766Y007357D02*
X029438Y007357D01*
X029510Y007515D02*
X029693Y007515D01*
X029683Y007674D02*
X029523Y007674D01*
X029523Y007832D02*
X029683Y007832D01*
X029683Y007991D02*
X029523Y007991D01*
X029523Y008149D02*
X029683Y008149D01*
X029683Y008308D02*
X029517Y008308D01*
X029461Y008466D02*
X029743Y008466D01*
X029893Y008625D02*
X029317Y008625D01*
X029063Y008625D02*
X029023Y008625D01*
X029023Y008466D02*
X029063Y008466D01*
X029063Y008308D02*
X029023Y008308D01*
X029023Y008149D02*
X029063Y008149D01*
X029063Y007991D02*
X029023Y007991D01*
X029023Y007832D02*
X029063Y007832D01*
X029063Y007674D02*
X029023Y007674D01*
X029023Y007515D02*
X029063Y007515D01*
X029063Y007357D02*
X029023Y007357D01*
X028648Y007357D02*
X028520Y007357D01*
X027766Y007357D02*
X027438Y007357D01*
X027510Y007515D02*
X027693Y007515D01*
X027683Y007674D02*
X027523Y007674D01*
X027523Y007832D02*
X027683Y007832D01*
X027683Y007991D02*
X027523Y007991D01*
X027523Y008149D02*
X027683Y008149D01*
X027683Y008308D02*
X027517Y008308D01*
X027461Y008466D02*
X027743Y008466D01*
X027893Y008625D02*
X027317Y008625D01*
X027063Y008625D02*
X027023Y008625D01*
X027023Y008466D02*
X027063Y008466D01*
X027063Y008308D02*
X027023Y008308D01*
X027023Y008149D02*
X027063Y008149D01*
X027063Y007991D02*
X027023Y007991D01*
X027023Y007832D02*
X027063Y007832D01*
X027063Y007674D02*
X027023Y007674D01*
X027023Y007515D02*
X027063Y007515D01*
X027063Y007357D02*
X027023Y007357D01*
X026648Y007357D02*
X025743Y007357D01*
X025724Y007515D02*
X026576Y007515D01*
X026563Y007674D02*
X025682Y007674D01*
X025600Y007832D02*
X026563Y007832D01*
X026563Y007991D02*
X025488Y007991D01*
X025318Y008149D02*
X026563Y008149D01*
X026569Y008308D02*
X024966Y008308D01*
X024825Y008783D02*
X024334Y008783D01*
X024492Y008942D02*
X024667Y008942D01*
X025306Y008783D02*
X025573Y008783D01*
X025560Y008625D02*
X023533Y008625D01*
X023533Y008783D02*
X023797Y008783D01*
X023638Y008942D02*
X023533Y008942D01*
X024057Y008942D02*
X024074Y008942D01*
X024057Y009100D02*
X024074Y009100D01*
X024057Y009259D02*
X024074Y009259D01*
X024057Y008783D02*
X024074Y008783D01*
X024458Y008308D02*
X023533Y008308D01*
X023533Y008466D02*
X025625Y008466D01*
X025843Y008730D02*
X025843Y012730D01*
X025344Y013229D01*
X025065Y013229D01*
X025506Y013538D02*
X035723Y013538D01*
X035723Y013380D02*
X025595Y013380D01*
X025691Y013221D02*
X035723Y013221D01*
X035723Y013063D02*
X025850Y013063D01*
X026008Y012904D02*
X035723Y012904D01*
X035723Y012746D02*
X026083Y012746D01*
X026083Y012587D02*
X035723Y012587D01*
X035723Y012429D02*
X026083Y012429D01*
X026083Y012270D02*
X035763Y012270D01*
X035909Y012112D02*
X026083Y012112D01*
X026083Y011953D02*
X036067Y011953D01*
X036226Y011795D02*
X026083Y011795D01*
X026083Y011636D02*
X036384Y011636D01*
X036543Y011478D02*
X026083Y011478D01*
X026083Y011319D02*
X036701Y011319D01*
X036860Y011161D02*
X026083Y011161D01*
X026083Y011002D02*
X026589Y011002D01*
X026589Y011043D02*
X026589Y010396D01*
X026683Y010302D01*
X027330Y010302D01*
X027424Y010396D01*
X027424Y011043D01*
X027330Y011137D01*
X026683Y011137D01*
X026589Y011043D01*
X026589Y010844D02*
X026083Y010844D01*
X026083Y010685D02*
X026589Y010685D01*
X026589Y010527D02*
X026083Y010527D01*
X026083Y010368D02*
X026616Y010368D01*
X027396Y010368D02*
X032894Y010368D01*
X032904Y010351D02*
X032938Y010318D01*
X032979Y010294D01*
X033024Y010282D01*
X033306Y010282D01*
X033587Y010282D01*
X033632Y010294D01*
X033674Y010318D01*
X033707Y010351D01*
X033731Y010392D01*
X033743Y010438D01*
X033743Y010719D01*
X033306Y010719D01*
X033306Y010719D01*
X033306Y010282D01*
X033306Y010719D01*
X033306Y010719D01*
X033743Y010719D01*
X033743Y011001D01*
X033731Y011046D01*
X033707Y011087D01*
X033674Y011121D01*
X033632Y011145D01*
X033587Y011157D01*
X033306Y011157D01*
X033306Y010719D01*
X033306Y010719D01*
X033305Y010719D02*
X032868Y010719D01*
X032868Y010438D01*
X032880Y010392D01*
X032904Y010351D01*
X032868Y010527D02*
X027424Y010527D01*
X027424Y010685D02*
X032868Y010685D01*
X032868Y010719D02*
X032868Y011001D01*
X032880Y011046D01*
X032904Y011087D01*
X032938Y011121D01*
X032979Y011145D01*
X033024Y011157D01*
X033306Y011157D01*
X033306Y010719D01*
X033305Y010719D02*
X033305Y010719D01*
X032868Y010719D01*
X032868Y010844D02*
X027424Y010844D01*
X027424Y011002D02*
X032868Y011002D01*
X033306Y011002D02*
X033306Y011002D01*
X033306Y010844D02*
X033306Y010844D01*
X033306Y010685D02*
X033306Y010685D01*
X033306Y010527D02*
X033306Y010527D01*
X033306Y010368D02*
X033306Y010368D01*
X033717Y010368D02*
X037652Y010368D01*
X037723Y010210D02*
X026083Y010210D01*
X026083Y010051D02*
X037723Y010051D01*
X037723Y009893D02*
X026083Y009893D01*
X026083Y009734D02*
X037723Y009734D01*
X037723Y009576D02*
X026083Y009576D01*
X026083Y009417D02*
X037723Y009417D01*
X037723Y009259D02*
X026083Y009259D01*
X026083Y009100D02*
X037723Y009100D01*
X037723Y008942D02*
X026163Y008942D01*
X026263Y008783D02*
X037723Y008783D01*
X037723Y008625D02*
X037377Y008625D01*
X037356Y008646D02*
X037294Y008691D01*
X037227Y008725D01*
X037155Y008748D01*
X037081Y008760D01*
X037063Y008760D01*
X037063Y008000D01*
X037523Y008000D01*
X037523Y008318D01*
X037511Y008392D01*
X037488Y008464D01*
X037453Y008532D01*
X037409Y008593D01*
X037356Y008646D01*
X037487Y008466D02*
X037678Y008466D01*
X037598Y008308D02*
X037523Y008308D01*
X037523Y008149D02*
X037583Y008149D01*
X037583Y007991D02*
X037063Y007991D01*
X037063Y008000D02*
X037063Y007960D01*
X037523Y007960D01*
X037523Y007642D01*
X037511Y007568D01*
X037488Y007496D01*
X037453Y007428D01*
X037409Y007367D01*
X037356Y007314D01*
X037294Y007269D01*
X037227Y007235D01*
X037155Y007212D01*
X037081Y007200D01*
X037063Y007200D01*
X037063Y007960D01*
X037023Y007960D01*
X037023Y007200D01*
X037005Y007200D01*
X036931Y007212D01*
X036859Y007235D01*
X036791Y007269D01*
X036730Y007314D01*
X036677Y007367D01*
X036632Y007428D01*
X036598Y007496D01*
X036575Y007568D01*
X036563Y007642D01*
X036563Y007960D01*
X037023Y007960D01*
X037023Y008000D01*
X037023Y008760D01*
X037005Y008760D01*
X036931Y008748D01*
X036859Y008725D01*
X036791Y008691D01*
X036730Y008646D01*
X036677Y008593D01*
X036632Y008532D01*
X036598Y008464D01*
X036575Y008392D01*
X036563Y008318D01*
X036563Y008000D01*
X037023Y008000D01*
X037063Y008000D01*
X037023Y007991D02*
X036503Y007991D01*
X036503Y008149D02*
X036563Y008149D01*
X036563Y008308D02*
X036503Y008308D01*
X036503Y008371D02*
X036433Y008541D01*
X036303Y008670D01*
X036134Y008740D01*
X035951Y008740D01*
X035782Y008670D01*
X035653Y008541D01*
X035583Y008371D01*
X035583Y007588D01*
X035653Y007419D01*
X035782Y007290D01*
X035951Y007220D01*
X036134Y007220D01*
X036303Y007290D01*
X036433Y007419D01*
X036503Y007588D01*
X036503Y008371D01*
X036464Y008466D02*
X036599Y008466D01*
X036709Y008625D02*
X036349Y008625D01*
X035737Y008625D02*
X035172Y008625D01*
X035134Y008640D02*
X034951Y008640D01*
X034782Y008570D01*
X034653Y008441D01*
X034583Y008271D01*
X034583Y007488D01*
X034653Y007319D01*
X034782Y007190D01*
X034951Y007120D01*
X035134Y007120D01*
X035303Y007190D01*
X035433Y007319D01*
X035503Y007488D01*
X035503Y008271D01*
X035433Y008441D01*
X035303Y008570D01*
X035134Y008640D01*
X034914Y008625D02*
X034377Y008625D01*
X034356Y008646D02*
X034294Y008691D01*
X034227Y008725D01*
X034155Y008748D01*
X034081Y008760D01*
X034063Y008760D01*
X034063Y008000D01*
X034523Y008000D01*
X034523Y008318D01*
X034511Y008392D01*
X034488Y008464D01*
X034453Y008532D01*
X034409Y008593D01*
X034356Y008646D01*
X034487Y008466D02*
X034678Y008466D01*
X034598Y008308D02*
X034523Y008308D01*
X034523Y008149D02*
X034583Y008149D01*
X034583Y007991D02*
X034063Y007991D01*
X034063Y008000D02*
X034063Y007960D01*
X034523Y007960D01*
X034523Y007642D01*
X034511Y007568D01*
X034488Y007496D01*
X034453Y007428D01*
X034409Y007367D01*
X034356Y007314D01*
X034294Y007269D01*
X034227Y007235D01*
X034155Y007212D01*
X034081Y007200D01*
X034063Y007200D01*
X034063Y007960D01*
X034023Y007960D01*
X034023Y007200D01*
X034005Y007200D01*
X033931Y007212D01*
X033859Y007235D01*
X033791Y007269D01*
X033730Y007314D01*
X033677Y007367D01*
X033632Y007428D01*
X033598Y007496D01*
X033575Y007568D01*
X033563Y007642D01*
X033563Y007960D01*
X034023Y007960D01*
X034023Y008000D01*
X034023Y008760D01*
X034005Y008760D01*
X033931Y008748D01*
X033859Y008725D01*
X033791Y008691D01*
X033730Y008646D01*
X033677Y008593D01*
X033632Y008532D01*
X033598Y008464D01*
X033575Y008392D01*
X033563Y008318D01*
X033563Y008000D01*
X034023Y008000D01*
X034063Y008000D01*
X034023Y007991D02*
X032603Y007991D01*
X032603Y008149D02*
X033563Y008149D01*
X033563Y008308D02*
X032603Y008308D01*
X032543Y008466D02*
X033599Y008466D01*
X033709Y008625D02*
X032393Y008625D01*
X032603Y007832D02*
X033563Y007832D01*
X033563Y007674D02*
X032603Y007674D01*
X032593Y007515D02*
X033592Y007515D01*
X033688Y007357D02*
X032520Y007357D01*
X032302Y007198D02*
X034774Y007198D01*
X034638Y007357D02*
X034398Y007357D01*
X034494Y007515D02*
X034583Y007515D01*
X034583Y007674D02*
X034523Y007674D01*
X034523Y007832D02*
X034583Y007832D01*
X034063Y007832D02*
X034023Y007832D01*
X034023Y007674D02*
X034063Y007674D01*
X034063Y007515D02*
X034023Y007515D01*
X034023Y007357D02*
X034063Y007357D01*
X034063Y008149D02*
X034023Y008149D01*
X034023Y008308D02*
X034063Y008308D01*
X034063Y008466D02*
X034023Y008466D01*
X034023Y008625D02*
X034063Y008625D01*
X035407Y008466D02*
X035622Y008466D01*
X035583Y008308D02*
X035488Y008308D01*
X035503Y008149D02*
X035583Y008149D01*
X035583Y007991D02*
X035503Y007991D01*
X035503Y007832D02*
X035583Y007832D01*
X035583Y007674D02*
X035503Y007674D01*
X035503Y007515D02*
X035613Y007515D01*
X035716Y007357D02*
X035448Y007357D01*
X035311Y007198D02*
X037774Y007198D01*
X037638Y007357D02*
X037398Y007357D01*
X037494Y007515D02*
X037583Y007515D01*
X037583Y007674D02*
X037523Y007674D01*
X037523Y007832D02*
X037583Y007832D01*
X037063Y007832D02*
X037023Y007832D01*
X037023Y007674D02*
X037063Y007674D01*
X037063Y007515D02*
X037023Y007515D01*
X037023Y007357D02*
X037063Y007357D01*
X036688Y007357D02*
X036370Y007357D01*
X036472Y007515D02*
X036592Y007515D01*
X036563Y007674D02*
X036503Y007674D01*
X036503Y007832D02*
X036563Y007832D01*
X037023Y008149D02*
X037063Y008149D01*
X037063Y008308D02*
X037023Y008308D01*
X037023Y008466D02*
X037063Y008466D01*
X037063Y008625D02*
X037023Y008625D01*
X037494Y010527D02*
X033743Y010527D01*
X033743Y010685D02*
X037335Y010685D01*
X037177Y010844D02*
X033743Y010844D01*
X033743Y011002D02*
X037018Y011002D01*
X035723Y013697D02*
X025348Y013697D01*
X025369Y013855D02*
X035723Y013855D01*
X035723Y014014D02*
X025515Y014014D01*
X025515Y014172D02*
X035723Y014172D01*
X035723Y014331D02*
X025515Y014331D01*
X025483Y014489D02*
X035723Y014489D01*
X035723Y014648D02*
X025325Y014648D01*
X025423Y014806D02*
X035723Y014806D01*
X035723Y014965D02*
X031984Y014965D01*
X032051Y015123D02*
X035723Y015123D01*
X035723Y015282D02*
X032038Y015282D01*
X031939Y015440D02*
X035723Y015440D01*
X035723Y015599D02*
X035418Y015599D01*
X035500Y015757D02*
X035723Y015757D01*
X035723Y015916D02*
X035495Y015916D01*
X035405Y016074D02*
X035723Y016074D01*
X035723Y016233D02*
X035383Y016233D01*
X035383Y016391D02*
X035723Y016391D01*
X035723Y016550D02*
X035383Y016550D01*
X035383Y016708D02*
X035706Y016708D01*
X035685Y016867D02*
X035383Y016867D01*
X035543Y017230D02*
X038343Y017230D01*
X038343Y018330D01*
X039993Y019980D01*
X039993Y021780D01*
X039635Y021780D02*
X036783Y021780D01*
X036783Y021622D02*
X039671Y021622D01*
X039753Y021463D02*
X036783Y021463D01*
X036783Y021305D02*
X039753Y021305D01*
X039753Y021146D02*
X036783Y021146D01*
X036775Y020988D02*
X039753Y020988D01*
X039753Y020829D02*
X036656Y020829D01*
X036498Y020671D02*
X039753Y020671D01*
X039753Y020512D02*
X036339Y020512D01*
X036181Y020354D02*
X039753Y020354D01*
X039753Y020195D02*
X036022Y020195D01*
X035793Y020305D02*
X034543Y020305D01*
X033668Y019430D01*
X033668Y018680D01*
X033927Y018927D02*
X038601Y018927D01*
X038759Y019086D02*
X033908Y019086D01*
X033908Y019244D02*
X038918Y019244D01*
X039076Y019403D02*
X033980Y019403D01*
X034138Y019561D02*
X039235Y019561D01*
X039393Y019720D02*
X034297Y019720D01*
X034455Y019878D02*
X039552Y019878D01*
X039710Y020037D02*
X034614Y020037D01*
X034964Y020671D02*
X035819Y020671D01*
X035978Y020829D02*
X035001Y020829D01*
X034965Y020988D02*
X036136Y020988D01*
X036295Y021146D02*
X034865Y021146D01*
X034979Y021305D02*
X036303Y021305D01*
X036303Y021463D02*
X035001Y021463D01*
X034951Y021622D02*
X036303Y021622D01*
X036303Y021780D02*
X034734Y021780D01*
X034552Y021780D02*
X033026Y021780D01*
X033000Y021939D02*
X036303Y021939D01*
X036303Y022097D02*
X032882Y022097D01*
X032657Y022256D02*
X036303Y022256D01*
X036303Y022414D02*
X032658Y022414D01*
X032658Y022573D02*
X036303Y022573D01*
X036303Y022731D02*
X032658Y022731D01*
X032658Y022890D02*
X036303Y022890D01*
X036303Y023048D02*
X032658Y023048D01*
X032658Y023207D02*
X036303Y023207D01*
X036303Y023365D02*
X032658Y023365D01*
X032658Y023524D02*
X036303Y023524D01*
X036303Y023682D02*
X032676Y023682D01*
X032768Y023841D02*
X036303Y023841D01*
X036303Y023999D02*
X032776Y023999D01*
X032697Y024158D02*
X036303Y024158D01*
X036303Y024316D02*
X032283Y024316D01*
X032283Y024475D02*
X032966Y024475D01*
X032979Y024467D02*
X033024Y024455D01*
X033306Y024455D01*
X033587Y024455D01*
X033632Y024467D01*
X033674Y024491D01*
X033707Y024525D01*
X033731Y024566D01*
X033743Y024611D01*
X033743Y024893D01*
X033743Y025174D01*
X033731Y025220D01*
X033707Y025261D01*
X033674Y025294D01*
X033632Y025318D01*
X033587Y025330D01*
X033306Y025330D01*
X033306Y024893D01*
X033743Y024893D01*
X033306Y024893D01*
X033306Y024893D01*
X033306Y024893D01*
X033306Y025330D01*
X033024Y025330D01*
X032979Y025318D01*
X032938Y025294D01*
X032904Y025261D01*
X032880Y025220D01*
X032868Y025174D01*
X032868Y024893D01*
X033305Y024893D01*
X033305Y024893D01*
X032868Y024893D01*
X032868Y024611D01*
X032880Y024566D01*
X032904Y024525D01*
X032938Y024491D01*
X032979Y024467D01*
X032868Y024633D02*
X032283Y024633D01*
X032286Y024792D02*
X032868Y024792D01*
X032868Y024950D02*
X032387Y024950D01*
X032401Y025109D02*
X032868Y025109D01*
X032910Y025267D02*
X032337Y025267D01*
X032043Y025055D02*
X032043Y022680D01*
X031793Y022305D01*
X031418Y022305D02*
X031418Y021930D01*
X031418Y022305D02*
X030168Y022305D01*
X029168Y023305D01*
X029168Y025555D01*
X029502Y025426D02*
X036303Y025426D01*
X036303Y025584D02*
X029526Y025584D01*
X029478Y025743D02*
X036303Y025743D01*
X036303Y025901D02*
X029268Y025901D01*
X029068Y025901D02*
X027819Y025901D01*
X027753Y025743D02*
X028858Y025743D01*
X028810Y025584D02*
X027686Y025584D01*
X027620Y025426D02*
X028834Y025426D01*
X028928Y025267D02*
X027553Y025267D01*
X027487Y025109D02*
X028928Y025109D01*
X028928Y024950D02*
X027424Y024950D01*
X027424Y024792D02*
X028928Y024792D01*
X028928Y024633D02*
X027424Y024633D01*
X027130Y024316D02*
X028928Y024316D01*
X028928Y024158D02*
X027359Y024158D01*
X027589Y023999D02*
X028928Y023999D01*
X028928Y023841D02*
X027818Y023841D01*
X028048Y023682D02*
X028928Y023682D01*
X028928Y023524D02*
X028277Y023524D01*
X028507Y023365D02*
X028928Y023365D01*
X028949Y023207D02*
X028736Y023207D01*
X028965Y023048D02*
X029085Y023048D01*
X029195Y022890D02*
X029244Y022890D01*
X029293Y022530D02*
X029293Y021930D01*
X029543Y021680D01*
X029543Y020180D01*
X030793Y020180D01*
X030793Y016930D01*
X031293Y016430D01*
X033443Y016430D01*
X033781Y016550D02*
X034002Y016550D01*
X034097Y016391D02*
X033801Y016391D01*
X033749Y016233D02*
X033998Y016233D01*
X033985Y016074D02*
X033519Y016074D01*
X033367Y016074D02*
X031888Y016074D01*
X031933Y015916D02*
X034051Y015916D01*
X034343Y016130D02*
X034343Y016580D01*
X033918Y016930D01*
X032143Y016955D01*
X032143Y021305D01*
X033243Y021305D01*
X033601Y021305D02*
X034077Y021305D01*
X034285Y021463D02*
X033565Y021463D01*
X033415Y021622D02*
X034335Y021622D01*
X034643Y021430D02*
X032618Y019905D01*
X032618Y017830D01*
X032758Y017501D02*
X034903Y017501D01*
X034903Y017342D02*
X032383Y017342D01*
X032383Y017501D02*
X032478Y017501D01*
X032935Y017659D02*
X034937Y017659D01*
X035085Y017818D02*
X032976Y017818D01*
X033093Y018205D02*
X033093Y019780D01*
X034643Y020830D01*
X033867Y021146D02*
X033565Y021146D01*
X033656Y020988D02*
X033412Y020988D01*
X033446Y020829D02*
X032383Y020829D01*
X032383Y020671D02*
X033235Y020671D01*
X033025Y020512D02*
X032383Y020512D01*
X032383Y020354D02*
X032815Y020354D01*
X032604Y020195D02*
X032383Y020195D01*
X032383Y020037D02*
X032413Y020037D01*
X031903Y020037D02*
X031033Y020037D01*
X031033Y020195D02*
X031903Y020195D01*
X031903Y020354D02*
X030959Y020354D01*
X030929Y020383D02*
X030841Y020420D01*
X029783Y020420D01*
X029783Y021473D01*
X029847Y021447D01*
X029989Y021447D01*
X030121Y021501D01*
X030126Y021507D01*
X030214Y021419D01*
X030282Y021352D01*
X030370Y021315D01*
X031903Y021315D01*
X031903Y016957D01*
X031902Y016911D01*
X031903Y016909D01*
X031903Y016907D01*
X031921Y016865D01*
X031938Y016822D01*
X031939Y016821D01*
X031939Y016819D01*
X031972Y016787D01*
X032004Y016753D01*
X032006Y016753D01*
X032007Y016752D01*
X032049Y016734D01*
X032092Y016716D01*
X032094Y016716D01*
X032095Y016715D01*
X032141Y016715D01*
X033206Y016700D01*
X033176Y016670D01*
X031392Y016670D01*
X031033Y017029D01*
X031033Y020228D01*
X030996Y020316D01*
X030929Y020383D01*
X031033Y019878D02*
X031903Y019878D01*
X031903Y019720D02*
X031033Y019720D01*
X031033Y019561D02*
X031903Y019561D01*
X031903Y019403D02*
X031033Y019403D01*
X031033Y019244D02*
X031903Y019244D01*
X031903Y019086D02*
X031033Y019086D01*
X031033Y018927D02*
X031903Y018927D01*
X031903Y018769D02*
X031033Y018769D01*
X031033Y018610D02*
X031903Y018610D01*
X031903Y018452D02*
X031033Y018452D01*
X031033Y018293D02*
X031903Y018293D01*
X031903Y018135D02*
X031033Y018135D01*
X031033Y017976D02*
X031903Y017976D01*
X031903Y017818D02*
X031033Y017818D01*
X031033Y017659D02*
X031903Y017659D01*
X031903Y017501D02*
X031033Y017501D01*
X031033Y017342D02*
X031903Y017342D01*
X031903Y017184D02*
X031033Y017184D01*
X031037Y017025D02*
X031903Y017025D01*
X031920Y016867D02*
X031196Y016867D01*
X031354Y016708D02*
X032637Y016708D01*
X032960Y017184D02*
X034903Y017184D01*
X034903Y017025D02*
X034180Y017025D01*
X034373Y016867D02*
X034903Y016867D01*
X034903Y016708D02*
X034550Y016708D01*
X034585Y016550D02*
X034903Y016550D01*
X034903Y016391D02*
X034588Y016391D01*
X034688Y016233D02*
X034903Y016233D01*
X034880Y016074D02*
X034701Y016074D01*
X034635Y015916D02*
X034791Y015916D01*
X034786Y015757D02*
X031933Y015757D01*
X031933Y015599D02*
X034868Y015599D01*
X035143Y015830D02*
X035143Y017530D01*
X035443Y017830D01*
X035770Y017976D02*
X038103Y017976D01*
X038103Y017818D02*
X035801Y017818D01*
X035760Y017659D02*
X038103Y017659D01*
X038103Y017501D02*
X035779Y017501D01*
X035644Y018135D02*
X038103Y018135D01*
X038103Y018293D02*
X033444Y018293D01*
X033451Y018135D02*
X035242Y018135D01*
X035116Y017976D02*
X033370Y017976D01*
X033353Y018452D02*
X033390Y018452D01*
X033946Y018452D02*
X038133Y018452D01*
X038284Y018610D02*
X034026Y018610D01*
X034019Y018769D02*
X038442Y018769D01*
X039755Y019403D02*
X041739Y019403D01*
X041571Y019561D02*
X039913Y019561D01*
X041995Y020037D02*
X042091Y020037D01*
X042091Y020195D02*
X041995Y020195D01*
X041995Y020354D02*
X042091Y020354D01*
X039822Y022097D02*
X036783Y022097D01*
X036783Y021939D02*
X039671Y021939D01*
X041647Y024475D02*
X036783Y024475D01*
X036783Y024633D02*
X041527Y024633D01*
X041473Y024792D02*
X036783Y024792D01*
X036783Y024950D02*
X041464Y024950D01*
X041501Y025109D02*
X036783Y025109D01*
X036783Y025267D02*
X041594Y025267D01*
X042286Y025426D02*
X042328Y025426D01*
X042308Y027169D02*
X042332Y027169D01*
X041336Y027328D02*
X036783Y027328D01*
X036783Y027486D02*
X041250Y027486D01*
X041165Y027645D02*
X036783Y027645D01*
X036880Y027803D02*
X041079Y027803D01*
X040993Y027962D02*
X038081Y027962D01*
X038151Y028120D02*
X040908Y028120D01*
X040822Y028279D02*
X038140Y028279D01*
X038042Y028437D02*
X040724Y028437D01*
X040625Y028596D02*
X028948Y028596D01*
X028882Y028437D02*
X037544Y028437D01*
X037793Y028180D02*
X036918Y028180D01*
X036543Y027805D01*
X036543Y021055D01*
X035793Y020305D01*
X033074Y020988D02*
X032383Y020988D01*
X031903Y020988D02*
X029783Y020988D01*
X029783Y021146D02*
X031903Y021146D01*
X031903Y021305D02*
X029783Y021305D01*
X029783Y021463D02*
X029808Y021463D01*
X030028Y021463D02*
X030170Y021463D01*
X030418Y021555D02*
X032418Y021555D01*
X032668Y021805D01*
X032980Y021622D02*
X033071Y021622D01*
X032418Y022305D02*
X032293Y022180D01*
X032418Y022305D02*
X032418Y023930D01*
X031803Y024316D02*
X031776Y024316D01*
X031803Y024475D02*
X029408Y024475D01*
X029408Y024633D02*
X031803Y024633D01*
X031800Y024792D02*
X029408Y024792D01*
X029408Y024950D02*
X031699Y024950D01*
X031685Y025109D02*
X029408Y025109D01*
X029408Y025267D02*
X031749Y025267D01*
X033306Y025267D02*
X033306Y025267D01*
X033306Y025109D02*
X033306Y025109D01*
X033306Y024950D02*
X033306Y024950D01*
X033306Y024893D02*
X033306Y024455D01*
X033306Y024893D01*
X033306Y024893D01*
X033306Y024792D02*
X033306Y024792D01*
X033306Y024633D02*
X033306Y024633D01*
X033306Y024475D02*
X033306Y024475D01*
X033645Y024475D02*
X036303Y024475D01*
X036303Y024633D02*
X033743Y024633D01*
X033743Y024792D02*
X036303Y024792D01*
X036303Y024950D02*
X033743Y024950D01*
X033743Y025109D02*
X036303Y025109D01*
X036303Y025267D02*
X033701Y025267D01*
X036303Y026060D02*
X027885Y026060D01*
X027952Y026218D02*
X036303Y026218D01*
X036303Y026377D02*
X028018Y026377D01*
X028085Y026535D02*
X036303Y026535D01*
X036303Y026694D02*
X028151Y026694D01*
X028218Y026852D02*
X036303Y026852D01*
X036303Y027011D02*
X028284Y027011D01*
X028350Y027169D02*
X036303Y027169D01*
X036303Y027328D02*
X028417Y027328D01*
X028483Y027486D02*
X036303Y027486D01*
X036303Y027645D02*
X028550Y027645D01*
X028616Y027803D02*
X036303Y027803D01*
X036360Y027962D02*
X028682Y027962D01*
X028749Y028120D02*
X036519Y028120D01*
X036677Y028279D02*
X028815Y028279D01*
X028515Y029285D02*
X028515Y029285D01*
X026543Y029930D02*
X026543Y024430D01*
X029293Y022530D01*
X029039Y022414D02*
X026503Y022414D01*
X026503Y022573D02*
X026645Y022573D01*
X027441Y022573D02*
X028809Y022573D01*
X028580Y022731D02*
X027694Y022731D01*
X027783Y022890D02*
X028350Y022890D01*
X028121Y023048D02*
X027803Y023048D01*
X027768Y023207D02*
X027892Y023207D01*
X027662Y023365D02*
X027658Y023365D01*
X027668Y022256D02*
X029053Y022256D01*
X029053Y022097D02*
X027772Y022097D01*
X027803Y021939D02*
X029053Y021939D01*
X029103Y021780D02*
X027779Y021780D01*
X027685Y021622D02*
X029262Y021622D01*
X029303Y021463D02*
X026503Y021463D01*
X026503Y021305D02*
X029303Y021305D01*
X029303Y021146D02*
X026503Y021146D01*
X026503Y020988D02*
X029303Y020988D01*
X029303Y020829D02*
X026503Y020829D01*
X026503Y020671D02*
X029303Y020671D01*
X029303Y020512D02*
X026503Y020512D01*
X026503Y020354D02*
X029303Y020354D01*
X029303Y020195D02*
X026503Y020195D01*
X026503Y020037D02*
X029347Y020037D01*
X029783Y020512D02*
X031903Y020512D01*
X031903Y020671D02*
X029783Y020671D01*
X029783Y020829D02*
X031903Y020829D01*
X030553Y019878D02*
X026503Y019878D01*
X026503Y019720D02*
X030553Y019720D01*
X030553Y019561D02*
X026503Y019561D01*
X026503Y019403D02*
X030553Y019403D01*
X030553Y019244D02*
X026503Y019244D01*
X026503Y019086D02*
X030553Y019086D01*
X030553Y018927D02*
X026503Y018927D01*
X026503Y018769D02*
X030553Y018769D01*
X030553Y018610D02*
X026503Y018610D01*
X026503Y018452D02*
X029966Y018452D01*
X029830Y018293D02*
X026503Y018293D01*
X026503Y018135D02*
X029797Y018135D01*
X029837Y017976D02*
X026503Y017976D01*
X026503Y017818D02*
X030005Y017818D01*
X030174Y017659D02*
X026462Y017659D01*
X026288Y017501D02*
X030303Y017501D01*
X030303Y017342D02*
X025595Y017342D01*
X025595Y017184D02*
X030303Y017184D01*
X030303Y017025D02*
X025595Y017025D01*
X025515Y016867D02*
X030303Y016867D01*
X030303Y016708D02*
X025357Y016708D01*
X025363Y016550D02*
X026934Y016550D01*
X026959Y016560D02*
X026805Y016496D01*
X026687Y016378D01*
X026623Y016224D01*
X026623Y015536D01*
X026687Y015382D01*
X026805Y015264D01*
X026959Y015200D01*
X027126Y015200D01*
X027281Y015264D01*
X027399Y015382D01*
X027463Y015536D01*
X027463Y016224D01*
X027399Y016378D01*
X027281Y016496D01*
X027126Y016560D01*
X026959Y016560D01*
X027152Y016550D02*
X027934Y016550D01*
X027959Y016560D02*
X027805Y016496D01*
X027687Y016378D01*
X027623Y016224D01*
X027623Y015536D01*
X027687Y015382D01*
X027805Y015264D01*
X027959Y015200D01*
X028126Y015200D01*
X028281Y015264D01*
X028399Y015382D01*
X028463Y015536D01*
X028463Y016224D01*
X028399Y016378D01*
X028281Y016496D01*
X028126Y016560D01*
X027959Y016560D01*
X028152Y016550D02*
X030303Y016550D01*
X030303Y016391D02*
X028386Y016391D01*
X028459Y016233D02*
X030303Y016233D01*
X030303Y016074D02*
X028463Y016074D01*
X028463Y015916D02*
X030303Y015916D01*
X030376Y015757D02*
X028463Y015757D01*
X028463Y015599D02*
X031453Y015599D01*
X031446Y015440D02*
X028423Y015440D01*
X028298Y015282D02*
X031347Y015282D01*
X031335Y015123D02*
X025595Y015123D01*
X025595Y015282D02*
X026787Y015282D01*
X026663Y015440D02*
X025573Y015440D01*
X025414Y015599D02*
X026623Y015599D01*
X026623Y015757D02*
X025274Y015757D01*
X025433Y015916D02*
X026623Y015916D01*
X026623Y016074D02*
X025495Y016074D01*
X025495Y016233D02*
X026627Y016233D01*
X026700Y016391D02*
X025495Y016391D01*
X025481Y017501D02*
X025998Y017501D01*
X025824Y017659D02*
X025322Y017659D01*
X025366Y017818D02*
X025783Y017818D01*
X025783Y017976D02*
X025495Y017976D01*
X025495Y018135D02*
X025783Y018135D01*
X025783Y018293D02*
X025495Y018293D01*
X025430Y018452D02*
X025783Y018452D01*
X025783Y018610D02*
X025318Y018610D01*
X025477Y018769D02*
X025783Y018769D01*
X025783Y018927D02*
X025615Y018927D01*
X025615Y019086D02*
X025783Y019086D01*
X025783Y019244D02*
X025615Y019244D01*
X025575Y019403D02*
X025783Y019403D01*
X025783Y019561D02*
X025417Y019561D01*
X025300Y019720D02*
X025783Y019720D01*
X025783Y019878D02*
X025458Y019878D01*
X025495Y020037D02*
X025783Y020037D01*
X025783Y020195D02*
X025495Y020195D01*
X025495Y020354D02*
X025783Y020354D01*
X025783Y020512D02*
X025338Y020512D01*
X025382Y020671D02*
X025783Y020671D01*
X025783Y020829D02*
X025541Y020829D01*
X025595Y020988D02*
X025783Y020988D01*
X025783Y021146D02*
X025595Y021146D01*
X025595Y021305D02*
X025783Y021305D01*
X025783Y021463D02*
X025455Y021463D01*
X025297Y021622D02*
X025783Y021622D01*
X025783Y021780D02*
X025420Y021780D01*
X025515Y021939D02*
X025783Y021939D01*
X025783Y022097D02*
X024974Y022097D01*
X025432Y022414D02*
X025783Y022414D01*
X025783Y022256D02*
X025515Y022256D01*
X025316Y022573D02*
X025783Y022573D01*
X025783Y022731D02*
X025474Y022731D01*
X025595Y022890D02*
X025783Y022890D01*
X025783Y023048D02*
X025595Y023048D01*
X025595Y023207D02*
X025783Y023207D01*
X025783Y023365D02*
X025522Y023365D01*
X025363Y023524D02*
X025783Y023524D01*
X025783Y023682D02*
X025325Y023682D01*
X025484Y023841D02*
X025783Y023841D01*
X025783Y023999D02*
X025495Y023999D01*
X025495Y024158D02*
X025783Y024158D01*
X025789Y024316D02*
X025471Y024316D01*
X025312Y024475D02*
X025878Y024475D01*
X025566Y024792D02*
X026303Y024792D01*
X026303Y024950D02*
X025595Y024950D01*
X025595Y025109D02*
X026303Y025109D01*
X026303Y025267D02*
X025588Y025267D01*
X025430Y025426D02*
X026303Y025426D01*
X026303Y025584D02*
X025259Y025584D01*
X025417Y025743D02*
X026303Y025743D01*
X026303Y025901D02*
X025495Y025901D01*
X025512Y026060D02*
X026303Y026060D01*
X026303Y026218D02*
X025670Y026218D01*
X025829Y026377D02*
X026303Y026377D01*
X026303Y026535D02*
X025987Y026535D01*
X026146Y026694D02*
X026303Y026694D01*
X026293Y027180D02*
X026293Y029930D01*
X026168Y030430D01*
X025418Y031430D01*
X020993Y031430D01*
X020993Y029930D01*
X016543Y029930D01*
X015043Y031430D01*
X013543Y031430D01*
X013543Y032430D01*
X013901Y032440D02*
X014246Y032440D01*
X014533Y032727D01*
X014533Y033133D01*
X014246Y033420D01*
X013840Y033420D01*
X013553Y033133D01*
X013553Y032788D01*
X013472Y032788D01*
X013340Y032734D01*
X013323Y032716D01*
X013323Y033486D01*
X013280Y033589D01*
X012780Y034089D01*
X012702Y034167D01*
X012599Y034210D01*
X010329Y034210D01*
X010347Y034227D01*
X010401Y034359D01*
X010401Y034501D01*
X010347Y034633D01*
X010289Y034690D01*
X023053Y034690D01*
X023053Y031670D01*
X020945Y031670D01*
X020857Y031633D01*
X020789Y031566D01*
X020753Y031478D01*
X020753Y030170D01*
X016642Y030170D01*
X015246Y031566D01*
X015179Y031633D01*
X015091Y031670D01*
X013783Y031670D01*
X013783Y032164D01*
X013847Y032227D01*
X013901Y032359D01*
X013901Y032440D01*
X013901Y032400D02*
X018506Y032400D01*
X018489Y032383D02*
X018435Y032251D01*
X018435Y032109D01*
X018489Y031977D01*
X018590Y031876D01*
X018722Y031822D01*
X018864Y031822D01*
X018996Y031876D01*
X019059Y031940D01*
X019841Y031940D01*
X019929Y031977D01*
X020179Y032227D01*
X020246Y032294D01*
X020283Y032382D01*
X020283Y032477D01*
X020533Y032727D01*
X020533Y033133D01*
X020246Y033420D01*
X019840Y033420D01*
X019553Y033133D01*
X019553Y032727D01*
X019777Y032503D01*
X019694Y032420D01*
X019059Y032420D01*
X019039Y032440D01*
X019246Y032440D01*
X019533Y032727D01*
X019533Y033133D01*
X019246Y033420D01*
X018840Y033420D01*
X018553Y033133D01*
X018553Y032727D01*
X018742Y032538D01*
X018722Y032538D01*
X018590Y032484D01*
X018489Y032383D01*
X018435Y032241D02*
X013852Y032241D01*
X013783Y032083D02*
X018446Y032083D01*
X018542Y031924D02*
X013783Y031924D01*
X013783Y031766D02*
X023053Y031766D01*
X023053Y031924D02*
X019043Y031924D01*
X018793Y032180D02*
X019793Y032180D01*
X020043Y032430D01*
X020043Y032930D01*
X020364Y032558D02*
X020722Y032558D01*
X020840Y032440D02*
X021246Y032440D01*
X021533Y032727D01*
X021533Y033133D01*
X021246Y033420D01*
X020840Y033420D01*
X020553Y033133D01*
X020553Y032727D01*
X020840Y032440D01*
X020563Y032717D02*
X020522Y032717D01*
X020533Y032875D02*
X020553Y032875D01*
X020553Y033034D02*
X020533Y033034D01*
X020474Y033192D02*
X020612Y033192D01*
X020770Y033351D02*
X020315Y033351D01*
X020246Y033440D02*
X020533Y033727D01*
X020533Y034133D01*
X020246Y034420D01*
X019840Y034420D01*
X019553Y034133D01*
X019553Y033727D01*
X019840Y033440D01*
X020246Y033440D01*
X020315Y033509D02*
X020771Y033509D01*
X020840Y033440D02*
X021246Y033440D01*
X021533Y033727D01*
X021533Y034133D01*
X021246Y034420D01*
X020840Y034420D01*
X020553Y034133D01*
X020553Y033727D01*
X020840Y033440D01*
X020612Y033668D02*
X020473Y033668D01*
X020533Y033826D02*
X020553Y033826D01*
X020553Y033985D02*
X020533Y033985D01*
X020523Y034143D02*
X020563Y034143D01*
X020721Y034302D02*
X020364Y034302D01*
X019721Y034302D02*
X019364Y034302D01*
X019246Y034420D02*
X019533Y034133D01*
X019533Y033727D01*
X019246Y033440D01*
X018840Y033440D01*
X018553Y033727D01*
X018553Y034133D01*
X018840Y034420D01*
X019246Y034420D01*
X019523Y034143D02*
X019563Y034143D01*
X019553Y033985D02*
X019533Y033985D01*
X019533Y033826D02*
X019553Y033826D01*
X019612Y033668D02*
X019473Y033668D01*
X019315Y033509D02*
X019771Y033509D01*
X019770Y033351D02*
X019315Y033351D01*
X019474Y033192D02*
X019612Y033192D01*
X019553Y033034D02*
X019533Y033034D01*
X019533Y032875D02*
X019553Y032875D01*
X019563Y032717D02*
X019522Y032717D01*
X019364Y032558D02*
X019722Y032558D01*
X020193Y032241D02*
X023053Y032241D01*
X023053Y032083D02*
X020035Y032083D01*
X020283Y032400D02*
X023053Y032400D01*
X023053Y032558D02*
X021364Y032558D01*
X021522Y032717D02*
X023053Y032717D01*
X023053Y032875D02*
X021533Y032875D01*
X021533Y033034D02*
X023053Y033034D01*
X023053Y033192D02*
X021474Y033192D01*
X021315Y033351D02*
X023053Y033351D01*
X023053Y033509D02*
X021315Y033509D01*
X021473Y033668D02*
X023053Y033668D01*
X023053Y033826D02*
X021533Y033826D01*
X021533Y033985D02*
X023053Y033985D01*
X023053Y034143D02*
X021523Y034143D01*
X021364Y034302D02*
X023053Y034302D01*
X023053Y034460D02*
X010401Y034460D01*
X010377Y034302D02*
X013693Y034302D01*
X013832Y034440D02*
X013533Y034141D01*
X013533Y033930D01*
X013533Y033719D01*
X013832Y033420D01*
X014043Y033420D01*
X014254Y033420D01*
X014543Y033709D01*
X014832Y033420D01*
X015043Y033420D01*
X015254Y033420D01*
X015543Y033709D01*
X015832Y033420D01*
X016043Y033420D01*
X016254Y033420D01*
X016553Y033719D01*
X016553Y033930D01*
X016553Y034141D01*
X016254Y034440D01*
X016043Y034440D01*
X016043Y033930D01*
X016553Y033930D01*
X016043Y033930D01*
X016043Y033930D01*
X016043Y033930D01*
X016043Y033420D01*
X016043Y033930D01*
X016043Y033930D01*
X016043Y034440D01*
X015832Y034440D01*
X015543Y034151D01*
X015254Y034440D01*
X015043Y034440D01*
X015043Y033930D01*
X015553Y033930D01*
X016043Y033930D01*
X015043Y033930D01*
X015043Y033930D01*
X015043Y033930D01*
X015043Y033420D01*
X015043Y033930D01*
X015043Y033930D01*
X015043Y034440D01*
X014832Y034440D01*
X014543Y034151D01*
X014254Y034440D01*
X014043Y034440D01*
X014043Y033930D01*
X014553Y033930D01*
X015043Y033930D01*
X014043Y033930D01*
X014043Y033930D01*
X014043Y033930D01*
X014043Y033420D01*
X014043Y033930D01*
X014043Y033930D01*
X014043Y034440D01*
X013832Y034440D01*
X014043Y034302D02*
X014043Y034302D01*
X014043Y034143D02*
X014043Y034143D01*
X014043Y033985D02*
X014043Y033985D01*
X014043Y033930D02*
X014043Y033930D01*
X013533Y033930D01*
X014043Y033930D01*
X014043Y033826D02*
X014043Y033826D01*
X014043Y033668D02*
X014043Y033668D01*
X014043Y033509D02*
X014043Y033509D01*
X014343Y033509D02*
X014743Y033509D01*
X014840Y033420D02*
X014553Y033133D01*
X014553Y032727D01*
X014840Y032440D01*
X015246Y032440D01*
X015533Y032727D01*
X015533Y033133D01*
X015246Y033420D01*
X014840Y033420D01*
X014770Y033351D02*
X014315Y033351D01*
X014474Y033192D02*
X014612Y033192D01*
X014553Y033034D02*
X014533Y033034D01*
X014533Y032875D02*
X014553Y032875D01*
X014563Y032717D02*
X014522Y032717D01*
X014364Y032558D02*
X014722Y032558D01*
X015364Y032558D02*
X015722Y032558D01*
X015840Y032440D02*
X015553Y032727D01*
X015553Y033133D01*
X015840Y033420D01*
X016246Y033420D01*
X016533Y033133D01*
X016533Y032727D01*
X016246Y032440D01*
X015840Y032440D01*
X015563Y032717D02*
X015522Y032717D01*
X015533Y032875D02*
X015553Y032875D01*
X015553Y033034D02*
X015533Y033034D01*
X015474Y033192D02*
X015612Y033192D01*
X015770Y033351D02*
X015315Y033351D01*
X015343Y033509D02*
X015743Y033509D01*
X015584Y033668D02*
X015502Y033668D01*
X015043Y033668D02*
X015043Y033668D01*
X015043Y033826D02*
X015043Y033826D01*
X015043Y033930D02*
X015043Y033930D01*
X015043Y033985D02*
X015043Y033985D01*
X015043Y034143D02*
X015043Y034143D01*
X015043Y034302D02*
X015043Y034302D01*
X015393Y034302D02*
X015693Y034302D01*
X016043Y034302D02*
X016043Y034302D01*
X016043Y034143D02*
X016043Y034143D01*
X016043Y033985D02*
X016043Y033985D01*
X016043Y033930D02*
X016043Y033930D01*
X016043Y033826D02*
X016043Y033826D01*
X016043Y033668D02*
X016043Y033668D01*
X016043Y033509D02*
X016043Y033509D01*
X016343Y033509D02*
X016771Y033509D01*
X016840Y033440D02*
X017246Y033440D01*
X017533Y033727D01*
X017533Y034133D01*
X017246Y034420D01*
X016840Y034420D01*
X016553Y034133D01*
X016553Y033727D01*
X016840Y033440D01*
X016840Y033420D02*
X016553Y033133D01*
X016553Y032727D01*
X016840Y032440D01*
X017246Y032440D01*
X017533Y032727D01*
X017533Y033133D01*
X017246Y033420D01*
X016840Y033420D01*
X016770Y033351D02*
X016315Y033351D01*
X016474Y033192D02*
X016612Y033192D01*
X016553Y033034D02*
X016533Y033034D01*
X016533Y032875D02*
X016553Y032875D01*
X016563Y032717D02*
X016522Y032717D01*
X016364Y032558D02*
X016722Y032558D01*
X017364Y032558D02*
X017694Y032558D01*
X017832Y032420D02*
X017533Y032719D01*
X017533Y032930D01*
X018043Y032930D01*
X018553Y032930D01*
X018553Y033141D01*
X018254Y033440D01*
X018043Y033440D01*
X018043Y032930D01*
X018043Y032930D01*
X018553Y032930D01*
X018553Y032719D01*
X018254Y032420D01*
X018043Y032420D01*
X018043Y032930D01*
X018043Y032930D01*
X018043Y032930D01*
X018043Y032420D01*
X017832Y032420D01*
X018043Y032558D02*
X018043Y032558D01*
X018043Y032717D02*
X018043Y032717D01*
X018043Y032875D02*
X018043Y032875D01*
X018043Y032930D02*
X018043Y032930D01*
X018043Y033440D01*
X017832Y033440D01*
X017533Y033141D01*
X017533Y032930D01*
X018043Y032930D01*
X018043Y033034D02*
X018043Y033034D01*
X018043Y033192D02*
X018043Y033192D01*
X018043Y033351D02*
X018043Y033351D01*
X017840Y033440D02*
X018246Y033440D01*
X018533Y033727D01*
X018533Y034133D01*
X018246Y034420D01*
X017840Y034420D01*
X017553Y034133D01*
X017553Y033727D01*
X017840Y033440D01*
X017771Y033509D02*
X017315Y033509D01*
X017315Y033351D02*
X017742Y033351D01*
X017584Y033192D02*
X017474Y033192D01*
X017533Y033034D02*
X017533Y033034D01*
X017533Y032875D02*
X017533Y032875D01*
X017522Y032717D02*
X017535Y032717D01*
X018392Y032558D02*
X018722Y032558D01*
X018563Y032717D02*
X018551Y032717D01*
X018553Y032875D02*
X018553Y032875D01*
X018553Y033034D02*
X018553Y033034D01*
X018502Y033192D02*
X018612Y033192D01*
X018770Y033351D02*
X018344Y033351D01*
X018315Y033509D02*
X018771Y033509D01*
X018612Y033668D02*
X018473Y033668D01*
X018533Y033826D02*
X018553Y033826D01*
X018553Y033985D02*
X018533Y033985D01*
X018523Y034143D02*
X018563Y034143D01*
X018721Y034302D02*
X018364Y034302D01*
X017721Y034302D02*
X017364Y034302D01*
X017523Y034143D02*
X017563Y034143D01*
X017553Y033985D02*
X017533Y033985D01*
X017533Y033826D02*
X017553Y033826D01*
X017612Y033668D02*
X017473Y033668D01*
X016612Y033668D02*
X016502Y033668D01*
X016553Y033826D02*
X016553Y033826D01*
X016553Y033985D02*
X016553Y033985D01*
X016551Y034143D02*
X016563Y034143D01*
X016721Y034302D02*
X016393Y034302D01*
X016246Y035440D02*
X015840Y035440D01*
X015553Y035727D01*
X015553Y036133D01*
X015840Y036420D01*
X016246Y036420D01*
X016533Y036133D01*
X016533Y035727D01*
X016246Y035440D01*
X016375Y035570D02*
X016710Y035570D01*
X016840Y035440D02*
X016553Y035727D01*
X016553Y036133D01*
X016840Y036420D01*
X017246Y036420D01*
X017533Y036133D01*
X017533Y035727D01*
X017246Y035440D01*
X016840Y035440D01*
X016553Y035728D02*
X016533Y035728D01*
X016533Y035887D02*
X016553Y035887D01*
X016553Y036045D02*
X016533Y036045D01*
X016462Y036204D02*
X016623Y036204D01*
X016782Y036362D02*
X016304Y036362D01*
X016355Y036521D02*
X016759Y036521D01*
X016601Y036679D02*
X016513Y036679D01*
X016553Y036838D02*
X016553Y036838D01*
X016553Y036930D02*
X016043Y036930D01*
X016553Y036930D01*
X016553Y036996D02*
X016553Y036996D01*
X016540Y037155D02*
X016574Y037155D01*
X016733Y037313D02*
X016381Y037313D01*
X016043Y036930D02*
X016043Y036930D01*
X016043Y036420D01*
X016043Y036930D01*
X016043Y036930D01*
X015043Y036930D01*
X015553Y036930D01*
X016043Y036930D01*
X016043Y036930D01*
X016043Y036838D02*
X016043Y036838D01*
X016043Y036679D02*
X016043Y036679D01*
X016043Y036521D02*
X016043Y036521D01*
X015782Y036362D02*
X015304Y036362D01*
X015246Y036420D02*
X015533Y036133D01*
X015533Y035727D01*
X015246Y035440D01*
X014840Y035440D01*
X014553Y035727D01*
X014553Y036133D01*
X014840Y036420D01*
X015246Y036420D01*
X015355Y036521D02*
X015731Y036521D01*
X015573Y036679D02*
X015513Y036679D01*
X015043Y036679D02*
X015043Y036679D01*
X015043Y036521D02*
X015043Y036521D01*
X015043Y036420D02*
X015043Y036930D01*
X015043Y036930D01*
X015043Y036930D01*
X015043Y036420D01*
X014782Y036362D02*
X014304Y036362D01*
X014246Y036420D02*
X014533Y036133D01*
X014533Y035727D01*
X014246Y035440D01*
X013840Y035440D01*
X013553Y035727D01*
X013553Y036133D01*
X013840Y036420D01*
X014246Y036420D01*
X014355Y036521D02*
X014731Y036521D01*
X014573Y036679D02*
X014513Y036679D01*
X014533Y036930D02*
X014043Y036930D01*
X014043Y036930D01*
X015043Y036930D01*
X015043Y036930D01*
X014533Y036930D01*
X014043Y036930D02*
X014043Y036420D01*
X014043Y036930D01*
X014043Y036930D01*
X013533Y036930D01*
X014043Y036930D01*
X014043Y036930D01*
X014043Y036838D02*
X014043Y036838D01*
X014043Y036679D02*
X014043Y036679D01*
X014043Y036521D02*
X014043Y036521D01*
X013782Y036362D02*
X013158Y036362D01*
X013158Y036204D02*
X013623Y036204D01*
X013553Y036045D02*
X013158Y036045D01*
X013158Y035887D02*
X013553Y035887D01*
X013553Y035728D02*
X013158Y035728D01*
X013160Y035570D02*
X013710Y035570D01*
X013262Y035411D02*
X021777Y035411D01*
X021740Y035426D02*
X021872Y035372D01*
X022014Y035372D01*
X022146Y035426D01*
X022247Y035527D01*
X022301Y035659D01*
X022301Y035801D01*
X022247Y035933D01*
X022146Y036034D01*
X022049Y036074D01*
X022023Y036130D01*
X022019Y036148D01*
X022003Y036173D01*
X021991Y036199D01*
X021977Y036212D01*
X021756Y036544D01*
X021746Y036566D01*
X021729Y036583D01*
X021716Y036603D01*
X021696Y036616D01*
X021679Y036633D01*
X021657Y036643D01*
X021637Y036656D01*
X021613Y036661D01*
X021591Y036670D01*
X021567Y036670D01*
X021543Y036675D01*
X021519Y036670D01*
X021476Y036670D01*
X021533Y036727D01*
X021533Y037133D01*
X021246Y037420D01*
X020840Y037420D01*
X020553Y037133D01*
X020553Y036759D01*
X020533Y036779D01*
X020533Y037133D01*
X020246Y037420D01*
X019840Y037420D01*
X019553Y037133D01*
X019553Y036727D01*
X019840Y036440D01*
X020194Y036440D01*
X020214Y036420D01*
X019840Y036420D01*
X019553Y036133D01*
X019553Y035727D01*
X019840Y035440D01*
X020246Y035440D01*
X020533Y035727D01*
X020533Y036133D01*
X020462Y036204D01*
X020495Y036190D01*
X020610Y036190D01*
X020553Y036133D01*
X020553Y035727D01*
X020840Y035440D01*
X021246Y035440D01*
X021533Y035727D01*
X021533Y036012D01*
X021583Y035937D01*
X021614Y035871D01*
X021585Y035801D01*
X021585Y035659D01*
X021639Y035527D01*
X021740Y035426D01*
X021622Y035570D02*
X021375Y035570D01*
X021533Y035728D02*
X021585Y035728D01*
X021606Y035887D02*
X021533Y035887D01*
X021793Y036055D02*
X021543Y036430D01*
X020543Y036430D01*
X020043Y036930D01*
X020353Y037313D02*
X020733Y037313D01*
X020574Y037155D02*
X020511Y037155D01*
X020533Y036996D02*
X020553Y036996D01*
X020553Y036838D02*
X020533Y036838D01*
X020462Y036204D02*
X020462Y036204D01*
X020533Y036045D02*
X020553Y036045D01*
X020553Y035887D02*
X020533Y035887D01*
X020533Y035728D02*
X020553Y035728D01*
X020710Y035570D02*
X020375Y035570D01*
X019710Y035570D02*
X019375Y035570D01*
X019246Y035440D02*
X019533Y035727D01*
X019533Y036133D01*
X019246Y036420D01*
X018840Y036420D01*
X018553Y036133D01*
X018553Y035727D01*
X018840Y035440D01*
X019246Y035440D01*
X019533Y035728D02*
X019553Y035728D01*
X019553Y035887D02*
X019533Y035887D01*
X019533Y036045D02*
X019553Y036045D01*
X019623Y036204D02*
X019462Y036204D01*
X019304Y036362D02*
X019782Y036362D01*
X019759Y036521D02*
X019326Y036521D01*
X019485Y036679D02*
X019601Y036679D01*
X019553Y036838D02*
X019533Y036838D01*
X019533Y036996D02*
X019553Y036996D01*
X019574Y037155D02*
X019511Y037155D01*
X019353Y037313D02*
X019733Y037313D01*
X019293Y037680D02*
X022293Y037680D01*
X023668Y036305D01*
X023668Y032555D01*
X023293Y031680D02*
X025543Y031680D01*
X026043Y031055D01*
X026418Y030555D01*
X026543Y029930D01*
X026053Y029900D02*
X025947Y030325D01*
X025298Y031190D01*
X021233Y031190D01*
X021233Y029882D01*
X021196Y029794D01*
X021129Y029727D01*
X021041Y029690D01*
X016495Y029690D01*
X016407Y029727D01*
X016323Y029811D01*
X016323Y027874D01*
X016280Y027771D01*
X016202Y027693D01*
X015823Y027314D01*
X015823Y026410D01*
X016527Y026410D01*
X017206Y027089D01*
X017284Y027167D01*
X017387Y027210D01*
X020331Y027210D01*
X020315Y027249D01*
X020315Y027391D01*
X020369Y027523D01*
X020470Y027624D01*
X020602Y027678D01*
X020744Y027678D01*
X020876Y027624D01*
X020942Y027558D01*
X021653Y027552D01*
X021653Y030339D01*
X021589Y030402D01*
X021535Y030534D01*
X021535Y030676D01*
X021589Y030808D01*
X021690Y030909D01*
X021822Y030963D01*
X021964Y030963D01*
X022096Y030909D01*
X022197Y030808D01*
X022251Y030676D01*
X022251Y030534D01*
X022197Y030402D01*
X022133Y030339D01*
X023697Y030339D01*
X023681Y030278D02*
X023681Y030007D01*
X023751Y029745D01*
X023887Y029509D01*
X024079Y029317D01*
X024314Y029182D01*
X024576Y029111D01*
X024848Y029111D01*
X025110Y029182D01*
X025345Y029317D01*
X025537Y029509D01*
X025673Y029745D01*
X025743Y030007D01*
X025743Y030278D01*
X025673Y030541D01*
X025537Y030776D01*
X025345Y030968D01*
X025110Y031104D01*
X024848Y031174D01*
X024576Y031174D01*
X024314Y031104D01*
X024079Y030968D01*
X023887Y030776D01*
X023751Y030541D01*
X023681Y030278D01*
X023681Y030181D02*
X022133Y030181D01*
X022133Y030339D02*
X022133Y027357D01*
X022133Y027356D01*
X022133Y027309D01*
X022133Y027262D01*
X022133Y027261D01*
X022133Y027260D01*
X022114Y027217D01*
X022111Y027210D01*
X023148Y027210D01*
X023163Y027494D01*
X023163Y027542D01*
X023166Y027549D01*
X023166Y027557D01*
X023187Y027600D01*
X023206Y027645D01*
X023211Y027650D01*
X023214Y027657D01*
X023250Y027690D01*
X023435Y027875D01*
X023435Y028228D01*
X023746Y028539D01*
X024185Y028539D01*
X024465Y028258D01*
X024746Y028539D01*
X025185Y028539D01*
X025495Y028228D01*
X025495Y027789D01*
X025245Y027539D01*
X025285Y027539D01*
X025595Y027228D01*
X025595Y026822D01*
X026053Y027279D01*
X026053Y029900D01*
X026053Y029864D02*
X025705Y029864D01*
X025743Y030022D02*
X026023Y030022D01*
X025983Y030181D02*
X025743Y030181D01*
X025727Y030339D02*
X025936Y030339D01*
X025817Y030498D02*
X025685Y030498D01*
X025698Y030656D02*
X025606Y030656D01*
X025580Y030815D02*
X025499Y030815D01*
X025461Y030973D02*
X025336Y030973D01*
X025342Y031132D02*
X025006Y031132D01*
X024419Y031132D02*
X021233Y031132D01*
X021233Y030973D02*
X024088Y030973D01*
X023926Y030815D02*
X022190Y030815D01*
X022251Y030656D02*
X023818Y030656D01*
X023740Y030498D02*
X022236Y030498D01*
X021893Y030605D02*
X021893Y027310D01*
X020673Y027320D01*
X020315Y027328D02*
X015836Y027328D01*
X015823Y027169D02*
X017288Y027169D01*
X017127Y027011D02*
X015823Y027011D01*
X015823Y026852D02*
X016969Y026852D01*
X016810Y026694D02*
X015823Y026694D01*
X015823Y026535D02*
X016652Y026535D01*
X016693Y025680D02*
X016043Y025680D01*
X016693Y025680D02*
X017693Y026630D01*
X023737Y026630D01*
X024065Y027009D01*
X023626Y026380D02*
X023965Y026040D01*
X023626Y026380D02*
X017843Y026380D01*
X016543Y025180D01*
X017018Y025080D02*
X017993Y026130D01*
X023243Y026130D01*
X023293Y025813D01*
X024065Y025040D01*
X023723Y024633D02*
X022481Y024633D01*
X022480Y024636D02*
X022479Y024645D01*
X022461Y024680D01*
X022446Y024716D01*
X022440Y024722D01*
X022262Y025079D01*
X022248Y025114D01*
X022241Y025121D01*
X022236Y025130D01*
X022207Y025155D01*
X022181Y025182D01*
X022172Y025186D01*
X022164Y025193D01*
X022128Y025205D01*
X022093Y025220D01*
X022083Y025220D01*
X022074Y025223D01*
X022035Y025220D01*
X021172Y025228D01*
X021106Y025294D01*
X020974Y025348D01*
X020832Y025348D01*
X020700Y025294D01*
X020599Y025193D01*
X020545Y025061D01*
X020545Y024919D01*
X020599Y024787D01*
X020700Y024686D01*
X020832Y024632D01*
X020974Y024632D01*
X021106Y024686D01*
X021167Y024748D01*
X021894Y024741D01*
X022003Y024523D01*
X022003Y023282D01*
X022039Y023194D01*
X022207Y023027D01*
X022295Y022990D01*
X023535Y022990D01*
X023535Y022852D01*
X023754Y022633D01*
X023746Y022633D01*
X023435Y022323D01*
X023435Y021884D01*
X023746Y021573D01*
X023786Y021573D01*
X023535Y021323D01*
X023535Y020884D01*
X023754Y020665D01*
X023746Y020665D01*
X023435Y020354D01*
X023435Y020176D01*
X023183Y020451D01*
X023183Y020999D01*
X023187Y021015D01*
X023183Y021046D01*
X023183Y021078D01*
X023177Y021093D01*
X023174Y021109D01*
X023158Y021137D01*
X023146Y021166D01*
X023135Y021178D01*
X023126Y021192D01*
X023101Y021211D01*
X023079Y021233D01*
X023064Y021240D01*
X022576Y021611D01*
X022554Y021633D01*
X022539Y021640D01*
X022525Y021650D01*
X022495Y021658D01*
X022466Y021670D01*
X022449Y021670D01*
X022433Y021674D01*
X022402Y021670D01*
X020533Y021670D01*
X020533Y024517D01*
X020537Y024551D01*
X020533Y024564D01*
X020533Y024578D01*
X020520Y024610D01*
X020359Y025164D01*
X020411Y025289D01*
X020411Y025431D01*
X020357Y025563D01*
X020329Y025590D01*
X022728Y025590D01*
X022885Y025393D01*
X022885Y025259D01*
X022939Y025127D01*
X023040Y025026D01*
X023172Y024972D01*
X023314Y024972D01*
X023446Y025026D01*
X023535Y025116D01*
X023535Y024821D01*
X023736Y024620D01*
X023415Y024300D01*
X023415Y024080D01*
X023957Y024080D01*
X023957Y024063D01*
X023415Y024063D01*
X023415Y023844D01*
X023738Y023522D01*
X023766Y023522D01*
X023714Y023470D01*
X022483Y023470D01*
X022483Y024541D01*
X022486Y024549D01*
X022483Y024589D01*
X022483Y024628D01*
X022480Y024636D01*
X022483Y024475D02*
X023590Y024475D01*
X023432Y024316D02*
X022483Y024316D01*
X022483Y024158D02*
X023415Y024158D01*
X023415Y023999D02*
X022483Y023999D01*
X022483Y023841D02*
X023419Y023841D01*
X023577Y023682D02*
X022483Y023682D01*
X022483Y023524D02*
X023736Y023524D01*
X023907Y023230D02*
X024065Y023072D01*
X023907Y023230D02*
X022343Y023230D01*
X022243Y023330D01*
X022243Y024580D01*
X022043Y024980D01*
X020903Y024990D01*
X020564Y025109D02*
X020375Y025109D01*
X020402Y025267D02*
X020674Y025267D01*
X020411Y025426D02*
X022859Y025426D01*
X022885Y025267D02*
X021132Y025267D01*
X020545Y024950D02*
X020421Y024950D01*
X020467Y024792D02*
X020598Y024792D01*
X020513Y024633D02*
X020829Y024633D01*
X020977Y024633D02*
X021948Y024633D01*
X022003Y024475D02*
X020533Y024475D01*
X020533Y024316D02*
X022003Y024316D01*
X022003Y024158D02*
X020533Y024158D01*
X020533Y023999D02*
X022003Y023999D01*
X022003Y023841D02*
X020533Y023841D01*
X020533Y023682D02*
X022003Y023682D01*
X022003Y023524D02*
X020533Y023524D01*
X020533Y023365D02*
X022003Y023365D01*
X022034Y023207D02*
X020533Y023207D01*
X020533Y023048D02*
X022185Y023048D01*
X023535Y022890D02*
X020533Y022890D01*
X020533Y022731D02*
X023657Y022731D01*
X023685Y022573D02*
X020533Y022573D01*
X020533Y022414D02*
X023527Y022414D01*
X023435Y022256D02*
X020533Y022256D01*
X020533Y022097D02*
X023435Y022097D01*
X023435Y021939D02*
X020533Y021939D01*
X020533Y021780D02*
X023539Y021780D01*
X023698Y021622D02*
X022566Y021622D01*
X022418Y021430D02*
X022943Y021030D01*
X022943Y020357D01*
X024065Y019135D01*
X023548Y018735D01*
X022793Y018180D01*
X022793Y008305D01*
X021543Y007055D01*
X010168Y007055D01*
X009043Y007680D01*
X009043Y008380D01*
X008683Y007991D02*
X008548Y007991D01*
X008557Y007999D02*
X008581Y008041D01*
X008592Y008082D01*
X008803Y007870D01*
X008803Y007694D01*
X008799Y007660D01*
X008803Y007646D01*
X008803Y007632D01*
X008816Y007601D01*
X008825Y007568D01*
X008834Y007557D01*
X008839Y007544D01*
X008863Y007520D01*
X008885Y007493D01*
X008897Y007487D01*
X008907Y007477D01*
X008938Y007464D01*
X009242Y007295D01*
X007691Y007295D01*
X007533Y007612D01*
X007533Y007995D01*
X007562Y007966D01*
X007603Y007942D01*
X007649Y007930D01*
X008034Y007930D01*
X008034Y008471D01*
X008051Y008471D01*
X008051Y007930D01*
X008437Y007930D01*
X008482Y007942D01*
X008523Y007966D01*
X008557Y007999D01*
X008803Y007832D02*
X007533Y007832D01*
X007533Y007674D02*
X008801Y007674D01*
X008867Y007515D02*
X007581Y007515D01*
X007660Y007357D02*
X009131Y007357D01*
X010168Y007055D02*
X007543Y007055D01*
X007293Y007555D01*
X007293Y011930D01*
X007293Y017430D01*
X007293Y021680D01*
X007293Y026180D01*
X007293Y030930D01*
X007293Y033455D01*
X006693Y034180D01*
X006693Y036430D01*
X006543Y036680D01*
X006543Y036930D01*
X007293Y037680D01*
X009043Y037680D01*
X009043Y037630D01*
X013358Y037630D01*
X013358Y037620D01*
X012918Y037180D01*
X012918Y035305D01*
X012586Y035170D02*
X010283Y035170D01*
X010283Y035420D01*
X010573Y035710D01*
X010573Y036150D01*
X010307Y036416D01*
X010593Y036702D01*
X010593Y036910D01*
X010063Y036910D01*
X010063Y036950D01*
X010593Y036950D01*
X010593Y037158D01*
X010361Y037390D01*
X012789Y037390D01*
X012782Y037383D01*
X012714Y037316D01*
X012678Y037228D01*
X012678Y035571D01*
X012614Y035508D01*
X012560Y035376D01*
X012560Y035234D01*
X012586Y035170D01*
X012560Y035253D02*
X010283Y035253D01*
X010283Y035411D02*
X012574Y035411D01*
X012676Y035570D02*
X010432Y035570D01*
X010573Y035728D02*
X012678Y035728D01*
X012678Y035887D02*
X010573Y035887D01*
X010573Y036045D02*
X012678Y036045D01*
X012678Y036204D02*
X010519Y036204D01*
X010360Y036362D02*
X012678Y036362D01*
X012678Y036521D02*
X010411Y036521D01*
X010570Y036679D02*
X012678Y036679D01*
X012678Y036838D02*
X010593Y036838D01*
X010593Y036996D02*
X012678Y036996D01*
X012678Y037155D02*
X010593Y037155D01*
X010438Y037313D02*
X012713Y037313D01*
X013232Y037155D02*
X013546Y037155D01*
X013533Y036996D02*
X013158Y036996D01*
X013158Y036838D02*
X013533Y036838D01*
X013573Y036679D02*
X013158Y036679D01*
X013158Y036521D02*
X013731Y036521D01*
X013705Y037313D02*
X013390Y037313D01*
X013358Y037630D02*
X017343Y037630D01*
X018043Y036930D01*
X018043Y036440D02*
X018254Y036440D01*
X018553Y036141D01*
X018553Y035930D01*
X018043Y035930D01*
X018043Y035930D01*
X018553Y035930D01*
X018553Y035719D01*
X018254Y035420D01*
X018043Y035420D01*
X018043Y035930D01*
X018043Y035930D01*
X018043Y035930D01*
X018043Y036440D01*
X017832Y036440D01*
X017533Y036141D01*
X017533Y035930D01*
X017533Y035719D01*
X017832Y035420D01*
X018043Y035420D01*
X018043Y035930D01*
X018043Y036440D01*
X018043Y036362D02*
X018043Y036362D01*
X018043Y036204D02*
X018043Y036204D01*
X018043Y036045D02*
X018043Y036045D01*
X018043Y035930D02*
X018043Y035930D01*
X017533Y035930D01*
X018043Y035930D01*
X018043Y035887D02*
X018043Y035887D01*
X018043Y035728D02*
X018043Y035728D01*
X018043Y035570D02*
X018043Y035570D01*
X018404Y035570D02*
X018710Y035570D01*
X018553Y035728D02*
X018553Y035728D01*
X018553Y035887D02*
X018553Y035887D01*
X018553Y036045D02*
X018553Y036045D01*
X018491Y036204D02*
X018623Y036204D01*
X018782Y036362D02*
X018332Y036362D01*
X018326Y036521D02*
X018759Y036521D01*
X018601Y036679D02*
X018485Y036679D01*
X018533Y036838D02*
X018553Y036838D01*
X018553Y036996D02*
X018533Y036996D01*
X018511Y037155D02*
X018574Y037155D01*
X018733Y037313D02*
X018353Y037313D01*
X018803Y037472D02*
X017841Y037472D01*
X017682Y037630D02*
X018904Y037630D01*
X019062Y037789D02*
X017524Y037789D01*
X017533Y036996D02*
X017553Y036996D01*
X017553Y036838D02*
X017533Y036838D01*
X017485Y036679D02*
X017601Y036679D01*
X017759Y036521D02*
X017326Y036521D01*
X017304Y036362D02*
X017754Y036362D01*
X017595Y036204D02*
X017462Y036204D01*
X017533Y036045D02*
X017533Y036045D01*
X017533Y035887D02*
X017533Y035887D01*
X017533Y035728D02*
X017533Y035728D01*
X017682Y035570D02*
X017375Y035570D01*
X019043Y036930D02*
X019043Y037430D01*
X019293Y037680D01*
X021353Y037313D02*
X022320Y037313D01*
X022479Y037155D02*
X021511Y037155D01*
X021533Y036996D02*
X022637Y036996D01*
X022796Y036838D02*
X021533Y036838D01*
X021485Y036679D02*
X022954Y036679D01*
X023113Y036521D02*
X021771Y036521D01*
X021877Y036362D02*
X023271Y036362D01*
X023428Y036204D02*
X021986Y036204D01*
X022118Y036045D02*
X023428Y036045D01*
X023428Y035887D02*
X022266Y035887D01*
X022301Y035728D02*
X023428Y035728D01*
X023428Y035570D02*
X022264Y035570D01*
X022109Y035411D02*
X023428Y035411D01*
X023428Y035253D02*
X013276Y035253D01*
X013535Y034143D02*
X012726Y034143D01*
X012884Y033985D02*
X013533Y033985D01*
X013533Y033826D02*
X013043Y033826D01*
X013201Y033668D02*
X013584Y033668D01*
X013743Y033509D02*
X013313Y033509D01*
X013323Y033351D02*
X013770Y033351D01*
X013612Y033192D02*
X013323Y033192D01*
X013323Y033034D02*
X013553Y033034D01*
X013553Y032875D02*
X013323Y032875D01*
X013323Y032717D02*
X013323Y032717D01*
X012643Y032430D02*
X012643Y033330D01*
X012443Y033530D01*
X008593Y033530D01*
X008043Y032980D01*
X008051Y031971D02*
X008051Y031430D01*
X008437Y031430D01*
X008482Y031442D01*
X008523Y031466D01*
X008557Y031499D01*
X008581Y031541D01*
X008592Y031582D01*
X008823Y031350D01*
X009262Y031350D01*
X009573Y031660D01*
X009573Y031700D01*
X009823Y031450D01*
X010262Y031450D01*
X010513Y031700D01*
X010513Y031660D01*
X010823Y031350D01*
X011262Y031350D01*
X011573Y031660D01*
X011573Y031700D01*
X011823Y031450D01*
X012262Y031450D01*
X012573Y031760D01*
X012573Y032072D01*
X012714Y032072D01*
X012763Y032092D01*
X012763Y031210D01*
X010269Y031210D01*
X010246Y031234D01*
X010114Y031288D01*
X009972Y031288D01*
X009840Y031234D01*
X009739Y031133D01*
X009685Y031001D01*
X009685Y030859D01*
X009739Y030727D01*
X009840Y030626D01*
X009972Y030572D01*
X010114Y030572D01*
X010246Y030626D01*
X010269Y030650D01*
X011756Y030650D01*
X011739Y030633D01*
X011685Y030501D01*
X011685Y030359D01*
X011739Y030227D01*
X011803Y030164D01*
X011803Y029467D01*
X011800Y029456D01*
X011803Y029419D01*
X011803Y029382D01*
X011807Y029372D01*
X011808Y029361D01*
X011825Y029328D01*
X011839Y029294D01*
X011847Y029286D01*
X011853Y029276D01*
X011881Y029253D01*
X011907Y029227D01*
X011917Y029222D01*
X012172Y029010D01*
X011823Y029010D01*
X011513Y028700D01*
X011513Y028660D01*
X011262Y028910D01*
X010823Y028910D01*
X010573Y028660D01*
X010573Y028700D01*
X010262Y029010D01*
X009823Y029010D01*
X009513Y028700D01*
X009513Y028660D01*
X009262Y028910D01*
X008823Y028910D01*
X008573Y028660D01*
X008573Y028700D01*
X008262Y029010D01*
X007823Y029010D01*
X007533Y028720D01*
X007533Y030664D01*
X007597Y030727D01*
X007651Y030859D01*
X007651Y031001D01*
X007597Y031133D01*
X007533Y031196D01*
X007533Y031495D01*
X007562Y031466D01*
X007603Y031442D01*
X007649Y031430D01*
X008034Y031430D01*
X008034Y031971D01*
X008051Y031971D01*
X008051Y031924D02*
X008034Y031924D01*
X008034Y031766D02*
X008051Y031766D01*
X008034Y031607D02*
X008051Y031607D01*
X008034Y031449D02*
X008051Y031449D01*
X008493Y031449D02*
X008725Y031449D01*
X009361Y031449D02*
X010725Y031449D01*
X010566Y031607D02*
X010419Y031607D01*
X009666Y031607D02*
X009519Y031607D01*
X009739Y031132D02*
X007597Y031132D01*
X007651Y030973D02*
X009685Y030973D01*
X009703Y030815D02*
X007633Y030815D01*
X007533Y030656D02*
X009810Y030656D01*
X011361Y031449D02*
X012763Y031449D01*
X012763Y031607D02*
X012419Y031607D01*
X012573Y031766D02*
X012763Y031766D01*
X012763Y031924D02*
X012573Y031924D01*
X012740Y032083D02*
X012763Y032083D01*
X012763Y031290D02*
X007533Y031290D01*
X007533Y031449D02*
X007593Y031449D01*
X007533Y030498D02*
X011685Y030498D01*
X011693Y030339D02*
X007533Y030339D01*
X007533Y030181D02*
X011786Y030181D01*
X011803Y030022D02*
X007533Y030022D01*
X007533Y029864D02*
X011803Y029864D01*
X011803Y029705D02*
X007533Y029705D01*
X007533Y029547D02*
X011803Y029547D01*
X011803Y029388D02*
X007533Y029388D01*
X007533Y029230D02*
X011904Y029230D01*
X012043Y029430D02*
X012643Y028930D01*
X012643Y027680D01*
X012293Y027430D01*
X012643Y027180D01*
X012643Y023480D01*
X012043Y022980D01*
X012043Y022930D01*
X012643Y022430D01*
X012643Y019070D01*
X012493Y018930D01*
X012043Y018480D01*
X012643Y017880D01*
X012643Y013530D01*
X012093Y012980D01*
X012043Y013230D01*
X012043Y010305D01*
X012793Y009805D01*
X012793Y008730D01*
X012043Y008480D01*
X012573Y008404D02*
X012832Y008490D01*
X012841Y008490D01*
X012877Y008505D01*
X012914Y008517D01*
X012921Y008523D01*
X012929Y008527D01*
X012957Y008554D01*
X012986Y008580D01*
X012990Y008588D01*
X012996Y008594D01*
X013011Y008630D01*
X013029Y008665D01*
X013030Y008674D01*
X013033Y008682D01*
X013033Y008721D01*
X013036Y008761D01*
X013033Y008769D01*
X013033Y009781D01*
X013038Y009805D01*
X013033Y009829D01*
X013033Y009853D01*
X013024Y009875D01*
X013019Y009899D01*
X013006Y009919D01*
X012996Y009941D01*
X012979Y009958D01*
X012966Y009978D01*
X012946Y009992D01*
X012929Y010008D01*
X012906Y010018D01*
X012283Y010433D01*
X012283Y012720D01*
X012573Y013010D01*
X012573Y013121D01*
X012779Y013327D01*
X012846Y013394D01*
X012883Y013482D01*
X012883Y017928D01*
X012846Y018016D01*
X012779Y018083D01*
X012573Y018289D01*
X012573Y018671D01*
X012660Y018757D01*
X012775Y018865D01*
X012779Y018867D01*
X012810Y018897D01*
X012842Y018927D01*
X012843Y018931D01*
X012846Y018934D01*
X012863Y018974D01*
X012881Y019014D01*
X012881Y019018D01*
X012883Y019022D01*
X012883Y019066D01*
X012884Y019109D01*
X012883Y019113D01*
X012883Y022393D01*
X012886Y022404D01*
X012883Y022441D01*
X012883Y022478D01*
X012879Y022488D01*
X012878Y022499D01*
X012860Y022532D01*
X012846Y022566D01*
X012838Y022574D01*
X012833Y022584D01*
X012805Y022607D01*
X012779Y022633D01*
X012768Y022638D01*
X012573Y022801D01*
X012573Y023109D01*
X012768Y023272D01*
X012779Y023277D01*
X012805Y023303D01*
X012833Y023326D01*
X012838Y023336D01*
X012846Y023344D01*
X012860Y023378D01*
X012878Y023411D01*
X012879Y023422D01*
X012883Y023432D01*
X012883Y023469D01*
X012886Y023506D01*
X012883Y023517D01*
X012883Y027153D01*
X012887Y027172D01*
X012883Y027200D01*
X012883Y027228D01*
X012875Y027247D01*
X012872Y027267D01*
X012857Y027290D01*
X012846Y027316D01*
X012832Y027330D01*
X012821Y027348D01*
X012799Y027364D01*
X012779Y027383D01*
X012760Y027391D01*
X012706Y027430D01*
X012760Y027469D01*
X012779Y027477D01*
X012799Y027496D01*
X012821Y027512D01*
X012832Y027530D01*
X012846Y027544D01*
X012857Y027570D01*
X012872Y027593D01*
X012875Y027613D01*
X012883Y027632D01*
X012883Y027660D01*
X012887Y027688D01*
X012883Y027707D01*
X012883Y028893D01*
X012886Y028904D01*
X012883Y028941D01*
X012883Y028978D01*
X012879Y028988D01*
X012878Y028999D01*
X012860Y029032D01*
X012846Y029066D01*
X012838Y029074D01*
X012833Y029084D01*
X012805Y029107D01*
X012779Y029133D01*
X012768Y029138D01*
X012283Y029542D01*
X012283Y030164D01*
X012347Y030227D01*
X012401Y030359D01*
X012401Y030501D01*
X012347Y030633D01*
X012329Y030650D01*
X013099Y030650D01*
X014927Y030650D01*
X015763Y029814D01*
X015763Y029719D01*
X015247Y030235D01*
X015115Y030290D01*
X012971Y030290D01*
X012839Y030235D01*
X012738Y030134D01*
X012683Y030002D01*
X012683Y029858D01*
X012738Y029726D01*
X012839Y029625D01*
X012971Y029570D01*
X014011Y029570D01*
X013983Y029502D01*
X013983Y010708D01*
X014038Y010576D01*
X014139Y010475D01*
X014271Y010420D01*
X014415Y010420D01*
X014547Y010475D01*
X014648Y010576D01*
X014683Y010660D01*
X014683Y008165D01*
X012477Y008165D01*
X012573Y008260D01*
X012573Y008404D01*
X012573Y008308D02*
X014683Y008308D01*
X014683Y008466D02*
X012760Y008466D01*
X013009Y008625D02*
X014683Y008625D01*
X014683Y008783D02*
X013033Y008783D01*
X013033Y008942D02*
X014683Y008942D01*
X014683Y009100D02*
X013033Y009100D01*
X013033Y009259D02*
X014683Y009259D01*
X014683Y009417D02*
X013033Y009417D01*
X013033Y009576D02*
X014683Y009576D01*
X014683Y009734D02*
X013033Y009734D01*
X013020Y009893D02*
X014683Y009893D01*
X014683Y010051D02*
X012857Y010051D01*
X012619Y010210D02*
X014683Y010210D01*
X014683Y010368D02*
X012381Y010368D01*
X012283Y010527D02*
X014087Y010527D01*
X013993Y010685D02*
X012283Y010685D01*
X012283Y010844D02*
X013983Y010844D01*
X013983Y011002D02*
X012283Y011002D01*
X012283Y011161D02*
X013983Y011161D01*
X013983Y011319D02*
X012283Y011319D01*
X012283Y011478D02*
X013983Y011478D01*
X013983Y011636D02*
X012283Y011636D01*
X012283Y011795D02*
X013983Y011795D01*
X013983Y011953D02*
X012283Y011953D01*
X012283Y012112D02*
X013983Y012112D01*
X013983Y012270D02*
X012283Y012270D01*
X012283Y012429D02*
X013983Y012429D01*
X013983Y012587D02*
X012283Y012587D01*
X012308Y012746D02*
X013983Y012746D01*
X013983Y012904D02*
X012466Y012904D01*
X012573Y013063D02*
X013983Y013063D01*
X013983Y013221D02*
X012673Y013221D01*
X012832Y013380D02*
X013983Y013380D01*
X013983Y013538D02*
X012883Y013538D01*
X012883Y013697D02*
X013983Y013697D01*
X013983Y013855D02*
X012883Y013855D01*
X012883Y014014D02*
X013983Y014014D01*
X013983Y014172D02*
X012883Y014172D01*
X012883Y014331D02*
X013983Y014331D01*
X013983Y014489D02*
X012883Y014489D01*
X012883Y014648D02*
X013983Y014648D01*
X013983Y014806D02*
X012883Y014806D01*
X012883Y014965D02*
X013983Y014965D01*
X013983Y015123D02*
X012883Y015123D01*
X012883Y015282D02*
X013983Y015282D01*
X013983Y015440D02*
X012883Y015440D01*
X012883Y015599D02*
X013983Y015599D01*
X013983Y015757D02*
X012883Y015757D01*
X012883Y015916D02*
X013983Y015916D01*
X013983Y016074D02*
X012883Y016074D01*
X012883Y016233D02*
X013983Y016233D01*
X013983Y016391D02*
X012883Y016391D01*
X012883Y016550D02*
X013983Y016550D01*
X013983Y016708D02*
X012883Y016708D01*
X012883Y016867D02*
X013983Y016867D01*
X013983Y017025D02*
X012883Y017025D01*
X012883Y017184D02*
X013983Y017184D01*
X013983Y017342D02*
X012883Y017342D01*
X012883Y017501D02*
X013983Y017501D01*
X013983Y017659D02*
X012883Y017659D01*
X012883Y017818D02*
X013983Y017818D01*
X013983Y017976D02*
X012863Y017976D01*
X012779Y018083D02*
X012779Y018083D01*
X012728Y018135D02*
X013983Y018135D01*
X013983Y018293D02*
X012573Y018293D01*
X012573Y018452D02*
X013983Y018452D01*
X013983Y018610D02*
X012573Y018610D01*
X012672Y018769D02*
X013983Y018769D01*
X013983Y018927D02*
X012841Y018927D01*
X012884Y019086D02*
X013983Y019086D01*
X013983Y019244D02*
X012883Y019244D01*
X012883Y019403D02*
X013983Y019403D01*
X013983Y019561D02*
X012883Y019561D01*
X012883Y019720D02*
X013983Y019720D01*
X013983Y019878D02*
X012883Y019878D01*
X012883Y020037D02*
X013983Y020037D01*
X013983Y020195D02*
X012883Y020195D01*
X012883Y020354D02*
X013983Y020354D01*
X013983Y020512D02*
X012883Y020512D01*
X012883Y020671D02*
X013983Y020671D01*
X013983Y020829D02*
X012883Y020829D01*
X012883Y020988D02*
X013983Y020988D01*
X013983Y021146D02*
X012883Y021146D01*
X012883Y021305D02*
X013983Y021305D01*
X013983Y021463D02*
X012883Y021463D01*
X012883Y021622D02*
X013983Y021622D01*
X013983Y021780D02*
X012883Y021780D01*
X012883Y021939D02*
X013983Y021939D01*
X013983Y022097D02*
X012883Y022097D01*
X012883Y022256D02*
X013983Y022256D01*
X013983Y022414D02*
X012885Y022414D01*
X012840Y022573D02*
X013983Y022573D01*
X013983Y022731D02*
X012657Y022731D01*
X012573Y022890D02*
X013983Y022890D01*
X013983Y023048D02*
X012573Y023048D01*
X012690Y023207D02*
X013983Y023207D01*
X013983Y023365D02*
X012855Y023365D01*
X012883Y023524D02*
X013983Y023524D01*
X013983Y023682D02*
X012883Y023682D01*
X012883Y023841D02*
X013983Y023841D01*
X013983Y023999D02*
X012883Y023999D01*
X012883Y024158D02*
X013983Y024158D01*
X013983Y024316D02*
X012883Y024316D01*
X012883Y024475D02*
X013983Y024475D01*
X013983Y024633D02*
X012883Y024633D01*
X012883Y024792D02*
X013983Y024792D01*
X013983Y024950D02*
X012883Y024950D01*
X012883Y025109D02*
X013983Y025109D01*
X013983Y025267D02*
X012883Y025267D01*
X012883Y025426D02*
X013983Y025426D01*
X013983Y025584D02*
X012883Y025584D01*
X012883Y025743D02*
X013983Y025743D01*
X013983Y025901D02*
X012883Y025901D01*
X012883Y026060D02*
X013983Y026060D01*
X013983Y026218D02*
X012883Y026218D01*
X012883Y026377D02*
X013983Y026377D01*
X013983Y026535D02*
X012883Y026535D01*
X012883Y026694D02*
X013983Y026694D01*
X013983Y026852D02*
X012883Y026852D01*
X012883Y027011D02*
X013983Y027011D01*
X013983Y027169D02*
X012887Y027169D01*
X012835Y027328D02*
X013983Y027328D01*
X013983Y027486D02*
X012788Y027486D01*
X012883Y027645D02*
X013983Y027645D01*
X013983Y027803D02*
X012883Y027803D01*
X012883Y027962D02*
X013983Y027962D01*
X013983Y028120D02*
X012883Y028120D01*
X012883Y028279D02*
X013983Y028279D01*
X013983Y028437D02*
X012883Y028437D01*
X012883Y028596D02*
X013983Y028596D01*
X013983Y028754D02*
X012883Y028754D01*
X012885Y028913D02*
X013983Y028913D01*
X013983Y029071D02*
X012841Y029071D01*
X012658Y029230D02*
X013983Y029230D01*
X013983Y029388D02*
X012468Y029388D01*
X012283Y029547D02*
X014002Y029547D01*
X015079Y030498D02*
X012401Y030498D01*
X012393Y030339D02*
X015238Y030339D01*
X015301Y030181D02*
X015396Y030181D01*
X015460Y030022D02*
X015555Y030022D01*
X015618Y029864D02*
X015713Y029864D01*
X016323Y029705D02*
X016459Y029705D01*
X016323Y029547D02*
X021653Y029547D01*
X021653Y029705D02*
X021077Y029705D01*
X021225Y029864D02*
X021653Y029864D01*
X021653Y030022D02*
X021233Y030022D01*
X021233Y030181D02*
X021653Y030181D01*
X021652Y030339D02*
X021233Y030339D01*
X021233Y030498D02*
X021550Y030498D01*
X021535Y030656D02*
X021233Y030656D01*
X021233Y030815D02*
X021596Y030815D01*
X020753Y030815D02*
X015998Y030815D01*
X015839Y030973D02*
X020753Y030973D01*
X020753Y031132D02*
X015681Y031132D01*
X015522Y031290D02*
X020753Y031290D01*
X020753Y031449D02*
X015364Y031449D01*
X015205Y031607D02*
X020831Y031607D01*
X020753Y030656D02*
X016156Y030656D01*
X016315Y030498D02*
X020753Y030498D01*
X020753Y030339D02*
X016473Y030339D01*
X016632Y030181D02*
X020753Y030181D01*
X021653Y029388D02*
X016323Y029388D01*
X016323Y029230D02*
X021653Y029230D01*
X021653Y029071D02*
X016323Y029071D01*
X016323Y028913D02*
X021653Y028913D01*
X021653Y028754D02*
X016323Y028754D01*
X016323Y028596D02*
X021653Y028596D01*
X021653Y028437D02*
X016323Y028437D01*
X016323Y028279D02*
X021653Y028279D01*
X021653Y028120D02*
X016323Y028120D01*
X016323Y027962D02*
X021653Y027962D01*
X021653Y027803D02*
X016293Y027803D01*
X016153Y027645D02*
X020521Y027645D01*
X020354Y027486D02*
X015995Y027486D01*
X017961Y025743D02*
X019475Y025743D01*
X019464Y025728D02*
X019422Y025728D01*
X019290Y025674D01*
X019189Y025573D01*
X019135Y025441D01*
X019135Y025299D01*
X019141Y025283D01*
X019101Y025225D01*
X019077Y025195D01*
X019074Y025186D01*
X019068Y025177D01*
X019060Y025140D01*
X018901Y024615D01*
X018850Y024594D01*
X018838Y024581D01*
X018802Y024617D01*
X018699Y024660D01*
X018587Y024660D01*
X017137Y024660D01*
X017125Y024664D01*
X017081Y024660D01*
X017037Y024660D01*
X017026Y024655D01*
X017014Y024654D01*
X016975Y024634D01*
X016968Y024631D01*
X017200Y024923D01*
X018098Y025890D01*
X019587Y025890D01*
X019464Y025728D01*
X019201Y025584D02*
X017813Y025584D01*
X017666Y025426D02*
X019135Y025426D01*
X019130Y025267D02*
X017519Y025267D01*
X017372Y025109D02*
X019051Y025109D01*
X019003Y024950D02*
X017225Y024950D01*
X017095Y024792D02*
X018954Y024792D01*
X018906Y024633D02*
X018764Y024633D01*
X019053Y024290D02*
X019293Y025080D01*
X019493Y025370D01*
X019843Y025830D01*
X022843Y025830D01*
X023243Y025330D01*
X023528Y025109D02*
X023535Y025109D01*
X023535Y024950D02*
X022326Y024950D01*
X022250Y025109D02*
X022958Y025109D01*
X022732Y025584D02*
X020335Y025584D01*
X020053Y025360D02*
X020293Y024530D01*
X020293Y021430D01*
X022418Y021430D01*
X022771Y021463D02*
X023676Y021463D01*
X023535Y021305D02*
X022979Y021305D01*
X023155Y021146D02*
X023535Y021146D01*
X023535Y020988D02*
X023183Y020988D01*
X023183Y020829D02*
X023590Y020829D01*
X023749Y020671D02*
X023183Y020671D01*
X023183Y020512D02*
X023593Y020512D01*
X023435Y020354D02*
X023272Y020354D01*
X023418Y020195D02*
X023435Y020195D01*
X022263Y020195D02*
X015823Y020195D01*
X015823Y020037D02*
X022263Y020037D01*
X022263Y019878D02*
X015823Y019878D01*
X015823Y019720D02*
X022263Y019720D01*
X022263Y019561D02*
X015823Y019561D01*
X015823Y019403D02*
X022263Y019403D01*
X022263Y019244D02*
X015823Y019244D01*
X015823Y019086D02*
X022300Y019086D01*
X022306Y019071D02*
X022384Y018993D01*
X022487Y018950D01*
X023116Y018950D01*
X023140Y018926D01*
X023272Y018872D01*
X023329Y018872D01*
X022674Y018391D01*
X022657Y018383D01*
X022636Y018363D01*
X022612Y018345D01*
X022603Y018329D01*
X022589Y018316D01*
X022578Y018289D01*
X022563Y018263D01*
X022560Y018245D01*
X022553Y018228D01*
X022553Y018198D01*
X022548Y018169D01*
X022553Y018151D01*
X022553Y008404D01*
X021444Y007295D01*
X020458Y007295D01*
X020583Y007419D01*
X020653Y007588D01*
X020653Y008371D01*
X020583Y008541D01*
X020453Y008670D01*
X020284Y008740D01*
X020101Y008740D01*
X019932Y008670D01*
X019803Y008541D01*
X019733Y008371D01*
X019733Y007588D01*
X019803Y007419D01*
X019927Y007295D01*
X019358Y007295D01*
X019483Y007419D01*
X019553Y007588D01*
X019553Y008371D01*
X019483Y008541D01*
X019353Y008670D01*
X019184Y008740D01*
X019001Y008740D01*
X018832Y008670D01*
X018703Y008541D01*
X018633Y008371D01*
X018633Y007588D01*
X018703Y007419D01*
X018827Y007295D01*
X015811Y007295D01*
X015823Y007324D01*
X015823Y011204D01*
X015847Y011227D01*
X015901Y011359D01*
X015901Y011501D01*
X015847Y011633D01*
X015823Y011656D01*
X015823Y016704D01*
X015847Y016727D01*
X015901Y016859D01*
X015901Y017001D01*
X015847Y017133D01*
X015823Y017156D01*
X015823Y021204D01*
X015847Y021227D01*
X015901Y021359D01*
X015901Y021501D01*
X015847Y021633D01*
X015823Y021656D01*
X015823Y023450D01*
X016499Y023450D01*
X016511Y023446D01*
X016555Y023450D01*
X016599Y023450D01*
X016610Y023455D01*
X016622Y023456D01*
X016661Y023476D01*
X016702Y023493D01*
X016710Y023501D01*
X016721Y023507D01*
X016749Y023540D01*
X016780Y023571D01*
X016785Y023582D01*
X017223Y024100D01*
X018363Y024100D01*
X018363Y021523D01*
X018359Y021510D01*
X018363Y021467D01*
X018363Y021424D01*
X018368Y021412D01*
X018369Y021399D01*
X018389Y021361D01*
X018406Y021321D01*
X018415Y021312D01*
X018421Y021301D01*
X018454Y021273D01*
X018484Y021243D01*
X018496Y021238D01*
X019054Y020773D01*
X019084Y020743D01*
X019096Y020738D01*
X019106Y020729D01*
X019147Y020716D01*
X019187Y020700D01*
X019200Y020700D01*
X019213Y020696D01*
X019256Y020700D01*
X022127Y020700D01*
X022263Y020564D01*
X022263Y019174D01*
X022306Y019071D01*
X022757Y018452D02*
X015823Y018452D01*
X015823Y018610D02*
X022973Y018610D01*
X023188Y018769D02*
X015823Y018769D01*
X015823Y018927D02*
X023139Y018927D01*
X022580Y018293D02*
X015823Y018293D01*
X015823Y018135D02*
X022553Y018135D01*
X022553Y017976D02*
X015823Y017976D01*
X015823Y017818D02*
X022553Y017818D01*
X022553Y017659D02*
X015823Y017659D01*
X015823Y017501D02*
X022553Y017501D01*
X022553Y017342D02*
X015823Y017342D01*
X015823Y017184D02*
X022553Y017184D01*
X022553Y017025D02*
X015891Y017025D01*
X015901Y016867D02*
X022553Y016867D01*
X022553Y016708D02*
X015827Y016708D01*
X015823Y016550D02*
X022553Y016550D01*
X022553Y016391D02*
X015823Y016391D01*
X015823Y016233D02*
X022553Y016233D01*
X022553Y016074D02*
X015823Y016074D01*
X015823Y015916D02*
X022553Y015916D01*
X022553Y015757D02*
X015823Y015757D01*
X015823Y015599D02*
X022553Y015599D01*
X022553Y015440D02*
X015823Y015440D01*
X015823Y015282D02*
X022553Y015282D01*
X022553Y015123D02*
X015823Y015123D01*
X015823Y014965D02*
X022553Y014965D01*
X022553Y014806D02*
X015823Y014806D01*
X015823Y014648D02*
X018899Y014648D01*
X018832Y014620D02*
X018703Y014491D01*
X018633Y014321D01*
X018633Y013538D01*
X015823Y013538D01*
X015823Y013380D02*
X018699Y013380D01*
X018703Y013369D02*
X018832Y013240D01*
X019001Y013170D01*
X019184Y013170D01*
X019353Y013240D01*
X019483Y013369D01*
X019553Y013538D01*
X019733Y013538D01*
X019803Y013369D01*
X019932Y013240D01*
X020101Y013170D01*
X020284Y013170D01*
X020453Y013240D01*
X020583Y013369D01*
X020653Y013538D01*
X022553Y013538D01*
X022553Y013380D02*
X020587Y013380D01*
X020653Y013538D02*
X020653Y014321D01*
X020583Y014491D01*
X020453Y014620D01*
X020284Y014690D01*
X020101Y014690D01*
X019932Y014620D01*
X019803Y014491D01*
X019733Y014321D01*
X019733Y013538D01*
X019733Y013697D02*
X019553Y013697D01*
X019553Y013855D02*
X019733Y013855D01*
X019733Y014014D02*
X019553Y014014D01*
X019553Y014172D02*
X019733Y014172D01*
X019737Y014331D02*
X019549Y014331D01*
X019553Y014321D02*
X019483Y014491D01*
X019353Y014620D01*
X019184Y014690D01*
X019001Y014690D01*
X018832Y014620D01*
X018702Y014489D02*
X015823Y014489D01*
X015823Y014331D02*
X018637Y014331D01*
X018633Y014172D02*
X015823Y014172D01*
X015823Y014014D02*
X018633Y014014D01*
X018633Y013855D02*
X015823Y013855D01*
X015823Y013697D02*
X018633Y013697D01*
X018633Y013538D02*
X018703Y013369D01*
X018878Y013221D02*
X015823Y013221D01*
X015823Y013063D02*
X022553Y013063D01*
X022553Y013221D02*
X020408Y013221D01*
X019978Y013221D02*
X019308Y013221D01*
X019487Y013380D02*
X019799Y013380D01*
X019553Y013538D02*
X019553Y014321D01*
X019484Y014489D02*
X019802Y014489D01*
X019999Y014648D02*
X019287Y014648D01*
X020387Y014648D02*
X022553Y014648D01*
X022553Y014489D02*
X020584Y014489D01*
X020649Y014331D02*
X022553Y014331D01*
X022553Y014172D02*
X020653Y014172D01*
X020653Y014014D02*
X022553Y014014D01*
X022553Y013855D02*
X020653Y013855D01*
X020653Y013697D02*
X022553Y013697D01*
X022553Y012904D02*
X015823Y012904D01*
X015823Y012746D02*
X022553Y012746D01*
X022553Y012587D02*
X020486Y012587D01*
X020453Y012620D02*
X020284Y012690D01*
X020101Y012690D01*
X019932Y012620D01*
X019803Y012491D01*
X019733Y012321D01*
X019733Y011538D01*
X019803Y011369D01*
X019932Y011240D01*
X020101Y011170D01*
X020284Y011170D01*
X020453Y011240D01*
X020583Y011369D01*
X020653Y011538D01*
X020653Y012321D01*
X020583Y012491D01*
X020453Y012620D01*
X020609Y012429D02*
X022553Y012429D01*
X022553Y012270D02*
X020653Y012270D01*
X020653Y012112D02*
X022553Y012112D01*
X022553Y011953D02*
X020653Y011953D01*
X020653Y011795D02*
X022553Y011795D01*
X022553Y011636D02*
X020653Y011636D01*
X020628Y011478D02*
X022553Y011478D01*
X022553Y011319D02*
X020532Y011319D01*
X020284Y010690D02*
X020101Y010690D01*
X019932Y010620D01*
X019803Y010491D01*
X019733Y010321D01*
X019733Y009538D01*
X019803Y009369D01*
X019932Y009240D01*
X020101Y009170D01*
X020284Y009170D01*
X020453Y009240D01*
X020583Y009369D01*
X020653Y009538D01*
X020653Y010321D01*
X020583Y010491D01*
X020453Y010620D01*
X020284Y010690D01*
X020296Y010685D02*
X022553Y010685D01*
X022553Y010527D02*
X020547Y010527D01*
X020634Y010368D02*
X022553Y010368D01*
X022553Y010210D02*
X020653Y010210D01*
X020653Y010051D02*
X022553Y010051D01*
X022553Y009893D02*
X020653Y009893D01*
X020653Y009734D02*
X022553Y009734D01*
X022553Y009576D02*
X020653Y009576D01*
X020603Y009417D02*
X022553Y009417D01*
X022553Y009259D02*
X020472Y009259D01*
X019914Y009259D02*
X019372Y009259D01*
X019353Y009240D02*
X019483Y009369D01*
X019553Y009538D01*
X019553Y010321D01*
X019483Y010491D01*
X019353Y010620D01*
X019184Y010690D01*
X019001Y010690D01*
X018832Y010620D01*
X018703Y010491D01*
X018633Y010321D01*
X018633Y009538D01*
X018703Y009369D01*
X018832Y009240D01*
X019001Y009170D01*
X019184Y009170D01*
X019353Y009240D01*
X019503Y009417D02*
X019783Y009417D01*
X019733Y009576D02*
X019553Y009576D01*
X019553Y009734D02*
X019733Y009734D01*
X019733Y009893D02*
X019553Y009893D01*
X019553Y010051D02*
X019733Y010051D01*
X019733Y010210D02*
X019553Y010210D01*
X019534Y010368D02*
X019752Y010368D01*
X019839Y010527D02*
X019447Y010527D01*
X019196Y010685D02*
X020089Y010685D01*
X019853Y011319D02*
X019432Y011319D01*
X019483Y011369D02*
X019553Y011538D01*
X019553Y012321D01*
X019483Y012491D01*
X019353Y012620D01*
X019184Y012690D01*
X019001Y012690D01*
X018832Y012620D01*
X018703Y012491D01*
X018633Y012321D01*
X018633Y011538D01*
X018703Y011369D01*
X018832Y011240D01*
X019001Y011170D01*
X019184Y011170D01*
X019353Y011240D01*
X019483Y011369D01*
X019528Y011478D02*
X019758Y011478D01*
X019733Y011636D02*
X019553Y011636D01*
X019553Y011795D02*
X019733Y011795D01*
X019733Y011953D02*
X019553Y011953D01*
X019553Y012112D02*
X019733Y012112D01*
X019733Y012270D02*
X019553Y012270D01*
X019509Y012429D02*
X019777Y012429D01*
X019899Y012587D02*
X019386Y012587D01*
X018799Y012587D02*
X015823Y012587D01*
X015823Y012429D02*
X018677Y012429D01*
X018633Y012270D02*
X015823Y012270D01*
X015823Y012112D02*
X018633Y012112D01*
X018633Y011953D02*
X015823Y011953D01*
X015823Y011795D02*
X018633Y011795D01*
X018633Y011636D02*
X015843Y011636D01*
X015901Y011478D02*
X018658Y011478D01*
X018753Y011319D02*
X015885Y011319D01*
X015823Y011161D02*
X022553Y011161D01*
X022553Y011002D02*
X015823Y011002D01*
X015823Y010844D02*
X022553Y010844D01*
X022553Y009100D02*
X015823Y009100D01*
X015823Y008942D02*
X022553Y008942D01*
X022553Y008783D02*
X015823Y008783D01*
X015823Y008625D02*
X018787Y008625D01*
X018672Y008466D02*
X015823Y008466D01*
X015823Y008308D02*
X018633Y008308D01*
X018633Y008149D02*
X015823Y008149D01*
X015823Y007991D02*
X018633Y007991D01*
X018633Y007832D02*
X015823Y007832D01*
X015823Y007674D02*
X018633Y007674D01*
X018663Y007515D02*
X015823Y007515D01*
X015823Y007357D02*
X018766Y007357D01*
X019420Y007357D02*
X019866Y007357D01*
X019763Y007515D02*
X019522Y007515D01*
X019553Y007674D02*
X019733Y007674D01*
X019733Y007832D02*
X019553Y007832D01*
X019553Y007991D02*
X019733Y007991D01*
X019733Y008149D02*
X019553Y008149D01*
X019553Y008308D02*
X019733Y008308D01*
X019772Y008466D02*
X019514Y008466D01*
X019399Y008625D02*
X019887Y008625D01*
X020499Y008625D02*
X022553Y008625D01*
X022553Y008466D02*
X020614Y008466D01*
X020653Y008308D02*
X022456Y008308D01*
X022298Y008149D02*
X020653Y008149D01*
X020653Y007991D02*
X022139Y007991D01*
X021981Y007832D02*
X020653Y007832D01*
X020653Y007674D02*
X021822Y007674D01*
X021664Y007515D02*
X020622Y007515D01*
X020520Y007357D02*
X021505Y007357D01*
X021668Y006805D02*
X007293Y006805D01*
X006918Y007555D01*
X006918Y011555D01*
X006918Y015555D01*
X006918Y021180D01*
X006918Y025430D01*
X006918Y030180D01*
X006543Y029680D02*
X006543Y024955D01*
X006543Y020430D01*
X006543Y015055D01*
X006543Y010930D01*
X006543Y007680D01*
X007043Y006555D01*
X022043Y006555D01*
X023293Y007805D01*
X023293Y016680D01*
X023779Y017166D01*
X024065Y017166D01*
X023965Y017852D02*
X023043Y016930D01*
X023043Y008055D01*
X021793Y006805D01*
X021668Y006805D01*
X022391Y006564D02*
X023998Y006564D01*
X023860Y006723D02*
X022550Y006723D01*
X022708Y006881D02*
X023768Y006881D01*
X023717Y007040D02*
X022867Y007040D01*
X023025Y007198D02*
X023681Y007198D01*
X023681Y007357D02*
X023184Y007357D01*
X023342Y007515D02*
X023700Y007515D01*
X023743Y007674D02*
X023498Y007674D01*
X023533Y007832D02*
X023824Y007832D01*
X023936Y007991D02*
X023533Y007991D01*
X023533Y008149D02*
X024107Y008149D01*
X025464Y008942D02*
X025603Y008942D01*
X025595Y009100D02*
X025603Y009100D01*
X025595Y009259D02*
X025603Y009259D01*
X025595Y009417D02*
X025603Y009417D01*
X025603Y009576D02*
X025532Y009576D01*
X025603Y009734D02*
X025373Y009734D01*
X025315Y009893D02*
X025603Y009893D01*
X025603Y010051D02*
X025474Y010051D01*
X025495Y010210D02*
X025603Y010210D01*
X025603Y010368D02*
X025495Y010368D01*
X025481Y010527D02*
X025603Y010527D01*
X025603Y010685D02*
X025322Y010685D01*
X025398Y010844D02*
X025603Y010844D01*
X025603Y011002D02*
X025556Y011002D01*
X025595Y011161D02*
X025603Y011161D01*
X025595Y011319D02*
X025603Y011319D01*
X025595Y011478D02*
X025603Y011478D01*
X025603Y011636D02*
X025440Y011636D01*
X025277Y011795D02*
X025603Y011795D01*
X025603Y011953D02*
X025435Y011953D01*
X025515Y012112D02*
X025603Y012112D01*
X025603Y012270D02*
X025515Y012270D01*
X025515Y012429D02*
X025603Y012429D01*
X025603Y012587D02*
X025417Y012587D01*
X025488Y012746D02*
X025331Y012746D01*
X025582Y014965D02*
X031402Y014965D01*
X031693Y015180D02*
X031693Y015930D01*
X030543Y015930D01*
X030543Y017630D01*
X030156Y018017D01*
X030156Y018143D01*
X030514Y018135D02*
X030553Y018135D01*
X030553Y018293D02*
X030481Y018293D01*
X030553Y018452D02*
X030345Y018452D01*
X030536Y017976D02*
X030553Y017976D01*
X030543Y017680D02*
X030543Y017630D01*
X030783Y016550D02*
X030834Y016550D01*
X030783Y016391D02*
X030992Y016391D01*
X031151Y016233D02*
X030783Y016233D01*
X027700Y016391D02*
X027386Y016391D01*
X027459Y016233D02*
X027627Y016233D01*
X027623Y016074D02*
X027463Y016074D01*
X027463Y015916D02*
X027623Y015916D01*
X027623Y015757D02*
X027463Y015757D01*
X027463Y015599D02*
X027623Y015599D01*
X027663Y015440D02*
X027423Y015440D01*
X027298Y015282D02*
X027787Y015282D01*
X023965Y017852D02*
X023965Y018166D01*
X022263Y020354D02*
X015823Y020354D01*
X015823Y020512D02*
X022263Y020512D01*
X022156Y020671D02*
X015823Y020671D01*
X015823Y020829D02*
X018987Y020829D01*
X018797Y020988D02*
X015823Y020988D01*
X015823Y021146D02*
X018606Y021146D01*
X018419Y021305D02*
X015879Y021305D01*
X015901Y021463D02*
X018363Y021463D01*
X018363Y021622D02*
X015851Y021622D01*
X015823Y021780D02*
X018363Y021780D01*
X018363Y021939D02*
X015823Y021939D01*
X015823Y022097D02*
X018363Y022097D01*
X018363Y022256D02*
X015823Y022256D01*
X015823Y022414D02*
X018363Y022414D01*
X018363Y022573D02*
X015823Y022573D01*
X015823Y022731D02*
X018363Y022731D01*
X018363Y022890D02*
X015823Y022890D01*
X015823Y023048D02*
X018363Y023048D01*
X018363Y023207D02*
X015823Y023207D01*
X015823Y023365D02*
X018363Y023365D01*
X018363Y023524D02*
X016735Y023524D01*
X016869Y023682D02*
X018363Y023682D01*
X018363Y023841D02*
X017003Y023841D01*
X017137Y023999D02*
X018363Y023999D01*
X019673Y024640D02*
X019743Y022630D01*
X022405Y024792D02*
X023565Y024792D01*
X024965Y026040D02*
X025153Y026040D01*
X026293Y027180D01*
X026053Y027328D02*
X025496Y027328D01*
X025595Y027169D02*
X025943Y027169D01*
X025784Y027011D02*
X025595Y027011D01*
X025595Y026852D02*
X025626Y026852D01*
X025338Y027486D02*
X026053Y027486D01*
X026053Y027645D02*
X025351Y027645D01*
X025495Y027803D02*
X026053Y027803D01*
X026053Y027962D02*
X025495Y027962D01*
X025495Y028120D02*
X026053Y028120D01*
X026053Y028279D02*
X025445Y028279D01*
X025287Y028437D02*
X026053Y028437D01*
X026053Y028596D02*
X022133Y028596D01*
X022133Y028754D02*
X026053Y028754D01*
X026053Y028913D02*
X022133Y028913D01*
X022133Y029071D02*
X026053Y029071D01*
X026053Y029230D02*
X025193Y029230D01*
X025416Y029388D02*
X026053Y029388D01*
X026053Y029547D02*
X025559Y029547D01*
X025650Y029705D02*
X026053Y029705D01*
X024231Y029230D02*
X022133Y029230D01*
X022133Y029388D02*
X024008Y029388D01*
X023866Y029547D02*
X022133Y029547D01*
X022133Y029705D02*
X023774Y029705D01*
X023719Y029864D02*
X022133Y029864D01*
X022133Y030022D02*
X023681Y030022D01*
X023644Y028437D02*
X022133Y028437D01*
X022133Y028279D02*
X023486Y028279D01*
X023435Y028120D02*
X022133Y028120D01*
X022133Y027962D02*
X023435Y027962D01*
X023364Y027803D02*
X022133Y027803D01*
X022133Y027645D02*
X023205Y027645D01*
X023162Y027486D02*
X022133Y027486D01*
X022133Y027328D02*
X023154Y027328D01*
X024287Y028437D02*
X024644Y028437D01*
X024486Y028279D02*
X024445Y028279D01*
X021653Y027645D02*
X020825Y027645D01*
X017018Y025080D02*
X016343Y024230D01*
X016969Y024633D02*
X016972Y024633D01*
X012403Y024633D02*
X012001Y024633D01*
X012001Y024609D02*
X012001Y024751D01*
X011992Y024772D01*
X012114Y024772D01*
X012246Y024826D01*
X012347Y024927D01*
X012401Y025059D01*
X012401Y025201D01*
X012347Y025333D01*
X012246Y025434D01*
X012114Y025488D01*
X011991Y025488D01*
X011405Y025982D01*
X011379Y026008D01*
X011369Y026012D01*
X011361Y026019D01*
X011325Y026031D01*
X011291Y026045D01*
X011280Y026045D01*
X011270Y026048D01*
X011233Y026045D01*
X010184Y026045D01*
X010121Y026109D01*
X009989Y026163D01*
X009847Y026163D01*
X009715Y026109D01*
X009614Y026008D01*
X009560Y025876D01*
X009560Y025734D01*
X009614Y025602D01*
X009715Y025501D01*
X009847Y025447D01*
X009989Y025447D01*
X010121Y025501D01*
X010184Y025565D01*
X011155Y025565D01*
X011685Y025118D01*
X011685Y025059D01*
X011693Y025038D01*
X011572Y025038D01*
X011440Y024984D01*
X011376Y024920D01*
X008745Y024920D01*
X008657Y024883D01*
X008589Y024816D01*
X008273Y024499D01*
X008262Y024510D01*
X007823Y024510D01*
X007533Y024220D01*
X007533Y025914D01*
X007597Y025977D01*
X007651Y026109D01*
X007651Y026251D01*
X007597Y026383D01*
X007533Y026446D01*
X007533Y026995D01*
X007562Y026966D01*
X007603Y026942D01*
X007649Y026930D01*
X008034Y026930D01*
X008034Y027471D01*
X008051Y027471D01*
X008051Y026930D01*
X008437Y026930D01*
X008482Y026942D01*
X008523Y026966D01*
X008557Y026999D01*
X008581Y027041D01*
X008592Y027082D01*
X008823Y026850D01*
X009262Y026850D01*
X009573Y027160D01*
X009573Y027200D01*
X009823Y026950D01*
X010262Y026950D01*
X010513Y027200D01*
X010513Y027160D01*
X010823Y026850D01*
X011262Y026850D01*
X011573Y027160D01*
X011573Y027200D01*
X011823Y026950D01*
X012262Y026950D01*
X012383Y027071D01*
X012403Y027056D01*
X012403Y024370D01*
X012262Y024510D01*
X011960Y024510D01*
X012001Y024609D01*
X012162Y024792D02*
X012403Y024792D01*
X012403Y024950D02*
X012356Y024950D01*
X012401Y025109D02*
X012403Y025109D01*
X012403Y025267D02*
X012374Y025267D01*
X012403Y025426D02*
X012254Y025426D01*
X012403Y025584D02*
X011877Y025584D01*
X011689Y025743D02*
X012403Y025743D01*
X012403Y025901D02*
X011501Y025901D01*
X011243Y025805D02*
X012043Y025130D01*
X011685Y025109D02*
X007533Y025109D01*
X007533Y025267D02*
X011508Y025267D01*
X011320Y025426D02*
X007533Y025426D01*
X007533Y025584D02*
X009632Y025584D01*
X009560Y025743D02*
X007533Y025743D01*
X007533Y025901D02*
X009570Y025901D01*
X009666Y026060D02*
X007631Y026060D01*
X007651Y026218D02*
X012403Y026218D01*
X012403Y026060D02*
X010170Y026060D01*
X009918Y025805D02*
X011243Y025805D01*
X011406Y024950D02*
X007533Y024950D01*
X007533Y024792D02*
X008565Y024792D01*
X008407Y024633D02*
X007533Y024633D01*
X007533Y024475D02*
X007788Y024475D01*
X007629Y024316D02*
X007533Y024316D01*
X008043Y023980D02*
X008093Y023980D01*
X008793Y024680D01*
X011643Y024680D01*
X012298Y024475D02*
X012403Y024475D01*
X011573Y022700D02*
X011823Y022450D01*
X012244Y022450D01*
X012403Y022318D01*
X012403Y019870D01*
X012262Y020010D01*
X012006Y020010D01*
X012046Y020026D01*
X012147Y020127D01*
X012201Y020259D01*
X012201Y020401D01*
X012147Y020533D01*
X012046Y020634D01*
X011914Y020688D01*
X011772Y020688D01*
X011640Y020634D01*
X011576Y020570D01*
X008645Y020570D01*
X008557Y020533D01*
X008489Y020466D01*
X008034Y020010D01*
X007823Y020010D01*
X007533Y019720D01*
X007533Y021414D01*
X007597Y021477D01*
X007651Y021609D01*
X007651Y021751D01*
X007597Y021883D01*
X007533Y021946D01*
X007533Y022495D01*
X007562Y022466D01*
X007603Y022442D01*
X007649Y022430D01*
X008034Y022430D01*
X008034Y022971D01*
X008051Y022971D01*
X008051Y022430D01*
X008437Y022430D01*
X008482Y022442D01*
X008523Y022466D01*
X008557Y022499D01*
X008581Y022541D01*
X008592Y022582D01*
X008823Y022350D01*
X009262Y022350D01*
X009573Y022660D01*
X009573Y022700D01*
X009823Y022450D01*
X010262Y022450D01*
X010513Y022700D01*
X010513Y022660D01*
X010823Y022350D01*
X011262Y022350D01*
X011573Y022660D01*
X011573Y022700D01*
X011485Y022573D02*
X011701Y022573D01*
X011326Y022414D02*
X012287Y022414D01*
X012403Y022256D02*
X007533Y022256D01*
X007533Y022414D02*
X008759Y022414D01*
X008601Y022573D02*
X008589Y022573D01*
X008051Y022573D02*
X008034Y022573D01*
X008034Y022731D02*
X008051Y022731D01*
X008034Y022890D02*
X008051Y022890D01*
X007533Y022097D02*
X012403Y022097D01*
X012403Y021939D02*
X007541Y021939D01*
X007639Y021780D02*
X012403Y021780D01*
X012403Y021622D02*
X007651Y021622D01*
X007582Y021463D02*
X012403Y021463D01*
X012403Y021305D02*
X007533Y021305D01*
X007533Y021146D02*
X012403Y021146D01*
X012403Y020988D02*
X007533Y020988D01*
X007533Y020829D02*
X012403Y020829D01*
X012403Y020671D02*
X011957Y020671D01*
X011729Y020671D02*
X007533Y020671D01*
X007533Y020512D02*
X008536Y020512D01*
X008377Y020354D02*
X007533Y020354D01*
X007533Y020195D02*
X008219Y020195D01*
X008060Y020037D02*
X007533Y020037D01*
X007533Y019878D02*
X007691Y019878D01*
X008043Y019680D02*
X008043Y019480D01*
X008043Y019680D02*
X008693Y020330D01*
X011843Y020330D01*
X012175Y020195D02*
X012403Y020195D01*
X012403Y020037D02*
X012056Y020037D01*
X012201Y020354D02*
X012403Y020354D01*
X012403Y020512D02*
X012155Y020512D01*
X012394Y019878D02*
X012403Y019878D01*
X011573Y018200D02*
X011823Y017950D01*
X012234Y017950D01*
X012403Y017781D01*
X012403Y014620D01*
X012262Y014760D01*
X012110Y014760D01*
X012151Y014859D01*
X012151Y015001D01*
X012097Y015133D01*
X011996Y015234D01*
X011864Y015288D01*
X011722Y015288D01*
X011590Y015234D01*
X011526Y015170D01*
X008495Y015170D01*
X008407Y015133D01*
X008339Y015066D01*
X008034Y014760D01*
X007823Y014760D01*
X007533Y014470D01*
X007533Y017164D01*
X007597Y017227D01*
X007651Y017359D01*
X007651Y017501D01*
X007597Y017633D01*
X007533Y017696D01*
X007533Y017995D01*
X007562Y017966D01*
X007603Y017942D01*
X007649Y017930D01*
X008034Y017930D01*
X008034Y018471D01*
X008051Y018471D01*
X008051Y017930D01*
X008437Y017930D01*
X008482Y017942D01*
X008523Y017966D01*
X008557Y017999D01*
X008581Y018041D01*
X008592Y018082D01*
X008823Y017850D01*
X009262Y017850D01*
X009573Y018160D01*
X009573Y018200D01*
X009823Y017950D01*
X010262Y017950D01*
X010513Y018200D01*
X010513Y018160D01*
X010823Y017850D01*
X011262Y017850D01*
X011573Y018160D01*
X011573Y018200D01*
X011547Y018135D02*
X011639Y018135D01*
X011797Y017976D02*
X011388Y017976D01*
X010697Y017976D02*
X010288Y017976D01*
X010447Y018135D02*
X010539Y018135D01*
X009797Y017976D02*
X009388Y017976D01*
X009547Y018135D02*
X009639Y018135D01*
X008697Y017976D02*
X008533Y017976D01*
X008051Y017976D02*
X008034Y017976D01*
X008034Y018135D02*
X008051Y018135D01*
X008034Y018293D02*
X008051Y018293D01*
X008034Y018452D02*
X008051Y018452D01*
X007552Y017976D02*
X007533Y017976D01*
X007533Y017818D02*
X012366Y017818D01*
X012403Y017659D02*
X007570Y017659D01*
X007651Y017501D02*
X012403Y017501D01*
X012403Y017342D02*
X007644Y017342D01*
X007553Y017184D02*
X012403Y017184D01*
X012403Y017025D02*
X007533Y017025D01*
X007533Y016867D02*
X012403Y016867D01*
X012403Y016708D02*
X007533Y016708D01*
X007533Y016550D02*
X012403Y016550D01*
X012403Y016391D02*
X007533Y016391D01*
X007533Y016233D02*
X012403Y016233D01*
X012403Y016074D02*
X007533Y016074D01*
X007533Y015916D02*
X012403Y015916D01*
X012403Y015757D02*
X007533Y015757D01*
X007533Y015599D02*
X012403Y015599D01*
X012403Y015440D02*
X007533Y015440D01*
X007533Y015282D02*
X011706Y015282D01*
X011880Y015282D02*
X012403Y015282D01*
X012403Y015123D02*
X012101Y015123D01*
X012151Y014965D02*
X012403Y014965D01*
X012403Y014806D02*
X012129Y014806D01*
X012375Y014648D02*
X012403Y014648D01*
X011793Y014930D02*
X008543Y014930D01*
X008043Y014430D01*
X008043Y014230D01*
X007711Y014648D02*
X007533Y014648D01*
X007533Y014806D02*
X008080Y014806D01*
X008238Y014965D02*
X007533Y014965D01*
X007533Y015123D02*
X008397Y015123D01*
X007552Y014489D02*
X007533Y014489D01*
X008034Y013221D02*
X008051Y013221D01*
X008034Y013221D01*
X008034Y012680D01*
X007649Y012680D01*
X007603Y012692D01*
X007562Y012716D01*
X007533Y012745D01*
X007533Y012196D01*
X007597Y012133D01*
X007651Y012001D01*
X007651Y011859D01*
X007597Y011727D01*
X007533Y011664D01*
X007533Y009720D01*
X007823Y010010D01*
X007934Y010010D01*
X008339Y010416D01*
X008407Y010483D01*
X008495Y010520D01*
X011326Y010520D01*
X011390Y010584D01*
X011522Y010638D01*
X011664Y010638D01*
X011796Y010584D01*
X011803Y010576D01*
X011803Y012720D01*
X011573Y012950D01*
X011573Y012910D01*
X011262Y012600D01*
X010823Y012600D01*
X010513Y012910D01*
X010513Y012950D01*
X010262Y012700D01*
X009823Y012700D01*
X009573Y012950D01*
X009573Y012910D01*
X009262Y012600D01*
X008823Y012600D01*
X008592Y012832D01*
X008581Y012791D01*
X008557Y012749D01*
X008523Y012716D01*
X008482Y012692D01*
X008437Y012680D01*
X008051Y012680D01*
X008051Y013221D01*
X008034Y013063D02*
X008051Y013063D01*
X008034Y012904D02*
X008051Y012904D01*
X008034Y012746D02*
X008051Y012746D01*
X008553Y012746D02*
X008678Y012746D01*
X009408Y012746D02*
X009778Y012746D01*
X009619Y012904D02*
X009566Y012904D01*
X010308Y012746D02*
X010678Y012746D01*
X010519Y012904D02*
X010466Y012904D01*
X011408Y012746D02*
X011778Y012746D01*
X011803Y012587D02*
X007533Y012587D01*
X007533Y012429D02*
X011803Y012429D01*
X011803Y012270D02*
X007533Y012270D01*
X007605Y012112D02*
X011803Y012112D01*
X011803Y011953D02*
X007651Y011953D01*
X007624Y011795D02*
X011803Y011795D01*
X011803Y011636D02*
X007533Y011636D01*
X007533Y011478D02*
X011803Y011478D01*
X011803Y011319D02*
X007533Y011319D01*
X007533Y011161D02*
X011803Y011161D01*
X011803Y011002D02*
X007533Y011002D01*
X007533Y010844D02*
X011803Y010844D01*
X011803Y010685D02*
X007533Y010685D01*
X007533Y010527D02*
X011333Y010527D01*
X011593Y010280D02*
X008543Y010280D01*
X008043Y009780D01*
X008043Y009480D01*
X007706Y009893D02*
X007533Y009893D01*
X007533Y010051D02*
X007975Y010051D01*
X008133Y010210D02*
X007533Y010210D01*
X007533Y010368D02*
X008292Y010368D01*
X007547Y009734D02*
X007533Y009734D01*
X008034Y008466D02*
X008051Y008466D01*
X008034Y008308D02*
X008051Y008308D01*
X008034Y008149D02*
X008051Y008149D01*
X008034Y007991D02*
X008051Y007991D01*
X007538Y007991D02*
X007533Y007991D01*
X006303Y007991D02*
X006197Y007991D01*
X006303Y008149D02*
X006026Y008149D01*
X011566Y012904D02*
X011619Y012904D01*
X014599Y010527D02*
X014683Y010527D01*
X015823Y010527D02*
X018739Y010527D01*
X018652Y010368D02*
X015823Y010368D01*
X015823Y010210D02*
X018633Y010210D01*
X018633Y010051D02*
X015823Y010051D01*
X015823Y009893D02*
X018633Y009893D01*
X018633Y009734D02*
X015823Y009734D01*
X015823Y009576D02*
X018633Y009576D01*
X018683Y009417D02*
X015823Y009417D01*
X015823Y009259D02*
X018814Y009259D01*
X018989Y010685D02*
X015823Y010685D01*
X025427Y006564D02*
X042284Y006564D01*
X042285Y006723D02*
X025565Y006723D01*
X025656Y006881D02*
X042285Y006881D01*
X040583Y008149D02*
X040523Y008149D01*
X040523Y008308D02*
X040598Y008308D01*
X040678Y008466D02*
X040487Y008466D01*
X038402Y014965D02*
X036363Y014965D01*
X036363Y015123D02*
X038300Y015123D01*
X038285Y015282D02*
X036363Y015282D01*
X036363Y015440D02*
X038346Y015440D01*
X038403Y015599D02*
X036363Y015599D01*
X036363Y015757D02*
X038403Y015757D01*
X038403Y015916D02*
X036363Y015916D01*
X036363Y016074D02*
X038403Y016074D01*
X038403Y016233D02*
X036363Y016233D01*
X036363Y016391D02*
X038403Y016391D01*
X038403Y016550D02*
X036363Y016550D01*
X036380Y016708D02*
X038403Y016708D01*
X038367Y016867D02*
X036401Y016867D01*
X038343Y017230D02*
X038643Y016930D01*
X038643Y015230D01*
X030418Y021555D02*
X030168Y021805D01*
X029918Y021805D01*
X030240Y022573D02*
X030281Y022573D01*
X030182Y022731D02*
X030081Y022731D01*
X030143Y022890D02*
X029923Y022890D01*
X029764Y023048D02*
X030148Y023048D01*
X030214Y023207D02*
X029606Y023207D01*
X029447Y023365D02*
X030358Y023365D01*
X030330Y023524D02*
X029408Y023524D01*
X029408Y023682D02*
X030202Y023682D01*
X030143Y023841D02*
X029408Y023841D01*
X029408Y023999D02*
X030143Y023999D01*
X030193Y024158D02*
X029408Y024158D01*
X029408Y024316D02*
X030309Y024316D01*
X028928Y024475D02*
X026901Y024475D01*
X026303Y024633D02*
X025408Y024633D01*
X033289Y029388D02*
X034846Y029388D01*
X034627Y029547D02*
X034359Y029547D01*
X034503Y029705D02*
X034542Y029705D01*
X033727Y029547D02*
X033480Y029547D01*
X033564Y029705D02*
X033583Y029705D01*
X036433Y030339D02*
X036766Y030339D01*
X036594Y030181D02*
X036534Y030181D01*
X037320Y030339D02*
X042339Y030339D01*
X042338Y030181D02*
X037492Y030181D01*
X037558Y030022D02*
X042338Y030022D01*
X042338Y029864D02*
X037573Y029864D01*
X037544Y029705D02*
X042337Y029705D01*
X042337Y029547D02*
X037459Y029547D01*
X039901Y030656D02*
X039997Y030656D01*
X039997Y030815D02*
X039901Y030815D01*
X039901Y030973D02*
X039997Y030973D01*
X039997Y031132D02*
X039901Y031132D01*
X039901Y031290D02*
X039997Y031290D01*
X039997Y031449D02*
X039901Y031449D01*
X042342Y031766D02*
X026922Y031766D01*
X026763Y031924D02*
X042342Y031924D01*
X042343Y032083D02*
X026605Y032083D01*
X026446Y032241D02*
X042343Y032241D01*
X042344Y032400D02*
X026288Y032400D01*
X026129Y032558D02*
X042344Y032558D01*
X042357Y038106D02*
X004603Y038106D01*
X005282Y036521D02*
X006359Y036521D01*
X006453Y036362D02*
X005480Y036362D01*
X005706Y036204D02*
X006453Y036204D01*
X006453Y036045D02*
X006062Y036045D01*
X006421Y035887D02*
X006453Y035887D01*
X005951Y035570D02*
X004603Y035570D01*
X004603Y035728D02*
X005594Y035728D01*
X006053Y035411D02*
X004603Y035411D01*
X004603Y035253D02*
X006053Y035253D01*
X006053Y035094D02*
X004603Y035094D01*
X004603Y034936D02*
X006053Y034936D01*
X006053Y034777D02*
X004603Y034777D01*
X004603Y034619D02*
X006053Y034619D01*
X006053Y034460D02*
X004603Y034460D01*
X004603Y034302D02*
X006053Y034302D01*
X006053Y034143D02*
X004603Y034143D01*
X004603Y033985D02*
X006053Y033985D01*
X006076Y033826D02*
X004603Y033826D01*
X004603Y033668D02*
X006216Y033668D01*
X006157Y033727D02*
X006157Y033727D01*
X006374Y033509D02*
X004603Y033509D01*
X004603Y033351D02*
X006332Y033351D01*
X008043Y034805D02*
X008418Y034430D01*
X010043Y034430D01*
X010352Y034619D02*
X023053Y034619D01*
X023293Y034930D02*
X023293Y031680D01*
X023293Y034930D02*
X010043Y034930D01*
X010043Y035930D01*
X009043Y036830D02*
X009043Y037630D01*
X008043Y035930D02*
X008043Y034805D01*
X011519Y031607D02*
X011666Y031607D01*
X012043Y030430D02*
X012043Y029430D01*
X012099Y029071D02*
X007533Y029071D01*
X007533Y028913D02*
X007726Y028913D01*
X007567Y028754D02*
X007533Y028754D01*
X008360Y028913D02*
X009726Y028913D01*
X009567Y028754D02*
X009418Y028754D01*
X008667Y028754D02*
X008518Y028754D01*
X008051Y027328D02*
X008034Y027328D01*
X008034Y027169D02*
X008051Y027169D01*
X008034Y027011D02*
X008051Y027011D01*
X008563Y027011D02*
X008663Y027011D01*
X008821Y026852D02*
X007533Y026852D01*
X007533Y026694D02*
X012403Y026694D01*
X012403Y026852D02*
X011264Y026852D01*
X011423Y027011D02*
X011763Y027011D01*
X011604Y027169D02*
X011573Y027169D01*
X012043Y027480D02*
X012243Y027480D01*
X012293Y027430D01*
X012323Y027011D02*
X012403Y027011D01*
X012403Y026535D02*
X007533Y026535D01*
X007599Y026377D02*
X012403Y026377D01*
X010821Y026852D02*
X009264Y026852D01*
X009423Y027011D02*
X009763Y027011D01*
X009604Y027169D02*
X009573Y027169D01*
X010323Y027011D02*
X010663Y027011D01*
X010513Y027169D02*
X010481Y027169D01*
X010518Y028754D02*
X010667Y028754D01*
X010360Y028913D02*
X011726Y028913D01*
X011567Y028754D02*
X011418Y028754D01*
X012283Y029705D02*
X012759Y029705D01*
X012683Y029864D02*
X012283Y029864D01*
X012283Y030022D02*
X012691Y030022D01*
X012784Y030181D02*
X012300Y030181D01*
X015043Y033509D02*
X015043Y033509D01*
X014584Y033668D02*
X014502Y033668D01*
X014393Y034302D02*
X014693Y034302D01*
X014710Y035570D02*
X014375Y035570D01*
X014533Y035728D02*
X014553Y035728D01*
X014553Y035887D02*
X014533Y035887D01*
X014533Y036045D02*
X014553Y036045D01*
X014623Y036204D02*
X014462Y036204D01*
X015043Y036838D02*
X015043Y036838D01*
X015462Y036204D02*
X015623Y036204D01*
X015553Y036045D02*
X015533Y036045D01*
X015533Y035887D02*
X015553Y035887D01*
X015553Y035728D02*
X015533Y035728D01*
X015375Y035570D02*
X015710Y035570D01*
X021793Y036055D02*
X021943Y035730D01*
X010601Y022573D02*
X010385Y022573D01*
X010759Y022414D02*
X009326Y022414D01*
X009485Y022573D02*
X009701Y022573D01*
X025843Y008730D02*
X025918Y008680D01*
X026276Y008625D02*
X026769Y008625D01*
X026624Y008466D02*
X026210Y008466D01*
X028393Y008625D02*
X028769Y008625D01*
X028624Y008466D02*
X028543Y008466D01*
D11*
X030673Y022930D02*
X031413Y022930D01*
X031413Y023930D02*
X030673Y023930D01*
D12*
X027343Y023030D02*
X026743Y023030D01*
X026743Y021930D02*
X027343Y021930D01*
X020193Y014230D02*
X020193Y013630D01*
X019093Y013630D02*
X019093Y014230D01*
X019093Y012230D02*
X019093Y011630D01*
X020193Y011630D02*
X020193Y012230D01*
X020193Y010230D02*
X020193Y009630D01*
X019093Y009630D02*
X019093Y010230D01*
X019093Y008280D02*
X019093Y007680D01*
X020193Y007680D02*
X020193Y008280D01*
X027043Y008230D02*
X027043Y007630D01*
X028143Y007630D02*
X028143Y008230D01*
X029043Y008230D02*
X029043Y007630D01*
X030143Y007630D02*
X030143Y008230D01*
X031043Y008230D02*
X031043Y007630D01*
X032143Y007630D02*
X032143Y008230D01*
X034043Y008280D02*
X034043Y007680D01*
X035043Y007580D02*
X035043Y008180D01*
X036043Y008280D02*
X036043Y007680D01*
X037043Y007680D02*
X037043Y008280D01*
X038043Y008180D02*
X038043Y007580D01*
X039043Y007680D02*
X039043Y008280D01*
X040043Y008280D02*
X040043Y007680D01*
X041043Y007580D02*
X041043Y008180D01*
X042043Y008280D02*
X042043Y007680D01*
D13*
X008043Y008480D03*
X008043Y013230D03*
X008043Y018480D03*
X008043Y022980D03*
X008043Y027480D03*
X008043Y031980D03*
D14*
X008043Y032980D03*
X009043Y032880D03*
X009043Y031880D03*
X010043Y031980D03*
X010043Y032980D03*
X011043Y032880D03*
X011043Y031880D03*
X012043Y031980D03*
X012043Y032980D03*
X010043Y035930D03*
X010043Y036930D03*
X009043Y036830D03*
X009043Y035830D03*
X008043Y035930D03*
X008043Y036930D03*
X008043Y028480D03*
X009043Y028380D03*
X009043Y027380D03*
X010043Y027480D03*
X011043Y027380D03*
X011043Y028380D03*
X012043Y028480D03*
X012043Y027480D03*
X010043Y028480D03*
X010043Y023980D03*
X010043Y022980D03*
X011043Y022880D03*
X012043Y022980D03*
X012043Y023980D03*
X011043Y023880D03*
X009043Y023880D03*
X008043Y023980D03*
X009043Y022880D03*
X009043Y019380D03*
X009043Y018380D03*
X010043Y018480D03*
X010043Y019480D03*
X011043Y019380D03*
X011043Y018380D03*
X012043Y018480D03*
X012043Y019480D03*
X008043Y019480D03*
X008043Y014230D03*
X009043Y014130D03*
X010043Y014230D03*
X010043Y013230D03*
X011043Y013130D03*
X012043Y013230D03*
X012043Y014230D03*
X011043Y014130D03*
X009043Y013130D03*
X009043Y009380D03*
X010043Y009480D03*
X011043Y009380D03*
X012043Y009480D03*
X012043Y008480D03*
X011043Y008380D03*
X010043Y008480D03*
X009043Y008380D03*
X008043Y009480D03*
X023965Y010292D03*
X024065Y011261D03*
X025065Y011261D03*
X024965Y010292D03*
X025065Y009292D03*
X024065Y009292D03*
X023965Y012261D03*
X024965Y012261D03*
X025065Y013229D03*
X024065Y013229D03*
X023965Y014229D03*
X024065Y015198D03*
X025065Y015198D03*
X024965Y014229D03*
X024965Y016198D03*
X025065Y017166D03*
X024065Y017166D03*
X023965Y016198D03*
X023965Y018166D03*
X024965Y018166D03*
X025065Y019135D03*
X024065Y019135D03*
X023965Y020135D03*
X024065Y021103D03*
X025065Y021103D03*
X024965Y020135D03*
X024965Y022103D03*
X025065Y023072D03*
X024065Y023072D03*
X023965Y022103D03*
X023965Y024072D03*
X024065Y025040D03*
X025065Y025040D03*
X024965Y024072D03*
X024965Y026040D03*
X025065Y027009D03*
X024065Y027009D03*
X023965Y026040D03*
X023965Y028009D03*
X024965Y028009D03*
D15*
X032043Y029980D03*
X033043Y029880D03*
X034043Y029980D03*
X035043Y029880D03*
X036043Y029980D03*
X037043Y029880D03*
X042043Y028705D03*
X042043Y026705D03*
D16*
X042043Y022930D03*
X042043Y017930D03*
X042043Y012930D03*
X041918Y031055D03*
D17*
X039949Y031055D03*
X042043Y024899D03*
X042043Y019899D03*
X042043Y014899D03*
D18*
X028043Y015620D02*
X028043Y016140D01*
X027043Y016140D02*
X027043Y015620D01*
D19*
X021043Y032930D03*
X021043Y033930D03*
X020043Y033930D03*
X020043Y032930D03*
X019043Y032930D03*
X019043Y033930D03*
X018043Y033930D03*
X018043Y032930D03*
X017043Y032930D03*
X017043Y033930D03*
X016043Y033930D03*
X016043Y032930D03*
X015043Y032930D03*
X015043Y033930D03*
X014043Y033930D03*
X014043Y032930D03*
X014043Y035930D03*
X015043Y035930D03*
X016043Y035930D03*
X017043Y035930D03*
X018043Y035930D03*
X019043Y035930D03*
X020043Y035930D03*
X021043Y035930D03*
X021043Y036930D03*
X020043Y036930D03*
X019043Y036930D03*
X018043Y036930D03*
X017043Y036930D03*
X016043Y036930D03*
X015043Y036930D03*
X014043Y036930D03*
D20*
X004870Y030143D02*
X004872Y030190D01*
X004878Y030236D01*
X004888Y030282D01*
X004901Y030327D01*
X004919Y030370D01*
X004940Y030412D01*
X004964Y030452D01*
X004992Y030489D01*
X005023Y030524D01*
X005057Y030557D01*
X005093Y030586D01*
X005132Y030612D01*
X005173Y030635D01*
X005216Y030654D01*
X005260Y030670D01*
X005305Y030682D01*
X005351Y030690D01*
X005398Y030694D01*
X005444Y030694D01*
X005491Y030690D01*
X005537Y030682D01*
X005582Y030670D01*
X005626Y030654D01*
X005669Y030635D01*
X005710Y030612D01*
X005749Y030586D01*
X005785Y030557D01*
X005819Y030524D01*
X005850Y030489D01*
X005878Y030452D01*
X005902Y030412D01*
X005923Y030370D01*
X005941Y030327D01*
X005954Y030282D01*
X005964Y030236D01*
X005970Y030190D01*
X005972Y030143D01*
X005970Y030096D01*
X005964Y030050D01*
X005954Y030004D01*
X005941Y029959D01*
X005923Y029916D01*
X005902Y029874D01*
X005878Y029834D01*
X005850Y029797D01*
X005819Y029762D01*
X005785Y029729D01*
X005749Y029700D01*
X005710Y029674D01*
X005669Y029651D01*
X005626Y029632D01*
X005582Y029616D01*
X005537Y029604D01*
X005491Y029596D01*
X005444Y029592D01*
X005398Y029592D01*
X005351Y029596D01*
X005305Y029604D01*
X005260Y029616D01*
X005216Y029632D01*
X005173Y029651D01*
X005132Y029674D01*
X005093Y029700D01*
X005057Y029729D01*
X005023Y029762D01*
X004992Y029797D01*
X004964Y029834D01*
X004940Y029874D01*
X004919Y029916D01*
X004901Y029959D01*
X004888Y030004D01*
X004878Y030050D01*
X004872Y030096D01*
X004870Y030143D01*
X024161Y030143D02*
X024163Y030190D01*
X024169Y030236D01*
X024179Y030282D01*
X024192Y030327D01*
X024210Y030370D01*
X024231Y030412D01*
X024255Y030452D01*
X024283Y030489D01*
X024314Y030524D01*
X024348Y030557D01*
X024384Y030586D01*
X024423Y030612D01*
X024464Y030635D01*
X024507Y030654D01*
X024551Y030670D01*
X024596Y030682D01*
X024642Y030690D01*
X024689Y030694D01*
X024735Y030694D01*
X024782Y030690D01*
X024828Y030682D01*
X024873Y030670D01*
X024917Y030654D01*
X024960Y030635D01*
X025001Y030612D01*
X025040Y030586D01*
X025076Y030557D01*
X025110Y030524D01*
X025141Y030489D01*
X025169Y030452D01*
X025193Y030412D01*
X025214Y030370D01*
X025232Y030327D01*
X025245Y030282D01*
X025255Y030236D01*
X025261Y030190D01*
X025263Y030143D01*
X025261Y030096D01*
X025255Y030050D01*
X025245Y030004D01*
X025232Y029959D01*
X025214Y029916D01*
X025193Y029874D01*
X025169Y029834D01*
X025141Y029797D01*
X025110Y029762D01*
X025076Y029729D01*
X025040Y029700D01*
X025001Y029674D01*
X024960Y029651D01*
X024917Y029632D01*
X024873Y029616D01*
X024828Y029604D01*
X024782Y029596D01*
X024735Y029592D01*
X024689Y029592D01*
X024642Y029596D01*
X024596Y029604D01*
X024551Y029616D01*
X024507Y029632D01*
X024464Y029651D01*
X024423Y029674D01*
X024384Y029700D01*
X024348Y029729D01*
X024314Y029762D01*
X024283Y029797D01*
X024255Y029834D01*
X024231Y029874D01*
X024210Y029916D01*
X024192Y029959D01*
X024179Y030004D01*
X024169Y030050D01*
X024163Y030096D01*
X024161Y030143D01*
X024161Y007308D02*
X024163Y007355D01*
X024169Y007401D01*
X024179Y007447D01*
X024192Y007492D01*
X024210Y007535D01*
X024231Y007577D01*
X024255Y007617D01*
X024283Y007654D01*
X024314Y007689D01*
X024348Y007722D01*
X024384Y007751D01*
X024423Y007777D01*
X024464Y007800D01*
X024507Y007819D01*
X024551Y007835D01*
X024596Y007847D01*
X024642Y007855D01*
X024689Y007859D01*
X024735Y007859D01*
X024782Y007855D01*
X024828Y007847D01*
X024873Y007835D01*
X024917Y007819D01*
X024960Y007800D01*
X025001Y007777D01*
X025040Y007751D01*
X025076Y007722D01*
X025110Y007689D01*
X025141Y007654D01*
X025169Y007617D01*
X025193Y007577D01*
X025214Y007535D01*
X025232Y007492D01*
X025245Y007447D01*
X025255Y007401D01*
X025261Y007355D01*
X025263Y007308D01*
X025261Y007261D01*
X025255Y007215D01*
X025245Y007169D01*
X025232Y007124D01*
X025214Y007081D01*
X025193Y007039D01*
X025169Y006999D01*
X025141Y006962D01*
X025110Y006927D01*
X025076Y006894D01*
X025040Y006865D01*
X025001Y006839D01*
X024960Y006816D01*
X024917Y006797D01*
X024873Y006781D01*
X024828Y006769D01*
X024782Y006761D01*
X024735Y006757D01*
X024689Y006757D01*
X024642Y006761D01*
X024596Y006769D01*
X024551Y006781D01*
X024507Y006797D01*
X024464Y006816D01*
X024423Y006839D01*
X024384Y006865D01*
X024348Y006894D01*
X024314Y006927D01*
X024283Y006962D01*
X024255Y006999D01*
X024231Y007039D01*
X024210Y007081D01*
X024192Y007124D01*
X024179Y007169D01*
X024169Y007215D01*
X024163Y007261D01*
X024161Y007308D01*
X004870Y007308D02*
X004872Y007355D01*
X004878Y007401D01*
X004888Y007447D01*
X004901Y007492D01*
X004919Y007535D01*
X004940Y007577D01*
X004964Y007617D01*
X004992Y007654D01*
X005023Y007689D01*
X005057Y007722D01*
X005093Y007751D01*
X005132Y007777D01*
X005173Y007800D01*
X005216Y007819D01*
X005260Y007835D01*
X005305Y007847D01*
X005351Y007855D01*
X005398Y007859D01*
X005444Y007859D01*
X005491Y007855D01*
X005537Y007847D01*
X005582Y007835D01*
X005626Y007819D01*
X005669Y007800D01*
X005710Y007777D01*
X005749Y007751D01*
X005785Y007722D01*
X005819Y007689D01*
X005850Y007654D01*
X005878Y007617D01*
X005902Y007577D01*
X005923Y007535D01*
X005941Y007492D01*
X005954Y007447D01*
X005964Y007401D01*
X005970Y007355D01*
X005972Y007308D01*
X005970Y007261D01*
X005964Y007215D01*
X005954Y007169D01*
X005941Y007124D01*
X005923Y007081D01*
X005902Y007039D01*
X005878Y006999D01*
X005850Y006962D01*
X005819Y006927D01*
X005785Y006894D01*
X005749Y006865D01*
X005710Y006839D01*
X005669Y006816D01*
X005626Y006797D01*
X005582Y006781D01*
X005537Y006769D01*
X005491Y006761D01*
X005444Y006757D01*
X005398Y006757D01*
X005351Y006761D01*
X005305Y006769D01*
X005260Y006781D01*
X005216Y006797D01*
X005173Y006816D01*
X005132Y006839D01*
X005093Y006865D01*
X005057Y006894D01*
X005023Y006927D01*
X004992Y006962D01*
X004964Y006999D01*
X004940Y007039D01*
X004919Y007081D01*
X004901Y007124D01*
X004888Y007169D01*
X004878Y007215D01*
X004872Y007261D01*
X004870Y007308D01*
D21*
X027006Y010719D03*
X033306Y010719D03*
X033306Y024893D03*
X027006Y024893D03*
D22*
X026143Y024230D03*
X028543Y023680D03*
X028293Y022180D03*
X029918Y021805D03*
X029918Y020680D03*
X030918Y020805D03*
X031418Y021930D03*
X031793Y022305D03*
X032293Y022180D03*
X032668Y021805D03*
X033243Y021305D03*
X033668Y022055D03*
X034643Y021430D03*
X034643Y020830D03*
X033668Y018680D03*
X033093Y018205D03*
X032618Y017830D03*
X031418Y017180D03*
X030156Y018143D03*
X033443Y016430D03*
X034343Y016130D03*
X035143Y015830D03*
X036043Y016830D03*
X035543Y017230D03*
X035443Y017830D03*
X035423Y018340D03*
X037383Y018510D03*
X040043Y016930D03*
X038643Y015230D03*
X038643Y014030D03*
X040293Y013680D03*
X038543Y012680D03*
X040043Y011180D03*
X036543Y012930D03*
X036668Y014680D03*
X035793Y011180D03*
X031673Y009080D03*
X029823Y009130D03*
X028023Y009160D03*
X025918Y008680D03*
X023418Y006680D03*
X017543Y009930D03*
X015543Y011430D03*
X015043Y012130D03*
X014343Y010780D03*
X013793Y009305D03*
X011593Y010280D03*
X009418Y010930D03*
X009793Y012180D03*
X007293Y011930D03*
X006918Y011555D03*
X006543Y010930D03*
X006543Y015055D03*
X006918Y015555D03*
X009043Y016430D03*
X007293Y017430D03*
X006543Y020430D03*
X006918Y021180D03*
X007293Y021680D03*
X007693Y024580D03*
X006918Y025430D03*
X006543Y024955D03*
X007293Y026180D03*
X008043Y026680D03*
X009918Y025805D03*
X011643Y024680D03*
X012043Y025130D03*
X013293Y023680D03*
X015043Y021930D03*
X015543Y021430D03*
X014343Y020930D03*
X011843Y020330D03*
X015043Y017530D03*
X015543Y016930D03*
X014343Y016430D03*
X011918Y015805D03*
X011793Y014930D03*
X013543Y013430D03*
X017043Y013430D03*
X017793Y019430D03*
X021373Y022040D03*
X019743Y022630D03*
X019053Y024290D03*
X019673Y024640D03*
X019493Y025370D03*
X020053Y025360D03*
X020903Y024990D03*
X021323Y024510D03*
X023243Y025330D03*
X020673Y027320D03*
X021443Y028255D03*
X022293Y028180D03*
X023043Y030180D03*
X021893Y030605D03*
X018793Y032180D03*
X016543Y031430D03*
X015543Y029430D03*
X014343Y029430D03*
X013043Y029930D03*
X012043Y030430D03*
X010043Y029930D03*
X010043Y030930D03*
X012643Y032430D03*
X013543Y032430D03*
X013043Y034430D03*
X012918Y035305D03*
X011543Y035680D03*
X011043Y034430D03*
X010043Y034430D03*
X006543Y033055D03*
X005293Y034430D03*
X005168Y036180D03*
X005918Y036805D03*
X007293Y030930D03*
X006918Y030180D03*
X006543Y029680D03*
X005043Y026930D03*
X013293Y028430D03*
X015043Y026630D03*
X015543Y026130D03*
X016043Y025680D03*
X016543Y025180D03*
X017418Y024870D03*
X016343Y024230D03*
X014343Y025630D03*
X016763Y027310D03*
X019303Y027320D03*
X018883Y025360D03*
X023343Y019230D03*
X026143Y017830D03*
X027043Y019930D03*
X031693Y015180D03*
X028168Y013555D03*
X026043Y014055D03*
X032418Y023930D03*
X032043Y025055D03*
X029168Y025555D03*
X027543Y027930D03*
X024793Y035180D03*
X024918Y036680D03*
X021943Y035730D03*
X037793Y028180D03*
X041628Y027545D03*
X039993Y021780D03*
D23*
X041628Y027545D02*
X041128Y028470D01*
X040793Y029005D01*
X038893Y028980D01*
X028719Y028980D01*
X027006Y024893D01*
X026143Y024230D02*
X026143Y017830D01*
X015043Y017530D02*
X015043Y012130D01*
X015043Y007805D01*
X011043Y007805D01*
X011043Y008380D01*
X014343Y010780D02*
X014343Y016430D01*
X014343Y020930D01*
X014343Y025630D01*
X014343Y029430D01*
X015043Y029930D02*
X015543Y029430D01*
X015543Y028430D01*
X015043Y027930D01*
X015043Y026630D01*
X015043Y021930D01*
X015043Y017530D01*
X015043Y029930D02*
X013043Y029930D01*
D24*
X013043Y030930D02*
X013043Y033430D01*
X012543Y033930D01*
X007543Y033930D01*
X007043Y034430D01*
X007043Y036530D01*
X007643Y036530D01*
X008043Y036930D01*
X010043Y030930D02*
X013043Y030930D01*
X015043Y030930D01*
X016043Y029930D01*
X016043Y027930D01*
X015543Y027430D01*
X015543Y026130D01*
X016643Y026130D01*
X017443Y026930D01*
X023413Y026930D01*
X023443Y027486D01*
X023965Y028009D01*
X018643Y024380D02*
X018643Y021480D01*
X019243Y020980D01*
X022243Y020980D01*
X022543Y020680D01*
X022543Y019230D01*
X023343Y019230D01*
X018643Y024380D02*
X017093Y024380D01*
X016543Y023730D01*
X015543Y023730D01*
X015543Y026130D01*
X015543Y023730D02*
X015543Y021430D01*
X015543Y016930D01*
X015543Y011430D01*
X015543Y007380D01*
X010493Y007380D01*
X010043Y007680D01*
X010043Y008480D01*
D25*
X036043Y012430D02*
X036043Y016830D01*
X036043Y012430D02*
X038043Y010430D01*
X038043Y007880D01*
M02*
