G75*
%MOIN*%
%OFA0B0*%
%FSLAX24Y24*%
%IPPOS*%
%LPD*%
%AMOC8*
5,1,8,0,0,1.08239X$1,22.5*
%
%ADD10C,0.0160*%
%ADD11C,0.0740*%
%ADD12R,0.1575X0.0472*%
%ADD13R,0.1575X0.0551*%
%ADD14C,0.0600*%
%ADD15R,0.0500X0.0220*%
%ADD16R,0.0220X0.0500*%
%ADD17R,0.0512X0.0591*%
%ADD18R,0.0591X0.0512*%
%ADD19R,0.0551X0.0630*%
%ADD20R,0.0740X0.0740*%
%ADD21OC8,0.0740*%
%ADD22C,0.0740*%
%ADD23C,0.0394*%
%ADD24R,0.0800X0.0800*%
%ADD25C,0.0800*%
%ADD26R,0.0354X0.0315*%
%ADD27R,0.0276X0.0276*%
%ADD28R,0.0315X0.0354*%
%ADD29R,0.0433X0.0394*%
%ADD30R,0.0394X0.0433*%
%ADD31C,0.0520*%
%ADD32R,0.0260X0.0800*%
%ADD33OC8,0.0660*%
%ADD34C,0.0000*%
%ADD35R,0.0515X0.0515*%
%ADD36C,0.0396*%
%ADD37C,0.0120*%
%ADD38C,0.0400*%
%ADD39C,0.0240*%
D10*
X004043Y005930D02*
X004043Y038680D01*
X042918Y038680D01*
X042843Y005905D01*
X042788Y005930D02*
X004043Y005930D01*
X006061Y006490D02*
X006246Y006675D01*
X006382Y006910D01*
X006452Y007172D01*
X006452Y007444D01*
X006382Y007706D01*
X006246Y007941D01*
X006054Y008133D01*
X005819Y008269D01*
X005557Y008339D01*
X005285Y008339D01*
X005023Y008269D01*
X004788Y008133D01*
X004603Y007948D01*
X004603Y029502D01*
X004788Y029317D01*
X005023Y029182D01*
X005285Y029111D01*
X005557Y029111D01*
X005819Y029182D01*
X006054Y029317D01*
X006232Y029495D01*
X006239Y029477D01*
X006340Y029376D01*
X006472Y029322D01*
X006614Y029322D01*
X006746Y029376D01*
X006809Y029440D01*
X007944Y029440D01*
X008648Y028735D01*
X008573Y028660D01*
X008573Y028700D01*
X008262Y029010D01*
X007823Y029010D01*
X007533Y028720D01*
X007170Y028720D01*
X007082Y028683D01*
X006782Y028383D01*
X006714Y028316D01*
X006678Y028228D01*
X006678Y025757D01*
X006696Y025714D01*
X006614Y025633D01*
X006560Y025501D01*
X006560Y025359D01*
X006579Y025313D01*
X006472Y025313D01*
X006340Y025259D01*
X006239Y025158D01*
X006185Y025026D01*
X006185Y024884D01*
X006239Y024752D01*
X006340Y024651D01*
X006472Y024597D01*
X006614Y024597D01*
X006746Y024651D01*
X006809Y024715D01*
X008191Y024715D01*
X008652Y024239D01*
X008573Y024160D01*
X008573Y024200D01*
X008262Y024510D01*
X007823Y024510D01*
X007513Y024200D01*
X007513Y023760D01*
X007743Y023530D01*
X007649Y023530D01*
X007603Y023518D01*
X007562Y023494D01*
X007529Y023461D01*
X007505Y023419D01*
X007493Y023374D01*
X007493Y022989D01*
X008034Y022989D01*
X008034Y022971D01*
X008051Y022971D01*
X008051Y022430D01*
X008437Y022430D01*
X008482Y022442D01*
X008523Y022466D01*
X008557Y022499D01*
X008581Y022541D01*
X008592Y022582D01*
X008803Y022370D01*
X008803Y022279D01*
X008444Y021920D01*
X007559Y021920D01*
X007496Y021984D01*
X007364Y022038D01*
X007222Y022038D01*
X007090Y021984D01*
X006989Y021883D01*
X006935Y021751D01*
X006935Y021609D01*
X006964Y021538D01*
X006847Y021538D01*
X006715Y021484D01*
X006614Y021383D01*
X006560Y021251D01*
X006560Y021109D01*
X006614Y020977D01*
X006715Y020876D01*
X006847Y020822D01*
X006989Y020822D01*
X007121Y020876D01*
X007184Y020940D01*
X008944Y020940D01*
X009803Y020081D01*
X009803Y019990D01*
X009513Y019700D01*
X009513Y019660D01*
X009262Y019910D01*
X009152Y019910D01*
X008429Y020633D01*
X008341Y020670D01*
X006809Y020670D01*
X006746Y020734D01*
X006614Y020788D01*
X006472Y020788D01*
X006340Y020734D01*
X006239Y020633D01*
X006185Y020501D01*
X006185Y020359D01*
X006239Y020227D01*
X006340Y020126D01*
X006472Y020072D01*
X006614Y020072D01*
X006746Y020126D01*
X006809Y020190D01*
X008194Y020190D01*
X008648Y019735D01*
X008573Y019660D01*
X008573Y019700D01*
X008262Y020010D01*
X007823Y020010D01*
X007513Y019700D01*
X007513Y019260D01*
X007743Y019030D01*
X007649Y019030D01*
X007603Y019018D01*
X007562Y018994D01*
X007529Y018961D01*
X007505Y018919D01*
X007493Y018874D01*
X007493Y018489D01*
X008034Y018489D01*
X008034Y018471D01*
X008051Y018471D01*
X008051Y017930D01*
X008437Y017930D01*
X008482Y017942D01*
X008523Y017966D01*
X008557Y017999D01*
X008581Y018041D01*
X008592Y018082D01*
X008803Y017870D01*
X008803Y017779D01*
X008694Y017670D01*
X007559Y017670D01*
X007496Y017734D01*
X007364Y017788D01*
X007222Y017788D01*
X007090Y017734D01*
X006989Y017633D01*
X006935Y017501D01*
X006935Y017359D01*
X006989Y017227D01*
X007090Y017126D01*
X007222Y017072D01*
X007364Y017072D01*
X007496Y017126D01*
X007559Y017190D01*
X008841Y017190D01*
X008929Y017227D01*
X008996Y017294D01*
X009246Y017544D01*
X009283Y017632D01*
X009283Y017870D01*
X009573Y018160D01*
X009573Y018200D01*
X009823Y017950D01*
X010177Y017950D01*
X010263Y017864D01*
X010263Y017446D01*
X010258Y017406D01*
X010263Y017390D01*
X010263Y017374D01*
X010278Y017337D01*
X010289Y017299D01*
X010299Y017286D01*
X010306Y017271D01*
X010334Y017243D01*
X010699Y016786D01*
X010706Y016771D01*
X010734Y016743D01*
X010759Y016712D01*
X010773Y016704D01*
X010784Y016693D01*
X010793Y016689D01*
X010738Y016634D01*
X010683Y016502D01*
X010683Y014520D01*
X010573Y014410D01*
X010573Y014450D01*
X010262Y014760D01*
X010111Y014760D01*
X009506Y015669D01*
X009496Y015691D01*
X009479Y015708D01*
X009466Y015728D01*
X009446Y015741D01*
X009429Y015758D01*
X009407Y015768D01*
X009387Y015781D01*
X009363Y015786D01*
X009341Y015795D01*
X009317Y015795D01*
X009293Y015800D01*
X009269Y015795D01*
X007184Y015795D01*
X007121Y015859D01*
X006989Y015913D01*
X006847Y015913D01*
X006715Y015859D01*
X006614Y015758D01*
X006560Y015626D01*
X006560Y015484D01*
X006589Y015413D01*
X006472Y015413D01*
X006340Y015359D01*
X006239Y015258D01*
X006185Y015126D01*
X006185Y014984D01*
X006239Y014852D01*
X006340Y014751D01*
X006472Y014697D01*
X006614Y014697D01*
X006746Y014751D01*
X006809Y014815D01*
X008463Y014815D01*
X008757Y014594D01*
X008573Y014410D01*
X008573Y014450D01*
X008262Y014760D01*
X007823Y014760D01*
X007513Y014450D01*
X007513Y014010D01*
X007743Y013780D01*
X007649Y013780D01*
X007603Y013768D01*
X007562Y013744D01*
X007529Y013711D01*
X007505Y013669D01*
X007493Y013624D01*
X007493Y013239D01*
X008034Y013239D01*
X008034Y013221D01*
X008051Y013221D01*
X008051Y012680D01*
X008437Y012680D01*
X008482Y012692D01*
X008523Y012716D01*
X008557Y012749D01*
X008581Y012791D01*
X008592Y012832D01*
X008803Y012620D01*
X008803Y012279D01*
X008694Y012170D01*
X007559Y012170D01*
X007496Y012234D01*
X007364Y012288D01*
X007222Y012288D01*
X007090Y012234D01*
X006989Y012133D01*
X006935Y012001D01*
X006935Y011913D01*
X006847Y011913D01*
X006715Y011859D01*
X006614Y011758D01*
X006560Y011626D01*
X006560Y011484D01*
X006614Y011352D01*
X006715Y011251D01*
X006847Y011197D01*
X006989Y011197D01*
X007121Y011251D01*
X007184Y011315D01*
X009803Y011315D01*
X009803Y009990D01*
X009513Y009700D01*
X009513Y009660D01*
X009283Y009890D01*
X009283Y010292D01*
X009287Y010326D01*
X009283Y010339D01*
X009283Y010353D01*
X009270Y010385D01*
X009260Y010418D01*
X009252Y010428D01*
X009246Y010441D01*
X009222Y010465D01*
X008752Y011053D01*
X008746Y011066D01*
X008722Y011090D01*
X008700Y011117D01*
X008689Y011124D01*
X008679Y011133D01*
X008647Y011147D01*
X008617Y011163D01*
X008603Y011165D01*
X008591Y011170D01*
X008556Y011170D01*
X008522Y011174D01*
X008509Y011170D01*
X006809Y011170D01*
X006746Y011234D01*
X006614Y011288D01*
X006472Y011288D01*
X006340Y011234D01*
X006239Y011133D01*
X006185Y011001D01*
X006185Y010859D01*
X006239Y010727D01*
X006340Y010626D01*
X006472Y010572D01*
X006614Y010572D01*
X006746Y010626D01*
X006809Y010690D01*
X008428Y010690D01*
X008803Y010221D01*
X008803Y009890D01*
X008573Y009660D01*
X008573Y009700D01*
X008262Y010010D01*
X007823Y010010D01*
X007513Y009700D01*
X007513Y009260D01*
X007743Y009030D01*
X007649Y009030D01*
X007603Y009018D01*
X007562Y008994D01*
X007529Y008961D01*
X007505Y008919D01*
X007493Y008874D01*
X007493Y008489D01*
X008034Y008489D01*
X008034Y008471D01*
X008051Y008471D01*
X008051Y007930D01*
X008437Y007930D01*
X008482Y007942D01*
X008523Y007966D01*
X008557Y007999D01*
X008581Y008041D01*
X008592Y008082D01*
X008823Y007850D01*
X009262Y007850D01*
X009573Y008160D01*
X009573Y008200D01*
X009823Y007950D01*
X010262Y007950D01*
X010513Y008200D01*
X010513Y008160D01*
X010823Y007850D01*
X011262Y007850D01*
X011573Y008160D01*
X011573Y008200D01*
X011823Y007950D01*
X012262Y007950D01*
X012522Y008210D01*
X012788Y008193D01*
X012795Y008190D01*
X012835Y008190D01*
X012876Y008187D01*
X012883Y008190D01*
X015553Y008190D01*
X015553Y006807D01*
X015589Y006719D01*
X015657Y006652D01*
X015745Y006615D01*
X022574Y006615D01*
X022602Y006610D01*
X022621Y006615D01*
X022641Y006615D01*
X022667Y006626D01*
X022695Y006633D01*
X022711Y006644D01*
X022729Y006652D01*
X022749Y006672D01*
X022772Y006689D01*
X022783Y006705D01*
X022796Y006719D01*
X022807Y006745D01*
X022983Y007030D01*
X023871Y007919D01*
X023908Y008007D01*
X023908Y008190D01*
X024178Y008190D01*
X024079Y008133D01*
X023887Y007941D01*
X023751Y007706D01*
X023681Y007444D01*
X023681Y007172D01*
X023751Y006910D01*
X023887Y006675D01*
X024072Y006490D01*
X006061Y006490D01*
X006135Y006564D02*
X023998Y006564D01*
X023860Y006723D02*
X022798Y006723D01*
X022891Y006881D02*
X023768Y006881D01*
X023717Y007040D02*
X022992Y007040D01*
X023150Y007198D02*
X023681Y007198D01*
X023681Y007357D02*
X023309Y007357D01*
X023467Y007515D02*
X023700Y007515D01*
X023743Y007674D02*
X023626Y007674D01*
X023784Y007832D02*
X023824Y007832D01*
X023901Y007991D02*
X023936Y007991D01*
X023908Y008149D02*
X024107Y008149D01*
X023668Y008055D02*
X023668Y008430D01*
X025543Y008430D01*
X026043Y008055D01*
X026043Y007055D01*
X026358Y006740D01*
X026358Y006605D01*
X032443Y006605D01*
X032873Y006965D01*
X032853Y011620D01*
X031693Y012780D01*
X031693Y015180D01*
X031453Y014914D02*
X031453Y012732D01*
X031489Y012644D01*
X031879Y012254D01*
X028315Y012254D01*
X028229Y012290D01*
X027503Y012290D01*
X027503Y015852D01*
X027463Y015948D01*
X027463Y016224D01*
X027399Y016378D01*
X027281Y016496D01*
X027126Y016560D01*
X026959Y016560D01*
X026898Y016534D01*
X026503Y016929D01*
X026503Y017902D01*
X026448Y018034D01*
X026347Y018135D01*
X026215Y018190D01*
X026071Y018190D01*
X025939Y018135D01*
X025838Y018034D01*
X025783Y017902D01*
X025783Y016708D01*
X025357Y016708D01*
X025285Y016636D02*
X025595Y016947D01*
X025595Y017386D01*
X025285Y017696D01*
X025245Y017696D01*
X025495Y017947D01*
X025495Y018386D01*
X025295Y018586D01*
X025615Y018907D01*
X025615Y019126D01*
X025074Y019126D01*
X025074Y019143D01*
X025615Y019143D01*
X025615Y019363D01*
X025293Y019685D01*
X025265Y019685D01*
X025495Y019915D01*
X025495Y019986D01*
X025902Y020393D01*
X025980Y020471D01*
X026023Y020574D01*
X026023Y020850D01*
X028488Y020850D01*
X028488Y020682D01*
X028525Y020644D01*
X028504Y020622D01*
X028480Y020581D01*
X028468Y020536D01*
X028468Y020304D01*
X028895Y020304D01*
X028895Y020208D01*
X028991Y020208D01*
X028991Y020304D01*
X029418Y020304D01*
X029418Y020536D01*
X029406Y020581D01*
X029382Y020622D01*
X029360Y020644D01*
X029398Y020682D01*
X029398Y020900D01*
X030081Y020900D01*
X030081Y020264D01*
X030079Y020260D01*
X030081Y020208D01*
X030081Y020157D01*
X030082Y020153D01*
X030082Y020148D01*
X030103Y020101D01*
X030123Y020054D01*
X030126Y020051D01*
X030128Y020047D01*
X030165Y020011D01*
X030202Y019975D01*
X030206Y019973D01*
X030688Y019519D01*
X030724Y019483D01*
X030728Y019481D01*
X030731Y019478D01*
X030780Y019460D01*
X030827Y019440D01*
X030832Y019440D01*
X030836Y019438D01*
X030887Y019440D01*
X030943Y019440D01*
X030943Y019367D01*
X030701Y019367D01*
X030580Y019489D01*
X030502Y019567D01*
X030399Y019610D01*
X029398Y019610D01*
X029398Y019626D01*
X029304Y019720D01*
X028581Y019720D01*
X028488Y019626D01*
X028488Y018982D01*
X028525Y018944D01*
X028504Y018922D01*
X028480Y018881D01*
X028468Y018836D01*
X028468Y018604D01*
X028895Y018604D01*
X028895Y018508D01*
X028991Y018508D01*
X028991Y018604D01*
X029418Y018604D01*
X029418Y018836D01*
X029406Y018881D01*
X029382Y018922D01*
X029360Y018944D01*
X029398Y018982D01*
X029398Y019050D01*
X030227Y019050D01*
X030427Y018850D01*
X030530Y018807D01*
X030923Y018807D01*
X030923Y018773D01*
X031353Y018773D01*
X031783Y018773D01*
X031783Y018906D01*
X031771Y018952D01*
X031763Y018965D01*
X031763Y019437D01*
X033763Y019437D01*
X033763Y019028D01*
X033739Y019038D01*
X033597Y019038D01*
X033465Y018984D01*
X033364Y018883D01*
X033310Y018751D01*
X033310Y018609D01*
X033364Y018477D01*
X033402Y018440D01*
X033364Y018440D01*
X033296Y018509D01*
X033164Y018563D01*
X033022Y018563D01*
X032890Y018509D01*
X032789Y018408D01*
X032735Y018276D01*
X032735Y018169D01*
X032689Y018188D01*
X032547Y018188D01*
X032415Y018134D01*
X032314Y018033D01*
X032260Y017901D01*
X032260Y017759D01*
X032305Y017650D01*
X031764Y017650D01*
X031671Y017556D01*
X031671Y016924D01*
X031701Y016894D01*
X031701Y015820D01*
X030244Y015820D01*
X030191Y015873D01*
X029743Y015873D01*
X029649Y015780D01*
X029649Y015293D01*
X029743Y015199D01*
X030191Y015199D01*
X030284Y015293D01*
X030284Y015340D01*
X030335Y015340D01*
X030335Y015091D01*
X030305Y015121D01*
X030264Y015145D01*
X030218Y015157D01*
X029996Y015157D01*
X029996Y014798D01*
X029959Y014798D01*
X029959Y015157D01*
X029737Y015157D01*
X029692Y015145D01*
X029651Y015121D01*
X029629Y015099D01*
X029591Y015137D01*
X029548Y015137D01*
X029548Y015495D01*
X029536Y015523D01*
X029536Y015780D01*
X029443Y015873D01*
X028995Y015873D01*
X028901Y015780D01*
X028901Y015293D01*
X028995Y015199D01*
X029068Y015199D01*
X029068Y015137D01*
X029025Y015137D01*
X028932Y015043D01*
X028932Y014517D01*
X029025Y014423D01*
X029591Y014423D01*
X029629Y014461D01*
X029651Y014439D01*
X029692Y014415D01*
X029737Y014403D01*
X029959Y014403D01*
X029959Y014762D01*
X029996Y014762D01*
X029996Y014403D01*
X030161Y014403D01*
X029995Y014237D01*
X029695Y014237D01*
X029657Y014199D01*
X029635Y014221D01*
X029594Y014245D01*
X029549Y014257D01*
X029327Y014257D01*
X029327Y013898D01*
X029290Y013898D01*
X029290Y013862D01*
X028912Y013862D01*
X028912Y013659D01*
X028924Y013614D01*
X028948Y013573D01*
X028981Y013539D01*
X029022Y013515D01*
X029068Y013503D01*
X029290Y013503D01*
X029290Y013862D01*
X029327Y013862D01*
X029327Y013503D01*
X029549Y013503D01*
X029594Y013515D01*
X029635Y013539D01*
X029657Y013561D01*
X029695Y013523D01*
X030260Y013523D01*
X030354Y013617D01*
X030354Y013917D01*
X030778Y014341D01*
X030815Y014429D01*
X030815Y015340D01*
X031372Y015340D01*
X031335Y015251D01*
X031335Y015109D01*
X031389Y014977D01*
X031453Y014914D01*
X031402Y014965D02*
X030815Y014965D01*
X030815Y015123D02*
X031335Y015123D01*
X031347Y015282D02*
X030815Y015282D01*
X030575Y015580D02*
X030575Y014477D01*
X029978Y013880D01*
X030354Y013855D02*
X031453Y013855D01*
X031453Y013697D02*
X030354Y013697D01*
X030275Y013538D02*
X031453Y013538D01*
X031453Y013380D02*
X027503Y013380D01*
X027503Y013538D02*
X028983Y013538D01*
X028912Y013697D02*
X027503Y013697D01*
X027503Y013855D02*
X028912Y013855D01*
X028912Y013898D02*
X029290Y013898D01*
X029290Y014257D01*
X029068Y014257D01*
X029022Y014245D01*
X028981Y014221D01*
X028948Y014187D01*
X028924Y014146D01*
X028912Y014101D01*
X028912Y013898D01*
X028912Y014014D02*
X027503Y014014D01*
X027503Y014172D02*
X028939Y014172D01*
X028960Y014489D02*
X027503Y014489D01*
X027503Y014331D02*
X030089Y014331D01*
X029996Y014489D02*
X029959Y014489D01*
X029959Y014648D02*
X029996Y014648D01*
X029996Y014806D02*
X029959Y014806D01*
X029959Y014965D02*
X029996Y014965D01*
X029996Y015123D02*
X029959Y015123D01*
X029654Y015123D02*
X029605Y015123D01*
X029548Y015282D02*
X029661Y015282D01*
X029649Y015440D02*
X029548Y015440D01*
X029536Y015599D02*
X029649Y015599D01*
X029649Y015757D02*
X029536Y015757D01*
X029369Y016026D02*
X029817Y016026D01*
X029910Y016120D01*
X029910Y016607D01*
X029817Y016700D01*
X029369Y016700D01*
X029275Y016607D01*
X029275Y016603D01*
X028478Y016603D01*
X028390Y016567D01*
X028300Y016477D01*
X028281Y016496D01*
X028126Y016560D01*
X027959Y016560D01*
X027805Y016496D01*
X027687Y016378D01*
X027623Y016224D01*
X027623Y015536D01*
X027687Y015382D01*
X027805Y015264D01*
X027959Y015200D01*
X028126Y015200D01*
X028281Y015264D01*
X028399Y015382D01*
X028463Y015536D01*
X028463Y015961D01*
X028625Y016123D01*
X029275Y016123D01*
X029275Y016120D01*
X029369Y016026D01*
X029321Y016074D02*
X028576Y016074D01*
X028463Y015916D02*
X031701Y015916D01*
X031701Y016074D02*
X029865Y016074D01*
X029910Y016233D02*
X031701Y016233D01*
X031701Y016391D02*
X029910Y016391D01*
X029910Y016550D02*
X031701Y016550D01*
X031701Y016708D02*
X026724Y016708D01*
X026883Y016550D02*
X026934Y016550D01*
X027152Y016550D02*
X027934Y016550D01*
X028152Y016550D02*
X028373Y016550D01*
X028526Y016363D02*
X028043Y015880D01*
X027623Y015916D02*
X027476Y015916D01*
X027463Y016074D02*
X027623Y016074D01*
X027627Y016233D02*
X027459Y016233D01*
X027386Y016391D02*
X027700Y016391D01*
X027623Y015757D02*
X027503Y015757D01*
X027503Y015599D02*
X027623Y015599D01*
X027663Y015440D02*
X027503Y015440D01*
X027503Y015282D02*
X027787Y015282D01*
X027503Y015123D02*
X029012Y015123D01*
X028932Y014965D02*
X027503Y014965D01*
X027503Y014806D02*
X028932Y014806D01*
X028932Y014648D02*
X027503Y014648D01*
X026783Y014648D02*
X025325Y014648D01*
X025295Y014678D02*
X025595Y014978D01*
X025595Y015417D01*
X025285Y015728D01*
X025245Y015728D01*
X025495Y015978D01*
X025495Y016417D01*
X025276Y016636D01*
X025285Y016636D01*
X025363Y016550D02*
X025864Y016550D01*
X025838Y016576D02*
X026623Y015791D01*
X026623Y015536D01*
X026687Y015382D01*
X026783Y015286D01*
X026783Y012079D01*
X026701Y011997D01*
X026646Y011865D01*
X026646Y011266D01*
X026448Y011464D01*
X026360Y011501D01*
X025575Y011501D01*
X025285Y011791D01*
X025273Y011791D01*
X025515Y012033D01*
X025515Y012252D01*
X024974Y012252D01*
X024974Y012269D01*
X025515Y012269D01*
X025515Y012489D01*
X025295Y012709D01*
X025595Y013010D01*
X025595Y013449D01*
X025285Y013759D01*
X025273Y013759D01*
X025515Y014001D01*
X025515Y014221D01*
X024974Y014221D01*
X024974Y014238D01*
X025515Y014238D01*
X025515Y014457D01*
X025295Y014678D01*
X025423Y014806D02*
X026783Y014806D01*
X026783Y014965D02*
X025582Y014965D01*
X025595Y015123D02*
X026783Y015123D01*
X026783Y015282D02*
X025595Y015282D01*
X025573Y015440D02*
X026663Y015440D01*
X026623Y015599D02*
X025414Y015599D01*
X025274Y015757D02*
X026623Y015757D01*
X026498Y015916D02*
X025433Y015916D01*
X025495Y016074D02*
X026340Y016074D01*
X026181Y016233D02*
X025495Y016233D01*
X025495Y016391D02*
X026023Y016391D01*
X025838Y016576D02*
X025783Y016708D01*
X025783Y016867D02*
X025515Y016867D01*
X025595Y017025D02*
X025783Y017025D01*
X025783Y017184D02*
X025595Y017184D01*
X025595Y017342D02*
X025783Y017342D01*
X025783Y017501D02*
X025481Y017501D01*
X025322Y017659D02*
X025783Y017659D01*
X025783Y017818D02*
X025366Y017818D01*
X025495Y017976D02*
X025814Y017976D01*
X025938Y018135D02*
X025495Y018135D01*
X025495Y018293D02*
X028468Y018293D01*
X028468Y018276D02*
X028480Y018231D01*
X028504Y018190D01*
X028537Y018156D01*
X028578Y018132D01*
X028624Y018120D01*
X028895Y018120D01*
X028895Y018508D01*
X028468Y018508D01*
X028468Y018276D01*
X028468Y018452D02*
X025430Y018452D01*
X025318Y018610D02*
X028468Y018610D01*
X028468Y018769D02*
X025477Y018769D01*
X025615Y018927D02*
X028508Y018927D01*
X028488Y019086D02*
X025615Y019086D01*
X025615Y019244D02*
X028488Y019244D01*
X028488Y019403D02*
X025575Y019403D01*
X025417Y019561D02*
X028488Y019561D01*
X028581Y019720D02*
X025300Y019720D01*
X025458Y019878D02*
X028515Y019878D01*
X028504Y019890D02*
X028537Y019856D01*
X028578Y019832D01*
X028624Y019820D01*
X028895Y019820D01*
X028895Y020208D01*
X028468Y020208D01*
X028468Y019976D01*
X028480Y019931D01*
X028504Y019890D01*
X028468Y020037D02*
X025545Y020037D01*
X025704Y020195D02*
X028468Y020195D01*
X028468Y020354D02*
X025862Y020354D01*
X025997Y020512D02*
X028468Y020512D01*
X028499Y020671D02*
X026023Y020671D01*
X026023Y020829D02*
X028488Y020829D01*
X028668Y021430D02*
X029043Y021805D01*
X029918Y021805D01*
X030250Y021939D02*
X030391Y021939D01*
X030276Y021876D02*
X030222Y022008D01*
X030121Y022109D01*
X029989Y022163D01*
X029847Y022163D01*
X029715Y022109D01*
X029651Y022045D01*
X028995Y022045D01*
X028907Y022008D01*
X028839Y021941D01*
X028569Y021670D01*
X027733Y021670D01*
X027803Y021838D01*
X027803Y022021D01*
X027733Y022191D01*
X027603Y022320D01*
X027434Y022390D01*
X026651Y022390D01*
X026482Y022320D01*
X026353Y022191D01*
X026344Y022170D01*
X026292Y022170D01*
X025983Y022479D01*
X025983Y023299D01*
X026283Y022961D01*
X026283Y022938D01*
X026353Y022769D01*
X026482Y022640D01*
X026651Y022570D01*
X027434Y022570D01*
X027603Y022640D01*
X027733Y022769D01*
X027803Y022938D01*
X027803Y023121D01*
X027733Y023291D01*
X027603Y023420D01*
X027434Y023490D01*
X026651Y023490D01*
X026508Y023431D01*
X026117Y023870D01*
X026140Y023870D01*
X029285Y023821D01*
X030020Y023591D01*
X030071Y023570D01*
X030088Y023570D01*
X030104Y023565D01*
X030159Y023570D01*
X030283Y023570D01*
X030373Y023481D01*
X030495Y023430D01*
X030373Y023379D01*
X030224Y023230D01*
X030143Y023035D01*
X030143Y022825D01*
X030224Y022630D01*
X030373Y022481D01*
X030558Y022404D01*
X030221Y021460D01*
X030021Y021460D01*
X030121Y021501D01*
X030222Y021602D01*
X030276Y021734D01*
X030276Y021876D01*
X030276Y021780D02*
X030335Y021780D01*
X030278Y021622D02*
X030230Y021622D01*
X030222Y021463D02*
X030028Y021463D01*
X030081Y020829D02*
X029398Y020829D01*
X029387Y020671D02*
X030081Y020671D01*
X030081Y020512D02*
X029418Y020512D01*
X029418Y020354D02*
X030081Y020354D01*
X030081Y020195D02*
X029418Y020195D01*
X029418Y020208D02*
X028991Y020208D01*
X028991Y019820D01*
X029262Y019820D01*
X029308Y019832D01*
X029349Y019856D01*
X029382Y019890D01*
X029406Y019931D01*
X029418Y019976D01*
X029418Y020208D01*
X029418Y020037D02*
X030139Y020037D01*
X030307Y019878D02*
X029371Y019878D01*
X029305Y019720D02*
X030475Y019720D01*
X030508Y019561D02*
X030643Y019561D01*
X030666Y019403D02*
X030943Y019403D01*
X030923Y018773D02*
X030923Y018639D01*
X030935Y018593D01*
X030943Y018580D01*
X030943Y018383D01*
X030422Y018383D01*
X030358Y018446D01*
X030227Y018501D01*
X030084Y018501D01*
X029953Y018446D01*
X029852Y018345D01*
X029797Y018214D01*
X029797Y018124D01*
X029739Y018066D01*
X029703Y017978D01*
X029703Y017537D01*
X029695Y017537D01*
X029657Y017499D01*
X029635Y017521D01*
X029594Y017545D01*
X029549Y017557D01*
X029327Y017557D01*
X029327Y017198D01*
X029290Y017198D01*
X029290Y017162D01*
X028912Y017162D01*
X028912Y016959D01*
X028924Y016914D01*
X028948Y016873D01*
X028981Y016839D01*
X029022Y016815D01*
X029068Y016803D01*
X029290Y016803D01*
X029290Y017162D01*
X029327Y017162D01*
X029327Y016803D01*
X029549Y016803D01*
X029594Y016815D01*
X029635Y016839D01*
X029657Y016861D01*
X029695Y016823D01*
X030260Y016823D01*
X030354Y016917D01*
X030354Y017443D01*
X030260Y017537D01*
X030183Y017537D01*
X030183Y017784D01*
X030227Y017784D01*
X030358Y017839D01*
X030422Y017903D01*
X030943Y017903D01*
X030943Y017651D01*
X031037Y017558D01*
X031669Y017558D01*
X031763Y017651D01*
X031763Y018580D01*
X031771Y018593D01*
X031783Y018639D01*
X031783Y018773D01*
X031353Y018773D01*
X031353Y018773D01*
X031353Y018773D01*
X030923Y018773D01*
X030923Y018769D02*
X029418Y018769D01*
X029418Y018610D02*
X030931Y018610D01*
X030943Y018452D02*
X030345Y018452D01*
X030156Y018143D02*
X029943Y017930D01*
X029943Y017215D01*
X029978Y017180D01*
X030354Y017184D02*
X031671Y017184D01*
X031671Y017342D02*
X030354Y017342D01*
X030297Y017501D02*
X031671Y017501D01*
X031763Y017659D02*
X032301Y017659D01*
X032260Y017818D02*
X031763Y017818D01*
X031763Y017976D02*
X032291Y017976D01*
X032417Y018135D02*
X031763Y018135D01*
X031763Y018293D02*
X032742Y018293D01*
X032833Y018452D02*
X031763Y018452D01*
X031775Y018610D02*
X033310Y018610D01*
X033317Y018769D02*
X031783Y018769D01*
X031777Y018927D02*
X033408Y018927D01*
X033668Y018680D02*
X034043Y018430D01*
X034168Y018430D01*
X034455Y018143D01*
X034733Y018143D01*
X034735Y017830D02*
X034733Y017828D01*
X034735Y017830D02*
X035443Y017830D01*
X035176Y018070D02*
X035143Y018070D01*
X035143Y018265D01*
X035151Y018278D01*
X035163Y018324D01*
X035163Y018458D01*
X035163Y018493D01*
X035684Y018493D01*
X035763Y018414D01*
X035763Y017993D01*
X035747Y018033D01*
X035646Y018134D01*
X035514Y018188D01*
X035372Y018188D01*
X035240Y018134D01*
X035176Y018070D01*
X035143Y018135D02*
X035242Y018135D01*
X035155Y018293D02*
X035763Y018293D01*
X035763Y018135D02*
X035644Y018135D01*
X035725Y018452D02*
X035163Y018452D01*
X035163Y018458D02*
X034733Y018458D01*
X035163Y018458D01*
X034733Y018458D02*
X034733Y018458D01*
X034733Y019087D02*
X034733Y019087D01*
X035163Y019087D01*
X035163Y019053D01*
X035856Y019053D01*
X035959Y019010D01*
X036280Y018689D01*
X036323Y018586D01*
X036323Y017056D01*
X036347Y017033D01*
X036400Y016903D01*
X036641Y016710D01*
X036751Y016710D01*
X036751Y016713D01*
X036845Y016807D01*
X037129Y016807D01*
X036859Y017153D01*
X036832Y017180D01*
X036825Y017196D01*
X036814Y017210D01*
X036804Y017247D01*
X036789Y017283D01*
X036789Y017301D01*
X036784Y017318D01*
X036785Y017325D01*
X036747Y017325D01*
X036653Y017418D01*
X036653Y018142D01*
X036747Y018235D01*
X037391Y018235D01*
X037443Y018183D01*
X037495Y018235D01*
X038139Y018235D01*
X038233Y018142D01*
X038233Y018020D01*
X038394Y018020D01*
X038603Y018229D01*
X038603Y025431D01*
X038444Y025590D01*
X037295Y025590D01*
X037207Y025627D01*
X036907Y025927D01*
X036839Y025994D01*
X036803Y026082D01*
X036803Y029406D01*
X036743Y029431D01*
X036594Y029580D01*
X036522Y029752D01*
X036492Y029680D01*
X036343Y029531D01*
X036183Y029464D01*
X036183Y020782D01*
X036146Y020694D01*
X036079Y020627D01*
X035991Y020590D01*
X034909Y020590D01*
X034846Y020526D01*
X034714Y020472D01*
X034572Y020472D01*
X034440Y020526D01*
X034415Y020551D01*
X034415Y020304D01*
X034322Y020210D01*
X031764Y020210D01*
X031671Y020304D01*
X031671Y020551D01*
X031658Y020563D01*
X031658Y020302D01*
X031669Y020302D01*
X031763Y020209D01*
X031763Y019997D01*
X034011Y019997D01*
X034114Y019955D01*
X034280Y019789D01*
X034323Y019746D01*
X034323Y020209D01*
X034417Y020302D01*
X035049Y020302D01*
X035079Y020272D01*
X035238Y020272D01*
X035326Y020236D01*
X035642Y019920D01*
X036053Y019920D01*
X036053Y020478D01*
X036089Y020566D01*
X036496Y020972D01*
X036496Y021417D01*
X036589Y021510D01*
X038297Y021510D01*
X038390Y021417D01*
X038390Y020812D01*
X038297Y020718D01*
X036920Y020718D01*
X036788Y020586D01*
X037385Y020586D01*
X037385Y020188D01*
X037501Y020188D01*
X038410Y020188D01*
X038410Y020429D01*
X038398Y020475D01*
X038374Y020516D01*
X038341Y020550D01*
X038300Y020573D01*
X038254Y020586D01*
X037501Y020586D01*
X037501Y020188D01*
X037501Y020072D01*
X038410Y020072D01*
X038410Y019831D01*
X038398Y019785D01*
X038374Y019744D01*
X038341Y019710D01*
X038300Y019687D01*
X038254Y019674D01*
X037501Y019674D01*
X037501Y020072D01*
X037385Y020072D01*
X037385Y019674D01*
X036632Y019674D01*
X036586Y019687D01*
X036545Y019710D01*
X036533Y019722D01*
X036533Y019670D01*
X036591Y019670D01*
X036679Y019633D01*
X036770Y019542D01*
X038297Y019542D01*
X038390Y019448D01*
X038390Y018843D01*
X038297Y018750D01*
X036589Y018750D01*
X036496Y018843D01*
X036496Y019138D01*
X036444Y019190D01*
X035245Y019190D01*
X035162Y019224D01*
X035163Y019221D01*
X035163Y019087D01*
X034733Y019087D01*
X035163Y019086D02*
X036496Y019086D01*
X036496Y018927D02*
X036042Y018927D01*
X036200Y018769D02*
X036570Y018769D01*
X036313Y018610D02*
X038603Y018610D01*
X038603Y018452D02*
X036323Y018452D01*
X036323Y018293D02*
X038603Y018293D01*
X038508Y018135D02*
X038233Y018135D01*
X038493Y017780D02*
X037817Y017780D01*
X038233Y017540D02*
X038233Y017418D01*
X038139Y017325D01*
X037495Y017325D01*
X037443Y017377D01*
X037416Y017349D01*
X037839Y016807D01*
X038041Y016807D01*
X038134Y016713D01*
X038134Y016147D01*
X038041Y016053D01*
X038033Y016053D01*
X038033Y015882D01*
X037996Y015794D01*
X037929Y015727D01*
X037841Y015690D01*
X036245Y015690D01*
X036157Y015727D01*
X036089Y015794D01*
X035594Y016290D01*
X034664Y016290D01*
X034701Y016201D01*
X034701Y016111D01*
X034822Y015991D01*
X034839Y016033D01*
X034940Y016134D01*
X035072Y016188D01*
X035214Y016188D01*
X035346Y016134D01*
X035447Y016033D01*
X035501Y015901D01*
X035501Y015759D01*
X035483Y015715D01*
X035483Y013729D01*
X035542Y013670D01*
X036814Y013670D01*
X036781Y013689D01*
X036748Y013723D01*
X036724Y013764D01*
X036712Y013809D01*
X036712Y014012D01*
X037090Y014012D01*
X037090Y014048D01*
X036712Y014048D01*
X036712Y014251D01*
X036724Y014296D01*
X036748Y014337D01*
X036781Y014371D01*
X036822Y014395D01*
X036868Y014407D01*
X037090Y014407D01*
X037090Y014048D01*
X037127Y014048D01*
X037127Y014407D01*
X037349Y014407D01*
X037394Y014395D01*
X037435Y014371D01*
X037457Y014349D01*
X037495Y014387D01*
X038060Y014387D01*
X038154Y014293D01*
X038154Y014270D01*
X038376Y014270D01*
X038440Y014334D01*
X038572Y014388D01*
X038714Y014388D01*
X038846Y014334D01*
X038919Y014261D01*
X038919Y014999D01*
X038846Y014926D01*
X038714Y014872D01*
X038572Y014872D01*
X038440Y014926D01*
X038376Y014990D01*
X038154Y014990D01*
X038154Y014967D01*
X038060Y014873D01*
X037495Y014873D01*
X037457Y014911D01*
X037435Y014889D01*
X037394Y014865D01*
X037349Y014853D01*
X037127Y014853D01*
X037127Y015212D01*
X037090Y015212D01*
X036712Y015212D01*
X036712Y015009D01*
X036724Y014964D01*
X036748Y014923D01*
X036781Y014889D01*
X036822Y014865D01*
X036868Y014853D01*
X037090Y014853D01*
X037090Y015212D01*
X037090Y015248D01*
X036712Y015248D01*
X036712Y015451D01*
X036724Y015496D01*
X036748Y015537D01*
X036781Y015571D01*
X036822Y015595D01*
X036868Y015607D01*
X037090Y015607D01*
X037090Y015248D01*
X037127Y015248D01*
X037127Y015607D01*
X037349Y015607D01*
X037394Y015595D01*
X037435Y015571D01*
X037457Y015549D01*
X037495Y015587D01*
X038060Y015587D01*
X038154Y015493D01*
X038154Y015470D01*
X038376Y015470D01*
X038440Y015534D01*
X038572Y015588D01*
X038714Y015588D01*
X038846Y015534D01*
X038919Y015461D01*
X038919Y017866D01*
X038629Y017577D01*
X038541Y017540D01*
X038233Y017540D01*
X038233Y017501D02*
X038919Y017501D01*
X038919Y017659D02*
X038711Y017659D01*
X038870Y017818D02*
X038919Y017818D01*
X038843Y018130D02*
X038843Y025530D01*
X038543Y025830D01*
X037343Y025830D01*
X037043Y026130D01*
X037043Y029880D01*
X037573Y029864D02*
X041621Y029864D01*
X041612Y030022D02*
X037558Y030022D01*
X037573Y029985D02*
X037492Y030180D01*
X037343Y030329D01*
X037148Y030410D01*
X036937Y030410D01*
X036743Y030329D01*
X036594Y030180D01*
X036564Y030108D01*
X036492Y030280D01*
X036343Y030429D01*
X036148Y030510D01*
X035937Y030510D01*
X035743Y030429D01*
X035594Y030280D01*
X035522Y030108D01*
X035492Y030180D01*
X035343Y030329D01*
X035148Y030410D01*
X034937Y030410D01*
X034743Y030329D01*
X034594Y030180D01*
X034564Y030108D01*
X034492Y030280D01*
X034343Y030429D01*
X034148Y030510D01*
X033937Y030510D01*
X033743Y030429D01*
X033594Y030280D01*
X033532Y030132D01*
X033513Y030168D01*
X033462Y030238D01*
X033401Y030300D01*
X033331Y030350D01*
X033254Y030390D01*
X033172Y030416D01*
X033086Y030430D01*
X033063Y030430D01*
X033063Y029900D01*
X033023Y029900D01*
X033023Y030430D01*
X033000Y030430D01*
X032914Y030416D01*
X032832Y030390D01*
X032755Y030350D01*
X032685Y030300D01*
X032623Y030238D01*
X032573Y030168D01*
X032565Y030153D01*
X032553Y030191D01*
X032513Y030268D01*
X032462Y030338D01*
X032401Y030400D01*
X032331Y030450D01*
X032254Y030490D01*
X032172Y030516D01*
X032086Y030530D01*
X032063Y030530D01*
X032063Y030000D01*
X032023Y030000D01*
X032023Y030530D01*
X032000Y030530D01*
X031914Y030516D01*
X031832Y030490D01*
X031755Y030450D01*
X031685Y030400D01*
X031623Y030338D01*
X031573Y030268D01*
X031533Y030191D01*
X031506Y030109D01*
X031493Y030023D01*
X031493Y030000D01*
X032023Y030000D01*
X032023Y029960D01*
X032063Y029960D01*
X032063Y029430D01*
X032086Y029430D01*
X032172Y029444D01*
X032254Y029470D01*
X032331Y029510D01*
X032401Y029560D01*
X032462Y029622D01*
X032513Y029692D01*
X032521Y029707D01*
X032533Y029669D01*
X032573Y029592D01*
X032623Y029522D01*
X032685Y029460D01*
X032755Y029410D01*
X032832Y029370D01*
X032914Y029344D01*
X033000Y029330D01*
X033023Y029330D01*
X033023Y029860D01*
X033063Y029860D01*
X033063Y029330D01*
X033086Y029330D01*
X033172Y029344D01*
X033254Y029370D01*
X033331Y029410D01*
X033401Y029460D01*
X033462Y029522D01*
X033513Y029592D01*
X033553Y029669D01*
X033573Y029730D01*
X033594Y029680D01*
X033743Y029531D01*
X033937Y029450D01*
X034148Y029450D01*
X034169Y029458D01*
X034863Y028764D01*
X034863Y023210D01*
X031871Y023210D01*
X031862Y023230D01*
X031713Y023379D01*
X031591Y023430D01*
X031713Y023481D01*
X031862Y023630D01*
X031943Y023825D01*
X031943Y024035D01*
X031922Y024087D01*
X032060Y023949D01*
X032060Y023859D01*
X032114Y023727D01*
X032215Y023626D01*
X032347Y023572D01*
X032489Y023572D01*
X032621Y023626D01*
X032722Y023727D01*
X032776Y023859D01*
X032776Y024001D01*
X032722Y024133D01*
X032621Y024234D01*
X032489Y024288D01*
X032399Y024288D01*
X031990Y024697D01*
X032114Y024697D01*
X032246Y024751D01*
X032347Y024852D01*
X032401Y024984D01*
X032401Y025126D01*
X032347Y025258D01*
X032246Y025359D01*
X032114Y025413D01*
X031972Y025413D01*
X031840Y025359D01*
X031776Y025295D01*
X029414Y025295D01*
X029472Y025352D01*
X029526Y025484D01*
X029526Y025626D01*
X029472Y025758D01*
X029371Y025859D01*
X029239Y025913D01*
X029097Y025913D01*
X028965Y025859D01*
X028864Y025758D01*
X028810Y025626D01*
X028810Y025605D01*
X028720Y025545D01*
X028658Y025545D01*
X028658Y026103D01*
X028621Y026191D01*
X028554Y026258D01*
X027783Y027029D01*
X027783Y027664D01*
X027847Y027727D01*
X027901Y027859D01*
X027901Y028001D01*
X027847Y028133D01*
X027746Y028234D01*
X027614Y028288D01*
X027472Y028288D01*
X027340Y028234D01*
X027283Y028176D01*
X027283Y030978D01*
X027246Y031066D01*
X027179Y031133D01*
X025929Y032383D01*
X025841Y032420D01*
X023767Y032420D01*
X023658Y032529D01*
X023658Y036603D01*
X023621Y036691D01*
X023554Y036758D01*
X022192Y038120D01*
X042357Y038120D01*
X042342Y031615D01*
X041452Y031615D01*
X041358Y031521D01*
X041358Y030589D01*
X041452Y030495D01*
X041587Y030495D01*
X041663Y029074D01*
X041594Y029005D01*
X041513Y028810D01*
X041513Y028600D01*
X041594Y028405D01*
X041743Y028256D01*
X041937Y028175D01*
X042148Y028175D01*
X042334Y028252D01*
X042332Y027159D01*
X042224Y027204D01*
X042068Y027576D01*
X042040Y027642D01*
X042039Y027643D01*
X041989Y027693D01*
X041831Y027851D01*
X041147Y028535D01*
X041130Y028542D01*
X041130Y028611D01*
X041036Y028705D01*
X040352Y028705D01*
X040259Y028611D01*
X040259Y027849D01*
X040352Y027755D01*
X040909Y027755D01*
X041268Y027396D01*
X041268Y027260D01*
X041241Y027287D01*
X041037Y027287D01*
X041030Y027290D01*
X040004Y027290D01*
X039902Y027247D01*
X039833Y027247D01*
X039739Y027154D01*
X039739Y027057D01*
X039716Y027002D01*
X039716Y026858D01*
X039739Y026803D01*
X039739Y026706D01*
X039833Y026613D01*
X039902Y026613D01*
X040004Y026570D01*
X041030Y026570D01*
X041037Y026573D01*
X041241Y026573D01*
X041261Y026593D01*
X041261Y026590D01*
X039096Y024588D01*
X039089Y024585D01*
X039083Y024579D01*
X039083Y025578D01*
X039046Y025666D01*
X038746Y025966D01*
X038679Y026033D01*
X038591Y026070D01*
X038052Y026070D01*
X038085Y026089D01*
X038107Y026111D01*
X038145Y026073D01*
X038348Y026073D01*
X038356Y026070D01*
X039195Y026070D01*
X039327Y026125D01*
X039441Y026239D01*
X039493Y026239D01*
X039586Y026332D01*
X039586Y026429D01*
X039609Y026484D01*
X039609Y026628D01*
X039586Y026683D01*
X039586Y026780D01*
X039493Y026873D01*
X039423Y026873D01*
X039321Y026916D01*
X039178Y026916D01*
X039075Y026873D01*
X039006Y026873D01*
X038922Y026790D01*
X038356Y026790D01*
X038348Y026787D01*
X038145Y026787D01*
X038107Y026749D01*
X038085Y026771D01*
X038044Y026795D01*
X037999Y026807D01*
X037777Y026807D01*
X037777Y026448D01*
X037740Y026448D01*
X037740Y026412D01*
X037362Y026412D01*
X037362Y026209D01*
X037374Y026164D01*
X037398Y026123D01*
X037431Y026089D01*
X037464Y026070D01*
X037442Y026070D01*
X037283Y026229D01*
X037283Y029406D01*
X037343Y029431D01*
X037492Y029580D01*
X037573Y029775D01*
X037573Y029985D01*
X037492Y030181D02*
X041604Y030181D01*
X041595Y030339D02*
X037320Y030339D01*
X036766Y030339D02*
X036433Y030339D01*
X036534Y030181D02*
X036594Y030181D01*
X036178Y030498D02*
X039788Y030498D01*
X039814Y030489D02*
X039901Y030475D01*
X039901Y031007D01*
X039370Y031007D01*
X039384Y030919D01*
X039412Y030832D01*
X039453Y030751D01*
X039507Y030677D01*
X039572Y030613D01*
X039645Y030559D01*
X039727Y030517D01*
X039814Y030489D01*
X039901Y030498D02*
X039997Y030498D01*
X039997Y030475D02*
X040085Y030489D01*
X040172Y030517D01*
X040253Y030559D01*
X040327Y030613D01*
X040392Y030677D01*
X040445Y030751D01*
X040487Y030832D01*
X040515Y030919D01*
X040529Y031007D01*
X039997Y031007D01*
X039997Y030475D01*
X040111Y030498D02*
X041449Y030498D01*
X041358Y030656D02*
X040371Y030656D01*
X040478Y030815D02*
X041358Y030815D01*
X041358Y030973D02*
X040524Y030973D01*
X040529Y031103D02*
X039997Y031103D01*
X039901Y031103D01*
X039901Y031007D01*
X039997Y031007D01*
X039997Y031103D01*
X039997Y031635D01*
X040085Y031621D01*
X040172Y031593D01*
X040253Y031551D01*
X040327Y031497D01*
X040392Y031433D01*
X040445Y031359D01*
X040487Y031278D01*
X040515Y031191D01*
X040529Y031103D01*
X040525Y031132D02*
X041358Y031132D01*
X041358Y031290D02*
X040481Y031290D01*
X040376Y031449D02*
X041358Y031449D01*
X041444Y031607D02*
X040127Y031607D01*
X039997Y031607D02*
X039901Y031607D01*
X039901Y031635D02*
X039814Y031621D01*
X039727Y031593D01*
X039645Y031551D01*
X039572Y031497D01*
X039507Y031433D01*
X039453Y031359D01*
X039412Y031278D01*
X039384Y031191D01*
X039370Y031103D01*
X039901Y031103D01*
X039901Y031635D01*
X039771Y031607D02*
X026705Y031607D01*
X026547Y031766D02*
X042342Y031766D01*
X042342Y031924D02*
X026388Y031924D01*
X026230Y032083D02*
X042343Y032083D01*
X042343Y032241D02*
X026071Y032241D01*
X025890Y032400D02*
X042344Y032400D01*
X042344Y032558D02*
X023658Y032558D01*
X023658Y032717D02*
X042344Y032717D01*
X042345Y032875D02*
X023658Y032875D01*
X023658Y033034D02*
X042345Y033034D01*
X042345Y033192D02*
X023658Y033192D01*
X023658Y033351D02*
X042346Y033351D01*
X042346Y033509D02*
X023658Y033509D01*
X023658Y033668D02*
X042346Y033668D01*
X042347Y033826D02*
X023658Y033826D01*
X023658Y033985D02*
X042347Y033985D01*
X042348Y034143D02*
X023658Y034143D01*
X023658Y034302D02*
X042348Y034302D01*
X042348Y034460D02*
X023658Y034460D01*
X023658Y034619D02*
X042349Y034619D01*
X042349Y034777D02*
X023658Y034777D01*
X023658Y034936D02*
X042349Y034936D01*
X042350Y035094D02*
X023658Y035094D01*
X023658Y035253D02*
X042350Y035253D01*
X042350Y035411D02*
X023658Y035411D01*
X023658Y035570D02*
X042351Y035570D01*
X042351Y035728D02*
X023658Y035728D01*
X023658Y035887D02*
X042352Y035887D01*
X042352Y036045D02*
X023658Y036045D01*
X023658Y036204D02*
X042352Y036204D01*
X042353Y036362D02*
X023658Y036362D01*
X023658Y036521D02*
X042353Y036521D01*
X042353Y036679D02*
X023626Y036679D01*
X023475Y036838D02*
X042354Y036838D01*
X042354Y036996D02*
X023316Y036996D01*
X023158Y037155D02*
X042354Y037155D01*
X042355Y037313D02*
X022999Y037313D01*
X022841Y037472D02*
X042355Y037472D01*
X042356Y037630D02*
X022682Y037630D01*
X022524Y037789D02*
X042356Y037789D01*
X042356Y037947D02*
X022365Y037947D01*
X022207Y038106D02*
X042357Y038106D01*
X039997Y031449D02*
X039901Y031449D01*
X039901Y031290D02*
X039997Y031290D01*
X039997Y031132D02*
X039901Y031132D01*
X039901Y030973D02*
X039997Y030973D01*
X039997Y030815D02*
X039901Y030815D01*
X039901Y030656D02*
X039997Y030656D01*
X039528Y030656D02*
X027283Y030656D01*
X027283Y030498D02*
X031856Y030498D01*
X032023Y030498D02*
X032063Y030498D01*
X032063Y030339D02*
X032023Y030339D01*
X032023Y030181D02*
X032063Y030181D01*
X032063Y030022D02*
X032023Y030022D01*
X032023Y029960D02*
X031493Y029960D01*
X031493Y029937D01*
X031506Y029851D01*
X031533Y029769D01*
X031573Y029692D01*
X031623Y029622D01*
X031685Y029560D01*
X031755Y029510D01*
X031832Y029470D01*
X031914Y029444D01*
X032000Y029430D01*
X032023Y029430D01*
X032023Y029960D01*
X032023Y029864D02*
X032063Y029864D01*
X032063Y029705D02*
X032023Y029705D01*
X032023Y029547D02*
X032063Y029547D01*
X032382Y029547D02*
X032605Y029547D01*
X032521Y029705D02*
X032520Y029705D01*
X032797Y029388D02*
X027283Y029388D01*
X027283Y029230D02*
X034397Y029230D01*
X034239Y029388D02*
X033289Y029388D01*
X033063Y029388D02*
X033023Y029388D01*
X033023Y029547D02*
X033063Y029547D01*
X033063Y029705D02*
X033023Y029705D01*
X033023Y030022D02*
X033063Y030022D01*
X033063Y030181D02*
X033023Y030181D01*
X033023Y030339D02*
X033063Y030339D01*
X033347Y030339D02*
X033652Y030339D01*
X033552Y030181D02*
X033504Y030181D01*
X033907Y030498D02*
X032230Y030498D01*
X032462Y030339D02*
X032739Y030339D01*
X032581Y030181D02*
X032556Y030181D01*
X031624Y030339D02*
X027283Y030339D01*
X027283Y030181D02*
X031530Y030181D01*
X031493Y030022D02*
X027283Y030022D01*
X027283Y029864D02*
X031505Y029864D01*
X031566Y029705D02*
X027283Y029705D01*
X027283Y029547D02*
X031704Y029547D01*
X033480Y029547D02*
X033727Y029547D01*
X033583Y029705D02*
X033564Y029705D01*
X034178Y030498D02*
X035907Y030498D01*
X035652Y030339D02*
X035320Y030339D01*
X035492Y030181D02*
X035552Y030181D01*
X035943Y029880D02*
X036043Y029980D01*
X035943Y029880D02*
X035943Y020830D01*
X034643Y020830D01*
X034811Y020512D02*
X036067Y020512D01*
X036053Y020354D02*
X034415Y020354D01*
X034415Y020512D02*
X034475Y020512D01*
X034323Y020195D02*
X031763Y020195D01*
X031763Y020037D02*
X034323Y020037D01*
X034323Y019878D02*
X034191Y019878D01*
X034733Y020032D02*
X035191Y020032D01*
X035543Y019680D01*
X036293Y019680D01*
X036293Y020430D01*
X036793Y020930D01*
X036943Y021180D01*
X037443Y021114D01*
X037385Y020512D02*
X037501Y020512D01*
X037501Y020354D02*
X037385Y020354D01*
X037385Y020195D02*
X037501Y020195D01*
X037501Y020037D02*
X037385Y020037D01*
X037385Y019878D02*
X037501Y019878D01*
X037501Y019720D02*
X037385Y019720D01*
X037443Y019180D02*
X036793Y019180D01*
X036543Y019430D01*
X035293Y019430D01*
X035006Y019717D01*
X034733Y019717D01*
X035367Y020195D02*
X036053Y020195D01*
X036053Y020037D02*
X035526Y020037D01*
X036123Y020671D02*
X036194Y020671D01*
X036183Y020829D02*
X036353Y020829D01*
X036496Y020988D02*
X036183Y020988D01*
X036183Y021146D02*
X036496Y021146D01*
X036496Y021305D02*
X036183Y021305D01*
X036183Y021463D02*
X036542Y021463D01*
X036183Y021622D02*
X038603Y021622D01*
X038603Y021780D02*
X036183Y021780D01*
X036183Y021939D02*
X038603Y021939D01*
X038603Y022097D02*
X036183Y022097D01*
X036183Y022256D02*
X038603Y022256D01*
X038603Y022414D02*
X036183Y022414D01*
X036183Y022573D02*
X038603Y022573D01*
X038603Y022731D02*
X036183Y022731D01*
X036183Y022890D02*
X038603Y022890D01*
X038603Y023048D02*
X036183Y023048D01*
X036183Y023207D02*
X038603Y023207D01*
X038603Y023365D02*
X036183Y023365D01*
X036183Y023524D02*
X038603Y023524D01*
X038603Y023682D02*
X036183Y023682D01*
X036183Y023841D02*
X038603Y023841D01*
X038603Y023999D02*
X036183Y023999D01*
X036183Y024158D02*
X038603Y024158D01*
X038603Y024316D02*
X036183Y024316D01*
X036183Y024475D02*
X038603Y024475D01*
X038603Y024633D02*
X036183Y024633D01*
X036183Y024792D02*
X038603Y024792D01*
X038603Y024950D02*
X036183Y024950D01*
X036183Y025109D02*
X038603Y025109D01*
X038603Y025267D02*
X036183Y025267D01*
X036183Y025426D02*
X038603Y025426D01*
X038449Y025584D02*
X036183Y025584D01*
X036183Y025743D02*
X037091Y025743D01*
X036932Y025901D02*
X036183Y025901D01*
X036183Y026060D02*
X036812Y026060D01*
X036803Y026218D02*
X036183Y026218D01*
X036183Y026377D02*
X036803Y026377D01*
X036803Y026535D02*
X036183Y026535D01*
X036183Y026694D02*
X036803Y026694D01*
X036803Y026852D02*
X036183Y026852D01*
X036183Y027011D02*
X036803Y027011D01*
X036803Y027169D02*
X036183Y027169D01*
X036183Y027328D02*
X036803Y027328D01*
X036803Y027486D02*
X036183Y027486D01*
X036183Y027645D02*
X036803Y027645D01*
X036803Y027803D02*
X036183Y027803D01*
X036183Y027962D02*
X036803Y027962D01*
X036803Y028120D02*
X036183Y028120D01*
X036183Y028279D02*
X036803Y028279D01*
X036803Y028437D02*
X036183Y028437D01*
X036183Y028596D02*
X036803Y028596D01*
X036803Y028754D02*
X036183Y028754D01*
X036183Y028913D02*
X036803Y028913D01*
X036803Y029071D02*
X036183Y029071D01*
X036183Y029230D02*
X036803Y029230D01*
X036803Y029388D02*
X036183Y029388D01*
X036359Y029547D02*
X036627Y029547D01*
X036542Y029705D02*
X036503Y029705D01*
X037283Y029388D02*
X041646Y029388D01*
X041655Y029230D02*
X037283Y029230D01*
X037283Y029071D02*
X041659Y029071D01*
X041555Y028913D02*
X037283Y028913D01*
X037283Y028754D02*
X041513Y028754D01*
X041515Y028596D02*
X041130Y028596D01*
X041245Y028437D02*
X041580Y028437D01*
X041720Y028279D02*
X041403Y028279D01*
X041562Y028120D02*
X042334Y028120D01*
X042333Y027962D02*
X041720Y027962D01*
X041879Y027803D02*
X042333Y027803D01*
X042333Y027645D02*
X042038Y027645D01*
X042040Y027642D02*
X042040Y027642D01*
X042105Y027486D02*
X042332Y027486D01*
X042332Y027328D02*
X042172Y027328D01*
X042308Y027169D02*
X042332Y027169D01*
X042329Y026250D02*
X042328Y025404D01*
X042266Y025436D01*
X042179Y025464D01*
X042091Y025478D01*
X042091Y024946D01*
X041995Y024946D01*
X041995Y024851D01*
X041463Y024851D01*
X041477Y024763D01*
X041505Y024676D01*
X041547Y024595D01*
X041601Y024521D01*
X041665Y024456D01*
X041739Y024402D01*
X041820Y024361D01*
X041907Y024333D01*
X041995Y024319D01*
X041995Y024851D01*
X042091Y024851D01*
X042091Y024319D01*
X042179Y024333D01*
X042266Y024361D01*
X042325Y024391D01*
X042323Y023490D01*
X041577Y023490D01*
X041483Y023396D01*
X041483Y023346D01*
X039935Y023346D01*
X039803Y023291D01*
X039702Y023190D01*
X039653Y023072D01*
X039653Y024123D01*
X041812Y026120D01*
X041816Y026121D01*
X041865Y026168D01*
X041893Y026194D01*
X041937Y026175D01*
X042148Y026175D01*
X042329Y026250D01*
X042329Y026218D02*
X042252Y026218D01*
X042329Y026060D02*
X041748Y026060D01*
X041576Y025901D02*
X042329Y025901D01*
X042328Y025743D02*
X041405Y025743D01*
X041233Y025584D02*
X042328Y025584D01*
X042328Y025426D02*
X042286Y025426D01*
X042091Y025426D02*
X041995Y025426D01*
X041995Y025478D02*
X041907Y025464D01*
X041820Y025436D01*
X041739Y025395D01*
X041665Y025341D01*
X041601Y025276D01*
X041547Y025202D01*
X041505Y025121D01*
X041477Y025034D01*
X041463Y024946D01*
X041995Y024946D01*
X041995Y025478D01*
X041800Y025426D02*
X041062Y025426D01*
X040891Y025267D02*
X041594Y025267D01*
X041501Y025109D02*
X040719Y025109D01*
X040548Y024950D02*
X041464Y024950D01*
X041473Y024792D02*
X040376Y024792D01*
X040205Y024633D02*
X041527Y024633D01*
X041647Y024475D02*
X040034Y024475D01*
X039862Y024316D02*
X042325Y024316D01*
X042325Y024158D02*
X039691Y024158D01*
X039653Y023999D02*
X042324Y023999D01*
X042324Y023841D02*
X039653Y023841D01*
X039653Y023682D02*
X042324Y023682D01*
X042323Y023524D02*
X039653Y023524D01*
X039653Y023365D02*
X041483Y023365D01*
X041483Y022626D02*
X041483Y022464D01*
X041577Y022370D01*
X042321Y022370D01*
X042316Y020410D01*
X042266Y020436D01*
X042179Y020464D01*
X042091Y020478D01*
X042091Y019946D01*
X041995Y019946D01*
X041995Y019851D01*
X041463Y019851D01*
X041477Y019763D01*
X041505Y019676D01*
X041547Y019595D01*
X041601Y019521D01*
X041665Y019456D01*
X041739Y019402D01*
X041820Y019361D01*
X041907Y019333D01*
X041995Y019319D01*
X041995Y019851D01*
X042091Y019851D01*
X042091Y019319D01*
X042179Y019333D01*
X042266Y019361D01*
X042314Y019386D01*
X042312Y018490D01*
X041577Y018490D01*
X041483Y018396D01*
X041483Y018346D01*
X039935Y018346D01*
X039803Y018291D01*
X039702Y018190D01*
X039647Y018058D01*
X039647Y017914D01*
X039702Y017782D01*
X039758Y017726D01*
X039709Y017678D01*
X039709Y017270D01*
X039793Y017186D01*
X039739Y017133D01*
X039685Y017001D01*
X039685Y016859D01*
X039739Y016727D01*
X039840Y016626D01*
X039972Y016572D01*
X040114Y016572D01*
X040246Y016626D01*
X040347Y016727D01*
X040401Y016859D01*
X040401Y017001D01*
X040347Y017133D01*
X040283Y017196D01*
X040283Y017248D01*
X040305Y017270D01*
X040305Y017626D01*
X041483Y017626D01*
X041483Y017464D01*
X041577Y017370D01*
X042309Y017370D01*
X042305Y015416D01*
X042266Y015436D01*
X042179Y015464D01*
X042091Y015478D01*
X042091Y014946D01*
X041995Y014946D01*
X041995Y014851D01*
X041463Y014851D01*
X041477Y014763D01*
X041505Y014676D01*
X041547Y014595D01*
X041601Y014521D01*
X041665Y014456D01*
X041739Y014402D01*
X041820Y014361D01*
X041907Y014333D01*
X041995Y014319D01*
X041995Y014851D01*
X042091Y014851D01*
X042091Y014319D01*
X042179Y014333D01*
X042266Y014361D01*
X042302Y014380D01*
X042300Y013490D01*
X041577Y013490D01*
X041483Y013396D01*
X041483Y013346D01*
X039935Y013346D01*
X039803Y013291D01*
X039702Y013190D01*
X039647Y013058D01*
X039647Y012914D01*
X039702Y012782D01*
X039758Y012726D01*
X039709Y012678D01*
X039709Y012516D01*
X039364Y012170D01*
X038142Y012170D01*
X038018Y012295D01*
X038018Y012523D01*
X038060Y012523D01*
X038154Y012617D01*
X038154Y013143D01*
X038060Y013237D01*
X037889Y013237D01*
X037946Y013294D01*
X037981Y013329D01*
X038018Y013417D01*
X038018Y013673D01*
X038060Y013673D01*
X038154Y013767D01*
X038154Y013790D01*
X038376Y013790D01*
X038440Y013726D01*
X038572Y013672D01*
X038714Y013672D01*
X038846Y013726D01*
X038919Y013799D01*
X038919Y012658D01*
X038974Y012526D01*
X039075Y012425D01*
X039207Y012370D01*
X039350Y012370D01*
X039483Y012425D01*
X039584Y012526D01*
X039639Y012658D01*
X039639Y021699D01*
X039689Y021577D01*
X039790Y021476D01*
X039922Y021422D01*
X040064Y021422D01*
X040196Y021476D01*
X040297Y021577D01*
X040351Y021709D01*
X040351Y021851D01*
X040297Y021983D01*
X040233Y022046D01*
X040233Y022198D01*
X040305Y022270D01*
X040305Y022626D01*
X041483Y022626D01*
X041483Y022573D02*
X040305Y022573D01*
X040305Y022414D02*
X041533Y022414D01*
X042320Y022256D02*
X040290Y022256D01*
X040233Y022097D02*
X042320Y022097D01*
X042320Y021939D02*
X040315Y021939D01*
X040351Y021780D02*
X042319Y021780D01*
X042319Y021622D02*
X040315Y021622D01*
X040163Y021463D02*
X042319Y021463D01*
X042318Y021305D02*
X039639Y021305D01*
X039639Y021463D02*
X039822Y021463D01*
X039671Y021622D02*
X039639Y021622D01*
X039993Y021780D02*
X039993Y022460D01*
X040007Y022474D01*
X039719Y023207D02*
X039653Y023207D01*
X039144Y024633D02*
X039083Y024633D01*
X039083Y024792D02*
X039316Y024792D01*
X039487Y024950D02*
X039083Y024950D01*
X039083Y025109D02*
X039659Y025109D01*
X039830Y025267D02*
X039083Y025267D01*
X039083Y025426D02*
X040001Y025426D01*
X040173Y025584D02*
X039080Y025584D01*
X038970Y025743D02*
X040344Y025743D01*
X040516Y025901D02*
X038811Y025901D01*
X038616Y026060D02*
X040687Y026060D01*
X040858Y026218D02*
X039420Y026218D01*
X039586Y026377D02*
X041030Y026377D01*
X041201Y026535D02*
X039609Y026535D01*
X039586Y026694D02*
X039752Y026694D01*
X039719Y026852D02*
X039514Y026852D01*
X039493Y026987D02*
X039586Y027080D01*
X039586Y027177D01*
X039609Y027232D01*
X039609Y027376D01*
X039586Y027431D01*
X039586Y027528D01*
X039493Y027621D01*
X039441Y027621D01*
X039377Y027685D01*
X039245Y027740D01*
X038668Y027740D01*
X038668Y027968D01*
X038631Y028056D01*
X038371Y028316D01*
X038304Y028383D01*
X038216Y028420D01*
X038059Y028420D01*
X037996Y028484D01*
X037864Y028538D01*
X037722Y028538D01*
X037590Y028484D01*
X037489Y028383D01*
X037435Y028251D01*
X037435Y028109D01*
X037489Y027977D01*
X037590Y027876D01*
X037722Y027822D01*
X037864Y027822D01*
X037996Y027876D01*
X038059Y027940D01*
X038069Y027940D01*
X038188Y027821D01*
X038188Y027737D01*
X038145Y027737D01*
X038107Y027699D01*
X038085Y027721D01*
X038044Y027745D01*
X037999Y027757D01*
X037777Y027757D01*
X037777Y027398D01*
X037740Y027398D01*
X037740Y027362D01*
X037362Y027362D01*
X037362Y027159D01*
X037374Y027114D01*
X037398Y027073D01*
X037431Y027039D01*
X037472Y027015D01*
X037518Y027003D01*
X037740Y027003D01*
X037740Y027362D01*
X037777Y027362D01*
X037777Y027003D01*
X037999Y027003D01*
X038044Y027015D01*
X038085Y027039D01*
X038107Y027061D01*
X038145Y027023D01*
X038348Y027023D01*
X038356Y027020D01*
X038972Y027020D01*
X039006Y026987D01*
X039075Y026987D01*
X039178Y026944D01*
X039321Y026944D01*
X039423Y026987D01*
X039493Y026987D01*
X039517Y027011D02*
X039720Y027011D01*
X039754Y027169D02*
X039586Y027169D01*
X039609Y027328D02*
X041268Y027328D01*
X041178Y027486D02*
X039586Y027486D01*
X039418Y027645D02*
X041019Y027645D01*
X040304Y027803D02*
X040010Y027803D01*
X040011Y027805D02*
X040035Y027846D01*
X040047Y027891D01*
X040047Y028172D01*
X039650Y028172D01*
X039650Y028288D01*
X040047Y028288D01*
X040047Y028569D01*
X040035Y028614D01*
X040011Y028655D01*
X039978Y028689D01*
X039937Y028713D01*
X039891Y028725D01*
X039650Y028725D01*
X039650Y028288D01*
X039534Y028288D01*
X039534Y028725D01*
X039292Y028725D01*
X039247Y028713D01*
X039206Y028689D01*
X039172Y028655D01*
X039148Y028614D01*
X039136Y028569D01*
X039136Y028288D01*
X039534Y028288D01*
X039534Y028172D01*
X039650Y028172D01*
X039650Y027735D01*
X039891Y027735D01*
X039937Y027747D01*
X039978Y027771D01*
X040011Y027805D01*
X040047Y027962D02*
X040259Y027962D01*
X040259Y028120D02*
X040047Y028120D01*
X040259Y028279D02*
X039650Y028279D01*
X039534Y028279D02*
X038409Y028279D01*
X038567Y028120D02*
X039136Y028120D01*
X039136Y028172D02*
X039136Y027891D01*
X039148Y027846D01*
X039172Y027805D01*
X039206Y027771D01*
X039247Y027747D01*
X039292Y027735D01*
X039534Y027735D01*
X039534Y028172D01*
X039136Y028172D01*
X039136Y027962D02*
X038668Y027962D01*
X038668Y027803D02*
X039174Y027803D01*
X039534Y027803D02*
X039650Y027803D01*
X039650Y027962D02*
X039534Y027962D01*
X039534Y028120D02*
X039650Y028120D01*
X039650Y028437D02*
X039534Y028437D01*
X039534Y028596D02*
X039650Y028596D01*
X040040Y028596D02*
X040259Y028596D01*
X040259Y028437D02*
X040047Y028437D01*
X039136Y028437D02*
X038042Y028437D01*
X038168Y028180D02*
X037793Y028180D01*
X037544Y028437D02*
X037283Y028437D01*
X037283Y028279D02*
X037446Y028279D01*
X037435Y028120D02*
X037283Y028120D01*
X037283Y027962D02*
X037505Y027962D01*
X037518Y027757D02*
X037472Y027745D01*
X037431Y027721D01*
X037398Y027687D01*
X037374Y027646D01*
X037362Y027601D01*
X037362Y027398D01*
X037740Y027398D01*
X037740Y027757D01*
X037518Y027757D01*
X037374Y027645D02*
X037283Y027645D01*
X037283Y027803D02*
X038188Y027803D01*
X038428Y027920D02*
X038168Y028180D01*
X038428Y027920D02*
X038428Y027380D01*
X038026Y027011D02*
X038982Y027011D01*
X038984Y026852D02*
X037283Y026852D01*
X037283Y026694D02*
X037373Y026694D01*
X037374Y026696D02*
X037362Y026651D01*
X037362Y026448D01*
X037740Y026448D01*
X037740Y026807D01*
X037518Y026807D01*
X037472Y026795D01*
X037431Y026771D01*
X037398Y026737D01*
X037374Y026696D01*
X037362Y026535D02*
X037283Y026535D01*
X037283Y026377D02*
X037362Y026377D01*
X037362Y026218D02*
X037294Y026218D01*
X037740Y026535D02*
X037777Y026535D01*
X037777Y026694D02*
X037740Y026694D01*
X037740Y027011D02*
X037777Y027011D01*
X037777Y027169D02*
X037740Y027169D01*
X037740Y027328D02*
X037777Y027328D01*
X037777Y027486D02*
X037740Y027486D01*
X037740Y027645D02*
X037777Y027645D01*
X037362Y027486D02*
X037283Y027486D01*
X037283Y027328D02*
X037362Y027328D01*
X037362Y027169D02*
X037283Y027169D01*
X037283Y027011D02*
X037490Y027011D01*
X037283Y028596D02*
X039143Y028596D01*
X037459Y029547D02*
X041638Y029547D01*
X041629Y029705D02*
X037544Y029705D01*
X039375Y030973D02*
X027283Y030973D01*
X027283Y030815D02*
X039421Y030815D01*
X039374Y031132D02*
X027181Y031132D01*
X027022Y031290D02*
X039418Y031290D01*
X039523Y031449D02*
X026864Y031449D01*
X027043Y030930D02*
X027043Y027055D01*
X028168Y025930D01*
X028168Y025055D01*
X032043Y025055D01*
X032286Y024792D02*
X032868Y024792D01*
X032868Y024893D02*
X032868Y024611D01*
X032880Y024566D01*
X032904Y024525D01*
X032938Y024491D01*
X032979Y024467D01*
X033024Y024455D01*
X033306Y024455D01*
X033587Y024455D01*
X033632Y024467D01*
X033674Y024491D01*
X033707Y024525D01*
X033731Y024566D01*
X033743Y024611D01*
X033743Y024893D01*
X033743Y025174D01*
X033731Y025220D01*
X033707Y025261D01*
X033674Y025294D01*
X033632Y025318D01*
X033587Y025330D01*
X033306Y025330D01*
X033306Y024893D01*
X033743Y024893D01*
X033306Y024893D01*
X033306Y024893D01*
X033306Y024893D01*
X033306Y025330D01*
X033024Y025330D01*
X032979Y025318D01*
X032938Y025294D01*
X032904Y025261D01*
X032880Y025220D01*
X032868Y025174D01*
X032868Y024893D01*
X033305Y024893D01*
X033305Y024893D01*
X032868Y024893D01*
X032868Y024950D02*
X032387Y024950D01*
X032401Y025109D02*
X032868Y025109D01*
X032910Y025267D02*
X032337Y025267D01*
X031543Y024805D02*
X032418Y023930D01*
X032676Y023682D02*
X034863Y023682D01*
X034863Y023524D02*
X031756Y023524D01*
X031727Y023365D02*
X034863Y023365D01*
X035199Y022650D02*
X035302Y022693D01*
X035303Y022694D01*
X035303Y021670D01*
X034909Y021670D01*
X034846Y021734D01*
X034714Y021788D01*
X034572Y021788D01*
X034440Y021734D01*
X034339Y021633D01*
X034285Y021501D01*
X034285Y021359D01*
X034339Y021227D01*
X034436Y021130D01*
X034339Y021033D01*
X034333Y021018D01*
X034322Y021030D01*
X034056Y021030D01*
X034053Y021044D01*
X034041Y021060D01*
X034034Y021079D01*
X034014Y021099D01*
X033997Y021122D01*
X033980Y021132D01*
X033966Y021146D01*
X033940Y021157D01*
X033601Y021366D01*
X033601Y021376D01*
X033547Y021508D01*
X033446Y021609D01*
X033314Y021663D01*
X033172Y021663D01*
X033040Y021609D01*
X032939Y021508D01*
X032908Y021432D01*
X032908Y021539D01*
X032972Y021602D01*
X033026Y021734D01*
X033026Y021876D01*
X032972Y022008D01*
X032871Y022109D01*
X032739Y022163D01*
X032651Y022163D01*
X032651Y022251D01*
X032597Y022383D01*
X032496Y022484D01*
X032364Y022538D01*
X032222Y022538D01*
X032104Y022489D01*
X032097Y022508D01*
X031996Y022609D01*
X031896Y022650D01*
X035199Y022650D01*
X035303Y022573D02*
X032032Y022573D01*
X031793Y022305D02*
X031793Y020768D01*
X031941Y020620D01*
X031671Y020512D02*
X031658Y020512D01*
X031658Y020354D02*
X031671Y020354D01*
X031418Y020097D02*
X031353Y020032D01*
X031418Y020097D02*
X031418Y021930D01*
X031060Y021939D02*
X030986Y021939D01*
X031060Y022001D02*
X031114Y022133D01*
X031215Y022234D01*
X031347Y022288D01*
X031435Y022288D01*
X031435Y022376D01*
X031445Y022400D01*
X031151Y022400D01*
X030698Y021131D01*
X030698Y021124D01*
X030679Y021079D01*
X030663Y021033D01*
X030658Y021028D01*
X030655Y021021D01*
X030641Y021007D01*
X030641Y020333D01*
X030943Y020048D01*
X030943Y020209D01*
X031037Y020302D01*
X031178Y020302D01*
X031178Y021664D01*
X031114Y021727D01*
X031060Y021859D01*
X031060Y022001D01*
X031043Y022097D02*
X031099Y022097D01*
X031099Y022256D02*
X031268Y022256D01*
X031092Y021780D02*
X030930Y021780D01*
X030873Y021622D02*
X031178Y021622D01*
X031178Y021463D02*
X030816Y021463D01*
X030760Y021305D02*
X031178Y021305D01*
X031178Y021146D02*
X030703Y021146D01*
X030641Y020988D02*
X031178Y020988D01*
X031178Y020829D02*
X030641Y020829D01*
X030641Y020671D02*
X031178Y020671D01*
X031178Y020512D02*
X030641Y020512D01*
X030641Y020354D02*
X031178Y020354D01*
X030943Y020195D02*
X030787Y020195D01*
X031763Y019403D02*
X033763Y019403D01*
X033763Y019244D02*
X031763Y019244D01*
X031763Y019086D02*
X033763Y019086D01*
X033390Y018452D02*
X033353Y018452D01*
X033093Y018205D02*
X033830Y018192D01*
X033830Y017240D01*
X033515Y017240D02*
X033515Y017808D01*
X032618Y017830D01*
X032570Y017240D02*
X032543Y017212D01*
X032543Y012930D01*
X036343Y009130D01*
X039043Y009130D01*
X039043Y007980D01*
X039503Y007991D02*
X040023Y007991D01*
X040023Y008000D02*
X040023Y007960D01*
X039563Y007960D01*
X039563Y007642D01*
X039575Y007568D01*
X039598Y007496D01*
X039632Y007428D01*
X039677Y007367D01*
X039730Y007314D01*
X039791Y007269D01*
X039859Y007235D01*
X039931Y007212D01*
X039942Y007210D01*
X038323Y007210D01*
X038433Y007319D01*
X038503Y007488D01*
X038503Y008271D01*
X038433Y008441D01*
X038303Y008570D01*
X038134Y008640D01*
X037951Y008640D01*
X037782Y008570D01*
X037653Y008441D01*
X037583Y008271D01*
X037583Y007488D01*
X037653Y007319D01*
X037762Y007210D01*
X037144Y007210D01*
X037155Y007212D01*
X037227Y007235D01*
X037294Y007269D01*
X037356Y007314D01*
X037409Y007367D01*
X037453Y007428D01*
X037488Y007496D01*
X037511Y007568D01*
X037523Y007642D01*
X037523Y007960D01*
X037063Y007960D01*
X037063Y008000D01*
X037523Y008000D01*
X037523Y008318D01*
X037511Y008392D01*
X037488Y008464D01*
X037453Y008532D01*
X037409Y008593D01*
X037356Y008646D01*
X037294Y008691D01*
X037227Y008725D01*
X037155Y008748D01*
X037081Y008760D01*
X037063Y008760D01*
X037063Y008000D01*
X037023Y008000D01*
X037023Y008760D01*
X037005Y008760D01*
X036931Y008748D01*
X036859Y008725D01*
X036791Y008691D01*
X036730Y008646D01*
X036677Y008593D01*
X036632Y008532D01*
X036598Y008464D01*
X036575Y008392D01*
X036563Y008318D01*
X036563Y008000D01*
X037023Y008000D01*
X037023Y007960D01*
X036563Y007960D01*
X036563Y007642D01*
X036575Y007568D01*
X036598Y007496D01*
X036632Y007428D01*
X036677Y007367D01*
X036730Y007314D01*
X036791Y007269D01*
X036859Y007235D01*
X036931Y007212D01*
X036942Y007210D01*
X035659Y007210D01*
X035467Y007402D01*
X035503Y007488D01*
X035503Y008271D01*
X035433Y008441D01*
X035303Y008570D01*
X035134Y008640D01*
X034951Y008640D01*
X034782Y008570D01*
X034653Y008441D01*
X034583Y008271D01*
X034583Y007488D01*
X034653Y007319D01*
X034782Y007190D01*
X034951Y007120D01*
X034957Y007120D01*
X035306Y006771D01*
X035384Y006693D01*
X035487Y006650D01*
X040599Y006650D01*
X040702Y006693D01*
X040780Y006771D01*
X041129Y007120D01*
X041134Y007120D01*
X041303Y007190D01*
X041433Y007319D01*
X041503Y007488D01*
X041503Y008271D01*
X041433Y008441D01*
X041303Y008570D01*
X041134Y008640D01*
X040951Y008640D01*
X040782Y008570D01*
X040653Y008441D01*
X040583Y008271D01*
X040583Y007488D01*
X040619Y007402D01*
X040427Y007210D01*
X040144Y007210D01*
X040155Y007212D01*
X040227Y007235D01*
X040294Y007269D01*
X040356Y007314D01*
X040409Y007367D01*
X040453Y007428D01*
X040488Y007496D01*
X040511Y007568D01*
X040523Y007642D01*
X040523Y007960D01*
X040063Y007960D01*
X040063Y008000D01*
X040523Y008000D01*
X040523Y008318D01*
X040511Y008392D01*
X040488Y008464D01*
X040453Y008532D01*
X040409Y008593D01*
X040356Y008646D01*
X040294Y008691D01*
X040227Y008725D01*
X040155Y008748D01*
X040081Y008760D01*
X040063Y008760D01*
X040063Y008000D01*
X040023Y008000D01*
X040023Y008760D01*
X040005Y008760D01*
X039931Y008748D01*
X039859Y008725D01*
X039791Y008691D01*
X039730Y008646D01*
X039677Y008593D01*
X039632Y008532D01*
X039598Y008464D01*
X039575Y008392D01*
X039563Y008318D01*
X039563Y008000D01*
X040023Y008000D01*
X040063Y007991D02*
X040583Y007991D01*
X040583Y008149D02*
X040523Y008149D01*
X040523Y008308D02*
X040598Y008308D01*
X040678Y008466D02*
X040487Y008466D01*
X040377Y008625D02*
X040914Y008625D01*
X041172Y008625D02*
X041737Y008625D01*
X041782Y008670D02*
X041653Y008541D01*
X041583Y008371D01*
X041583Y007588D01*
X041653Y007419D01*
X041782Y007290D01*
X041951Y007220D01*
X042134Y007220D01*
X042286Y007283D01*
X042284Y006490D01*
X032679Y006490D01*
X032999Y006758D01*
X033010Y006762D01*
X033036Y006788D01*
X033064Y006812D01*
X033069Y006822D01*
X033077Y006830D01*
X033091Y006864D01*
X033108Y006896D01*
X033109Y006908D01*
X033113Y006918D01*
X033113Y006955D01*
X033116Y006991D01*
X033113Y007002D01*
X033099Y010282D01*
X033306Y010282D01*
X033587Y010282D01*
X033632Y010294D01*
X033674Y010318D01*
X033707Y010351D01*
X033731Y010392D01*
X033743Y010438D01*
X033743Y010719D01*
X033306Y010719D01*
X033306Y010719D01*
X033306Y010282D01*
X033306Y010719D01*
X033306Y010719D01*
X033743Y010719D01*
X033743Y010891D01*
X035803Y008831D01*
X035803Y008678D01*
X035782Y008670D01*
X035653Y008541D01*
X035583Y008371D01*
X035583Y007588D01*
X035653Y007419D01*
X035782Y007290D01*
X035951Y007220D01*
X036134Y007220D01*
X036303Y007290D01*
X036433Y007419D01*
X036503Y007588D01*
X036503Y008371D01*
X036433Y008541D01*
X036303Y008670D01*
X036283Y008678D01*
X036283Y008895D01*
X036295Y008890D01*
X038803Y008890D01*
X038803Y008678D01*
X038782Y008670D01*
X038653Y008541D01*
X038583Y008371D01*
X038583Y007588D01*
X038653Y007419D01*
X038782Y007290D01*
X038951Y007220D01*
X039134Y007220D01*
X039303Y007290D01*
X039433Y007419D01*
X039503Y007588D01*
X039503Y008371D01*
X039433Y008541D01*
X039303Y008670D01*
X039283Y008678D01*
X039283Y009178D01*
X039278Y009190D01*
X041803Y009190D01*
X041803Y008678D01*
X041782Y008670D01*
X041803Y008783D02*
X039283Y008783D01*
X039283Y008942D02*
X041803Y008942D01*
X041803Y009100D02*
X039283Y009100D01*
X039349Y008625D02*
X039709Y008625D01*
X039599Y008466D02*
X039464Y008466D01*
X039503Y008308D02*
X039563Y008308D01*
X039563Y008149D02*
X039503Y008149D01*
X039503Y007832D02*
X039563Y007832D01*
X039563Y007674D02*
X039503Y007674D01*
X039472Y007515D02*
X039592Y007515D01*
X039688Y007357D02*
X039370Y007357D01*
X038716Y007357D02*
X038448Y007357D01*
X038503Y007515D02*
X038613Y007515D01*
X038583Y007674D02*
X038503Y007674D01*
X038503Y007832D02*
X038583Y007832D01*
X038583Y007991D02*
X038503Y007991D01*
X038503Y008149D02*
X038583Y008149D01*
X038583Y008308D02*
X038488Y008308D01*
X038407Y008466D02*
X038622Y008466D01*
X038737Y008625D02*
X038172Y008625D01*
X037914Y008625D02*
X037377Y008625D01*
X037487Y008466D02*
X037678Y008466D01*
X037598Y008308D02*
X037523Y008308D01*
X037523Y008149D02*
X037583Y008149D01*
X037583Y007991D02*
X037063Y007991D01*
X037023Y007991D02*
X036503Y007991D01*
X036503Y008149D02*
X036563Y008149D01*
X036563Y008308D02*
X036503Y008308D01*
X036464Y008466D02*
X036599Y008466D01*
X036709Y008625D02*
X036349Y008625D01*
X036283Y008783D02*
X038803Y008783D01*
X037583Y007832D02*
X037523Y007832D01*
X037523Y007674D02*
X037583Y007674D01*
X037583Y007515D02*
X037494Y007515D01*
X037398Y007357D02*
X037638Y007357D01*
X036688Y007357D02*
X036370Y007357D01*
X036472Y007515D02*
X036592Y007515D01*
X036563Y007674D02*
X036503Y007674D01*
X036503Y007832D02*
X036563Y007832D01*
X036043Y007980D02*
X036043Y008930D01*
X032256Y012717D01*
X032256Y017240D01*
X031941Y017240D02*
X031941Y015678D01*
X031843Y015580D01*
X030575Y015580D01*
X030011Y015580D01*
X029967Y015536D01*
X029967Y015506D01*
X030273Y015282D02*
X030335Y015282D01*
X030335Y015123D02*
X030301Y015123D01*
X030815Y014806D02*
X031453Y014806D01*
X031453Y014648D02*
X030815Y014648D01*
X030815Y014489D02*
X031453Y014489D01*
X031453Y014331D02*
X030767Y014331D01*
X030609Y014172D02*
X031453Y014172D01*
X031453Y014014D02*
X030450Y014014D01*
X029680Y013538D02*
X029633Y013538D01*
X029327Y013538D02*
X029290Y013538D01*
X029290Y013697D02*
X029327Y013697D01*
X029327Y013855D02*
X029290Y013855D01*
X029290Y014014D02*
X029327Y014014D01*
X029327Y014172D02*
X029290Y014172D01*
X029308Y014780D02*
X029308Y015447D01*
X029219Y015536D01*
X028901Y015599D02*
X028463Y015599D01*
X028463Y015757D02*
X028901Y015757D01*
X028901Y015440D02*
X028423Y015440D01*
X028298Y015282D02*
X028913Y015282D01*
X028526Y016363D02*
X029593Y016363D01*
X029327Y016867D02*
X029290Y016867D01*
X029290Y017025D02*
X029327Y017025D01*
X029290Y017184D02*
X026503Y017184D01*
X026503Y017342D02*
X028912Y017342D01*
X028912Y017401D02*
X028912Y017198D01*
X029290Y017198D01*
X029290Y017557D01*
X029068Y017557D01*
X029022Y017545D01*
X028981Y017521D01*
X028948Y017487D01*
X028924Y017446D01*
X028912Y017401D01*
X028961Y017501D02*
X026503Y017501D01*
X026503Y017659D02*
X029703Y017659D01*
X029703Y017818D02*
X026503Y017818D01*
X026472Y017976D02*
X029703Y017976D01*
X029797Y018135D02*
X029311Y018135D01*
X029308Y018132D02*
X029349Y018156D01*
X029382Y018190D01*
X029406Y018231D01*
X029418Y018276D01*
X029418Y018508D01*
X028991Y018508D01*
X028991Y018120D01*
X029262Y018120D01*
X029308Y018132D01*
X029418Y018293D02*
X029830Y018293D01*
X029966Y018452D02*
X029418Y018452D01*
X028991Y018452D02*
X028895Y018452D01*
X028895Y018293D02*
X028991Y018293D01*
X028991Y018135D02*
X028895Y018135D01*
X028574Y018135D02*
X026348Y018135D01*
X026503Y017025D02*
X028912Y017025D01*
X028954Y016867D02*
X026566Y016867D01*
X026783Y014489D02*
X025483Y014489D01*
X025515Y014331D02*
X026783Y014331D01*
X026783Y014172D02*
X025515Y014172D01*
X025515Y014014D02*
X026783Y014014D01*
X026783Y013855D02*
X025369Y013855D01*
X025348Y013697D02*
X026783Y013697D01*
X026783Y013538D02*
X025506Y013538D01*
X025595Y013380D02*
X026783Y013380D01*
X026783Y013221D02*
X025595Y013221D01*
X025595Y013063D02*
X026783Y013063D01*
X026783Y012904D02*
X025490Y012904D01*
X025331Y012746D02*
X026783Y012746D01*
X026783Y012587D02*
X025417Y012587D01*
X025515Y012429D02*
X026783Y012429D01*
X026783Y012270D02*
X025515Y012270D01*
X025515Y012112D02*
X026783Y012112D01*
X026683Y011953D02*
X025435Y011953D01*
X025277Y011795D02*
X026646Y011795D01*
X026646Y011636D02*
X025440Y011636D01*
X025065Y011261D02*
X026312Y011261D01*
X026543Y011030D01*
X026543Y010430D01*
X026743Y010230D01*
X027343Y010230D01*
X027543Y010430D01*
X027878Y010430D01*
X027893Y010415D01*
X027893Y011122D01*
X027937Y011166D01*
X027639Y011161D02*
X027366Y011161D01*
X027366Y011101D02*
X027366Y011570D01*
X028035Y011570D01*
X028121Y011534D01*
X032065Y011534D01*
X032197Y011589D01*
X032298Y011690D01*
X032341Y011793D01*
X032613Y011520D01*
X032614Y011254D01*
X032547Y011322D01*
X032547Y011370D01*
X032453Y011464D01*
X032045Y011464D01*
X031993Y011412D01*
X031941Y011464D01*
X031533Y011464D01*
X031439Y011370D01*
X031439Y010962D01*
X031503Y010898D01*
X031503Y010741D01*
X031480Y010741D01*
X031386Y010647D01*
X031386Y010605D01*
X031230Y010605D01*
X031142Y010568D01*
X031007Y010433D01*
X030939Y010366D01*
X030903Y010278D01*
X030903Y008882D01*
X030939Y008794D01*
X031063Y008671D01*
X031063Y007950D01*
X031023Y007950D01*
X031023Y008710D01*
X031005Y008710D01*
X030931Y008698D01*
X030859Y008675D01*
X030791Y008641D01*
X030730Y008596D01*
X030677Y008543D01*
X030632Y008482D01*
X030598Y008414D01*
X030583Y008369D01*
X030533Y008491D01*
X030454Y008570D01*
X030534Y008650D01*
X030599Y008650D01*
X030702Y008693D01*
X030780Y008771D01*
X030823Y008874D01*
X030823Y010986D01*
X030780Y011089D01*
X030702Y011167D01*
X030647Y011222D01*
X030647Y011370D01*
X030553Y011464D01*
X030145Y011464D01*
X030093Y011412D01*
X030041Y011464D01*
X029633Y011464D01*
X029539Y011370D01*
X029539Y010962D01*
X029597Y010904D01*
X029597Y010791D01*
X029580Y010791D01*
X029486Y010697D01*
X029486Y010661D01*
X029386Y010661D01*
X029298Y010624D01*
X029107Y010433D01*
X029039Y010366D01*
X029003Y010278D01*
X029003Y008882D01*
X029039Y008794D01*
X029132Y008702D01*
X029081Y008710D01*
X029063Y008710D01*
X029063Y007950D01*
X029023Y007950D01*
X029023Y008710D01*
X029005Y008710D01*
X028931Y008698D01*
X028859Y008675D01*
X028791Y008641D01*
X028730Y008596D01*
X028677Y008543D01*
X028632Y008482D01*
X028598Y008414D01*
X028583Y008369D01*
X028533Y008491D01*
X028516Y008507D01*
X028702Y008693D01*
X028780Y008771D01*
X028823Y008874D01*
X028823Y011127D01*
X028780Y011230D01*
X028747Y011264D01*
X028747Y011370D01*
X028653Y011464D01*
X028245Y011464D01*
X028193Y011412D01*
X028141Y011464D01*
X027733Y011464D01*
X027639Y011370D01*
X027639Y010962D01*
X027653Y010948D01*
X027653Y010791D01*
X027630Y010791D01*
X027536Y010697D01*
X027536Y010670D01*
X027495Y010670D01*
X027424Y010640D01*
X027424Y011043D01*
X027366Y011101D01*
X027424Y011002D02*
X027639Y011002D01*
X027653Y010844D02*
X027424Y010844D01*
X027424Y010685D02*
X027536Y010685D01*
X027639Y011319D02*
X027366Y011319D01*
X027366Y011478D02*
X032614Y011478D01*
X032614Y011319D02*
X032550Y011319D01*
X032497Y011636D02*
X032244Y011636D01*
X031743Y011160D02*
X031737Y011166D01*
X031743Y011160D02*
X031743Y010365D01*
X031278Y010365D01*
X031143Y010230D01*
X031143Y008930D01*
X031543Y008530D01*
X031543Y007230D01*
X031143Y006880D01*
X026743Y006880D01*
X026443Y007130D01*
X026443Y009030D01*
X026243Y009230D01*
X025128Y009230D01*
X025065Y009292D01*
X025373Y009734D02*
X026499Y009734D01*
X026507Y009727D02*
X026595Y009690D01*
X027003Y009690D01*
X027003Y009382D01*
X027039Y009294D01*
X027107Y009227D01*
X027403Y008931D01*
X027403Y008549D01*
X027356Y008596D01*
X027294Y008641D01*
X027227Y008675D01*
X027155Y008698D01*
X027081Y008710D01*
X027063Y008710D01*
X027063Y007950D01*
X027023Y007950D01*
X027023Y008710D01*
X027005Y008710D01*
X026931Y008698D01*
X026859Y008675D01*
X026791Y008641D01*
X026730Y008596D01*
X026683Y008549D01*
X026683Y009078D01*
X026646Y009166D01*
X026446Y009366D01*
X026379Y009433D01*
X026291Y009470D01*
X025595Y009470D01*
X025595Y009512D01*
X025285Y009822D01*
X025245Y009822D01*
X025413Y009990D01*
X026244Y009990D01*
X026507Y009727D01*
X026341Y009893D02*
X025315Y009893D01*
X025532Y009576D02*
X027003Y009576D01*
X027003Y009417D02*
X026395Y009417D01*
X026554Y009259D02*
X027075Y009259D01*
X027233Y009100D02*
X026674Y009100D01*
X026683Y008942D02*
X027392Y008942D01*
X027403Y008783D02*
X026683Y008783D01*
X026683Y008625D02*
X026769Y008625D01*
X027023Y008625D02*
X027063Y008625D01*
X027063Y008466D02*
X027023Y008466D01*
X027023Y008308D02*
X027063Y008308D01*
X027063Y008149D02*
X027023Y008149D01*
X027023Y007991D02*
X027063Y007991D01*
X027063Y007910D02*
X027063Y007150D01*
X027081Y007150D01*
X027155Y007162D01*
X027227Y007185D01*
X027294Y007219D01*
X027356Y007264D01*
X027403Y007311D01*
X027403Y007282D01*
X027439Y007194D01*
X027507Y007127D01*
X027514Y007120D01*
X026830Y007120D01*
X026683Y007242D01*
X026683Y007311D01*
X026730Y007264D01*
X026791Y007219D01*
X026859Y007185D01*
X026931Y007162D01*
X027005Y007150D01*
X027023Y007150D01*
X027023Y007910D01*
X027063Y007910D01*
X027063Y007832D02*
X027023Y007832D01*
X027023Y007674D02*
X027063Y007674D01*
X027063Y007515D02*
X027023Y007515D01*
X027023Y007357D02*
X027063Y007357D01*
X027063Y007198D02*
X027023Y007198D01*
X026833Y007198D02*
X026736Y007198D01*
X027252Y007198D02*
X027438Y007198D01*
X027507Y007127D02*
X027507Y007127D01*
X027643Y007330D02*
X027643Y009030D01*
X027243Y009430D01*
X027243Y009930D01*
X026643Y009930D01*
X026343Y010230D01*
X025028Y010230D01*
X024965Y010292D01*
X023965Y010292D02*
X023353Y009680D01*
X023043Y009430D01*
X023043Y008430D01*
X022693Y008080D01*
X022278Y008080D01*
X022278Y007695D01*
X022293Y007680D01*
X020493Y007680D01*
X020193Y007980D01*
X020653Y007991D02*
X021212Y007991D01*
X021212Y008062D02*
X021212Y007920D01*
X020653Y007920D01*
X020653Y008371D01*
X020583Y008541D01*
X020453Y008670D01*
X020284Y008740D01*
X020101Y008740D01*
X019932Y008670D01*
X019803Y008541D01*
X019733Y008371D01*
X019733Y007588D01*
X019803Y007420D01*
X019483Y007420D01*
X019553Y007588D01*
X019553Y008371D01*
X019483Y008541D01*
X019373Y008651D01*
X019373Y009259D01*
X019483Y009369D01*
X019553Y009538D01*
X019553Y010321D01*
X019483Y010491D01*
X019353Y010620D01*
X019323Y010633D01*
X019323Y011227D01*
X019353Y011240D01*
X019483Y011369D01*
X019553Y011538D01*
X019553Y012321D01*
X019483Y012491D01*
X019373Y012601D01*
X019373Y013259D01*
X019483Y013369D01*
X019553Y013538D01*
X019733Y013538D01*
X019803Y013369D01*
X019932Y013240D01*
X020101Y013170D01*
X020284Y013170D01*
X020453Y013240D01*
X020541Y013328D01*
X020632Y013252D01*
X020659Y013225D01*
X020668Y013221D01*
X020676Y013215D01*
X020712Y013204D01*
X020748Y013190D01*
X020758Y013190D01*
X020767Y013187D01*
X020805Y013190D01*
X022279Y013205D01*
X022325Y013205D01*
X022326Y013206D01*
X022328Y013206D01*
X022371Y013224D01*
X022414Y013242D01*
X022414Y013243D01*
X022416Y013243D01*
X022448Y013277D01*
X022481Y013309D01*
X022482Y013311D01*
X022482Y013312D01*
X022500Y013355D01*
X022518Y013398D01*
X022518Y013399D01*
X022518Y013400D01*
X022518Y013447D01*
X022518Y013723D01*
X022560Y013723D01*
X022654Y013817D01*
X022654Y013840D01*
X023044Y013840D01*
X023053Y013831D01*
X023053Y013632D01*
X023089Y013544D01*
X023339Y013294D01*
X023407Y013227D01*
X023495Y013190D01*
X023535Y013190D01*
X023535Y013010D01*
X023754Y012791D01*
X023746Y012791D01*
X023435Y012480D01*
X023435Y012320D01*
X022654Y012320D01*
X022654Y012343D01*
X022560Y012437D01*
X021995Y012437D01*
X021957Y012399D01*
X021935Y012421D01*
X021894Y012445D01*
X021849Y012457D01*
X021627Y012457D01*
X021627Y012098D01*
X021590Y012098D01*
X021590Y012062D01*
X021212Y012062D01*
X021212Y011859D01*
X021224Y011814D01*
X021248Y011773D01*
X021281Y011739D01*
X021322Y011715D01*
X021368Y011703D01*
X021590Y011703D01*
X021590Y012062D01*
X021627Y012062D01*
X021627Y011703D01*
X021849Y011703D01*
X021894Y011715D01*
X021935Y011739D01*
X021957Y011761D01*
X021995Y011723D01*
X022038Y011723D01*
X022038Y011683D01*
X020879Y011671D01*
X020653Y011859D01*
X020653Y012321D01*
X020583Y012491D01*
X020453Y012620D01*
X020284Y012690D01*
X020101Y012690D01*
X019932Y012620D01*
X019803Y012491D01*
X019733Y012321D01*
X019733Y011538D01*
X019803Y011369D01*
X019932Y011240D01*
X020101Y011170D01*
X020284Y011170D01*
X020453Y011240D01*
X020541Y011328D01*
X020632Y011252D01*
X020659Y011225D01*
X020668Y011221D01*
X020676Y011215D01*
X020712Y011204D01*
X020748Y011190D01*
X020758Y011190D01*
X020767Y011187D01*
X020805Y011190D01*
X022279Y011205D01*
X022325Y011205D01*
X022326Y011206D01*
X022328Y011206D01*
X022371Y011224D01*
X022414Y011242D01*
X022414Y011243D01*
X022416Y011243D01*
X022448Y011277D01*
X022481Y011309D01*
X022482Y011311D01*
X022482Y011312D01*
X022500Y011355D01*
X022518Y011398D01*
X022518Y011399D01*
X022518Y011400D01*
X022518Y011447D01*
X022518Y011723D01*
X022560Y011723D01*
X022654Y011817D01*
X022654Y011840D01*
X023637Y011840D01*
X023746Y011731D01*
X023786Y011731D01*
X023535Y011480D01*
X023535Y011070D01*
X023089Y010624D01*
X023053Y010536D01*
X023053Y010320D01*
X022654Y010320D01*
X022654Y010343D01*
X022560Y010437D01*
X021995Y010437D01*
X021957Y010399D01*
X021935Y010421D01*
X021894Y010445D01*
X021849Y010457D01*
X021627Y010457D01*
X021627Y010098D01*
X021590Y010098D01*
X021590Y010062D01*
X021212Y010062D01*
X021212Y009859D01*
X021224Y009814D01*
X021248Y009773D01*
X021281Y009739D01*
X021322Y009715D01*
X021368Y009703D01*
X021590Y009703D01*
X021590Y010062D01*
X021627Y010062D01*
X021627Y009703D01*
X021849Y009703D01*
X021894Y009715D01*
X021935Y009739D01*
X021957Y009761D01*
X021995Y009723D01*
X022038Y009723D01*
X022038Y009683D01*
X020879Y009671D01*
X020653Y009859D01*
X020653Y010321D01*
X020583Y010491D01*
X020453Y010620D01*
X020284Y010690D01*
X020101Y010690D01*
X019932Y010620D01*
X019803Y010491D01*
X019733Y010321D01*
X019733Y009538D01*
X019803Y009369D01*
X019932Y009240D01*
X020101Y009170D01*
X020284Y009170D01*
X020453Y009240D01*
X020541Y009328D01*
X020632Y009252D01*
X020659Y009225D01*
X020668Y009221D01*
X020676Y009215D01*
X020712Y009204D01*
X020748Y009190D01*
X020758Y009190D01*
X020767Y009187D01*
X020805Y009190D01*
X022279Y009205D01*
X022325Y009205D01*
X022326Y009206D01*
X022328Y009206D01*
X022371Y009224D01*
X022414Y009242D01*
X022414Y009243D01*
X022416Y009243D01*
X022448Y009277D01*
X022481Y009309D01*
X022482Y009311D01*
X022482Y009312D01*
X022500Y009355D01*
X022518Y009398D01*
X022518Y009399D01*
X022518Y009400D01*
X022518Y009447D01*
X022518Y009723D01*
X022560Y009723D01*
X022654Y009817D01*
X022654Y009840D01*
X023169Y009840D01*
X022919Y009639D01*
X022907Y009633D01*
X022882Y009609D01*
X022855Y009587D01*
X022849Y009575D01*
X022839Y009566D01*
X022826Y009534D01*
X022809Y009503D01*
X022808Y009490D01*
X022803Y009478D01*
X022803Y009443D01*
X022799Y009408D01*
X022803Y009395D01*
X022803Y008529D01*
X022635Y008362D01*
X022560Y008437D01*
X021995Y008437D01*
X021957Y008399D01*
X021935Y008421D01*
X021894Y008445D01*
X021849Y008457D01*
X021627Y008457D01*
X021627Y008098D01*
X021590Y008098D01*
X021590Y008062D01*
X021212Y008062D01*
X021212Y008098D02*
X021590Y008098D01*
X021590Y008457D01*
X021368Y008457D01*
X021322Y008445D01*
X021281Y008421D01*
X021248Y008387D01*
X021224Y008346D01*
X021212Y008301D01*
X021212Y008098D01*
X021212Y008149D02*
X020653Y008149D01*
X020653Y008308D02*
X021214Y008308D01*
X021590Y008308D02*
X021627Y008308D01*
X021627Y008149D02*
X021590Y008149D01*
X020614Y008466D02*
X022740Y008466D01*
X022803Y008625D02*
X020499Y008625D01*
X019887Y008625D02*
X019399Y008625D01*
X019373Y008783D02*
X022803Y008783D01*
X022803Y008942D02*
X019373Y008942D01*
X019373Y009100D02*
X022803Y009100D01*
X022803Y009259D02*
X022430Y009259D01*
X022518Y009417D02*
X022800Y009417D01*
X022849Y009576D02*
X022518Y009576D01*
X022571Y009734D02*
X023038Y009734D01*
X023193Y010080D02*
X022278Y010080D01*
X022278Y009445D01*
X020793Y009430D01*
X020193Y009930D01*
X020653Y009893D02*
X021212Y009893D01*
X021212Y010051D02*
X020653Y010051D01*
X020653Y010210D02*
X021212Y010210D01*
X021212Y010301D02*
X021212Y010098D01*
X021590Y010098D01*
X021590Y010457D01*
X021368Y010457D01*
X021322Y010445D01*
X021281Y010421D01*
X021248Y010387D01*
X021224Y010346D01*
X021212Y010301D01*
X021237Y010368D02*
X020634Y010368D01*
X020547Y010527D02*
X023053Y010527D01*
X023053Y010368D02*
X022629Y010368D01*
X023150Y010685D02*
X020296Y010685D01*
X020089Y010685D02*
X019323Y010685D01*
X019323Y010844D02*
X023309Y010844D01*
X023467Y011002D02*
X019323Y011002D01*
X019323Y011161D02*
X023535Y011161D01*
X023535Y011319D02*
X022485Y011319D01*
X022518Y011478D02*
X023535Y011478D01*
X023691Y011636D02*
X022518Y011636D01*
X022632Y011795D02*
X023682Y011795D01*
X023785Y012080D02*
X023965Y012261D01*
X023785Y012080D02*
X022278Y012080D01*
X022278Y011445D01*
X020793Y011430D01*
X020193Y011930D01*
X020653Y011953D02*
X021212Y011953D01*
X021212Y012098D02*
X021590Y012098D01*
X021590Y012457D01*
X021368Y012457D01*
X021322Y012445D01*
X021281Y012421D01*
X021248Y012387D01*
X021224Y012346D01*
X021212Y012301D01*
X021212Y012098D01*
X021212Y012112D02*
X020653Y012112D01*
X020653Y012270D02*
X021212Y012270D01*
X021294Y012429D02*
X020609Y012429D01*
X020486Y012587D02*
X023542Y012587D01*
X023435Y012429D02*
X022569Y012429D01*
X021986Y012429D02*
X021922Y012429D01*
X021627Y012429D02*
X021590Y012429D01*
X021590Y012270D02*
X021627Y012270D01*
X021627Y012112D02*
X021590Y012112D01*
X021590Y011953D02*
X021627Y011953D01*
X021627Y011795D02*
X021590Y011795D01*
X021235Y011795D02*
X020730Y011795D01*
X020551Y011319D02*
X020532Y011319D01*
X019853Y011319D02*
X019432Y011319D01*
X019528Y011478D02*
X019758Y011478D01*
X019733Y011636D02*
X019553Y011636D01*
X019553Y011795D02*
X019733Y011795D01*
X019733Y011953D02*
X019553Y011953D01*
X019553Y012112D02*
X019733Y012112D01*
X019733Y012270D02*
X019553Y012270D01*
X019509Y012429D02*
X019777Y012429D01*
X019899Y012587D02*
X019386Y012587D01*
X019373Y012746D02*
X023701Y012746D01*
X023641Y012904D02*
X019373Y012904D01*
X019373Y013063D02*
X023535Y013063D01*
X023420Y013221D02*
X022363Y013221D01*
X022510Y013380D02*
X023254Y013380D01*
X023095Y013538D02*
X022518Y013538D01*
X022518Y013697D02*
X023053Y013697D01*
X023293Y013680D02*
X023543Y013430D01*
X023865Y013430D01*
X024065Y013229D01*
X023293Y013680D02*
X023293Y013930D01*
X023143Y014080D01*
X022278Y014080D01*
X022278Y013445D01*
X020793Y013430D01*
X020193Y013930D01*
X020653Y013859D02*
X020653Y014321D01*
X020583Y014491D01*
X020453Y014620D01*
X020284Y014690D01*
X020101Y014690D01*
X019932Y014620D01*
X019803Y014491D01*
X019733Y014321D01*
X019733Y013538D01*
X019733Y013697D02*
X019553Y013697D01*
X019553Y013855D02*
X019733Y013855D01*
X019733Y014014D02*
X019553Y014014D01*
X019553Y014172D02*
X019733Y014172D01*
X019737Y014331D02*
X019549Y014331D01*
X019553Y014321D02*
X019483Y014491D01*
X019353Y014620D01*
X019184Y014690D01*
X019001Y014690D01*
X018832Y014620D01*
X018703Y014491D01*
X018633Y014321D01*
X018633Y013538D01*
X012484Y013538D01*
X012573Y013450D02*
X012292Y013730D01*
X012573Y014010D01*
X012573Y014450D01*
X012332Y014690D01*
X023165Y014690D01*
X023435Y014420D01*
X023435Y014127D01*
X023429Y014133D01*
X023279Y014283D01*
X023191Y014320D01*
X022654Y014320D01*
X022654Y014343D01*
X022560Y014437D01*
X021995Y014437D01*
X021957Y014399D01*
X021935Y014421D01*
X021894Y014445D01*
X021849Y014457D01*
X021627Y014457D01*
X021627Y014098D01*
X021590Y014098D01*
X021590Y014062D01*
X021212Y014062D01*
X021212Y013859D01*
X021224Y013814D01*
X021248Y013773D01*
X021281Y013739D01*
X021322Y013715D01*
X021368Y013703D01*
X021590Y013703D01*
X021590Y014062D01*
X021627Y014062D01*
X021627Y013703D01*
X021849Y013703D01*
X021894Y013715D01*
X021935Y013739D01*
X021957Y013761D01*
X021995Y013723D01*
X022038Y013723D01*
X022038Y013683D01*
X020879Y013671D01*
X020653Y013859D01*
X020658Y013855D02*
X021213Y013855D01*
X021212Y014014D02*
X020653Y014014D01*
X020653Y014172D02*
X021212Y014172D01*
X021212Y014098D02*
X021590Y014098D01*
X021590Y014457D01*
X021368Y014457D01*
X021322Y014445D01*
X021281Y014421D01*
X021248Y014387D01*
X021224Y014346D01*
X021212Y014301D01*
X021212Y014098D01*
X021220Y014331D02*
X020649Y014331D01*
X020584Y014489D02*
X023366Y014489D01*
X023435Y014331D02*
X022654Y014331D01*
X023208Y014648D02*
X020387Y014648D01*
X019999Y014648D02*
X019287Y014648D01*
X019484Y014489D02*
X019802Y014489D01*
X019553Y014321D02*
X019553Y013538D01*
X019487Y013380D02*
X019799Y013380D01*
X019978Y013221D02*
X019373Y013221D01*
X018813Y013221D02*
X012573Y013221D01*
X012573Y013063D02*
X018813Y013063D01*
X018813Y012904D02*
X012466Y012904D01*
X012573Y013010D02*
X012573Y013450D01*
X012573Y013380D02*
X018699Y013380D01*
X018703Y013369D02*
X018813Y013259D01*
X018813Y012601D01*
X018703Y012491D01*
X018633Y012321D01*
X018633Y011710D01*
X015769Y011710D01*
X015746Y011734D01*
X015614Y011788D01*
X015472Y011788D01*
X015340Y011734D01*
X015316Y011710D01*
X011159Y011710D01*
X011099Y011770D01*
X015115Y011770D01*
X015247Y011825D01*
X015348Y011926D01*
X015403Y012058D01*
X015403Y012202D01*
X015348Y012334D01*
X015247Y012435D01*
X015115Y012490D01*
X011403Y012490D01*
X011403Y012740D01*
X011573Y012910D01*
X011573Y012950D01*
X011823Y012700D01*
X012262Y012700D01*
X012573Y013010D01*
X012308Y012746D02*
X018813Y012746D01*
X018799Y012587D02*
X011403Y012587D01*
X011408Y012746D02*
X011778Y012746D01*
X011619Y012904D02*
X011566Y012904D01*
X012326Y013697D02*
X018633Y013697D01*
X018633Y013855D02*
X012417Y013855D01*
X012573Y014014D02*
X018633Y014014D01*
X018633Y014172D02*
X012573Y014172D01*
X012573Y014331D02*
X018637Y014331D01*
X018702Y014489D02*
X012533Y014489D01*
X012375Y014648D02*
X018899Y014648D01*
X018633Y013538D02*
X018703Y013369D01*
X018677Y012429D02*
X015254Y012429D01*
X015375Y012270D02*
X018633Y012270D01*
X018633Y012112D02*
X015403Y012112D01*
X015359Y011953D02*
X018633Y011953D01*
X018633Y011795D02*
X015174Y011795D01*
X015316Y011150D02*
X015340Y011126D01*
X015472Y011072D01*
X015614Y011072D01*
X015746Y011126D01*
X015769Y011150D01*
X018763Y011150D01*
X018763Y010551D01*
X018703Y010491D01*
X018633Y010321D01*
X018633Y009538D01*
X018703Y009369D01*
X018813Y009259D01*
X018813Y008651D01*
X018703Y008541D01*
X018633Y008371D01*
X018633Y007588D01*
X018703Y007420D01*
X016283Y007420D01*
X016283Y010328D01*
X016246Y010416D01*
X016179Y010483D01*
X016091Y010520D01*
X014592Y010520D01*
X014648Y010576D01*
X014703Y010708D01*
X014703Y010852D01*
X014648Y010984D01*
X014547Y011085D01*
X014415Y011140D01*
X010971Y011140D01*
X010839Y011085D01*
X010738Y010984D01*
X010683Y010852D01*
X010683Y009770D01*
X010573Y009660D01*
X010573Y009700D01*
X010283Y009990D01*
X010283Y011603D01*
X010246Y011691D01*
X010179Y011758D01*
X010091Y011795D01*
X008997Y011795D01*
X009246Y012044D01*
X009283Y012132D01*
X009283Y012620D01*
X009573Y012910D01*
X009573Y012950D01*
X009823Y012700D01*
X009877Y012700D01*
X010263Y012314D01*
X010263Y011874D01*
X010306Y011771D01*
X010806Y011271D01*
X010884Y011193D01*
X010987Y011150D01*
X015316Y011150D01*
X014703Y010844D02*
X018763Y010844D01*
X018763Y011002D02*
X014630Y011002D01*
X014693Y010685D02*
X018763Y010685D01*
X018739Y010527D02*
X014599Y010527D01*
X015803Y010040D02*
X015803Y008670D01*
X012850Y008670D01*
X012573Y008687D01*
X012573Y008700D01*
X012292Y008980D01*
X012573Y009260D01*
X012573Y009700D01*
X012262Y010010D01*
X011829Y010010D01*
X011859Y010040D01*
X015803Y010040D01*
X015803Y009893D02*
X012380Y009893D01*
X012538Y009734D02*
X015803Y009734D01*
X015803Y009576D02*
X012573Y009576D01*
X012573Y009417D02*
X015803Y009417D01*
X015803Y009259D02*
X012571Y009259D01*
X012412Y009100D02*
X015803Y009100D01*
X015803Y008942D02*
X012331Y008942D01*
X012489Y008783D02*
X015803Y008783D01*
X015793Y008430D02*
X012843Y008430D01*
X012043Y008480D01*
X012461Y008149D02*
X015553Y008149D01*
X015553Y007991D02*
X012303Y007991D01*
X011783Y007991D02*
X011403Y007991D01*
X011561Y008149D02*
X011624Y008149D01*
X010683Y007991D02*
X010303Y007991D01*
X010461Y008149D02*
X010524Y008149D01*
X009783Y007991D02*
X009403Y007991D01*
X009561Y008149D02*
X009624Y008149D01*
X008683Y007991D02*
X008548Y007991D01*
X008051Y007991D02*
X008034Y007991D01*
X008034Y007930D02*
X008034Y008471D01*
X007493Y008471D01*
X007493Y008086D01*
X007505Y008041D01*
X007529Y007999D01*
X007562Y007966D01*
X007603Y007942D01*
X007649Y007930D01*
X008034Y007930D01*
X008034Y008149D02*
X008051Y008149D01*
X008034Y008308D02*
X008051Y008308D01*
X008034Y008466D02*
X008051Y008466D01*
X007493Y008466D02*
X004603Y008466D01*
X004603Y008308D02*
X005167Y008308D01*
X004815Y008149D02*
X004603Y008149D01*
X004603Y007991D02*
X004645Y007991D01*
X004603Y008625D02*
X007493Y008625D01*
X007493Y008783D02*
X004603Y008783D01*
X004603Y008942D02*
X007518Y008942D01*
X007673Y009100D02*
X004603Y009100D01*
X004603Y009259D02*
X007515Y009259D01*
X007513Y009417D02*
X004603Y009417D01*
X004603Y009576D02*
X007513Y009576D01*
X007547Y009734D02*
X004603Y009734D01*
X004603Y009893D02*
X007706Y009893D01*
X008380Y009893D02*
X008803Y009893D01*
X008803Y010051D02*
X004603Y010051D01*
X004603Y010210D02*
X008803Y010210D01*
X008685Y010368D02*
X004603Y010368D01*
X004603Y010527D02*
X008558Y010527D01*
X008432Y010685D02*
X006804Y010685D01*
X006543Y010930D02*
X008543Y010930D01*
X009043Y010305D01*
X009043Y009380D01*
X009438Y009734D02*
X009547Y009734D01*
X009706Y009893D02*
X009283Y009893D01*
X009283Y010051D02*
X009803Y010051D01*
X009803Y010210D02*
X009283Y010210D01*
X009277Y010368D02*
X009803Y010368D01*
X009803Y010527D02*
X009173Y010527D01*
X009046Y010685D02*
X009803Y010685D01*
X009803Y010844D02*
X008919Y010844D01*
X008793Y011002D02*
X009803Y011002D01*
X009803Y011161D02*
X008622Y011161D01*
X008793Y011930D02*
X007293Y011930D01*
X007408Y012270D02*
X008794Y012270D01*
X008803Y012429D02*
X004603Y012429D01*
X004603Y012587D02*
X008803Y012587D01*
X008678Y012746D02*
X008553Y012746D01*
X008051Y012746D02*
X008034Y012746D01*
X008034Y012680D02*
X007649Y012680D01*
X007603Y012692D01*
X007562Y012716D01*
X007529Y012749D01*
X007505Y012791D01*
X007493Y012836D01*
X007493Y013221D01*
X004603Y013221D01*
X004603Y013063D02*
X007493Y013063D01*
X007493Y013221D02*
X008034Y013221D01*
X008051Y013221D01*
X008034Y013221D02*
X008034Y012680D01*
X008034Y012904D02*
X008051Y012904D01*
X008034Y013063D02*
X008051Y013063D01*
X007493Y012904D02*
X004603Y012904D01*
X004603Y012746D02*
X007533Y012746D01*
X007493Y013380D02*
X004603Y013380D01*
X004603Y013538D02*
X007493Y013538D01*
X007521Y013697D02*
X004603Y013697D01*
X004603Y013855D02*
X007668Y013855D01*
X007513Y014014D02*
X004603Y014014D01*
X004603Y014172D02*
X007513Y014172D01*
X007513Y014331D02*
X004603Y014331D01*
X004603Y014489D02*
X007552Y014489D01*
X007711Y014648D02*
X004603Y014648D01*
X004603Y014806D02*
X006285Y014806D01*
X006193Y014965D02*
X004603Y014965D01*
X004603Y015123D02*
X006185Y015123D01*
X006263Y015282D02*
X004603Y015282D01*
X004603Y015440D02*
X006578Y015440D01*
X006560Y015599D02*
X004603Y015599D01*
X004603Y015757D02*
X006614Y015757D01*
X006918Y015555D02*
X009293Y015555D01*
X010043Y014430D01*
X010043Y014230D01*
X010375Y014648D02*
X010683Y014648D01*
X010683Y014806D02*
X010081Y014806D01*
X009975Y014965D02*
X010683Y014965D01*
X010683Y015123D02*
X009869Y015123D01*
X009764Y015282D02*
X010683Y015282D01*
X010683Y015440D02*
X009658Y015440D01*
X009552Y015599D02*
X010683Y015599D01*
X010683Y015757D02*
X009430Y015757D01*
X008543Y015055D02*
X006543Y015055D01*
X006800Y014806D02*
X008475Y014806D01*
X008375Y014648D02*
X008686Y014648D01*
X008652Y014489D02*
X008533Y014489D01*
X009043Y014680D02*
X008543Y015055D01*
X009043Y014680D02*
X009043Y014130D01*
X009043Y013130D02*
X009043Y012180D01*
X008793Y011930D01*
X009155Y011953D02*
X010263Y011953D01*
X010263Y012112D02*
X009274Y012112D01*
X009283Y012270D02*
X010263Y012270D01*
X010148Y012429D02*
X009283Y012429D01*
X009283Y012587D02*
X009990Y012587D01*
X009778Y012746D02*
X009408Y012746D01*
X009566Y012904D02*
X009619Y012904D01*
X010092Y011795D02*
X010296Y011795D01*
X010269Y011636D02*
X010441Y011636D01*
X010283Y011478D02*
X010599Y011478D01*
X010758Y011319D02*
X010283Y011319D01*
X010283Y011161D02*
X010962Y011161D01*
X010756Y011002D02*
X010283Y011002D01*
X010283Y010844D02*
X010683Y010844D01*
X010683Y010685D02*
X010283Y010685D01*
X010283Y010527D02*
X010683Y010527D01*
X010683Y010368D02*
X010283Y010368D01*
X010283Y010210D02*
X010683Y010210D01*
X010683Y010051D02*
X010283Y010051D01*
X010380Y009893D02*
X010683Y009893D01*
X010647Y009734D02*
X010538Y009734D01*
X010043Y009480D02*
X010043Y011555D01*
X006918Y011555D01*
X006651Y011795D02*
X004603Y011795D01*
X004603Y011953D02*
X006935Y011953D01*
X006980Y012112D02*
X004603Y012112D01*
X004603Y012270D02*
X007178Y012270D01*
X006564Y011636D02*
X004603Y011636D01*
X004603Y011478D02*
X006562Y011478D01*
X006647Y011319D02*
X004603Y011319D01*
X004603Y011161D02*
X005269Y011161D01*
X005240Y011132D02*
X005186Y011001D01*
X005186Y010859D01*
X005240Y010728D01*
X005341Y010627D01*
X005472Y010573D01*
X005614Y010573D01*
X005745Y010627D01*
X005845Y010728D01*
X005900Y010859D01*
X005900Y011001D01*
X005845Y011132D01*
X005745Y011233D01*
X005614Y011287D01*
X005472Y011287D01*
X005341Y011233D01*
X005240Y011132D01*
X005186Y011002D02*
X004603Y011002D01*
X004603Y010844D02*
X005192Y010844D01*
X005283Y010685D02*
X004603Y010685D01*
X005803Y010685D02*
X006281Y010685D01*
X006191Y010844D02*
X005893Y010844D01*
X005899Y011002D02*
X006185Y011002D01*
X006267Y011161D02*
X005817Y011161D01*
X008538Y009734D02*
X008647Y009734D01*
X010043Y009480D02*
X010043Y009430D01*
X011593Y010280D02*
X016043Y010280D01*
X016043Y007180D01*
X022293Y007180D01*
X023043Y007930D01*
X023293Y008180D01*
X023293Y008680D01*
X025918Y008680D01*
X027317Y008625D02*
X027403Y008625D01*
X027883Y008634D02*
X027883Y009078D01*
X027846Y009166D01*
X027660Y009352D01*
X027672Y009349D01*
X027874Y009349D01*
X027874Y009727D01*
X027516Y009727D01*
X027516Y009505D01*
X027519Y009493D01*
X027483Y009529D01*
X027483Y009978D01*
X027465Y010021D01*
X027479Y010027D01*
X027560Y010108D01*
X027574Y010094D01*
X027552Y010072D01*
X027528Y010031D01*
X027516Y009986D01*
X027516Y009764D01*
X027874Y009764D01*
X027874Y009727D01*
X027911Y009727D01*
X027911Y009349D01*
X028113Y009349D01*
X028159Y009361D01*
X028200Y009385D01*
X028234Y009418D01*
X028257Y009459D01*
X028263Y009480D01*
X028263Y009046D01*
X027906Y008689D01*
X027883Y008634D01*
X027883Y008783D02*
X028000Y008783D01*
X027883Y008942D02*
X028158Y008942D01*
X028263Y009100D02*
X027874Y009100D01*
X027754Y009259D02*
X028263Y009259D01*
X028263Y009417D02*
X028233Y009417D01*
X027911Y009417D02*
X027874Y009417D01*
X027874Y009576D02*
X027911Y009576D01*
X027874Y009734D02*
X027483Y009734D01*
X027483Y009576D02*
X027516Y009576D01*
X027516Y009893D02*
X027483Y009893D01*
X027503Y010051D02*
X027540Y010051D01*
X028823Y010051D02*
X029003Y010051D01*
X029003Y009893D02*
X028823Y009893D01*
X028823Y009734D02*
X029003Y009734D01*
X029003Y009576D02*
X028823Y009576D01*
X028823Y009417D02*
X029003Y009417D01*
X029003Y009259D02*
X028823Y009259D01*
X028823Y009100D02*
X029003Y009100D01*
X029003Y008942D02*
X028823Y008942D01*
X028785Y008783D02*
X029050Y008783D01*
X029063Y008625D02*
X029023Y008625D01*
X029023Y008466D02*
X029063Y008466D01*
X029063Y008308D02*
X029023Y008308D01*
X029023Y008149D02*
X029063Y008149D01*
X029063Y007991D02*
X029023Y007991D01*
X028624Y008466D02*
X028543Y008466D01*
X028633Y008625D02*
X028769Y008625D01*
X029243Y008930D02*
X029643Y008530D01*
X029643Y007430D01*
X029443Y007130D01*
X027843Y007130D01*
X027643Y007330D01*
X029725Y007120D02*
X029829Y007277D01*
X029837Y007285D01*
X029882Y007240D01*
X030051Y007170D01*
X030234Y007170D01*
X030403Y007240D01*
X030533Y007369D01*
X030583Y007491D01*
X030598Y007446D01*
X030632Y007378D01*
X030677Y007317D01*
X030730Y007264D01*
X030791Y007219D01*
X030859Y007185D01*
X030931Y007162D01*
X031005Y007150D01*
X031023Y007150D01*
X031023Y007910D01*
X031063Y007910D01*
X031063Y007150D01*
X031081Y007150D01*
X031088Y007151D01*
X031053Y007120D01*
X029725Y007120D01*
X029777Y007198D02*
X029984Y007198D01*
X030302Y007198D02*
X030833Y007198D01*
X031023Y007198D02*
X031063Y007198D01*
X031063Y007357D02*
X031023Y007357D01*
X031023Y007515D02*
X031063Y007515D01*
X031063Y007674D02*
X031023Y007674D01*
X031023Y007832D02*
X031063Y007832D01*
X031063Y007991D02*
X031023Y007991D01*
X031023Y008149D02*
X031063Y008149D01*
X031063Y008308D02*
X031023Y008308D01*
X031023Y008466D02*
X031063Y008466D01*
X031063Y008625D02*
X031023Y008625D01*
X030950Y008783D02*
X030785Y008783D01*
X030769Y008625D02*
X030508Y008625D01*
X030543Y008466D02*
X030624Y008466D01*
X030823Y008942D02*
X030903Y008942D01*
X030903Y009100D02*
X030823Y009100D01*
X030823Y009259D02*
X030903Y009259D01*
X030903Y009417D02*
X030823Y009417D01*
X030823Y009576D02*
X030903Y009576D01*
X030903Y009734D02*
X030823Y009734D01*
X030823Y009893D02*
X030903Y009893D01*
X030903Y010051D02*
X030823Y010051D01*
X030823Y010210D02*
X030903Y010210D01*
X030942Y010368D02*
X030823Y010368D01*
X030823Y010527D02*
X031100Y010527D01*
X030823Y010685D02*
X031424Y010685D01*
X031503Y010844D02*
X030823Y010844D01*
X030816Y011002D02*
X031439Y011002D01*
X031439Y011161D02*
X030708Y011161D01*
X030647Y011319D02*
X031439Y011319D01*
X031983Y010910D02*
X031993Y010920D01*
X032045Y010868D01*
X032209Y010868D01*
X032263Y010814D01*
X032263Y009421D01*
X032009Y009167D01*
X031931Y009089D01*
X031888Y008986D01*
X031888Y008622D01*
X031882Y008620D01*
X031783Y008521D01*
X031783Y008578D01*
X031746Y008666D01*
X031679Y008733D01*
X031383Y009029D01*
X031383Y009401D01*
X031402Y009368D01*
X031436Y009335D01*
X031477Y009311D01*
X031522Y009299D01*
X031724Y009299D01*
X031724Y009677D01*
X031761Y009677D01*
X031761Y009299D01*
X031963Y009299D01*
X032009Y009311D01*
X032050Y009335D01*
X032084Y009368D01*
X032107Y009409D01*
X032120Y009455D01*
X032120Y009677D01*
X031761Y009677D01*
X031761Y009714D01*
X032120Y009714D01*
X032120Y009936D01*
X032107Y009981D01*
X032084Y010022D01*
X032062Y010044D01*
X032100Y010082D01*
X032100Y010647D01*
X032006Y010741D01*
X031983Y010741D01*
X031983Y010910D01*
X031983Y010844D02*
X032233Y010844D01*
X032263Y010685D02*
X032062Y010685D01*
X032100Y010527D02*
X032263Y010527D01*
X032263Y010368D02*
X032100Y010368D01*
X032100Y010210D02*
X032263Y010210D01*
X032263Y010051D02*
X032069Y010051D01*
X032120Y009893D02*
X032263Y009893D01*
X032263Y009734D02*
X032120Y009734D01*
X032120Y009576D02*
X032263Y009576D01*
X032259Y009417D02*
X032110Y009417D01*
X032100Y009259D02*
X031383Y009259D01*
X031383Y009100D02*
X031942Y009100D01*
X031888Y008942D02*
X031471Y008942D01*
X031629Y008783D02*
X031888Y008783D01*
X031888Y008625D02*
X031764Y008625D01*
X031761Y009417D02*
X031724Y009417D01*
X031724Y009576D02*
X031761Y009576D01*
X033102Y009576D02*
X035058Y009576D01*
X034899Y009734D02*
X033101Y009734D01*
X033100Y009893D02*
X034741Y009893D01*
X034582Y010051D02*
X033100Y010051D01*
X033099Y010210D02*
X034424Y010210D01*
X034265Y010368D02*
X033717Y010368D01*
X033743Y010527D02*
X034107Y010527D01*
X033948Y010685D02*
X033743Y010685D01*
X033743Y010844D02*
X033790Y010844D01*
X033477Y011157D02*
X033306Y011157D01*
X033306Y010719D01*
X033306Y010719D01*
X033306Y011157D01*
X033095Y011157D01*
X033093Y011540D01*
X033477Y011157D01*
X033473Y011161D02*
X033095Y011161D01*
X033094Y011319D02*
X033314Y011319D01*
X033156Y011478D02*
X033094Y011478D01*
X033306Y011002D02*
X033306Y011002D01*
X033306Y010844D02*
X033306Y010844D01*
X033306Y010685D02*
X033306Y010685D01*
X033306Y010527D02*
X033306Y010527D01*
X033306Y010368D02*
X033306Y010368D01*
X033102Y009417D02*
X035216Y009417D01*
X035375Y009259D02*
X033103Y009259D01*
X033104Y009100D02*
X035533Y009100D01*
X035692Y008942D02*
X033104Y008942D01*
X033105Y008783D02*
X035803Y008783D01*
X035737Y008625D02*
X035172Y008625D01*
X034914Y008625D02*
X034377Y008625D01*
X034356Y008646D02*
X034294Y008691D01*
X034227Y008725D01*
X034155Y008748D01*
X034081Y008760D01*
X034063Y008760D01*
X034063Y008000D01*
X034523Y008000D01*
X034523Y008318D01*
X034511Y008392D01*
X034488Y008464D01*
X034453Y008532D01*
X034409Y008593D01*
X034356Y008646D01*
X034487Y008466D02*
X034678Y008466D01*
X034598Y008308D02*
X034523Y008308D01*
X034523Y008149D02*
X034583Y008149D01*
X034583Y007991D02*
X034063Y007991D01*
X034063Y008000D02*
X034063Y007960D01*
X034523Y007960D01*
X034523Y007642D01*
X034511Y007568D01*
X034488Y007496D01*
X034453Y007428D01*
X034409Y007367D01*
X034356Y007314D01*
X034294Y007269D01*
X034227Y007235D01*
X034155Y007212D01*
X034081Y007200D01*
X034063Y007200D01*
X034063Y007960D01*
X034023Y007960D01*
X034023Y007200D01*
X034005Y007200D01*
X033931Y007212D01*
X033859Y007235D01*
X033791Y007269D01*
X033730Y007314D01*
X033677Y007367D01*
X033632Y007428D01*
X033598Y007496D01*
X033575Y007568D01*
X033563Y007642D01*
X033563Y007960D01*
X034023Y007960D01*
X034023Y008000D01*
X034023Y008760D01*
X034005Y008760D01*
X033931Y008748D01*
X033859Y008725D01*
X033791Y008691D01*
X033730Y008646D01*
X033677Y008593D01*
X033632Y008532D01*
X033598Y008464D01*
X033575Y008392D01*
X033563Y008318D01*
X033563Y008000D01*
X034023Y008000D01*
X034063Y008000D01*
X034023Y007991D02*
X033109Y007991D01*
X033108Y008149D02*
X033563Y008149D01*
X033563Y008308D02*
X033107Y008308D01*
X033106Y008466D02*
X033599Y008466D01*
X033709Y008625D02*
X033106Y008625D01*
X033109Y007832D02*
X033563Y007832D01*
X033563Y007674D02*
X033110Y007674D01*
X033111Y007515D02*
X033592Y007515D01*
X033688Y007357D02*
X033111Y007357D01*
X033112Y007198D02*
X034774Y007198D01*
X034638Y007357D02*
X034398Y007357D01*
X034494Y007515D02*
X034583Y007515D01*
X034583Y007674D02*
X034523Y007674D01*
X034523Y007832D02*
X034583Y007832D01*
X034063Y007832D02*
X034023Y007832D01*
X034023Y007674D02*
X034063Y007674D01*
X034063Y007515D02*
X034023Y007515D01*
X034023Y007357D02*
X034063Y007357D01*
X034063Y008149D02*
X034023Y008149D01*
X034023Y008308D02*
X034063Y008308D01*
X034063Y008466D02*
X034023Y008466D01*
X034023Y008625D02*
X034063Y008625D01*
X035407Y008466D02*
X035622Y008466D01*
X035583Y008308D02*
X035488Y008308D01*
X035503Y008149D02*
X035583Y008149D01*
X035583Y007991D02*
X035503Y007991D01*
X035503Y007832D02*
X035583Y007832D01*
X035583Y007674D02*
X035503Y007674D01*
X035503Y007515D02*
X035613Y007515D01*
X035512Y007357D02*
X035716Y007357D01*
X035196Y006881D02*
X033100Y006881D01*
X033113Y007040D02*
X035037Y007040D01*
X035354Y006723D02*
X032957Y006723D01*
X032768Y006564D02*
X042284Y006564D01*
X042285Y006723D02*
X040731Y006723D01*
X040890Y006881D02*
X042285Y006881D01*
X042286Y007040D02*
X041048Y007040D01*
X041311Y007198D02*
X042286Y007198D01*
X041716Y007357D02*
X041448Y007357D01*
X041503Y007515D02*
X041613Y007515D01*
X041583Y007674D02*
X041503Y007674D01*
X041503Y007832D02*
X041583Y007832D01*
X041583Y007991D02*
X041503Y007991D01*
X041503Y008149D02*
X041583Y008149D01*
X041583Y008308D02*
X041488Y008308D01*
X041407Y008466D02*
X041622Y008466D01*
X042043Y007980D02*
X042043Y009430D01*
X036543Y009430D01*
X032885Y013087D01*
X032885Y017240D01*
X033193Y017233D02*
X033193Y016780D01*
X033443Y016530D01*
X035693Y016530D01*
X036293Y015930D01*
X037793Y015930D01*
X037793Y016415D01*
X037778Y016430D01*
X038134Y016391D02*
X038919Y016391D01*
X038919Y016233D02*
X038134Y016233D01*
X038061Y016074D02*
X038919Y016074D01*
X038919Y015916D02*
X038033Y015916D01*
X037959Y015757D02*
X038919Y015757D01*
X038919Y015599D02*
X037380Y015599D01*
X037127Y015599D02*
X037090Y015599D01*
X037090Y015440D02*
X037127Y015440D01*
X037127Y015282D02*
X037090Y015282D01*
X037090Y015123D02*
X037127Y015123D01*
X037127Y014965D02*
X037090Y014965D01*
X036724Y014965D02*
X035483Y014965D01*
X035483Y015123D02*
X036712Y015123D01*
X036712Y015282D02*
X035483Y015282D01*
X035483Y015440D02*
X036712Y015440D01*
X036837Y015599D02*
X035483Y015599D01*
X035500Y015757D02*
X036126Y015757D01*
X035968Y015916D02*
X035495Y015916D01*
X035405Y016074D02*
X035809Y016074D01*
X035651Y016233D02*
X034688Y016233D01*
X034738Y016074D02*
X034880Y016074D01*
X035143Y015830D02*
X035243Y015730D01*
X035243Y013630D01*
X035443Y013430D01*
X037743Y013430D01*
X037778Y013465D01*
X037778Y014030D01*
X038643Y014030D01*
X038774Y013697D02*
X038919Y013697D01*
X038919Y013538D02*
X038018Y013538D01*
X038002Y013380D02*
X038919Y013380D01*
X038919Y013221D02*
X038076Y013221D01*
X038154Y013063D02*
X038919Y013063D01*
X038919Y012904D02*
X038154Y012904D01*
X038154Y012746D02*
X038919Y012746D01*
X038948Y012587D02*
X038124Y012587D01*
X038018Y012429D02*
X039071Y012429D01*
X039486Y012429D02*
X039622Y012429D01*
X039609Y012587D02*
X039709Y012587D01*
X039738Y012746D02*
X039639Y012746D01*
X039639Y012904D02*
X039651Y012904D01*
X039639Y013063D02*
X039649Y013063D01*
X039639Y013221D02*
X039733Y013221D01*
X039639Y013380D02*
X041483Y013380D01*
X042300Y013538D02*
X039639Y013538D01*
X039639Y013697D02*
X042301Y013697D01*
X042301Y013855D02*
X039639Y013855D01*
X039639Y014014D02*
X042301Y014014D01*
X042302Y014172D02*
X039639Y014172D01*
X039639Y014331D02*
X041921Y014331D01*
X041995Y014331D02*
X042091Y014331D01*
X042164Y014331D02*
X042302Y014331D01*
X042091Y014489D02*
X041995Y014489D01*
X041995Y014648D02*
X042091Y014648D01*
X042091Y014806D02*
X041995Y014806D01*
X041995Y014946D02*
X041463Y014946D01*
X041477Y015034D01*
X041505Y015121D01*
X041547Y015202D01*
X041601Y015276D01*
X041665Y015341D01*
X041739Y015395D01*
X041820Y015436D01*
X041907Y015464D01*
X041995Y015478D01*
X041995Y014946D01*
X041995Y014965D02*
X042091Y014965D01*
X042091Y015123D02*
X041995Y015123D01*
X041995Y015282D02*
X042091Y015282D01*
X042091Y015440D02*
X041995Y015440D01*
X041833Y015440D02*
X039639Y015440D01*
X039639Y015282D02*
X041606Y015282D01*
X041506Y015123D02*
X039639Y015123D01*
X039639Y014965D02*
X041466Y014965D01*
X041470Y014806D02*
X039639Y014806D01*
X039639Y014648D02*
X041520Y014648D01*
X041632Y014489D02*
X039639Y014489D01*
X038919Y014489D02*
X035483Y014489D01*
X035483Y014331D02*
X036744Y014331D01*
X036712Y014172D02*
X035483Y014172D01*
X035483Y014014D02*
X037090Y014014D01*
X037090Y014172D02*
X037127Y014172D01*
X037127Y014331D02*
X037090Y014331D01*
X036712Y013855D02*
X035483Y013855D01*
X035516Y013697D02*
X036774Y013697D01*
X036750Y013190D02*
X035491Y013190D01*
X035395Y013190D01*
X035307Y013227D01*
X035107Y013427D01*
X035083Y013451D01*
X035083Y013229D01*
X035842Y012470D01*
X037538Y012470D01*
X037538Y012523D01*
X037495Y012523D01*
X037457Y012561D01*
X037435Y012539D01*
X037394Y012515D01*
X037349Y012503D01*
X037127Y012503D01*
X037127Y012862D01*
X037090Y012862D01*
X036712Y012862D01*
X036712Y012659D01*
X036724Y012614D01*
X036748Y012573D01*
X036781Y012539D01*
X036822Y012515D01*
X036868Y012503D01*
X037090Y012503D01*
X037090Y012862D01*
X037090Y012898D01*
X036712Y012898D01*
X036712Y013101D01*
X036724Y013146D01*
X036748Y013187D01*
X036750Y013190D01*
X036712Y013063D02*
X035250Y013063D01*
X035320Y013221D02*
X035091Y013221D01*
X035083Y013380D02*
X035154Y013380D01*
X034843Y013130D02*
X034843Y015630D01*
X034343Y016130D01*
X034362Y015772D02*
X034603Y015531D01*
X034603Y013082D01*
X034639Y012994D01*
X034707Y012927D01*
X035607Y012027D01*
X035695Y011990D01*
X037644Y011990D01*
X037839Y011794D01*
X037907Y011727D01*
X037995Y011690D01*
X039511Y011690D01*
X039599Y011727D01*
X040049Y012176D01*
X040211Y012176D01*
X040305Y012270D01*
X040305Y012626D01*
X041483Y012626D01*
X041483Y012464D01*
X041577Y012370D01*
X042298Y012370D01*
X042289Y008676D01*
X042283Y008678D01*
X042283Y009478D01*
X042246Y009566D01*
X042179Y009633D01*
X042091Y009670D01*
X041995Y009670D01*
X036642Y009670D01*
X033125Y013187D01*
X033125Y016261D01*
X033139Y016227D01*
X033240Y016126D01*
X033372Y016072D01*
X033514Y016072D01*
X033646Y016126D01*
X033747Y016227D01*
X033773Y016290D01*
X034022Y016290D01*
X033985Y016201D01*
X033985Y016059D01*
X034039Y015927D01*
X034140Y015826D01*
X034272Y015772D01*
X034362Y015772D01*
X034376Y015757D02*
X033125Y015757D01*
X033125Y015599D02*
X034535Y015599D01*
X034603Y015440D02*
X033125Y015440D01*
X033125Y015282D02*
X034603Y015282D01*
X034603Y015123D02*
X033125Y015123D01*
X033125Y014965D02*
X034603Y014965D01*
X034603Y014806D02*
X033125Y014806D01*
X033125Y014648D02*
X034603Y014648D01*
X034603Y014489D02*
X033125Y014489D01*
X033125Y014331D02*
X034603Y014331D01*
X034603Y014172D02*
X033125Y014172D01*
X033125Y014014D02*
X034603Y014014D01*
X034603Y013855D02*
X033125Y013855D01*
X033125Y013697D02*
X034603Y013697D01*
X034603Y013538D02*
X033125Y013538D01*
X033125Y013380D02*
X034603Y013380D01*
X034603Y013221D02*
X033125Y013221D01*
X033250Y013063D02*
X034611Y013063D01*
X034729Y012904D02*
X033408Y012904D01*
X033567Y012746D02*
X034888Y012746D01*
X035046Y012587D02*
X033725Y012587D01*
X033884Y012429D02*
X035205Y012429D01*
X035363Y012270D02*
X034042Y012270D01*
X034201Y012112D02*
X035522Y012112D01*
X035743Y012230D02*
X034843Y013130D01*
X035408Y012904D02*
X036712Y012904D01*
X036712Y012746D02*
X035567Y012746D01*
X035725Y012587D02*
X036739Y012587D01*
X037090Y012587D02*
X037127Y012587D01*
X037127Y012746D02*
X037090Y012746D01*
X037778Y012880D02*
X037778Y012265D01*
X037743Y012230D01*
X035743Y012230D01*
X034835Y011478D02*
X042296Y011478D01*
X042296Y011636D02*
X034676Y011636D01*
X034518Y011795D02*
X037839Y011795D01*
X037680Y011953D02*
X034359Y011953D01*
X034993Y011319D02*
X042295Y011319D01*
X042295Y011161D02*
X035152Y011161D01*
X035310Y011002D02*
X042295Y011002D01*
X042294Y010844D02*
X035469Y010844D01*
X035627Y010685D02*
X042294Y010685D01*
X042293Y010527D02*
X042001Y010527D01*
X041995Y010533D02*
X041864Y010587D01*
X041722Y010587D01*
X041591Y010533D01*
X041490Y010432D01*
X041436Y010301D01*
X041436Y010159D01*
X041490Y010028D01*
X041591Y009927D01*
X041722Y009873D01*
X041864Y009873D01*
X041995Y009927D01*
X042095Y010028D01*
X042150Y010159D01*
X042150Y010301D01*
X042095Y010432D01*
X041995Y010533D01*
X042122Y010368D02*
X042293Y010368D01*
X042293Y010210D02*
X042150Y010210D01*
X042105Y010051D02*
X042292Y010051D01*
X042292Y009893D02*
X041911Y009893D01*
X041675Y009893D02*
X036420Y009893D01*
X036261Y010051D02*
X041481Y010051D01*
X041436Y010210D02*
X036103Y010210D01*
X035944Y010368D02*
X041464Y010368D01*
X041585Y010527D02*
X035786Y010527D01*
X036578Y009734D02*
X042292Y009734D01*
X042291Y009576D02*
X042237Y009576D01*
X042283Y009417D02*
X042291Y009417D01*
X042283Y009259D02*
X042291Y009259D01*
X042283Y009100D02*
X042290Y009100D01*
X042283Y008942D02*
X042290Y008942D01*
X042283Y008783D02*
X042289Y008783D01*
X040583Y007832D02*
X040523Y007832D01*
X040523Y007674D02*
X040583Y007674D01*
X040583Y007515D02*
X040494Y007515D01*
X040573Y007357D02*
X040398Y007357D01*
X040063Y008149D02*
X040023Y008149D01*
X040023Y008308D02*
X040063Y008308D01*
X040063Y008466D02*
X040023Y008466D01*
X040023Y008625D02*
X040063Y008625D01*
X037063Y008625D02*
X037023Y008625D01*
X037023Y008466D02*
X037063Y008466D01*
X037063Y008308D02*
X037023Y008308D01*
X037023Y008149D02*
X037063Y008149D01*
X039667Y011795D02*
X042296Y011795D01*
X042297Y011953D02*
X039825Y011953D01*
X039984Y012112D02*
X042297Y012112D01*
X042297Y012270D02*
X040305Y012270D01*
X040305Y012429D02*
X041518Y012429D01*
X041483Y012587D02*
X040305Y012587D01*
X040007Y012474D02*
X039463Y011930D01*
X038043Y011930D01*
X037778Y012195D01*
X037778Y012880D01*
X038042Y012270D02*
X039464Y012270D01*
X038512Y013697D02*
X038084Y013697D01*
X038117Y014331D02*
X038437Y014331D01*
X038849Y014331D02*
X038919Y014331D01*
X038919Y014648D02*
X035483Y014648D01*
X035483Y014806D02*
X038919Y014806D01*
X038919Y014965D02*
X038884Y014965D01*
X038643Y015230D02*
X037778Y015230D01*
X038152Y014965D02*
X038402Y014965D01*
X039639Y015599D02*
X042305Y015599D01*
X042305Y015757D02*
X039639Y015757D01*
X039639Y015916D02*
X042306Y015916D01*
X042306Y016074D02*
X039639Y016074D01*
X039639Y016233D02*
X042307Y016233D01*
X042307Y016391D02*
X039639Y016391D01*
X039639Y016550D02*
X042307Y016550D01*
X042308Y016708D02*
X040327Y016708D01*
X040401Y016867D02*
X042308Y016867D01*
X042308Y017025D02*
X040391Y017025D01*
X040296Y017184D02*
X042309Y017184D01*
X042309Y017342D02*
X040305Y017342D01*
X040305Y017501D02*
X041483Y017501D01*
X041538Y018452D02*
X039639Y018452D01*
X039639Y018610D02*
X042312Y018610D01*
X042312Y018769D02*
X039639Y018769D01*
X039639Y018927D02*
X042313Y018927D01*
X042313Y019086D02*
X039639Y019086D01*
X039639Y019244D02*
X042313Y019244D01*
X042091Y019403D02*
X041995Y019403D01*
X041995Y019561D02*
X042091Y019561D01*
X042091Y019720D02*
X041995Y019720D01*
X041995Y019878D02*
X039639Y019878D01*
X039639Y019720D02*
X041491Y019720D01*
X041571Y019561D02*
X039639Y019561D01*
X039639Y019403D02*
X041739Y019403D01*
X041995Y019946D02*
X041463Y019946D01*
X041477Y020034D01*
X041505Y020121D01*
X041547Y020202D01*
X041601Y020276D01*
X041665Y020341D01*
X041739Y020395D01*
X041820Y020436D01*
X041907Y020464D01*
X041995Y020478D01*
X041995Y019946D01*
X041995Y020037D02*
X042091Y020037D01*
X042091Y020195D02*
X041995Y020195D01*
X041995Y020354D02*
X042091Y020354D01*
X042316Y020512D02*
X039639Y020512D01*
X039639Y020354D02*
X041682Y020354D01*
X041543Y020195D02*
X039639Y020195D01*
X039639Y020037D02*
X041478Y020037D01*
X042317Y020671D02*
X039639Y020671D01*
X039639Y020829D02*
X042317Y020829D01*
X042317Y020988D02*
X039639Y020988D01*
X039639Y021146D02*
X042318Y021146D01*
X039808Y018293D02*
X039639Y018293D01*
X039639Y018135D02*
X039679Y018135D01*
X039647Y017976D02*
X039639Y017976D01*
X039639Y017818D02*
X039687Y017818D01*
X039709Y017659D02*
X039639Y017659D01*
X039639Y017501D02*
X039709Y017501D01*
X039709Y017342D02*
X039639Y017342D01*
X039639Y017184D02*
X039790Y017184D01*
X039695Y017025D02*
X039639Y017025D01*
X039639Y016867D02*
X039685Y016867D01*
X039639Y016708D02*
X039758Y016708D01*
X040043Y016930D02*
X040043Y017438D01*
X040007Y017474D01*
X038919Y017342D02*
X038156Y017342D01*
X038493Y017780D02*
X038843Y018130D01*
X038603Y018769D02*
X038316Y018769D01*
X038390Y018927D02*
X038603Y018927D01*
X038603Y019086D02*
X038390Y019086D01*
X038390Y019244D02*
X038603Y019244D01*
X038603Y019403D02*
X038390Y019403D01*
X038603Y019561D02*
X036751Y019561D01*
X036536Y019720D02*
X036533Y019720D01*
X036873Y020671D02*
X038603Y020671D01*
X038603Y020829D02*
X038390Y020829D01*
X038390Y020988D02*
X038603Y020988D01*
X038603Y021146D02*
X038390Y021146D01*
X038390Y021305D02*
X038603Y021305D01*
X038603Y021463D02*
X038344Y021463D01*
X038377Y020512D02*
X038603Y020512D01*
X038603Y020354D02*
X038410Y020354D01*
X038410Y020195D02*
X038603Y020195D01*
X038603Y020037D02*
X038410Y020037D01*
X038410Y019878D02*
X038603Y019878D01*
X038603Y019720D02*
X038350Y019720D01*
X037443Y019180D02*
X037443Y019146D01*
X036653Y018135D02*
X036323Y018135D01*
X036323Y017976D02*
X036653Y017976D01*
X036653Y017818D02*
X036323Y017818D01*
X036323Y017659D02*
X036653Y017659D01*
X036653Y017501D02*
X036323Y017501D01*
X036323Y017342D02*
X036729Y017342D01*
X036830Y017184D02*
X036323Y017184D01*
X036350Y017025D02*
X036958Y017025D01*
X037082Y016867D02*
X036445Y016867D01*
X035543Y017230D02*
X035033Y017240D01*
X034145Y017240D01*
X033200Y017240D02*
X033193Y017233D01*
X033443Y016530D02*
X033443Y016430D01*
X033749Y016233D02*
X033998Y016233D01*
X033985Y016074D02*
X033519Y016074D01*
X033367Y016074D02*
X033125Y016074D01*
X033125Y015916D02*
X034051Y015916D01*
X033137Y016233D02*
X033125Y016233D01*
X031701Y016867D02*
X030304Y016867D01*
X030354Y017025D02*
X031671Y017025D01*
X030943Y017659D02*
X030183Y017659D01*
X030306Y017818D02*
X030943Y017818D01*
X031353Y018143D02*
X030156Y018143D01*
X029658Y017501D02*
X029656Y017501D01*
X029327Y017501D02*
X029290Y017501D01*
X029290Y017342D02*
X029327Y017342D01*
X029378Y018927D02*
X030350Y018927D01*
X028991Y019878D02*
X028895Y019878D01*
X028895Y020037D02*
X028991Y020037D01*
X028991Y020195D02*
X028895Y020195D01*
X028668Y021430D02*
X025543Y021430D01*
X025216Y021103D01*
X025065Y021103D01*
X025346Y021572D02*
X025285Y021633D01*
X025273Y021633D01*
X025515Y021875D01*
X025515Y022095D01*
X024974Y022095D01*
X024974Y022112D01*
X025515Y022112D01*
X025515Y022302D01*
X025539Y022244D01*
X025989Y021794D01*
X026057Y021727D01*
X026145Y021690D01*
X026344Y021690D01*
X026353Y021670D01*
X025495Y021670D01*
X025407Y021633D01*
X025346Y021572D01*
X025297Y021622D02*
X025395Y021622D01*
X025420Y021780D02*
X026003Y021780D01*
X025845Y021939D02*
X025515Y021939D01*
X025686Y022097D02*
X024974Y022097D01*
X025515Y022256D02*
X025535Y022256D01*
X025743Y022380D02*
X026193Y021930D01*
X027043Y021930D01*
X026418Y022256D02*
X026207Y022256D01*
X026048Y022414D02*
X030534Y022414D01*
X030505Y022256D02*
X027668Y022256D01*
X027772Y022097D02*
X029703Y022097D01*
X030132Y022097D02*
X030448Y022097D01*
X030281Y022573D02*
X027441Y022573D01*
X027694Y022731D02*
X030182Y022731D01*
X030143Y022890D02*
X027783Y022890D01*
X027803Y023048D02*
X030148Y023048D01*
X030214Y023207D02*
X027768Y023207D01*
X027658Y023365D02*
X030358Y023365D01*
X030330Y023524D02*
X026425Y023524D01*
X026284Y023682D02*
X029729Y023682D01*
X028026Y023841D02*
X026144Y023841D01*
X025743Y023930D02*
X025743Y024363D01*
X025065Y025040D01*
X025065Y024958D01*
X024965Y024072D02*
X025201Y024072D01*
X025743Y023530D01*
X025743Y022380D01*
X025983Y022573D02*
X026645Y022573D01*
X026391Y022731D02*
X025983Y022731D01*
X025983Y022890D02*
X026303Y022890D01*
X026206Y023048D02*
X025983Y023048D01*
X025983Y023207D02*
X026065Y023207D01*
X026543Y023030D02*
X025743Y023930D01*
X026543Y023030D02*
X027043Y023030D01*
X027803Y021939D02*
X028837Y021939D01*
X028679Y021780D02*
X027779Y021780D01*
X027918Y024805D02*
X031543Y024805D01*
X032054Y024633D02*
X032868Y024633D01*
X032966Y024475D02*
X032213Y024475D01*
X032371Y024316D02*
X034863Y024316D01*
X034863Y024158D02*
X032697Y024158D01*
X032776Y023999D02*
X034863Y023999D01*
X034863Y023841D02*
X032768Y023841D01*
X032159Y023682D02*
X031884Y023682D01*
X031943Y023841D02*
X032067Y023841D01*
X032009Y023999D02*
X031943Y023999D01*
X033306Y024455D02*
X033306Y024893D01*
X033306Y024455D01*
X033306Y024475D02*
X033306Y024475D01*
X033306Y024633D02*
X033306Y024633D01*
X033306Y024792D02*
X033306Y024792D01*
X033306Y024893D02*
X033306Y024893D01*
X033306Y024950D02*
X033306Y024950D01*
X033306Y025109D02*
X033306Y025109D01*
X033306Y025267D02*
X033306Y025267D01*
X033701Y025267D02*
X034863Y025267D01*
X034863Y025109D02*
X033743Y025109D01*
X033743Y024950D02*
X034863Y024950D01*
X034863Y024792D02*
X033743Y024792D01*
X033743Y024633D02*
X034863Y024633D01*
X034863Y024475D02*
X033645Y024475D01*
X034863Y025426D02*
X029502Y025426D01*
X029526Y025584D02*
X034863Y025584D01*
X034863Y025743D02*
X029478Y025743D01*
X029268Y025901D02*
X034863Y025901D01*
X034863Y026060D02*
X028658Y026060D01*
X028658Y025901D02*
X029068Y025901D01*
X028858Y025743D02*
X028658Y025743D01*
X028658Y025584D02*
X028779Y025584D01*
X028793Y025305D02*
X028418Y025305D01*
X028418Y026055D01*
X027543Y026930D01*
X027543Y027930D01*
X027878Y027803D02*
X034863Y027803D01*
X034863Y027645D02*
X027783Y027645D01*
X027783Y027486D02*
X034863Y027486D01*
X034863Y027328D02*
X027783Y027328D01*
X027783Y027169D02*
X034863Y027169D01*
X034863Y027011D02*
X027802Y027011D01*
X027960Y026852D02*
X034863Y026852D01*
X034863Y026694D02*
X028119Y026694D01*
X028277Y026535D02*
X034863Y026535D01*
X034863Y026377D02*
X028436Y026377D01*
X028594Y026218D02*
X034863Y026218D01*
X034863Y027962D02*
X027901Y027962D01*
X027852Y028120D02*
X034863Y028120D01*
X034863Y028279D02*
X027637Y028279D01*
X027449Y028279D02*
X027283Y028279D01*
X027283Y028437D02*
X034863Y028437D01*
X034863Y028596D02*
X027283Y028596D01*
X027283Y028754D02*
X034863Y028754D01*
X034714Y028913D02*
X027283Y028913D01*
X027283Y029071D02*
X034556Y029071D01*
X035043Y029880D02*
X035543Y029380D01*
X035543Y021430D01*
X034643Y021430D01*
X034307Y021305D02*
X033701Y021305D01*
X033565Y021463D02*
X034285Y021463D01*
X034335Y021622D02*
X033415Y021622D01*
X033071Y021622D02*
X032980Y021622D01*
X033026Y021780D02*
X034552Y021780D01*
X034734Y021780D02*
X035303Y021780D01*
X035303Y021939D02*
X033000Y021939D01*
X032882Y022097D02*
X035303Y022097D01*
X035303Y022256D02*
X032649Y022256D01*
X032565Y022414D02*
X035303Y022414D01*
X034420Y021146D02*
X033966Y021146D01*
X033830Y020943D02*
X033830Y020620D01*
X033830Y020943D02*
X033243Y021305D01*
X032921Y021463D02*
X032908Y021463D01*
X032668Y021305D02*
X032543Y021180D01*
X032543Y020648D01*
X032570Y020620D01*
X032293Y020657D02*
X032256Y020620D01*
X032293Y020657D02*
X032293Y022180D01*
X032668Y021805D02*
X032668Y021305D01*
X029168Y025555D02*
X028793Y025305D01*
X027918Y025805D02*
X027918Y024805D01*
X027918Y025805D02*
X026793Y026930D01*
X026793Y030805D01*
X025668Y031930D01*
X023543Y031930D01*
X023168Y032305D01*
X023168Y036430D01*
X021918Y037680D01*
X018793Y037680D01*
X018043Y036930D01*
X017733Y037313D02*
X017353Y037313D01*
X017246Y037420D02*
X017533Y037133D01*
X017533Y036727D01*
X017476Y036670D01*
X017610Y036670D01*
X017553Y036727D01*
X017553Y037133D01*
X017840Y037420D01*
X018194Y037420D01*
X018464Y037690D01*
X005737Y037690D01*
X005465Y036420D01*
X007783Y036420D01*
X007793Y036430D01*
X007513Y036710D01*
X007513Y037150D01*
X007823Y037460D01*
X008262Y037460D01*
X008573Y037150D01*
X008573Y037110D01*
X008823Y037360D01*
X009262Y037360D01*
X009493Y037130D01*
X009493Y037158D01*
X009815Y037480D01*
X010023Y037480D01*
X010023Y036950D01*
X010063Y036950D01*
X010593Y036950D01*
X010593Y037158D01*
X010271Y037480D01*
X010063Y037480D01*
X010063Y036950D01*
X010063Y036910D01*
X010593Y036910D01*
X010593Y036702D01*
X010307Y036416D01*
X010573Y036150D01*
X010573Y035710D01*
X010282Y035420D01*
X010628Y035420D01*
X010628Y036478D01*
X010664Y036566D01*
X010732Y036633D01*
X010820Y036670D01*
X013582Y036670D01*
X013533Y036719D01*
X013533Y036930D01*
X014043Y036930D01*
X014553Y036930D01*
X015043Y036930D01*
X015553Y036930D01*
X016043Y036930D01*
X016553Y036930D01*
X016553Y037141D01*
X016254Y037440D01*
X016043Y037440D01*
X016043Y036930D01*
X016043Y036930D01*
X016553Y036930D01*
X016553Y036719D01*
X016504Y036670D01*
X016610Y036670D01*
X016553Y036727D01*
X016553Y037133D01*
X016840Y037420D01*
X017246Y037420D01*
X017511Y037155D02*
X017574Y037155D01*
X017553Y036996D02*
X017533Y036996D01*
X017533Y036838D02*
X017553Y036838D01*
X017601Y036679D02*
X017485Y036679D01*
X017476Y036190D02*
X017582Y036190D01*
X017533Y036141D01*
X017533Y035930D01*
X017533Y035719D01*
X017832Y035420D01*
X018043Y035420D01*
X018254Y035420D01*
X018303Y035469D01*
X018303Y034382D01*
X018317Y034349D01*
X018246Y034420D01*
X017947Y034420D01*
X017626Y034806D01*
X017621Y034816D01*
X017595Y034842D01*
X017572Y034870D01*
X017562Y034876D01*
X017554Y034883D01*
X017520Y034898D01*
X017487Y034915D01*
X017476Y034916D01*
X017466Y034920D01*
X017429Y034920D01*
X017392Y034923D01*
X017381Y034920D01*
X014105Y034920D01*
X013274Y035382D01*
X013222Y035508D01*
X013159Y035570D01*
X013710Y035570D01*
X013840Y035440D01*
X014246Y035440D01*
X014376Y035570D01*
X014710Y035570D01*
X014840Y035440D01*
X015246Y035440D01*
X015376Y035570D01*
X015710Y035570D01*
X015840Y035440D01*
X016246Y035440D01*
X016533Y035727D01*
X016533Y036133D01*
X016476Y036190D01*
X016610Y036190D01*
X016553Y036133D01*
X016553Y035727D01*
X016840Y035440D01*
X017246Y035440D01*
X017533Y035727D01*
X017533Y036133D01*
X017476Y036190D01*
X017533Y036045D02*
X017533Y036045D01*
X017533Y035930D02*
X018043Y035930D01*
X018043Y035420D01*
X018043Y035930D01*
X018043Y035930D01*
X017533Y035930D01*
X017533Y035887D02*
X017533Y035887D01*
X017533Y035728D02*
X017533Y035728D01*
X017682Y035570D02*
X017375Y035570D01*
X018043Y035570D02*
X018043Y035570D01*
X018043Y035728D02*
X018043Y035728D01*
X018043Y035887D02*
X018043Y035887D01*
X018043Y035930D02*
X018043Y035930D01*
X018303Y035411D02*
X013262Y035411D01*
X013160Y035570D02*
X013710Y035570D01*
X013507Y035253D02*
X018303Y035253D01*
X018303Y035094D02*
X013792Y035094D01*
X014077Y034936D02*
X018303Y034936D01*
X018303Y034777D02*
X017649Y034777D01*
X017782Y034619D02*
X018303Y034619D01*
X018303Y034460D02*
X017914Y034460D01*
X017553Y034143D02*
X017523Y034143D01*
X017533Y034133D02*
X017246Y034420D01*
X016840Y034420D01*
X016553Y034133D01*
X016553Y033727D01*
X016840Y033440D01*
X017246Y033440D01*
X017533Y033727D01*
X017533Y034133D01*
X017553Y034133D02*
X017553Y033727D01*
X017840Y033440D01*
X018246Y033440D01*
X018533Y033727D01*
X018533Y034101D01*
X018553Y034081D01*
X018553Y033727D01*
X018840Y033440D01*
X019246Y033440D01*
X019317Y033511D01*
X019303Y033478D01*
X019303Y033363D01*
X019246Y033420D01*
X018840Y033420D01*
X018553Y033133D01*
X018553Y032727D01*
X018742Y032538D01*
X018722Y032538D01*
X018590Y032484D01*
X018489Y032383D01*
X018435Y032251D01*
X018435Y032161D01*
X017714Y031441D01*
X017678Y031353D01*
X017678Y030915D01*
X017658Y030934D01*
X017617Y030958D01*
X017572Y030970D01*
X017418Y030970D01*
X017418Y030390D01*
X017418Y029810D01*
X017572Y029810D01*
X017617Y029822D01*
X017658Y029846D01*
X017682Y029870D01*
X017722Y029830D01*
X018114Y029830D01*
X018168Y029884D01*
X018222Y029830D01*
X018614Y029830D01*
X018668Y029884D01*
X018722Y029830D01*
X019114Y029830D01*
X019168Y029884D01*
X019222Y029830D01*
X019614Y029830D01*
X019668Y029884D01*
X019722Y029830D01*
X020114Y029830D01*
X020168Y029884D01*
X020222Y029830D01*
X020614Y029830D01*
X020668Y029884D01*
X020722Y029830D01*
X021114Y029830D01*
X021208Y029924D01*
X021208Y030856D01*
X021158Y030906D01*
X021158Y030982D01*
X021296Y031190D01*
X021678Y031190D01*
X021671Y031170D01*
X021653Y031128D01*
X021653Y031126D01*
X021652Y031125D01*
X021653Y031079D01*
X021653Y030871D01*
X021589Y030808D01*
X021535Y030676D01*
X021535Y030534D01*
X021589Y030402D01*
X021690Y030301D01*
X021754Y030275D01*
X021738Y030259D01*
X021683Y030127D01*
X021683Y029790D01*
X015471Y029790D01*
X015339Y029735D01*
X015238Y029634D01*
X015183Y029502D01*
X015183Y029436D01*
X014889Y029693D01*
X014847Y029735D01*
X014835Y029740D01*
X014826Y029748D01*
X014770Y029767D01*
X014715Y029790D01*
X014702Y029790D01*
X014690Y029794D01*
X014631Y029790D01*
X014492Y029790D01*
X014403Y029879D01*
X014403Y032570D01*
X014710Y032570D01*
X014840Y032440D01*
X015246Y032440D01*
X015376Y032570D01*
X015710Y032570D01*
X015840Y032440D01*
X016246Y032440D01*
X016533Y032727D01*
X016533Y033133D01*
X016246Y033420D01*
X015840Y033420D01*
X015710Y033290D01*
X015376Y033290D01*
X015246Y033420D01*
X014840Y033420D01*
X014710Y033290D01*
X014376Y033290D01*
X014246Y033420D01*
X014062Y033420D01*
X014254Y033420D01*
X014543Y033709D01*
X014832Y033420D01*
X015043Y033420D01*
X015254Y033420D01*
X015543Y033709D01*
X015832Y033420D01*
X016043Y033420D01*
X016254Y033420D01*
X016553Y033719D01*
X016553Y033930D01*
X016553Y034141D01*
X016254Y034440D01*
X016043Y034440D01*
X016043Y033930D01*
X016553Y033930D01*
X016043Y033930D01*
X016043Y033930D01*
X016043Y033930D01*
X016043Y033420D01*
X016043Y033930D01*
X016043Y033930D01*
X016043Y034440D01*
X015832Y034440D01*
X015543Y034151D01*
X015254Y034440D01*
X015043Y034440D01*
X015043Y033930D01*
X015553Y033930D01*
X016043Y033930D01*
X015043Y033930D01*
X015043Y033930D01*
X015043Y033930D01*
X015043Y033420D01*
X015043Y033930D01*
X015043Y033930D01*
X015043Y034440D01*
X014832Y034440D01*
X014543Y034151D01*
X014254Y034440D01*
X014077Y034440D01*
X017306Y034440D01*
X017558Y034138D01*
X017553Y034133D01*
X017553Y033985D02*
X017533Y033985D01*
X017533Y033826D02*
X017553Y033826D01*
X017612Y033668D02*
X017473Y033668D01*
X017315Y033509D02*
X017771Y033509D01*
X017832Y033440D02*
X017533Y033141D01*
X017533Y032930D01*
X017533Y032719D01*
X017832Y032420D01*
X018043Y032420D01*
X018254Y032420D01*
X018553Y032719D01*
X018553Y032930D01*
X018553Y033141D01*
X018254Y033440D01*
X018043Y033440D01*
X018043Y032930D01*
X018553Y032930D01*
X018043Y032930D01*
X018043Y032930D01*
X018043Y032420D01*
X018043Y032930D01*
X018043Y032930D01*
X018043Y032930D01*
X018043Y033440D01*
X017832Y033440D01*
X017742Y033351D02*
X017315Y033351D01*
X017246Y033420D02*
X016840Y033420D01*
X016553Y033133D01*
X016553Y032727D01*
X016840Y032440D01*
X017246Y032440D01*
X017533Y032727D01*
X017533Y033133D01*
X017246Y033420D01*
X017474Y033192D02*
X017584Y033192D01*
X017533Y033034D02*
X017533Y033034D01*
X017533Y032930D02*
X018043Y032930D01*
X017533Y032930D01*
X017533Y032875D02*
X017533Y032875D01*
X017522Y032717D02*
X017535Y032717D01*
X017694Y032558D02*
X017364Y032558D01*
X018043Y032558D02*
X018043Y032558D01*
X018043Y032717D02*
X018043Y032717D01*
X018043Y032875D02*
X018043Y032875D01*
X018043Y032930D02*
X018043Y032930D01*
X018043Y033034D02*
X018043Y033034D01*
X018043Y033192D02*
X018043Y033192D01*
X018043Y033351D02*
X018043Y033351D01*
X018344Y033351D02*
X018770Y033351D01*
X018771Y033509D02*
X018315Y033509D01*
X018473Y033668D02*
X018612Y033668D01*
X018553Y033826D02*
X018533Y033826D01*
X018533Y033985D02*
X018553Y033985D01*
X018543Y034430D02*
X019043Y033930D01*
X019315Y033509D02*
X019316Y033509D01*
X019543Y033430D02*
X020043Y033930D01*
X019543Y033430D02*
X019543Y032180D01*
X018418Y031055D01*
X018418Y030390D01*
X018918Y030390D02*
X018918Y030805D01*
X020543Y032430D01*
X021043Y032430D01*
X021043Y032930D01*
X021793Y032680D02*
X021418Y032180D01*
X020668Y032180D01*
X019418Y030805D01*
X019418Y030390D01*
X019918Y030390D02*
X019918Y030805D01*
X020793Y031930D01*
X021543Y031930D01*
X022043Y032555D01*
X022043Y034805D01*
X021793Y035180D01*
X020043Y035180D01*
X020043Y035930D01*
X021043Y035930D02*
X021168Y035930D01*
X021543Y036305D01*
X022168Y036305D01*
X022543Y035930D01*
X022543Y032305D01*
X021793Y031430D01*
X021168Y031430D01*
X020918Y031055D01*
X020918Y030390D01*
X021208Y030339D02*
X021652Y030339D01*
X021705Y030181D02*
X021208Y030181D01*
X021208Y030022D02*
X021683Y030022D01*
X021683Y029864D02*
X021148Y029864D01*
X020688Y029864D02*
X020648Y029864D01*
X020188Y029864D02*
X020148Y029864D01*
X019688Y029864D02*
X019648Y029864D01*
X019188Y029864D02*
X019148Y029864D01*
X018688Y029864D02*
X018648Y029864D01*
X018188Y029864D02*
X018148Y029864D01*
X017688Y029864D02*
X017676Y029864D01*
X017418Y029864D02*
X017418Y029864D01*
X017418Y029810D02*
X017418Y030390D01*
X017418Y030390D01*
X017418Y030390D01*
X017418Y030970D01*
X017264Y030970D01*
X017218Y030958D01*
X017177Y030934D01*
X017144Y030901D01*
X017120Y030859D01*
X017108Y030814D01*
X017108Y030390D01*
X017108Y029966D01*
X017120Y029921D01*
X017144Y029879D01*
X017177Y029846D01*
X017218Y029822D01*
X017264Y029810D01*
X017418Y029810D01*
X017418Y030022D02*
X017418Y030022D01*
X017418Y030181D02*
X017418Y030181D01*
X017418Y030339D02*
X017418Y030339D01*
X017418Y030390D02*
X017108Y030390D01*
X017418Y030390D01*
X017418Y030390D01*
X017418Y030498D02*
X017418Y030498D01*
X017418Y030656D02*
X017418Y030656D01*
X017418Y030815D02*
X017418Y030815D01*
X017678Y030973D02*
X014403Y030973D01*
X014403Y030815D02*
X017108Y030815D01*
X017108Y030656D02*
X014403Y030656D01*
X014403Y030498D02*
X017108Y030498D01*
X017108Y030339D02*
X014403Y030339D01*
X014403Y030181D02*
X017108Y030181D01*
X017108Y030022D02*
X014403Y030022D01*
X014418Y029864D02*
X017160Y029864D01*
X017918Y030390D02*
X017918Y031305D01*
X018793Y032180D01*
X018506Y032400D02*
X014403Y032400D01*
X014403Y032558D02*
X014722Y032558D01*
X014403Y032241D02*
X018435Y032241D01*
X018356Y032083D02*
X014403Y032083D01*
X014403Y031924D02*
X018198Y031924D01*
X018039Y031766D02*
X014403Y031766D01*
X014403Y031607D02*
X017881Y031607D01*
X017722Y031449D02*
X014403Y031449D01*
X014403Y031290D02*
X017678Y031290D01*
X017678Y031132D02*
X014403Y031132D01*
X013543Y032430D02*
X012643Y032430D01*
X012043Y031980D02*
X012043Y030430D01*
X010683Y030498D02*
X007087Y030498D01*
X007121Y030484D02*
X006989Y030538D01*
X006847Y030538D01*
X006715Y030484D01*
X006614Y030383D01*
X006560Y030251D01*
X006560Y030109D01*
X006589Y030038D01*
X006472Y030038D01*
X006452Y030030D01*
X006452Y030278D01*
X006382Y030541D01*
X006246Y030776D01*
X006054Y030968D01*
X005819Y031104D01*
X005557Y031174D01*
X005285Y031174D01*
X005023Y031104D01*
X004788Y030968D01*
X004603Y030783D01*
X004603Y038120D01*
X005394Y038120D01*
X005391Y038118D01*
X005372Y038106D01*
X005358Y038084D01*
X005339Y038066D01*
X005331Y038045D01*
X005318Y038027D01*
X005313Y038002D01*
X005303Y037978D01*
X005303Y037955D01*
X004990Y036494D01*
X004965Y036484D01*
X004864Y036383D01*
X004810Y036251D01*
X004810Y036109D01*
X004864Y035977D01*
X004965Y035876D01*
X005097Y035822D01*
X005239Y035822D01*
X005371Y035876D01*
X005434Y035940D01*
X007513Y035940D01*
X007513Y035710D01*
X007803Y035420D01*
X007577Y035420D01*
X007564Y035424D01*
X007530Y035420D01*
X007495Y035420D01*
X007483Y035415D01*
X007469Y035413D01*
X007439Y035397D01*
X007407Y035383D01*
X007397Y035374D01*
X007385Y035367D01*
X007364Y035340D01*
X007339Y035316D01*
X007334Y035303D01*
X006364Y034090D01*
X006339Y034066D01*
X006334Y034053D01*
X006326Y034043D01*
X006316Y034010D01*
X006303Y033978D01*
X006303Y033964D01*
X006299Y033951D01*
X006303Y033917D01*
X006303Y033321D01*
X006239Y033258D01*
X006185Y033126D01*
X006185Y032984D01*
X006239Y032852D01*
X006340Y032751D01*
X006472Y032697D01*
X006614Y032697D01*
X006746Y032751D01*
X006847Y032852D01*
X006901Y032984D01*
X006901Y033126D01*
X006847Y033258D01*
X006783Y033321D01*
X006783Y033846D01*
X007658Y034940D01*
X008803Y034940D01*
X008803Y033390D01*
X008573Y033160D01*
X008573Y033200D01*
X008262Y033510D01*
X007823Y033510D01*
X007513Y033200D01*
X007513Y032760D01*
X007743Y032530D01*
X007649Y032530D01*
X007603Y032518D01*
X007562Y032494D01*
X007529Y032461D01*
X007505Y032419D01*
X007493Y032374D01*
X007493Y031989D01*
X008034Y031989D01*
X008034Y031971D01*
X008051Y031971D01*
X008051Y031430D01*
X008437Y031430D01*
X008482Y031442D01*
X008523Y031466D01*
X008557Y031499D01*
X008581Y031541D01*
X008592Y031582D01*
X008803Y031370D01*
X008803Y031279D01*
X008694Y031170D01*
X007559Y031170D01*
X007496Y031234D01*
X007364Y031288D01*
X007222Y031288D01*
X007090Y031234D01*
X006989Y031133D01*
X006935Y031001D01*
X006935Y030859D01*
X006989Y030727D01*
X007090Y030626D01*
X007222Y030572D01*
X007364Y030572D01*
X007496Y030626D01*
X007559Y030690D01*
X008841Y030690D01*
X008929Y030727D01*
X008996Y030794D01*
X009246Y031044D01*
X009283Y031132D01*
X009283Y031370D01*
X009573Y031660D01*
X009573Y031700D01*
X009763Y031510D01*
X009763Y031156D01*
X009739Y031133D01*
X009685Y031001D01*
X009685Y030859D01*
X009739Y030727D01*
X009840Y030626D01*
X009972Y030572D01*
X010114Y030572D01*
X010246Y030626D01*
X010347Y030727D01*
X010401Y030859D01*
X010401Y031001D01*
X010347Y031133D01*
X010323Y031156D01*
X010323Y031510D01*
X010513Y031700D01*
X010513Y031660D01*
X010683Y031490D01*
X010683Y029858D01*
X010738Y029726D01*
X010784Y029680D01*
X010738Y029634D01*
X010683Y029502D01*
X010683Y028770D01*
X010573Y028660D01*
X010573Y028700D01*
X010275Y028998D01*
X010246Y029066D01*
X008929Y030383D01*
X008841Y030420D01*
X007184Y030420D01*
X007121Y030484D01*
X007060Y030656D02*
X006315Y030656D01*
X006393Y030498D02*
X006749Y030498D01*
X006596Y030339D02*
X006436Y030339D01*
X006452Y030181D02*
X006560Y030181D01*
X006918Y030180D02*
X008793Y030180D01*
X010043Y028930D01*
X010043Y028480D01*
X010360Y028913D02*
X010683Y028913D01*
X010683Y029071D02*
X010241Y029071D01*
X010083Y029230D02*
X010683Y029230D01*
X010683Y029388D02*
X009924Y029388D01*
X009766Y029547D02*
X010702Y029547D01*
X010759Y029705D02*
X009607Y029705D01*
X009449Y029864D02*
X010683Y029864D01*
X010683Y030022D02*
X009290Y030022D01*
X009132Y030181D02*
X010683Y030181D01*
X010683Y030339D02*
X008973Y030339D01*
X008996Y030794D02*
X008996Y030794D01*
X009017Y030815D02*
X009703Y030815D01*
X009685Y030973D02*
X009175Y030973D01*
X009283Y031132D02*
X009739Y031132D01*
X009763Y031290D02*
X009283Y031290D01*
X009361Y031449D02*
X009763Y031449D01*
X009666Y031607D02*
X009519Y031607D01*
X009043Y031880D02*
X009043Y031180D01*
X008793Y030930D01*
X007293Y030930D01*
X006953Y030815D02*
X006207Y030815D01*
X006045Y030973D02*
X006935Y030973D01*
X006989Y031132D02*
X005714Y031132D01*
X005127Y031132D02*
X004603Y031132D01*
X004603Y031290D02*
X008803Y031290D01*
X008725Y031449D02*
X008493Y031449D01*
X008051Y031449D02*
X008034Y031449D01*
X008034Y031430D02*
X007649Y031430D01*
X007603Y031442D01*
X007562Y031466D01*
X007529Y031499D01*
X007505Y031541D01*
X007493Y031586D01*
X007493Y031971D01*
X008034Y031971D01*
X008034Y031430D01*
X008034Y031607D02*
X008051Y031607D01*
X008034Y031766D02*
X008051Y031766D01*
X008034Y031924D02*
X008051Y031924D01*
X007493Y031924D02*
X004603Y031924D01*
X004603Y031766D02*
X007493Y031766D01*
X007493Y031607D02*
X004603Y031607D01*
X004603Y031449D02*
X007593Y031449D01*
X007493Y032083D02*
X004603Y032083D01*
X004603Y032241D02*
X007493Y032241D01*
X007500Y032400D02*
X004603Y032400D01*
X004603Y032558D02*
X007715Y032558D01*
X007557Y032717D02*
X006662Y032717D01*
X006424Y032717D02*
X004603Y032717D01*
X004603Y032875D02*
X006230Y032875D01*
X006185Y033034D02*
X004603Y033034D01*
X004603Y033192D02*
X006212Y033192D01*
X006303Y033351D02*
X004603Y033351D01*
X004603Y033509D02*
X006303Y033509D01*
X006303Y033668D02*
X004603Y033668D01*
X004603Y033826D02*
X006303Y033826D01*
X006306Y033985D02*
X004603Y033985D01*
X004603Y034143D02*
X006406Y034143D01*
X006533Y034302D02*
X004603Y034302D01*
X004603Y034460D02*
X006660Y034460D01*
X006786Y034619D02*
X004603Y034619D01*
X004603Y034777D02*
X006913Y034777D01*
X007040Y034936D02*
X004603Y034936D01*
X004603Y035094D02*
X007167Y035094D01*
X007294Y035253D02*
X004603Y035253D01*
X004603Y035411D02*
X007465Y035411D01*
X007543Y035180D02*
X009043Y035180D01*
X010868Y035180D01*
X010868Y036430D01*
X018543Y036430D01*
X018543Y034430D01*
X018043Y033930D02*
X017418Y034680D01*
X014043Y034680D01*
X012918Y035305D01*
X012676Y035570D02*
X012528Y035570D01*
X012676Y035570D01*
X012614Y035508D01*
X012560Y035376D01*
X012560Y035234D01*
X012614Y035102D01*
X012715Y035001D01*
X012847Y034947D01*
X012989Y034947D01*
X013035Y034966D01*
X013897Y034487D01*
X013907Y034477D01*
X013938Y034464D01*
X013968Y034447D01*
X013982Y034445D01*
X013995Y034440D01*
X014029Y034440D01*
X014029Y034440D01*
X013832Y034440D01*
X013533Y034141D01*
X013533Y033930D01*
X013533Y033790D01*
X012817Y033790D01*
X012528Y034079D01*
X012528Y035570D01*
X012528Y035411D02*
X012574Y035411D01*
X012560Y035253D02*
X012528Y035253D01*
X012528Y035094D02*
X012622Y035094D01*
X012528Y034936D02*
X013089Y034936D01*
X013374Y034777D02*
X012528Y034777D01*
X012528Y034619D02*
X013659Y034619D01*
X013693Y034302D02*
X012528Y034302D01*
X012528Y034460D02*
X013945Y034460D01*
X014077Y034440D02*
X014077Y034440D01*
X014393Y034302D02*
X014693Y034302D01*
X015043Y034302D02*
X015043Y034302D01*
X015043Y034143D02*
X015043Y034143D01*
X015043Y033985D02*
X015043Y033985D01*
X015043Y033930D02*
X015043Y033930D01*
X014043Y033930D01*
X014553Y033930D01*
X015043Y033930D01*
X015043Y033826D02*
X015043Y033826D01*
X015043Y033668D02*
X015043Y033668D01*
X015043Y033509D02*
X015043Y033509D01*
X015343Y033509D02*
X015743Y033509D01*
X015770Y033351D02*
X015315Y033351D01*
X015502Y033668D02*
X015584Y033668D01*
X016043Y033668D02*
X016043Y033668D01*
X016043Y033826D02*
X016043Y033826D01*
X016043Y033930D02*
X016043Y033930D01*
X016043Y033985D02*
X016043Y033985D01*
X016043Y034143D02*
X016043Y034143D01*
X016043Y034302D02*
X016043Y034302D01*
X016393Y034302D02*
X016721Y034302D01*
X016563Y034143D02*
X016551Y034143D01*
X016553Y033985D02*
X016553Y033985D01*
X016553Y033826D02*
X016553Y033826D01*
X016502Y033668D02*
X016612Y033668D01*
X016771Y033509D02*
X016343Y033509D01*
X016315Y033351D02*
X016770Y033351D01*
X016612Y033192D02*
X016474Y033192D01*
X016533Y033034D02*
X016553Y033034D01*
X016553Y032875D02*
X016533Y032875D01*
X016522Y032717D02*
X016563Y032717D01*
X016722Y032558D02*
X016364Y032558D01*
X015722Y032558D02*
X015364Y032558D01*
X014770Y033351D02*
X014315Y033351D01*
X014343Y033509D02*
X014743Y033509D01*
X014584Y033668D02*
X014502Y033668D01*
X014062Y033420D02*
X014062Y033420D01*
X014043Y033930D02*
X014043Y033930D01*
X013533Y033930D01*
X014043Y033930D01*
X014043Y033930D01*
X013533Y033985D02*
X012622Y033985D01*
X012528Y034143D02*
X013535Y034143D01*
X013533Y033826D02*
X012781Y033826D01*
X011808Y034290D02*
X011471Y034290D01*
X011339Y034235D01*
X011238Y034134D01*
X010738Y033634D01*
X010683Y033502D01*
X010683Y033358D01*
X010683Y033270D01*
X010573Y033160D01*
X010573Y033200D01*
X010283Y033490D01*
X010283Y034164D01*
X010347Y034227D01*
X010401Y034359D01*
X010401Y034501D01*
X010347Y034633D01*
X010246Y034734D01*
X010114Y034788D01*
X009972Y034788D01*
X009840Y034734D01*
X009739Y034633D01*
X009685Y034501D01*
X009685Y034359D01*
X009739Y034227D01*
X009803Y034164D01*
X009803Y033490D01*
X009513Y033200D01*
X009513Y033160D01*
X009283Y033390D01*
X009283Y034940D01*
X010916Y034940D01*
X011004Y034977D01*
X011071Y035044D01*
X011108Y035132D01*
X011108Y036190D01*
X011919Y036190D01*
X011863Y036134D01*
X011808Y036002D01*
X011808Y034290D01*
X011808Y034302D02*
X010377Y034302D01*
X010401Y034460D02*
X011808Y034460D01*
X011808Y034619D02*
X010352Y034619D01*
X010141Y034777D02*
X011808Y034777D01*
X011808Y034936D02*
X009283Y034936D01*
X009283Y034777D02*
X009945Y034777D01*
X009733Y034619D02*
X009283Y034619D01*
X009283Y034460D02*
X009685Y034460D01*
X009709Y034302D02*
X009283Y034302D01*
X009283Y034143D02*
X009803Y034143D01*
X009803Y033985D02*
X009283Y033985D01*
X009283Y033826D02*
X009803Y033826D01*
X009803Y033668D02*
X009283Y033668D01*
X009283Y033509D02*
X009803Y033509D01*
X009664Y033351D02*
X009322Y033351D01*
X009480Y033192D02*
X009513Y033192D01*
X009043Y032880D02*
X009043Y035180D01*
X009043Y035830D01*
X008803Y034936D02*
X007655Y034936D01*
X007528Y034777D02*
X008803Y034777D01*
X008803Y034619D02*
X007401Y034619D01*
X007274Y034460D02*
X008803Y034460D01*
X008803Y034302D02*
X007147Y034302D01*
X007021Y034143D02*
X008803Y034143D01*
X008803Y033985D02*
X006894Y033985D01*
X006783Y033826D02*
X008803Y033826D01*
X008803Y033668D02*
X006783Y033668D01*
X006783Y033509D02*
X007822Y033509D01*
X007664Y033351D02*
X006783Y033351D01*
X006874Y033192D02*
X007513Y033192D01*
X007513Y033034D02*
X006901Y033034D01*
X006856Y032875D02*
X007513Y032875D01*
X008263Y033509D02*
X008803Y033509D01*
X008764Y033351D02*
X008422Y033351D01*
X008573Y033192D02*
X008605Y033192D01*
X010043Y032980D02*
X010043Y034430D01*
X010283Y034143D02*
X011247Y034143D01*
X011088Y033985D02*
X010283Y033985D01*
X010283Y033826D02*
X010930Y033826D01*
X010771Y033668D02*
X010283Y033668D01*
X010283Y033509D02*
X010686Y033509D01*
X010683Y033351D02*
X010422Y033351D01*
X010573Y033192D02*
X010605Y033192D01*
X010566Y031607D02*
X010419Y031607D01*
X010323Y031449D02*
X010683Y031449D01*
X010683Y031290D02*
X010323Y031290D01*
X010347Y031132D02*
X010683Y031132D01*
X010683Y030973D02*
X010401Y030973D01*
X010383Y030815D02*
X010683Y030815D01*
X010683Y030656D02*
X010275Y030656D01*
X009810Y030656D02*
X007525Y030656D01*
X008043Y029680D02*
X006543Y029680D01*
X006757Y029388D02*
X007995Y029388D01*
X008154Y029230D02*
X005902Y029230D01*
X006125Y029388D02*
X006328Y029388D01*
X005625Y028650D02*
X005494Y028704D01*
X005352Y028704D01*
X005221Y028650D01*
X005120Y028549D01*
X005066Y028418D01*
X005066Y028276D01*
X005120Y028145D01*
X005221Y028044D01*
X005352Y027990D01*
X005494Y027990D01*
X005625Y028044D01*
X005725Y028145D01*
X005780Y028276D01*
X005780Y028418D01*
X005725Y028549D01*
X005625Y028650D01*
X005679Y028596D02*
X006994Y028596D01*
X006836Y028437D02*
X005772Y028437D01*
X005780Y028279D02*
X006699Y028279D01*
X006678Y028120D02*
X005701Y028120D01*
X005145Y028120D02*
X004603Y028120D01*
X004603Y027962D02*
X006678Y027962D01*
X006678Y027803D02*
X004603Y027803D01*
X004603Y027645D02*
X006678Y027645D01*
X006678Y027486D02*
X004603Y027486D01*
X004603Y027328D02*
X006678Y027328D01*
X006678Y027169D02*
X004603Y027169D01*
X004603Y027011D02*
X006678Y027011D01*
X006678Y026852D02*
X004603Y026852D01*
X004603Y026694D02*
X006678Y026694D01*
X006678Y026535D02*
X004603Y026535D01*
X004603Y026377D02*
X006678Y026377D01*
X006678Y026218D02*
X004603Y026218D01*
X004603Y026060D02*
X006678Y026060D01*
X006678Y025901D02*
X004603Y025901D01*
X004603Y025743D02*
X006684Y025743D01*
X006594Y025584D02*
X004603Y025584D01*
X004603Y025426D02*
X006560Y025426D01*
X006360Y025267D02*
X004603Y025267D01*
X004603Y025109D02*
X006219Y025109D01*
X006185Y024950D02*
X004603Y024950D01*
X004603Y024792D02*
X006223Y024792D01*
X006384Y024633D02*
X004603Y024633D01*
X004603Y024475D02*
X007788Y024475D01*
X007629Y024316D02*
X004603Y024316D01*
X004603Y024158D02*
X007513Y024158D01*
X007513Y023999D02*
X004603Y023999D01*
X004603Y023841D02*
X007513Y023841D01*
X007591Y023682D02*
X004603Y023682D01*
X004603Y023524D02*
X007625Y023524D01*
X007493Y023365D02*
X004603Y023365D01*
X004603Y023207D02*
X007493Y023207D01*
X007493Y023048D02*
X004603Y023048D01*
X004603Y022890D02*
X007493Y022890D01*
X007493Y022971D02*
X007493Y022586D01*
X007505Y022541D01*
X007529Y022499D01*
X007562Y022466D01*
X007603Y022442D01*
X007649Y022430D01*
X008034Y022430D01*
X008034Y022971D01*
X007493Y022971D01*
X007493Y022731D02*
X004603Y022731D01*
X004603Y022573D02*
X007497Y022573D01*
X008034Y022573D02*
X008051Y022573D01*
X008034Y022731D02*
X008051Y022731D01*
X008034Y022890D02*
X008051Y022890D01*
X008589Y022573D02*
X008601Y022573D01*
X008759Y022414D02*
X004603Y022414D01*
X004603Y022256D02*
X008779Y022256D01*
X008621Y022097D02*
X004603Y022097D01*
X004603Y021939D02*
X007045Y021939D01*
X006947Y021780D02*
X004603Y021780D01*
X004603Y021622D02*
X006935Y021622D01*
X006694Y021463D02*
X004603Y021463D01*
X004603Y021305D02*
X006582Y021305D01*
X006560Y021146D02*
X004603Y021146D01*
X004603Y020988D02*
X006610Y020988D01*
X006829Y020829D02*
X004603Y020829D01*
X004603Y020671D02*
X006277Y020671D01*
X006189Y020512D02*
X004603Y020512D01*
X004603Y020354D02*
X006187Y020354D01*
X006271Y020195D02*
X004603Y020195D01*
X004603Y020037D02*
X008347Y020037D01*
X008394Y019878D02*
X008505Y019878D01*
X008553Y019720D02*
X008633Y019720D01*
X009043Y019680D02*
X009043Y019380D01*
X009043Y019680D02*
X008293Y020430D01*
X006543Y020430D01*
X006809Y020671D02*
X009213Y020671D01*
X009054Y020829D02*
X007006Y020829D01*
X006918Y021180D02*
X009043Y021180D01*
X010043Y020180D01*
X010043Y019480D01*
X009691Y019878D02*
X009294Y019878D01*
X009453Y019720D02*
X009533Y019720D01*
X009803Y020037D02*
X009026Y020037D01*
X008867Y020195D02*
X009688Y020195D01*
X009530Y020354D02*
X008709Y020354D01*
X008550Y020512D02*
X009371Y020512D01*
X008543Y021680D02*
X009043Y022180D01*
X009043Y022880D01*
X008462Y021939D02*
X007541Y021939D01*
X007293Y021680D02*
X008543Y021680D01*
X007691Y019878D02*
X004603Y019878D01*
X004603Y019720D02*
X007533Y019720D01*
X007513Y019561D02*
X004603Y019561D01*
X004603Y019403D02*
X007513Y019403D01*
X007529Y019244D02*
X004603Y019244D01*
X004603Y019086D02*
X007688Y019086D01*
X007510Y018927D02*
X004603Y018927D01*
X004603Y018769D02*
X007493Y018769D01*
X007493Y018610D02*
X004603Y018610D01*
X004603Y018452D02*
X007493Y018452D01*
X007493Y018471D02*
X007493Y018086D01*
X007505Y018041D01*
X007529Y017999D01*
X007562Y017966D01*
X007603Y017942D01*
X007649Y017930D01*
X008034Y017930D01*
X008034Y018471D01*
X007493Y018471D01*
X007493Y018293D02*
X004603Y018293D01*
X004603Y018135D02*
X007493Y018135D01*
X007552Y017976D02*
X004603Y017976D01*
X004603Y017818D02*
X008803Y017818D01*
X008697Y017976D02*
X008533Y017976D01*
X008051Y017976D02*
X008034Y017976D01*
X008034Y018135D02*
X008051Y018135D01*
X008034Y018293D02*
X008051Y018293D01*
X008034Y018452D02*
X008051Y018452D01*
X009043Y018380D02*
X009043Y017680D01*
X008793Y017430D01*
X007293Y017430D01*
X007553Y017184D02*
X010382Y017184D01*
X010276Y017342D02*
X009044Y017342D01*
X008996Y017294D02*
X008996Y017294D01*
X009203Y017501D02*
X010263Y017501D01*
X010263Y017659D02*
X009283Y017659D01*
X009283Y017818D02*
X010263Y017818D01*
X009797Y017976D02*
X009388Y017976D01*
X009547Y018135D02*
X009639Y018135D01*
X010508Y017025D02*
X004603Y017025D01*
X004603Y016867D02*
X010635Y016867D01*
X010766Y016708D02*
X004603Y016708D01*
X004603Y016550D02*
X010703Y016550D01*
X010683Y016391D02*
X004603Y016391D01*
X004603Y016233D02*
X010683Y016233D01*
X010683Y016074D02*
X004603Y016074D01*
X004603Y015916D02*
X010683Y015916D01*
X011403Y015916D02*
X023470Y015916D01*
X023415Y015970D02*
X023738Y015648D01*
X023766Y015648D01*
X023535Y015417D01*
X023535Y014999D01*
X023401Y015133D01*
X023312Y015170D01*
X012059Y015170D01*
X011996Y015234D01*
X011864Y015288D01*
X011722Y015288D01*
X011590Y015234D01*
X011489Y015133D01*
X011435Y015001D01*
X011435Y014859D01*
X011489Y014727D01*
X011590Y014626D01*
X011661Y014597D01*
X011513Y014450D01*
X011513Y014410D01*
X011403Y014520D01*
X011403Y016070D01*
X014415Y016070D01*
X014547Y016125D01*
X014648Y016226D01*
X014703Y016358D01*
X014703Y016502D01*
X014648Y016634D01*
X014632Y016650D01*
X015316Y016650D01*
X015340Y016626D01*
X015472Y016572D01*
X015614Y016572D01*
X015746Y016626D01*
X015847Y016727D01*
X015901Y016859D01*
X015901Y017001D01*
X015847Y017133D01*
X015746Y017234D01*
X015614Y017288D01*
X015472Y017288D01*
X015340Y017234D01*
X015316Y017210D01*
X015211Y017210D01*
X015247Y017225D01*
X015348Y017326D01*
X015403Y017458D01*
X015403Y017602D01*
X015348Y017734D01*
X015247Y017835D01*
X015115Y017890D01*
X011403Y017890D01*
X011403Y017990D01*
X011573Y018160D01*
X011573Y018200D01*
X011823Y017950D01*
X012262Y017950D01*
X012573Y018260D01*
X012573Y018700D01*
X012292Y018980D01*
X012573Y019260D01*
X012573Y019700D01*
X012262Y020010D01*
X012006Y020010D01*
X012046Y020026D01*
X012109Y020090D01*
X015991Y020090D01*
X016079Y020127D01*
X016179Y020227D01*
X016246Y020294D01*
X016283Y020382D01*
X016283Y023872D01*
X016414Y023872D01*
X016546Y023926D01*
X016647Y024027D01*
X016701Y024159D01*
X016701Y024301D01*
X016647Y024433D01*
X016546Y024534D01*
X016503Y024551D01*
X016679Y024727D01*
X016746Y024794D01*
X016783Y024882D01*
X016783Y024914D01*
X016847Y024977D01*
X016901Y025109D01*
X016901Y025251D01*
X016847Y025383D01*
X016746Y025484D01*
X016614Y025538D01*
X016472Y025538D01*
X016351Y025488D01*
X016401Y025609D01*
X016401Y025751D01*
X016347Y025883D01*
X016246Y025984D01*
X016114Y026038D01*
X015972Y026038D01*
X015876Y025999D01*
X015901Y026059D01*
X015901Y026201D01*
X015847Y026333D01*
X015746Y026434D01*
X015614Y026488D01*
X015472Y026488D01*
X015354Y026439D01*
X015403Y026558D01*
X015403Y026702D01*
X015348Y026834D01*
X015247Y026935D01*
X015115Y026990D01*
X012302Y026990D01*
X012573Y027260D01*
X012573Y027700D01*
X012292Y027980D01*
X012573Y028260D01*
X012573Y028700D01*
X012262Y029010D01*
X011823Y029010D01*
X011513Y028700D01*
X011513Y028660D01*
X011403Y028770D01*
X011403Y029070D01*
X014508Y029070D01*
X014997Y028642D01*
X015039Y028600D01*
X015050Y028595D01*
X015060Y028587D01*
X015116Y028568D01*
X015171Y028545D01*
X015184Y028545D01*
X015195Y028541D01*
X015255Y028545D01*
X017678Y028545D01*
X017678Y028486D01*
X017668Y028476D01*
X017614Y028530D01*
X017222Y028530D01*
X017128Y028436D01*
X017128Y027504D01*
X017178Y027454D01*
X017178Y026768D01*
X017174Y026733D01*
X017178Y026720D01*
X017178Y026707D01*
X017191Y026675D01*
X017201Y026641D01*
X017209Y026631D01*
X017214Y026619D01*
X017239Y026594D01*
X017603Y026145D01*
X017603Y023282D01*
X017639Y023194D01*
X017939Y022894D01*
X018007Y022827D01*
X018095Y022790D01*
X019422Y022790D01*
X019385Y022701D01*
X019385Y022559D01*
X019439Y022427D01*
X019540Y022326D01*
X019672Y022272D01*
X019814Y022272D01*
X019946Y022326D01*
X020009Y022390D01*
X022444Y022390D01*
X022703Y022131D01*
X022703Y018241D01*
X022739Y018153D01*
X023535Y017357D01*
X023535Y016947D01*
X023736Y016746D01*
X023415Y016426D01*
X023415Y016206D01*
X023957Y016206D01*
X023957Y016189D01*
X023415Y016189D01*
X023415Y015970D01*
X023415Y016074D02*
X014424Y016074D01*
X014651Y016233D02*
X023415Y016233D01*
X023415Y016391D02*
X014703Y016391D01*
X014683Y016550D02*
X023539Y016550D01*
X023698Y016708D02*
X015827Y016708D01*
X015901Y016867D02*
X023616Y016867D01*
X023535Y017025D02*
X015891Y017025D01*
X015796Y017184D02*
X023535Y017184D01*
X023535Y017342D02*
X015355Y017342D01*
X015403Y017501D02*
X023392Y017501D01*
X023233Y017659D02*
X015379Y017659D01*
X015265Y017818D02*
X023075Y017818D01*
X022916Y017976D02*
X012288Y017976D01*
X012447Y018135D02*
X022758Y018135D01*
X022703Y018293D02*
X012573Y018293D01*
X012573Y018452D02*
X022703Y018452D01*
X022703Y018610D02*
X012573Y018610D01*
X012504Y018769D02*
X022703Y018769D01*
X022703Y018927D02*
X012345Y018927D01*
X012398Y019086D02*
X022703Y019086D01*
X022703Y019244D02*
X012556Y019244D01*
X012573Y019403D02*
X022703Y019403D01*
X022703Y019561D02*
X012573Y019561D01*
X012553Y019720D02*
X022703Y019720D01*
X022703Y019878D02*
X012394Y019878D01*
X012056Y020037D02*
X022703Y020037D01*
X022703Y020195D02*
X016147Y020195D01*
X016271Y020354D02*
X022703Y020354D01*
X022703Y020512D02*
X016283Y020512D01*
X016283Y020671D02*
X022703Y020671D01*
X022703Y020829D02*
X016283Y020829D01*
X016283Y020988D02*
X022703Y020988D01*
X022703Y021146D02*
X016283Y021146D01*
X016283Y021305D02*
X022703Y021305D01*
X022703Y021463D02*
X016283Y021463D01*
X016283Y021622D02*
X022703Y021622D01*
X022703Y021780D02*
X016283Y021780D01*
X016283Y021939D02*
X022703Y021939D01*
X022703Y022097D02*
X016283Y022097D01*
X016283Y022256D02*
X022578Y022256D01*
X022943Y022230D02*
X022543Y022630D01*
X019743Y022630D01*
X019397Y022731D02*
X016283Y022731D01*
X016283Y022573D02*
X019385Y022573D01*
X019452Y022414D02*
X016283Y022414D01*
X016283Y022890D02*
X017944Y022890D01*
X017785Y023048D02*
X016283Y023048D01*
X016283Y023207D02*
X017634Y023207D01*
X017603Y023365D02*
X016283Y023365D01*
X016283Y023524D02*
X017603Y023524D01*
X017603Y023682D02*
X016283Y023682D01*
X016283Y023841D02*
X017603Y023841D01*
X017603Y023999D02*
X016618Y023999D01*
X016701Y024158D02*
X017603Y024158D01*
X017603Y024316D02*
X016695Y024316D01*
X016605Y024475D02*
X017603Y024475D01*
X017603Y024633D02*
X016585Y024633D01*
X016744Y024792D02*
X017603Y024792D01*
X017603Y024950D02*
X016819Y024950D01*
X016901Y025109D02*
X017603Y025109D01*
X017603Y025267D02*
X016894Y025267D01*
X016804Y025426D02*
X017603Y025426D01*
X017603Y025584D02*
X016391Y025584D01*
X016401Y025743D02*
X017603Y025743D01*
X017603Y025901D02*
X016328Y025901D01*
X016043Y025680D02*
X016043Y025130D01*
X012043Y025130D01*
X011643Y024680D02*
X016293Y024680D01*
X016543Y024930D01*
X016543Y025180D01*
X016046Y024440D02*
X016039Y024433D01*
X016034Y024420D01*
X015995Y024420D01*
X015907Y024383D01*
X015839Y024316D01*
X015803Y024228D01*
X015803Y021676D01*
X015746Y021734D01*
X015614Y021788D01*
X015472Y021788D01*
X015354Y021739D01*
X015403Y021858D01*
X015403Y022002D01*
X015348Y022134D01*
X015247Y022235D01*
X015115Y022290D01*
X011403Y022290D01*
X011403Y022490D01*
X011573Y022660D01*
X011573Y022700D01*
X011823Y022450D01*
X012262Y022450D01*
X012573Y022760D01*
X012573Y023200D01*
X012292Y023480D01*
X012573Y023760D01*
X012573Y024200D01*
X012332Y024440D01*
X016046Y024440D01*
X015840Y024316D02*
X012456Y024316D01*
X012573Y024158D02*
X015803Y024158D01*
X015803Y023999D02*
X012573Y023999D01*
X012573Y023841D02*
X015803Y023841D01*
X015803Y023682D02*
X012494Y023682D01*
X012336Y023524D02*
X015803Y023524D01*
X015803Y023365D02*
X012407Y023365D01*
X012566Y023207D02*
X015803Y023207D01*
X015803Y023048D02*
X012573Y023048D01*
X012573Y022890D02*
X015803Y022890D01*
X015803Y022731D02*
X012543Y022731D01*
X012385Y022573D02*
X015803Y022573D01*
X015803Y022414D02*
X011403Y022414D01*
X011485Y022573D02*
X011701Y022573D01*
X010043Y023980D02*
X010043Y024430D01*
X009043Y025430D01*
X006918Y025430D01*
X006918Y025805D02*
X009918Y025805D01*
X009043Y026555D02*
X008668Y026180D01*
X007293Y026180D01*
X007158Y026512D02*
X007158Y028081D01*
X007317Y028240D01*
X007533Y028240D01*
X007743Y028030D01*
X007649Y028030D01*
X007603Y028018D01*
X007562Y027994D01*
X007529Y027961D01*
X007505Y027919D01*
X007493Y027874D01*
X007493Y027489D01*
X008034Y027489D01*
X008034Y027471D01*
X008051Y027471D01*
X008051Y026930D01*
X008437Y026930D01*
X008482Y026942D01*
X008523Y026966D01*
X008557Y026999D01*
X008581Y027041D01*
X008592Y027082D01*
X008803Y026870D01*
X008803Y026654D01*
X008569Y026420D01*
X007559Y026420D01*
X007496Y026484D01*
X007364Y026538D01*
X007222Y026538D01*
X007158Y026512D01*
X007158Y026535D02*
X007214Y026535D01*
X007372Y026535D02*
X008684Y026535D01*
X008803Y026694D02*
X007158Y026694D01*
X007158Y026852D02*
X008803Y026852D01*
X008663Y027011D02*
X008563Y027011D01*
X008051Y027011D02*
X008034Y027011D01*
X008034Y026930D02*
X008034Y027471D01*
X007493Y027471D01*
X007493Y027086D01*
X007505Y027041D01*
X007529Y026999D01*
X007562Y026966D01*
X007603Y026942D01*
X007649Y026930D01*
X008034Y026930D01*
X008034Y027169D02*
X008051Y027169D01*
X008034Y027328D02*
X008051Y027328D01*
X008034Y027486D02*
X007158Y027486D01*
X007158Y027328D02*
X007493Y027328D01*
X007493Y027169D02*
X007158Y027169D01*
X007158Y027011D02*
X007522Y027011D01*
X007493Y027645D02*
X007158Y027645D01*
X007158Y027803D02*
X007493Y027803D01*
X007530Y027962D02*
X007158Y027962D01*
X007197Y028120D02*
X007653Y028120D01*
X008043Y028480D02*
X007218Y028480D01*
X006918Y028180D01*
X006918Y025805D01*
X006543Y024955D02*
X008293Y024955D01*
X009043Y024180D01*
X009043Y023880D01*
X008577Y024316D02*
X008456Y024316D01*
X008424Y024475D02*
X008298Y024475D01*
X008271Y024633D02*
X006701Y024633D01*
X009043Y026555D02*
X009043Y027380D01*
X009043Y028380D02*
X009043Y028680D01*
X008043Y029680D01*
X008312Y029071D02*
X004603Y029071D01*
X004603Y028913D02*
X007726Y028913D01*
X007567Y028754D02*
X004603Y028754D01*
X004603Y028596D02*
X005167Y028596D01*
X005074Y028437D02*
X004603Y028437D01*
X004603Y028279D02*
X005066Y028279D01*
X004940Y029230D02*
X004603Y029230D01*
X004603Y029388D02*
X004717Y029388D01*
X004634Y030815D02*
X004603Y030815D01*
X004603Y030973D02*
X004797Y030973D01*
X006543Y033055D02*
X006543Y033930D01*
X007543Y035180D01*
X007654Y035570D02*
X004603Y035570D01*
X004603Y035728D02*
X007513Y035728D01*
X007513Y035887D02*
X005381Y035887D01*
X005168Y036180D02*
X005543Y037930D01*
X022043Y037930D01*
X023418Y036555D01*
X023418Y032430D01*
X023668Y032180D01*
X025793Y032180D01*
X027043Y030930D01*
X024256Y031070D02*
X024079Y030968D01*
X023887Y030776D01*
X023751Y030541D01*
X023681Y030278D01*
X023681Y030007D01*
X023751Y029745D01*
X023887Y029509D01*
X024079Y029317D01*
X024170Y029265D01*
X022364Y029265D01*
X022403Y029358D01*
X022403Y029906D01*
X023098Y030601D01*
X023153Y030733D01*
X023153Y031070D01*
X024256Y031070D01*
X024088Y030973D02*
X023153Y030973D01*
X023153Y030815D02*
X023926Y030815D01*
X023818Y030656D02*
X023121Y030656D01*
X022995Y030498D02*
X023740Y030498D01*
X023697Y030339D02*
X022836Y030339D01*
X022678Y030181D02*
X023681Y030181D01*
X023681Y030022D02*
X022519Y030022D01*
X022403Y029864D02*
X023719Y029864D01*
X023774Y029705D02*
X022403Y029705D01*
X022403Y029547D02*
X023866Y029547D01*
X024008Y029388D02*
X022403Y029388D01*
X021550Y030498D02*
X021208Y030498D01*
X021208Y030656D02*
X021535Y030656D01*
X021596Y030815D02*
X021208Y030815D01*
X021158Y030973D02*
X021653Y030973D01*
X021654Y031132D02*
X021257Y031132D01*
X021893Y031080D02*
X021893Y030605D01*
X021893Y031080D02*
X021943Y031205D01*
X022618Y032005D01*
X022793Y032230D01*
X022793Y036330D01*
X022643Y036330D01*
X022043Y036930D01*
X021043Y036930D01*
X021943Y035730D02*
X022293Y035380D01*
X022293Y032430D01*
X021668Y031680D01*
X020918Y031680D01*
X020418Y030805D01*
X020418Y030390D01*
X020614Y028530D02*
X020222Y028530D01*
X020168Y028476D01*
X020114Y028530D01*
X019903Y028530D01*
X019903Y028545D01*
X024683Y028545D01*
X024683Y028476D01*
X024465Y028258D01*
X024185Y028539D01*
X023746Y028539D01*
X023435Y028228D01*
X023435Y027789D01*
X023746Y027479D01*
X023786Y027479D01*
X023535Y027228D01*
X023535Y026789D01*
X023754Y026570D01*
X023746Y026570D01*
X023435Y026260D01*
X023435Y025821D01*
X023746Y025510D01*
X023786Y025510D01*
X023601Y025325D01*
X023601Y025401D01*
X023547Y025533D01*
X023446Y025634D01*
X023314Y025688D01*
X023172Y025688D01*
X023040Y025634D01*
X022983Y025576D01*
X022983Y026478D01*
X022946Y026566D01*
X022879Y026633D01*
X022579Y026933D01*
X022491Y026970D01*
X021477Y026970D01*
X021459Y027730D01*
X021462Y027747D01*
X021457Y027778D01*
X021457Y027809D01*
X021450Y027824D01*
X021447Y027841D01*
X021431Y027868D01*
X021418Y027896D01*
X021406Y027908D01*
X021397Y027922D01*
X021371Y027940D01*
X021349Y027962D01*
X021333Y027968D01*
X021208Y028057D01*
X021208Y028436D01*
X021114Y028530D01*
X020722Y028530D01*
X020668Y028476D01*
X020614Y028530D01*
X020418Y027970D02*
X020443Y027945D01*
X020673Y027320D01*
X020918Y027970D02*
X021218Y027755D01*
X021243Y026730D01*
X022443Y026730D01*
X022743Y026430D01*
X022743Y024230D01*
X022293Y024230D01*
X022293Y023620D01*
X022043Y024126D02*
X021989Y024180D01*
X021597Y024180D01*
X021543Y024126D01*
X021489Y024180D01*
X021097Y024180D01*
X021057Y024140D01*
X021033Y024164D01*
X020992Y024188D01*
X020947Y024200D01*
X020793Y024200D01*
X020793Y023620D01*
X020793Y023620D01*
X020793Y024200D01*
X020639Y024200D01*
X020593Y024188D01*
X020552Y024164D01*
X020533Y024145D01*
X020533Y024236D01*
X020899Y024632D01*
X020974Y024632D01*
X021106Y024686D01*
X021207Y024787D01*
X021261Y024919D01*
X021261Y025061D01*
X021207Y025193D01*
X021106Y025294D01*
X020974Y025348D01*
X020832Y025348D01*
X020700Y025294D01*
X020640Y025233D01*
X020389Y025236D01*
X020411Y025289D01*
X020411Y025431D01*
X020391Y025480D01*
X020489Y025480D01*
X020543Y025534D01*
X020597Y025480D01*
X020989Y025480D01*
X021043Y025534D01*
X021097Y025480D01*
X021489Y025480D01*
X021543Y025534D01*
X021597Y025480D01*
X021989Y025480D01*
X022043Y025534D01*
X022097Y025480D01*
X022489Y025480D01*
X022503Y025494D01*
X022503Y024470D01*
X022245Y024470D01*
X022157Y024433D01*
X022089Y024366D01*
X022053Y024278D01*
X022053Y024136D01*
X022043Y024126D01*
X022053Y024158D02*
X022012Y024158D01*
X022069Y024316D02*
X020607Y024316D01*
X020546Y024158D02*
X020533Y024158D01*
X020793Y024158D02*
X020793Y024158D01*
X020793Y023999D02*
X020793Y023999D01*
X020793Y023841D02*
X020793Y023841D01*
X020793Y023682D02*
X020793Y023682D01*
X020343Y023620D02*
X020293Y023620D01*
X020293Y024330D01*
X020903Y024990D01*
X018453Y025020D01*
X018443Y026530D01*
X018918Y027005D01*
X018918Y027970D01*
X019418Y027970D02*
X019418Y027390D01*
X019443Y027390D01*
X019443Y026841D01*
X019394Y026793D01*
X019332Y026741D01*
X019331Y026729D01*
X019323Y026721D01*
X019323Y026640D01*
X019319Y026600D01*
X019097Y026600D01*
X019057Y026560D01*
X019033Y026584D01*
X018992Y026608D01*
X018947Y026620D01*
X018872Y026620D01*
X019121Y026869D01*
X019158Y026957D01*
X019158Y027445D01*
X019177Y027426D01*
X019218Y027402D01*
X019264Y027390D01*
X019418Y027390D01*
X019418Y027970D01*
X019418Y027970D01*
X019418Y027962D02*
X019418Y027962D01*
X019418Y027803D02*
X019418Y027803D01*
X019418Y027645D02*
X019418Y027645D01*
X019418Y027486D02*
X019418Y027486D01*
X019443Y027328D02*
X019158Y027328D01*
X019158Y027169D02*
X019443Y027169D01*
X019443Y027011D02*
X019158Y027011D01*
X019104Y026852D02*
X019443Y026852D01*
X019323Y026694D02*
X018946Y026694D01*
X018418Y026905D02*
X018143Y026630D01*
X018143Y024680D01*
X019673Y024640D01*
X019793Y024330D01*
X019793Y023620D01*
X019843Y023620D01*
X019843Y023630D01*
X019293Y023620D02*
X019053Y024290D01*
X019154Y025251D02*
X018691Y025257D01*
X018690Y025460D01*
X018793Y025460D01*
X018947Y025460D01*
X018992Y025472D01*
X019033Y025496D01*
X019057Y025520D01*
X019097Y025480D01*
X019151Y025480D01*
X019135Y025441D01*
X019135Y025299D01*
X019154Y025251D01*
X019148Y025267D02*
X018691Y025267D01*
X018690Y025426D02*
X019135Y025426D01*
X018793Y025460D02*
X018793Y026040D01*
X018793Y026040D01*
X018793Y025460D01*
X018793Y025584D02*
X018793Y025584D01*
X018793Y025743D02*
X018793Y025743D01*
X018793Y025901D02*
X018793Y025901D01*
X019543Y025530D02*
X019493Y025370D01*
X020402Y025267D02*
X020674Y025267D01*
X020411Y025426D02*
X022503Y025426D01*
X022503Y025267D02*
X021132Y025267D01*
X021241Y025109D02*
X022503Y025109D01*
X022503Y024950D02*
X021261Y024950D01*
X021208Y024792D02*
X022503Y024792D01*
X022503Y024633D02*
X020977Y024633D01*
X020753Y024475D02*
X022503Y024475D01*
X021574Y024158D02*
X021512Y024158D01*
X021074Y024158D02*
X021040Y024158D01*
X021293Y023620D02*
X021293Y023030D01*
X018143Y023030D01*
X017843Y023330D01*
X017843Y026230D01*
X017418Y026755D01*
X017418Y027970D01*
X017128Y027962D02*
X012311Y027962D01*
X012432Y028120D02*
X017128Y028120D01*
X017128Y028279D02*
X012573Y028279D01*
X012573Y028437D02*
X017129Y028437D01*
X017128Y027803D02*
X012469Y027803D01*
X012573Y027645D02*
X017128Y027645D01*
X017146Y027486D02*
X012573Y027486D01*
X012573Y027328D02*
X017178Y027328D01*
X017178Y027169D02*
X012481Y027169D01*
X012323Y027011D02*
X017178Y027011D01*
X017178Y026852D02*
X015330Y026852D01*
X015403Y026694D02*
X017184Y026694D01*
X017287Y026535D02*
X015393Y026535D01*
X015803Y026377D02*
X017416Y026377D01*
X017544Y026218D02*
X015894Y026218D01*
X015901Y026060D02*
X017603Y026060D01*
X018418Y026905D02*
X018418Y027970D01*
X017918Y027970D02*
X017918Y028505D01*
X017943Y028530D01*
X019663Y028530D01*
X019918Y027970D02*
X020043Y027970D01*
X021208Y028120D02*
X023435Y028120D01*
X023435Y027962D02*
X021349Y027962D01*
X021457Y027803D02*
X023435Y027803D01*
X023580Y027645D02*
X021461Y027645D01*
X021465Y027486D02*
X023739Y027486D01*
X023635Y027328D02*
X021468Y027328D01*
X021472Y027169D02*
X023535Y027169D01*
X023535Y027011D02*
X021476Y027011D01*
X022660Y026852D02*
X023535Y026852D01*
X023631Y026694D02*
X022819Y026694D01*
X022959Y026535D02*
X023711Y026535D01*
X023552Y026377D02*
X022983Y026377D01*
X022983Y026218D02*
X023435Y026218D01*
X023435Y026060D02*
X022983Y026060D01*
X022983Y025901D02*
X023435Y025901D01*
X023514Y025743D02*
X022983Y025743D01*
X022983Y025584D02*
X022991Y025584D01*
X023243Y025330D02*
X023243Y022826D01*
X023965Y022103D01*
X022943Y022230D02*
X022943Y018289D01*
X024065Y017166D01*
X023628Y015757D02*
X011403Y015757D01*
X011403Y015599D02*
X023717Y015599D01*
X023558Y015440D02*
X011403Y015440D01*
X011403Y015282D02*
X011706Y015282D01*
X011880Y015282D02*
X023535Y015282D01*
X023535Y015123D02*
X023411Y015123D01*
X023265Y014930D02*
X023965Y014229D01*
X023435Y014172D02*
X023390Y014172D01*
X023265Y014930D02*
X011793Y014930D01*
X011457Y014806D02*
X011403Y014806D01*
X011403Y014648D02*
X011569Y014648D01*
X011552Y014489D02*
X011433Y014489D01*
X011403Y014965D02*
X011435Y014965D01*
X011403Y015123D02*
X011485Y015123D01*
X010652Y014489D02*
X010533Y014489D01*
X007033Y017184D02*
X004603Y017184D01*
X004603Y017342D02*
X006942Y017342D01*
X006935Y017501D02*
X004603Y017501D01*
X004603Y017659D02*
X007015Y017659D01*
X011403Y017976D02*
X011797Y017976D01*
X011639Y018135D02*
X011547Y018135D01*
X011843Y020330D02*
X015943Y020330D01*
X016043Y020430D01*
X016043Y024180D01*
X016293Y024180D01*
X016343Y024230D01*
X015803Y022256D02*
X015198Y022256D01*
X015363Y022097D02*
X015803Y022097D01*
X015803Y021939D02*
X015403Y021939D01*
X015370Y021780D02*
X015452Y021780D01*
X015634Y021780D02*
X015803Y021780D01*
X021208Y028279D02*
X023486Y028279D01*
X023644Y028437D02*
X021207Y028437D01*
X024287Y028437D02*
X024644Y028437D01*
X024486Y028279D02*
X024445Y028279D01*
X023672Y025584D02*
X023495Y025584D01*
X023591Y025426D02*
X023701Y025426D01*
X021793Y032680D02*
X021793Y034680D01*
X021293Y034680D01*
X021043Y034430D01*
X021043Y033930D01*
X018722Y032558D02*
X018392Y032558D01*
X018551Y032717D02*
X018563Y032717D01*
X018553Y032875D02*
X018553Y032875D01*
X018553Y033034D02*
X018553Y033034D01*
X018502Y033192D02*
X018612Y033192D01*
X017421Y034302D02*
X017364Y034302D01*
X016710Y035570D02*
X016375Y035570D01*
X016533Y035728D02*
X016553Y035728D01*
X016553Y035887D02*
X016533Y035887D01*
X016533Y036045D02*
X016553Y036045D01*
X016513Y036679D02*
X016601Y036679D01*
X016553Y036838D02*
X016553Y036838D01*
X016553Y036996D02*
X016553Y036996D01*
X016540Y037155D02*
X016574Y037155D01*
X016733Y037313D02*
X016381Y037313D01*
X016043Y037313D02*
X016043Y037313D01*
X016043Y037440D02*
X016043Y036930D01*
X016043Y036930D01*
X015043Y036930D01*
X015043Y036930D01*
X015043Y036930D01*
X015043Y037440D01*
X015254Y037440D01*
X015543Y037151D01*
X015832Y037440D01*
X016043Y037440D01*
X016043Y037155D02*
X016043Y037155D01*
X016043Y036996D02*
X016043Y036996D01*
X016043Y036930D02*
X016043Y036930D01*
X015705Y037313D02*
X015381Y037313D01*
X015540Y037155D02*
X015546Y037155D01*
X015043Y037155D02*
X015043Y037155D01*
X015043Y037313D02*
X015043Y037313D01*
X015043Y037440D02*
X015043Y036930D01*
X014043Y036930D01*
X014043Y036930D01*
X014043Y036930D01*
X014043Y037440D01*
X014254Y037440D01*
X014543Y037151D01*
X014832Y037440D01*
X015043Y037440D01*
X014705Y037313D02*
X014381Y037313D01*
X014540Y037155D02*
X014546Y037155D01*
X014043Y037155D02*
X014043Y037155D01*
X014043Y037313D02*
X014043Y037313D01*
X014043Y037440D02*
X014043Y036930D01*
X014043Y036930D01*
X013533Y036930D01*
X013533Y037141D01*
X013832Y037440D01*
X014043Y037440D01*
X013705Y037313D02*
X010438Y037313D01*
X010593Y037155D02*
X013546Y037155D01*
X013533Y036996D02*
X010593Y036996D01*
X010593Y036838D02*
X013533Y036838D01*
X013573Y036679D02*
X010570Y036679D01*
X010646Y036521D02*
X010411Y036521D01*
X010360Y036362D02*
X010628Y036362D01*
X010628Y036204D02*
X010519Y036204D01*
X010573Y036045D02*
X010628Y036045D01*
X010628Y035887D02*
X010573Y035887D01*
X010573Y035728D02*
X010628Y035728D01*
X010628Y035570D02*
X010432Y035570D01*
X011108Y035570D02*
X011808Y035570D01*
X011808Y035728D02*
X011108Y035728D01*
X011108Y035887D02*
X011808Y035887D01*
X011826Y036045D02*
X011108Y036045D01*
X011108Y035411D02*
X011808Y035411D01*
X011808Y035253D02*
X011108Y035253D01*
X011092Y035094D02*
X011808Y035094D01*
X010063Y036996D02*
X010023Y036996D01*
X010023Y037155D02*
X010063Y037155D01*
X010063Y037313D02*
X010023Y037313D01*
X010023Y037472D02*
X010063Y037472D01*
X010279Y037472D02*
X018245Y037472D01*
X018404Y037630D02*
X005724Y037630D01*
X005690Y037472D02*
X009807Y037472D01*
X009648Y037313D02*
X009309Y037313D01*
X009468Y037155D02*
X009493Y037155D01*
X008776Y037313D02*
X008409Y037313D01*
X008568Y037155D02*
X008618Y037155D01*
X007676Y037313D02*
X005656Y037313D01*
X005622Y037155D02*
X007518Y037155D01*
X007513Y036996D02*
X005588Y036996D01*
X005554Y036838D02*
X007513Y036838D01*
X007544Y036679D02*
X005520Y036679D01*
X005486Y036521D02*
X007703Y036521D01*
X007793Y036180D02*
X008043Y035930D01*
X007793Y036180D02*
X005168Y036180D01*
X004836Y036045D02*
X004603Y036045D01*
X004603Y035887D02*
X004955Y035887D01*
X004810Y036204D02*
X004603Y036204D01*
X004603Y036362D02*
X004856Y036362D01*
X004995Y036521D02*
X004603Y036521D01*
X004603Y036679D02*
X005029Y036679D01*
X005063Y036838D02*
X004603Y036838D01*
X004603Y036996D02*
X005097Y036996D01*
X005131Y037155D02*
X004603Y037155D01*
X004603Y037313D02*
X005165Y037313D01*
X005199Y037472D02*
X004603Y037472D01*
X004603Y037630D02*
X005233Y037630D01*
X005267Y037789D02*
X004603Y037789D01*
X004603Y037947D02*
X005301Y037947D01*
X005372Y038106D02*
X004603Y038106D01*
X014043Y036996D02*
X014043Y036996D01*
X015043Y036996D02*
X015043Y036996D01*
X015043Y036930D02*
X015043Y036930D01*
X015375Y035570D02*
X015710Y035570D01*
X014710Y035570D02*
X014375Y035570D01*
X015393Y034302D02*
X015693Y034302D01*
X016043Y033509D02*
X016043Y033509D01*
X018543Y036430D02*
X019043Y036930D01*
X015309Y029705D02*
X014877Y029705D01*
X015056Y029547D02*
X015202Y029547D01*
X014688Y028913D02*
X012360Y028913D01*
X012518Y028754D02*
X014869Y028754D01*
X015049Y028596D02*
X012573Y028596D01*
X011726Y028913D02*
X011403Y028913D01*
X011418Y028754D02*
X011567Y028754D01*
X010667Y028754D02*
X010518Y028754D01*
X008629Y028754D02*
X008518Y028754D01*
X008471Y028913D02*
X008360Y028913D01*
X021590Y014331D02*
X021627Y014331D01*
X021627Y014172D02*
X021590Y014172D01*
X021590Y014014D02*
X021627Y014014D01*
X021627Y013855D02*
X021590Y013855D01*
X022038Y013697D02*
X020848Y013697D01*
X020669Y013221D02*
X020408Y013221D01*
X019839Y010527D02*
X019447Y010527D01*
X019534Y010368D02*
X019752Y010368D01*
X019733Y010210D02*
X019553Y010210D01*
X019553Y010051D02*
X019733Y010051D01*
X019733Y009893D02*
X019553Y009893D01*
X019553Y009734D02*
X019733Y009734D01*
X019733Y009576D02*
X019553Y009576D01*
X019503Y009417D02*
X019783Y009417D01*
X019914Y009259D02*
X019373Y009259D01*
X018813Y009259D02*
X016283Y009259D01*
X016283Y009417D02*
X018683Y009417D01*
X018633Y009576D02*
X016283Y009576D01*
X016283Y009734D02*
X018633Y009734D01*
X018633Y009893D02*
X016283Y009893D01*
X016283Y010051D02*
X018633Y010051D01*
X018633Y010210D02*
X016283Y010210D01*
X016266Y010368D02*
X018652Y010368D01*
X018813Y009100D02*
X016283Y009100D01*
X016283Y008942D02*
X018813Y008942D01*
X018813Y008783D02*
X016283Y008783D01*
X016283Y008625D02*
X018787Y008625D01*
X018672Y008466D02*
X016283Y008466D01*
X016283Y008308D02*
X018633Y008308D01*
X018633Y008149D02*
X016283Y008149D01*
X016283Y007991D02*
X018633Y007991D01*
X018633Y007832D02*
X016283Y007832D01*
X016283Y007674D02*
X018633Y007674D01*
X018663Y007515D02*
X016283Y007515D01*
X015793Y006855D02*
X015793Y008430D01*
X015553Y007832D02*
X006309Y007832D01*
X006390Y007674D02*
X015553Y007674D01*
X015553Y007515D02*
X006433Y007515D01*
X006452Y007357D02*
X015553Y007357D01*
X015553Y007198D02*
X006452Y007198D01*
X006416Y007040D02*
X015553Y007040D01*
X015553Y006881D02*
X006365Y006881D01*
X006274Y006723D02*
X015588Y006723D01*
X015793Y006855D02*
X022593Y006855D01*
X022793Y007180D01*
X023668Y008055D01*
X023660Y008920D02*
X023283Y008920D01*
X023283Y009315D01*
X023477Y009471D01*
X023489Y009477D01*
X023514Y009501D01*
X023515Y009502D01*
X023515Y009301D01*
X024057Y009301D01*
X024057Y009284D01*
X023515Y009284D01*
X023515Y009064D01*
X023660Y008920D01*
X023638Y008942D02*
X023283Y008942D01*
X023283Y009100D02*
X023515Y009100D01*
X023515Y009259D02*
X023283Y009259D01*
X023409Y009417D02*
X023515Y009417D01*
X023193Y010080D02*
X023293Y010180D01*
X023293Y010488D01*
X024065Y011261D01*
X021984Y009734D02*
X021926Y009734D01*
X021627Y009734D02*
X021590Y009734D01*
X021590Y009893D02*
X021627Y009893D01*
X021627Y010051D02*
X021590Y010051D01*
X021590Y010210D02*
X021627Y010210D01*
X021627Y010368D02*
X021590Y010368D01*
X021290Y009734D02*
X020803Y009734D01*
X020624Y009259D02*
X020472Y009259D01*
X019772Y008466D02*
X019514Y008466D01*
X019553Y008308D02*
X019733Y008308D01*
X019733Y008149D02*
X019553Y008149D01*
X019553Y007991D02*
X019733Y007991D01*
X019733Y007832D02*
X019553Y007832D01*
X019553Y007674D02*
X019733Y007674D01*
X019763Y007515D02*
X019522Y007515D01*
X026416Y011478D02*
X026646Y011478D01*
X026646Y011319D02*
X026593Y011319D01*
X027503Y012429D02*
X031705Y012429D01*
X031546Y012587D02*
X027503Y012587D01*
X027503Y012746D02*
X031453Y012746D01*
X031453Y012904D02*
X027503Y012904D01*
X027503Y013063D02*
X031453Y013063D01*
X031453Y013221D02*
X027503Y013221D01*
X028277Y012270D02*
X031863Y012270D01*
X030263Y010814D02*
X030263Y009169D01*
X030259Y009167D01*
X030009Y008917D01*
X029931Y008839D01*
X029888Y008736D01*
X029888Y008622D01*
X029882Y008620D01*
X029870Y008608D01*
X029846Y008666D01*
X029779Y008733D01*
X029483Y009029D01*
X029483Y009451D01*
X029502Y009418D01*
X029536Y009385D01*
X029577Y009361D01*
X029622Y009349D01*
X029824Y009349D01*
X029824Y009727D01*
X029861Y009727D01*
X029861Y009349D01*
X030063Y009349D01*
X030109Y009361D01*
X030150Y009385D01*
X030184Y009418D01*
X030207Y009459D01*
X030220Y009505D01*
X030220Y009727D01*
X029861Y009727D01*
X029861Y009764D01*
X030220Y009764D01*
X030220Y009986D01*
X030207Y010031D01*
X030184Y010072D01*
X030162Y010094D01*
X030200Y010132D01*
X030200Y010697D01*
X030106Y010791D01*
X030077Y010791D01*
X030077Y010904D01*
X030093Y010920D01*
X030145Y010868D01*
X030209Y010868D01*
X030263Y010814D01*
X030233Y010844D02*
X030077Y010844D01*
X030200Y010685D02*
X030263Y010685D01*
X030263Y010527D02*
X030200Y010527D01*
X030200Y010368D02*
X030263Y010368D01*
X030263Y010210D02*
X030200Y010210D01*
X030196Y010051D02*
X030263Y010051D01*
X030263Y009893D02*
X030220Y009893D01*
X030263Y009734D02*
X029861Y009734D01*
X029861Y009576D02*
X029824Y009576D01*
X029824Y009417D02*
X029861Y009417D01*
X030183Y009417D02*
X030263Y009417D01*
X030263Y009259D02*
X029483Y009259D01*
X029483Y009417D02*
X029503Y009417D01*
X029483Y009100D02*
X030192Y009100D01*
X030033Y008942D02*
X029571Y008942D01*
X029729Y008783D02*
X029908Y008783D01*
X029888Y008625D02*
X029864Y008625D01*
X029243Y008930D02*
X029243Y010230D01*
X029433Y010421D01*
X029837Y010421D01*
X029843Y010415D01*
X029837Y010421D02*
X029837Y011166D01*
X029539Y011161D02*
X028809Y011161D01*
X028823Y011002D02*
X029539Y011002D01*
X029597Y010844D02*
X028823Y010844D01*
X028823Y010685D02*
X029486Y010685D01*
X029200Y010527D02*
X028823Y010527D01*
X028823Y010368D02*
X029042Y010368D01*
X029003Y010210D02*
X028823Y010210D01*
X028747Y011319D02*
X029539Y011319D01*
X030220Y009576D02*
X030263Y009576D01*
X030520Y007357D02*
X030648Y007357D01*
X038134Y016550D02*
X038919Y016550D01*
X038919Y016708D02*
X038134Y016708D01*
X037792Y016867D02*
X038919Y016867D01*
X038919Y017025D02*
X037669Y017025D01*
X037545Y017184D02*
X038919Y017184D01*
X037477Y017342D02*
X037421Y017342D01*
X042253Y015440D02*
X042305Y015440D01*
X042091Y024475D02*
X041995Y024475D01*
X041995Y024633D02*
X042091Y024633D01*
X042091Y024792D02*
X041995Y024792D01*
X041995Y024950D02*
X042091Y024950D01*
X042091Y025109D02*
X041995Y025109D01*
X041995Y025267D02*
X042091Y025267D01*
X034766Y030339D02*
X034433Y030339D01*
X034534Y030181D02*
X034594Y030181D01*
X007493Y008308D02*
X005675Y008308D01*
X006026Y008149D02*
X007493Y008149D01*
X007538Y007991D02*
X006197Y007991D01*
D11*
X030673Y022930D02*
X031413Y022930D01*
X031413Y023930D02*
X030673Y023930D01*
D12*
X037443Y021114D03*
X037443Y019146D03*
D13*
X037443Y020130D03*
D14*
X027343Y021930D02*
X026743Y021930D01*
X026743Y023030D02*
X027343Y023030D01*
X020193Y014230D02*
X020193Y013630D01*
X019093Y013630D02*
X019093Y014230D01*
X019093Y012230D02*
X019093Y011630D01*
X020193Y011630D02*
X020193Y012230D01*
X020193Y010230D02*
X020193Y009630D01*
X019093Y009630D02*
X019093Y010230D01*
X019093Y008280D02*
X019093Y007680D01*
X020193Y007680D02*
X020193Y008280D01*
X027043Y008230D02*
X027043Y007630D01*
X028143Y007630D02*
X028143Y008230D01*
X029043Y008230D02*
X029043Y007630D01*
X030143Y007630D02*
X030143Y008230D01*
X031043Y008230D02*
X031043Y007630D01*
X032143Y007630D02*
X032143Y008230D01*
X034043Y008280D02*
X034043Y007680D01*
X035043Y007580D02*
X035043Y008180D01*
X036043Y008280D02*
X036043Y007680D01*
X037043Y007680D02*
X037043Y008280D01*
X038043Y008180D02*
X038043Y007580D01*
X039043Y007680D02*
X039043Y008280D01*
X040043Y008280D02*
X040043Y007680D01*
X041043Y007580D02*
X041043Y008180D01*
X042043Y008280D02*
X042043Y007680D01*
D15*
X034733Y017828D03*
X034733Y018143D03*
X034733Y018458D03*
X034733Y018773D03*
X034733Y019087D03*
X034733Y019402D03*
X034733Y019717D03*
X034733Y020032D03*
X031353Y020032D03*
X031353Y019717D03*
X031353Y019402D03*
X031353Y019087D03*
X031353Y018773D03*
X031353Y018458D03*
X031353Y018143D03*
X031353Y017828D03*
D16*
X031941Y017240D03*
X032256Y017240D03*
X032570Y017240D03*
X032885Y017240D03*
X033200Y017240D03*
X033515Y017240D03*
X033830Y017240D03*
X034145Y017240D03*
X034145Y020620D03*
X033830Y020620D03*
X033515Y020620D03*
X033200Y020620D03*
X032885Y020620D03*
X032570Y020620D03*
X032256Y020620D03*
X031941Y020620D03*
D17*
X037069Y017780D03*
X037817Y017780D03*
D18*
X028943Y018556D03*
X028943Y019304D03*
X028943Y020256D03*
X028943Y021004D03*
D19*
X039592Y028230D03*
X040694Y028230D03*
D20*
X008043Y027480D03*
X008043Y022980D03*
X008043Y018480D03*
X008043Y013230D03*
X008043Y008480D03*
X008043Y031980D03*
D21*
X008043Y032980D03*
X009043Y032880D03*
X009043Y031880D03*
X010043Y031980D03*
X010043Y032980D03*
X011043Y032880D03*
X011043Y031880D03*
X012043Y031980D03*
X012043Y032980D03*
X010043Y035930D03*
X010043Y036930D03*
X009043Y036830D03*
X009043Y035830D03*
X008043Y035930D03*
X008043Y036930D03*
X008043Y028480D03*
X009043Y028380D03*
X009043Y027380D03*
X010043Y027480D03*
X011043Y027380D03*
X011043Y028380D03*
X012043Y028480D03*
X012043Y027480D03*
X010043Y028480D03*
X010043Y023980D03*
X010043Y022980D03*
X011043Y022880D03*
X012043Y022980D03*
X012043Y023980D03*
X011043Y023880D03*
X009043Y023880D03*
X008043Y023980D03*
X009043Y022880D03*
X009043Y019380D03*
X009043Y018380D03*
X010043Y018480D03*
X010043Y019480D03*
X011043Y019380D03*
X011043Y018380D03*
X012043Y018480D03*
X012043Y019480D03*
X008043Y019480D03*
X008043Y014230D03*
X009043Y014130D03*
X010043Y014230D03*
X010043Y013230D03*
X011043Y013130D03*
X012043Y013230D03*
X012043Y014230D03*
X011043Y014130D03*
X009043Y013130D03*
X009043Y009380D03*
X010043Y009480D03*
X011043Y009380D03*
X012043Y009480D03*
X012043Y008480D03*
X011043Y008380D03*
X010043Y008480D03*
X009043Y008380D03*
X008043Y009480D03*
X023965Y010292D03*
X024065Y011261D03*
X025065Y011261D03*
X024965Y010292D03*
X025065Y009292D03*
X024065Y009292D03*
X023965Y012261D03*
X024965Y012261D03*
X025065Y013229D03*
X024065Y013229D03*
X023965Y014229D03*
X024065Y015198D03*
X025065Y015198D03*
X024965Y014229D03*
X024965Y016198D03*
X025065Y017166D03*
X024065Y017166D03*
X023965Y016198D03*
X023965Y018166D03*
X024965Y018166D03*
X025065Y019135D03*
X024065Y019135D03*
X023965Y020135D03*
X024065Y021103D03*
X025065Y021103D03*
X024965Y020135D03*
X024965Y022103D03*
X025065Y023072D03*
X024065Y023072D03*
X023965Y022103D03*
X023965Y024072D03*
X024065Y025040D03*
X025065Y025040D03*
X024965Y024072D03*
X024965Y026040D03*
X025065Y027009D03*
X024065Y027009D03*
X023965Y026040D03*
X023965Y028009D03*
X024965Y028009D03*
D22*
X032043Y029980D03*
X033043Y029880D03*
X034043Y029980D03*
X035043Y029880D03*
X036043Y029980D03*
X037043Y029880D03*
X042043Y028705D03*
X042043Y026705D03*
D23*
X041793Y010230D03*
X005543Y010930D03*
X005423Y028347D03*
D24*
X041918Y031055D03*
X042043Y022930D03*
X042043Y017930D03*
X042043Y012930D03*
D25*
X042043Y014899D03*
X042043Y019899D03*
X042043Y024899D03*
X039949Y031055D03*
D26*
X039249Y027304D03*
X039249Y026556D03*
X040076Y026930D03*
D27*
X040007Y022986D03*
X040007Y022474D03*
X039279Y022730D03*
X040007Y017986D03*
X040007Y017474D03*
X039279Y017730D03*
X040007Y012986D03*
X040007Y012474D03*
X039279Y012730D03*
X032249Y011166D03*
X031737Y011166D03*
X031993Y011894D03*
X030349Y011166D03*
X029837Y011166D03*
X030093Y011894D03*
X028449Y011166D03*
X027937Y011166D03*
X028193Y011894D03*
D28*
X029219Y015536D03*
X029967Y015536D03*
X029593Y016363D03*
D29*
X029308Y017180D03*
X029978Y017180D03*
X029978Y014780D03*
X029308Y014780D03*
X029308Y013880D03*
X029978Y013880D03*
X037108Y014030D03*
X037778Y014030D03*
X037778Y015230D03*
X037108Y015230D03*
X037108Y012880D03*
X037778Y012880D03*
X022278Y012080D03*
X021608Y012080D03*
X021608Y010080D03*
X022278Y010080D03*
X022278Y008080D03*
X021608Y008080D03*
X021608Y014080D03*
X022278Y014080D03*
X037758Y026430D03*
X038428Y026430D03*
X038428Y027380D03*
X037758Y027380D03*
X040958Y026930D03*
X041628Y026930D03*
D30*
X037778Y016430D03*
X037108Y016430D03*
X031743Y010365D03*
X031743Y009695D03*
X029843Y009745D03*
X029843Y010415D03*
X027893Y010415D03*
X027893Y009745D03*
D31*
X028043Y015620D02*
X028043Y016140D01*
X027043Y016140D02*
X027043Y015620D01*
D32*
X022293Y023620D03*
X021793Y023620D03*
X021293Y023620D03*
X020793Y023620D03*
X020293Y023620D03*
X019793Y023620D03*
X019293Y023620D03*
X018793Y023620D03*
X018793Y026040D03*
X019293Y026040D03*
X019793Y026040D03*
X020293Y026040D03*
X020793Y026040D03*
X021293Y026040D03*
X021793Y026040D03*
X022293Y026040D03*
X020918Y027970D03*
X020418Y027970D03*
X019918Y027970D03*
X019418Y027970D03*
X018918Y027970D03*
X018418Y027970D03*
X017918Y027970D03*
X017418Y027970D03*
X017418Y030390D03*
X017918Y030390D03*
X018418Y030390D03*
X018918Y030390D03*
X019418Y030390D03*
X019918Y030390D03*
X020418Y030390D03*
X020918Y030390D03*
D33*
X021043Y032930D03*
X021043Y033930D03*
X020043Y033930D03*
X020043Y032930D03*
X019043Y032930D03*
X019043Y033930D03*
X018043Y033930D03*
X018043Y032930D03*
X017043Y032930D03*
X017043Y033930D03*
X016043Y033930D03*
X016043Y032930D03*
X015043Y032930D03*
X015043Y033930D03*
X014043Y033930D03*
X014043Y032930D03*
X014043Y035930D03*
X015043Y035930D03*
X016043Y035930D03*
X017043Y035930D03*
X018043Y035930D03*
X019043Y035930D03*
X020043Y035930D03*
X021043Y035930D03*
X021043Y036930D03*
X020043Y036930D03*
X019043Y036930D03*
X018043Y036930D03*
X017043Y036930D03*
X016043Y036930D03*
X015043Y036930D03*
X014043Y036930D03*
D34*
X004870Y030143D02*
X004872Y030190D01*
X004878Y030236D01*
X004888Y030282D01*
X004901Y030327D01*
X004919Y030370D01*
X004940Y030412D01*
X004964Y030452D01*
X004992Y030489D01*
X005023Y030524D01*
X005057Y030557D01*
X005093Y030586D01*
X005132Y030612D01*
X005173Y030635D01*
X005216Y030654D01*
X005260Y030670D01*
X005305Y030682D01*
X005351Y030690D01*
X005398Y030694D01*
X005444Y030694D01*
X005491Y030690D01*
X005537Y030682D01*
X005582Y030670D01*
X005626Y030654D01*
X005669Y030635D01*
X005710Y030612D01*
X005749Y030586D01*
X005785Y030557D01*
X005819Y030524D01*
X005850Y030489D01*
X005878Y030452D01*
X005902Y030412D01*
X005923Y030370D01*
X005941Y030327D01*
X005954Y030282D01*
X005964Y030236D01*
X005970Y030190D01*
X005972Y030143D01*
X005970Y030096D01*
X005964Y030050D01*
X005954Y030004D01*
X005941Y029959D01*
X005923Y029916D01*
X005902Y029874D01*
X005878Y029834D01*
X005850Y029797D01*
X005819Y029762D01*
X005785Y029729D01*
X005749Y029700D01*
X005710Y029674D01*
X005669Y029651D01*
X005626Y029632D01*
X005582Y029616D01*
X005537Y029604D01*
X005491Y029596D01*
X005444Y029592D01*
X005398Y029592D01*
X005351Y029596D01*
X005305Y029604D01*
X005260Y029616D01*
X005216Y029632D01*
X005173Y029651D01*
X005132Y029674D01*
X005093Y029700D01*
X005057Y029729D01*
X005023Y029762D01*
X004992Y029797D01*
X004964Y029834D01*
X004940Y029874D01*
X004919Y029916D01*
X004901Y029959D01*
X004888Y030004D01*
X004878Y030050D01*
X004872Y030096D01*
X004870Y030143D01*
X024161Y030143D02*
X024163Y030190D01*
X024169Y030236D01*
X024179Y030282D01*
X024192Y030327D01*
X024210Y030370D01*
X024231Y030412D01*
X024255Y030452D01*
X024283Y030489D01*
X024314Y030524D01*
X024348Y030557D01*
X024384Y030586D01*
X024423Y030612D01*
X024464Y030635D01*
X024507Y030654D01*
X024551Y030670D01*
X024596Y030682D01*
X024642Y030690D01*
X024689Y030694D01*
X024735Y030694D01*
X024782Y030690D01*
X024828Y030682D01*
X024873Y030670D01*
X024917Y030654D01*
X024960Y030635D01*
X025001Y030612D01*
X025040Y030586D01*
X025076Y030557D01*
X025110Y030524D01*
X025141Y030489D01*
X025169Y030452D01*
X025193Y030412D01*
X025214Y030370D01*
X025232Y030327D01*
X025245Y030282D01*
X025255Y030236D01*
X025261Y030190D01*
X025263Y030143D01*
X025261Y030096D01*
X025255Y030050D01*
X025245Y030004D01*
X025232Y029959D01*
X025214Y029916D01*
X025193Y029874D01*
X025169Y029834D01*
X025141Y029797D01*
X025110Y029762D01*
X025076Y029729D01*
X025040Y029700D01*
X025001Y029674D01*
X024960Y029651D01*
X024917Y029632D01*
X024873Y029616D01*
X024828Y029604D01*
X024782Y029596D01*
X024735Y029592D01*
X024689Y029592D01*
X024642Y029596D01*
X024596Y029604D01*
X024551Y029616D01*
X024507Y029632D01*
X024464Y029651D01*
X024423Y029674D01*
X024384Y029700D01*
X024348Y029729D01*
X024314Y029762D01*
X024283Y029797D01*
X024255Y029834D01*
X024231Y029874D01*
X024210Y029916D01*
X024192Y029959D01*
X024179Y030004D01*
X024169Y030050D01*
X024163Y030096D01*
X024161Y030143D01*
X024161Y007308D02*
X024163Y007355D01*
X024169Y007401D01*
X024179Y007447D01*
X024192Y007492D01*
X024210Y007535D01*
X024231Y007577D01*
X024255Y007617D01*
X024283Y007654D01*
X024314Y007689D01*
X024348Y007722D01*
X024384Y007751D01*
X024423Y007777D01*
X024464Y007800D01*
X024507Y007819D01*
X024551Y007835D01*
X024596Y007847D01*
X024642Y007855D01*
X024689Y007859D01*
X024735Y007859D01*
X024782Y007855D01*
X024828Y007847D01*
X024873Y007835D01*
X024917Y007819D01*
X024960Y007800D01*
X025001Y007777D01*
X025040Y007751D01*
X025076Y007722D01*
X025110Y007689D01*
X025141Y007654D01*
X025169Y007617D01*
X025193Y007577D01*
X025214Y007535D01*
X025232Y007492D01*
X025245Y007447D01*
X025255Y007401D01*
X025261Y007355D01*
X025263Y007308D01*
X025261Y007261D01*
X025255Y007215D01*
X025245Y007169D01*
X025232Y007124D01*
X025214Y007081D01*
X025193Y007039D01*
X025169Y006999D01*
X025141Y006962D01*
X025110Y006927D01*
X025076Y006894D01*
X025040Y006865D01*
X025001Y006839D01*
X024960Y006816D01*
X024917Y006797D01*
X024873Y006781D01*
X024828Y006769D01*
X024782Y006761D01*
X024735Y006757D01*
X024689Y006757D01*
X024642Y006761D01*
X024596Y006769D01*
X024551Y006781D01*
X024507Y006797D01*
X024464Y006816D01*
X024423Y006839D01*
X024384Y006865D01*
X024348Y006894D01*
X024314Y006927D01*
X024283Y006962D01*
X024255Y006999D01*
X024231Y007039D01*
X024210Y007081D01*
X024192Y007124D01*
X024179Y007169D01*
X024169Y007215D01*
X024163Y007261D01*
X024161Y007308D01*
X004870Y007308D02*
X004872Y007355D01*
X004878Y007401D01*
X004888Y007447D01*
X004901Y007492D01*
X004919Y007535D01*
X004940Y007577D01*
X004964Y007617D01*
X004992Y007654D01*
X005023Y007689D01*
X005057Y007722D01*
X005093Y007751D01*
X005132Y007777D01*
X005173Y007800D01*
X005216Y007819D01*
X005260Y007835D01*
X005305Y007847D01*
X005351Y007855D01*
X005398Y007859D01*
X005444Y007859D01*
X005491Y007855D01*
X005537Y007847D01*
X005582Y007835D01*
X005626Y007819D01*
X005669Y007800D01*
X005710Y007777D01*
X005749Y007751D01*
X005785Y007722D01*
X005819Y007689D01*
X005850Y007654D01*
X005878Y007617D01*
X005902Y007577D01*
X005923Y007535D01*
X005941Y007492D01*
X005954Y007447D01*
X005964Y007401D01*
X005970Y007355D01*
X005972Y007308D01*
X005970Y007261D01*
X005964Y007215D01*
X005954Y007169D01*
X005941Y007124D01*
X005923Y007081D01*
X005902Y007039D01*
X005878Y006999D01*
X005850Y006962D01*
X005819Y006927D01*
X005785Y006894D01*
X005749Y006865D01*
X005710Y006839D01*
X005669Y006816D01*
X005626Y006797D01*
X005582Y006781D01*
X005537Y006769D01*
X005491Y006761D01*
X005444Y006757D01*
X005398Y006757D01*
X005351Y006761D01*
X005305Y006769D01*
X005260Y006781D01*
X005216Y006797D01*
X005173Y006816D01*
X005132Y006839D01*
X005093Y006865D01*
X005057Y006894D01*
X005023Y006927D01*
X004992Y006962D01*
X004964Y006999D01*
X004940Y007039D01*
X004919Y007081D01*
X004901Y007124D01*
X004888Y007169D01*
X004878Y007215D01*
X004872Y007261D01*
X004870Y007308D01*
D35*
X027006Y010719D03*
X033306Y010719D03*
X033306Y024893D03*
X027006Y024893D03*
D36*
X026143Y024230D03*
X028543Y023680D03*
X028293Y022180D03*
X029918Y021805D03*
X029918Y020680D03*
X030918Y020805D03*
X031418Y021930D03*
X031793Y022305D03*
X032293Y022180D03*
X032668Y021805D03*
X033243Y021305D03*
X033668Y022055D03*
X034643Y021430D03*
X034643Y020830D03*
X033668Y018680D03*
X033093Y018205D03*
X032618Y017830D03*
X031418Y017180D03*
X030156Y018143D03*
X033443Y016430D03*
X034343Y016130D03*
X035143Y015830D03*
X036043Y016830D03*
X035543Y017230D03*
X035443Y017830D03*
X035423Y018340D03*
X037383Y018510D03*
X040043Y016930D03*
X038643Y015230D03*
X038643Y014030D03*
X040293Y013680D03*
X038543Y012680D03*
X040043Y011180D03*
X036543Y012930D03*
X036668Y014680D03*
X035793Y011180D03*
X031673Y009080D03*
X029823Y009130D03*
X028023Y009160D03*
X025918Y008680D03*
X023418Y006680D03*
X017543Y009930D03*
X015543Y011430D03*
X015043Y012130D03*
X014343Y010780D03*
X013793Y009305D03*
X011593Y010280D03*
X009418Y010930D03*
X009793Y012180D03*
X007293Y011930D03*
X006918Y011555D03*
X006543Y010930D03*
X006543Y015055D03*
X006918Y015555D03*
X009043Y016430D03*
X007293Y017430D03*
X006543Y020430D03*
X006918Y021180D03*
X007293Y021680D03*
X007693Y024580D03*
X006918Y025430D03*
X006543Y024955D03*
X007293Y026180D03*
X008043Y026680D03*
X009918Y025805D03*
X011643Y024680D03*
X012043Y025130D03*
X013293Y023680D03*
X015043Y021930D03*
X015543Y021430D03*
X014343Y020930D03*
X011843Y020330D03*
X015043Y017530D03*
X015543Y016930D03*
X014343Y016430D03*
X011918Y015805D03*
X011793Y014930D03*
X013543Y013430D03*
X017043Y013430D03*
X017793Y019430D03*
X021373Y022040D03*
X019743Y022630D03*
X019053Y024290D03*
X019673Y024640D03*
X019493Y025370D03*
X020053Y025360D03*
X020903Y024990D03*
X021323Y024510D03*
X023243Y025330D03*
X020673Y027320D03*
X021443Y028255D03*
X022293Y028180D03*
X023043Y030180D03*
X021893Y030605D03*
X018793Y032180D03*
X016543Y031430D03*
X015543Y029430D03*
X014343Y029430D03*
X013043Y029930D03*
X012043Y030430D03*
X010043Y029930D03*
X010043Y030930D03*
X012643Y032430D03*
X013543Y032430D03*
X013043Y034430D03*
X012918Y035305D03*
X011543Y035680D03*
X011043Y034430D03*
X010043Y034430D03*
X006543Y033055D03*
X005293Y034430D03*
X005168Y036180D03*
X005918Y036805D03*
X007293Y030930D03*
X006918Y030180D03*
X006543Y029680D03*
X005043Y026930D03*
X013293Y028430D03*
X015043Y026630D03*
X015543Y026130D03*
X016043Y025680D03*
X016543Y025180D03*
X017418Y024870D03*
X016343Y024230D03*
X014343Y025630D03*
X016763Y027310D03*
X019303Y027320D03*
X018883Y025360D03*
X023343Y019230D03*
X026143Y017830D03*
X027043Y019930D03*
X031693Y015180D03*
X028168Y013555D03*
X026043Y014055D03*
X032418Y023930D03*
X032043Y025055D03*
X029168Y025555D03*
X027543Y027930D03*
X024793Y035180D03*
X024918Y036680D03*
X021943Y035730D03*
X037793Y028180D03*
X041628Y027545D03*
X039993Y021780D03*
D37*
X020053Y025360D02*
X020043Y027970D01*
X019663Y028530D02*
X019663Y026730D01*
X019543Y026630D01*
X019543Y025530D01*
D38*
X022043Y029430D02*
X015543Y029430D01*
X015243Y028905D02*
X014643Y029430D01*
X014343Y029430D01*
X014043Y029730D01*
X014043Y032930D01*
X015043Y032930D01*
X016043Y032930D01*
X014043Y032930D02*
X013543Y033430D01*
X012668Y033430D01*
X012168Y033930D01*
X011543Y033930D01*
X011043Y033430D01*
X011043Y032880D01*
X011043Y031880D02*
X011043Y029930D01*
X013043Y029930D01*
X014343Y029430D02*
X011043Y029430D01*
X011043Y028380D01*
X011043Y027380D02*
X011043Y026630D01*
X015043Y026630D01*
X014343Y025630D02*
X011043Y025630D01*
X011043Y023880D01*
X011043Y022880D02*
X011043Y021930D01*
X015043Y021930D01*
X014343Y020930D02*
X011043Y020930D01*
X011043Y019380D01*
X011043Y018380D02*
X011043Y017530D01*
X015043Y017530D01*
X014343Y016430D02*
X011043Y016430D01*
X011043Y014130D01*
X011043Y013130D02*
X011043Y012130D01*
X015043Y012130D01*
X014343Y010780D02*
X011043Y010780D01*
X011043Y009380D01*
X026143Y016780D02*
X027043Y015880D01*
X027143Y015780D01*
X027143Y011930D01*
X028157Y011930D01*
X028193Y011894D01*
X030093Y011894D01*
X031993Y011894D01*
X027143Y011930D02*
X027006Y011793D01*
X027006Y010719D01*
X026143Y016780D02*
X026143Y017830D01*
X026143Y024230D02*
X029343Y024180D01*
X030143Y023930D01*
X031043Y023930D01*
X027006Y024893D02*
X027006Y025967D01*
X025918Y027180D01*
X025918Y031055D01*
X025543Y031430D01*
X022918Y031430D01*
X022793Y031305D01*
X022793Y030805D01*
X022043Y030055D01*
X022043Y029430D01*
X025043Y028905D02*
X025043Y028009D01*
X024965Y028009D01*
X025043Y027930D02*
X025065Y027908D01*
X025065Y027009D01*
X026143Y025931D01*
X026143Y024230D01*
X025043Y028905D02*
X015243Y028905D01*
X012168Y033930D02*
X012168Y035930D01*
X014043Y035930D01*
X015043Y035930D01*
X016043Y035930D01*
X038428Y027380D02*
X039173Y027380D01*
X039249Y027304D01*
X039249Y026556D02*
X039123Y026430D01*
X038428Y026430D01*
X040076Y026930D02*
X040958Y026930D01*
X041628Y026930D02*
X041618Y026430D01*
X039293Y024280D01*
X039293Y022744D01*
X039279Y022730D01*
X039279Y017730D01*
X039279Y012730D01*
X040007Y012986D02*
X042043Y012986D01*
X042043Y012930D01*
X042043Y017930D02*
X042043Y017986D01*
X040007Y017986D01*
X042043Y022930D02*
X042043Y022986D01*
X040007Y022986D01*
X042043Y026705D02*
X041735Y027438D01*
X041628Y027545D01*
X040943Y028230D01*
X040694Y028230D01*
X041628Y027330D02*
X041735Y027438D01*
X041628Y027330D02*
X041628Y026930D01*
X042043Y028705D02*
X041918Y031055D01*
D39*
X035143Y028880D02*
X034043Y029980D01*
X035143Y028880D02*
X035143Y022930D01*
X031043Y022930D01*
X030418Y021180D01*
X030361Y021180D01*
X030361Y020212D01*
X030883Y019720D01*
X031380Y019720D01*
X031353Y019717D01*
X033956Y019717D01*
X034043Y019630D01*
X034043Y018930D01*
X034200Y018773D01*
X034733Y018773D01*
X035800Y018773D01*
X036043Y018530D01*
X036043Y016830D01*
X036543Y016430D01*
X037108Y016430D01*
X037778Y016430D02*
X037069Y017339D01*
X037069Y017780D01*
X034733Y019402D02*
X034270Y019402D01*
X034043Y019630D01*
X031353Y019087D02*
X030585Y019087D01*
X030343Y019330D01*
X028969Y019330D01*
X028943Y019304D01*
X028943Y021004D02*
X028817Y021130D01*
X025743Y021130D01*
X025743Y020630D01*
X025248Y020135D01*
X024965Y020135D01*
X023965Y020135D01*
X023343Y019512D01*
X023343Y019230D01*
X023738Y020135D02*
X023965Y020135D01*
X028943Y021004D02*
X028943Y021180D01*
X030361Y021180D01*
X030349Y011166D02*
X030349Y011124D01*
X030543Y010930D01*
X030543Y008930D01*
X030418Y008930D01*
X030168Y008680D01*
X030168Y007955D01*
X030143Y007930D01*
X028543Y008930D02*
X028143Y008530D01*
X028143Y007930D01*
X028543Y008930D02*
X028543Y011072D01*
X028449Y011166D01*
X032249Y011166D02*
X032307Y011166D01*
X032543Y010930D01*
X032543Y009305D01*
X032168Y008930D01*
X032168Y007955D01*
X032143Y007930D01*
X035043Y007880D02*
X035043Y007430D01*
X035543Y006930D01*
X038043Y006930D01*
X038043Y007880D01*
X038043Y006930D02*
X040543Y006930D01*
X041043Y007430D01*
X041043Y007880D01*
X019093Y007980D02*
X019093Y009930D01*
X019043Y009980D01*
X019043Y011430D01*
X019043Y011880D01*
X019093Y011930D01*
X019093Y013930D01*
X019043Y011430D02*
X015543Y011430D01*
X011043Y011430D01*
X010543Y011930D01*
X010543Y012430D01*
X010043Y012930D01*
X010043Y013230D01*
X010943Y016930D02*
X010543Y017430D01*
X010543Y017980D01*
X010043Y018480D01*
X010943Y016930D02*
X015543Y016930D01*
X015543Y021430D02*
X010543Y021430D01*
X010543Y022480D01*
X010043Y022980D01*
X010843Y026130D02*
X010543Y026430D01*
X010543Y026980D01*
X010043Y027480D01*
X010843Y026130D02*
X015543Y026130D01*
X010043Y030930D02*
X010043Y031980D01*
M02*
