G75*
G70*
%OFA0B0*%
%FSLAX24Y24*%
%IPPOS*%
%LPD*%
%AMOC8*
5,1,8,0,0,1.08239X$1,22.5*
%
%ADD10C,0.0520*%
%ADD11OC8,0.0520*%
%ADD12OC8,0.0560*%
%ADD13C,0.0600*%
%ADD14C,0.0520*%
%ADD15C,0.0660*%
%ADD16R,0.0594X0.0594*%
%ADD17C,0.0594*%
%ADD18OC8,0.0630*%
%ADD19C,0.0630*%
%ADD20C,0.0886*%
%ADD21C,0.1660*%
%ADD22C,0.0825*%
%ADD23C,0.0250*%
%ADD24C,0.0400*%
%ADD25C,0.0160*%
D10*
X007185Y011429D02*
X007185Y011949D01*
X008185Y011949D02*
X008185Y011429D01*
X009185Y011429D02*
X009185Y011949D01*
X010185Y011949D02*
X010185Y011429D01*
X011185Y011429D02*
X011185Y011949D01*
X012185Y011949D02*
X012185Y011429D01*
X013185Y011429D02*
X013185Y011949D01*
X014185Y011949D02*
X014185Y011429D01*
X015185Y011429D02*
X015185Y011949D01*
X016185Y011949D02*
X016185Y011429D01*
X017185Y011429D02*
X017185Y011949D01*
X018185Y011949D02*
X018185Y011429D01*
X019185Y011429D02*
X019185Y011949D01*
X020185Y011949D02*
X020185Y011429D01*
X021185Y011429D02*
X021185Y011949D01*
X022185Y011949D02*
X022185Y011429D01*
X023185Y011429D02*
X023185Y011949D01*
X024185Y011949D02*
X024185Y011429D01*
X025185Y011429D02*
X025185Y011949D01*
X026185Y011949D02*
X026185Y011429D01*
X026185Y017429D02*
X026185Y017949D01*
X025185Y017949D02*
X025185Y017429D01*
X024185Y017429D02*
X024185Y017949D01*
X023185Y017949D02*
X023185Y017429D01*
X022185Y017429D02*
X022185Y017949D01*
X021185Y017949D02*
X021185Y017429D01*
X020185Y017429D02*
X020185Y017949D01*
X019185Y017949D02*
X019185Y017429D01*
X018185Y017429D02*
X018185Y017949D01*
X017185Y017949D02*
X017185Y017429D01*
X016185Y017429D02*
X016185Y017949D01*
X015185Y017949D02*
X015185Y017429D01*
X014185Y017429D02*
X014185Y017949D01*
X013185Y017949D02*
X013185Y017429D01*
X012185Y017429D02*
X012185Y017949D01*
X011185Y017949D02*
X011185Y017429D01*
X010185Y017429D02*
X010185Y017949D01*
X009185Y017949D02*
X009185Y017429D01*
X008185Y017429D02*
X008185Y017949D01*
X007185Y017949D02*
X007185Y017429D01*
D11*
X004735Y018139D03*
X002735Y018139D03*
X001585Y011389D03*
X002835Y010789D03*
X003835Y010789D03*
X004985Y010789D03*
X005985Y010789D03*
X006185Y009639D03*
X005185Y009639D03*
X003585Y009639D03*
X002585Y009639D03*
X001585Y009389D03*
X027985Y009939D03*
X028985Y009939D03*
X033735Y014939D03*
X036735Y014939D03*
X038185Y014439D03*
X038185Y012439D03*
X038185Y011489D03*
X038185Y009489D03*
X028885Y016439D03*
X027885Y016439D03*
D12*
X030985Y015339D03*
X031985Y015339D03*
X031985Y014339D03*
X030985Y014339D03*
X030985Y013339D03*
X031985Y013339D03*
X031985Y012339D03*
X030985Y012339D03*
X030985Y011339D03*
X031985Y011339D03*
X004685Y013389D03*
X003685Y013389D03*
X003685Y014389D03*
X004685Y014389D03*
X004685Y015389D03*
X003685Y015389D03*
D13*
X001835Y014939D02*
X001235Y014939D01*
X001235Y013939D02*
X001835Y013939D01*
X001835Y012939D02*
X001235Y012939D01*
X001235Y015939D02*
X001835Y015939D01*
X001835Y016939D02*
X001235Y016939D01*
X001235Y017939D02*
X001835Y017939D01*
X005585Y018039D02*
X006185Y018039D01*
X006185Y019039D02*
X005585Y019039D01*
X007185Y019389D02*
X007185Y019989D01*
X007185Y020389D02*
X007185Y020989D01*
X007185Y021389D02*
X007185Y021989D01*
X008185Y021989D02*
X008185Y021389D01*
X008185Y020989D02*
X008185Y020389D01*
X008185Y019989D02*
X008185Y019389D01*
X009185Y019389D02*
X009185Y019989D01*
X009185Y020389D02*
X009185Y020989D01*
X009185Y021389D02*
X009185Y021989D01*
X010185Y021989D02*
X010185Y021389D01*
X010185Y020989D02*
X010185Y020389D01*
X010185Y019989D02*
X010185Y019389D01*
X011185Y019389D02*
X011185Y019989D01*
X011185Y020389D02*
X011185Y020989D01*
X011185Y021389D02*
X011185Y021989D01*
X012185Y021989D02*
X012185Y021389D01*
X012185Y020989D02*
X012185Y020389D01*
X012185Y019989D02*
X012185Y019389D01*
X013185Y019389D02*
X013185Y019989D01*
X013185Y020389D02*
X013185Y020989D01*
X013185Y021389D02*
X013185Y021989D01*
X014185Y021989D02*
X014185Y021389D01*
X014185Y020989D02*
X014185Y020389D01*
X014185Y019989D02*
X014185Y019389D01*
X015185Y019389D02*
X015185Y019989D01*
X015185Y020389D02*
X015185Y020989D01*
X015185Y021389D02*
X015185Y021989D01*
X016185Y021989D02*
X016185Y021389D01*
X016185Y020989D02*
X016185Y020389D01*
X016185Y019989D02*
X016185Y019389D01*
X017185Y019389D02*
X017185Y019989D01*
X017185Y020389D02*
X017185Y020989D01*
X017185Y021389D02*
X017185Y021989D01*
X018185Y021989D02*
X018185Y021389D01*
X018185Y020989D02*
X018185Y020389D01*
X018185Y019989D02*
X018185Y019389D01*
X019185Y019389D02*
X019185Y019989D01*
X019185Y020389D02*
X019185Y020989D01*
X019185Y021389D02*
X019185Y021989D01*
X020185Y021989D02*
X020185Y021389D01*
X020185Y020989D02*
X020185Y020389D01*
X020185Y019989D02*
X020185Y019389D01*
X021185Y019389D02*
X021185Y019989D01*
X021185Y020389D02*
X021185Y020989D01*
X021185Y021389D02*
X021185Y021989D01*
X022185Y021989D02*
X022185Y021389D01*
X022185Y020989D02*
X022185Y020389D01*
X022185Y019989D02*
X022185Y019389D01*
X023185Y019389D02*
X023185Y019989D01*
X023185Y020389D02*
X023185Y020989D01*
X023185Y021389D02*
X023185Y021989D01*
X024185Y021989D02*
X024185Y021389D01*
X024185Y020989D02*
X024185Y020389D01*
X024185Y019989D02*
X024185Y019389D01*
X025185Y019389D02*
X025185Y019989D01*
X025185Y020389D02*
X025185Y020989D01*
X025185Y021389D02*
X025185Y021989D01*
X026185Y021989D02*
X026185Y021389D01*
X026185Y020989D02*
X026185Y020389D01*
X026185Y019989D02*
X026185Y019389D01*
X027185Y019389D02*
X027185Y019989D01*
X027185Y020389D02*
X027185Y020989D01*
X027185Y021389D02*
X027185Y021989D01*
X028185Y021989D02*
X028185Y021389D01*
X028185Y020989D02*
X028185Y020389D01*
X028185Y019989D02*
X028185Y019389D01*
X034145Y019269D02*
X034145Y018669D01*
X035925Y018669D02*
X035925Y019269D01*
X035925Y016709D02*
X035925Y016109D01*
X034145Y016109D02*
X034145Y016709D01*
X026185Y009989D02*
X026185Y009389D01*
X026185Y008989D02*
X026185Y008389D01*
X026185Y007989D02*
X026185Y007389D01*
X025185Y007389D02*
X025185Y007989D01*
X025185Y008389D02*
X025185Y008989D01*
X025185Y009389D02*
X025185Y009989D01*
X024185Y009989D02*
X024185Y009389D01*
X024185Y008989D02*
X024185Y008389D01*
X024185Y007989D02*
X024185Y007389D01*
X023185Y007389D02*
X023185Y007989D01*
X023185Y008389D02*
X023185Y008989D01*
X023185Y009389D02*
X023185Y009989D01*
X022185Y009989D02*
X022185Y009389D01*
X022185Y008989D02*
X022185Y008389D01*
X022185Y007989D02*
X022185Y007389D01*
X021185Y007389D02*
X021185Y007989D01*
X021185Y008389D02*
X021185Y008989D01*
X021185Y009389D02*
X021185Y009989D01*
X020185Y009989D02*
X020185Y009389D01*
X020185Y008989D02*
X020185Y008389D01*
X020185Y007989D02*
X020185Y007389D01*
X019185Y007389D02*
X019185Y007989D01*
X019185Y008389D02*
X019185Y008989D01*
X019185Y009389D02*
X019185Y009989D01*
X018185Y009989D02*
X018185Y009389D01*
X018185Y008989D02*
X018185Y008389D01*
X018185Y007989D02*
X018185Y007389D01*
X017185Y007389D02*
X017185Y007989D01*
X017185Y008389D02*
X017185Y008989D01*
X017185Y009389D02*
X017185Y009989D01*
X016185Y009989D02*
X016185Y009389D01*
X016185Y008989D02*
X016185Y008389D01*
X016185Y007989D02*
X016185Y007389D01*
X015185Y007389D02*
X015185Y007989D01*
X015185Y008389D02*
X015185Y008989D01*
X015185Y009389D02*
X015185Y009989D01*
X014185Y009989D02*
X014185Y009389D01*
X014185Y008989D02*
X014185Y008389D01*
X014185Y007989D02*
X014185Y007389D01*
X013185Y007389D02*
X013185Y007989D01*
X013185Y008389D02*
X013185Y008989D01*
X013185Y009389D02*
X013185Y009989D01*
X012185Y009989D02*
X012185Y009389D01*
X012185Y008989D02*
X012185Y008389D01*
X012185Y007989D02*
X012185Y007389D01*
X011185Y007389D02*
X011185Y007989D01*
X011185Y008389D02*
X011185Y008989D01*
X011185Y009389D02*
X011185Y009989D01*
X010185Y009989D02*
X010185Y009389D01*
X010185Y008989D02*
X010185Y008389D01*
X010185Y007989D02*
X010185Y007389D01*
X009185Y007389D02*
X009185Y007989D01*
X009185Y008389D02*
X009185Y008989D01*
X009185Y009389D02*
X009185Y009989D01*
X008185Y009989D02*
X008185Y009389D01*
X008185Y008989D02*
X008185Y008389D01*
X008185Y007989D02*
X008185Y007389D01*
X007185Y007389D02*
X007185Y007989D01*
X007185Y008389D02*
X007185Y008989D01*
X007185Y009389D02*
X007185Y009989D01*
D14*
X028485Y012539D03*
X028485Y014439D03*
D15*
X034335Y013839D03*
X034335Y009839D03*
D16*
X039735Y012689D03*
D17*
X039735Y011689D03*
X039735Y010689D03*
D18*
X036185Y010939D03*
X036185Y013439D03*
D19*
X036185Y012439D03*
X036185Y009939D03*
D20*
X032712Y018320D02*
X032712Y019206D01*
X031141Y019210D02*
X031141Y018324D01*
X029570Y018324D02*
X029570Y019210D01*
D21*
X037342Y017489D03*
X039704Y017489D03*
X038503Y019418D03*
D22*
X038773Y021689D02*
X039598Y021689D01*
X039598Y023689D02*
X038773Y023689D01*
X036185Y026277D02*
X036185Y027102D01*
X034185Y027102D02*
X034185Y026277D01*
X032185Y026277D02*
X032185Y027102D01*
X030185Y027102D02*
X030185Y026277D01*
X028185Y026277D02*
X028185Y027102D01*
X026185Y027102D02*
X026185Y026277D01*
X024185Y026277D02*
X024185Y027102D01*
X022185Y027102D02*
X022185Y026277D01*
X019685Y026277D02*
X019685Y027102D01*
X017685Y027102D02*
X017685Y026277D01*
X015685Y026277D02*
X015685Y027102D01*
X013685Y027102D02*
X013685Y026277D01*
X011685Y026277D02*
X011685Y027102D01*
X009685Y027102D02*
X009685Y026277D01*
X007685Y026277D02*
X007685Y027102D01*
X005685Y027102D02*
X005685Y026277D01*
X002598Y023689D02*
X001773Y023689D01*
X001773Y021689D02*
X002598Y021689D01*
X002598Y007189D02*
X001773Y007189D01*
X001773Y005189D02*
X002598Y005189D01*
X005685Y002602D02*
X005685Y001777D01*
X007685Y001777D02*
X007685Y002602D01*
X009685Y002602D02*
X009685Y001777D01*
X011685Y001777D02*
X011685Y002602D01*
X013685Y002602D02*
X013685Y001777D01*
X015685Y001777D02*
X015685Y002602D01*
X017685Y002602D02*
X017685Y001777D01*
X019685Y001777D02*
X019685Y002602D01*
X022185Y002602D02*
X022185Y001777D01*
X024185Y001777D02*
X024185Y002602D01*
X026185Y002602D02*
X026185Y001777D01*
X028185Y001777D02*
X028185Y002602D01*
X030185Y002602D02*
X030185Y001777D01*
X032185Y001777D02*
X032185Y002602D01*
X034185Y002602D02*
X034185Y001777D01*
X036185Y001777D02*
X036185Y002602D01*
X038773Y005189D02*
X039598Y005189D01*
X039598Y007189D02*
X038773Y007189D01*
D23*
X039185Y007189D02*
X038635Y007589D01*
X038635Y008889D01*
X038285Y009239D01*
X038185Y009489D01*
X037935Y009589D01*
X036735Y009589D01*
X036485Y009839D01*
X036185Y009939D01*
X036185Y010939D02*
X036085Y011239D01*
X035585Y011239D01*
X035585Y012739D01*
X036035Y013189D01*
X036185Y013439D01*
X035885Y013989D02*
X036185Y014289D01*
X036785Y014289D01*
X036985Y014839D02*
X036735Y014939D01*
X036485Y014839D01*
X034435Y014839D01*
X033985Y014389D01*
X032585Y014389D01*
X032585Y015539D01*
X031285Y016839D01*
X031285Y017889D01*
X031141Y018767D01*
X032712Y018763D02*
X033135Y019389D01*
X033635Y019889D01*
X034385Y019889D01*
X034735Y019539D01*
X034735Y016439D01*
X035685Y015489D01*
X037935Y015489D01*
X036985Y014839D02*
X037635Y014189D01*
X037635Y013739D01*
X038185Y014439D02*
X038285Y014689D01*
X039335Y015739D01*
X039335Y016689D01*
X039704Y017489D01*
X039635Y018289D01*
X039635Y021289D01*
X039185Y021689D01*
X038635Y022539D02*
X037410Y021314D01*
X037335Y021389D01*
X028435Y021389D01*
X028185Y021689D01*
X028185Y020689D01*
X028185Y019689D01*
X028785Y019489D02*
X028785Y019139D01*
X028435Y018789D01*
X026885Y018789D01*
X026435Y019239D01*
X026185Y019689D01*
X026185Y020689D01*
X026185Y021689D01*
X027185Y021689D02*
X027185Y020689D01*
X027185Y019689D01*
X026385Y018539D02*
X023185Y018539D01*
X023185Y019689D01*
X023185Y020689D01*
X023185Y021689D01*
X023435Y022139D01*
X024335Y023039D01*
X025935Y023039D01*
X029035Y026139D01*
X029785Y026139D01*
X030185Y026689D01*
X031035Y026139D02*
X027485Y022589D01*
X024885Y022589D01*
X024435Y022139D01*
X024185Y021689D01*
X024185Y020689D01*
X024185Y019689D01*
X025185Y019689D02*
X025185Y020689D01*
X025185Y021689D01*
X024385Y023489D02*
X023785Y023489D01*
X022435Y022139D01*
X022185Y021689D01*
X022185Y020689D01*
X022185Y019689D01*
X022185Y017689D01*
X022435Y017339D01*
X026335Y013439D01*
X030735Y013439D01*
X030985Y013339D01*
X030985Y014339D02*
X030735Y014439D01*
X029285Y014439D01*
X027835Y015889D01*
X024585Y015889D01*
X023185Y017689D02*
X023185Y018539D01*
X021185Y017689D02*
X021185Y019689D01*
X021185Y020689D01*
X021185Y021689D01*
X021435Y022139D01*
X025435Y026139D01*
X025785Y026139D01*
X026185Y026689D01*
X027035Y026139D02*
X024385Y023489D01*
X022035Y024939D02*
X019335Y022239D01*
X019185Y021689D01*
X019185Y020689D01*
X019185Y019689D01*
X019185Y017689D01*
X018185Y017689D02*
X018185Y019689D01*
X018185Y020689D01*
X018185Y021689D01*
X018335Y022239D01*
X019535Y023439D01*
X019535Y025889D01*
X019685Y026689D01*
X017685Y026689D02*
X017535Y025889D01*
X017535Y024439D01*
X015335Y022239D01*
X015185Y021689D01*
X015185Y020689D01*
X015185Y019689D01*
X015185Y017689D01*
X014185Y017689D02*
X014185Y019689D01*
X014185Y020689D01*
X014185Y021689D01*
X014335Y022239D01*
X015535Y023439D01*
X015535Y025889D01*
X015685Y026689D01*
X013685Y026689D02*
X013535Y025889D01*
X013535Y022439D01*
X013335Y022239D01*
X013185Y021689D01*
X013185Y020689D01*
X013185Y019689D01*
X013185Y017689D01*
X012185Y017689D02*
X012185Y019689D01*
X012185Y020689D01*
X012185Y021689D01*
X012035Y022239D01*
X011835Y022439D01*
X011835Y025889D01*
X011685Y026689D01*
X009685Y026689D02*
X009835Y025889D01*
X009835Y023439D01*
X011035Y022239D01*
X011185Y021689D01*
X011185Y020689D01*
X011185Y019689D01*
X011185Y017689D01*
X010185Y017689D02*
X010185Y019689D01*
X010185Y020689D01*
X010185Y021689D01*
X010035Y022239D01*
X007835Y024439D01*
X007835Y025889D01*
X007685Y026689D01*
X005685Y026689D02*
X005835Y025889D01*
X005835Y025439D01*
X009035Y022239D01*
X009185Y021689D01*
X009185Y020689D01*
X009185Y019689D01*
X009185Y017689D01*
X008185Y017689D02*
X008185Y019689D01*
X008185Y020689D01*
X008185Y021689D01*
X007935Y022139D01*
X006535Y023539D01*
X002985Y023539D01*
X002185Y023689D01*
X002185Y021689D02*
X007185Y021689D01*
X007185Y020689D01*
X007185Y019689D01*
X007185Y017689D01*
X005885Y019039D02*
X005435Y018789D01*
X004935Y018289D01*
X004735Y018139D01*
X002735Y018139D02*
X002485Y018089D01*
X002085Y018089D01*
X001535Y017939D01*
X001535Y016939D02*
X002085Y016789D01*
X013885Y016789D01*
X016285Y017189D02*
X016185Y017689D01*
X016185Y019689D01*
X016185Y020689D01*
X016185Y021689D01*
X017185Y021689D02*
X017185Y020689D01*
X017185Y019689D01*
X017185Y017689D01*
X017085Y017189D01*
X017085Y012989D01*
X016285Y012989D02*
X017085Y012189D01*
X017185Y011689D01*
X017285Y011189D01*
X018235Y010239D01*
X018185Y009689D01*
X019185Y009689D01*
X019435Y010139D01*
X019885Y010589D01*
X028185Y010589D01*
X028735Y010039D01*
X028985Y009939D01*
X029235Y010039D01*
X030535Y010039D01*
X031735Y011239D01*
X031985Y011339D01*
X032235Y011239D01*
X035585Y011239D01*
X036185Y010939D02*
X036485Y011039D01*
X037585Y011039D01*
X037935Y011389D01*
X038185Y011489D01*
X038435Y011539D01*
X039485Y011539D01*
X039735Y011689D01*
X039485Y012439D02*
X038185Y012439D01*
X036185Y012439D01*
X034635Y013989D02*
X034335Y013839D01*
X034635Y013989D02*
X035885Y013989D01*
X033735Y014939D02*
X033835Y015189D01*
X033835Y015639D01*
X034035Y015839D01*
X034145Y016409D01*
X034185Y016989D01*
X034185Y018389D01*
X034145Y018969D01*
X035925Y018969D02*
X035935Y018389D01*
X035935Y016989D01*
X035925Y016409D01*
X037342Y017489D02*
X037385Y018289D01*
X037385Y021289D01*
X037410Y021314D01*
X038635Y022539D02*
X038635Y023289D01*
X039185Y023689D01*
X034185Y026689D02*
X033785Y026139D01*
X033035Y026139D01*
X029035Y022139D01*
X028885Y022139D01*
X030185Y020889D02*
X028785Y019489D01*
X028535Y018289D02*
X026635Y018289D01*
X026385Y018539D01*
X028885Y016439D02*
X029135Y016339D01*
X030835Y016339D01*
X031735Y015439D01*
X031985Y015339D01*
X032235Y014389D02*
X031985Y014339D01*
X032235Y014389D02*
X032585Y014389D01*
X030985Y011339D02*
X030735Y011439D01*
X027485Y011439D01*
X022085Y016839D01*
X020935Y016839D01*
X020435Y017339D01*
X020185Y017689D01*
X020185Y019689D01*
X020185Y020689D01*
X020185Y021689D01*
X020285Y022239D01*
X023985Y025939D01*
X024185Y026689D01*
X022185Y026689D02*
X022035Y025889D01*
X022035Y024939D01*
X027035Y026139D02*
X027785Y026139D01*
X028185Y026689D01*
X031035Y026139D02*
X031785Y026139D01*
X032185Y026689D01*
X031935Y020889D02*
X030185Y020889D01*
X021985Y014589D02*
X019435Y012039D01*
X019185Y011689D01*
X018435Y012039D02*
X018185Y011689D01*
X018435Y012039D02*
X019935Y013539D01*
X020235Y013539D01*
X016285Y012989D02*
X016285Y015989D01*
X004435Y015989D01*
X003935Y015489D01*
X003685Y015389D01*
X003435Y015289D01*
X002085Y013939D01*
X001535Y013939D01*
X001535Y012939D01*
X001585Y012689D01*
X001585Y011389D01*
X002835Y010789D02*
X002735Y010589D01*
X001735Y009589D01*
X001585Y009389D01*
X001685Y009139D01*
X001685Y007589D01*
X002185Y007189D01*
X002735Y006339D02*
X005085Y008689D01*
X005085Y009389D01*
X005185Y009639D01*
X005935Y009739D02*
X006185Y009639D01*
X005935Y009739D02*
X005085Y010589D01*
X004985Y010789D01*
X005985Y010789D02*
X006235Y010889D01*
X006935Y011589D01*
X007185Y011689D01*
X007185Y009689D01*
X007185Y008689D01*
X007185Y007689D01*
X007035Y007139D01*
X005835Y005939D01*
X005835Y002989D01*
X005685Y002189D01*
X007685Y002189D02*
X007835Y002989D01*
X007835Y006939D01*
X008035Y007139D01*
X008185Y007689D01*
X008185Y008689D01*
X008185Y009689D01*
X008185Y011689D01*
X009185Y011689D02*
X009185Y009689D01*
X009185Y008689D01*
X009185Y007689D01*
X009335Y007139D01*
X009535Y006939D01*
X009535Y002989D01*
X009685Y002189D01*
X011685Y002189D02*
X011535Y002989D01*
X011535Y005939D01*
X010335Y007139D01*
X010185Y007689D01*
X010185Y008689D01*
X010185Y009689D01*
X010185Y011689D01*
X011185Y011689D02*
X011185Y009689D01*
X011185Y008689D01*
X011185Y007689D01*
X011335Y007139D01*
X013535Y004939D01*
X013535Y002989D01*
X013685Y002189D01*
X015685Y002189D02*
X015535Y002989D01*
X015535Y003939D01*
X012335Y007139D01*
X012185Y007689D01*
X012185Y008689D01*
X012185Y009689D01*
X012185Y011689D01*
X013185Y011689D02*
X013185Y009689D01*
X013185Y008689D01*
X013185Y007689D01*
X013285Y007139D01*
X017485Y002939D01*
X017685Y002189D01*
X018935Y002739D02*
X014435Y007239D01*
X014185Y007689D01*
X014185Y008689D01*
X014185Y009689D01*
X014185Y011689D01*
X014935Y012039D02*
X015185Y011689D01*
X015185Y009689D01*
X015185Y008689D01*
X015185Y007689D01*
X015435Y007239D01*
X015885Y006789D01*
X016485Y006789D01*
X020535Y002739D01*
X021785Y002739D01*
X022185Y002189D01*
X024185Y002189D02*
X024035Y002989D01*
X024035Y003439D01*
X020335Y007139D01*
X020185Y007689D01*
X020185Y008689D01*
X020185Y009689D01*
X021185Y009689D02*
X021185Y008689D01*
X021185Y007689D01*
X021335Y007189D01*
X025785Y002739D01*
X026185Y002189D01*
X027035Y002739D02*
X022985Y006789D01*
X022885Y006789D01*
X022435Y007239D01*
X022185Y007689D01*
X022185Y008689D01*
X022185Y009689D01*
X023185Y009689D02*
X023185Y008689D01*
X023185Y007689D01*
X023335Y007139D01*
X027135Y003339D01*
X028435Y003339D01*
X029035Y002739D01*
X029785Y002739D01*
X030185Y002189D01*
X028185Y002189D02*
X027785Y002739D01*
X027035Y002739D01*
X026785Y005039D02*
X025335Y006489D01*
X025335Y007139D01*
X025185Y007689D01*
X025185Y008689D01*
X025185Y009689D01*
X024185Y009689D02*
X024185Y008689D01*
X024185Y007689D01*
X026185Y007689D02*
X026185Y008689D01*
X026185Y009689D01*
X027385Y005539D02*
X032585Y010739D01*
X039485Y012439D02*
X039735Y012689D01*
X030735Y005039D02*
X026785Y005039D01*
X030735Y005039D02*
X033035Y002739D01*
X033785Y002739D01*
X034185Y002189D01*
X019685Y002189D02*
X019285Y002739D01*
X018935Y002739D01*
X019185Y007689D02*
X019185Y008689D01*
X019185Y009689D01*
X018185Y009689D02*
X018185Y008689D01*
X018185Y007689D01*
X017185Y007689D02*
X017185Y008689D01*
X017185Y009689D01*
X016185Y009689D01*
X016185Y008689D01*
X016185Y007689D01*
X016185Y009689D02*
X016185Y011689D01*
X014935Y012039D02*
X011685Y015289D01*
X004935Y015289D01*
X004685Y015389D01*
X003085Y016289D02*
X001985Y015189D01*
X001535Y014939D01*
X003685Y013389D02*
X003585Y013139D01*
X003585Y011689D01*
X002935Y011039D01*
X002835Y010789D01*
X003685Y010589D02*
X003835Y010789D01*
X003685Y010589D02*
X003685Y009889D01*
X003585Y009639D01*
X002735Y006339D02*
X002735Y005589D01*
X002185Y005189D01*
X016285Y015989D02*
X016285Y017189D01*
D24*
X013885Y016789D03*
X017085Y012989D03*
X020235Y013539D03*
X021985Y014589D03*
X024585Y015889D03*
X028535Y018289D03*
X031935Y020889D03*
X028885Y022139D03*
X037935Y015489D03*
X036785Y014289D03*
X037635Y013739D03*
X032585Y010739D03*
X027385Y005539D03*
X003085Y016289D03*
D25*
X003233Y000876D02*
X003138Y000821D01*
X038236Y000821D01*
X037954Y001047D01*
X037954Y001047D01*
X037672Y001460D01*
X037672Y001460D01*
X037524Y001939D01*
X037524Y001939D01*
X037524Y002440D01*
X037524Y002440D01*
X037672Y002918D01*
X037672Y002918D01*
X037954Y003332D01*
X037954Y003332D01*
X038345Y003644D01*
X038345Y003644D01*
X038811Y003827D01*
X038812Y003827D01*
X039311Y003865D01*
X039311Y003865D01*
X039799Y003753D01*
X039799Y003753D01*
X040233Y003503D01*
X040233Y003503D01*
X040290Y003441D01*
X040290Y016662D01*
X040094Y016548D01*
X039837Y016479D01*
X039784Y016479D01*
X039784Y017409D01*
X039624Y017409D01*
X039624Y016479D01*
X039571Y016479D01*
X039314Y016548D01*
X039084Y016681D01*
X038896Y016869D01*
X038763Y017099D01*
X038694Y017356D01*
X038694Y017409D01*
X039624Y017409D01*
X039624Y017569D01*
X038694Y017569D01*
X038694Y017622D01*
X038763Y017879D01*
X038896Y018109D01*
X039084Y018297D01*
X039314Y018430D01*
X039571Y018499D01*
X039624Y018499D01*
X039624Y017569D01*
X039784Y017569D01*
X039784Y018499D01*
X039837Y018499D01*
X040094Y018430D01*
X040290Y018317D01*
X040290Y025438D01*
X040233Y025376D01*
X040233Y025376D01*
X039799Y025125D01*
X039799Y025125D01*
X039311Y025014D01*
X039311Y025014D01*
X038812Y025051D01*
X038811Y025051D01*
X038345Y025234D01*
X038345Y025234D01*
X037954Y025547D01*
X037954Y025547D01*
X037954Y025547D01*
X037672Y025960D01*
X037672Y025960D01*
X037524Y026439D01*
X037524Y026439D01*
X037524Y026940D01*
X037524Y026940D01*
X037672Y027418D01*
X037672Y027418D01*
X037954Y027832D01*
X037954Y027832D01*
X038236Y028057D01*
X003138Y028057D01*
X003233Y028003D01*
X003233Y028003D01*
X003573Y027636D01*
X003573Y027636D01*
X003791Y027184D01*
X003791Y027184D01*
X003865Y026689D01*
X003791Y026194D01*
X003791Y026194D01*
X003573Y025743D01*
X003573Y025743D01*
X003233Y025376D01*
X003233Y025376D01*
X003233Y025376D01*
X002799Y025125D01*
X002799Y025125D01*
X002311Y025014D01*
X002311Y025014D01*
X001812Y025051D01*
X001811Y025051D01*
X001345Y025234D01*
X001345Y025234D01*
X000954Y025547D01*
X000954Y025547D01*
X000954Y025547D01*
X000780Y025801D01*
X000780Y018248D01*
X000929Y018397D01*
X001128Y018479D01*
X001943Y018479D01*
X002008Y018452D01*
X002013Y018454D01*
X002036Y018454D01*
X002059Y018461D01*
X002109Y018454D01*
X002343Y018454D01*
X002528Y018639D01*
X002942Y018639D01*
X003235Y018346D01*
X003235Y017932D01*
X002942Y017639D01*
X002528Y017639D01*
X002443Y017724D01*
X002331Y017724D01*
X002293Y017633D01*
X002141Y017481D01*
X002039Y017439D01*
X002141Y017397D01*
X002293Y017245D01*
X002331Y017154D01*
X006758Y017154D01*
X006685Y017330D01*
X006685Y017835D01*
X006643Y017733D01*
X006491Y017581D01*
X006293Y017499D01*
X005478Y017499D01*
X005279Y017581D01*
X005128Y017733D01*
X005101Y017798D01*
X004942Y017639D01*
X004528Y017639D01*
X004235Y017932D01*
X004235Y018346D01*
X004528Y018639D01*
X004769Y018639D01*
X005050Y018920D01*
X005045Y018932D01*
X005045Y019147D01*
X005128Y019345D01*
X005279Y019497D01*
X005478Y019579D01*
X006293Y019579D01*
X006491Y019497D01*
X006643Y019345D01*
X006645Y019340D01*
X006645Y020097D01*
X006684Y020189D01*
X006645Y020282D01*
X006645Y021097D01*
X006684Y021189D01*
X006645Y021282D01*
X006645Y021324D01*
X003153Y021324D01*
X003151Y021320D01*
X002967Y021136D01*
X002728Y021037D01*
X001643Y021037D01*
X001403Y021136D01*
X001220Y021320D01*
X001120Y021559D01*
X001120Y021819D01*
X001220Y022059D01*
X001403Y022242D01*
X001643Y022342D01*
X002728Y022342D01*
X002967Y022242D01*
X003151Y022059D01*
X003153Y022054D01*
X006645Y022054D01*
X006645Y022097D01*
X006728Y022295D01*
X006879Y022447D01*
X007043Y022515D01*
X006384Y023174D01*
X003023Y023174D01*
X003001Y023170D01*
X002967Y023136D01*
X002728Y023037D01*
X001643Y023037D01*
X001403Y023136D01*
X001220Y023320D01*
X001120Y023559D01*
X001120Y023819D01*
X001220Y024059D01*
X001403Y024242D01*
X001643Y024342D01*
X002728Y024342D01*
X002967Y024242D01*
X003151Y024059D01*
X003215Y023904D01*
X006463Y023904D01*
X006608Y023904D01*
X006742Y023849D01*
X008066Y022524D01*
X008078Y022529D01*
X008229Y022529D01*
X005526Y025233D01*
X005470Y025367D01*
X005470Y025512D01*
X005470Y025660D01*
X005316Y025724D01*
X005132Y025907D01*
X005033Y026147D01*
X005033Y027232D01*
X005132Y027471D01*
X005316Y027655D01*
X005556Y027754D01*
X005815Y027754D01*
X006055Y027655D01*
X006239Y027471D01*
X006338Y027232D01*
X006338Y026147D01*
X006239Y025907D01*
X006205Y025874D01*
X006200Y025851D01*
X006200Y025590D01*
X007503Y024288D01*
X007470Y024367D01*
X007470Y024512D01*
X007470Y025660D01*
X007316Y025724D01*
X007132Y025907D01*
X007033Y026147D01*
X007033Y027232D01*
X007132Y027471D01*
X007316Y027655D01*
X007556Y027754D01*
X007815Y027754D01*
X008055Y027655D01*
X008239Y027471D01*
X008338Y027232D01*
X008338Y026147D01*
X008239Y025907D01*
X008205Y025874D01*
X008200Y025851D01*
X008200Y024590D01*
X009503Y023288D01*
X009470Y023367D01*
X009470Y023512D01*
X009470Y025660D01*
X009316Y025724D01*
X009132Y025907D01*
X009033Y026147D01*
X009033Y027232D01*
X009132Y027471D01*
X009316Y027655D01*
X009556Y027754D01*
X009815Y027754D01*
X010055Y027655D01*
X010239Y027471D01*
X010338Y027232D01*
X010338Y026147D01*
X010239Y025907D01*
X010205Y025874D01*
X010200Y025851D01*
X010200Y023590D01*
X011259Y022532D01*
X011264Y022529D01*
X011293Y022529D01*
X011470Y022456D01*
X011470Y022512D01*
X011470Y025660D01*
X011316Y025724D01*
X011132Y025907D01*
X011033Y026147D01*
X011033Y027232D01*
X011132Y027471D01*
X011316Y027655D01*
X011556Y027754D01*
X011815Y027754D01*
X012055Y027655D01*
X012239Y027471D01*
X012338Y027232D01*
X012338Y026147D01*
X012239Y025907D01*
X012205Y025874D01*
X012200Y025851D01*
X012200Y022590D01*
X012259Y022532D01*
X012264Y022529D01*
X012293Y022529D01*
X012491Y022447D01*
X012643Y022295D01*
X012685Y022193D01*
X012728Y022295D01*
X012879Y022447D01*
X013078Y022529D01*
X013107Y022529D01*
X013112Y022532D01*
X013170Y022590D01*
X013170Y025851D01*
X013166Y025874D01*
X013132Y025907D01*
X013033Y026147D01*
X013033Y027232D01*
X013132Y027471D01*
X013316Y027655D01*
X013556Y027754D01*
X013815Y027754D01*
X014055Y027655D01*
X014239Y027471D01*
X014338Y027232D01*
X014338Y026147D01*
X014239Y025907D01*
X014055Y025724D01*
X013900Y025660D01*
X013900Y022512D01*
X013900Y022456D01*
X014078Y022529D01*
X014107Y022529D01*
X014112Y022532D01*
X015170Y023590D01*
X015170Y025851D01*
X015166Y025874D01*
X015132Y025907D01*
X015033Y026147D01*
X015033Y027232D01*
X015132Y027471D01*
X015316Y027655D01*
X015556Y027754D01*
X015815Y027754D01*
X016055Y027655D01*
X016239Y027471D01*
X016338Y027232D01*
X016338Y026147D01*
X016239Y025907D01*
X016055Y025724D01*
X015900Y025660D01*
X015900Y023512D01*
X015900Y023367D01*
X015868Y023288D01*
X017170Y024590D01*
X017170Y025851D01*
X017166Y025874D01*
X017132Y025907D01*
X017033Y026147D01*
X017033Y027232D01*
X017132Y027471D01*
X017316Y027655D01*
X017556Y027754D01*
X017815Y027754D01*
X018055Y027655D01*
X018239Y027471D01*
X018338Y027232D01*
X018338Y026147D01*
X018239Y025907D01*
X018055Y025724D01*
X017900Y025660D01*
X017900Y024512D01*
X017900Y024367D01*
X017845Y024233D01*
X016076Y022463D01*
X016090Y022469D01*
X016165Y022469D01*
X016165Y021710D01*
X016205Y021710D01*
X016205Y022469D01*
X016281Y022469D01*
X016457Y022396D01*
X016592Y022261D01*
X016653Y022115D01*
X016728Y022295D01*
X016879Y022447D01*
X017078Y022529D01*
X017293Y022529D01*
X017491Y022447D01*
X017643Y022295D01*
X017685Y022193D01*
X017728Y022295D01*
X017879Y022447D01*
X018078Y022529D01*
X018107Y022529D01*
X018112Y022532D01*
X019170Y023590D01*
X019170Y025851D01*
X019166Y025874D01*
X019132Y025907D01*
X019033Y026147D01*
X019033Y027232D01*
X019132Y027471D01*
X019316Y027655D01*
X019556Y027754D01*
X019815Y027754D01*
X020055Y027655D01*
X020239Y027471D01*
X020338Y027232D01*
X020338Y026147D01*
X020239Y025907D01*
X020055Y025724D01*
X019900Y025660D01*
X019900Y023512D01*
X019900Y023367D01*
X019868Y023288D01*
X021670Y025090D01*
X021670Y025851D01*
X021666Y025874D01*
X021632Y025907D01*
X021533Y026147D01*
X021533Y027232D01*
X021632Y027471D01*
X021816Y027655D01*
X022056Y027754D01*
X022315Y027754D01*
X022555Y027655D01*
X022739Y027471D01*
X022838Y027232D01*
X022838Y026147D01*
X022739Y025907D01*
X022555Y025724D01*
X022400Y025660D01*
X022400Y025012D01*
X022400Y024870D01*
X023575Y026045D01*
X023533Y026147D01*
X023533Y027232D01*
X023632Y027471D01*
X023816Y027655D01*
X024056Y027754D01*
X024315Y027754D01*
X024555Y027655D01*
X024739Y027471D01*
X024838Y027232D01*
X024838Y026147D01*
X024775Y025995D01*
X025229Y026449D01*
X025363Y026504D01*
X025508Y026504D01*
X025533Y026504D01*
X025533Y027232D01*
X025632Y027471D01*
X025816Y027655D01*
X026056Y027754D01*
X026315Y027754D01*
X026555Y027655D01*
X026739Y027471D01*
X026838Y027232D01*
X026838Y026453D01*
X026963Y026504D01*
X027108Y026504D01*
X027533Y026504D01*
X027533Y027232D01*
X027632Y027471D01*
X027816Y027655D01*
X028056Y027754D01*
X028315Y027754D01*
X028555Y027655D01*
X028739Y027471D01*
X028838Y027232D01*
X028838Y026453D01*
X028963Y026504D01*
X029108Y026504D01*
X029533Y026504D01*
X029533Y027232D01*
X029632Y027471D01*
X029816Y027655D01*
X030056Y027754D01*
X030315Y027754D01*
X030555Y027655D01*
X030739Y027471D01*
X030838Y027232D01*
X030838Y026453D01*
X030963Y026504D01*
X031108Y026504D01*
X031533Y026504D01*
X031533Y027232D01*
X031632Y027471D01*
X031816Y027655D01*
X032056Y027754D01*
X032315Y027754D01*
X032555Y027655D01*
X032739Y027471D01*
X032838Y027232D01*
X032838Y026453D01*
X032963Y026504D01*
X033108Y026504D01*
X033533Y026504D01*
X033533Y027232D01*
X033632Y027471D01*
X033816Y027655D01*
X034056Y027754D01*
X034315Y027754D01*
X034555Y027655D01*
X034739Y027471D01*
X034838Y027232D01*
X034838Y026147D01*
X034739Y025907D01*
X034555Y025724D01*
X034315Y025624D01*
X034056Y025624D01*
X033816Y025724D01*
X033772Y025768D01*
X033771Y025767D01*
X033742Y025774D01*
X033187Y025774D01*
X029345Y021933D01*
X029242Y021830D01*
X029167Y021799D01*
X029135Y021766D01*
X029105Y021754D01*
X037263Y021754D01*
X037334Y021754D01*
X038270Y022690D01*
X038270Y023246D01*
X038264Y023274D01*
X038264Y023276D01*
X038220Y023320D01*
X038120Y023559D01*
X038120Y023819D01*
X038220Y024059D01*
X038403Y024242D01*
X038643Y024342D01*
X039728Y024342D01*
X039967Y024242D01*
X040151Y024059D01*
X040250Y023819D01*
X040250Y023559D01*
X040151Y023320D01*
X039967Y023136D01*
X039728Y023037D01*
X039000Y023037D01*
X039000Y022612D01*
X039000Y022467D01*
X038945Y022333D01*
X038894Y022282D01*
X039128Y022282D01*
X039128Y021747D01*
X039243Y021747D01*
X039243Y022282D01*
X039716Y022282D01*
X039934Y022192D01*
X040100Y022025D01*
X040190Y021807D01*
X040190Y021747D01*
X039243Y021747D01*
X039243Y021632D01*
X040190Y021632D01*
X040190Y021571D01*
X040100Y021354D01*
X039934Y021187D01*
X039716Y021097D01*
X039243Y021097D01*
X039243Y021632D01*
X039128Y021632D01*
X039128Y021097D01*
X038655Y021097D01*
X038437Y021187D01*
X038271Y021354D01*
X038181Y021569D01*
X037750Y021138D01*
X037750Y020179D01*
X037846Y020275D01*
X038090Y020415D01*
X038362Y020488D01*
X038644Y020488D01*
X038916Y020415D01*
X039160Y020275D01*
X039359Y020075D01*
X039500Y019831D01*
X039573Y019559D01*
X039573Y019278D01*
X039500Y019005D01*
X039359Y018761D01*
X039160Y018562D01*
X038916Y018421D01*
X038644Y018349D01*
X038362Y018349D01*
X038090Y018421D01*
X037846Y018562D01*
X037750Y018658D01*
X037750Y018487D01*
X037755Y018486D01*
X037999Y018345D01*
X038198Y018146D01*
X038339Y017902D01*
X038412Y017630D01*
X038412Y017348D01*
X038339Y017076D01*
X038198Y016832D01*
X037999Y016633D01*
X037755Y016492D01*
X037483Y016419D01*
X037201Y016419D01*
X036929Y016492D01*
X036685Y016633D01*
X036486Y016832D01*
X036345Y017076D01*
X036272Y017348D01*
X036272Y017630D01*
X036345Y017902D01*
X036486Y018146D01*
X036685Y018345D01*
X036929Y018486D01*
X037020Y018511D01*
X037020Y021024D01*
X032356Y021024D01*
X032375Y020977D01*
X032375Y020802D01*
X032308Y020640D01*
X032185Y020516D01*
X032023Y020449D01*
X031848Y020449D01*
X031686Y020516D01*
X031678Y020524D01*
X030337Y020524D01*
X029705Y019893D01*
X029706Y019893D01*
X029957Y019789D01*
X030149Y019597D01*
X030253Y019346D01*
X030253Y018188D01*
X030149Y017937D01*
X029957Y017745D01*
X029706Y017641D01*
X029435Y017641D01*
X029184Y017745D01*
X028991Y017937D01*
X028929Y018089D01*
X028908Y018040D01*
X028785Y017916D01*
X028623Y017849D01*
X028448Y017849D01*
X028286Y017916D01*
X028278Y017924D01*
X026708Y017924D01*
X026685Y017924D01*
X026685Y017330D01*
X026609Y017146D01*
X026469Y017005D01*
X026285Y016929D01*
X026086Y016929D01*
X025902Y017005D01*
X025761Y017146D01*
X025685Y017330D01*
X025685Y018049D01*
X025633Y018174D01*
X025737Y018174D01*
X025685Y018049D01*
X025685Y017330D01*
X025609Y017146D01*
X025469Y017005D01*
X025285Y016929D01*
X025086Y016929D01*
X024902Y017005D01*
X024761Y017146D01*
X024685Y017330D01*
X024685Y018049D01*
X024633Y018174D01*
X024737Y018174D01*
X024685Y018049D01*
X024685Y017330D01*
X024609Y017146D01*
X024469Y017005D01*
X024285Y016929D01*
X024086Y016929D01*
X023902Y017005D01*
X023761Y017146D01*
X023685Y017330D01*
X023685Y018049D01*
X023633Y018174D01*
X023737Y018174D01*
X023685Y018049D01*
X023685Y017330D01*
X023609Y017146D01*
X023469Y017005D01*
X023339Y016952D01*
X024195Y016096D01*
X024212Y016139D01*
X024336Y016262D01*
X024498Y016329D01*
X024673Y016329D01*
X024835Y016262D01*
X024843Y016254D01*
X027385Y016254D01*
X027385Y016646D01*
X027678Y016939D01*
X028092Y016939D01*
X028385Y016646D01*
X028385Y016232D01*
X028197Y016044D01*
X029437Y014804D01*
X030715Y014804D01*
X030750Y014839D01*
X030465Y015124D01*
X030465Y015555D01*
X030770Y015859D01*
X031201Y015859D01*
X031505Y015555D01*
X031505Y015124D01*
X031221Y014839D01*
X031485Y014575D01*
X031770Y014859D01*
X032201Y014859D01*
X032220Y014840D01*
X032220Y014924D01*
X032176Y014879D01*
X031995Y014879D01*
X031995Y015329D01*
X031975Y015329D01*
X031525Y015329D01*
X031525Y015149D01*
X031795Y014879D01*
X031975Y014879D01*
X031975Y015329D01*
X031975Y015349D01*
X031525Y015349D01*
X031525Y015530D01*
X031795Y015799D01*
X031809Y015799D01*
X030976Y016633D01*
X030920Y016767D01*
X030920Y016912D01*
X030920Y017677D01*
X030754Y017745D01*
X030562Y017937D01*
X030458Y018188D01*
X030458Y019346D01*
X030562Y019597D01*
X030754Y019789D01*
X031005Y019893D01*
X031277Y019893D01*
X031528Y019789D01*
X031720Y019597D01*
X031824Y019346D01*
X031824Y018188D01*
X031720Y017937D01*
X031657Y017874D01*
X031650Y017847D01*
X031650Y016990D01*
X032792Y015849D01*
X032792Y015849D01*
X032895Y015746D01*
X032950Y015612D01*
X032950Y014754D01*
X033235Y014754D01*
X033235Y015146D01*
X033470Y015381D01*
X033470Y015567D01*
X033470Y015712D01*
X033526Y015846D01*
X033628Y015948D01*
X033605Y016002D01*
X033605Y016817D01*
X033688Y017015D01*
X033820Y017148D01*
X033820Y018231D01*
X033688Y018363D01*
X033605Y018562D01*
X033605Y019343D01*
X033418Y019156D01*
X033395Y019122D01*
X033395Y018185D01*
X033291Y017934D01*
X033099Y017741D01*
X032848Y017637D01*
X032576Y017637D01*
X032325Y017741D01*
X032133Y017934D01*
X032029Y018185D01*
X032029Y019342D01*
X032133Y019593D01*
X032325Y019785D01*
X032576Y019889D01*
X032848Y019889D01*
X033040Y019810D01*
X033429Y020199D01*
X033563Y020254D01*
X033708Y020254D01*
X034458Y020254D01*
X034592Y020199D01*
X034695Y020096D01*
X035045Y019746D01*
X035100Y019612D01*
X035100Y019467D01*
X035100Y016590D01*
X035445Y016245D01*
X035445Y016389D01*
X035905Y016389D01*
X035905Y016429D01*
X035445Y016429D01*
X035445Y016805D01*
X035518Y016981D01*
X035653Y017116D01*
X035830Y017189D01*
X035905Y017189D01*
X035905Y016430D01*
X035945Y016430D01*
X035945Y017189D01*
X036021Y017189D01*
X036197Y017116D01*
X036332Y016981D01*
X036405Y016805D01*
X036405Y016429D01*
X035946Y016429D01*
X035946Y016389D01*
X036405Y016389D01*
X036405Y016014D01*
X036339Y015854D01*
X037678Y015854D01*
X037686Y015862D01*
X037848Y015929D01*
X038023Y015929D01*
X038185Y015862D01*
X038308Y015739D01*
X038375Y015577D01*
X038375Y015402D01*
X038308Y015240D01*
X038185Y015116D01*
X038023Y015049D01*
X037848Y015049D01*
X037686Y015116D01*
X037678Y015124D01*
X037235Y015124D01*
X037235Y015105D01*
X037243Y015098D01*
X037292Y015050D01*
X037293Y015048D01*
X037745Y014595D01*
X037745Y014621D01*
X038003Y014879D01*
X038185Y014879D01*
X038185Y014440D01*
X038186Y014440D01*
X038186Y014879D01*
X038368Y014879D01*
X038625Y014621D01*
X038625Y014439D01*
X038186Y014439D01*
X038186Y014439D01*
X038625Y014439D01*
X038625Y014257D01*
X038368Y013999D01*
X038186Y013999D01*
X038186Y014439D01*
X038185Y014439D01*
X038185Y013999D01*
X038003Y013999D01*
X038000Y014002D01*
X038000Y013997D01*
X038008Y013989D01*
X038075Y013827D01*
X038075Y013652D01*
X038008Y013490D01*
X037885Y013366D01*
X037723Y013299D01*
X037548Y013299D01*
X037386Y013366D01*
X037262Y013490D01*
X037195Y013652D01*
X037195Y013827D01*
X037262Y013989D01*
X037270Y013997D01*
X037270Y014038D01*
X037191Y014118D01*
X037158Y014040D01*
X037035Y013916D01*
X036873Y013849D01*
X036698Y013849D01*
X036536Y013916D01*
X036528Y013924D01*
X036400Y013924D01*
X036680Y013644D01*
X036680Y013439D01*
X036186Y013439D01*
X036186Y013439D01*
X036680Y013439D01*
X036680Y013234D01*
X036398Y012952D01*
X036500Y012910D01*
X036605Y012804D01*
X037843Y012804D01*
X037978Y012939D01*
X038392Y012939D01*
X038527Y012804D01*
X039199Y012804D01*
X039199Y013034D01*
X039235Y013122D01*
X039303Y013190D01*
X039391Y013226D01*
X040080Y013226D01*
X040168Y013190D01*
X040236Y013122D01*
X040272Y013034D01*
X040272Y012345D01*
X040236Y012256D01*
X040168Y012189D01*
X040080Y012152D01*
X039863Y012152D01*
X040005Y012094D01*
X040140Y011959D01*
X040212Y011784D01*
X040212Y011708D01*
X039754Y011708D01*
X039754Y011671D01*
X040212Y011671D01*
X040212Y011594D01*
X040140Y011419D01*
X040005Y011285D01*
X039853Y011222D01*
X040039Y011144D01*
X040190Y010993D01*
X040272Y010796D01*
X040272Y010582D01*
X040190Y010385D01*
X040290Y010385D01*
X040190Y010385D02*
X040039Y010234D01*
X039842Y010152D01*
X039629Y010152D01*
X039431Y010234D01*
X039280Y010385D01*
X039199Y010582D01*
X039199Y010796D01*
X039280Y010993D01*
X039431Y011144D01*
X039618Y011222D01*
X039465Y011285D01*
X039331Y011419D01*
X039259Y011594D01*
X039259Y011671D01*
X039717Y011671D01*
X039717Y011708D01*
X039259Y011708D01*
X039259Y011784D01*
X039331Y011959D01*
X039446Y012074D01*
X039413Y012074D01*
X038527Y012074D01*
X038392Y011939D01*
X037978Y011939D01*
X037843Y012074D01*
X036605Y012074D01*
X036500Y011969D01*
X036296Y011884D01*
X036075Y011884D01*
X035871Y011969D01*
X035715Y012125D01*
X035630Y012329D01*
X035630Y012550D01*
X035715Y012754D01*
X035871Y012910D01*
X035973Y012952D01*
X035690Y013234D01*
X035690Y013439D01*
X036185Y013439D01*
X036185Y013439D01*
X035690Y013439D01*
X035690Y013624D01*
X034863Y013624D01*
X034819Y013516D01*
X034658Y013356D01*
X034449Y013269D01*
X034222Y013269D01*
X034012Y013356D01*
X033852Y013516D01*
X033765Y013726D01*
X033765Y013953D01*
X033795Y014024D01*
X032513Y014024D01*
X032406Y014024D01*
X032221Y013839D01*
X032505Y013555D01*
X032505Y013124D01*
X032221Y012839D01*
X032505Y012555D01*
X032505Y012124D01*
X032201Y011819D01*
X031770Y011819D01*
X031485Y012104D01*
X031221Y011839D01*
X031505Y011555D01*
X031505Y011124D01*
X031201Y010819D01*
X030770Y010819D01*
X030515Y011074D01*
X027558Y011074D01*
X027413Y011074D01*
X027279Y011130D01*
X026685Y011723D01*
X026685Y011330D01*
X026609Y011146D01*
X026469Y011005D01*
X026285Y010929D01*
X026086Y010929D01*
X025902Y011005D01*
X025761Y011146D01*
X025685Y011330D01*
X025685Y012049D01*
X025609Y012232D01*
X025469Y012373D01*
X025285Y012449D01*
X025086Y012449D01*
X024902Y012373D01*
X024761Y012232D01*
X024685Y012049D01*
X024609Y012232D01*
X024469Y012373D01*
X024285Y012449D01*
X024086Y012449D01*
X023902Y012373D01*
X023761Y012232D01*
X023685Y012049D01*
X023609Y012232D01*
X023469Y012373D01*
X023285Y012449D01*
X023086Y012449D01*
X022902Y012373D01*
X022761Y012232D01*
X022685Y012049D01*
X022609Y012232D01*
X022469Y012373D01*
X022285Y012449D01*
X022086Y012449D01*
X021902Y012373D01*
X021761Y012232D01*
X021685Y012049D01*
X021609Y012232D01*
X021469Y012373D01*
X021285Y012449D01*
X021086Y012449D01*
X020902Y012373D01*
X020761Y012232D01*
X020685Y012049D01*
X020609Y012232D01*
X020469Y012373D01*
X020339Y012427D01*
X022061Y014149D01*
X022073Y014149D01*
X022235Y014216D01*
X022358Y014340D01*
X022425Y014502D01*
X022425Y014677D01*
X022358Y014839D01*
X022235Y014962D01*
X022073Y015029D01*
X021898Y015029D01*
X021736Y014962D01*
X021612Y014839D01*
X021545Y014677D01*
X021545Y014665D01*
X020626Y013746D01*
X020608Y013789D01*
X020485Y013912D01*
X020323Y013979D01*
X020148Y013979D01*
X019986Y013912D01*
X019978Y013904D01*
X019863Y013904D01*
X019729Y013849D01*
X019626Y013746D01*
X018316Y012436D01*
X018285Y012449D01*
X018086Y012449D01*
X017902Y012373D01*
X017761Y012232D01*
X017685Y012049D01*
X017685Y011330D01*
X017761Y011146D01*
X017902Y011005D01*
X018086Y010929D01*
X018285Y010929D01*
X018469Y011005D01*
X018609Y011146D01*
X018685Y011330D01*
X018685Y011761D01*
X018685Y011761D01*
X018685Y011330D01*
X018761Y011146D01*
X018902Y011005D01*
X019086Y010929D01*
X019285Y010929D01*
X019469Y011005D01*
X019609Y011146D01*
X019685Y011330D01*
X019685Y011761D01*
X019685Y011761D01*
X019685Y011330D01*
X019761Y011146D01*
X019902Y011005D01*
X020086Y010929D01*
X020285Y010929D01*
X020469Y011005D01*
X020609Y011146D01*
X020685Y011330D01*
X020685Y012049D01*
X020685Y011330D01*
X020761Y011146D01*
X020902Y011005D01*
X021086Y010929D01*
X021285Y010929D01*
X021469Y011005D01*
X021609Y011146D01*
X021685Y011330D01*
X021685Y012049D01*
X021685Y011330D01*
X021761Y011146D01*
X021902Y011005D01*
X022086Y010929D01*
X022285Y010929D01*
X022469Y011005D01*
X022609Y011146D01*
X022685Y011330D01*
X022685Y012049D01*
X022685Y011330D01*
X022761Y011146D01*
X022902Y011005D01*
X023086Y010929D01*
X023285Y010929D01*
X023469Y011005D01*
X023609Y011146D01*
X023685Y011330D01*
X023685Y012049D01*
X023685Y011330D01*
X023761Y011146D01*
X023902Y011005D01*
X024086Y010929D01*
X024285Y010929D01*
X024469Y011005D01*
X024609Y011146D01*
X024685Y011330D01*
X024685Y012049D01*
X024685Y011330D01*
X024761Y011146D01*
X024902Y011005D01*
X025086Y010929D01*
X025285Y010929D01*
X025469Y011005D01*
X025609Y011146D01*
X025685Y011330D01*
X025685Y012049D01*
X025761Y012232D01*
X025902Y012373D01*
X025996Y012412D01*
X021934Y016474D01*
X021008Y016474D01*
X020863Y016474D01*
X020729Y016530D01*
X020316Y016942D01*
X020285Y016929D01*
X020086Y016929D01*
X019902Y017005D01*
X019761Y017146D01*
X019685Y017330D01*
X019685Y018049D01*
X019609Y018232D01*
X019550Y018291D01*
X019550Y018991D01*
X019643Y019083D01*
X019685Y019185D01*
X019728Y019083D01*
X019820Y018991D01*
X019820Y018291D01*
X019761Y018232D01*
X019685Y018049D01*
X019685Y017330D01*
X019609Y017146D01*
X019469Y017005D01*
X019285Y016929D01*
X019086Y016929D01*
X018902Y017005D01*
X018761Y017146D01*
X018685Y017330D01*
X018685Y018049D01*
X018609Y018232D01*
X018550Y018291D01*
X018550Y018991D01*
X018643Y019083D01*
X018685Y019185D01*
X018728Y019083D01*
X018820Y018991D01*
X018820Y018291D01*
X018761Y018232D01*
X018685Y018049D01*
X018685Y017330D01*
X018609Y017146D01*
X018469Y017005D01*
X018285Y016929D01*
X018086Y016929D01*
X017902Y017005D01*
X017761Y017146D01*
X017685Y017330D01*
X017685Y018049D01*
X017609Y018232D01*
X017550Y018291D01*
X017550Y018991D01*
X017643Y019083D01*
X017685Y019185D01*
X017728Y019083D01*
X017820Y018991D01*
X017820Y018291D01*
X017761Y018232D01*
X017685Y018049D01*
X017685Y017330D01*
X017609Y017146D01*
X017469Y017005D01*
X017450Y016998D01*
X017450Y013247D01*
X017458Y013239D01*
X019118Y013239D01*
X018960Y013080D02*
X017524Y013080D01*
X017525Y013077D02*
X017458Y013239D01*
X017450Y013397D02*
X019277Y013397D01*
X019436Y013556D02*
X017450Y013556D01*
X017450Y013714D02*
X019594Y013714D01*
X019787Y013873D02*
X017450Y013873D01*
X017450Y014031D02*
X020911Y014031D01*
X020753Y013873D02*
X020524Y013873D01*
X021070Y014190D02*
X017450Y014190D01*
X017450Y014348D02*
X021228Y014348D01*
X021387Y014507D02*
X017450Y014507D01*
X017450Y014665D02*
X021545Y014665D01*
X021606Y014824D02*
X017450Y014824D01*
X017450Y014983D02*
X021785Y014983D01*
X022186Y014983D02*
X023426Y014983D01*
X023267Y015141D02*
X017450Y015141D01*
X017450Y015300D02*
X023109Y015300D01*
X022950Y015458D02*
X017450Y015458D01*
X017450Y015617D02*
X022792Y015617D01*
X022633Y015775D02*
X017450Y015775D01*
X017450Y015934D02*
X022475Y015934D01*
X022316Y016092D02*
X017450Y016092D01*
X017450Y016251D02*
X022158Y016251D01*
X021999Y016409D02*
X017450Y016409D01*
X017450Y016568D02*
X020690Y016568D01*
X020532Y016727D02*
X017450Y016727D01*
X017450Y016885D02*
X020373Y016885D01*
X019864Y017044D02*
X019507Y017044D01*
X019632Y017202D02*
X019738Y017202D01*
X019685Y017361D02*
X019685Y017361D01*
X019685Y017519D02*
X019685Y017519D01*
X019685Y017678D02*
X019685Y017678D01*
X019685Y017836D02*
X019685Y017836D01*
X019685Y017995D02*
X019685Y017995D01*
X019642Y018153D02*
X019729Y018153D01*
X019820Y018312D02*
X019550Y018312D01*
X019550Y018471D02*
X019820Y018471D01*
X019820Y018629D02*
X019550Y018629D01*
X019550Y018788D02*
X019820Y018788D01*
X019820Y018946D02*
X019550Y018946D01*
X019652Y019105D02*
X019719Y019105D01*
X018820Y018946D02*
X018550Y018946D01*
X018550Y018788D02*
X018820Y018788D01*
X018820Y018629D02*
X018550Y018629D01*
X018550Y018471D02*
X018820Y018471D01*
X018820Y018312D02*
X018550Y018312D01*
X018642Y018153D02*
X018729Y018153D01*
X018685Y017995D02*
X018685Y017995D01*
X018685Y017836D02*
X018685Y017836D01*
X018685Y017678D02*
X018685Y017678D01*
X018685Y017519D02*
X018685Y017519D01*
X018685Y017361D02*
X018685Y017361D01*
X018632Y017202D02*
X018738Y017202D01*
X018864Y017044D02*
X018507Y017044D01*
X017864Y017044D02*
X017507Y017044D01*
X017632Y017202D02*
X017738Y017202D01*
X017685Y017361D02*
X017685Y017361D01*
X017685Y017519D02*
X017685Y017519D01*
X017685Y017678D02*
X017685Y017678D01*
X017685Y017836D02*
X017685Y017836D01*
X017685Y017995D02*
X017685Y017995D01*
X017642Y018153D02*
X017729Y018153D01*
X017820Y018312D02*
X017550Y018312D01*
X017550Y018471D02*
X017820Y018471D01*
X017820Y018629D02*
X017550Y018629D01*
X017550Y018788D02*
X017820Y018788D01*
X017820Y018946D02*
X017550Y018946D01*
X017652Y019105D02*
X017719Y019105D01*
X016820Y018991D02*
X016820Y018291D01*
X016761Y018232D01*
X016685Y018049D01*
X016685Y017330D01*
X016720Y017245D01*
X016720Y017225D01*
X016713Y017190D01*
X016720Y017153D01*
X016720Y013247D01*
X016712Y013239D01*
X014252Y013239D01*
X014094Y013397D02*
X016720Y013397D01*
X016720Y013556D02*
X013935Y013556D01*
X013777Y013714D02*
X016720Y013714D01*
X016720Y013873D02*
X013618Y013873D01*
X013459Y014031D02*
X016720Y014031D01*
X016720Y014190D02*
X013301Y014190D01*
X013142Y014348D02*
X016720Y014348D01*
X016720Y014507D02*
X012984Y014507D01*
X012825Y014665D02*
X016720Y014665D01*
X016720Y014824D02*
X012667Y014824D01*
X012508Y014983D02*
X016720Y014983D01*
X016720Y015141D02*
X012350Y015141D01*
X012191Y015300D02*
X016720Y015300D01*
X016720Y015458D02*
X012033Y015458D01*
X011892Y015599D02*
X011758Y015654D01*
X011613Y015654D01*
X005156Y015654D01*
X004901Y015909D01*
X004470Y015909D01*
X004165Y015605D01*
X004165Y015174D01*
X004450Y014889D01*
X004185Y014625D01*
X003901Y014909D01*
X003470Y014909D01*
X003165Y014605D01*
X003165Y014174D01*
X003450Y013889D01*
X003165Y013605D01*
X003165Y013174D01*
X003220Y013119D01*
X003220Y011840D01*
X002727Y011347D01*
X002725Y011346D01*
X002676Y011297D01*
X002669Y011289D01*
X002628Y011289D01*
X002335Y010996D01*
X002335Y010705D01*
X001519Y009889D01*
X001378Y009889D01*
X001085Y009596D01*
X001085Y009182D01*
X001320Y008947D01*
X001320Y007660D01*
X001220Y007559D01*
X001120Y007319D01*
X001120Y007059D01*
X001220Y006820D01*
X001403Y006636D01*
X001643Y006537D01*
X002728Y006537D01*
X002967Y006636D01*
X003151Y006820D01*
X003250Y007059D01*
X003250Y007319D01*
X003151Y007559D01*
X002967Y007742D01*
X002728Y007842D01*
X002050Y007842D01*
X002050Y009136D01*
X002050Y009147D01*
X002085Y009182D01*
X002085Y009423D01*
X002145Y009483D01*
X002145Y009457D01*
X002403Y009199D01*
X002585Y009199D01*
X002585Y009639D01*
X002586Y009639D01*
X002586Y009639D01*
X003025Y009639D01*
X003025Y009457D01*
X002768Y009199D01*
X002586Y009199D01*
X002586Y009639D01*
X003025Y009639D01*
X003025Y009821D01*
X002768Y010079D01*
X002741Y010079D01*
X002952Y010289D01*
X003042Y010289D01*
X003320Y010567D01*
X003320Y010563D01*
X003320Y010081D01*
X003085Y009846D01*
X003085Y009432D01*
X003378Y009139D01*
X003792Y009139D01*
X004085Y009432D01*
X004085Y009846D01*
X004050Y009881D01*
X004050Y009892D01*
X004050Y010297D01*
X004335Y010582D01*
X004335Y010996D01*
X004042Y011289D01*
X003701Y011289D01*
X003895Y011483D01*
X003950Y011617D01*
X003950Y011762D01*
X003950Y012919D01*
X004185Y013154D01*
X004470Y012869D01*
X004901Y012869D01*
X005205Y013174D01*
X005205Y013605D01*
X004921Y013889D01*
X005205Y014174D01*
X005205Y014605D01*
X004921Y014889D01*
X004956Y014924D01*
X011534Y014924D01*
X014032Y012427D01*
X013902Y012373D01*
X013761Y012232D01*
X013685Y012049D01*
X013609Y012232D01*
X013469Y012373D01*
X013285Y012449D01*
X013086Y012449D01*
X012902Y012373D01*
X012761Y012232D01*
X012685Y012049D01*
X012609Y012232D01*
X012469Y012373D01*
X012285Y012449D01*
X012086Y012449D01*
X011902Y012373D01*
X011761Y012232D01*
X011685Y012049D01*
X011609Y012232D01*
X011469Y012373D01*
X011285Y012449D01*
X011086Y012449D01*
X010902Y012373D01*
X010761Y012232D01*
X010685Y012049D01*
X010609Y012232D01*
X010469Y012373D01*
X010285Y012449D01*
X010086Y012449D01*
X009902Y012373D01*
X009761Y012232D01*
X009685Y012049D01*
X009609Y012232D01*
X009469Y012373D01*
X009285Y012449D01*
X009086Y012449D01*
X008902Y012373D01*
X008761Y012232D01*
X008685Y012049D01*
X008609Y012232D01*
X008469Y012373D01*
X008285Y012449D01*
X008086Y012449D01*
X007902Y012373D01*
X007761Y012232D01*
X007685Y012049D01*
X007609Y012232D01*
X007469Y012373D01*
X007285Y012449D01*
X007086Y012449D01*
X006902Y012373D01*
X006761Y012232D01*
X006685Y012049D01*
X006685Y011855D01*
X006678Y011848D01*
X006628Y011800D01*
X006628Y011798D01*
X006119Y011289D01*
X005778Y011289D01*
X005485Y010996D01*
X005192Y011289D01*
X004778Y011289D01*
X004485Y010996D01*
X004485Y010582D01*
X004778Y010289D01*
X004869Y010289D01*
X005079Y010079D01*
X005003Y010079D01*
X004745Y009821D01*
X004745Y009639D01*
X004745Y009457D01*
X005003Y009199D01*
X005185Y009199D01*
X005185Y009639D01*
X004745Y009639D01*
X005185Y009639D01*
X005185Y009639D01*
X005186Y009639D01*
X005186Y009199D01*
X005368Y009199D01*
X005625Y009457D01*
X005625Y009533D01*
X005628Y009531D01*
X005628Y009529D01*
X005678Y009480D01*
X005685Y009473D01*
X005685Y009432D01*
X005978Y009139D01*
X006392Y009139D01*
X006645Y009392D01*
X006645Y009282D01*
X006684Y009189D01*
X006645Y009097D01*
X006645Y008282D01*
X006684Y008189D01*
X006645Y008097D01*
X006645Y007282D01*
X006650Y007270D01*
X005526Y006146D01*
X005470Y006012D01*
X005470Y005867D01*
X005470Y003219D01*
X005316Y003155D01*
X005132Y002971D01*
X005033Y002732D01*
X005033Y001647D01*
X005132Y001407D01*
X005316Y001224D01*
X005556Y001124D01*
X005815Y001124D01*
X006055Y001224D01*
X006239Y001407D01*
X006338Y001647D01*
X006338Y002732D01*
X006239Y002971D01*
X006205Y003005D01*
X006200Y003027D01*
X006200Y005788D01*
X007259Y006847D01*
X007264Y006849D01*
X007293Y006849D01*
X007470Y006923D01*
X007470Y006867D01*
X007470Y003219D01*
X007316Y003155D01*
X007132Y002971D01*
X007033Y002732D01*
X007033Y001647D01*
X007132Y001407D01*
X007316Y001224D01*
X007556Y001124D01*
X007815Y001124D01*
X008055Y001224D01*
X008239Y001407D01*
X008338Y001647D01*
X008338Y002732D01*
X008239Y002971D01*
X008205Y003005D01*
X008200Y003027D01*
X008200Y006788D01*
X008259Y006847D01*
X008264Y006849D01*
X008293Y006849D01*
X008491Y006931D01*
X008643Y007083D01*
X008685Y007185D01*
X008728Y007083D01*
X008879Y006931D01*
X009078Y006849D01*
X009107Y006849D01*
X009112Y006847D01*
X009170Y006788D01*
X009170Y003027D01*
X009166Y003005D01*
X009132Y002971D01*
X009033Y002732D01*
X009033Y001647D01*
X009132Y001407D01*
X009316Y001224D01*
X009556Y001124D01*
X009815Y001124D01*
X010055Y001224D01*
X010239Y001407D01*
X010338Y001647D01*
X010338Y002732D01*
X010239Y002971D01*
X010055Y003155D01*
X009900Y003219D01*
X009900Y006867D01*
X009900Y006923D01*
X010078Y006849D01*
X010107Y006849D01*
X010112Y006847D01*
X011170Y005788D01*
X011170Y003027D01*
X011166Y003005D01*
X011132Y002971D01*
X011033Y002732D01*
X011033Y001647D01*
X011132Y001407D01*
X011316Y001224D01*
X011556Y001124D01*
X011815Y001124D01*
X012055Y001224D01*
X012239Y001407D01*
X012338Y001647D01*
X012338Y002732D01*
X012239Y002971D01*
X012055Y003155D01*
X011900Y003219D01*
X011900Y005867D01*
X011900Y006012D01*
X011868Y006091D01*
X013170Y004788D01*
X013170Y003027D01*
X013166Y003005D01*
X013132Y002971D01*
X013033Y002732D01*
X013033Y001647D01*
X013132Y001407D01*
X013316Y001224D01*
X013556Y001124D01*
X013815Y001124D01*
X014055Y001224D01*
X014239Y001407D01*
X014338Y001647D01*
X014338Y002732D01*
X014239Y002971D01*
X014055Y003155D01*
X013900Y003219D01*
X013900Y004867D01*
X013900Y005012D01*
X013868Y005091D01*
X015170Y003788D01*
X015170Y003027D01*
X015166Y003005D01*
X015132Y002971D01*
X015033Y002732D01*
X015033Y001647D01*
X015132Y001407D01*
X015316Y001224D01*
X015556Y001124D01*
X015815Y001124D01*
X016055Y001224D01*
X016239Y001407D01*
X016338Y001647D01*
X016338Y002732D01*
X016239Y002971D01*
X016055Y003155D01*
X015900Y003219D01*
X015900Y003867D01*
X015900Y004008D01*
X017075Y002833D01*
X017033Y002732D01*
X017033Y001647D01*
X017132Y001407D01*
X017316Y001224D01*
X017556Y001124D01*
X017815Y001124D01*
X018055Y001224D01*
X018239Y001407D01*
X018338Y001647D01*
X018338Y002732D01*
X018275Y002884D01*
X018729Y002430D01*
X018863Y002374D01*
X019008Y002374D01*
X019033Y002374D01*
X019033Y001647D01*
X019132Y001407D01*
X019316Y001224D01*
X019556Y001124D01*
X019815Y001124D01*
X020055Y001224D01*
X020239Y001407D01*
X020338Y001647D01*
X020338Y002426D01*
X020463Y002374D01*
X020608Y002374D01*
X021533Y002374D01*
X021533Y001647D01*
X021632Y001407D01*
X021816Y001224D01*
X022056Y001124D01*
X022315Y001124D01*
X022555Y001224D01*
X022739Y001407D01*
X022838Y001647D01*
X022838Y002732D01*
X022739Y002971D01*
X022555Y003155D01*
X022315Y003254D01*
X022056Y003254D01*
X021816Y003155D01*
X021772Y003111D01*
X021771Y003111D01*
X021742Y003104D01*
X020687Y003104D01*
X016795Y006996D01*
X016692Y007099D01*
X016656Y007114D01*
X016685Y007185D01*
X016728Y007083D01*
X016879Y006931D01*
X017078Y006849D01*
X017293Y006849D01*
X017491Y006931D01*
X017643Y007083D01*
X017718Y007264D01*
X017778Y007117D01*
X017913Y006982D01*
X018090Y006909D01*
X018165Y006909D01*
X018165Y007669D01*
X018205Y007669D01*
X018205Y006909D01*
X018281Y006909D01*
X018457Y006982D01*
X018592Y007117D01*
X018665Y007294D01*
X018665Y007669D01*
X018206Y007669D01*
X018206Y007709D01*
X018665Y007709D01*
X018665Y008085D01*
X018622Y008189D01*
X018665Y008294D01*
X018665Y008669D01*
X018206Y008669D01*
X018206Y008709D01*
X018665Y008709D01*
X018665Y009085D01*
X018622Y009189D01*
X018665Y009294D01*
X018665Y009669D01*
X018206Y009669D01*
X018206Y009709D01*
X018665Y009709D01*
X018665Y010085D01*
X018592Y010261D01*
X018457Y010396D01*
X018281Y010469D01*
X018205Y010469D01*
X018205Y009710D01*
X018165Y009710D01*
X018165Y010469D01*
X018090Y010469D01*
X017913Y010396D01*
X017778Y010261D01*
X017718Y010115D01*
X017643Y010295D01*
X017491Y010447D01*
X017293Y010529D01*
X017078Y010529D01*
X016879Y010447D01*
X016728Y010295D01*
X016685Y010193D01*
X016643Y010295D01*
X016550Y010388D01*
X016550Y011087D01*
X016609Y011146D01*
X016685Y011330D01*
X016685Y012049D01*
X016609Y012232D01*
X016469Y012373D01*
X016285Y012449D01*
X016086Y012449D01*
X015902Y012373D01*
X015761Y012232D01*
X015685Y012049D01*
X015609Y012232D01*
X015469Y012373D01*
X015285Y012449D01*
X015086Y012449D01*
X015055Y012436D01*
X011892Y015599D01*
X011849Y015617D02*
X016720Y015617D01*
X016720Y015775D02*
X005035Y015775D01*
X004336Y015775D02*
X003950Y015775D01*
X003876Y015849D02*
X003695Y015849D01*
X003695Y015400D01*
X003675Y015400D01*
X003675Y015849D01*
X003495Y015849D01*
X003225Y015580D01*
X003225Y015399D01*
X003675Y015399D01*
X003675Y015379D01*
X003225Y015379D01*
X003225Y015199D01*
X003495Y014929D01*
X003675Y014929D01*
X003675Y015379D01*
X003695Y015379D01*
X003695Y014929D01*
X003876Y014929D01*
X004145Y015199D01*
X004145Y015379D01*
X003696Y015379D01*
X003696Y015399D01*
X004145Y015399D01*
X004145Y015580D01*
X003876Y015849D01*
X003695Y015775D02*
X003675Y015775D01*
X003675Y015617D02*
X003695Y015617D01*
X003695Y015458D02*
X003675Y015458D01*
X003675Y015300D02*
X003695Y015300D01*
X003695Y015141D02*
X003675Y015141D01*
X003675Y014983D02*
X003695Y014983D01*
X003929Y014983D02*
X004357Y014983D01*
X004385Y014824D02*
X003986Y014824D01*
X004144Y014665D02*
X004226Y014665D01*
X003442Y014983D02*
X002375Y014983D01*
X002375Y015047D02*
X002375Y014832D01*
X002293Y014633D01*
X002141Y014481D01*
X001961Y014407D01*
X002107Y014346D01*
X002242Y014211D01*
X002315Y014035D01*
X002315Y013959D01*
X001556Y013959D01*
X001556Y013919D01*
X002315Y013919D01*
X002315Y013844D01*
X002242Y013667D01*
X002107Y013532D01*
X001931Y013459D01*
X001555Y013459D01*
X001555Y013919D01*
X001515Y013919D01*
X001515Y013459D01*
X001140Y013459D01*
X000963Y013532D01*
X000828Y013667D01*
X000780Y013784D01*
X000780Y013095D01*
X000828Y013211D01*
X000963Y013346D01*
X001140Y013419D01*
X001515Y013419D01*
X001515Y012960D01*
X001555Y012960D01*
X001555Y013419D01*
X001931Y013419D01*
X002107Y013346D01*
X002242Y013211D01*
X002315Y013035D01*
X002315Y012959D01*
X001556Y012959D01*
X001556Y012919D01*
X002315Y012919D01*
X002315Y012844D01*
X002242Y012667D01*
X002107Y012532D01*
X001931Y012459D01*
X001555Y012459D01*
X001555Y012919D01*
X001515Y012919D01*
X001515Y012459D01*
X001140Y012459D01*
X000963Y012532D01*
X000828Y012667D01*
X000780Y012784D01*
X000780Y003077D01*
X000954Y003332D01*
X000954Y003332D01*
X001345Y003644D01*
X001345Y003644D01*
X001811Y003827D01*
X001812Y003827D01*
X002311Y003865D01*
X002311Y003865D01*
X002799Y003753D01*
X002799Y003753D01*
X003233Y003503D01*
X003233Y003503D01*
X003573Y003136D01*
X003573Y003136D01*
X003791Y002684D01*
X003791Y002684D01*
X003865Y002189D01*
X003791Y001694D01*
X003791Y001694D01*
X003573Y001243D01*
X003573Y001243D01*
X003233Y000876D01*
X003233Y000876D01*
X003233Y000876D01*
X003227Y000872D02*
X038173Y000872D01*
X037974Y001031D02*
X003376Y001031D01*
X003524Y001189D02*
X005398Y001189D01*
X005191Y001348D02*
X003624Y001348D01*
X003700Y001506D02*
X005091Y001506D01*
X005033Y001665D02*
X003777Y001665D01*
X003810Y001823D02*
X005033Y001823D01*
X005033Y001982D02*
X003834Y001982D01*
X003858Y002141D02*
X005033Y002141D01*
X005033Y002299D02*
X003849Y002299D01*
X003825Y002458D02*
X005033Y002458D01*
X005033Y002616D02*
X003801Y002616D01*
X003747Y002775D02*
X005051Y002775D01*
X005116Y002933D02*
X003671Y002933D01*
X003594Y003092D02*
X005253Y003092D01*
X005470Y003250D02*
X003467Y003250D01*
X003320Y003409D02*
X005470Y003409D01*
X005470Y003567D02*
X003121Y003567D01*
X002846Y003726D02*
X005470Y003726D01*
X005470Y003885D02*
X000780Y003885D01*
X000780Y004043D02*
X005470Y004043D01*
X005470Y004202D02*
X000780Y004202D01*
X000780Y004360D02*
X005470Y004360D01*
X005470Y004519D02*
X000780Y004519D01*
X000780Y004677D02*
X001461Y004677D01*
X001437Y004687D02*
X001655Y004597D01*
X002128Y004597D01*
X002128Y005132D01*
X001180Y005132D01*
X001180Y005071D01*
X001271Y004854D01*
X001437Y004687D01*
X001288Y004836D02*
X000780Y004836D01*
X000780Y004994D02*
X001212Y004994D01*
X001180Y005247D02*
X002128Y005247D01*
X002128Y005782D01*
X001655Y005782D01*
X001437Y005692D01*
X001271Y005525D01*
X001180Y005307D01*
X001180Y005247D01*
X001182Y005311D02*
X000780Y005311D01*
X000780Y005153D02*
X002128Y005153D01*
X002128Y005132D02*
X002128Y005247D01*
X002243Y005247D01*
X002243Y005782D01*
X002716Y005782D01*
X002934Y005692D01*
X003100Y005525D01*
X003190Y005307D01*
X003190Y005247D01*
X002243Y005247D01*
X002243Y005132D01*
X003190Y005132D01*
X003190Y005071D01*
X003100Y004854D01*
X002934Y004687D01*
X002716Y004597D01*
X002243Y004597D01*
X002243Y005132D01*
X002128Y005132D01*
X002243Y005153D02*
X005470Y005153D01*
X005470Y005311D02*
X003189Y005311D01*
X003123Y005470D02*
X005470Y005470D01*
X005470Y005629D02*
X002997Y005629D01*
X002243Y005629D02*
X002128Y005629D01*
X002128Y005470D02*
X002243Y005470D01*
X002243Y005311D02*
X002128Y005311D01*
X002128Y004994D02*
X002243Y004994D01*
X002243Y004836D02*
X002128Y004836D01*
X002128Y004677D02*
X002243Y004677D01*
X002910Y004677D02*
X005470Y004677D01*
X005470Y004836D02*
X003082Y004836D01*
X003158Y004994D02*
X005470Y004994D01*
X006200Y004994D02*
X007470Y004994D01*
X007470Y004836D02*
X006200Y004836D01*
X006200Y004677D02*
X007470Y004677D01*
X007470Y004519D02*
X006200Y004519D01*
X006200Y004360D02*
X007470Y004360D01*
X007470Y004202D02*
X006200Y004202D01*
X006200Y004043D02*
X007470Y004043D01*
X007470Y003885D02*
X006200Y003885D01*
X006200Y003726D02*
X007470Y003726D01*
X007470Y003567D02*
X006200Y003567D01*
X006200Y003409D02*
X007470Y003409D01*
X007470Y003250D02*
X006200Y003250D01*
X006200Y003092D02*
X007253Y003092D01*
X007116Y002933D02*
X006254Y002933D01*
X006320Y002775D02*
X007051Y002775D01*
X007033Y002616D02*
X006338Y002616D01*
X006338Y002458D02*
X007033Y002458D01*
X007033Y002299D02*
X006338Y002299D01*
X006338Y002141D02*
X007033Y002141D01*
X007033Y001982D02*
X006338Y001982D01*
X006338Y001823D02*
X007033Y001823D01*
X007033Y001665D02*
X006338Y001665D01*
X006280Y001506D02*
X007091Y001506D01*
X007191Y001348D02*
X006179Y001348D01*
X005972Y001189D02*
X007398Y001189D01*
X007972Y001189D02*
X009398Y001189D01*
X009191Y001348D02*
X008179Y001348D01*
X008280Y001506D02*
X009091Y001506D01*
X009033Y001665D02*
X008338Y001665D01*
X008338Y001823D02*
X009033Y001823D01*
X009033Y001982D02*
X008338Y001982D01*
X008338Y002141D02*
X009033Y002141D01*
X009033Y002299D02*
X008338Y002299D01*
X008338Y002458D02*
X009033Y002458D01*
X009033Y002616D02*
X008338Y002616D01*
X008320Y002775D02*
X009051Y002775D01*
X009116Y002933D02*
X008254Y002933D01*
X008200Y003092D02*
X009170Y003092D01*
X009170Y003250D02*
X008200Y003250D01*
X008200Y003409D02*
X009170Y003409D01*
X009170Y003567D02*
X008200Y003567D01*
X008200Y003726D02*
X009170Y003726D01*
X009170Y003885D02*
X008200Y003885D01*
X008200Y004043D02*
X009170Y004043D01*
X009170Y004202D02*
X008200Y004202D01*
X008200Y004360D02*
X009170Y004360D01*
X009170Y004519D02*
X008200Y004519D01*
X008200Y004677D02*
X009170Y004677D01*
X009170Y004836D02*
X008200Y004836D01*
X008200Y004994D02*
X009170Y004994D01*
X009170Y005153D02*
X008200Y005153D01*
X008200Y005311D02*
X009170Y005311D01*
X009170Y005470D02*
X008200Y005470D01*
X008200Y005629D02*
X009170Y005629D01*
X009170Y005787D02*
X008200Y005787D01*
X008200Y005946D02*
X009170Y005946D01*
X009170Y006104D02*
X008200Y006104D01*
X008200Y006263D02*
X009170Y006263D01*
X009170Y006421D02*
X008200Y006421D01*
X008200Y006580D02*
X009170Y006580D01*
X009170Y006738D02*
X008200Y006738D01*
X008408Y006897D02*
X008963Y006897D01*
X008756Y007055D02*
X008615Y007055D01*
X007470Y006897D02*
X007408Y006897D01*
X007470Y006738D02*
X007151Y006738D01*
X006992Y006580D02*
X007470Y006580D01*
X007470Y006421D02*
X006833Y006421D01*
X006675Y006263D02*
X007470Y006263D01*
X007470Y006104D02*
X006516Y006104D01*
X006358Y005946D02*
X007470Y005946D01*
X007470Y005787D02*
X006200Y005787D01*
X006200Y005629D02*
X007470Y005629D01*
X007470Y005470D02*
X006200Y005470D01*
X006200Y005311D02*
X007470Y005311D01*
X007470Y005153D02*
X006200Y005153D01*
X005470Y005787D02*
X000780Y005787D01*
X000780Y005629D02*
X001374Y005629D01*
X001248Y005470D02*
X000780Y005470D01*
X000780Y005946D02*
X005470Y005946D01*
X005509Y006104D02*
X000780Y006104D01*
X000780Y006263D02*
X005643Y006263D01*
X005801Y006421D02*
X000780Y006421D01*
X000780Y006580D02*
X001539Y006580D01*
X001301Y006738D02*
X000780Y006738D01*
X000780Y006897D02*
X001188Y006897D01*
X001122Y007055D02*
X000780Y007055D01*
X000780Y007214D02*
X001120Y007214D01*
X001142Y007372D02*
X000780Y007372D01*
X000780Y007531D02*
X001208Y007531D01*
X001320Y007690D02*
X000780Y007690D01*
X000780Y007848D02*
X001320Y007848D01*
X001320Y008007D02*
X000780Y008007D01*
X000780Y008165D02*
X001320Y008165D01*
X001320Y008324D02*
X000780Y008324D01*
X000780Y008482D02*
X001320Y008482D01*
X001320Y008641D02*
X000780Y008641D01*
X000780Y008799D02*
X001320Y008799D01*
X001310Y008958D02*
X000780Y008958D01*
X000780Y009116D02*
X001151Y009116D01*
X001085Y009275D02*
X000780Y009275D01*
X000780Y009434D02*
X001085Y009434D01*
X001085Y009592D02*
X000780Y009592D01*
X000780Y009751D02*
X001240Y009751D01*
X001539Y009909D02*
X000780Y009909D01*
X000780Y010068D02*
X001698Y010068D01*
X001856Y010226D02*
X000780Y010226D01*
X000780Y010385D02*
X002015Y010385D01*
X002173Y010543D02*
X000780Y010543D01*
X000780Y010702D02*
X002332Y010702D01*
X002335Y010860D02*
X000780Y010860D01*
X000780Y011019D02*
X001333Y011019D01*
X001403Y010949D02*
X001145Y011207D01*
X001145Y011389D01*
X001585Y011389D01*
X001585Y011389D01*
X001586Y011389D01*
X001586Y011389D01*
X002025Y011389D01*
X002025Y011207D01*
X001768Y010949D01*
X001586Y010949D01*
X001586Y011389D01*
X002025Y011389D01*
X002025Y011571D01*
X001768Y011829D01*
X001586Y011829D01*
X001586Y011390D01*
X001585Y011390D01*
X001585Y011829D01*
X001403Y011829D01*
X001145Y011571D01*
X001145Y011389D01*
X001585Y011389D01*
X001585Y010949D01*
X001403Y010949D01*
X001585Y011019D02*
X001586Y011019D01*
X001585Y011178D02*
X001586Y011178D01*
X001585Y011336D02*
X001586Y011336D01*
X001585Y011495D02*
X001586Y011495D01*
X001585Y011653D02*
X001586Y011653D01*
X001585Y011812D02*
X001586Y011812D01*
X001785Y011812D02*
X003192Y011812D01*
X003220Y011970D02*
X000780Y011970D01*
X000780Y011812D02*
X001386Y011812D01*
X001227Y011653D02*
X000780Y011653D01*
X000780Y011495D02*
X001145Y011495D01*
X001145Y011336D02*
X000780Y011336D01*
X000780Y011178D02*
X001175Y011178D01*
X001837Y011019D02*
X002358Y011019D01*
X002516Y011178D02*
X001996Y011178D01*
X002025Y011336D02*
X002715Y011336D01*
X002875Y011495D02*
X002025Y011495D01*
X001944Y011653D02*
X003033Y011653D01*
X003748Y011336D02*
X006166Y011336D01*
X006325Y011495D02*
X003900Y011495D01*
X003950Y011653D02*
X006483Y011653D01*
X006641Y011812D02*
X003950Y011812D01*
X003950Y011970D02*
X006685Y011970D01*
X006719Y012129D02*
X003950Y012129D01*
X003950Y012287D02*
X006816Y012287D01*
X007078Y012446D02*
X003950Y012446D01*
X003950Y012604D02*
X013854Y012604D01*
X014013Y012446D02*
X013293Y012446D01*
X013078Y012446D02*
X012293Y012446D01*
X012078Y012446D02*
X011293Y012446D01*
X011078Y012446D02*
X010293Y012446D01*
X010078Y012446D02*
X009293Y012446D01*
X009078Y012446D02*
X008293Y012446D01*
X008078Y012446D02*
X007293Y012446D01*
X007554Y012287D02*
X007816Y012287D01*
X007719Y012129D02*
X007652Y012129D01*
X007685Y012049D02*
X007685Y011330D01*
X007609Y011146D01*
X007550Y011087D01*
X007550Y010388D01*
X007643Y010295D01*
X007685Y010193D01*
X007728Y010295D01*
X007820Y010388D01*
X007820Y011087D01*
X007761Y011146D01*
X007685Y011330D01*
X007685Y012049D01*
X007685Y011970D02*
X007685Y011970D01*
X007685Y011812D02*
X007685Y011812D01*
X007685Y011653D02*
X007685Y011653D01*
X007685Y011495D02*
X007685Y011495D01*
X007685Y011336D02*
X007685Y011336D01*
X007622Y011178D02*
X007748Y011178D01*
X007820Y011019D02*
X007550Y011019D01*
X007550Y010860D02*
X007820Y010860D01*
X007820Y010702D02*
X007550Y010702D01*
X007550Y010543D02*
X007820Y010543D01*
X007817Y010385D02*
X007553Y010385D01*
X007672Y010226D02*
X007699Y010226D01*
X008550Y010388D02*
X008550Y011087D01*
X008609Y011146D01*
X008685Y011330D01*
X008685Y012049D01*
X008685Y011330D01*
X008761Y011146D01*
X008820Y011087D01*
X008820Y010388D01*
X008728Y010295D01*
X008685Y010193D01*
X008643Y010295D01*
X008550Y010388D01*
X008553Y010385D02*
X008817Y010385D01*
X008820Y010543D02*
X008550Y010543D01*
X008550Y010702D02*
X008820Y010702D01*
X008820Y010860D02*
X008550Y010860D01*
X008550Y011019D02*
X008820Y011019D01*
X008748Y011178D02*
X008622Y011178D01*
X008685Y011336D02*
X008685Y011336D01*
X008685Y011495D02*
X008685Y011495D01*
X008685Y011653D02*
X008685Y011653D01*
X008685Y011812D02*
X008685Y011812D01*
X008685Y011970D02*
X008685Y011970D01*
X008652Y012129D02*
X008719Y012129D01*
X008816Y012287D02*
X008554Y012287D01*
X009554Y012287D02*
X009816Y012287D01*
X009719Y012129D02*
X009652Y012129D01*
X009685Y012049D02*
X009685Y011330D01*
X009609Y011146D01*
X009550Y011087D01*
X009550Y010388D01*
X009643Y010295D01*
X009685Y010193D01*
X009728Y010295D01*
X009820Y010388D01*
X009820Y011087D01*
X009761Y011146D01*
X009685Y011330D01*
X009685Y012049D01*
X009685Y011970D02*
X009685Y011970D01*
X009685Y011812D02*
X009685Y011812D01*
X009685Y011653D02*
X009685Y011653D01*
X009685Y011495D02*
X009685Y011495D01*
X009685Y011336D02*
X009685Y011336D01*
X009622Y011178D02*
X009748Y011178D01*
X009820Y011019D02*
X009550Y011019D01*
X009550Y010860D02*
X009820Y010860D01*
X009820Y010702D02*
X009550Y010702D01*
X009550Y010543D02*
X009820Y010543D01*
X009817Y010385D02*
X009553Y010385D01*
X009672Y010226D02*
X009699Y010226D01*
X010550Y010388D02*
X010550Y011087D01*
X010609Y011146D01*
X010685Y011330D01*
X010685Y012049D01*
X010685Y011330D01*
X010761Y011146D01*
X010820Y011087D01*
X010820Y010388D01*
X010728Y010295D01*
X010685Y010193D01*
X010643Y010295D01*
X010550Y010388D01*
X010553Y010385D02*
X010817Y010385D01*
X010820Y010543D02*
X010550Y010543D01*
X010550Y010702D02*
X010820Y010702D01*
X010820Y010860D02*
X010550Y010860D01*
X010550Y011019D02*
X010820Y011019D01*
X010748Y011178D02*
X010622Y011178D01*
X010685Y011336D02*
X010685Y011336D01*
X010685Y011495D02*
X010685Y011495D01*
X010685Y011653D02*
X010685Y011653D01*
X010685Y011812D02*
X010685Y011812D01*
X010685Y011970D02*
X010685Y011970D01*
X010652Y012129D02*
X010719Y012129D01*
X010816Y012287D02*
X010554Y012287D01*
X011554Y012287D02*
X011816Y012287D01*
X011719Y012129D02*
X011652Y012129D01*
X011685Y012049D02*
X011685Y011330D01*
X011609Y011146D01*
X011550Y011087D01*
X011550Y010388D01*
X011643Y010295D01*
X011685Y010193D01*
X011728Y010295D01*
X011820Y010388D01*
X011820Y011087D01*
X011761Y011146D01*
X011685Y011330D01*
X011685Y012049D01*
X011685Y011970D02*
X011685Y011970D01*
X011685Y011812D02*
X011685Y011812D01*
X011685Y011653D02*
X011685Y011653D01*
X011685Y011495D02*
X011685Y011495D01*
X011685Y011336D02*
X011685Y011336D01*
X011622Y011178D02*
X011748Y011178D01*
X011820Y011019D02*
X011550Y011019D01*
X011550Y010860D02*
X011820Y010860D01*
X011820Y010702D02*
X011550Y010702D01*
X011550Y010543D02*
X011820Y010543D01*
X011817Y010385D02*
X011553Y010385D01*
X011672Y010226D02*
X011699Y010226D01*
X012550Y010388D02*
X012550Y011087D01*
X012609Y011146D01*
X012685Y011330D01*
X012685Y012049D01*
X012685Y011330D01*
X012761Y011146D01*
X012820Y011087D01*
X012820Y010388D01*
X012728Y010295D01*
X012685Y010193D01*
X012643Y010295D01*
X012550Y010388D01*
X012553Y010385D02*
X012817Y010385D01*
X012820Y010543D02*
X012550Y010543D01*
X012550Y010702D02*
X012820Y010702D01*
X012820Y010860D02*
X012550Y010860D01*
X012550Y011019D02*
X012820Y011019D01*
X012748Y011178D02*
X012622Y011178D01*
X012685Y011336D02*
X012685Y011336D01*
X012685Y011495D02*
X012685Y011495D01*
X012685Y011653D02*
X012685Y011653D01*
X012685Y011812D02*
X012685Y011812D01*
X012685Y011970D02*
X012685Y011970D01*
X012652Y012129D02*
X012719Y012129D01*
X012816Y012287D02*
X012554Y012287D01*
X013554Y012287D02*
X013816Y012287D01*
X013719Y012129D02*
X013652Y012129D01*
X013685Y012049D02*
X013685Y011330D01*
X013609Y011146D01*
X013550Y011087D01*
X013550Y010388D01*
X013643Y010295D01*
X013685Y010193D01*
X013728Y010295D01*
X013820Y010388D01*
X013820Y011087D01*
X013761Y011146D01*
X013685Y011330D01*
X013685Y012049D01*
X013685Y011970D02*
X013685Y011970D01*
X013685Y011812D02*
X013685Y011812D01*
X013685Y011653D02*
X013685Y011653D01*
X013685Y011495D02*
X013685Y011495D01*
X013685Y011336D02*
X013685Y011336D01*
X013622Y011178D02*
X013748Y011178D01*
X013820Y011019D02*
X013550Y011019D01*
X013550Y010860D02*
X013820Y010860D01*
X013820Y010702D02*
X013550Y010702D01*
X013550Y010543D02*
X013820Y010543D01*
X013817Y010385D02*
X013553Y010385D01*
X013672Y010226D02*
X013699Y010226D01*
X012699Y010226D02*
X012672Y010226D01*
X010699Y010226D02*
X010672Y010226D01*
X008699Y010226D02*
X008672Y010226D01*
X006648Y009275D02*
X006528Y009275D01*
X006654Y009116D02*
X002050Y009116D01*
X002050Y008958D02*
X006645Y008958D01*
X006645Y008799D02*
X002050Y008799D01*
X002050Y008641D02*
X006645Y008641D01*
X006645Y008482D02*
X002050Y008482D01*
X002050Y008324D02*
X006645Y008324D01*
X006674Y008165D02*
X002050Y008165D01*
X002050Y008007D02*
X006645Y008007D01*
X006645Y007848D02*
X002050Y007848D01*
X003020Y007690D02*
X006645Y007690D01*
X006645Y007531D02*
X003163Y007531D01*
X003228Y007372D02*
X006645Y007372D01*
X006594Y007214D02*
X003250Y007214D01*
X003249Y007055D02*
X006435Y007055D01*
X006277Y006897D02*
X003183Y006897D01*
X003070Y006738D02*
X006118Y006738D01*
X005960Y006580D02*
X002831Y006580D01*
X002843Y009275D02*
X003243Y009275D01*
X003085Y009434D02*
X003002Y009434D01*
X003025Y009592D02*
X003085Y009592D01*
X003085Y009751D02*
X003025Y009751D01*
X002938Y009909D02*
X003148Y009909D01*
X003307Y010068D02*
X002779Y010068D01*
X002888Y010226D02*
X003320Y010226D01*
X003320Y010385D02*
X003138Y010385D01*
X003296Y010543D02*
X003320Y010543D01*
X004050Y010226D02*
X004932Y010226D01*
X004992Y010068D02*
X004050Y010068D01*
X004050Y009909D02*
X004833Y009909D01*
X004745Y009751D02*
X004085Y009751D01*
X004085Y009592D02*
X004745Y009592D01*
X004769Y009434D02*
X004085Y009434D01*
X003928Y009275D02*
X004927Y009275D01*
X005185Y009275D02*
X005186Y009275D01*
X005185Y009434D02*
X005186Y009434D01*
X005185Y009592D02*
X005186Y009592D01*
X005443Y009275D02*
X005843Y009275D01*
X005685Y009434D02*
X005602Y009434D01*
X004683Y010385D02*
X004138Y010385D01*
X004296Y010543D02*
X004524Y010543D01*
X004485Y010702D02*
X004335Y010702D01*
X004335Y010860D02*
X004485Y010860D01*
X004508Y011019D02*
X004313Y011019D01*
X004154Y011178D02*
X004666Y011178D01*
X005304Y011178D02*
X005666Y011178D01*
X005508Y011019D02*
X005463Y011019D01*
X005485Y010996D02*
X005485Y010705D01*
X005485Y010705D01*
X005485Y010996D01*
X005485Y010860D02*
X005485Y010860D01*
X003220Y012129D02*
X000780Y012129D01*
X000780Y012287D02*
X003220Y012287D01*
X003220Y012446D02*
X000780Y012446D01*
X000780Y012604D02*
X000891Y012604D01*
X000789Y012763D02*
X000780Y012763D01*
X000780Y013239D02*
X000856Y013239D01*
X000780Y013397D02*
X001086Y013397D01*
X000940Y013556D02*
X000780Y013556D01*
X000780Y013714D02*
X000809Y013714D01*
X001515Y013714D02*
X001555Y013714D01*
X001555Y013556D02*
X001515Y013556D01*
X001515Y013397D02*
X001555Y013397D01*
X001555Y013239D02*
X001515Y013239D01*
X001515Y013080D02*
X001555Y013080D01*
X001556Y012921D02*
X003220Y012921D01*
X003220Y012763D02*
X002282Y012763D01*
X002179Y012604D02*
X003220Y012604D01*
X003220Y013080D02*
X002297Y013080D01*
X002215Y013239D02*
X003165Y013239D01*
X003165Y013397D02*
X001984Y013397D01*
X002131Y013556D02*
X003165Y013556D01*
X003275Y013714D02*
X002262Y013714D01*
X002315Y013873D02*
X003434Y013873D01*
X003308Y014031D02*
X002315Y014031D01*
X002251Y014190D02*
X003165Y014190D01*
X003165Y014348D02*
X002102Y014348D01*
X002167Y014507D02*
X003165Y014507D01*
X003226Y014665D02*
X002306Y014665D01*
X002372Y014824D02*
X003385Y014824D01*
X003283Y015141D02*
X002453Y015141D01*
X002370Y015058D02*
X003162Y015849D01*
X003173Y015849D01*
X003335Y015916D01*
X003458Y016040D01*
X003525Y016202D01*
X003525Y016377D01*
X003506Y016424D01*
X013628Y016424D01*
X013636Y016416D01*
X013798Y016349D01*
X013973Y016349D01*
X014135Y016416D01*
X014258Y016540D01*
X014325Y016702D01*
X014325Y016877D01*
X014301Y016936D01*
X014469Y017005D01*
X014609Y017146D01*
X014685Y017330D01*
X014685Y018049D01*
X014609Y018232D01*
X014550Y018291D01*
X014550Y018991D01*
X014643Y019083D01*
X014685Y019185D01*
X014728Y019083D01*
X014820Y018991D01*
X014820Y018291D01*
X014761Y018232D01*
X014685Y018049D01*
X014685Y017330D01*
X014761Y017146D01*
X014902Y017005D01*
X015086Y016929D01*
X015285Y016929D01*
X015469Y017005D01*
X015609Y017146D01*
X015685Y017330D01*
X015685Y018049D01*
X015609Y018232D01*
X015550Y018291D01*
X015550Y018991D01*
X015643Y019083D01*
X015718Y019264D01*
X015778Y019117D01*
X015913Y018982D01*
X016090Y018909D01*
X016165Y018909D01*
X016165Y019669D01*
X016205Y019669D01*
X016205Y018909D01*
X016281Y018909D01*
X016457Y018982D01*
X016592Y019117D01*
X016653Y019264D01*
X016728Y019083D01*
X016820Y018991D01*
X016820Y018946D02*
X016370Y018946D01*
X016205Y018946D02*
X016165Y018946D01*
X016165Y019105D02*
X016205Y019105D01*
X016205Y019263D02*
X016165Y019263D01*
X016165Y019422D02*
X016205Y019422D01*
X016205Y019580D02*
X016165Y019580D01*
X016165Y019710D02*
X016165Y020469D01*
X016165Y020669D01*
X016205Y020669D01*
X016205Y020469D01*
X016205Y019710D01*
X016165Y019710D01*
X016165Y019739D02*
X016205Y019739D01*
X016205Y019897D02*
X016165Y019897D01*
X016165Y020056D02*
X016205Y020056D01*
X016205Y020214D02*
X016165Y020214D01*
X016165Y020373D02*
X016205Y020373D01*
X016205Y020532D02*
X016165Y020532D01*
X016165Y020710D02*
X016165Y020909D01*
X016165Y021669D01*
X016205Y021669D01*
X016205Y020909D01*
X016205Y020710D01*
X016165Y020710D01*
X016165Y020849D02*
X016205Y020849D01*
X016205Y021007D02*
X016165Y021007D01*
X016165Y021166D02*
X016205Y021166D01*
X016205Y021324D02*
X016165Y021324D01*
X016165Y021483D02*
X016205Y021483D01*
X016205Y021641D02*
X016165Y021641D01*
X016165Y021800D02*
X016205Y021800D01*
X016205Y021958D02*
X016165Y021958D01*
X016165Y022117D02*
X016205Y022117D01*
X016205Y022276D02*
X016165Y022276D01*
X016165Y022434D02*
X016205Y022434D01*
X016205Y022593D02*
X018173Y022593D01*
X018331Y022751D02*
X016363Y022751D01*
X016522Y022910D02*
X018490Y022910D01*
X018648Y023068D02*
X016680Y023068D01*
X016839Y023227D02*
X018807Y023227D01*
X018965Y023385D02*
X016998Y023385D01*
X017156Y023544D02*
X019124Y023544D01*
X019170Y023702D02*
X017315Y023702D01*
X017473Y023861D02*
X019170Y023861D01*
X019170Y024020D02*
X017632Y024020D01*
X017790Y024178D02*
X019170Y024178D01*
X019170Y024337D02*
X017888Y024337D01*
X017900Y024495D02*
X019170Y024495D01*
X019170Y024654D02*
X017900Y024654D01*
X017900Y024812D02*
X019170Y024812D01*
X019170Y024971D02*
X017900Y024971D01*
X017900Y025129D02*
X019170Y025129D01*
X019170Y025288D02*
X017900Y025288D01*
X017900Y025446D02*
X019170Y025446D01*
X019170Y025605D02*
X017900Y025605D01*
X018095Y025764D02*
X019170Y025764D01*
X019126Y025922D02*
X018245Y025922D01*
X018310Y026081D02*
X019060Y026081D01*
X019033Y026239D02*
X018338Y026239D01*
X018338Y026398D02*
X019033Y026398D01*
X019033Y026556D02*
X018338Y026556D01*
X018338Y026715D02*
X019033Y026715D01*
X019033Y026873D02*
X018338Y026873D01*
X018338Y027032D02*
X019033Y027032D01*
X019033Y027190D02*
X018338Y027190D01*
X018289Y027349D02*
X019081Y027349D01*
X019168Y027507D02*
X018202Y027507D01*
X018028Y027666D02*
X019342Y027666D01*
X020028Y027666D02*
X021842Y027666D01*
X021668Y027507D02*
X020202Y027507D01*
X020289Y027349D02*
X021581Y027349D01*
X021533Y027190D02*
X020338Y027190D01*
X020338Y027032D02*
X021533Y027032D01*
X021533Y026873D02*
X020338Y026873D01*
X020338Y026715D02*
X021533Y026715D01*
X021533Y026556D02*
X020338Y026556D01*
X020338Y026398D02*
X021533Y026398D01*
X021533Y026239D02*
X020338Y026239D01*
X020310Y026081D02*
X021560Y026081D01*
X021626Y025922D02*
X020245Y025922D01*
X020095Y025764D02*
X021670Y025764D01*
X021670Y025605D02*
X019900Y025605D01*
X019900Y025446D02*
X021670Y025446D01*
X021670Y025288D02*
X019900Y025288D01*
X019900Y025129D02*
X021670Y025129D01*
X021551Y024971D02*
X019900Y024971D01*
X019900Y024812D02*
X021392Y024812D01*
X021234Y024654D02*
X019900Y024654D01*
X019900Y024495D02*
X021075Y024495D01*
X020916Y024337D02*
X019900Y024337D01*
X019900Y024178D02*
X020758Y024178D01*
X020599Y024020D02*
X019900Y024020D01*
X019900Y023861D02*
X020441Y023861D01*
X020282Y023702D02*
X019900Y023702D01*
X019900Y023544D02*
X020124Y023544D01*
X019965Y023385D02*
X019900Y023385D01*
X017866Y022434D02*
X017504Y022434D01*
X017651Y022276D02*
X017719Y022276D01*
X016866Y022434D02*
X016366Y022434D01*
X016578Y022276D02*
X016719Y022276D01*
X016654Y022117D02*
X016652Y022117D01*
X015965Y023385D02*
X015900Y023385D01*
X015900Y023544D02*
X016124Y023544D01*
X016282Y023702D02*
X015900Y023702D01*
X015900Y023861D02*
X016441Y023861D01*
X016599Y024020D02*
X015900Y024020D01*
X015900Y024178D02*
X016758Y024178D01*
X016917Y024337D02*
X015900Y024337D01*
X015900Y024495D02*
X017075Y024495D01*
X017170Y024654D02*
X015900Y024654D01*
X015900Y024812D02*
X017170Y024812D01*
X017170Y024971D02*
X015900Y024971D01*
X015900Y025129D02*
X017170Y025129D01*
X017170Y025288D02*
X015900Y025288D01*
X015900Y025446D02*
X017170Y025446D01*
X017170Y025605D02*
X015900Y025605D01*
X016095Y025764D02*
X017170Y025764D01*
X017126Y025922D02*
X016245Y025922D01*
X016310Y026081D02*
X017060Y026081D01*
X017033Y026239D02*
X016338Y026239D01*
X016338Y026398D02*
X017033Y026398D01*
X017033Y026556D02*
X016338Y026556D01*
X016338Y026715D02*
X017033Y026715D01*
X017033Y026873D02*
X016338Y026873D01*
X016338Y027032D02*
X017033Y027032D01*
X017033Y027190D02*
X016338Y027190D01*
X016289Y027349D02*
X017081Y027349D01*
X017168Y027507D02*
X016202Y027507D01*
X016028Y027666D02*
X017342Y027666D01*
X015342Y027666D02*
X014028Y027666D01*
X014202Y027507D02*
X015168Y027507D01*
X015081Y027349D02*
X014289Y027349D01*
X014338Y027190D02*
X015033Y027190D01*
X015033Y027032D02*
X014338Y027032D01*
X014338Y026873D02*
X015033Y026873D01*
X015033Y026715D02*
X014338Y026715D01*
X014338Y026556D02*
X015033Y026556D01*
X015033Y026398D02*
X014338Y026398D01*
X014338Y026239D02*
X015033Y026239D01*
X015060Y026081D02*
X014310Y026081D01*
X014245Y025922D02*
X015126Y025922D01*
X015170Y025764D02*
X014095Y025764D01*
X013900Y025605D02*
X015170Y025605D01*
X015170Y025446D02*
X013900Y025446D01*
X013900Y025288D02*
X015170Y025288D01*
X015170Y025129D02*
X013900Y025129D01*
X013900Y024971D02*
X015170Y024971D01*
X015170Y024812D02*
X013900Y024812D01*
X013900Y024654D02*
X015170Y024654D01*
X015170Y024495D02*
X013900Y024495D01*
X013900Y024337D02*
X015170Y024337D01*
X015170Y024178D02*
X013900Y024178D01*
X013900Y024020D02*
X015170Y024020D01*
X015170Y023861D02*
X013900Y023861D01*
X013900Y023702D02*
X015170Y023702D01*
X015124Y023544D02*
X013900Y023544D01*
X013900Y023385D02*
X014965Y023385D01*
X014807Y023227D02*
X013900Y023227D01*
X013900Y023068D02*
X014648Y023068D01*
X014490Y022910D02*
X013900Y022910D01*
X013900Y022751D02*
X014331Y022751D01*
X014173Y022593D02*
X013900Y022593D01*
X013170Y022593D02*
X012200Y022593D01*
X012200Y022751D02*
X013170Y022751D01*
X013170Y022910D02*
X012200Y022910D01*
X012200Y023068D02*
X013170Y023068D01*
X013170Y023227D02*
X012200Y023227D01*
X012200Y023385D02*
X013170Y023385D01*
X013170Y023544D02*
X012200Y023544D01*
X012200Y023702D02*
X013170Y023702D01*
X013170Y023861D02*
X012200Y023861D01*
X012200Y024020D02*
X013170Y024020D01*
X013170Y024178D02*
X012200Y024178D01*
X012200Y024337D02*
X013170Y024337D01*
X013170Y024495D02*
X012200Y024495D01*
X012200Y024654D02*
X013170Y024654D01*
X013170Y024812D02*
X012200Y024812D01*
X012200Y024971D02*
X013170Y024971D01*
X013170Y025129D02*
X012200Y025129D01*
X012200Y025288D02*
X013170Y025288D01*
X013170Y025446D02*
X012200Y025446D01*
X012200Y025605D02*
X013170Y025605D01*
X013170Y025764D02*
X012200Y025764D01*
X012245Y025922D02*
X013126Y025922D01*
X013060Y026081D02*
X012310Y026081D01*
X012338Y026239D02*
X013033Y026239D01*
X013033Y026398D02*
X012338Y026398D01*
X012338Y026556D02*
X013033Y026556D01*
X013033Y026715D02*
X012338Y026715D01*
X012338Y026873D02*
X013033Y026873D01*
X013033Y027032D02*
X012338Y027032D01*
X012338Y027190D02*
X013033Y027190D01*
X013081Y027349D02*
X012289Y027349D01*
X012202Y027507D02*
X013168Y027507D01*
X013342Y027666D02*
X012028Y027666D01*
X011342Y027666D02*
X010028Y027666D01*
X010202Y027507D02*
X011168Y027507D01*
X011081Y027349D02*
X010289Y027349D01*
X010338Y027190D02*
X011033Y027190D01*
X011033Y027032D02*
X010338Y027032D01*
X010338Y026873D02*
X011033Y026873D01*
X011033Y026715D02*
X010338Y026715D01*
X010338Y026556D02*
X011033Y026556D01*
X011033Y026398D02*
X010338Y026398D01*
X010338Y026239D02*
X011033Y026239D01*
X011060Y026081D02*
X010310Y026081D01*
X010245Y025922D02*
X011126Y025922D01*
X011276Y025764D02*
X010200Y025764D01*
X010200Y025605D02*
X011470Y025605D01*
X011470Y025446D02*
X010200Y025446D01*
X010200Y025288D02*
X011470Y025288D01*
X011470Y025129D02*
X010200Y025129D01*
X010200Y024971D02*
X011470Y024971D01*
X011470Y024812D02*
X010200Y024812D01*
X010200Y024654D02*
X011470Y024654D01*
X011470Y024495D02*
X010200Y024495D01*
X010200Y024337D02*
X011470Y024337D01*
X011470Y024178D02*
X010200Y024178D01*
X010200Y024020D02*
X011470Y024020D01*
X011470Y023861D02*
X010200Y023861D01*
X010200Y023702D02*
X011470Y023702D01*
X011470Y023544D02*
X010247Y023544D01*
X010405Y023385D02*
X011470Y023385D01*
X011470Y023227D02*
X010564Y023227D01*
X010723Y023068D02*
X011470Y023068D01*
X011470Y022910D02*
X010881Y022910D01*
X011040Y022751D02*
X011470Y022751D01*
X011470Y022593D02*
X011198Y022593D01*
X012504Y022434D02*
X012866Y022434D01*
X012719Y022276D02*
X012651Y022276D01*
X009470Y023385D02*
X009405Y023385D01*
X009470Y023544D02*
X009247Y023544D01*
X009088Y023702D02*
X009470Y023702D01*
X009470Y023861D02*
X008930Y023861D01*
X008771Y024020D02*
X009470Y024020D01*
X009470Y024178D02*
X008613Y024178D01*
X008454Y024337D02*
X009470Y024337D01*
X009470Y024495D02*
X008296Y024495D01*
X008200Y024654D02*
X009470Y024654D01*
X009470Y024812D02*
X008200Y024812D01*
X008200Y024971D02*
X009470Y024971D01*
X009470Y025129D02*
X008200Y025129D01*
X008200Y025288D02*
X009470Y025288D01*
X009470Y025446D02*
X008200Y025446D01*
X008200Y025605D02*
X009470Y025605D01*
X009276Y025764D02*
X008200Y025764D01*
X008245Y025922D02*
X009126Y025922D01*
X009060Y026081D02*
X008310Y026081D01*
X008338Y026239D02*
X009033Y026239D01*
X009033Y026398D02*
X008338Y026398D01*
X008338Y026556D02*
X009033Y026556D01*
X009033Y026715D02*
X008338Y026715D01*
X008338Y026873D02*
X009033Y026873D01*
X009033Y027032D02*
X008338Y027032D01*
X008338Y027190D02*
X009033Y027190D01*
X009081Y027349D02*
X008289Y027349D01*
X008202Y027507D02*
X009168Y027507D01*
X009342Y027666D02*
X008028Y027666D01*
X007342Y027666D02*
X006028Y027666D01*
X006202Y027507D02*
X007168Y027507D01*
X007081Y027349D02*
X006289Y027349D01*
X006338Y027190D02*
X007033Y027190D01*
X007033Y027032D02*
X006338Y027032D01*
X006338Y026873D02*
X007033Y026873D01*
X007033Y026715D02*
X006338Y026715D01*
X006338Y026556D02*
X007033Y026556D01*
X007033Y026398D02*
X006338Y026398D01*
X006338Y026239D02*
X007033Y026239D01*
X007060Y026081D02*
X006310Y026081D01*
X006245Y025922D02*
X007126Y025922D01*
X007276Y025764D02*
X006200Y025764D01*
X006200Y025605D02*
X007470Y025605D01*
X007470Y025446D02*
X006344Y025446D01*
X006503Y025288D02*
X007470Y025288D01*
X007470Y025129D02*
X006661Y025129D01*
X006820Y024971D02*
X007470Y024971D01*
X007470Y024812D02*
X006979Y024812D01*
X007137Y024654D02*
X007470Y024654D01*
X007470Y024495D02*
X007296Y024495D01*
X007454Y024337D02*
X007483Y024337D01*
X006897Y023861D02*
X006712Y023861D01*
X006739Y024020D02*
X003167Y024020D01*
X003032Y024178D02*
X006580Y024178D01*
X006422Y024337D02*
X002740Y024337D01*
X002806Y025129D02*
X005629Y025129D01*
X005503Y025288D02*
X003080Y025288D01*
X003298Y025446D02*
X005470Y025446D01*
X005470Y025605D02*
X003445Y025605D01*
X003583Y025764D02*
X005276Y025764D01*
X005126Y025922D02*
X003660Y025922D01*
X003736Y026081D02*
X005060Y026081D01*
X005033Y026239D02*
X003797Y026239D01*
X003821Y026398D02*
X005033Y026398D01*
X005033Y026556D02*
X003845Y026556D01*
X003861Y026715D02*
X005033Y026715D01*
X005033Y026873D02*
X003838Y026873D01*
X003814Y027032D02*
X005033Y027032D01*
X005033Y027190D02*
X003788Y027190D01*
X003711Y027349D02*
X005081Y027349D01*
X005168Y027507D02*
X003635Y027507D01*
X003545Y027666D02*
X005342Y027666D01*
X003398Y027825D02*
X037949Y027825D01*
X037954Y027832D02*
X037954Y027832D01*
X037841Y027666D02*
X036528Y027666D01*
X036555Y027655D02*
X036315Y027754D01*
X036056Y027754D01*
X035816Y027655D01*
X035632Y027471D01*
X035533Y027232D01*
X035533Y026147D01*
X035632Y025907D01*
X035816Y025724D01*
X036056Y025624D01*
X036315Y025624D01*
X036555Y025724D01*
X036739Y025907D01*
X036838Y026147D01*
X036838Y027232D01*
X036739Y027471D01*
X036555Y027655D01*
X036702Y027507D02*
X037733Y027507D01*
X037650Y027349D02*
X036789Y027349D01*
X036838Y027190D02*
X037601Y027190D01*
X037553Y027032D02*
X036838Y027032D01*
X036838Y026873D02*
X037524Y026873D01*
X037524Y026715D02*
X036838Y026715D01*
X036838Y026556D02*
X037524Y026556D01*
X037537Y026398D02*
X036838Y026398D01*
X036838Y026239D02*
X037586Y026239D01*
X037635Y026081D02*
X036810Y026081D01*
X036745Y025922D02*
X037698Y025922D01*
X037806Y025764D02*
X036595Y025764D01*
X035776Y025764D02*
X034595Y025764D01*
X034745Y025922D02*
X035626Y025922D01*
X035560Y026081D02*
X034810Y026081D01*
X034838Y026239D02*
X035533Y026239D01*
X035533Y026398D02*
X034838Y026398D01*
X034838Y026556D02*
X035533Y026556D01*
X035533Y026715D02*
X034838Y026715D01*
X034838Y026873D02*
X035533Y026873D01*
X035533Y027032D02*
X034838Y027032D01*
X034838Y027190D02*
X035533Y027190D01*
X035581Y027349D02*
X034789Y027349D01*
X034702Y027507D02*
X035668Y027507D01*
X035842Y027666D02*
X034528Y027666D01*
X033842Y027666D02*
X032528Y027666D01*
X032702Y027507D02*
X033668Y027507D01*
X033581Y027349D02*
X032789Y027349D01*
X032838Y027190D02*
X033533Y027190D01*
X033533Y027032D02*
X032838Y027032D01*
X032838Y026873D02*
X033533Y026873D01*
X033533Y026715D02*
X032838Y026715D01*
X032838Y026556D02*
X033533Y026556D01*
X033776Y025764D02*
X033176Y025764D01*
X033017Y025605D02*
X037914Y025605D01*
X038079Y025446D02*
X032859Y025446D01*
X032700Y025288D02*
X038278Y025288D01*
X038613Y025129D02*
X032542Y025129D01*
X032383Y024971D02*
X040290Y024971D01*
X040290Y025129D02*
X039806Y025129D01*
X040080Y025288D02*
X040290Y025288D01*
X040290Y024812D02*
X032224Y024812D01*
X032066Y024654D02*
X040290Y024654D01*
X040290Y024495D02*
X031907Y024495D01*
X031749Y024337D02*
X038631Y024337D01*
X038339Y024178D02*
X031590Y024178D01*
X031432Y024020D02*
X038203Y024020D01*
X038138Y023861D02*
X031273Y023861D01*
X031115Y023702D02*
X038120Y023702D01*
X038127Y023544D02*
X030956Y023544D01*
X030798Y023385D02*
X038192Y023385D01*
X038270Y023227D02*
X030639Y023227D01*
X030481Y023068D02*
X038270Y023068D01*
X038270Y022910D02*
X030322Y022910D01*
X030163Y022751D02*
X038270Y022751D01*
X038173Y022593D02*
X030005Y022593D01*
X029846Y022434D02*
X038014Y022434D01*
X037855Y022276D02*
X029688Y022276D01*
X029529Y022117D02*
X037697Y022117D01*
X037538Y021958D02*
X029371Y021958D01*
X029170Y021800D02*
X037380Y021800D01*
X038095Y021483D02*
X038217Y021483D01*
X038300Y021324D02*
X037936Y021324D01*
X037778Y021166D02*
X038488Y021166D01*
X037750Y021007D02*
X040290Y021007D01*
X040290Y020849D02*
X037750Y020849D01*
X037750Y020690D02*
X040290Y020690D01*
X040290Y020532D02*
X037750Y020532D01*
X037750Y020373D02*
X038017Y020373D01*
X037786Y020214D02*
X037750Y020214D01*
X037020Y020214D02*
X034554Y020214D01*
X034735Y020056D02*
X037020Y020056D01*
X037020Y019897D02*
X034893Y019897D01*
X035048Y019739D02*
X035805Y019739D01*
X035830Y019749D02*
X035653Y019676D01*
X035518Y019541D01*
X035445Y019365D01*
X035445Y018989D01*
X035905Y018989D01*
X035905Y018949D01*
X035445Y018949D01*
X035445Y018574D01*
X035518Y018397D01*
X035653Y018262D01*
X035830Y018189D01*
X035905Y018189D01*
X035905Y018949D01*
X035945Y018949D01*
X035945Y018189D01*
X036021Y018189D01*
X036197Y018262D01*
X036332Y018397D01*
X036405Y018574D01*
X036405Y018949D01*
X035946Y018949D01*
X035946Y018989D01*
X036405Y018989D01*
X036405Y019365D01*
X036332Y019541D01*
X036197Y019676D01*
X036021Y019749D01*
X035945Y019749D01*
X035945Y018990D01*
X035905Y018990D01*
X035905Y019749D01*
X035830Y019749D01*
X035905Y019739D02*
X035945Y019739D01*
X036046Y019739D02*
X037020Y019739D01*
X037020Y019580D02*
X036293Y019580D01*
X036382Y019422D02*
X037020Y019422D01*
X037020Y019263D02*
X036405Y019263D01*
X036405Y019105D02*
X037020Y019105D01*
X037020Y018946D02*
X036405Y018946D01*
X036405Y018788D02*
X037020Y018788D01*
X037020Y018629D02*
X036405Y018629D01*
X036363Y018471D02*
X036901Y018471D01*
X036651Y018312D02*
X036247Y018312D01*
X036493Y018153D02*
X035100Y018153D01*
X035100Y017995D02*
X036398Y017995D01*
X036327Y017836D02*
X035100Y017836D01*
X035100Y017678D02*
X036285Y017678D01*
X036272Y017519D02*
X035100Y017519D01*
X035100Y017361D02*
X036272Y017361D01*
X036311Y017202D02*
X035100Y017202D01*
X035100Y017044D02*
X035581Y017044D01*
X035479Y016885D02*
X035100Y016885D01*
X035100Y016727D02*
X035445Y016727D01*
X035445Y016568D02*
X035123Y016568D01*
X035281Y016409D02*
X035905Y016409D01*
X035946Y016409D02*
X040290Y016409D01*
X040290Y016251D02*
X036405Y016251D01*
X036405Y016092D02*
X040290Y016092D01*
X040290Y015934D02*
X036372Y015934D01*
X036405Y016568D02*
X036798Y016568D01*
X036591Y016727D02*
X036405Y016727D01*
X036372Y016885D02*
X036455Y016885D01*
X036364Y017044D02*
X036270Y017044D01*
X035945Y017044D02*
X035905Y017044D01*
X035905Y016885D02*
X035945Y016885D01*
X035945Y016727D02*
X035905Y016727D01*
X035905Y016568D02*
X035945Y016568D01*
X035445Y016251D02*
X035440Y016251D01*
X033605Y016251D02*
X032390Y016251D01*
X032548Y016092D02*
X033605Y016092D01*
X033614Y015934D02*
X032707Y015934D01*
X032866Y015775D02*
X033497Y015775D01*
X033470Y015617D02*
X032948Y015617D01*
X032950Y015458D02*
X033470Y015458D01*
X033389Y015300D02*
X032950Y015300D01*
X032950Y015141D02*
X033235Y015141D01*
X033235Y014983D02*
X032950Y014983D01*
X032950Y014824D02*
X033235Y014824D01*
X033765Y013873D02*
X032254Y013873D01*
X032346Y013714D02*
X033770Y013714D01*
X033836Y013556D02*
X032504Y013556D01*
X032505Y013397D02*
X033971Y013397D01*
X034699Y013397D02*
X035690Y013397D01*
X035690Y013239D02*
X032505Y013239D01*
X032461Y013080D02*
X035845Y013080D01*
X035899Y012921D02*
X032303Y012921D01*
X032297Y012763D02*
X035724Y012763D01*
X035653Y012604D02*
X032456Y012604D01*
X032505Y012446D02*
X035630Y012446D01*
X035648Y012287D02*
X032505Y012287D01*
X032505Y012129D02*
X035713Y012129D01*
X035869Y011970D02*
X032352Y011970D01*
X032176Y011799D02*
X031995Y011799D01*
X031995Y011350D01*
X031975Y011350D01*
X031975Y011799D01*
X031795Y011799D01*
X031525Y011530D01*
X031525Y011349D01*
X031975Y011349D01*
X031975Y011329D01*
X031525Y011329D01*
X031525Y011149D01*
X031795Y010879D01*
X031975Y010879D01*
X031975Y011329D01*
X031995Y011329D01*
X031995Y010879D01*
X032167Y010879D01*
X032145Y010827D01*
X032145Y010815D01*
X027309Y005979D01*
X027298Y005979D01*
X027136Y005912D01*
X027012Y005789D01*
X026945Y005627D01*
X026945Y005452D01*
X026965Y005404D01*
X026937Y005404D01*
X025700Y006640D01*
X025700Y007116D01*
X025704Y007141D01*
X025728Y007083D01*
X025879Y006931D01*
X026078Y006849D01*
X026293Y006849D01*
X026491Y006931D01*
X026643Y007083D01*
X026725Y007282D01*
X026725Y008097D01*
X026687Y008189D01*
X026725Y008282D01*
X026725Y009097D01*
X026687Y009189D01*
X026725Y009282D01*
X026725Y010097D01*
X026643Y010295D01*
X026491Y010447D01*
X026293Y010529D01*
X026078Y010529D01*
X025879Y010447D01*
X025728Y010295D01*
X025685Y010193D01*
X025643Y010295D01*
X025491Y010447D01*
X025293Y010529D01*
X025078Y010529D01*
X024879Y010447D01*
X024728Y010295D01*
X024685Y010193D01*
X024643Y010295D01*
X024491Y010447D01*
X024293Y010529D01*
X024078Y010529D01*
X023879Y010447D01*
X023728Y010295D01*
X023685Y010193D01*
X023643Y010295D01*
X023491Y010447D01*
X023293Y010529D01*
X023078Y010529D01*
X022879Y010447D01*
X022728Y010295D01*
X022685Y010193D01*
X022643Y010295D01*
X022491Y010447D01*
X022293Y010529D01*
X022078Y010529D01*
X021879Y010447D01*
X021728Y010295D01*
X021685Y010193D01*
X021643Y010295D01*
X021491Y010447D01*
X021293Y010529D01*
X021078Y010529D01*
X020879Y010447D01*
X020728Y010295D01*
X020685Y010193D01*
X020643Y010295D01*
X020491Y010447D01*
X020293Y010529D01*
X020078Y010529D01*
X019879Y010447D01*
X019728Y010295D01*
X019653Y010115D01*
X019592Y010261D01*
X019457Y010396D01*
X019281Y010469D01*
X019205Y010469D01*
X019205Y009710D01*
X019165Y009710D01*
X019165Y010469D01*
X019090Y010469D01*
X018913Y010396D01*
X018778Y010261D01*
X018705Y010085D01*
X018705Y009709D01*
X019165Y009709D01*
X019165Y009669D01*
X018705Y009669D01*
X018705Y009294D01*
X018749Y009189D01*
X018705Y009085D01*
X018705Y008709D01*
X019165Y008709D01*
X019165Y008669D01*
X018705Y008669D01*
X018705Y008294D01*
X018749Y008189D01*
X018705Y008085D01*
X018705Y007709D01*
X019165Y007709D01*
X019165Y007669D01*
X018705Y007669D01*
X018705Y007294D01*
X018778Y007117D01*
X018913Y006982D01*
X019090Y006909D01*
X019165Y006909D01*
X019165Y007669D01*
X019205Y007669D01*
X019205Y006909D01*
X019281Y006909D01*
X019457Y006982D01*
X019592Y007117D01*
X019653Y007264D01*
X019728Y007083D01*
X019879Y006931D01*
X020078Y006849D01*
X020107Y006849D01*
X020112Y006847D01*
X023670Y003288D01*
X023670Y003027D01*
X023666Y003005D01*
X023632Y002971D01*
X023533Y002732D01*
X023533Y001647D01*
X023632Y001407D01*
X023816Y001224D01*
X024056Y001124D01*
X024315Y001124D01*
X024555Y001224D01*
X024739Y001407D01*
X024838Y001647D01*
X024838Y002732D01*
X024739Y002971D01*
X024555Y003155D01*
X024400Y003219D01*
X024400Y003367D01*
X024400Y003512D01*
X024345Y003646D01*
X021141Y006849D01*
X021159Y006849D01*
X025507Y002501D01*
X025533Y002466D01*
X025533Y001647D01*
X025632Y001407D01*
X025816Y001224D01*
X026056Y001124D01*
X026315Y001124D01*
X026555Y001224D01*
X026739Y001407D01*
X026838Y001647D01*
X026838Y002426D01*
X026963Y002374D01*
X027108Y002374D01*
X027533Y002374D01*
X027533Y001647D01*
X027632Y001407D01*
X027816Y001224D01*
X028056Y001124D01*
X028315Y001124D01*
X028555Y001224D01*
X028739Y001407D01*
X028838Y001647D01*
X028838Y002426D01*
X028963Y002374D01*
X029108Y002374D01*
X029533Y002374D01*
X029533Y001647D01*
X029632Y001407D01*
X029816Y001224D01*
X030056Y001124D01*
X030315Y001124D01*
X030555Y001224D01*
X030739Y001407D01*
X030838Y001647D01*
X030838Y002732D01*
X030739Y002971D01*
X030555Y003155D01*
X030315Y003254D01*
X030056Y003254D01*
X029816Y003155D01*
X029772Y003111D01*
X029771Y003111D01*
X029742Y003104D01*
X029187Y003104D01*
X028745Y003546D01*
X028642Y003649D01*
X028508Y003704D01*
X027287Y003704D01*
X024141Y006849D01*
X024293Y006849D01*
X024491Y006931D01*
X024643Y007083D01*
X024685Y007185D01*
X024728Y007083D01*
X024879Y006931D01*
X024970Y006894D01*
X024970Y006417D01*
X025026Y006283D01*
X025129Y006180D01*
X026579Y004730D01*
X026713Y004674D01*
X026858Y004674D01*
X030584Y004674D01*
X032019Y003239D01*
X031816Y003155D01*
X031632Y002971D01*
X031533Y002732D01*
X031533Y001647D01*
X031632Y001407D01*
X031816Y001224D01*
X032056Y001124D01*
X032315Y001124D01*
X032555Y001224D01*
X032739Y001407D01*
X032838Y001647D01*
X032838Y002426D01*
X032963Y002374D01*
X033108Y002374D01*
X033533Y002374D01*
X033533Y001647D01*
X033632Y001407D01*
X033816Y001224D01*
X034056Y001124D01*
X034315Y001124D01*
X034555Y001224D01*
X034739Y001407D01*
X034838Y001647D01*
X034838Y002732D01*
X034739Y002971D01*
X034555Y003155D01*
X034315Y003254D01*
X034056Y003254D01*
X033816Y003155D01*
X033772Y003111D01*
X033771Y003111D01*
X033742Y003104D01*
X033187Y003104D01*
X031045Y005246D01*
X030942Y005349D01*
X030808Y005404D01*
X027806Y005404D01*
X027825Y005452D01*
X027825Y005463D01*
X032662Y010299D01*
X032673Y010299D01*
X032835Y010366D01*
X032958Y010490D01*
X033025Y010652D01*
X033025Y010827D01*
X032958Y010989D01*
X032835Y011112D01*
X032673Y011179D01*
X032498Y011179D01*
X032445Y011158D01*
X032445Y011329D01*
X031996Y011329D01*
X031996Y011349D01*
X032445Y011349D01*
X032445Y011530D01*
X032176Y011799D01*
X032322Y011653D02*
X037745Y011653D01*
X037745Y011671D02*
X037745Y011489D01*
X037745Y011307D01*
X038003Y011049D01*
X038185Y011049D01*
X038185Y011489D01*
X037745Y011489D01*
X038185Y011489D01*
X038185Y011489D01*
X038186Y011489D01*
X038186Y011489D01*
X038625Y011489D01*
X038625Y011307D01*
X038368Y011049D01*
X038186Y011049D01*
X038186Y011489D01*
X038625Y011489D01*
X038625Y011671D01*
X038368Y011929D01*
X038186Y011929D01*
X038186Y011490D01*
X038185Y011490D01*
X038185Y011929D01*
X038003Y011929D01*
X037745Y011671D01*
X037745Y011495D02*
X032445Y011495D01*
X032445Y011178D02*
X032494Y011178D01*
X032677Y011178D02*
X035724Y011178D01*
X035690Y011144D02*
X035690Y010939D01*
X035690Y010734D01*
X035973Y010452D01*
X035871Y010410D01*
X035715Y010254D01*
X035630Y010050D01*
X035630Y009829D01*
X035715Y009625D01*
X035871Y009469D01*
X036075Y009384D01*
X036296Y009384D01*
X036387Y009422D01*
X036529Y009280D01*
X036663Y009224D01*
X036808Y009224D01*
X037743Y009224D01*
X037978Y008989D01*
X038019Y008989D01*
X038026Y008982D01*
X038075Y008932D01*
X038077Y008932D01*
X038270Y008738D01*
X038270Y007633D01*
X038264Y007604D01*
X038264Y007603D01*
X038220Y007559D01*
X038120Y007319D01*
X038120Y007059D01*
X038220Y006820D01*
X038403Y006636D01*
X038643Y006537D01*
X039728Y006537D01*
X039967Y006636D01*
X040151Y006820D01*
X040250Y007059D01*
X040250Y007319D01*
X040151Y007559D01*
X039967Y007742D01*
X039728Y007842D01*
X039000Y007842D01*
X039000Y008817D01*
X039000Y008962D01*
X038945Y009096D01*
X038685Y009355D01*
X038685Y009696D01*
X038392Y009989D01*
X037978Y009989D01*
X037943Y009954D01*
X037932Y009954D01*
X036887Y009954D01*
X036785Y010055D01*
X036779Y010067D01*
X036734Y010106D01*
X036704Y010136D01*
X036656Y010254D01*
X036500Y010410D01*
X036398Y010452D01*
X036680Y010734D01*
X036680Y010939D01*
X036186Y010939D01*
X036186Y010939D01*
X036680Y010939D01*
X036680Y011144D01*
X036390Y011434D01*
X036186Y011434D01*
X036186Y010940D01*
X036185Y010940D01*
X036185Y011434D01*
X035980Y011434D01*
X035690Y011144D01*
X035690Y011019D02*
X032928Y011019D01*
X033011Y010860D02*
X035690Y010860D01*
X035690Y010939D02*
X036185Y010939D01*
X036185Y010939D01*
X035690Y010939D01*
X035723Y010702D02*
X033025Y010702D01*
X032980Y010543D02*
X035881Y010543D01*
X035846Y010385D02*
X034508Y010385D01*
X034449Y010409D02*
X034658Y010322D01*
X034819Y010162D01*
X034905Y009953D01*
X034905Y009726D01*
X034819Y009516D01*
X034658Y009356D01*
X034449Y009269D01*
X034222Y009269D01*
X034012Y009356D01*
X033852Y009516D01*
X033765Y009726D01*
X033765Y009953D01*
X033852Y010162D01*
X034012Y010322D01*
X034222Y010409D01*
X034449Y010409D01*
X034163Y010385D02*
X032853Y010385D01*
X032589Y010226D02*
X033916Y010226D01*
X033813Y010068D02*
X032430Y010068D01*
X032271Y009909D02*
X033765Y009909D01*
X033765Y009751D02*
X032113Y009751D01*
X031954Y009592D02*
X033821Y009592D01*
X033935Y009434D02*
X031796Y009434D01*
X031637Y009275D02*
X034208Y009275D01*
X034463Y009275D02*
X036540Y009275D01*
X035956Y009434D02*
X034736Y009434D01*
X034850Y009592D02*
X035748Y009592D01*
X035663Y009751D02*
X034905Y009751D01*
X034905Y009909D02*
X035630Y009909D01*
X035638Y010068D02*
X034858Y010068D01*
X034754Y010226D02*
X035704Y010226D01*
X036525Y010385D02*
X039281Y010385D01*
X039215Y010543D02*
X036489Y010543D01*
X036648Y010702D02*
X039199Y010702D01*
X039225Y010860D02*
X036680Y010860D01*
X036680Y011019D02*
X039306Y011019D01*
X039511Y011178D02*
X038496Y011178D01*
X038625Y011336D02*
X039414Y011336D01*
X039300Y011495D02*
X038625Y011495D01*
X038625Y011653D02*
X039259Y011653D01*
X039270Y011812D02*
X038485Y011812D01*
X038423Y011970D02*
X039342Y011970D01*
X039920Y012129D02*
X040290Y012129D01*
X040290Y012287D02*
X040248Y012287D01*
X040272Y012446D02*
X040290Y012446D01*
X040290Y012604D02*
X040272Y012604D01*
X040272Y012763D02*
X040290Y012763D01*
X040290Y012921D02*
X040272Y012921D01*
X040253Y013080D02*
X040290Y013080D01*
X040290Y013239D02*
X036680Y013239D01*
X036680Y013397D02*
X037355Y013397D01*
X037235Y013556D02*
X036680Y013556D01*
X036610Y013714D02*
X037195Y013714D01*
X037214Y013873D02*
X036930Y013873D01*
X037150Y014031D02*
X037270Y014031D01*
X036641Y013873D02*
X036452Y013873D01*
X035690Y013556D02*
X034835Y013556D01*
X036471Y012921D02*
X037960Y012921D01*
X038410Y012921D02*
X039199Y012921D01*
X039218Y013080D02*
X036526Y013080D01*
X037915Y013397D02*
X040290Y013397D01*
X040290Y013556D02*
X038036Y013556D01*
X038075Y013714D02*
X040290Y013714D01*
X040290Y013873D02*
X038056Y013873D01*
X038185Y014031D02*
X038186Y014031D01*
X038185Y014190D02*
X038186Y014190D01*
X038185Y014348D02*
X038186Y014348D01*
X038185Y014507D02*
X038186Y014507D01*
X038185Y014665D02*
X038186Y014665D01*
X038185Y014824D02*
X038186Y014824D01*
X038423Y014824D02*
X040290Y014824D01*
X040290Y014983D02*
X037358Y014983D01*
X037517Y014824D02*
X037948Y014824D01*
X037789Y014665D02*
X037675Y014665D01*
X038209Y015141D02*
X040290Y015141D01*
X040290Y015300D02*
X038333Y015300D01*
X038375Y015458D02*
X040290Y015458D01*
X040290Y015617D02*
X038359Y015617D01*
X038272Y015775D02*
X040290Y015775D01*
X040290Y016568D02*
X040128Y016568D01*
X039784Y016568D02*
X039624Y016568D01*
X039624Y016727D02*
X039784Y016727D01*
X039784Y016885D02*
X039624Y016885D01*
X039624Y017044D02*
X039784Y017044D01*
X039784Y017202D02*
X039624Y017202D01*
X039624Y017361D02*
X039784Y017361D01*
X039624Y017519D02*
X038412Y017519D01*
X038412Y017361D02*
X038694Y017361D01*
X038735Y017202D02*
X038372Y017202D01*
X038320Y017044D02*
X038795Y017044D01*
X038886Y016885D02*
X038228Y016885D01*
X038092Y016727D02*
X039038Y016727D01*
X039280Y016568D02*
X037886Y016568D01*
X038399Y017678D02*
X038709Y017678D01*
X038751Y017836D02*
X038356Y017836D01*
X038285Y017995D02*
X038830Y017995D01*
X038940Y018153D02*
X038191Y018153D01*
X038032Y018312D02*
X039109Y018312D01*
X039001Y018471D02*
X039464Y018471D01*
X039624Y018471D02*
X039784Y018471D01*
X039784Y018312D02*
X039624Y018312D01*
X039624Y018153D02*
X039784Y018153D01*
X039784Y017995D02*
X039624Y017995D01*
X039624Y017836D02*
X039784Y017836D01*
X039784Y017678D02*
X039624Y017678D01*
X039944Y018471D02*
X040290Y018471D01*
X040290Y018629D02*
X039227Y018629D01*
X039374Y018788D02*
X040290Y018788D01*
X040290Y018946D02*
X039466Y018946D01*
X039527Y019105D02*
X040290Y019105D01*
X040290Y019263D02*
X039569Y019263D01*
X039573Y019422D02*
X040290Y019422D01*
X040290Y019580D02*
X039567Y019580D01*
X039525Y019739D02*
X040290Y019739D01*
X040290Y019897D02*
X039462Y019897D01*
X039370Y020056D02*
X040290Y020056D01*
X040290Y020214D02*
X039220Y020214D01*
X038989Y020373D02*
X040290Y020373D01*
X040290Y021166D02*
X039882Y021166D01*
X040071Y021324D02*
X040290Y021324D01*
X040290Y021483D02*
X040154Y021483D01*
X040290Y021641D02*
X039243Y021641D01*
X039243Y021483D02*
X039128Y021483D01*
X039128Y021324D02*
X039243Y021324D01*
X039243Y021166D02*
X039128Y021166D01*
X039128Y021800D02*
X039243Y021800D01*
X039243Y021958D02*
X039128Y021958D01*
X039128Y022117D02*
X039243Y022117D01*
X039243Y022276D02*
X039128Y022276D01*
X038987Y022434D02*
X040290Y022434D01*
X040290Y022276D02*
X039731Y022276D01*
X040008Y022117D02*
X040290Y022117D01*
X040290Y021958D02*
X040128Y021958D01*
X040190Y021800D02*
X040290Y021800D01*
X040290Y022593D02*
X039000Y022593D01*
X039000Y022751D02*
X040290Y022751D01*
X040290Y022910D02*
X039000Y022910D01*
X039804Y023068D02*
X040290Y023068D01*
X040290Y023227D02*
X040058Y023227D01*
X040178Y023385D02*
X040290Y023385D01*
X040290Y023544D02*
X040244Y023544D01*
X040250Y023702D02*
X040290Y023702D01*
X040290Y023861D02*
X040233Y023861D01*
X040290Y024020D02*
X040167Y024020D01*
X040290Y024178D02*
X040032Y024178D01*
X040290Y024337D02*
X039740Y024337D01*
X038143Y027983D02*
X003251Y027983D01*
X000806Y025764D02*
X000780Y025764D01*
X000780Y025605D02*
X000914Y025605D01*
X000780Y025446D02*
X001079Y025446D01*
X001278Y025288D02*
X000780Y025288D01*
X000780Y025129D02*
X001613Y025129D01*
X000780Y024971D02*
X005788Y024971D01*
X005946Y024812D02*
X000780Y024812D01*
X000780Y024654D02*
X006105Y024654D01*
X006263Y024495D02*
X000780Y024495D01*
X000780Y024337D02*
X001631Y024337D01*
X001339Y024178D02*
X000780Y024178D01*
X000780Y024020D02*
X001203Y024020D01*
X001138Y023861D02*
X000780Y023861D01*
X000780Y023702D02*
X001120Y023702D01*
X001127Y023544D02*
X000780Y023544D01*
X000780Y023385D02*
X001192Y023385D01*
X001312Y023227D02*
X000780Y023227D01*
X000780Y023068D02*
X001567Y023068D01*
X001483Y022276D02*
X000780Y022276D01*
X000780Y022434D02*
X006866Y022434D01*
X006966Y022593D02*
X000780Y022593D01*
X000780Y022751D02*
X006807Y022751D01*
X006649Y022910D02*
X000780Y022910D01*
X000780Y022117D02*
X001278Y022117D01*
X001178Y021958D02*
X000780Y021958D01*
X000780Y021800D02*
X001120Y021800D01*
X001120Y021641D02*
X000780Y021641D01*
X000780Y021483D02*
X001152Y021483D01*
X001218Y021324D02*
X000780Y021324D01*
X000780Y021166D02*
X001374Y021166D01*
X000780Y021007D02*
X006645Y021007D01*
X006645Y020849D02*
X000780Y020849D01*
X000780Y020690D02*
X006645Y020690D01*
X006645Y020532D02*
X000780Y020532D01*
X000780Y020373D02*
X006645Y020373D01*
X006673Y020214D02*
X000780Y020214D01*
X000780Y020056D02*
X006645Y020056D01*
X006645Y019897D02*
X000780Y019897D01*
X000780Y019739D02*
X006645Y019739D01*
X006645Y019580D02*
X000780Y019580D01*
X000780Y019422D02*
X005204Y019422D01*
X005094Y019263D02*
X000780Y019263D01*
X000780Y019105D02*
X005045Y019105D01*
X005045Y018946D02*
X000780Y018946D01*
X000780Y018788D02*
X004918Y018788D01*
X004518Y018629D02*
X002953Y018629D01*
X003111Y018471D02*
X004359Y018471D01*
X004235Y018312D02*
X003235Y018312D01*
X003235Y018153D02*
X004235Y018153D01*
X004235Y017995D02*
X003235Y017995D01*
X003139Y017836D02*
X004331Y017836D01*
X004490Y017678D02*
X002981Y017678D01*
X002490Y017678D02*
X002311Y017678D01*
X002179Y017519D02*
X005430Y017519D01*
X005183Y017678D02*
X004981Y017678D01*
X006341Y017519D02*
X006685Y017519D01*
X006685Y017361D02*
X002178Y017361D01*
X002311Y017202D02*
X006738Y017202D01*
X006685Y017678D02*
X006588Y017678D01*
X006566Y019422D02*
X006645Y019422D01*
X006674Y021166D02*
X002997Y021166D01*
X003093Y022117D02*
X006654Y022117D01*
X006719Y022276D02*
X002888Y022276D01*
X002804Y023068D02*
X006490Y023068D01*
X007205Y023385D02*
X007373Y023385D01*
X007364Y023227D02*
X007532Y023227D01*
X007523Y023068D02*
X007690Y023068D01*
X007681Y022910D02*
X007849Y022910D01*
X007840Y022751D02*
X008007Y022751D01*
X007998Y022593D02*
X008166Y022593D01*
X007215Y023544D02*
X007047Y023544D01*
X007056Y023702D02*
X006888Y023702D01*
X014550Y018946D02*
X014820Y018946D01*
X014820Y018788D02*
X014550Y018788D01*
X014550Y018629D02*
X014820Y018629D01*
X014820Y018471D02*
X014550Y018471D01*
X014550Y018312D02*
X014820Y018312D01*
X014729Y018153D02*
X014642Y018153D01*
X014685Y017995D02*
X014685Y017995D01*
X014685Y017836D02*
X014685Y017836D01*
X014685Y017678D02*
X014685Y017678D01*
X014685Y017519D02*
X014685Y017519D01*
X014685Y017361D02*
X014685Y017361D01*
X014632Y017202D02*
X014738Y017202D01*
X014864Y017044D02*
X014507Y017044D01*
X014322Y016885D02*
X016720Y016885D01*
X016720Y016727D02*
X014325Y016727D01*
X014270Y016568D02*
X016720Y016568D01*
X016720Y016409D02*
X014118Y016409D01*
X013653Y016409D02*
X003512Y016409D01*
X003525Y016251D02*
X016720Y016251D01*
X016720Y016092D02*
X003480Y016092D01*
X003352Y015934D02*
X016720Y015934D01*
X016273Y016989D02*
X016435Y017056D01*
X016558Y017180D01*
X016625Y017342D01*
X016625Y017689D01*
X016186Y017689D01*
X016186Y017689D01*
X016625Y017689D01*
X016625Y018037D01*
X016558Y018199D01*
X016435Y018322D01*
X016273Y018389D01*
X016186Y018389D01*
X016186Y017690D01*
X016185Y017690D01*
X016185Y018389D01*
X016098Y018389D01*
X015936Y018322D01*
X015812Y018199D01*
X015745Y018037D01*
X015745Y017689D01*
X015745Y017342D01*
X015812Y017180D01*
X015936Y017056D01*
X016098Y016989D01*
X016185Y016989D01*
X016185Y017689D01*
X015745Y017689D01*
X016185Y017689D01*
X016185Y017689D01*
X016186Y017689D01*
X016186Y016989D01*
X016273Y016989D01*
X016186Y017044D02*
X016185Y017044D01*
X016185Y017202D02*
X016186Y017202D01*
X016185Y017361D02*
X016186Y017361D01*
X016185Y017519D02*
X016186Y017519D01*
X016185Y017678D02*
X016186Y017678D01*
X016185Y017836D02*
X016186Y017836D01*
X016185Y017995D02*
X016186Y017995D01*
X016185Y018153D02*
X016186Y018153D01*
X016185Y018312D02*
X016186Y018312D01*
X016445Y018312D02*
X016820Y018312D01*
X016820Y018471D02*
X015550Y018471D01*
X015550Y018629D02*
X016820Y018629D01*
X016820Y018788D02*
X015550Y018788D01*
X015550Y018946D02*
X016001Y018946D01*
X015791Y019105D02*
X015652Y019105D01*
X015718Y019263D02*
X015718Y019263D01*
X016580Y019105D02*
X016719Y019105D01*
X016653Y019263D02*
X016653Y019263D01*
X015926Y018312D02*
X015550Y018312D01*
X015642Y018153D02*
X015794Y018153D01*
X015745Y017995D02*
X015685Y017995D01*
X015685Y017836D02*
X015745Y017836D01*
X015745Y017678D02*
X015685Y017678D01*
X015685Y017519D02*
X015745Y017519D01*
X015745Y017361D02*
X015685Y017361D01*
X015632Y017202D02*
X015803Y017202D01*
X015967Y017044D02*
X015507Y017044D01*
X016404Y017044D02*
X016720Y017044D01*
X016716Y017202D02*
X016567Y017202D01*
X016625Y017361D02*
X016685Y017361D01*
X016685Y017519D02*
X016625Y017519D01*
X016625Y017678D02*
X016685Y017678D01*
X016685Y017836D02*
X016625Y017836D01*
X016625Y017995D02*
X016685Y017995D01*
X016729Y018153D02*
X016577Y018153D01*
X014719Y019105D02*
X014652Y019105D01*
X018652Y019105D02*
X018719Y019105D01*
X023406Y016885D02*
X027624Y016885D01*
X027466Y016727D02*
X023564Y016727D01*
X023723Y016568D02*
X027385Y016568D01*
X027385Y016409D02*
X023881Y016409D01*
X024040Y016251D02*
X024325Y016251D01*
X024507Y017044D02*
X024864Y017044D01*
X024738Y017202D02*
X024632Y017202D01*
X024685Y017361D02*
X024685Y017361D01*
X024685Y017519D02*
X024685Y017519D01*
X024685Y017678D02*
X024685Y017678D01*
X024685Y017836D02*
X024685Y017836D01*
X024685Y017995D02*
X024685Y017995D01*
X024642Y018153D02*
X024729Y018153D01*
X025642Y018153D02*
X025729Y018153D01*
X025685Y017995D02*
X025685Y017995D01*
X025685Y017836D02*
X025685Y017836D01*
X025685Y017678D02*
X025685Y017678D01*
X025685Y017519D02*
X025685Y017519D01*
X025685Y017361D02*
X025685Y017361D01*
X025632Y017202D02*
X025738Y017202D01*
X025864Y017044D02*
X025507Y017044D01*
X026507Y017044D02*
X030920Y017044D01*
X030920Y017202D02*
X026632Y017202D01*
X026685Y017361D02*
X030920Y017361D01*
X030920Y017519D02*
X026685Y017519D01*
X026685Y017678D02*
X029347Y017678D01*
X029093Y017836D02*
X026685Y017836D01*
X028147Y016885D02*
X030920Y016885D01*
X030937Y016727D02*
X029220Y016727D01*
X029325Y016621D02*
X029068Y016879D01*
X028886Y016879D01*
X028886Y016440D01*
X028885Y016440D01*
X028885Y016879D01*
X028703Y016879D01*
X028445Y016621D01*
X028445Y016439D01*
X028445Y016257D01*
X028703Y015999D01*
X028885Y015999D01*
X028885Y016439D01*
X028445Y016439D01*
X028885Y016439D01*
X028885Y016439D01*
X028886Y016439D01*
X028886Y016439D01*
X029325Y016439D01*
X029325Y016257D01*
X029068Y015999D01*
X028886Y015999D01*
X028886Y016439D01*
X029325Y016439D01*
X029325Y016621D01*
X029325Y016568D02*
X031040Y016568D01*
X031199Y016409D02*
X029325Y016409D01*
X029319Y016251D02*
X031358Y016251D01*
X031516Y016092D02*
X029161Y016092D01*
X028886Y016092D02*
X028885Y016092D01*
X028885Y016251D02*
X028886Y016251D01*
X028885Y016409D02*
X028886Y016409D01*
X028885Y016568D02*
X028886Y016568D01*
X028885Y016727D02*
X028886Y016727D01*
X028550Y016727D02*
X028305Y016727D01*
X028385Y016568D02*
X028445Y016568D01*
X028445Y016409D02*
X028385Y016409D01*
X028385Y016251D02*
X028451Y016251D01*
X028610Y016092D02*
X028245Y016092D01*
X028307Y015934D02*
X031675Y015934D01*
X031771Y015775D02*
X031285Y015775D01*
X031443Y015617D02*
X031612Y015617D01*
X031525Y015458D02*
X031505Y015458D01*
X031505Y015300D02*
X031525Y015300D01*
X031533Y015141D02*
X031505Y015141D01*
X031364Y014983D02*
X031692Y014983D01*
X031735Y014824D02*
X031236Y014824D01*
X031394Y014665D02*
X031576Y014665D01*
X031975Y014983D02*
X031995Y014983D01*
X031995Y015141D02*
X031975Y015141D01*
X031975Y015300D02*
X031995Y015300D01*
X030735Y014824D02*
X029417Y014824D01*
X029258Y014983D02*
X030607Y014983D01*
X030465Y015141D02*
X029100Y015141D01*
X028941Y015300D02*
X030465Y015300D01*
X030465Y015458D02*
X028783Y015458D01*
X028624Y015617D02*
X030527Y015617D01*
X030686Y015775D02*
X028466Y015775D01*
X029794Y017678D02*
X030918Y017678D01*
X030663Y017836D02*
X030048Y017836D01*
X030173Y017995D02*
X030539Y017995D01*
X030473Y018153D02*
X030239Y018153D01*
X030253Y018312D02*
X030458Y018312D01*
X030458Y018471D02*
X030253Y018471D01*
X030253Y018629D02*
X030458Y018629D01*
X030458Y018788D02*
X030253Y018788D01*
X030253Y018946D02*
X030458Y018946D01*
X030458Y019105D02*
X030253Y019105D01*
X030253Y019263D02*
X030458Y019263D01*
X030490Y019422D02*
X030222Y019422D01*
X030156Y019580D02*
X030555Y019580D01*
X030704Y019739D02*
X030007Y019739D01*
X029710Y019897D02*
X033127Y019897D01*
X033286Y020056D02*
X029868Y020056D01*
X030027Y020214D02*
X033467Y020214D01*
X032329Y020690D02*
X037020Y020690D01*
X037020Y020532D02*
X032200Y020532D01*
X032375Y020849D02*
X037020Y020849D01*
X037020Y021007D02*
X032363Y021007D01*
X032279Y019739D02*
X031578Y019739D01*
X031727Y019580D02*
X032128Y019580D01*
X032062Y019422D02*
X031793Y019422D01*
X031824Y019263D02*
X032029Y019263D01*
X032029Y019105D02*
X031824Y019105D01*
X031824Y018946D02*
X032029Y018946D01*
X032029Y018788D02*
X031824Y018788D01*
X031824Y018629D02*
X032029Y018629D01*
X032029Y018471D02*
X031824Y018471D01*
X031824Y018312D02*
X032029Y018312D01*
X032042Y018153D02*
X031810Y018153D01*
X031744Y017995D02*
X032108Y017995D01*
X032230Y017836D02*
X031650Y017836D01*
X031650Y017678D02*
X032479Y017678D01*
X032945Y017678D02*
X033820Y017678D01*
X033820Y017836D02*
X033194Y017836D01*
X033316Y017995D02*
X033820Y017995D01*
X033820Y018153D02*
X033382Y018153D01*
X033395Y018312D02*
X033739Y018312D01*
X033643Y018471D02*
X033395Y018471D01*
X033395Y018629D02*
X033605Y018629D01*
X033605Y018788D02*
X033395Y018788D01*
X033395Y018946D02*
X033605Y018946D01*
X033605Y019105D02*
X033395Y019105D01*
X033525Y019263D02*
X033605Y019263D01*
X035100Y019263D02*
X035445Y019263D01*
X035445Y019105D02*
X035100Y019105D01*
X035100Y018946D02*
X035445Y018946D01*
X035445Y018788D02*
X035100Y018788D01*
X035100Y018629D02*
X035445Y018629D01*
X035488Y018471D02*
X035100Y018471D01*
X035100Y018312D02*
X035604Y018312D01*
X035905Y018312D02*
X035945Y018312D01*
X035945Y018471D02*
X035905Y018471D01*
X035905Y018629D02*
X035945Y018629D01*
X035945Y018788D02*
X035905Y018788D01*
X035905Y018946D02*
X035945Y018946D01*
X035945Y019105D02*
X035905Y019105D01*
X035905Y019263D02*
X035945Y019263D01*
X035945Y019422D02*
X035905Y019422D01*
X035905Y019580D02*
X035945Y019580D01*
X035558Y019580D02*
X035100Y019580D01*
X035100Y019422D02*
X035469Y019422D01*
X037020Y020373D02*
X030185Y020373D01*
X028968Y017995D02*
X028863Y017995D01*
X031650Y017519D02*
X033820Y017519D01*
X033820Y017361D02*
X031650Y017361D01*
X031650Y017202D02*
X033820Y017202D01*
X033716Y017044D02*
X031650Y017044D01*
X031756Y016885D02*
X033634Y016885D01*
X033605Y016727D02*
X031914Y016727D01*
X032073Y016568D02*
X033605Y016568D01*
X033605Y016409D02*
X032231Y016409D01*
X037782Y018471D02*
X038005Y018471D01*
X037779Y018629D02*
X037750Y018629D01*
X038581Y014665D02*
X040290Y014665D01*
X040290Y014507D02*
X038625Y014507D01*
X038625Y014348D02*
X040290Y014348D01*
X040290Y014190D02*
X038558Y014190D01*
X038400Y014031D02*
X040290Y014031D01*
X040290Y011970D02*
X040129Y011970D01*
X040201Y011812D02*
X040290Y011812D01*
X040290Y011653D02*
X040212Y011653D01*
X040171Y011495D02*
X040290Y011495D01*
X040290Y011336D02*
X040056Y011336D01*
X039959Y011178D02*
X040290Y011178D01*
X040290Y011019D02*
X040165Y011019D01*
X040246Y010860D02*
X040290Y010860D01*
X040290Y010702D02*
X040272Y010702D01*
X040256Y010543D02*
X040290Y010543D01*
X040290Y010226D02*
X040020Y010226D01*
X040290Y010068D02*
X036779Y010068D01*
X036667Y010226D02*
X039450Y010226D01*
X040290Y009909D02*
X038473Y009909D01*
X038631Y009751D02*
X040290Y009751D01*
X040290Y009592D02*
X038685Y009592D01*
X038685Y009434D02*
X040290Y009434D01*
X040290Y009275D02*
X038766Y009275D01*
X038924Y009116D02*
X040290Y009116D01*
X040290Y008958D02*
X039000Y008958D01*
X039000Y008799D02*
X040290Y008799D01*
X040290Y008641D02*
X039000Y008641D01*
X039000Y008482D02*
X040290Y008482D01*
X040290Y008324D02*
X039000Y008324D01*
X039000Y008165D02*
X040290Y008165D01*
X040290Y008007D02*
X039000Y008007D01*
X039000Y007848D02*
X040290Y007848D01*
X040290Y007690D02*
X040020Y007690D01*
X040163Y007531D02*
X040290Y007531D01*
X040290Y007372D02*
X040228Y007372D01*
X040250Y007214D02*
X040290Y007214D01*
X040290Y007055D02*
X040249Y007055D01*
X040290Y006897D02*
X040183Y006897D01*
X040290Y006738D02*
X040070Y006738D01*
X040290Y006580D02*
X039831Y006580D01*
X040290Y006421D02*
X028783Y006421D01*
X028625Y006263D02*
X040290Y006263D01*
X040290Y006104D02*
X028466Y006104D01*
X028308Y005946D02*
X040290Y005946D01*
X040290Y005787D02*
X028149Y005787D01*
X027991Y005629D02*
X038374Y005629D01*
X038437Y005692D02*
X038271Y005525D01*
X038180Y005307D01*
X038180Y005247D01*
X039128Y005247D01*
X039128Y005782D01*
X038655Y005782D01*
X038437Y005692D01*
X038248Y005470D02*
X027832Y005470D01*
X027217Y005946D02*
X026395Y005946D01*
X026237Y006104D02*
X027434Y006104D01*
X027593Y006263D02*
X026078Y006263D01*
X025920Y006421D02*
X027751Y006421D01*
X027910Y006580D02*
X025761Y006580D01*
X025700Y006738D02*
X028068Y006738D01*
X028227Y006897D02*
X026408Y006897D01*
X026615Y007055D02*
X028385Y007055D01*
X028544Y007214D02*
X026697Y007214D01*
X026725Y007372D02*
X028702Y007372D01*
X028861Y007531D02*
X026725Y007531D01*
X026725Y007690D02*
X029019Y007690D01*
X029178Y007848D02*
X026725Y007848D01*
X026725Y008007D02*
X029337Y008007D01*
X029495Y008165D02*
X026697Y008165D01*
X026725Y008324D02*
X029654Y008324D01*
X029812Y008482D02*
X026725Y008482D01*
X026725Y008641D02*
X029971Y008641D01*
X030129Y008799D02*
X026725Y008799D01*
X026725Y008958D02*
X030288Y008958D01*
X030446Y009116D02*
X026717Y009116D01*
X026722Y009275D02*
X030605Y009275D01*
X030763Y009434D02*
X026725Y009434D01*
X026725Y009592D02*
X027625Y009592D01*
X027485Y009732D02*
X027778Y009439D01*
X028192Y009439D01*
X028485Y009732D01*
X028485Y010146D01*
X028192Y010439D01*
X027778Y010439D01*
X027485Y010146D01*
X027485Y009732D01*
X027485Y009751D02*
X026725Y009751D01*
X026725Y009909D02*
X027485Y009909D01*
X027485Y010068D02*
X026725Y010068D01*
X026672Y010226D02*
X027565Y010226D01*
X027724Y010385D02*
X026553Y010385D01*
X025817Y010385D02*
X025553Y010385D01*
X025672Y010226D02*
X025699Y010226D01*
X024817Y010385D02*
X024553Y010385D01*
X024672Y010226D02*
X024699Y010226D01*
X023817Y010385D02*
X023553Y010385D01*
X023672Y010226D02*
X023699Y010226D01*
X022817Y010385D02*
X022553Y010385D01*
X022672Y010226D02*
X022699Y010226D01*
X021817Y010385D02*
X021553Y010385D01*
X021672Y010226D02*
X021699Y010226D01*
X020817Y010385D02*
X020553Y010385D01*
X020672Y010226D02*
X020699Y010226D01*
X019817Y010385D02*
X019469Y010385D01*
X019607Y010226D02*
X019699Y010226D01*
X019205Y010226D02*
X019165Y010226D01*
X019165Y010068D02*
X019205Y010068D01*
X019205Y009909D02*
X019165Y009909D01*
X019165Y009751D02*
X019205Y009751D01*
X019205Y009669D02*
X019205Y009469D01*
X019205Y008710D01*
X019165Y008710D01*
X019165Y009469D01*
X019165Y009669D01*
X019205Y009669D01*
X019205Y009592D02*
X019165Y009592D01*
X019165Y009434D02*
X019205Y009434D01*
X019205Y009275D02*
X019165Y009275D01*
X019165Y009116D02*
X019205Y009116D01*
X019205Y008958D02*
X019165Y008958D01*
X019165Y008799D02*
X019205Y008799D01*
X019205Y008669D02*
X019205Y007909D01*
X019205Y007710D01*
X019165Y007710D01*
X019165Y007909D01*
X019165Y008669D01*
X019205Y008669D01*
X019205Y008641D02*
X019165Y008641D01*
X019165Y008482D02*
X019205Y008482D01*
X019205Y008324D02*
X019165Y008324D01*
X019165Y008165D02*
X019205Y008165D01*
X019205Y008007D02*
X019165Y008007D01*
X019165Y007848D02*
X019205Y007848D01*
X019165Y007690D02*
X018206Y007690D01*
X018205Y007710D02*
X018165Y007710D01*
X018165Y007909D01*
X018165Y008669D01*
X018205Y008669D01*
X018205Y007909D01*
X018205Y007710D01*
X018205Y007848D02*
X018165Y007848D01*
X018165Y008007D02*
X018205Y008007D01*
X018205Y008165D02*
X018165Y008165D01*
X018165Y008324D02*
X018205Y008324D01*
X018205Y008482D02*
X018165Y008482D01*
X018165Y008641D02*
X018205Y008641D01*
X018205Y008710D02*
X018165Y008710D01*
X018165Y009469D01*
X018165Y009669D01*
X018205Y009669D01*
X018205Y009469D01*
X018205Y008710D01*
X018205Y008799D02*
X018165Y008799D01*
X018165Y008958D02*
X018205Y008958D01*
X018205Y009116D02*
X018165Y009116D01*
X018165Y009275D02*
X018205Y009275D01*
X018205Y009434D02*
X018165Y009434D01*
X018165Y009592D02*
X018205Y009592D01*
X018205Y009751D02*
X018165Y009751D01*
X018165Y009909D02*
X018205Y009909D01*
X018205Y010068D02*
X018165Y010068D01*
X018165Y010226D02*
X018205Y010226D01*
X018205Y010385D02*
X018165Y010385D01*
X017902Y010385D02*
X017553Y010385D01*
X017672Y010226D02*
X017764Y010226D01*
X018469Y010385D02*
X018902Y010385D01*
X018764Y010226D02*
X018607Y010226D01*
X018665Y010068D02*
X018705Y010068D01*
X018705Y009909D02*
X018665Y009909D01*
X018665Y009751D02*
X018705Y009751D01*
X018705Y009592D02*
X018665Y009592D01*
X018665Y009434D02*
X018705Y009434D01*
X018713Y009275D02*
X018658Y009275D01*
X018652Y009116D02*
X018719Y009116D01*
X018705Y008958D02*
X018665Y008958D01*
X018665Y008799D02*
X018705Y008799D01*
X018705Y008641D02*
X018665Y008641D01*
X018665Y008482D02*
X018705Y008482D01*
X018705Y008324D02*
X018665Y008324D01*
X018632Y008165D02*
X018739Y008165D01*
X018705Y008007D02*
X018665Y008007D01*
X018665Y007848D02*
X018705Y007848D01*
X018705Y007531D02*
X018665Y007531D01*
X018665Y007372D02*
X018705Y007372D01*
X018738Y007214D02*
X018632Y007214D01*
X018530Y007055D02*
X018840Y007055D01*
X019165Y007055D02*
X019205Y007055D01*
X019205Y007214D02*
X019165Y007214D01*
X019165Y007372D02*
X019205Y007372D01*
X019205Y007531D02*
X019165Y007531D01*
X019632Y007214D02*
X019674Y007214D01*
X019756Y007055D02*
X019530Y007055D01*
X019963Y006897D02*
X017408Y006897D01*
X017615Y007055D02*
X017840Y007055D01*
X017738Y007214D02*
X017697Y007214D01*
X018165Y007214D02*
X018205Y007214D01*
X018205Y007372D02*
X018165Y007372D01*
X018165Y007531D02*
X018205Y007531D01*
X018205Y007055D02*
X018165Y007055D01*
X017370Y006421D02*
X020537Y006421D01*
X020696Y006263D02*
X017528Y006263D01*
X017687Y006104D02*
X020854Y006104D01*
X021013Y005946D02*
X017845Y005946D01*
X018004Y005787D02*
X021171Y005787D01*
X021330Y005629D02*
X018162Y005629D01*
X018321Y005470D02*
X021488Y005470D01*
X021647Y005311D02*
X018479Y005311D01*
X018638Y005153D02*
X021806Y005153D01*
X021964Y004994D02*
X018796Y004994D01*
X018955Y004836D02*
X022123Y004836D01*
X022281Y004677D02*
X019114Y004677D01*
X019272Y004519D02*
X022440Y004519D01*
X022598Y004360D02*
X019431Y004360D01*
X019589Y004202D02*
X022757Y004202D01*
X022915Y004043D02*
X019748Y004043D01*
X019906Y003885D02*
X023074Y003885D01*
X023232Y003726D02*
X020065Y003726D01*
X020223Y003567D02*
X023391Y003567D01*
X023550Y003409D02*
X020382Y003409D01*
X020540Y003250D02*
X022046Y003250D01*
X022325Y003250D02*
X023670Y003250D01*
X023670Y003092D02*
X022618Y003092D01*
X022754Y002933D02*
X023616Y002933D01*
X023551Y002775D02*
X022820Y002775D01*
X022838Y002616D02*
X023533Y002616D01*
X023533Y002458D02*
X022838Y002458D01*
X022838Y002299D02*
X023533Y002299D01*
X023533Y002141D02*
X022838Y002141D01*
X022838Y001982D02*
X023533Y001982D01*
X023533Y001823D02*
X022838Y001823D01*
X022838Y001665D02*
X023533Y001665D01*
X023591Y001506D02*
X022780Y001506D01*
X022679Y001348D02*
X023691Y001348D01*
X023898Y001189D02*
X022472Y001189D01*
X021898Y001189D02*
X019972Y001189D01*
X020179Y001348D02*
X021691Y001348D01*
X021591Y001506D02*
X020280Y001506D01*
X020338Y001665D02*
X021533Y001665D01*
X021533Y001823D02*
X020338Y001823D01*
X020338Y001982D02*
X021533Y001982D01*
X021533Y002141D02*
X020338Y002141D01*
X020338Y002299D02*
X021533Y002299D01*
X019398Y001189D02*
X017972Y001189D01*
X018179Y001348D02*
X019191Y001348D01*
X019091Y001506D02*
X018280Y001506D01*
X018338Y001665D02*
X019033Y001665D01*
X019033Y001823D02*
X018338Y001823D01*
X018338Y001982D02*
X019033Y001982D01*
X019033Y002141D02*
X018338Y002141D01*
X018338Y002299D02*
X019033Y002299D01*
X018701Y002458D02*
X018338Y002458D01*
X018338Y002616D02*
X018542Y002616D01*
X018384Y002775D02*
X018320Y002775D01*
X017051Y002775D02*
X016320Y002775D01*
X016338Y002616D02*
X017033Y002616D01*
X017033Y002458D02*
X016338Y002458D01*
X016338Y002299D02*
X017033Y002299D01*
X017033Y002141D02*
X016338Y002141D01*
X016338Y001982D02*
X017033Y001982D01*
X017033Y001823D02*
X016338Y001823D01*
X016338Y001665D02*
X017033Y001665D01*
X017091Y001506D02*
X016280Y001506D01*
X016179Y001348D02*
X017191Y001348D01*
X017398Y001189D02*
X015972Y001189D01*
X015398Y001189D02*
X013972Y001189D01*
X014179Y001348D02*
X015191Y001348D01*
X015091Y001506D02*
X014280Y001506D01*
X014338Y001665D02*
X015033Y001665D01*
X015033Y001823D02*
X014338Y001823D01*
X014338Y001982D02*
X015033Y001982D01*
X015033Y002141D02*
X014338Y002141D01*
X014338Y002299D02*
X015033Y002299D01*
X015033Y002458D02*
X014338Y002458D01*
X014338Y002616D02*
X015033Y002616D01*
X015051Y002775D02*
X014320Y002775D01*
X014254Y002933D02*
X015116Y002933D01*
X015170Y003092D02*
X014118Y003092D01*
X013900Y003250D02*
X015170Y003250D01*
X015170Y003409D02*
X013900Y003409D01*
X013900Y003567D02*
X015170Y003567D01*
X015170Y003726D02*
X013900Y003726D01*
X013900Y003885D02*
X015074Y003885D01*
X014915Y004043D02*
X013900Y004043D01*
X013900Y004202D02*
X014757Y004202D01*
X014598Y004360D02*
X013900Y004360D01*
X013900Y004519D02*
X014440Y004519D01*
X014281Y004677D02*
X013900Y004677D01*
X013900Y004836D02*
X014123Y004836D01*
X013964Y004994D02*
X013900Y004994D01*
X013123Y004836D02*
X011900Y004836D01*
X011900Y004994D02*
X012964Y004994D01*
X012806Y005153D02*
X011900Y005153D01*
X011900Y005311D02*
X012647Y005311D01*
X012488Y005470D02*
X011900Y005470D01*
X011900Y005629D02*
X012330Y005629D01*
X012171Y005787D02*
X011900Y005787D01*
X011900Y005946D02*
X012013Y005946D01*
X011170Y005787D02*
X009900Y005787D01*
X009900Y005629D02*
X011170Y005629D01*
X011170Y005470D02*
X009900Y005470D01*
X009900Y005311D02*
X011170Y005311D01*
X011170Y005153D02*
X009900Y005153D01*
X009900Y004994D02*
X011170Y004994D01*
X011170Y004836D02*
X009900Y004836D01*
X009900Y004677D02*
X011170Y004677D01*
X011170Y004519D02*
X009900Y004519D01*
X009900Y004360D02*
X011170Y004360D01*
X011170Y004202D02*
X009900Y004202D01*
X009900Y004043D02*
X011170Y004043D01*
X011170Y003885D02*
X009900Y003885D01*
X009900Y003726D02*
X011170Y003726D01*
X011170Y003567D02*
X009900Y003567D01*
X009900Y003409D02*
X011170Y003409D01*
X011170Y003250D02*
X009900Y003250D01*
X010118Y003092D02*
X011170Y003092D01*
X011116Y002933D02*
X010254Y002933D01*
X010320Y002775D02*
X011051Y002775D01*
X011033Y002616D02*
X010338Y002616D01*
X010338Y002458D02*
X011033Y002458D01*
X011033Y002299D02*
X010338Y002299D01*
X010338Y002141D02*
X011033Y002141D01*
X011033Y001982D02*
X010338Y001982D01*
X010338Y001823D02*
X011033Y001823D01*
X011033Y001665D02*
X010338Y001665D01*
X010280Y001506D02*
X011091Y001506D01*
X011191Y001348D02*
X010179Y001348D01*
X009972Y001189D02*
X011398Y001189D01*
X011972Y001189D02*
X013398Y001189D01*
X013191Y001348D02*
X012179Y001348D01*
X012280Y001506D02*
X013091Y001506D01*
X013033Y001665D02*
X012338Y001665D01*
X012338Y001823D02*
X013033Y001823D01*
X013033Y001982D02*
X012338Y001982D01*
X012338Y002141D02*
X013033Y002141D01*
X013033Y002299D02*
X012338Y002299D01*
X012338Y002458D02*
X013033Y002458D01*
X013033Y002616D02*
X012338Y002616D01*
X012320Y002775D02*
X013051Y002775D01*
X013116Y002933D02*
X012254Y002933D01*
X012118Y003092D02*
X013170Y003092D01*
X013170Y003250D02*
X011900Y003250D01*
X011900Y003409D02*
X013170Y003409D01*
X013170Y003567D02*
X011900Y003567D01*
X011900Y003726D02*
X013170Y003726D01*
X013170Y003885D02*
X011900Y003885D01*
X011900Y004043D02*
X013170Y004043D01*
X013170Y004202D02*
X011900Y004202D01*
X011900Y004360D02*
X013170Y004360D01*
X013170Y004519D02*
X011900Y004519D01*
X011900Y004677D02*
X013170Y004677D01*
X011013Y005946D02*
X009900Y005946D01*
X009900Y006104D02*
X010854Y006104D01*
X010696Y006263D02*
X009900Y006263D01*
X009900Y006421D02*
X010537Y006421D01*
X010379Y006580D02*
X009900Y006580D01*
X009900Y006738D02*
X010220Y006738D01*
X009963Y006897D02*
X009900Y006897D01*
X015550Y010388D02*
X015550Y011087D01*
X015609Y011146D01*
X015685Y011330D01*
X015685Y012049D01*
X015685Y011330D01*
X015761Y011146D01*
X015820Y011087D01*
X015820Y010388D01*
X015728Y010295D01*
X015685Y010193D01*
X015643Y010295D01*
X015550Y010388D01*
X015553Y010385D02*
X015817Y010385D01*
X015820Y010543D02*
X015550Y010543D01*
X015550Y010702D02*
X015820Y010702D01*
X015820Y010860D02*
X015550Y010860D01*
X015550Y011019D02*
X015820Y011019D01*
X015748Y011178D02*
X015622Y011178D01*
X015685Y011336D02*
X015685Y011336D01*
X015685Y011495D02*
X015685Y011495D01*
X015685Y011653D02*
X015685Y011653D01*
X015685Y011812D02*
X015685Y011812D01*
X015685Y011970D02*
X015685Y011970D01*
X015652Y012129D02*
X015719Y012129D01*
X015816Y012287D02*
X015554Y012287D01*
X015293Y012446D02*
X016078Y012446D01*
X016293Y012446D02*
X018078Y012446D01*
X018293Y012446D02*
X018326Y012446D01*
X018484Y012604D02*
X017306Y012604D01*
X017335Y012616D02*
X017458Y012740D01*
X017525Y012902D01*
X017525Y013077D01*
X017525Y012921D02*
X018801Y012921D01*
X018643Y012763D02*
X017468Y012763D01*
X017335Y012616D02*
X017173Y012549D01*
X016998Y012549D01*
X016836Y012616D01*
X016712Y012740D01*
X016645Y012902D01*
X016645Y013077D01*
X016712Y013239D01*
X016647Y013080D02*
X014411Y013080D01*
X014569Y012921D02*
X016645Y012921D01*
X016703Y012763D02*
X014728Y012763D01*
X014886Y012604D02*
X016865Y012604D01*
X016936Y012322D02*
X016812Y012199D01*
X016745Y012037D01*
X016745Y011689D01*
X016745Y011342D01*
X016812Y011180D01*
X016936Y011056D01*
X017098Y010989D01*
X017185Y010989D01*
X017185Y011689D01*
X016745Y011689D01*
X017185Y011689D01*
X017185Y011689D01*
X017186Y011689D01*
X017186Y011689D01*
X017625Y011689D01*
X017625Y011342D01*
X017558Y011180D01*
X017435Y011056D01*
X017273Y010989D01*
X017186Y010989D01*
X017186Y011689D01*
X017625Y011689D01*
X017625Y012037D01*
X017558Y012199D01*
X017435Y012322D01*
X017273Y012389D01*
X017186Y012389D01*
X017186Y011690D01*
X017185Y011690D01*
X017185Y012389D01*
X017098Y012389D01*
X016936Y012322D01*
X016901Y012287D02*
X016554Y012287D01*
X016652Y012129D02*
X016783Y012129D01*
X016745Y011970D02*
X016685Y011970D01*
X016685Y011812D02*
X016745Y011812D01*
X016745Y011653D02*
X016685Y011653D01*
X016685Y011495D02*
X016745Y011495D01*
X016748Y011336D02*
X016685Y011336D01*
X016622Y011178D02*
X016815Y011178D01*
X017026Y011019D02*
X016550Y011019D01*
X016550Y010860D02*
X030729Y010860D01*
X030570Y011019D02*
X026482Y011019D01*
X026622Y011178D02*
X027231Y011178D01*
X027072Y011336D02*
X026685Y011336D01*
X026685Y011495D02*
X026914Y011495D01*
X026755Y011653D02*
X026685Y011653D01*
X025889Y011019D02*
X025482Y011019D01*
X025622Y011178D02*
X025748Y011178D01*
X025685Y011336D02*
X025685Y011336D01*
X025685Y011495D02*
X025685Y011495D01*
X025685Y011653D02*
X025685Y011653D01*
X025685Y011812D02*
X025685Y011812D01*
X025685Y011970D02*
X025685Y011970D01*
X025652Y012129D02*
X025719Y012129D01*
X025816Y012287D02*
X025554Y012287D01*
X025293Y012446D02*
X025963Y012446D01*
X025804Y012604D02*
X020517Y012604D01*
X020358Y012446D02*
X021078Y012446D01*
X021293Y012446D02*
X022078Y012446D01*
X022293Y012446D02*
X023078Y012446D01*
X023293Y012446D02*
X024078Y012446D01*
X024293Y012446D02*
X025078Y012446D01*
X024816Y012287D02*
X024554Y012287D01*
X024652Y012129D02*
X024719Y012129D01*
X024685Y011970D02*
X024685Y011970D01*
X024685Y011812D02*
X024685Y011812D01*
X024685Y011653D02*
X024685Y011653D01*
X024685Y011495D02*
X024685Y011495D01*
X024685Y011336D02*
X024685Y011336D01*
X024622Y011178D02*
X024748Y011178D01*
X024889Y011019D02*
X024482Y011019D01*
X023889Y011019D02*
X023482Y011019D01*
X023622Y011178D02*
X023748Y011178D01*
X023685Y011336D02*
X023685Y011336D01*
X023685Y011495D02*
X023685Y011495D01*
X023685Y011653D02*
X023685Y011653D01*
X023685Y011812D02*
X023685Y011812D01*
X023685Y011970D02*
X023685Y011970D01*
X023652Y012129D02*
X023719Y012129D01*
X023816Y012287D02*
X023554Y012287D01*
X022816Y012287D02*
X022554Y012287D01*
X022652Y012129D02*
X022719Y012129D01*
X022685Y011970D02*
X022685Y011970D01*
X022685Y011812D02*
X022685Y011812D01*
X022685Y011653D02*
X022685Y011653D01*
X022685Y011495D02*
X022685Y011495D01*
X022685Y011336D02*
X022685Y011336D01*
X022622Y011178D02*
X022748Y011178D01*
X022889Y011019D02*
X022482Y011019D01*
X021889Y011019D02*
X021482Y011019D01*
X021622Y011178D02*
X021748Y011178D01*
X021685Y011336D02*
X021685Y011336D01*
X021685Y011495D02*
X021685Y011495D01*
X021685Y011653D02*
X021685Y011653D01*
X021685Y011812D02*
X021685Y011812D01*
X021685Y011970D02*
X021685Y011970D01*
X021652Y012129D02*
X021719Y012129D01*
X021816Y012287D02*
X021554Y012287D01*
X020816Y012287D02*
X020554Y012287D01*
X020652Y012129D02*
X020719Y012129D01*
X020685Y011970D02*
X020685Y011970D01*
X020685Y011812D02*
X020685Y011812D01*
X020685Y011653D02*
X020685Y011653D01*
X020685Y011495D02*
X020685Y011495D01*
X020685Y011336D02*
X020685Y011336D01*
X020622Y011178D02*
X020748Y011178D01*
X020889Y011019D02*
X020482Y011019D01*
X019889Y011019D02*
X019482Y011019D01*
X019622Y011178D02*
X019748Y011178D01*
X019685Y011336D02*
X019685Y011336D01*
X019685Y011495D02*
X019685Y011495D01*
X019685Y011653D02*
X019685Y011653D01*
X018685Y011653D02*
X018685Y011653D01*
X018685Y011495D02*
X018685Y011495D01*
X018685Y011336D02*
X018685Y011336D01*
X018622Y011178D02*
X018748Y011178D01*
X018889Y011019D02*
X018482Y011019D01*
X017889Y011019D02*
X017345Y011019D01*
X017186Y011019D02*
X017185Y011019D01*
X017185Y011178D02*
X017186Y011178D01*
X017185Y011336D02*
X017186Y011336D01*
X017185Y011495D02*
X017186Y011495D01*
X017185Y011653D02*
X017186Y011653D01*
X017185Y011812D02*
X017186Y011812D01*
X017185Y011970D02*
X017186Y011970D01*
X017185Y012129D02*
X017186Y012129D01*
X017185Y012287D02*
X017186Y012287D01*
X017470Y012287D02*
X017816Y012287D01*
X017719Y012129D02*
X017587Y012129D01*
X017625Y011970D02*
X017685Y011970D01*
X017685Y011812D02*
X017625Y011812D01*
X017625Y011653D02*
X017685Y011653D01*
X017685Y011495D02*
X017625Y011495D01*
X017623Y011336D02*
X017685Y011336D01*
X017748Y011178D02*
X017556Y011178D01*
X016550Y010702D02*
X032032Y010702D01*
X032159Y010860D02*
X031242Y010860D01*
X031400Y011019D02*
X031655Y011019D01*
X031525Y011178D02*
X031505Y011178D01*
X031505Y011336D02*
X031975Y011336D01*
X031996Y011336D02*
X035882Y011336D01*
X036185Y011336D02*
X036186Y011336D01*
X036185Y011178D02*
X036186Y011178D01*
X036185Y011019D02*
X036186Y011019D01*
X036489Y011336D02*
X037745Y011336D01*
X037875Y011178D02*
X036647Y011178D01*
X036501Y011970D02*
X037947Y011970D01*
X037886Y011812D02*
X031248Y011812D01*
X031352Y011970D02*
X031619Y011970D01*
X031649Y011653D02*
X031407Y011653D01*
X031505Y011495D02*
X031525Y011495D01*
X031975Y011495D02*
X031995Y011495D01*
X031995Y011653D02*
X031975Y011653D01*
X031975Y011178D02*
X031995Y011178D01*
X031995Y011019D02*
X031975Y011019D01*
X031873Y010543D02*
X016550Y010543D01*
X016553Y010385D02*
X016817Y010385D01*
X016699Y010226D02*
X016672Y010226D01*
X015699Y010226D02*
X015672Y010226D01*
X015078Y012446D02*
X015045Y012446D01*
X013695Y012763D02*
X003950Y012763D01*
X003953Y012921D02*
X004418Y012921D01*
X004259Y013080D02*
X004111Y013080D01*
X004953Y012921D02*
X013537Y012921D01*
X013378Y013080D02*
X005111Y013080D01*
X005205Y013239D02*
X013220Y013239D01*
X013061Y013397D02*
X005205Y013397D01*
X005205Y013556D02*
X012903Y013556D01*
X012744Y013714D02*
X005096Y013714D01*
X004937Y013873D02*
X012586Y013873D01*
X012427Y014031D02*
X005063Y014031D01*
X005205Y014190D02*
X012269Y014190D01*
X012110Y014348D02*
X005205Y014348D01*
X005205Y014507D02*
X011951Y014507D01*
X011793Y014665D02*
X005144Y014665D01*
X004986Y014824D02*
X011634Y014824D01*
X019165Y010385D02*
X019205Y010385D01*
X020675Y012763D02*
X025645Y012763D01*
X025487Y012921D02*
X020834Y012921D01*
X020992Y013080D02*
X025328Y013080D01*
X025170Y013239D02*
X021151Y013239D01*
X021309Y013397D02*
X025011Y013397D01*
X024853Y013556D02*
X021468Y013556D01*
X021626Y013714D02*
X024694Y013714D01*
X024536Y013873D02*
X021785Y013873D01*
X021944Y014031D02*
X024377Y014031D01*
X024219Y014190D02*
X022171Y014190D01*
X022362Y014348D02*
X024060Y014348D01*
X023901Y014507D02*
X022425Y014507D01*
X022425Y014665D02*
X023743Y014665D01*
X023584Y014824D02*
X022364Y014824D01*
X023507Y017044D02*
X023864Y017044D01*
X023738Y017202D02*
X023632Y017202D01*
X023685Y017361D02*
X023685Y017361D01*
X023685Y017519D02*
X023685Y017519D01*
X023685Y017678D02*
X023685Y017678D01*
X023685Y017836D02*
X023685Y017836D01*
X023685Y017995D02*
X023685Y017995D01*
X023642Y018153D02*
X023729Y018153D01*
X022501Y024971D02*
X022400Y024971D01*
X022400Y025129D02*
X022659Y025129D01*
X022818Y025288D02*
X022400Y025288D01*
X022400Y025446D02*
X022976Y025446D01*
X023135Y025605D02*
X022400Y025605D01*
X022595Y025764D02*
X023293Y025764D01*
X023452Y025922D02*
X022745Y025922D01*
X022810Y026081D02*
X023560Y026081D01*
X023533Y026239D02*
X022838Y026239D01*
X022838Y026398D02*
X023533Y026398D01*
X023533Y026556D02*
X022838Y026556D01*
X022838Y026715D02*
X023533Y026715D01*
X023533Y026873D02*
X022838Y026873D01*
X022838Y027032D02*
X023533Y027032D01*
X023533Y027190D02*
X022838Y027190D01*
X022789Y027349D02*
X023581Y027349D01*
X023668Y027507D02*
X022702Y027507D01*
X022528Y027666D02*
X023842Y027666D01*
X024528Y027666D02*
X025842Y027666D01*
X025668Y027507D02*
X024702Y027507D01*
X024789Y027349D02*
X025581Y027349D01*
X025533Y027190D02*
X024838Y027190D01*
X024838Y027032D02*
X025533Y027032D01*
X025533Y026873D02*
X024838Y026873D01*
X024838Y026715D02*
X025533Y026715D01*
X025533Y026556D02*
X024838Y026556D01*
X024838Y026398D02*
X025178Y026398D01*
X025019Y026239D02*
X024838Y026239D01*
X024861Y026081D02*
X024810Y026081D01*
X026838Y026556D02*
X027533Y026556D01*
X027533Y026715D02*
X026838Y026715D01*
X026838Y026873D02*
X027533Y026873D01*
X027533Y027032D02*
X026838Y027032D01*
X026838Y027190D02*
X027533Y027190D01*
X027581Y027349D02*
X026789Y027349D01*
X026702Y027507D02*
X027668Y027507D01*
X027842Y027666D02*
X026528Y027666D01*
X028528Y027666D02*
X029842Y027666D01*
X029668Y027507D02*
X028702Y027507D01*
X028789Y027349D02*
X029581Y027349D01*
X029533Y027190D02*
X028838Y027190D01*
X028838Y027032D02*
X029533Y027032D01*
X029533Y026873D02*
X028838Y026873D01*
X028838Y026715D02*
X029533Y026715D01*
X029533Y026556D02*
X028838Y026556D01*
X030838Y026556D02*
X031533Y026556D01*
X031533Y026715D02*
X030838Y026715D01*
X030838Y026873D02*
X031533Y026873D01*
X031533Y027032D02*
X030838Y027032D01*
X030838Y027190D02*
X031533Y027190D01*
X031581Y027349D02*
X030789Y027349D01*
X030702Y027507D02*
X031668Y027507D01*
X031842Y027666D02*
X030528Y027666D01*
X038185Y011812D02*
X038186Y011812D01*
X038185Y011653D02*
X038186Y011653D01*
X038185Y011495D02*
X038186Y011495D01*
X038185Y011336D02*
X038186Y011336D01*
X038185Y011178D02*
X038186Y011178D01*
X037851Y009116D02*
X031479Y009116D01*
X031320Y008958D02*
X038050Y008958D01*
X038209Y008799D02*
X031162Y008799D01*
X031003Y008641D02*
X038270Y008641D01*
X038270Y008482D02*
X030845Y008482D01*
X030686Y008324D02*
X038270Y008324D01*
X038270Y008165D02*
X030527Y008165D01*
X030369Y008007D02*
X038270Y008007D01*
X038270Y007848D02*
X030210Y007848D01*
X030052Y007690D02*
X038270Y007690D01*
X038208Y007531D02*
X029893Y007531D01*
X029735Y007372D02*
X038142Y007372D01*
X038120Y007214D02*
X029576Y007214D01*
X029418Y007055D02*
X038122Y007055D01*
X038188Y006897D02*
X029259Y006897D01*
X029101Y006738D02*
X038301Y006738D01*
X038539Y006580D02*
X028942Y006580D01*
X027012Y005787D02*
X026554Y005787D01*
X026712Y005629D02*
X026946Y005629D01*
X026945Y005470D02*
X026871Y005470D01*
X026314Y004994D02*
X025996Y004994D01*
X025838Y005153D02*
X026156Y005153D01*
X025997Y005311D02*
X025679Y005311D01*
X025521Y005470D02*
X025838Y005470D01*
X025680Y005629D02*
X025362Y005629D01*
X025204Y005787D02*
X025521Y005787D01*
X025363Y005946D02*
X025045Y005946D01*
X024887Y006104D02*
X025204Y006104D01*
X025046Y006263D02*
X024728Y006263D01*
X024570Y006421D02*
X024970Y006421D01*
X024970Y006580D02*
X024411Y006580D01*
X024252Y006738D02*
X024970Y006738D01*
X024963Y006897D02*
X024408Y006897D01*
X024615Y007055D02*
X024756Y007055D01*
X025700Y007055D02*
X025756Y007055D01*
X025700Y006897D02*
X025963Y006897D01*
X026155Y004836D02*
X026473Y004836D01*
X026314Y004677D02*
X026706Y004677D01*
X026472Y004519D02*
X030740Y004519D01*
X030898Y004360D02*
X026631Y004360D01*
X026789Y004202D02*
X031057Y004202D01*
X031215Y004043D02*
X026948Y004043D01*
X027106Y003885D02*
X031374Y003885D01*
X031532Y003726D02*
X027265Y003726D01*
X028723Y003567D02*
X031691Y003567D01*
X031850Y003409D02*
X028882Y003409D01*
X029040Y003250D02*
X030046Y003250D01*
X030325Y003250D02*
X032008Y003250D01*
X031753Y003092D02*
X030618Y003092D01*
X030754Y002933D02*
X031616Y002933D01*
X031551Y002775D02*
X030820Y002775D01*
X030838Y002616D02*
X031533Y002616D01*
X031533Y002458D02*
X030838Y002458D01*
X030838Y002299D02*
X031533Y002299D01*
X031533Y002141D02*
X030838Y002141D01*
X030838Y001982D02*
X031533Y001982D01*
X031533Y001823D02*
X030838Y001823D01*
X030838Y001665D02*
X031533Y001665D01*
X031591Y001506D02*
X030780Y001506D01*
X030679Y001348D02*
X031691Y001348D01*
X031898Y001189D02*
X030472Y001189D01*
X029898Y001189D02*
X028472Y001189D01*
X028679Y001348D02*
X029691Y001348D01*
X029591Y001506D02*
X028780Y001506D01*
X028838Y001665D02*
X029533Y001665D01*
X029533Y001823D02*
X028838Y001823D01*
X028838Y001982D02*
X029533Y001982D01*
X029533Y002141D02*
X028838Y002141D01*
X028838Y002299D02*
X029533Y002299D01*
X027898Y001189D02*
X026472Y001189D01*
X026679Y001348D02*
X027691Y001348D01*
X027591Y001506D02*
X026780Y001506D01*
X026838Y001665D02*
X027533Y001665D01*
X027533Y001823D02*
X026838Y001823D01*
X026838Y001982D02*
X027533Y001982D01*
X027533Y002141D02*
X026838Y002141D01*
X026838Y002299D02*
X027533Y002299D01*
X025898Y001189D02*
X024472Y001189D01*
X024679Y001348D02*
X025691Y001348D01*
X025591Y001506D02*
X024780Y001506D01*
X024838Y001665D02*
X025533Y001665D01*
X025533Y001823D02*
X024838Y001823D01*
X024838Y001982D02*
X025533Y001982D01*
X025533Y002141D02*
X024838Y002141D01*
X024838Y002299D02*
X025533Y002299D01*
X025533Y002458D02*
X024838Y002458D01*
X024838Y002616D02*
X025392Y002616D01*
X025234Y002775D02*
X024820Y002775D01*
X024754Y002933D02*
X025075Y002933D01*
X024917Y003092D02*
X024618Y003092D01*
X024758Y003250D02*
X024400Y003250D01*
X024400Y003409D02*
X024600Y003409D01*
X024441Y003567D02*
X024377Y003567D01*
X024282Y003726D02*
X024265Y003726D01*
X024124Y003885D02*
X024106Y003885D01*
X023965Y004043D02*
X023948Y004043D01*
X023807Y004202D02*
X023789Y004202D01*
X023648Y004360D02*
X023631Y004360D01*
X023490Y004519D02*
X023472Y004519D01*
X023331Y004677D02*
X023314Y004677D01*
X023173Y004836D02*
X023155Y004836D01*
X023014Y004994D02*
X022996Y004994D01*
X022856Y005153D02*
X022838Y005153D01*
X022697Y005311D02*
X022679Y005311D01*
X022538Y005470D02*
X022521Y005470D01*
X022380Y005629D02*
X022362Y005629D01*
X022221Y005787D02*
X022204Y005787D01*
X022063Y005946D02*
X022045Y005946D01*
X021904Y006104D02*
X021887Y006104D01*
X021746Y006263D02*
X021728Y006263D01*
X021587Y006421D02*
X021570Y006421D01*
X021429Y006580D02*
X021411Y006580D01*
X021270Y006738D02*
X021252Y006738D01*
X020379Y006580D02*
X017211Y006580D01*
X017052Y006738D02*
X020220Y006738D01*
X016963Y006897D02*
X016894Y006897D01*
X016756Y007055D02*
X016735Y007055D01*
X016024Y003885D02*
X015900Y003885D01*
X015900Y003726D02*
X016182Y003726D01*
X016341Y003567D02*
X015900Y003567D01*
X015900Y003409D02*
X016500Y003409D01*
X016658Y003250D02*
X015900Y003250D01*
X016118Y003092D02*
X016817Y003092D01*
X016975Y002933D02*
X016254Y002933D01*
X028247Y010385D02*
X031715Y010385D01*
X031556Y010226D02*
X029321Y010226D01*
X029425Y010121D02*
X029168Y010379D01*
X028986Y010379D01*
X028986Y009940D01*
X028985Y009940D01*
X028985Y010379D01*
X028803Y010379D01*
X028545Y010121D01*
X028545Y009939D01*
X028545Y009757D01*
X028803Y009499D01*
X028985Y009499D01*
X028985Y009939D01*
X028545Y009939D01*
X028985Y009939D01*
X028985Y009939D01*
X028986Y009939D01*
X028986Y009939D01*
X029425Y009939D01*
X029425Y009757D01*
X029168Y009499D01*
X028986Y009499D01*
X028986Y009939D01*
X029425Y009939D01*
X029425Y010121D01*
X029425Y010068D02*
X031398Y010068D01*
X031239Y009909D02*
X029425Y009909D01*
X029419Y009751D02*
X031081Y009751D01*
X030922Y009592D02*
X029260Y009592D01*
X028986Y009592D02*
X028985Y009592D01*
X028985Y009751D02*
X028986Y009751D01*
X028985Y009909D02*
X028986Y009909D01*
X028985Y010068D02*
X028986Y010068D01*
X028985Y010226D02*
X028986Y010226D01*
X028650Y010226D02*
X028405Y010226D01*
X028485Y010068D02*
X028545Y010068D01*
X028545Y009909D02*
X028485Y009909D01*
X028485Y009751D02*
X028552Y009751D01*
X028710Y009592D02*
X028345Y009592D01*
X030979Y005311D02*
X038182Y005311D01*
X038180Y005132D02*
X038180Y005071D01*
X038271Y004854D01*
X038437Y004687D01*
X038655Y004597D01*
X039128Y004597D01*
X039128Y005132D01*
X038180Y005132D01*
X038212Y004994D02*
X031296Y004994D01*
X031138Y005153D02*
X039128Y005153D01*
X039128Y005132D02*
X039128Y005247D01*
X039243Y005247D01*
X039243Y005782D01*
X039716Y005782D01*
X039934Y005692D01*
X040100Y005525D01*
X040190Y005307D01*
X040190Y005247D01*
X039243Y005247D01*
X039243Y005132D01*
X040190Y005132D01*
X040190Y005071D01*
X040100Y004854D01*
X039934Y004687D01*
X039716Y004597D01*
X039243Y004597D01*
X039243Y005132D01*
X039128Y005132D01*
X039243Y005153D02*
X040290Y005153D01*
X040290Y005311D02*
X040189Y005311D01*
X040123Y005470D02*
X040290Y005470D01*
X040290Y005629D02*
X039997Y005629D01*
X040158Y004994D02*
X040290Y004994D01*
X040290Y004836D02*
X040082Y004836D01*
X039910Y004677D02*
X040290Y004677D01*
X040290Y004519D02*
X031772Y004519D01*
X031614Y004677D02*
X038461Y004677D01*
X038288Y004836D02*
X031455Y004836D01*
X031931Y004360D02*
X040290Y004360D01*
X040290Y004202D02*
X032089Y004202D01*
X032248Y004043D02*
X040290Y004043D01*
X040290Y003885D02*
X032406Y003885D01*
X032565Y003726D02*
X038554Y003726D01*
X038249Y003567D02*
X032723Y003567D01*
X032882Y003409D02*
X038050Y003409D01*
X037898Y003250D02*
X036325Y003250D01*
X036315Y003254D02*
X036056Y003254D01*
X035816Y003155D01*
X035632Y002971D01*
X035533Y002732D01*
X035533Y001647D01*
X035632Y001407D01*
X035816Y001224D01*
X036056Y001124D01*
X036315Y001124D01*
X036555Y001224D01*
X036739Y001407D01*
X036838Y001647D01*
X036838Y002732D01*
X036739Y002971D01*
X036555Y003155D01*
X036315Y003254D01*
X036046Y003250D02*
X034325Y003250D01*
X034046Y003250D02*
X033040Y003250D01*
X034618Y003092D02*
X035753Y003092D01*
X035616Y002933D02*
X034754Y002933D01*
X034820Y002775D02*
X035551Y002775D01*
X035533Y002616D02*
X034838Y002616D01*
X034838Y002458D02*
X035533Y002458D01*
X035533Y002299D02*
X034838Y002299D01*
X034838Y002141D02*
X035533Y002141D01*
X035533Y001982D02*
X034838Y001982D01*
X034838Y001823D02*
X035533Y001823D01*
X035533Y001665D02*
X034838Y001665D01*
X034780Y001506D02*
X035591Y001506D01*
X035691Y001348D02*
X034679Y001348D01*
X034472Y001189D02*
X035898Y001189D01*
X036472Y001189D02*
X037856Y001189D01*
X037748Y001348D02*
X036679Y001348D01*
X036780Y001506D02*
X037658Y001506D01*
X037609Y001665D02*
X036838Y001665D01*
X036838Y001823D02*
X037560Y001823D01*
X037524Y001982D02*
X036838Y001982D01*
X036838Y002141D02*
X037524Y002141D01*
X037524Y002299D02*
X036838Y002299D01*
X036838Y002458D02*
X037530Y002458D01*
X037579Y002616D02*
X036838Y002616D01*
X036820Y002775D02*
X037628Y002775D01*
X037682Y002933D02*
X036754Y002933D01*
X036618Y003092D02*
X037790Y003092D01*
X039846Y003726D02*
X040290Y003726D01*
X040290Y003567D02*
X040121Y003567D01*
X039243Y004677D02*
X039128Y004677D01*
X039128Y004836D02*
X039243Y004836D01*
X039243Y004994D02*
X039128Y004994D01*
X039128Y005311D02*
X039243Y005311D01*
X039243Y005470D02*
X039128Y005470D01*
X039128Y005629D02*
X039243Y005629D01*
X033533Y002299D02*
X032838Y002299D01*
X032838Y002141D02*
X033533Y002141D01*
X033533Y001982D02*
X032838Y001982D01*
X032838Y001823D02*
X033533Y001823D01*
X033533Y001665D02*
X032838Y001665D01*
X032780Y001506D02*
X033591Y001506D01*
X033691Y001348D02*
X032679Y001348D01*
X032472Y001189D02*
X033898Y001189D01*
X004198Y015141D02*
X004088Y015141D01*
X004145Y015300D02*
X004165Y015300D01*
X004165Y015458D02*
X004145Y015458D01*
X004177Y015617D02*
X004108Y015617D01*
X003421Y015775D02*
X003087Y015775D01*
X002929Y015617D02*
X003262Y015617D01*
X003225Y015458D02*
X002770Y015458D01*
X002612Y015300D02*
X003225Y015300D01*
X002375Y015047D02*
X002370Y015058D01*
X001555Y013873D02*
X001515Y013873D01*
X001515Y012763D02*
X001555Y012763D01*
X001555Y012604D02*
X001515Y012604D01*
X002585Y009592D02*
X002586Y009592D01*
X002585Y009434D02*
X002586Y009434D01*
X002585Y009275D02*
X002586Y009275D01*
X002327Y009275D02*
X002085Y009275D01*
X002096Y009434D02*
X002169Y009434D01*
X001554Y003726D02*
X000780Y003726D01*
X000780Y003567D02*
X001249Y003567D01*
X001050Y003409D02*
X000780Y003409D01*
X000780Y003250D02*
X000898Y003250D01*
X000954Y003332D02*
X000954Y003332D01*
X000790Y003092D02*
X000780Y003092D01*
X000780Y018312D02*
X000844Y018312D01*
X000780Y018471D02*
X001107Y018471D01*
X000780Y018629D02*
X002518Y018629D01*
X002360Y018471D02*
X001964Y018471D01*
M02*
