%
M48
M72
T01C0.0240
T02C0.0320
T03C0.0360
T04C0.0390
T05C0.0400
T06C0.0440
T07C0.0550
T08C0.0590
T09C0.1180
T10C0.1260
%
T01
X17085Y12989
X20235Y13539
X21985Y14589
X24585Y15889
X28535Y18289
X31935Y20889
X28885Y22139
X37935Y15489
X36785Y14289
X37635Y13739
X32585Y10739
X27385Y5539
X13885Y16789
X3085Y16289
T02
X2735Y18139
X4735Y18139
X7185Y17689
X8185Y17689
X9185Y17689
X10185Y17689
X11185Y17689
X12185Y17689
X13185Y17689
X14185Y17689
X15185Y17689
X16185Y17689
X17185Y17689
X18185Y17689
X19185Y17689
X20185Y17689
X21185Y17689
X22185Y17689
X23185Y17689
X24185Y17689
X25185Y17689
X26185Y17689
X27885Y16439
X28885Y16439
X28485Y14439
X28485Y12539
X26185Y11689
X25185Y11689
X24185Y11689
X23185Y11689
X22185Y11689
X21185Y11689
X20185Y11689
X19185Y11689
X18185Y11689
X17185Y11689
X16185Y11689
X15185Y11689
X14185Y11689
X13185Y11689
X12185Y11689
X11185Y11689
X10185Y11689
X9185Y11689
X8185Y11689
X7185Y11689
X5985Y10789
X4985Y10789
X3835Y10789
X2835Y10789
X1585Y11389
X2585Y9639
X3585Y9639
X5185Y9639
X6185Y9639
X1585Y9389
X27985Y9939
X28985Y9939
X33735Y14939
X36185Y13439
X36185Y12439
X38185Y12439
X38185Y11489
X36185Y10939
X36185Y9939
X38185Y9489
X38185Y14439
X36735Y14939
T03
X31985Y15339
X30985Y15339
X30985Y14339
X31985Y14339
X31985Y13339
X30985Y13339
X30985Y12339
X31985Y12339
X31985Y11339
X30985Y11339
X4685Y13389
X3685Y13389
X3685Y14389
X4685Y14389
X4685Y15389
X3685Y15389
T04
X39735Y12689
X39735Y11689
X39735Y10689
T05
X35925Y16409
X34145Y16409
X34145Y18969
X35925Y18969
X28185Y19689
X27185Y19689
X26185Y19689
X25185Y19689
X24185Y19689
X23185Y19689
X22185Y19689
X21185Y19689
X20185Y19689
X19185Y19689
X18185Y19689
X17185Y19689
X16185Y19689
X15185Y19689
X14185Y19689
X13185Y19689
X12185Y19689
X11185Y19689
X10185Y19689
X9185Y19689
X8185Y19689
X7185Y19689
X7185Y20689
X8185Y20689
X9185Y20689
X10185Y20689
X11185Y20689
X12185Y20689
X13185Y20689
X14185Y20689
X15185Y20689
X16185Y20689
X17185Y20689
X18185Y20689
X19185Y20689
X20185Y20689
X21185Y20689
X22185Y20689
X23185Y20689
X24185Y20689
X25185Y20689
X26185Y20689
X27185Y20689
X28185Y20689
X28185Y21689
X27185Y21689
X26185Y21689
X25185Y21689
X24185Y21689
X23185Y21689
X22185Y21689
X21185Y21689
X20185Y21689
X19185Y21689
X18185Y21689
X17185Y21689
X16185Y21689
X15185Y21689
X14185Y21689
X13185Y21689
X12185Y21689
X11185Y21689
X10185Y21689
X9185Y21689
X8185Y21689
X7185Y21689
X5885Y19039
X5885Y18039
X1535Y17939
X1535Y16939
X1535Y15939
X1535Y14939
X1535Y13939
X1535Y12939
X7185Y9689
X7185Y8689
X8185Y8689
X9185Y8689
X10185Y8689
X10185Y9689
X9185Y9689
X8185Y9689
X8185Y7689
X9185Y7689
X10185Y7689
X11185Y7689
X12185Y7689
X13185Y7689
X14185Y7689
X15185Y7689
X16185Y7689
X17185Y7689
X18185Y7689
X19185Y7689
X20185Y7689
X21185Y7689
X22185Y7689
X23185Y7689
X24185Y7689
X25185Y7689
X26185Y7689
X26185Y8689
X25185Y8689
X24185Y8689
X23185Y8689
X22185Y8689
X21185Y8689
X20185Y8689
X19185Y8689
X18185Y8689
X17185Y8689
X16185Y8689
X15185Y8689
X14185Y8689
X13185Y8689
X12185Y8689
X11185Y8689
X11185Y9689
X12185Y9689
X13185Y9689
X14185Y9689
X15185Y9689
X16185Y9689
X17185Y9689
X18185Y9689
X19185Y9689
X20185Y9689
X21185Y9689
X22185Y9689
X23185Y9689
X24185Y9689
X25185Y9689
X26185Y9689
X7185Y7689
T06
X34335Y9839
X34335Y13839
T07
X39185Y7189
X39185Y5189
X36185Y2189
X34185Y2189
X32185Y2189
X30185Y2189
X28185Y2189
X26185Y2189
X24185Y2189
X22185Y2189
X19685Y2189
X17685Y2189
X15685Y2189
X13685Y2189
X11685Y2189
X9685Y2189
X7685Y2189
X5685Y2189
X2185Y5189
X2185Y7189
X2185Y21689
X2185Y23689
X5685Y26689
X7685Y26689
X9685Y26689
X11685Y26689
X13685Y26689
X15685Y26689
X17685Y26689
X19685Y26689
X22185Y26689
X24185Y26689
X26185Y26689
X28185Y26689
X30185Y26689
X32185Y26689
X34185Y26689
X36185Y26689
X39185Y23689
X39185Y21689
T08
X32712Y18763
X31141Y18767
X29570Y18767
T09
X2185Y2189
X2185Y26689
X39185Y26689
X39185Y2189
T10
X39704Y17489
X37342Y17489
X38503Y19418
M30
