G75*
G70*
%OFA0B0*%
%FSLAX24Y24*%
%IPPOS*%
%LPD*%
%AMOC8*
5,1,8,0,0,1.08239X$1,22.5*
%
%ADD10C,0.0520*%
%ADD11OC8,0.0520*%
%ADD12OC8,0.0560*%
%ADD13C,0.0600*%
%ADD14C,0.0520*%
%ADD15C,0.0660*%
%ADD16R,0.0594X0.0594*%
%ADD17C,0.0594*%
%ADD18OC8,0.0630*%
%ADD19C,0.0630*%
%ADD20C,0.0886*%
%ADD21C,0.1660*%
%ADD22C,0.0825*%
%ADD23C,0.0250*%
%ADD24C,0.0400*%
%ADD25C,0.0160*%
D10*
X007185Y011429D02*
X007185Y011949D01*
X008185Y011949D02*
X008185Y011429D01*
X009185Y011429D02*
X009185Y011949D01*
X010185Y011949D02*
X010185Y011429D01*
X011185Y011429D02*
X011185Y011949D01*
X012185Y011949D02*
X012185Y011429D01*
X013185Y011429D02*
X013185Y011949D01*
X014185Y011949D02*
X014185Y011429D01*
X015185Y011429D02*
X015185Y011949D01*
X016185Y011949D02*
X016185Y011429D01*
X017185Y011429D02*
X017185Y011949D01*
X018185Y011949D02*
X018185Y011429D01*
X019185Y011429D02*
X019185Y011949D01*
X020185Y011949D02*
X020185Y011429D01*
X021185Y011429D02*
X021185Y011949D01*
X022185Y011949D02*
X022185Y011429D01*
X023185Y011429D02*
X023185Y011949D01*
X024185Y011949D02*
X024185Y011429D01*
X025185Y011429D02*
X025185Y011949D01*
X026185Y011949D02*
X026185Y011429D01*
X026185Y017429D02*
X026185Y017949D01*
X025185Y017949D02*
X025185Y017429D01*
X024185Y017429D02*
X024185Y017949D01*
X023185Y017949D02*
X023185Y017429D01*
X022185Y017429D02*
X022185Y017949D01*
X021185Y017949D02*
X021185Y017429D01*
X020185Y017429D02*
X020185Y017949D01*
X019185Y017949D02*
X019185Y017429D01*
X018185Y017429D02*
X018185Y017949D01*
X017185Y017949D02*
X017185Y017429D01*
X016185Y017429D02*
X016185Y017949D01*
X015185Y017949D02*
X015185Y017429D01*
X014185Y017429D02*
X014185Y017949D01*
X013185Y017949D02*
X013185Y017429D01*
X012185Y017429D02*
X012185Y017949D01*
X011185Y017949D02*
X011185Y017429D01*
X010185Y017429D02*
X010185Y017949D01*
X009185Y017949D02*
X009185Y017429D01*
X008185Y017429D02*
X008185Y017949D01*
X007185Y017949D02*
X007185Y017429D01*
D11*
X004735Y018139D03*
X002735Y018139D03*
X001585Y011389D03*
X002835Y010789D03*
X003835Y010789D03*
X004985Y010789D03*
X005985Y010789D03*
X006185Y009639D03*
X005185Y009639D03*
X003585Y009639D03*
X002585Y009639D03*
X001585Y009389D03*
X027985Y009939D03*
X028985Y009939D03*
X033735Y014939D03*
X036735Y014939D03*
X038185Y014439D03*
X038185Y012439D03*
X038185Y011489D03*
X038185Y009489D03*
X028885Y016439D03*
X027885Y016439D03*
D12*
X030985Y015339D03*
X031985Y015339D03*
X031985Y014339D03*
X030985Y014339D03*
X030985Y013339D03*
X031985Y013339D03*
X031985Y012339D03*
X030985Y012339D03*
X030985Y011339D03*
X031985Y011339D03*
X004685Y013389D03*
X003685Y013389D03*
X003685Y014389D03*
X004685Y014389D03*
X004685Y015389D03*
X003685Y015389D03*
D13*
X001835Y014939D02*
X001235Y014939D01*
X001235Y013939D02*
X001835Y013939D01*
X001835Y012939D02*
X001235Y012939D01*
X001235Y015939D02*
X001835Y015939D01*
X001835Y016939D02*
X001235Y016939D01*
X001235Y017939D02*
X001835Y017939D01*
X005585Y018039D02*
X006185Y018039D01*
X006185Y019039D02*
X005585Y019039D01*
X007185Y019389D02*
X007185Y019989D01*
X007185Y020389D02*
X007185Y020989D01*
X007185Y021389D02*
X007185Y021989D01*
X008185Y021989D02*
X008185Y021389D01*
X008185Y020989D02*
X008185Y020389D01*
X008185Y019989D02*
X008185Y019389D01*
X009185Y019389D02*
X009185Y019989D01*
X009185Y020389D02*
X009185Y020989D01*
X009185Y021389D02*
X009185Y021989D01*
X010185Y021989D02*
X010185Y021389D01*
X010185Y020989D02*
X010185Y020389D01*
X010185Y019989D02*
X010185Y019389D01*
X011185Y019389D02*
X011185Y019989D01*
X011185Y020389D02*
X011185Y020989D01*
X011185Y021389D02*
X011185Y021989D01*
X012185Y021989D02*
X012185Y021389D01*
X012185Y020989D02*
X012185Y020389D01*
X012185Y019989D02*
X012185Y019389D01*
X013185Y019389D02*
X013185Y019989D01*
X013185Y020389D02*
X013185Y020989D01*
X013185Y021389D02*
X013185Y021989D01*
X014185Y021989D02*
X014185Y021389D01*
X014185Y020989D02*
X014185Y020389D01*
X014185Y019989D02*
X014185Y019389D01*
X015185Y019389D02*
X015185Y019989D01*
X015185Y020389D02*
X015185Y020989D01*
X015185Y021389D02*
X015185Y021989D01*
X016185Y021989D02*
X016185Y021389D01*
X016185Y020989D02*
X016185Y020389D01*
X016185Y019989D02*
X016185Y019389D01*
X017185Y019389D02*
X017185Y019989D01*
X017185Y020389D02*
X017185Y020989D01*
X017185Y021389D02*
X017185Y021989D01*
X018185Y021989D02*
X018185Y021389D01*
X018185Y020989D02*
X018185Y020389D01*
X018185Y019989D02*
X018185Y019389D01*
X019185Y019389D02*
X019185Y019989D01*
X019185Y020389D02*
X019185Y020989D01*
X019185Y021389D02*
X019185Y021989D01*
X020185Y021989D02*
X020185Y021389D01*
X020185Y020989D02*
X020185Y020389D01*
X020185Y019989D02*
X020185Y019389D01*
X021185Y019389D02*
X021185Y019989D01*
X021185Y020389D02*
X021185Y020989D01*
X021185Y021389D02*
X021185Y021989D01*
X022185Y021989D02*
X022185Y021389D01*
X022185Y020989D02*
X022185Y020389D01*
X022185Y019989D02*
X022185Y019389D01*
X023185Y019389D02*
X023185Y019989D01*
X023185Y020389D02*
X023185Y020989D01*
X023185Y021389D02*
X023185Y021989D01*
X024185Y021989D02*
X024185Y021389D01*
X024185Y020989D02*
X024185Y020389D01*
X024185Y019989D02*
X024185Y019389D01*
X025185Y019389D02*
X025185Y019989D01*
X025185Y020389D02*
X025185Y020989D01*
X025185Y021389D02*
X025185Y021989D01*
X026185Y021989D02*
X026185Y021389D01*
X026185Y020989D02*
X026185Y020389D01*
X026185Y019989D02*
X026185Y019389D01*
X027185Y019389D02*
X027185Y019989D01*
X027185Y020389D02*
X027185Y020989D01*
X027185Y021389D02*
X027185Y021989D01*
X028185Y021989D02*
X028185Y021389D01*
X028185Y020989D02*
X028185Y020389D01*
X028185Y019989D02*
X028185Y019389D01*
X034145Y019269D02*
X034145Y018669D01*
X035925Y018669D02*
X035925Y019269D01*
X035925Y016709D02*
X035925Y016109D01*
X034145Y016109D02*
X034145Y016709D01*
X026185Y009989D02*
X026185Y009389D01*
X026185Y008989D02*
X026185Y008389D01*
X026185Y007989D02*
X026185Y007389D01*
X025185Y007389D02*
X025185Y007989D01*
X025185Y008389D02*
X025185Y008989D01*
X025185Y009389D02*
X025185Y009989D01*
X024185Y009989D02*
X024185Y009389D01*
X024185Y008989D02*
X024185Y008389D01*
X024185Y007989D02*
X024185Y007389D01*
X023185Y007389D02*
X023185Y007989D01*
X023185Y008389D02*
X023185Y008989D01*
X023185Y009389D02*
X023185Y009989D01*
X022185Y009989D02*
X022185Y009389D01*
X022185Y008989D02*
X022185Y008389D01*
X022185Y007989D02*
X022185Y007389D01*
X021185Y007389D02*
X021185Y007989D01*
X021185Y008389D02*
X021185Y008989D01*
X021185Y009389D02*
X021185Y009989D01*
X020185Y009989D02*
X020185Y009389D01*
X020185Y008989D02*
X020185Y008389D01*
X020185Y007989D02*
X020185Y007389D01*
X019185Y007389D02*
X019185Y007989D01*
X019185Y008389D02*
X019185Y008989D01*
X019185Y009389D02*
X019185Y009989D01*
X018185Y009989D02*
X018185Y009389D01*
X018185Y008989D02*
X018185Y008389D01*
X018185Y007989D02*
X018185Y007389D01*
X017185Y007389D02*
X017185Y007989D01*
X017185Y008389D02*
X017185Y008989D01*
X017185Y009389D02*
X017185Y009989D01*
X016185Y009989D02*
X016185Y009389D01*
X016185Y008989D02*
X016185Y008389D01*
X016185Y007989D02*
X016185Y007389D01*
X015185Y007389D02*
X015185Y007989D01*
X015185Y008389D02*
X015185Y008989D01*
X015185Y009389D02*
X015185Y009989D01*
X014185Y009989D02*
X014185Y009389D01*
X014185Y008989D02*
X014185Y008389D01*
X014185Y007989D02*
X014185Y007389D01*
X013185Y007389D02*
X013185Y007989D01*
X013185Y008389D02*
X013185Y008989D01*
X013185Y009389D02*
X013185Y009989D01*
X012185Y009989D02*
X012185Y009389D01*
X012185Y008989D02*
X012185Y008389D01*
X012185Y007989D02*
X012185Y007389D01*
X011185Y007389D02*
X011185Y007989D01*
X011185Y008389D02*
X011185Y008989D01*
X011185Y009389D02*
X011185Y009989D01*
X010185Y009989D02*
X010185Y009389D01*
X010185Y008989D02*
X010185Y008389D01*
X010185Y007989D02*
X010185Y007389D01*
X009185Y007389D02*
X009185Y007989D01*
X009185Y008389D02*
X009185Y008989D01*
X009185Y009389D02*
X009185Y009989D01*
X008185Y009989D02*
X008185Y009389D01*
X008185Y008989D02*
X008185Y008389D01*
X008185Y007989D02*
X008185Y007389D01*
X007185Y007389D02*
X007185Y007989D01*
X007185Y008389D02*
X007185Y008989D01*
X007185Y009389D02*
X007185Y009989D01*
D14*
X028485Y012539D03*
X028485Y014439D03*
D15*
X034335Y013839D03*
X034335Y009839D03*
D16*
X039735Y012689D03*
D17*
X039735Y011689D03*
X039735Y010689D03*
D18*
X036185Y010939D03*
X036185Y013439D03*
D19*
X036185Y012439D03*
X036185Y009939D03*
D20*
X032712Y018320D02*
X032712Y019206D01*
X031141Y019210D02*
X031141Y018324D01*
X029570Y018324D02*
X029570Y019210D01*
D21*
X037342Y017489D03*
X039704Y017489D03*
X038503Y019418D03*
D22*
X038773Y021689D02*
X039598Y021689D01*
X039598Y023689D02*
X038773Y023689D01*
X036185Y026277D02*
X036185Y027102D01*
X034185Y027102D02*
X034185Y026277D01*
X032185Y026277D02*
X032185Y027102D01*
X030185Y027102D02*
X030185Y026277D01*
X028185Y026277D02*
X028185Y027102D01*
X026185Y027102D02*
X026185Y026277D01*
X024185Y026277D02*
X024185Y027102D01*
X022185Y027102D02*
X022185Y026277D01*
X019685Y026277D02*
X019685Y027102D01*
X017685Y027102D02*
X017685Y026277D01*
X015685Y026277D02*
X015685Y027102D01*
X013685Y027102D02*
X013685Y026277D01*
X011685Y026277D02*
X011685Y027102D01*
X009685Y027102D02*
X009685Y026277D01*
X007685Y026277D02*
X007685Y027102D01*
X005685Y027102D02*
X005685Y026277D01*
X002598Y023689D02*
X001773Y023689D01*
X001773Y021689D02*
X002598Y021689D01*
X002598Y007189D02*
X001773Y007189D01*
X001773Y005189D02*
X002598Y005189D01*
X005685Y002602D02*
X005685Y001777D01*
X007685Y001777D02*
X007685Y002602D01*
X009685Y002602D02*
X009685Y001777D01*
X011685Y001777D02*
X011685Y002602D01*
X013685Y002602D02*
X013685Y001777D01*
X015685Y001777D02*
X015685Y002602D01*
X017685Y002602D02*
X017685Y001777D01*
X019685Y001777D02*
X019685Y002602D01*
X022185Y002602D02*
X022185Y001777D01*
X024185Y001777D02*
X024185Y002602D01*
X026185Y002602D02*
X026185Y001777D01*
X028185Y001777D02*
X028185Y002602D01*
X030185Y002602D02*
X030185Y001777D01*
X032185Y001777D02*
X032185Y002602D01*
X034185Y002602D02*
X034185Y001777D01*
X036185Y001777D02*
X036185Y002602D01*
X038773Y005189D02*
X039598Y005189D01*
X039598Y007189D02*
X038773Y007189D01*
D23*
X038635Y006339D02*
X036785Y008189D01*
X036785Y010239D01*
X036335Y010689D01*
X036185Y010939D01*
X037635Y011239D02*
X037635Y013739D01*
X037535Y014339D02*
X036735Y013539D01*
X036485Y013539D01*
X036185Y013439D01*
X036035Y013689D01*
X036035Y015489D01*
X033485Y015489D01*
X033435Y015439D01*
X032235Y015439D01*
X031985Y015339D01*
X030985Y015339D02*
X030885Y015589D01*
X030885Y015939D01*
X028535Y018289D01*
X029570Y018767D02*
X029985Y018139D01*
X030535Y017589D01*
X031485Y017589D01*
X031885Y017989D01*
X031885Y019539D01*
X031435Y019989D01*
X031435Y020989D01*
X028785Y023639D01*
X007985Y023639D01*
X006585Y022239D01*
X006585Y021189D01*
X003085Y017689D01*
X003085Y016289D01*
X001985Y015689D02*
X001535Y015939D01*
X001985Y015689D02*
X002535Y015139D01*
X002535Y013139D01*
X004335Y011339D01*
X006485Y011339D01*
X006985Y010839D01*
X020185Y010839D01*
X020185Y009689D01*
X021185Y009689D02*
X021185Y011689D01*
X020935Y012039D01*
X019485Y013489D01*
X017185Y013489D01*
X013885Y016789D01*
X011685Y014289D02*
X013935Y012039D01*
X014185Y011689D01*
X013185Y011689D02*
X012935Y012039D01*
X011685Y013289D01*
X004935Y013289D01*
X004685Y013389D01*
X003585Y014139D02*
X003685Y014389D01*
X003585Y014139D02*
X003085Y013639D01*
X003085Y013189D01*
X003735Y012539D01*
X011435Y012539D01*
X011935Y012039D01*
X012185Y011689D01*
X011685Y014289D02*
X004935Y014289D01*
X004685Y014389D01*
X004685Y015389D02*
X004785Y015639D01*
X004785Y017139D01*
X005435Y017789D01*
X005885Y018039D01*
X001585Y011389D02*
X001685Y011139D01*
X002485Y010339D01*
X002485Y010189D01*
X003835Y010189D01*
X004285Y009739D01*
X004935Y009739D01*
X005185Y009639D01*
X002585Y009639D02*
X002485Y009889D01*
X002485Y010189D01*
X002185Y007189D02*
X002985Y007039D01*
X006685Y007039D01*
X006935Y006789D01*
X015485Y006789D01*
X015935Y007239D01*
X016185Y007689D01*
X020185Y010839D02*
X020185Y011689D01*
X022185Y011689D02*
X022185Y009689D01*
X023185Y009689D02*
X023185Y011689D01*
X024185Y011689D02*
X024185Y009689D01*
X025185Y009689D02*
X025185Y011689D01*
X026185Y011689D02*
X026185Y009689D01*
X027985Y009939D02*
X028085Y010189D01*
X028085Y012639D01*
X028160Y012714D01*
X027335Y013539D01*
X020235Y013539D01*
X021985Y014589D02*
X027885Y014589D01*
X027885Y016439D01*
X026185Y017689D02*
X026185Y019689D01*
X027185Y019689D02*
X027335Y019139D01*
X027335Y018789D01*
X030385Y015739D01*
X030385Y011139D01*
X031535Y009989D01*
X034035Y009989D01*
X034335Y009839D01*
X034485Y010139D01*
X034485Y010539D01*
X036085Y012139D01*
X036185Y012439D01*
X037635Y011239D02*
X038085Y010789D01*
X038085Y009739D01*
X038185Y009489D01*
X039735Y010689D02*
X039585Y010939D01*
X038735Y011789D01*
X038735Y014689D01*
X037935Y015489D01*
X037285Y014689D02*
X037285Y016689D01*
X037342Y017489D01*
X035925Y016409D02*
X036035Y015839D01*
X036035Y015489D01*
X036885Y014289D02*
X037285Y014689D01*
X037535Y014339D02*
X037935Y014339D01*
X038185Y014439D01*
X036885Y014289D02*
X036785Y014289D01*
X033735Y014939D02*
X032235Y013439D01*
X031985Y013339D01*
X032085Y013089D01*
X032585Y012589D01*
X032585Y010739D01*
X028485Y012539D02*
X028235Y012639D01*
X028160Y012714D01*
X028485Y014439D02*
X028285Y014589D01*
X027885Y014589D01*
X024585Y015889D02*
X022885Y015889D01*
X021435Y017339D01*
X021185Y017689D01*
X024185Y017689D02*
X024185Y019689D01*
X025185Y019689D02*
X025185Y017689D01*
X025185Y021689D02*
X025435Y022139D01*
X025885Y022589D01*
X028435Y022589D01*
X028885Y022139D01*
X028685Y023039D02*
X018335Y023039D01*
X017435Y022139D01*
X017185Y021689D01*
X028685Y023039D02*
X030985Y020739D01*
X030985Y019639D01*
X031141Y018767D01*
X031935Y020889D02*
X036035Y024989D01*
X036035Y025889D01*
X036185Y026689D01*
X017085Y012989D02*
X016285Y012189D01*
X016185Y011689D01*
X024185Y007689D02*
X024435Y007239D01*
X024885Y006789D01*
X026985Y006789D01*
X031035Y002739D01*
X031785Y002739D01*
X032185Y002189D01*
X035035Y002739D02*
X030535Y007239D01*
X026435Y007239D01*
X026185Y007689D01*
X025385Y005539D02*
X022585Y002739D01*
X022185Y002189D01*
X025385Y005539D02*
X027385Y005539D01*
X035035Y002739D02*
X035785Y002739D01*
X036185Y002189D01*
X038635Y005589D02*
X039185Y005189D01*
X038635Y005589D02*
X038635Y006339D01*
D24*
X032585Y010739D03*
X037635Y013739D03*
X036785Y014289D03*
X037935Y015489D03*
X031935Y020889D03*
X028885Y022139D03*
X028535Y018289D03*
X024585Y015889D03*
X021985Y014589D03*
X020235Y013539D03*
X017085Y012989D03*
X013885Y016789D03*
X003085Y016289D03*
X027385Y005539D03*
D25*
X003233Y000876D02*
X003138Y000821D01*
X038236Y000821D01*
X037954Y001047D01*
X037954Y001047D01*
X037672Y001460D01*
X037672Y001460D01*
X037524Y001939D01*
X037524Y001939D01*
X037524Y002440D01*
X037524Y002440D01*
X037672Y002918D01*
X037672Y002918D01*
X037954Y003332D01*
X037954Y003332D01*
X038345Y003644D01*
X038345Y003644D01*
X038811Y003827D01*
X038812Y003827D01*
X039311Y003865D01*
X039311Y003865D01*
X039799Y003753D01*
X039799Y003753D01*
X040233Y003503D01*
X040233Y003503D01*
X040290Y003441D01*
X040290Y016662D01*
X040094Y016548D01*
X039837Y016479D01*
X039784Y016479D01*
X039784Y017409D01*
X039624Y017409D01*
X039624Y016479D01*
X039571Y016479D01*
X039314Y016548D01*
X039084Y016681D01*
X038896Y016869D01*
X038763Y017099D01*
X038694Y017356D01*
X038694Y017409D01*
X039624Y017409D01*
X039624Y017569D01*
X038694Y017569D01*
X038694Y017622D01*
X038763Y017879D01*
X038896Y018109D01*
X039084Y018297D01*
X039314Y018430D01*
X039571Y018499D01*
X039624Y018499D01*
X039624Y017569D01*
X039784Y017569D01*
X039784Y018499D01*
X039837Y018499D01*
X040094Y018430D01*
X040290Y018317D01*
X040290Y025438D01*
X040233Y025376D01*
X040233Y025376D01*
X039799Y025125D01*
X039799Y025125D01*
X039311Y025014D01*
X039311Y025014D01*
X038812Y025051D01*
X038811Y025051D01*
X038345Y025234D01*
X038345Y025234D01*
X037954Y025547D01*
X037954Y025547D01*
X037954Y025547D01*
X037672Y025960D01*
X037672Y025960D01*
X037524Y026439D01*
X037524Y026439D01*
X037524Y026940D01*
X037524Y026940D01*
X037672Y027418D01*
X037672Y027418D01*
X037954Y027832D01*
X037954Y027832D01*
X038236Y028057D01*
X003138Y028057D01*
X003233Y028003D01*
X003233Y028003D01*
X003573Y027636D01*
X003573Y027636D01*
X003791Y027184D01*
X003791Y027184D01*
X003865Y026689D01*
X003791Y026194D01*
X003791Y026194D01*
X003573Y025743D01*
X003573Y025743D01*
X003233Y025376D01*
X003233Y025376D01*
X003233Y025376D01*
X002799Y025125D01*
X002799Y025125D01*
X002311Y025014D01*
X002311Y025014D01*
X001812Y025051D01*
X001811Y025051D01*
X001345Y025234D01*
X001345Y025234D01*
X000954Y025547D01*
X000954Y025547D01*
X000954Y025547D01*
X000780Y025801D01*
X000780Y018248D01*
X000929Y018397D01*
X001128Y018479D01*
X001943Y018479D01*
X002141Y018397D01*
X002235Y018303D01*
X002235Y018346D01*
X002528Y018639D01*
X002942Y018639D01*
X003231Y018351D01*
X006220Y021340D01*
X006220Y022167D01*
X006220Y022312D01*
X006276Y022446D01*
X007676Y023846D01*
X007779Y023949D01*
X007913Y024004D01*
X028713Y024004D01*
X028858Y024004D01*
X028992Y023949D01*
X031642Y021299D01*
X031682Y021258D01*
X031686Y021262D01*
X031848Y021329D01*
X031859Y021329D01*
X035670Y025140D01*
X035670Y025851D01*
X035666Y025874D01*
X035632Y025907D01*
X035533Y026147D01*
X035533Y027232D01*
X035632Y027471D01*
X035816Y027655D01*
X036056Y027754D01*
X036315Y027754D01*
X036555Y027655D01*
X036739Y027471D01*
X036838Y027232D01*
X036838Y026147D01*
X036739Y025907D01*
X036555Y025724D01*
X036400Y025660D01*
X036400Y025062D01*
X036400Y024917D01*
X036345Y024783D01*
X032375Y020813D01*
X032375Y020802D01*
X032308Y020640D01*
X032185Y020516D01*
X032023Y020449D01*
X031848Y020449D01*
X031800Y020469D01*
X031800Y020140D01*
X032092Y019849D01*
X032195Y019746D01*
X032222Y019681D01*
X032325Y019785D01*
X032576Y019889D01*
X032848Y019889D01*
X033099Y019785D01*
X033291Y019593D01*
X033395Y019342D01*
X033395Y018185D01*
X033291Y017934D01*
X033099Y017741D01*
X032848Y017637D01*
X032576Y017637D01*
X032325Y017741D01*
X032221Y017846D01*
X032195Y017783D01*
X031795Y017383D01*
X031692Y017280D01*
X031558Y017224D01*
X030608Y017224D01*
X030463Y017224D01*
X030329Y017280D01*
X029891Y017718D01*
X029706Y017641D01*
X029699Y017641D01*
X031195Y016146D01*
X031250Y016012D01*
X031250Y015867D01*
X031250Y015810D01*
X031505Y015555D01*
X031505Y015124D01*
X031221Y014839D01*
X031485Y014575D01*
X031770Y014859D01*
X032201Y014859D01*
X032505Y014555D01*
X032505Y014225D01*
X033235Y014955D01*
X033235Y015146D01*
X033528Y015439D01*
X033942Y015439D01*
X034235Y015146D01*
X034235Y014732D01*
X033942Y014439D01*
X033752Y014439D01*
X032543Y013231D01*
X032542Y013229D01*
X032505Y013193D01*
X032505Y013185D01*
X032792Y012899D01*
X032895Y012796D01*
X032950Y012662D01*
X032950Y010997D01*
X032958Y010989D01*
X033025Y010827D01*
X033025Y010652D01*
X032958Y010490D01*
X032835Y010366D01*
X032806Y010354D01*
X033976Y010354D01*
X033989Y010358D01*
X034048Y010354D01*
X034089Y010354D01*
X034120Y010367D01*
X034120Y010467D01*
X034120Y010612D01*
X034176Y010746D01*
X035668Y012238D01*
X035630Y012329D01*
X035630Y012550D01*
X035715Y012754D01*
X035871Y012910D01*
X035973Y012952D01*
X035690Y013234D01*
X035690Y013439D01*
X036185Y013439D01*
X036185Y013439D01*
X035690Y013439D01*
X035690Y013644D01*
X035980Y013934D01*
X036185Y013934D01*
X036185Y013440D01*
X036186Y013440D01*
X036186Y013934D01*
X036390Y013934D01*
X036680Y013644D01*
X036680Y013439D01*
X036186Y013439D01*
X036186Y013439D01*
X036680Y013439D01*
X036680Y013234D01*
X036398Y012952D01*
X036500Y012910D01*
X036656Y012754D01*
X036740Y012550D01*
X036740Y012329D01*
X036656Y012125D01*
X036500Y011969D01*
X036382Y011920D01*
X036353Y011890D01*
X036314Y011845D01*
X036302Y011839D01*
X034850Y010388D01*
X034850Y010198D01*
X034855Y010186D01*
X034850Y010126D01*
X034850Y010085D01*
X034905Y009953D01*
X034905Y009726D01*
X034819Y009516D01*
X034658Y009356D01*
X034449Y009269D01*
X034222Y009269D01*
X034012Y009356D01*
X033852Y009516D01*
X033807Y009624D01*
X031463Y009624D01*
X031329Y009680D01*
X031226Y009783D01*
X030076Y010933D01*
X030020Y011067D01*
X030020Y011212D01*
X030020Y015588D01*
X029325Y016283D01*
X029325Y016257D01*
X029068Y015999D01*
X028886Y015999D01*
X028886Y016439D01*
X028885Y016439D01*
X028445Y016439D01*
X028445Y016257D01*
X028703Y015999D01*
X028885Y015999D01*
X028885Y016439D01*
X028885Y016439D01*
X028445Y016439D01*
X028445Y016621D01*
X028703Y016879D01*
X028729Y016879D01*
X027026Y018583D01*
X026970Y018717D01*
X026970Y018862D01*
X026970Y018894D01*
X026879Y018931D01*
X026728Y019083D01*
X026685Y019185D01*
X026643Y019083D01*
X026550Y018991D01*
X026550Y018291D01*
X026609Y018232D01*
X026685Y018049D01*
X026685Y017330D01*
X026609Y017146D01*
X026469Y017005D01*
X026285Y016929D01*
X026086Y016929D01*
X025902Y017005D01*
X025761Y017146D01*
X025685Y017330D01*
X025685Y018049D01*
X025609Y018232D01*
X025550Y018291D01*
X025550Y018991D01*
X025643Y019083D01*
X025685Y019185D01*
X025728Y019083D01*
X025820Y018991D01*
X025820Y018291D01*
X025761Y018232D01*
X025685Y018049D01*
X025685Y017330D01*
X025609Y017146D01*
X025469Y017005D01*
X025285Y016929D01*
X025086Y016929D01*
X024902Y017005D01*
X024761Y017146D01*
X024685Y017330D01*
X024685Y018049D01*
X024609Y018232D01*
X024550Y018291D01*
X024550Y018991D01*
X024643Y019083D01*
X024685Y019185D01*
X024728Y019083D01*
X024820Y018991D01*
X024820Y018291D01*
X024761Y018232D01*
X024685Y018049D01*
X024685Y017330D01*
X024609Y017146D01*
X024469Y017005D01*
X024285Y016929D01*
X024086Y016929D01*
X023902Y017005D01*
X023761Y017146D01*
X023685Y017330D01*
X023685Y018049D01*
X023609Y018232D01*
X023469Y018373D01*
X023285Y018449D01*
X023086Y018449D01*
X022902Y018373D01*
X022761Y018232D01*
X022685Y018049D01*
X022609Y018232D01*
X022469Y018373D01*
X022285Y018449D01*
X022086Y018449D01*
X021902Y018373D01*
X021761Y018232D01*
X021685Y018049D01*
X021609Y018232D01*
X021469Y018373D01*
X021285Y018449D01*
X021086Y018449D01*
X020902Y018373D01*
X020761Y018232D01*
X020685Y018049D01*
X020609Y018232D01*
X020469Y018373D01*
X020285Y018449D01*
X020086Y018449D01*
X019902Y018373D01*
X019761Y018232D01*
X019685Y018049D01*
X019609Y018232D01*
X019469Y018373D01*
X019285Y018449D01*
X019086Y018449D01*
X018902Y018373D01*
X018761Y018232D01*
X018685Y018049D01*
X018609Y018232D01*
X018469Y018373D01*
X018285Y018449D01*
X018086Y018449D01*
X017902Y018373D01*
X017761Y018232D01*
X017685Y018049D01*
X017609Y018232D01*
X017469Y018373D01*
X017285Y018449D01*
X017086Y018449D01*
X016902Y018373D01*
X016761Y018232D01*
X016685Y018049D01*
X016685Y017330D01*
X016761Y017146D01*
X016902Y017005D01*
X017086Y016929D01*
X017285Y016929D01*
X017469Y017005D01*
X017609Y017146D01*
X017685Y017330D01*
X017685Y018049D01*
X017685Y017330D01*
X017761Y017146D01*
X017902Y017005D01*
X018086Y016929D01*
X018285Y016929D01*
X018469Y017005D01*
X018609Y017146D01*
X018685Y017330D01*
X018685Y018049D01*
X018685Y017330D01*
X018761Y017146D01*
X018902Y017005D01*
X019086Y016929D01*
X019285Y016929D01*
X019469Y017005D01*
X019609Y017146D01*
X019685Y017330D01*
X019685Y018049D01*
X019685Y017330D01*
X019761Y017146D01*
X019902Y017005D01*
X020086Y016929D01*
X020285Y016929D01*
X020469Y017005D01*
X020609Y017146D01*
X020685Y017330D01*
X020685Y018049D01*
X020685Y017330D01*
X020761Y017146D01*
X020902Y017005D01*
X021086Y016929D01*
X021285Y016929D01*
X021316Y016942D01*
X022679Y015580D01*
X022813Y015524D01*
X022958Y015524D01*
X024328Y015524D01*
X024336Y015516D01*
X024498Y015449D01*
X024673Y015449D01*
X024835Y015516D01*
X024958Y015640D01*
X025025Y015802D01*
X025025Y015977D01*
X024958Y016139D01*
X024835Y016262D01*
X024673Y016329D01*
X024498Y016329D01*
X024336Y016262D01*
X024328Y016254D01*
X023037Y016254D01*
X022339Y016952D01*
X022469Y017005D01*
X022609Y017146D01*
X022685Y017330D01*
X022685Y018049D01*
X022685Y017330D01*
X022761Y017146D01*
X022902Y017005D01*
X023086Y016929D01*
X023285Y016929D01*
X023469Y017005D01*
X023609Y017146D01*
X023685Y017330D01*
X023685Y018049D01*
X023761Y018232D01*
X023820Y018291D01*
X023820Y018991D01*
X023728Y019083D01*
X023685Y019185D01*
X023643Y019083D01*
X023491Y018931D01*
X023293Y018849D01*
X023078Y018849D01*
X022879Y018931D01*
X022728Y019083D01*
X022685Y019185D01*
X022643Y019083D01*
X022491Y018931D01*
X022293Y018849D01*
X022078Y018849D01*
X021879Y018931D01*
X021728Y019083D01*
X021685Y019185D01*
X021643Y019083D01*
X021491Y018931D01*
X021293Y018849D01*
X021078Y018849D01*
X020879Y018931D01*
X020728Y019083D01*
X020685Y019185D01*
X020643Y019083D01*
X020491Y018931D01*
X020293Y018849D01*
X020078Y018849D01*
X019879Y018931D01*
X019728Y019083D01*
X019685Y019185D01*
X019643Y019083D01*
X019491Y018931D01*
X019293Y018849D01*
X019078Y018849D01*
X018879Y018931D01*
X018728Y019083D01*
X018685Y019185D01*
X018643Y019083D01*
X018491Y018931D01*
X018293Y018849D01*
X018078Y018849D01*
X017879Y018931D01*
X017728Y019083D01*
X017685Y019185D01*
X017643Y019083D01*
X017491Y018931D01*
X017293Y018849D01*
X017078Y018849D01*
X016879Y018931D01*
X016728Y019083D01*
X016653Y019264D01*
X016592Y019117D01*
X016457Y018982D01*
X016281Y018909D01*
X016205Y018909D01*
X016205Y019669D01*
X016165Y019669D01*
X016165Y018909D01*
X016090Y018909D01*
X015913Y018982D01*
X015778Y019117D01*
X015718Y019264D01*
X015643Y019083D01*
X015491Y018931D01*
X015293Y018849D01*
X015078Y018849D01*
X014879Y018931D01*
X014728Y019083D01*
X014685Y019185D01*
X014643Y019083D01*
X014491Y018931D01*
X014293Y018849D01*
X014078Y018849D01*
X013879Y018931D01*
X013728Y019083D01*
X013685Y019185D01*
X013643Y019083D01*
X013491Y018931D01*
X013293Y018849D01*
X013078Y018849D01*
X012879Y018931D01*
X012728Y019083D01*
X012685Y019185D01*
X012643Y019083D01*
X012491Y018931D01*
X012293Y018849D01*
X012078Y018849D01*
X011879Y018931D01*
X011728Y019083D01*
X011685Y019185D01*
X011643Y019083D01*
X011491Y018931D01*
X011293Y018849D01*
X011078Y018849D01*
X010879Y018931D01*
X010728Y019083D01*
X010685Y019185D01*
X010643Y019083D01*
X010491Y018931D01*
X010293Y018849D01*
X010078Y018849D01*
X009879Y018931D01*
X009728Y019083D01*
X009685Y019185D01*
X009643Y019083D01*
X009491Y018931D01*
X009293Y018849D01*
X009078Y018849D01*
X008879Y018931D01*
X008728Y019083D01*
X008685Y019185D01*
X008643Y019083D01*
X008491Y018931D01*
X008293Y018849D01*
X008078Y018849D01*
X007879Y018931D01*
X007728Y019083D01*
X007685Y019185D01*
X007643Y019083D01*
X007491Y018931D01*
X007293Y018849D01*
X007078Y018849D01*
X006879Y018931D01*
X006728Y019083D01*
X006725Y019089D01*
X006725Y018932D01*
X006643Y018733D01*
X006491Y018581D01*
X006389Y018539D01*
X006491Y018497D01*
X006643Y018345D01*
X006725Y018147D01*
X006725Y018145D01*
X006761Y018232D01*
X006902Y018373D01*
X007086Y018449D01*
X007285Y018449D01*
X007469Y018373D01*
X007609Y018232D01*
X007685Y018049D01*
X007685Y017330D01*
X007609Y017146D01*
X007469Y017005D01*
X007285Y016929D01*
X007086Y016929D01*
X006902Y017005D01*
X006761Y017146D01*
X006685Y017330D01*
X006685Y017835D01*
X006643Y017733D01*
X006491Y017581D01*
X006293Y017499D01*
X005665Y017499D01*
X005657Y017495D01*
X005150Y016988D01*
X005150Y015660D01*
X005205Y015605D01*
X005205Y015174D01*
X004921Y014889D01*
X005156Y014654D01*
X011613Y014654D01*
X011758Y014654D01*
X011892Y014599D01*
X014055Y012436D01*
X014086Y012449D01*
X014285Y012449D01*
X014469Y012373D01*
X014609Y012232D01*
X014685Y012049D01*
X014685Y011330D01*
X014633Y011204D01*
X014737Y011204D01*
X014685Y011330D01*
X014685Y012049D01*
X014761Y012232D01*
X014902Y012373D01*
X015086Y012449D01*
X015285Y012449D01*
X015469Y012373D01*
X015609Y012232D01*
X015685Y012049D01*
X015685Y011330D01*
X015633Y011204D01*
X015737Y011204D01*
X015685Y011330D01*
X015685Y012049D01*
X015761Y012232D01*
X015902Y012373D01*
X015989Y012409D01*
X016002Y012422D01*
X016022Y012453D01*
X016053Y012473D01*
X016645Y013065D01*
X016645Y013077D01*
X016712Y013239D01*
X013252Y013239D01*
X013094Y013397D02*
X016761Y013397D01*
X016816Y013342D02*
X016712Y013239D01*
X016816Y013342D02*
X013809Y016349D01*
X013798Y016349D01*
X013636Y016416D01*
X013512Y016540D01*
X013445Y016702D01*
X013445Y016877D01*
X013512Y017039D01*
X013636Y017162D01*
X013737Y017204D01*
X013685Y017330D01*
X013685Y018049D01*
X013609Y018232D01*
X013469Y018373D01*
X013285Y018449D01*
X013086Y018449D01*
X012902Y018373D01*
X012761Y018232D01*
X012685Y018049D01*
X012609Y018232D01*
X012469Y018373D01*
X012285Y018449D01*
X012086Y018449D01*
X011902Y018373D01*
X011761Y018232D01*
X011685Y018049D01*
X011609Y018232D01*
X011469Y018373D01*
X011285Y018449D01*
X011086Y018449D01*
X010902Y018373D01*
X010761Y018232D01*
X010685Y018049D01*
X010609Y018232D01*
X010469Y018373D01*
X010285Y018449D01*
X010086Y018449D01*
X009902Y018373D01*
X009761Y018232D01*
X009685Y018049D01*
X009609Y018232D01*
X009469Y018373D01*
X009285Y018449D01*
X009086Y018449D01*
X008902Y018373D01*
X008761Y018232D01*
X008685Y018049D01*
X008609Y018232D01*
X008469Y018373D01*
X008285Y018449D01*
X008086Y018449D01*
X007902Y018373D01*
X007761Y018232D01*
X007685Y018049D01*
X007685Y017330D01*
X007761Y017146D01*
X007902Y017005D01*
X008086Y016929D01*
X008285Y016929D01*
X008469Y017005D01*
X008609Y017146D01*
X008685Y017330D01*
X008685Y018049D01*
X008685Y017330D01*
X008761Y017146D01*
X008902Y017005D01*
X009086Y016929D01*
X009285Y016929D01*
X009469Y017005D01*
X009609Y017146D01*
X009685Y017330D01*
X009685Y018049D01*
X009685Y017330D01*
X009761Y017146D01*
X009902Y017005D01*
X010086Y016929D01*
X010285Y016929D01*
X010469Y017005D01*
X010609Y017146D01*
X010685Y017330D01*
X010685Y018049D01*
X010685Y017330D01*
X010761Y017146D01*
X010902Y017005D01*
X011086Y016929D01*
X011285Y016929D01*
X011469Y017005D01*
X011609Y017146D01*
X011685Y017330D01*
X011685Y018049D01*
X011685Y017330D01*
X011761Y017146D01*
X011902Y017005D01*
X012086Y016929D01*
X012285Y016929D01*
X012469Y017005D01*
X012609Y017146D01*
X012685Y017330D01*
X012685Y018049D01*
X012685Y017330D01*
X012761Y017146D01*
X012902Y017005D01*
X013086Y016929D01*
X013285Y016929D01*
X013469Y017005D01*
X013609Y017146D01*
X013685Y017330D01*
X013685Y018049D01*
X013761Y018232D01*
X013902Y018373D01*
X014086Y018449D01*
X014285Y018449D01*
X014469Y018373D01*
X014609Y018232D01*
X014685Y018049D01*
X014685Y017330D01*
X014609Y017146D01*
X014469Y017005D01*
X014301Y016936D01*
X014325Y016877D01*
X014325Y016865D01*
X017337Y013854D01*
X019413Y013854D01*
X019558Y013854D01*
X019692Y013799D01*
X019815Y013675D01*
X019862Y013789D01*
X019986Y013912D01*
X020148Y013979D01*
X020323Y013979D01*
X020485Y013912D01*
X020493Y013904D01*
X027263Y013904D01*
X027408Y013904D01*
X027542Y013849D01*
X028362Y013029D01*
X028386Y013039D01*
X028585Y013039D01*
X028769Y012963D01*
X028909Y012822D01*
X028985Y012639D01*
X028985Y012440D01*
X028909Y012256D01*
X028769Y012115D01*
X028585Y012039D01*
X028450Y012039D01*
X028450Y010192D01*
X028450Y010181D01*
X028485Y010146D01*
X028485Y009732D01*
X028192Y009439D01*
X027778Y009439D01*
X027485Y009732D01*
X027485Y010146D01*
X027720Y010381D01*
X027720Y012567D01*
X027720Y012638D01*
X027184Y013174D01*
X020493Y013174D01*
X020485Y013166D01*
X020371Y013119D01*
X021055Y012436D01*
X021086Y012449D01*
X021285Y012449D01*
X021469Y012373D01*
X021609Y012232D01*
X021685Y012049D01*
X021685Y011330D01*
X021609Y011146D01*
X021550Y011087D01*
X021550Y010388D01*
X021643Y010295D01*
X021685Y010193D01*
X021728Y010295D01*
X021820Y010388D01*
X021820Y011087D01*
X021761Y011146D01*
X021685Y011330D01*
X021685Y012049D01*
X021761Y012232D01*
X021902Y012373D01*
X022086Y012449D01*
X022285Y012449D01*
X022469Y012373D01*
X022609Y012232D01*
X022685Y012049D01*
X022685Y011330D01*
X022609Y011146D01*
X022550Y011087D01*
X022550Y010388D01*
X022643Y010295D01*
X022685Y010193D01*
X022728Y010295D01*
X022820Y010388D01*
X022820Y011087D01*
X022761Y011146D01*
X022685Y011330D01*
X022685Y012049D01*
X022761Y012232D01*
X022902Y012373D01*
X023086Y012449D01*
X023285Y012449D01*
X023469Y012373D01*
X023609Y012232D01*
X023685Y012049D01*
X023685Y011330D01*
X023609Y011146D01*
X023550Y011087D01*
X023550Y010388D01*
X023643Y010295D01*
X023685Y010193D01*
X023728Y010295D01*
X023820Y010388D01*
X023820Y011087D01*
X023761Y011146D01*
X023685Y011330D01*
X023685Y012049D01*
X023761Y012232D01*
X023902Y012373D01*
X024086Y012449D01*
X024285Y012449D01*
X024469Y012373D01*
X024609Y012232D01*
X024685Y012049D01*
X024685Y011330D01*
X024609Y011146D01*
X024550Y011087D01*
X024550Y010388D01*
X024643Y010295D01*
X024685Y010193D01*
X024728Y010295D01*
X024820Y010388D01*
X024820Y011087D01*
X024761Y011146D01*
X024685Y011330D01*
X024685Y012049D01*
X024761Y012232D01*
X024902Y012373D01*
X025086Y012449D01*
X025285Y012449D01*
X025469Y012373D01*
X025609Y012232D01*
X025685Y012049D01*
X025685Y011330D01*
X025609Y011146D01*
X025550Y011087D01*
X025550Y010388D01*
X025643Y010295D01*
X025685Y010193D01*
X025728Y010295D01*
X025820Y010388D01*
X025820Y011087D01*
X025761Y011146D01*
X025685Y011330D01*
X025685Y012049D01*
X025761Y012232D01*
X025902Y012373D01*
X026086Y012449D01*
X026285Y012449D01*
X026469Y012373D01*
X026609Y012232D01*
X026685Y012049D01*
X026685Y011330D01*
X026609Y011146D01*
X026550Y011087D01*
X026550Y010388D01*
X026643Y010295D01*
X026725Y010097D01*
X026725Y009282D01*
X026687Y009189D01*
X026725Y009097D01*
X026725Y008282D01*
X026687Y008189D01*
X026725Y008097D01*
X026725Y007604D01*
X030608Y007604D01*
X030742Y007549D01*
X030845Y007446D01*
X035187Y003104D01*
X035742Y003104D01*
X035771Y003111D01*
X035772Y003111D01*
X035816Y003155D01*
X036056Y003254D01*
X036315Y003254D01*
X036555Y003155D01*
X036739Y002971D01*
X036838Y002732D01*
X036838Y001647D01*
X036739Y001407D01*
X036555Y001224D01*
X036315Y001124D01*
X036056Y001124D01*
X035816Y001224D01*
X035632Y001407D01*
X035533Y001647D01*
X035533Y002374D01*
X035108Y002374D01*
X034963Y002374D01*
X034838Y002426D01*
X034838Y001647D01*
X034739Y001407D01*
X034555Y001224D01*
X034315Y001124D01*
X034056Y001124D01*
X033816Y001224D01*
X033632Y001407D01*
X033533Y001647D01*
X033533Y002732D01*
X033632Y002971D01*
X033816Y003155D01*
X034019Y003239D01*
X030384Y006874D01*
X027416Y006874D01*
X031187Y003104D01*
X031742Y003104D01*
X031771Y003111D01*
X031772Y003111D01*
X031816Y003155D01*
X032056Y003254D01*
X032315Y003254D01*
X032555Y003155D01*
X032739Y002971D01*
X032838Y002732D01*
X032838Y001647D01*
X032739Y001407D01*
X032555Y001224D01*
X032315Y001124D01*
X032056Y001124D01*
X031816Y001224D01*
X031632Y001407D01*
X031533Y001647D01*
X031533Y002374D01*
X031108Y002374D01*
X030963Y002374D01*
X030838Y002426D01*
X030838Y001647D01*
X030739Y001407D01*
X030555Y001224D01*
X030315Y001124D01*
X030056Y001124D01*
X029816Y001224D01*
X029632Y001407D01*
X029533Y001647D01*
X029533Y002732D01*
X029632Y002971D01*
X029816Y003155D01*
X030019Y003239D01*
X027820Y005439D01*
X027758Y005290D01*
X027635Y005166D01*
X027473Y005099D01*
X027298Y005099D01*
X027136Y005166D01*
X027128Y005174D01*
X025537Y005174D01*
X022864Y002501D01*
X022838Y002466D01*
X022838Y001647D01*
X022739Y001407D01*
X022555Y001224D01*
X022315Y001124D01*
X022056Y001124D01*
X021816Y001224D01*
X021632Y001407D01*
X021533Y001647D01*
X021533Y002732D01*
X021632Y002971D01*
X021816Y003155D01*
X022056Y003254D01*
X022315Y003254D01*
X022505Y003175D01*
X025179Y005849D01*
X025313Y005904D01*
X025458Y005904D01*
X027128Y005904D01*
X027136Y005912D01*
X027285Y005974D01*
X026834Y006424D01*
X024958Y006424D01*
X024813Y006424D01*
X024679Y006480D01*
X024304Y006854D01*
X024293Y006849D01*
X024078Y006849D01*
X023879Y006931D01*
X023728Y007083D01*
X023685Y007185D01*
X023643Y007083D01*
X023491Y006931D01*
X023293Y006849D01*
X023078Y006849D01*
X022879Y006931D01*
X022728Y007083D01*
X022685Y007185D01*
X022643Y007083D01*
X022491Y006931D01*
X022293Y006849D01*
X022078Y006849D01*
X021879Y006931D01*
X021728Y007083D01*
X021685Y007185D01*
X021643Y007083D01*
X021491Y006931D01*
X021293Y006849D01*
X021078Y006849D01*
X020879Y006931D01*
X020728Y007083D01*
X020685Y007185D01*
X020643Y007083D01*
X020491Y006931D01*
X020293Y006849D01*
X020078Y006849D01*
X019879Y006931D01*
X019728Y007083D01*
X019653Y007264D01*
X019592Y007117D01*
X019457Y006982D01*
X019281Y006909D01*
X019205Y006909D01*
X019205Y007669D01*
X019165Y007669D01*
X018705Y007669D01*
X018705Y007294D01*
X018778Y007117D01*
X018913Y006982D01*
X019090Y006909D01*
X019165Y006909D01*
X019165Y007669D01*
X019165Y007709D01*
X018705Y007709D01*
X018705Y008085D01*
X018749Y008189D01*
X018705Y008294D01*
X018705Y008669D01*
X019165Y008669D01*
X019165Y008709D01*
X018705Y008709D01*
X018705Y009085D01*
X018749Y009189D01*
X018705Y009294D01*
X018705Y009669D01*
X019165Y009669D01*
X019165Y009709D01*
X018705Y009709D01*
X018705Y010085D01*
X018778Y010261D01*
X018913Y010396D01*
X019090Y010469D01*
X019165Y010469D01*
X019165Y009710D01*
X019205Y009710D01*
X019205Y010469D01*
X019281Y010469D01*
X019457Y010396D01*
X019592Y010261D01*
X019653Y010115D01*
X019728Y010295D01*
X019820Y010388D01*
X019820Y010474D01*
X017425Y010474D01*
X017491Y010447D01*
X017643Y010295D01*
X017718Y010115D01*
X017778Y010261D01*
X017913Y010396D01*
X018090Y010469D01*
X018165Y010469D01*
X018165Y009710D01*
X018205Y009710D01*
X018205Y010469D01*
X018281Y010469D01*
X018457Y010396D01*
X018592Y010261D01*
X018665Y010085D01*
X018665Y009709D01*
X018206Y009709D01*
X018206Y009669D01*
X018665Y009669D01*
X018665Y009294D01*
X018622Y009189D01*
X018665Y009085D01*
X018665Y008709D01*
X018206Y008709D01*
X018206Y008669D01*
X018665Y008669D01*
X018665Y008294D01*
X018622Y008189D01*
X018665Y008085D01*
X018665Y007709D01*
X018206Y007709D01*
X018206Y007669D01*
X018665Y007669D01*
X018665Y007294D01*
X018592Y007117D01*
X018457Y006982D01*
X018281Y006909D01*
X018205Y006909D01*
X018205Y007669D01*
X018165Y007669D01*
X018165Y006909D01*
X018090Y006909D01*
X017913Y006982D01*
X017778Y007117D01*
X017718Y007264D01*
X017643Y007083D01*
X017491Y006931D01*
X017293Y006849D01*
X017078Y006849D01*
X016879Y006931D01*
X016728Y007083D01*
X016685Y007185D01*
X016643Y007083D01*
X016491Y006931D01*
X016293Y006849D01*
X016078Y006849D01*
X016066Y006854D01*
X015692Y006480D01*
X015558Y006424D01*
X015413Y006424D01*
X006863Y006424D01*
X006729Y006480D01*
X006626Y006583D01*
X006534Y006674D01*
X003023Y006674D01*
X003001Y006670D01*
X002967Y006636D01*
X002728Y006537D01*
X001643Y006537D01*
X001403Y006636D01*
X001220Y006820D01*
X001120Y007059D01*
X001120Y007319D01*
X001220Y007559D01*
X001403Y007742D01*
X001643Y007842D01*
X002728Y007842D01*
X002967Y007742D01*
X003151Y007559D01*
X003215Y007404D01*
X006613Y007404D01*
X006645Y007404D01*
X006645Y008097D01*
X006684Y008189D01*
X006645Y008282D01*
X006645Y009097D01*
X006684Y009189D01*
X006645Y009282D01*
X006645Y009392D01*
X006392Y009139D01*
X005978Y009139D01*
X005685Y009432D01*
X005685Y009846D01*
X005978Y010139D01*
X006392Y010139D01*
X006645Y009886D01*
X006645Y010097D01*
X006728Y010295D01*
X006879Y010447D01*
X006945Y010474D01*
X006913Y010474D01*
X006779Y010530D01*
X006676Y010633D01*
X006485Y010823D01*
X006485Y010582D01*
X006192Y010289D01*
X005778Y010289D01*
X005485Y010582D01*
X005485Y010974D01*
X005485Y010974D01*
X005485Y010582D01*
X005192Y010289D01*
X004778Y010289D01*
X004485Y010582D01*
X004485Y010974D01*
X004335Y010974D01*
X004335Y010582D01*
X004042Y010289D01*
X003628Y010289D01*
X003335Y010582D01*
X003042Y010289D01*
X002628Y010289D01*
X002335Y010582D01*
X002335Y010996D01*
X002628Y011289D01*
X003042Y011289D01*
X003335Y010996D01*
X003335Y010582D01*
X003335Y010996D01*
X003628Y011289D01*
X003869Y011289D01*
X002315Y012843D01*
X002242Y012667D01*
X002107Y012532D01*
X001931Y012459D01*
X001555Y012459D01*
X001555Y012919D01*
X001515Y012919D01*
X001515Y012459D01*
X001140Y012459D01*
X000963Y012532D01*
X000828Y012667D01*
X000780Y012784D01*
X000780Y003077D01*
X000954Y003332D01*
X000954Y003332D01*
X001345Y003644D01*
X001345Y003644D01*
X001811Y003827D01*
X001812Y003827D01*
X002311Y003865D01*
X002311Y003865D01*
X002799Y003753D01*
X002799Y003753D01*
X003233Y003503D01*
X003233Y003503D01*
X003573Y003136D01*
X003573Y003136D01*
X003791Y002684D01*
X003791Y002684D01*
X003865Y002189D01*
X003791Y001694D01*
X003791Y001694D01*
X003573Y001243D01*
X003573Y001243D01*
X003233Y000876D01*
X003233Y000876D01*
X003233Y000876D01*
X003227Y000872D02*
X038173Y000872D01*
X037974Y001031D02*
X003376Y001031D01*
X003524Y001189D02*
X005398Y001189D01*
X005316Y001224D02*
X005556Y001124D01*
X005815Y001124D01*
X006055Y001224D01*
X006239Y001407D01*
X006338Y001647D01*
X006338Y002732D01*
X006239Y002971D01*
X006055Y003155D01*
X005815Y003254D01*
X005556Y003254D01*
X005316Y003155D01*
X005132Y002971D01*
X005033Y002732D01*
X005033Y001647D01*
X005132Y001407D01*
X005316Y001224D01*
X005191Y001348D02*
X003624Y001348D01*
X003700Y001506D02*
X005091Y001506D01*
X005033Y001665D02*
X003777Y001665D01*
X003810Y001823D02*
X005033Y001823D01*
X005033Y001982D02*
X003834Y001982D01*
X003858Y002141D02*
X005033Y002141D01*
X005033Y002299D02*
X003849Y002299D01*
X003825Y002458D02*
X005033Y002458D01*
X005033Y002616D02*
X003801Y002616D01*
X003747Y002775D02*
X005051Y002775D01*
X005116Y002933D02*
X003671Y002933D01*
X003594Y003092D02*
X005253Y003092D01*
X005546Y003250D02*
X003467Y003250D01*
X003320Y003409D02*
X022739Y003409D01*
X022897Y003567D02*
X003121Y003567D01*
X002846Y003726D02*
X023056Y003726D01*
X023214Y003885D02*
X000780Y003885D01*
X000780Y004043D02*
X023373Y004043D01*
X023532Y004202D02*
X000780Y004202D01*
X000780Y004360D02*
X023690Y004360D01*
X023849Y004519D02*
X000780Y004519D01*
X000780Y004677D02*
X001461Y004677D01*
X001437Y004687D02*
X001655Y004597D01*
X002128Y004597D01*
X002128Y005132D01*
X001180Y005132D01*
X001180Y005071D01*
X001271Y004854D01*
X001437Y004687D01*
X001288Y004836D02*
X000780Y004836D01*
X000780Y004994D02*
X001212Y004994D01*
X001180Y005247D02*
X002128Y005247D01*
X002128Y005782D01*
X001655Y005782D01*
X001437Y005692D01*
X001271Y005525D01*
X001180Y005307D01*
X001180Y005247D01*
X001182Y005311D02*
X000780Y005311D01*
X000780Y005153D02*
X002128Y005153D01*
X002128Y005132D02*
X002128Y005247D01*
X002243Y005247D01*
X002243Y005782D01*
X002716Y005782D01*
X002934Y005692D01*
X003100Y005525D01*
X003190Y005307D01*
X003190Y005247D01*
X002243Y005247D01*
X002243Y005132D01*
X003190Y005132D01*
X003190Y005071D01*
X003100Y004854D01*
X002934Y004687D01*
X002716Y004597D01*
X002243Y004597D01*
X002243Y005132D01*
X002128Y005132D01*
X002243Y005153D02*
X024483Y005153D01*
X024641Y005311D02*
X003189Y005311D01*
X003123Y005470D02*
X024800Y005470D01*
X024958Y005629D02*
X002997Y005629D01*
X002243Y005629D02*
X002128Y005629D01*
X002128Y005470D02*
X002243Y005470D01*
X002243Y005311D02*
X002128Y005311D01*
X002128Y004994D02*
X002243Y004994D01*
X002243Y004836D02*
X002128Y004836D01*
X002128Y004677D02*
X002243Y004677D01*
X002910Y004677D02*
X024007Y004677D01*
X024166Y004836D02*
X003082Y004836D01*
X003158Y004994D02*
X024324Y004994D01*
X024881Y004519D02*
X028740Y004519D01*
X028581Y004677D02*
X025039Y004677D01*
X025198Y004836D02*
X028423Y004836D01*
X028264Y004994D02*
X025357Y004994D01*
X025515Y005153D02*
X027168Y005153D01*
X027602Y005153D02*
X028106Y005153D01*
X027947Y005311D02*
X027767Y005311D01*
X027217Y005946D02*
X000780Y005946D01*
X000780Y006104D02*
X027154Y006104D01*
X026996Y006263D02*
X000780Y006263D01*
X000780Y006421D02*
X026837Y006421D01*
X027552Y006738D02*
X030520Y006738D01*
X030679Y006580D02*
X027711Y006580D01*
X027870Y006421D02*
X030837Y006421D01*
X030996Y006263D02*
X028028Y006263D01*
X028187Y006104D02*
X031154Y006104D01*
X031313Y005946D02*
X028345Y005946D01*
X028504Y005787D02*
X031471Y005787D01*
X031630Y005629D02*
X028662Y005629D01*
X028821Y005470D02*
X031788Y005470D01*
X031947Y005311D02*
X028979Y005311D01*
X029138Y005153D02*
X032106Y005153D01*
X032264Y004994D02*
X029296Y004994D01*
X029455Y004836D02*
X032423Y004836D01*
X032581Y004677D02*
X029614Y004677D01*
X029772Y004519D02*
X032740Y004519D01*
X032898Y004360D02*
X029931Y004360D01*
X030089Y004202D02*
X033057Y004202D01*
X033215Y004043D02*
X030248Y004043D01*
X030406Y003885D02*
X033374Y003885D01*
X033532Y003726D02*
X030565Y003726D01*
X030723Y003567D02*
X033691Y003567D01*
X033850Y003409D02*
X030882Y003409D01*
X031040Y003250D02*
X032046Y003250D01*
X032325Y003250D02*
X034008Y003250D01*
X033753Y003092D02*
X032618Y003092D01*
X032754Y002933D02*
X033616Y002933D01*
X033551Y002775D02*
X032820Y002775D01*
X032838Y002616D02*
X033533Y002616D01*
X033533Y002458D02*
X032838Y002458D01*
X032838Y002299D02*
X033533Y002299D01*
X033533Y002141D02*
X032838Y002141D01*
X032838Y001982D02*
X033533Y001982D01*
X033533Y001823D02*
X032838Y001823D01*
X032838Y001665D02*
X033533Y001665D01*
X033591Y001506D02*
X032780Y001506D01*
X032679Y001348D02*
X033691Y001348D01*
X033898Y001189D02*
X032472Y001189D01*
X031898Y001189D02*
X030472Y001189D01*
X030679Y001348D02*
X031691Y001348D01*
X031591Y001506D02*
X030780Y001506D01*
X030838Y001665D02*
X031533Y001665D01*
X031533Y001823D02*
X030838Y001823D01*
X030838Y001982D02*
X031533Y001982D01*
X031533Y002141D02*
X030838Y002141D01*
X030838Y002299D02*
X031533Y002299D01*
X030008Y003250D02*
X028325Y003250D01*
X028315Y003254D02*
X028056Y003254D01*
X027816Y003155D01*
X027632Y002971D01*
X027533Y002732D01*
X027533Y001647D01*
X027632Y001407D01*
X027816Y001224D01*
X028056Y001124D01*
X028315Y001124D01*
X028555Y001224D01*
X028739Y001407D01*
X028838Y001647D01*
X028838Y002732D01*
X028739Y002971D01*
X028555Y003155D01*
X028315Y003254D01*
X028046Y003250D02*
X026325Y003250D01*
X026315Y003254D02*
X026056Y003254D01*
X025816Y003155D01*
X025632Y002971D01*
X025533Y002732D01*
X025533Y001647D01*
X025632Y001407D01*
X025816Y001224D01*
X026056Y001124D01*
X026315Y001124D01*
X026555Y001224D01*
X026739Y001407D01*
X026838Y001647D01*
X026838Y002732D01*
X026739Y002971D01*
X026555Y003155D01*
X026315Y003254D01*
X026046Y003250D02*
X024325Y003250D01*
X024315Y003254D02*
X024056Y003254D01*
X023816Y003155D01*
X023632Y002971D01*
X023533Y002732D01*
X023533Y001647D01*
X023632Y001407D01*
X023816Y001224D01*
X024056Y001124D01*
X024315Y001124D01*
X024555Y001224D01*
X024739Y001407D01*
X024838Y001647D01*
X024838Y002732D01*
X024739Y002971D01*
X024555Y003155D01*
X024315Y003254D01*
X024046Y003250D02*
X023613Y003250D01*
X023753Y003092D02*
X023454Y003092D01*
X023296Y002933D02*
X023616Y002933D01*
X023551Y002775D02*
X023137Y002775D01*
X022978Y002616D02*
X023533Y002616D01*
X023533Y002458D02*
X022838Y002458D01*
X022838Y002299D02*
X023533Y002299D01*
X023533Y002141D02*
X022838Y002141D01*
X022838Y001982D02*
X023533Y001982D01*
X023533Y001823D02*
X022838Y001823D01*
X022838Y001665D02*
X023533Y001665D01*
X023591Y001506D02*
X022780Y001506D01*
X022679Y001348D02*
X023691Y001348D01*
X023898Y001189D02*
X022472Y001189D01*
X021898Y001189D02*
X019972Y001189D01*
X020055Y001224D02*
X020239Y001407D01*
X020338Y001647D01*
X020338Y002732D01*
X020239Y002971D01*
X020055Y003155D01*
X019815Y003254D01*
X019556Y003254D01*
X019316Y003155D01*
X019132Y002971D01*
X019033Y002732D01*
X019033Y001647D01*
X019132Y001407D01*
X019316Y001224D01*
X019556Y001124D01*
X019815Y001124D01*
X020055Y001224D01*
X020179Y001348D02*
X021691Y001348D01*
X021591Y001506D02*
X020280Y001506D01*
X020338Y001665D02*
X021533Y001665D01*
X021533Y001823D02*
X020338Y001823D01*
X020338Y001982D02*
X021533Y001982D01*
X021533Y002141D02*
X020338Y002141D01*
X020338Y002299D02*
X021533Y002299D01*
X021533Y002458D02*
X020338Y002458D01*
X020338Y002616D02*
X021533Y002616D01*
X021551Y002775D02*
X020320Y002775D01*
X020254Y002933D02*
X021616Y002933D01*
X021753Y003092D02*
X020118Y003092D01*
X019825Y003250D02*
X022046Y003250D01*
X022325Y003250D02*
X022580Y003250D01*
X023771Y003409D02*
X029850Y003409D01*
X029691Y003567D02*
X023930Y003567D01*
X024088Y003726D02*
X029532Y003726D01*
X029374Y003885D02*
X024247Y003885D01*
X024405Y004043D02*
X029215Y004043D01*
X029057Y004202D02*
X024564Y004202D01*
X024722Y004360D02*
X028898Y004360D01*
X028618Y003092D02*
X029753Y003092D01*
X029616Y002933D02*
X028754Y002933D01*
X028820Y002775D02*
X029551Y002775D01*
X029533Y002616D02*
X028838Y002616D01*
X028838Y002458D02*
X029533Y002458D01*
X029533Y002299D02*
X028838Y002299D01*
X028838Y002141D02*
X029533Y002141D01*
X029533Y001982D02*
X028838Y001982D01*
X028838Y001823D02*
X029533Y001823D01*
X029533Y001665D02*
X028838Y001665D01*
X028780Y001506D02*
X029591Y001506D01*
X029691Y001348D02*
X028679Y001348D01*
X028472Y001189D02*
X029898Y001189D01*
X027898Y001189D02*
X026472Y001189D01*
X026679Y001348D02*
X027691Y001348D01*
X027591Y001506D02*
X026780Y001506D01*
X026838Y001665D02*
X027533Y001665D01*
X027533Y001823D02*
X026838Y001823D01*
X026838Y001982D02*
X027533Y001982D01*
X027533Y002141D02*
X026838Y002141D01*
X026838Y002299D02*
X027533Y002299D01*
X027533Y002458D02*
X026838Y002458D01*
X026838Y002616D02*
X027533Y002616D01*
X027551Y002775D02*
X026820Y002775D01*
X026754Y002933D02*
X027616Y002933D01*
X027753Y003092D02*
X026618Y003092D01*
X025753Y003092D02*
X024618Y003092D01*
X024754Y002933D02*
X025616Y002933D01*
X025551Y002775D02*
X024820Y002775D01*
X024838Y002616D02*
X025533Y002616D01*
X025533Y002458D02*
X024838Y002458D01*
X024838Y002299D02*
X025533Y002299D01*
X025533Y002141D02*
X024838Y002141D01*
X024838Y001982D02*
X025533Y001982D01*
X025533Y001823D02*
X024838Y001823D01*
X024838Y001665D02*
X025533Y001665D01*
X025591Y001506D02*
X024780Y001506D01*
X024679Y001348D02*
X025691Y001348D01*
X025898Y001189D02*
X024472Y001189D01*
X019398Y001189D02*
X017972Y001189D01*
X018055Y001224D02*
X017815Y001124D01*
X017556Y001124D01*
X017316Y001224D01*
X017132Y001407D01*
X017033Y001647D01*
X017033Y002732D01*
X017132Y002971D01*
X017316Y003155D01*
X017556Y003254D01*
X017815Y003254D01*
X018055Y003155D01*
X018239Y002971D01*
X018338Y002732D01*
X018338Y001647D01*
X018239Y001407D01*
X018055Y001224D01*
X018179Y001348D02*
X019191Y001348D01*
X019091Y001506D02*
X018280Y001506D01*
X018338Y001665D02*
X019033Y001665D01*
X019033Y001823D02*
X018338Y001823D01*
X018338Y001982D02*
X019033Y001982D01*
X019033Y002141D02*
X018338Y002141D01*
X018338Y002299D02*
X019033Y002299D01*
X019033Y002458D02*
X018338Y002458D01*
X018338Y002616D02*
X019033Y002616D01*
X019051Y002775D02*
X018320Y002775D01*
X018254Y002933D02*
X019116Y002933D01*
X019253Y003092D02*
X018118Y003092D01*
X017825Y003250D02*
X019546Y003250D01*
X017546Y003250D02*
X015825Y003250D01*
X015815Y003254D02*
X015556Y003254D01*
X015316Y003155D01*
X015132Y002971D01*
X015033Y002732D01*
X015033Y001647D01*
X015132Y001407D01*
X015316Y001224D01*
X015556Y001124D01*
X015815Y001124D01*
X016055Y001224D01*
X016239Y001407D01*
X016338Y001647D01*
X016338Y002732D01*
X016239Y002971D01*
X016055Y003155D01*
X015815Y003254D01*
X015546Y003250D02*
X013825Y003250D01*
X013815Y003254D02*
X013556Y003254D01*
X013316Y003155D01*
X013132Y002971D01*
X013033Y002732D01*
X013033Y001647D01*
X013132Y001407D01*
X013316Y001224D01*
X013556Y001124D01*
X013815Y001124D01*
X014055Y001224D01*
X014239Y001407D01*
X014338Y001647D01*
X014338Y002732D01*
X014239Y002971D01*
X014055Y003155D01*
X013815Y003254D01*
X013546Y003250D02*
X011825Y003250D01*
X011815Y003254D02*
X011556Y003254D01*
X011316Y003155D01*
X011132Y002971D01*
X011033Y002732D01*
X011033Y001647D01*
X011132Y001407D01*
X011316Y001224D01*
X011556Y001124D01*
X011815Y001124D01*
X012055Y001224D01*
X012239Y001407D01*
X012338Y001647D01*
X012338Y002732D01*
X012239Y002971D01*
X012055Y003155D01*
X011815Y003254D01*
X011546Y003250D02*
X009825Y003250D01*
X009815Y003254D02*
X009556Y003254D01*
X009316Y003155D01*
X009132Y002971D01*
X009033Y002732D01*
X009033Y001647D01*
X009132Y001407D01*
X009316Y001224D01*
X009556Y001124D01*
X009815Y001124D01*
X010055Y001224D01*
X010239Y001407D01*
X010338Y001647D01*
X010338Y002732D01*
X010239Y002971D01*
X010055Y003155D01*
X009815Y003254D01*
X009546Y003250D02*
X007825Y003250D01*
X007815Y003254D02*
X007556Y003254D01*
X007316Y003155D01*
X007132Y002971D01*
X007033Y002732D01*
X007033Y001647D01*
X007132Y001407D01*
X007316Y001224D01*
X007556Y001124D01*
X007815Y001124D01*
X008055Y001224D01*
X008239Y001407D01*
X008338Y001647D01*
X008338Y002732D01*
X008239Y002971D01*
X008055Y003155D01*
X007815Y003254D01*
X007546Y003250D02*
X005825Y003250D01*
X006118Y003092D02*
X007253Y003092D01*
X007116Y002933D02*
X006254Y002933D01*
X006320Y002775D02*
X007051Y002775D01*
X007033Y002616D02*
X006338Y002616D01*
X006338Y002458D02*
X007033Y002458D01*
X007033Y002299D02*
X006338Y002299D01*
X006338Y002141D02*
X007033Y002141D01*
X007033Y001982D02*
X006338Y001982D01*
X006338Y001823D02*
X007033Y001823D01*
X007033Y001665D02*
X006338Y001665D01*
X006280Y001506D02*
X007091Y001506D01*
X007191Y001348D02*
X006179Y001348D01*
X005972Y001189D02*
X007398Y001189D01*
X007972Y001189D02*
X009398Y001189D01*
X009191Y001348D02*
X008179Y001348D01*
X008280Y001506D02*
X009091Y001506D01*
X009033Y001665D02*
X008338Y001665D01*
X008338Y001823D02*
X009033Y001823D01*
X009033Y001982D02*
X008338Y001982D01*
X008338Y002141D02*
X009033Y002141D01*
X009033Y002299D02*
X008338Y002299D01*
X008338Y002458D02*
X009033Y002458D01*
X009033Y002616D02*
X008338Y002616D01*
X008320Y002775D02*
X009051Y002775D01*
X009116Y002933D02*
X008254Y002933D01*
X008118Y003092D02*
X009253Y003092D01*
X010118Y003092D02*
X011253Y003092D01*
X011116Y002933D02*
X010254Y002933D01*
X010320Y002775D02*
X011051Y002775D01*
X011033Y002616D02*
X010338Y002616D01*
X010338Y002458D02*
X011033Y002458D01*
X011033Y002299D02*
X010338Y002299D01*
X010338Y002141D02*
X011033Y002141D01*
X011033Y001982D02*
X010338Y001982D01*
X010338Y001823D02*
X011033Y001823D01*
X011033Y001665D02*
X010338Y001665D01*
X010280Y001506D02*
X011091Y001506D01*
X011191Y001348D02*
X010179Y001348D01*
X009972Y001189D02*
X011398Y001189D01*
X011972Y001189D02*
X013398Y001189D01*
X013191Y001348D02*
X012179Y001348D01*
X012280Y001506D02*
X013091Y001506D01*
X013033Y001665D02*
X012338Y001665D01*
X012338Y001823D02*
X013033Y001823D01*
X013033Y001982D02*
X012338Y001982D01*
X012338Y002141D02*
X013033Y002141D01*
X013033Y002299D02*
X012338Y002299D01*
X012338Y002458D02*
X013033Y002458D01*
X013033Y002616D02*
X012338Y002616D01*
X012320Y002775D02*
X013051Y002775D01*
X013116Y002933D02*
X012254Y002933D01*
X012118Y003092D02*
X013253Y003092D01*
X014118Y003092D02*
X015253Y003092D01*
X015116Y002933D02*
X014254Y002933D01*
X014320Y002775D02*
X015051Y002775D01*
X015033Y002616D02*
X014338Y002616D01*
X014338Y002458D02*
X015033Y002458D01*
X015033Y002299D02*
X014338Y002299D01*
X014338Y002141D02*
X015033Y002141D01*
X015033Y001982D02*
X014338Y001982D01*
X014338Y001823D02*
X015033Y001823D01*
X015033Y001665D02*
X014338Y001665D01*
X014280Y001506D02*
X015091Y001506D01*
X015191Y001348D02*
X014179Y001348D01*
X013972Y001189D02*
X015398Y001189D01*
X015972Y001189D02*
X017398Y001189D01*
X017191Y001348D02*
X016179Y001348D01*
X016280Y001506D02*
X017091Y001506D01*
X017033Y001665D02*
X016338Y001665D01*
X016338Y001823D02*
X017033Y001823D01*
X017033Y001982D02*
X016338Y001982D01*
X016338Y002141D02*
X017033Y002141D01*
X017033Y002299D02*
X016338Y002299D01*
X016338Y002458D02*
X017033Y002458D01*
X017033Y002616D02*
X016338Y002616D01*
X016320Y002775D02*
X017051Y002775D01*
X017116Y002933D02*
X016254Y002933D01*
X016118Y003092D02*
X017253Y003092D01*
X015792Y006580D02*
X024579Y006580D01*
X024420Y006738D02*
X015951Y006738D01*
X016408Y006897D02*
X016963Y006897D01*
X016756Y007055D02*
X016615Y007055D01*
X017408Y006897D02*
X019963Y006897D01*
X019756Y007055D02*
X019530Y007055D01*
X019632Y007214D02*
X019674Y007214D01*
X019205Y007214D02*
X019165Y007214D01*
X019165Y007372D02*
X019205Y007372D01*
X019205Y007531D02*
X019165Y007531D01*
X019165Y007690D02*
X018206Y007690D01*
X018205Y007710D02*
X018165Y007710D01*
X018165Y007909D01*
X018165Y008669D01*
X018205Y008669D01*
X018205Y007909D01*
X018205Y007710D01*
X018205Y007848D02*
X018165Y007848D01*
X018165Y008007D02*
X018205Y008007D01*
X018205Y008165D02*
X018165Y008165D01*
X018165Y008324D02*
X018205Y008324D01*
X018205Y008482D02*
X018165Y008482D01*
X018165Y008641D02*
X018205Y008641D01*
X018205Y008710D02*
X018165Y008710D01*
X018165Y009469D01*
X018165Y009669D01*
X018205Y009669D01*
X018205Y009469D01*
X018205Y008710D01*
X018205Y008799D02*
X018165Y008799D01*
X018165Y008958D02*
X018205Y008958D01*
X018205Y009116D02*
X018165Y009116D01*
X018165Y009275D02*
X018205Y009275D01*
X018205Y009434D02*
X018165Y009434D01*
X018165Y009592D02*
X018205Y009592D01*
X018205Y009751D02*
X018165Y009751D01*
X018165Y009909D02*
X018205Y009909D01*
X018205Y010068D02*
X018165Y010068D01*
X018165Y010226D02*
X018205Y010226D01*
X018205Y010385D02*
X018165Y010385D01*
X017902Y010385D02*
X017553Y010385D01*
X017672Y010226D02*
X017764Y010226D01*
X018469Y010385D02*
X018902Y010385D01*
X018764Y010226D02*
X018607Y010226D01*
X018665Y010068D02*
X018705Y010068D01*
X018705Y009909D02*
X018665Y009909D01*
X018665Y009751D02*
X018705Y009751D01*
X018705Y009592D02*
X018665Y009592D01*
X018665Y009434D02*
X018705Y009434D01*
X018713Y009275D02*
X018658Y009275D01*
X018652Y009116D02*
X018719Y009116D01*
X018705Y008958D02*
X018665Y008958D01*
X018665Y008799D02*
X018705Y008799D01*
X018705Y008641D02*
X018665Y008641D01*
X018665Y008482D02*
X018705Y008482D01*
X018705Y008324D02*
X018665Y008324D01*
X018632Y008165D02*
X018739Y008165D01*
X018705Y008007D02*
X018665Y008007D01*
X018665Y007848D02*
X018705Y007848D01*
X018705Y007531D02*
X018665Y007531D01*
X018665Y007372D02*
X018705Y007372D01*
X018738Y007214D02*
X018632Y007214D01*
X018530Y007055D02*
X018840Y007055D01*
X019165Y007055D02*
X019205Y007055D01*
X019205Y007710D02*
X019165Y007710D01*
X019165Y007909D01*
X019165Y008669D01*
X019205Y008669D01*
X019205Y007909D01*
X019205Y007710D01*
X019205Y007848D02*
X019165Y007848D01*
X019165Y008007D02*
X019205Y008007D01*
X019205Y008165D02*
X019165Y008165D01*
X019165Y008324D02*
X019205Y008324D01*
X019205Y008482D02*
X019165Y008482D01*
X019165Y008641D02*
X019205Y008641D01*
X019205Y008710D02*
X019165Y008710D01*
X019165Y009469D01*
X019165Y009669D01*
X019205Y009669D01*
X019205Y009469D01*
X019205Y008710D01*
X019205Y008799D02*
X019165Y008799D01*
X019165Y008958D02*
X019205Y008958D01*
X019205Y009116D02*
X019165Y009116D01*
X019165Y009275D02*
X019205Y009275D01*
X019205Y009434D02*
X019165Y009434D01*
X019165Y009592D02*
X019205Y009592D01*
X019205Y009751D02*
X019165Y009751D01*
X019165Y009909D02*
X019205Y009909D01*
X019205Y010068D02*
X019165Y010068D01*
X019165Y010226D02*
X019205Y010226D01*
X019205Y010385D02*
X019165Y010385D01*
X019469Y010385D02*
X019817Y010385D01*
X019699Y010226D02*
X019607Y010226D01*
X019633Y011204D02*
X019685Y011330D01*
X019685Y012049D01*
X019609Y012232D01*
X019469Y012373D01*
X019285Y012449D01*
X019086Y012449D01*
X018902Y012373D01*
X018761Y012232D01*
X018685Y012049D01*
X018609Y012232D01*
X018469Y012373D01*
X018285Y012449D01*
X018086Y012449D01*
X017902Y012373D01*
X017761Y012232D01*
X017685Y012049D01*
X017685Y011330D01*
X017737Y011204D01*
X017568Y011204D01*
X017625Y011342D01*
X017625Y011689D01*
X017186Y011689D01*
X017186Y011689D01*
X017625Y011689D01*
X017625Y012037D01*
X017558Y012199D01*
X017435Y012322D01*
X017273Y012389D01*
X017186Y012389D01*
X017186Y011690D01*
X017185Y011690D01*
X017185Y012389D01*
X017098Y012389D01*
X016936Y012322D01*
X016812Y012199D01*
X016745Y012037D01*
X016745Y011689D01*
X016745Y011342D01*
X016802Y011204D01*
X016633Y011204D01*
X016685Y011330D01*
X016685Y012049D01*
X016678Y012066D01*
X017162Y012549D01*
X017173Y012549D01*
X017335Y012616D01*
X017458Y012740D01*
X017525Y012902D01*
X017525Y013077D01*
X017506Y013124D01*
X019334Y013124D01*
X020032Y012427D01*
X019902Y012373D01*
X019761Y012232D01*
X019685Y012049D01*
X019685Y011330D01*
X019737Y011204D01*
X019633Y011204D01*
X019685Y011336D02*
X019685Y011336D01*
X019685Y011495D02*
X019685Y011495D01*
X019685Y011653D02*
X019685Y011653D01*
X019685Y011812D02*
X019685Y011812D01*
X019685Y011970D02*
X019685Y011970D01*
X019652Y012129D02*
X019719Y012129D01*
X019816Y012287D02*
X019554Y012287D01*
X019293Y012446D02*
X020013Y012446D01*
X019854Y012604D02*
X017306Y012604D01*
X017468Y012763D02*
X019695Y012763D01*
X019537Y012921D02*
X017525Y012921D01*
X017524Y013080D02*
X019378Y013080D01*
X019078Y012446D02*
X018293Y012446D01*
X018078Y012446D02*
X017058Y012446D01*
X017185Y012287D02*
X017186Y012287D01*
X017185Y012129D02*
X017186Y012129D01*
X017185Y011970D02*
X017186Y011970D01*
X017185Y011812D02*
X017186Y011812D01*
X017185Y011689D02*
X017185Y011689D01*
X016745Y011689D01*
X017185Y011689D01*
X016745Y011653D02*
X016685Y011653D01*
X016685Y011495D02*
X016745Y011495D01*
X016748Y011336D02*
X016685Y011336D01*
X016685Y011812D02*
X016745Y011812D01*
X016745Y011970D02*
X016685Y011970D01*
X016741Y012129D02*
X016783Y012129D01*
X016900Y012287D02*
X016901Y012287D01*
X017470Y012287D02*
X017816Y012287D01*
X017719Y012129D02*
X017587Y012129D01*
X017625Y011970D02*
X017685Y011970D01*
X017685Y011812D02*
X017625Y011812D01*
X017625Y011653D02*
X017685Y011653D01*
X017685Y011495D02*
X017625Y011495D01*
X017623Y011336D02*
X017685Y011336D01*
X018633Y011204D02*
X018685Y011330D01*
X018685Y012049D01*
X018685Y011330D01*
X018737Y011204D01*
X018633Y011204D01*
X018685Y011336D02*
X018685Y011336D01*
X018685Y011495D02*
X018685Y011495D01*
X018685Y011653D02*
X018685Y011653D01*
X018685Y011812D02*
X018685Y011812D01*
X018685Y011970D02*
X018685Y011970D01*
X018652Y012129D02*
X018719Y012129D01*
X018816Y012287D02*
X018554Y012287D01*
X020411Y013080D02*
X027278Y013080D01*
X027437Y012921D02*
X020569Y012921D01*
X020728Y012763D02*
X027595Y012763D01*
X027720Y012604D02*
X020886Y012604D01*
X021045Y012446D02*
X021078Y012446D01*
X021293Y012446D02*
X022078Y012446D01*
X022293Y012446D02*
X023078Y012446D01*
X023293Y012446D02*
X024078Y012446D01*
X024293Y012446D02*
X025078Y012446D01*
X025293Y012446D02*
X026078Y012446D01*
X026293Y012446D02*
X027720Y012446D01*
X027720Y012287D02*
X026554Y012287D01*
X026652Y012129D02*
X027720Y012129D01*
X027720Y011970D02*
X026685Y011970D01*
X026685Y011812D02*
X027720Y011812D01*
X027720Y011653D02*
X026685Y011653D01*
X026685Y011495D02*
X027720Y011495D01*
X027720Y011336D02*
X026685Y011336D01*
X026622Y011178D02*
X027720Y011178D01*
X027720Y011019D02*
X026550Y011019D01*
X026550Y010860D02*
X027720Y010860D01*
X027720Y010702D02*
X026550Y010702D01*
X026550Y010543D02*
X027720Y010543D01*
X027720Y010385D02*
X026553Y010385D01*
X026672Y010226D02*
X027565Y010226D01*
X027485Y010068D02*
X026725Y010068D01*
X026725Y009909D02*
X027485Y009909D01*
X027485Y009751D02*
X026725Y009751D01*
X026725Y009592D02*
X027625Y009592D01*
X028345Y009592D02*
X028710Y009592D01*
X028803Y009499D02*
X028985Y009499D01*
X028985Y009939D01*
X028545Y009939D01*
X028545Y009757D01*
X028803Y009499D01*
X028986Y009499D02*
X029168Y009499D01*
X029425Y009757D01*
X029425Y009939D01*
X028986Y009939D01*
X028986Y009939D01*
X029425Y009939D01*
X029425Y010121D01*
X029168Y010379D01*
X028986Y010379D01*
X028986Y009940D01*
X028985Y009940D01*
X028985Y010379D01*
X028803Y010379D01*
X028545Y010121D01*
X028545Y009939D01*
X028985Y009939D01*
X028985Y009939D01*
X028986Y009939D01*
X028986Y009499D01*
X028985Y009592D02*
X028986Y009592D01*
X028985Y009751D02*
X028986Y009751D01*
X028985Y009909D02*
X028986Y009909D01*
X028985Y010068D02*
X028986Y010068D01*
X028985Y010226D02*
X028986Y010226D01*
X029321Y010226D02*
X030782Y010226D01*
X030941Y010068D02*
X029425Y010068D01*
X029425Y009909D02*
X031099Y009909D01*
X031258Y009751D02*
X029419Y009751D01*
X029260Y009592D02*
X033821Y009592D01*
X033935Y009434D02*
X026725Y009434D01*
X026722Y009275D02*
X034208Y009275D01*
X034463Y009275D02*
X037693Y009275D01*
X037685Y009282D02*
X037978Y008989D01*
X038392Y008989D01*
X038685Y009282D01*
X038685Y009696D01*
X038450Y009931D01*
X038450Y010717D01*
X038450Y010862D01*
X038395Y010996D01*
X038341Y011049D01*
X038368Y011049D01*
X038625Y011307D01*
X038625Y011383D01*
X039203Y010806D01*
X039199Y010796D01*
X039199Y010582D01*
X039280Y010385D01*
X039431Y010234D01*
X039629Y010152D01*
X039842Y010152D01*
X040039Y010234D01*
X040190Y010385D01*
X040290Y010385D01*
X040190Y010385D02*
X040272Y010582D01*
X040272Y010796D01*
X040190Y010993D01*
X040039Y011144D01*
X039853Y011222D01*
X040005Y011285D01*
X040140Y011419D01*
X040212Y011594D01*
X040212Y011671D01*
X039754Y011671D01*
X039754Y011708D01*
X040212Y011708D01*
X040212Y011784D01*
X040140Y011959D01*
X040005Y012094D01*
X039863Y012152D01*
X040080Y012152D01*
X040168Y012189D01*
X040236Y012256D01*
X040272Y012345D01*
X040272Y013034D01*
X040236Y013122D01*
X040168Y013190D01*
X040080Y013226D01*
X039391Y013226D01*
X039303Y013190D01*
X039235Y013122D01*
X039199Y013034D01*
X039199Y012345D01*
X039235Y012256D01*
X039303Y012189D01*
X039391Y012152D01*
X039608Y012152D01*
X039465Y012094D01*
X039331Y011959D01*
X039259Y011784D01*
X039259Y011782D01*
X039100Y011940D01*
X039100Y014617D01*
X039100Y014762D01*
X039045Y014896D01*
X038375Y015565D01*
X038375Y015577D01*
X038308Y015739D01*
X038185Y015862D01*
X038023Y015929D01*
X037848Y015929D01*
X037686Y015862D01*
X037650Y015826D01*
X037650Y016464D01*
X037755Y016492D01*
X037999Y016633D01*
X038198Y016832D01*
X038339Y017076D01*
X038412Y017348D01*
X038412Y017630D01*
X038339Y017902D01*
X038198Y018146D01*
X037999Y018345D01*
X037755Y018486D01*
X037483Y018559D01*
X037201Y018559D01*
X036929Y018486D01*
X036685Y018345D01*
X036486Y018146D01*
X036345Y017902D01*
X036272Y017630D01*
X036272Y017348D01*
X036345Y017076D01*
X036486Y016832D01*
X036685Y016633D01*
X036920Y016497D01*
X036920Y015439D01*
X036528Y015439D01*
X036235Y015146D01*
X036235Y014732D01*
X036421Y014547D01*
X036412Y014539D01*
X036345Y014377D01*
X036345Y014202D01*
X036412Y014040D01*
X036536Y013916D01*
X036698Y013849D01*
X036873Y013849D01*
X037035Y013916D01*
X037158Y014040D01*
X037163Y014050D01*
X037492Y014380D01*
X037595Y014483D01*
X037650Y014617D01*
X037650Y015152D01*
X037686Y015116D01*
X037848Y015049D01*
X037859Y015049D01*
X038029Y014879D01*
X038003Y014879D01*
X037745Y014621D01*
X037745Y014439D01*
X037745Y014257D01*
X038003Y013999D01*
X038185Y013999D01*
X038185Y014439D01*
X037745Y014439D01*
X038185Y014439D01*
X038185Y014439D01*
X038186Y014439D01*
X038186Y013999D01*
X038368Y013999D01*
X038370Y014002D01*
X038370Y012939D01*
X038000Y012939D01*
X038000Y013482D01*
X038008Y013490D01*
X038075Y013652D01*
X038075Y013827D01*
X038008Y013989D01*
X037885Y014112D01*
X037723Y014179D01*
X037548Y014179D01*
X037386Y014112D01*
X037262Y013989D01*
X037195Y013827D01*
X037195Y013652D01*
X037262Y013490D01*
X037270Y013482D01*
X037270Y011167D01*
X037326Y011033D01*
X037429Y010930D01*
X037720Y010638D01*
X037720Y009742D01*
X037720Y009731D01*
X037685Y009696D01*
X037685Y009282D01*
X037685Y009434D02*
X036415Y009434D01*
X036500Y009469D02*
X036296Y009384D01*
X036075Y009384D01*
X035871Y009469D01*
X035715Y009625D01*
X035630Y009829D01*
X035630Y010050D01*
X035715Y010254D01*
X035871Y010410D01*
X035973Y010452D01*
X035690Y010734D01*
X035690Y010939D01*
X036185Y010939D01*
X036185Y010939D01*
X035690Y010939D01*
X035690Y011144D01*
X035980Y011434D01*
X036185Y011434D01*
X036185Y010940D01*
X036186Y010940D01*
X036186Y011434D01*
X036390Y011434D01*
X036680Y011144D01*
X036680Y010939D01*
X036186Y010939D01*
X036186Y010939D01*
X036680Y010939D01*
X036680Y010734D01*
X036398Y010452D01*
X036500Y010410D01*
X036656Y010254D01*
X036740Y010050D01*
X036740Y009829D01*
X036656Y009625D01*
X036500Y009469D01*
X036623Y009592D02*
X037685Y009592D01*
X037720Y009751D02*
X036708Y009751D01*
X036740Y009909D02*
X037720Y009909D01*
X037720Y010068D02*
X036733Y010068D01*
X036667Y010226D02*
X037720Y010226D01*
X037720Y010385D02*
X036525Y010385D01*
X036489Y010543D02*
X037720Y010543D01*
X037657Y010702D02*
X036648Y010702D01*
X036680Y010860D02*
X037498Y010860D01*
X037339Y011019D02*
X036680Y011019D01*
X036647Y011178D02*
X037270Y011178D01*
X037270Y011336D02*
X036489Y011336D01*
X036186Y011336D02*
X036185Y011336D01*
X036185Y011178D02*
X036186Y011178D01*
X036185Y011019D02*
X036186Y011019D01*
X035882Y011336D02*
X035798Y011336D01*
X035724Y011178D02*
X035640Y011178D01*
X035690Y011019D02*
X035481Y011019D01*
X035323Y010860D02*
X035690Y010860D01*
X035723Y010702D02*
X035164Y010702D01*
X035006Y010543D02*
X035881Y010543D01*
X035846Y010385D02*
X034850Y010385D01*
X034850Y010226D02*
X035704Y010226D01*
X035638Y010068D02*
X034858Y010068D01*
X034905Y009909D02*
X035630Y009909D01*
X035663Y009751D02*
X034905Y009751D01*
X034850Y009592D02*
X035748Y009592D01*
X035956Y009434D02*
X034736Y009434D01*
X034120Y010385D02*
X032853Y010385D01*
X032980Y010543D02*
X034120Y010543D01*
X034158Y010702D02*
X033025Y010702D01*
X033011Y010860D02*
X034290Y010860D01*
X034449Y011019D02*
X032950Y011019D01*
X032950Y011178D02*
X034607Y011178D01*
X034766Y011336D02*
X032950Y011336D01*
X032950Y011495D02*
X034925Y011495D01*
X035083Y011653D02*
X032950Y011653D01*
X032950Y011812D02*
X035242Y011812D01*
X035400Y011970D02*
X032950Y011970D01*
X032950Y012129D02*
X035559Y012129D01*
X035648Y012287D02*
X032950Y012287D01*
X032950Y012446D02*
X035630Y012446D01*
X035653Y012604D02*
X032950Y012604D01*
X032908Y012763D02*
X035724Y012763D01*
X035899Y012921D02*
X032769Y012921D01*
X032611Y013080D02*
X035845Y013080D01*
X035690Y013239D02*
X032551Y013239D01*
X032709Y013397D02*
X033971Y013397D01*
X034012Y013356D02*
X034222Y013269D01*
X034449Y013269D01*
X034658Y013356D01*
X034819Y013516D01*
X034905Y013726D01*
X034905Y013953D01*
X034819Y014162D01*
X034658Y014322D01*
X034449Y014409D01*
X034222Y014409D01*
X034012Y014322D01*
X033852Y014162D01*
X033765Y013953D01*
X033765Y013726D01*
X033852Y013516D01*
X034012Y013356D01*
X033836Y013556D02*
X032868Y013556D01*
X033026Y013714D02*
X033770Y013714D01*
X033765Y013873D02*
X033185Y013873D01*
X033344Y014031D02*
X033798Y014031D01*
X033880Y014190D02*
X033502Y014190D01*
X033661Y014348D02*
X034075Y014348D01*
X034010Y014507D02*
X036399Y014507D01*
X036345Y014348D02*
X034596Y014348D01*
X034791Y014190D02*
X036350Y014190D01*
X036421Y014031D02*
X034873Y014031D01*
X034905Y013873D02*
X035919Y013873D01*
X035760Y013714D02*
X034900Y013714D01*
X034835Y013556D02*
X035690Y013556D01*
X035690Y013397D02*
X034699Y013397D01*
X034169Y014665D02*
X036302Y014665D01*
X036235Y014824D02*
X034235Y014824D01*
X034235Y014983D02*
X036235Y014983D01*
X036235Y015141D02*
X034235Y015141D01*
X034082Y015300D02*
X036389Y015300D01*
X036197Y015702D02*
X036332Y015837D01*
X036405Y016014D01*
X036405Y016389D01*
X035946Y016389D01*
X035946Y016429D01*
X036405Y016429D01*
X036405Y016805D01*
X036332Y016981D01*
X036197Y017116D01*
X036021Y017189D01*
X035945Y017189D01*
X035945Y016430D01*
X035905Y016430D01*
X035905Y017189D01*
X035830Y017189D01*
X035653Y017116D01*
X035518Y016981D01*
X035445Y016805D01*
X035445Y016429D01*
X035905Y016429D01*
X035905Y016389D01*
X035445Y016389D01*
X035445Y016014D01*
X035518Y015837D01*
X035653Y015702D01*
X035830Y015629D01*
X035905Y015629D01*
X035905Y016389D01*
X035945Y016389D01*
X035945Y015629D01*
X036021Y015629D01*
X036197Y015702D01*
X036270Y015775D02*
X036920Y015775D01*
X036920Y015617D02*
X034367Y015617D01*
X034451Y015651D02*
X034603Y015803D01*
X034685Y016002D01*
X034685Y016817D01*
X034603Y017015D01*
X034451Y017167D01*
X034253Y017249D01*
X034038Y017249D01*
X033839Y017167D01*
X033688Y017015D01*
X033605Y016817D01*
X033605Y016002D01*
X033688Y015803D01*
X033839Y015651D01*
X034038Y015569D01*
X034253Y015569D01*
X034451Y015651D01*
X034575Y015775D02*
X035581Y015775D01*
X035478Y015934D02*
X034657Y015934D01*
X034685Y016092D02*
X035445Y016092D01*
X035445Y016251D02*
X034685Y016251D01*
X034685Y016409D02*
X035905Y016409D01*
X035946Y016409D02*
X036920Y016409D01*
X036920Y016251D02*
X036405Y016251D01*
X036405Y016092D02*
X036920Y016092D01*
X036920Y015934D02*
X036372Y015934D01*
X035945Y015934D02*
X035905Y015934D01*
X035905Y016092D02*
X035945Y016092D01*
X035945Y016251D02*
X035905Y016251D01*
X035905Y016568D02*
X035945Y016568D01*
X035945Y016727D02*
X035905Y016727D01*
X035905Y016885D02*
X035945Y016885D01*
X035945Y017044D02*
X035905Y017044D01*
X035581Y017044D02*
X034575Y017044D01*
X034657Y016885D02*
X035479Y016885D01*
X035445Y016727D02*
X034685Y016727D01*
X034685Y016568D02*
X035445Y016568D01*
X036270Y017044D02*
X036364Y017044D01*
X036372Y016885D02*
X036455Y016885D01*
X036405Y016727D02*
X036591Y016727D01*
X036405Y016568D02*
X036798Y016568D01*
X036311Y017202D02*
X034366Y017202D01*
X033924Y017202D02*
X030139Y017202D01*
X030248Y017361D02*
X029980Y017361D01*
X030089Y017519D02*
X029822Y017519D01*
X029794Y017678D02*
X029931Y017678D01*
X030297Y017044D02*
X033716Y017044D01*
X033634Y016885D02*
X030456Y016885D01*
X030614Y016727D02*
X033605Y016727D01*
X033605Y016568D02*
X030773Y016568D01*
X030931Y016409D02*
X033605Y016409D01*
X033605Y016251D02*
X031090Y016251D01*
X031217Y016092D02*
X033605Y016092D01*
X033634Y015934D02*
X031250Y015934D01*
X031285Y015775D02*
X031771Y015775D01*
X031795Y015799D02*
X031525Y015530D01*
X031525Y015349D01*
X031975Y015349D01*
X031975Y015329D01*
X031525Y015329D01*
X031525Y015149D01*
X031795Y014879D01*
X031975Y014879D01*
X031975Y015329D01*
X031995Y015329D01*
X031995Y014879D01*
X032176Y014879D01*
X032445Y015149D01*
X032445Y015329D01*
X031996Y015329D01*
X031996Y015349D01*
X032445Y015349D01*
X032445Y015530D01*
X032176Y015799D01*
X031995Y015799D01*
X031995Y015350D01*
X031975Y015350D01*
X031975Y015799D01*
X031795Y015799D01*
X031975Y015775D02*
X031995Y015775D01*
X031995Y015617D02*
X031975Y015617D01*
X031975Y015458D02*
X031995Y015458D01*
X031995Y015300D02*
X031975Y015300D01*
X031975Y015141D02*
X031995Y015141D01*
X031995Y014983D02*
X031975Y014983D01*
X031692Y014983D02*
X031364Y014983D01*
X031236Y014824D02*
X031735Y014824D01*
X031576Y014665D02*
X031394Y014665D01*
X031505Y015141D02*
X031533Y015141D01*
X031525Y015300D02*
X031505Y015300D01*
X031505Y015458D02*
X031525Y015458D01*
X031443Y015617D02*
X031612Y015617D01*
X032200Y015775D02*
X033716Y015775D01*
X033923Y015617D02*
X032358Y015617D01*
X032445Y015458D02*
X036920Y015458D01*
X037650Y015141D02*
X037661Y015141D01*
X037650Y014983D02*
X037926Y014983D01*
X037948Y014824D02*
X037650Y014824D01*
X037650Y014665D02*
X037789Y014665D01*
X037745Y014507D02*
X037605Y014507D01*
X037745Y014348D02*
X037461Y014348D01*
X037302Y014190D02*
X037813Y014190D01*
X037966Y014031D02*
X037971Y014031D01*
X038056Y013873D02*
X038370Y013873D01*
X038370Y013714D02*
X038075Y013714D01*
X038036Y013556D02*
X038370Y013556D01*
X038370Y013397D02*
X038000Y013397D01*
X038000Y013239D02*
X038370Y013239D01*
X038370Y013080D02*
X038000Y013080D01*
X037270Y013080D02*
X036526Y013080D01*
X036471Y012921D02*
X037270Y012921D01*
X037270Y012763D02*
X036647Y012763D01*
X036718Y012604D02*
X037270Y012604D01*
X037270Y012446D02*
X036740Y012446D01*
X036723Y012287D02*
X037270Y012287D01*
X037270Y012129D02*
X036657Y012129D01*
X036501Y011970D02*
X037270Y011970D01*
X037270Y011812D02*
X036274Y011812D01*
X036115Y011653D02*
X037270Y011653D01*
X037270Y011495D02*
X035957Y011495D01*
X038000Y011926D02*
X038000Y011939D01*
X038370Y011939D01*
X038370Y011926D01*
X038368Y011929D01*
X038186Y011929D01*
X038186Y011490D01*
X038185Y011490D01*
X038185Y011929D01*
X038003Y011929D01*
X038000Y011926D01*
X038185Y011812D02*
X038186Y011812D01*
X038185Y011653D02*
X038186Y011653D01*
X038185Y011495D02*
X038186Y011495D01*
X038496Y011178D02*
X038831Y011178D01*
X038672Y011336D02*
X038625Y011336D01*
X038372Y011019D02*
X038989Y011019D01*
X039148Y010860D02*
X038450Y010860D01*
X038450Y010702D02*
X039199Y010702D01*
X039215Y010543D02*
X038450Y010543D01*
X038450Y010385D02*
X039281Y010385D01*
X039450Y010226D02*
X038450Y010226D01*
X038450Y010068D02*
X040290Y010068D01*
X040290Y010226D02*
X040020Y010226D01*
X040256Y010543D02*
X040290Y010543D01*
X040290Y010702D02*
X040272Y010702D01*
X040290Y010860D02*
X040246Y010860D01*
X040290Y011019D02*
X040165Y011019D01*
X040290Y011178D02*
X039959Y011178D01*
X040056Y011336D02*
X040290Y011336D01*
X040290Y011495D02*
X040171Y011495D01*
X040212Y011653D02*
X040290Y011653D01*
X040290Y011812D02*
X040201Y011812D01*
X040129Y011970D02*
X040290Y011970D01*
X040290Y012129D02*
X039920Y012129D01*
X040248Y012287D02*
X040290Y012287D01*
X040290Y012446D02*
X040272Y012446D01*
X040272Y012604D02*
X040290Y012604D01*
X040290Y012763D02*
X040272Y012763D01*
X040272Y012921D02*
X040290Y012921D01*
X040290Y013080D02*
X040253Y013080D01*
X040290Y013239D02*
X039100Y013239D01*
X039100Y013397D02*
X040290Y013397D01*
X040290Y013556D02*
X039100Y013556D01*
X039100Y013714D02*
X040290Y013714D01*
X040290Y013873D02*
X039100Y013873D01*
X039100Y014031D02*
X040290Y014031D01*
X040290Y014190D02*
X039100Y014190D01*
X039100Y014348D02*
X040290Y014348D01*
X040290Y014507D02*
X039100Y014507D01*
X039100Y014665D02*
X040290Y014665D01*
X040290Y014824D02*
X039075Y014824D01*
X038958Y014983D02*
X040290Y014983D01*
X040290Y015141D02*
X038800Y015141D01*
X038641Y015300D02*
X040290Y015300D01*
X040290Y015458D02*
X038483Y015458D01*
X038359Y015617D02*
X040290Y015617D01*
X040290Y015775D02*
X038272Y015775D01*
X037650Y015934D02*
X040290Y015934D01*
X040290Y016092D02*
X037650Y016092D01*
X037650Y016251D02*
X040290Y016251D01*
X040290Y016409D02*
X037650Y016409D01*
X037886Y016568D02*
X039280Y016568D01*
X039038Y016727D02*
X038092Y016727D01*
X038228Y016885D02*
X038886Y016885D01*
X038795Y017044D02*
X038320Y017044D01*
X038372Y017202D02*
X038735Y017202D01*
X038694Y017361D02*
X038412Y017361D01*
X038412Y017519D02*
X039624Y017519D01*
X039624Y017361D02*
X039784Y017361D01*
X039784Y017202D02*
X039624Y017202D01*
X039624Y017044D02*
X039784Y017044D01*
X039784Y016885D02*
X039624Y016885D01*
X039624Y016727D02*
X039784Y016727D01*
X039784Y016568D02*
X039624Y016568D01*
X040128Y016568D02*
X040290Y016568D01*
X039784Y017678D02*
X039624Y017678D01*
X039624Y017836D02*
X039784Y017836D01*
X039784Y017995D02*
X039624Y017995D01*
X039624Y018153D02*
X039784Y018153D01*
X039784Y018312D02*
X039624Y018312D01*
X039624Y018471D02*
X039784Y018471D01*
X039944Y018471D02*
X040290Y018471D01*
X040290Y018629D02*
X039227Y018629D01*
X039160Y018562D02*
X039359Y018761D01*
X039500Y019005D01*
X039573Y019278D01*
X039573Y019559D01*
X039500Y019831D01*
X039359Y020075D01*
X039160Y020275D01*
X038916Y020415D01*
X038644Y020488D01*
X038362Y020488D01*
X038090Y020415D01*
X037846Y020275D01*
X037647Y020075D01*
X037506Y019831D01*
X037433Y019559D01*
X037433Y019278D01*
X037506Y019005D01*
X037647Y018761D01*
X037846Y018562D01*
X038090Y018421D01*
X038362Y018349D01*
X038644Y018349D01*
X038916Y018421D01*
X039160Y018562D01*
X039001Y018471D02*
X039464Y018471D01*
X039109Y018312D02*
X038032Y018312D01*
X038005Y018471D02*
X037782Y018471D01*
X037779Y018629D02*
X036405Y018629D01*
X036405Y018574D02*
X036405Y018949D01*
X035946Y018949D01*
X035946Y018989D01*
X036405Y018989D01*
X036405Y019365D01*
X036332Y019541D01*
X036197Y019676D01*
X036021Y019749D01*
X035945Y019749D01*
X035945Y018990D01*
X035905Y018990D01*
X035905Y019749D01*
X035830Y019749D01*
X035653Y019676D01*
X035518Y019541D01*
X035445Y019365D01*
X035445Y018989D01*
X035905Y018989D01*
X035905Y018949D01*
X035445Y018949D01*
X035445Y018574D01*
X035518Y018397D01*
X035653Y018262D01*
X035830Y018189D01*
X035905Y018189D01*
X035905Y018949D01*
X035945Y018949D01*
X035945Y018189D01*
X036021Y018189D01*
X036197Y018262D01*
X036332Y018397D01*
X036405Y018574D01*
X036363Y018471D02*
X036901Y018471D01*
X036651Y018312D02*
X036247Y018312D01*
X036493Y018153D02*
X034311Y018153D01*
X034253Y018129D02*
X034451Y018211D01*
X034603Y018363D01*
X034685Y018562D01*
X034685Y019377D01*
X034603Y019575D01*
X034451Y019727D01*
X034253Y019809D01*
X034038Y019809D01*
X033839Y019727D01*
X033688Y019575D01*
X033605Y019377D01*
X033605Y018562D01*
X033688Y018363D01*
X033839Y018211D01*
X034038Y018129D01*
X034253Y018129D01*
X033980Y018153D02*
X033382Y018153D01*
X033395Y018312D02*
X033739Y018312D01*
X033643Y018471D02*
X033395Y018471D01*
X033395Y018629D02*
X033605Y018629D01*
X033605Y018788D02*
X033395Y018788D01*
X033395Y018946D02*
X033605Y018946D01*
X033605Y019105D02*
X033395Y019105D01*
X033395Y019263D02*
X033605Y019263D01*
X033624Y019422D02*
X033362Y019422D01*
X033296Y019580D02*
X033693Y019580D01*
X033868Y019739D02*
X033145Y019739D01*
X032279Y019739D02*
X032198Y019739D01*
X032043Y019897D02*
X037544Y019897D01*
X037481Y019739D02*
X036046Y019739D01*
X035945Y019739D02*
X035905Y019739D01*
X035805Y019739D02*
X034423Y019739D01*
X034598Y019580D02*
X035558Y019580D01*
X035469Y019422D02*
X034667Y019422D01*
X034685Y019263D02*
X035445Y019263D01*
X035445Y019105D02*
X034685Y019105D01*
X034685Y018946D02*
X035445Y018946D01*
X035445Y018788D02*
X034685Y018788D01*
X034685Y018629D02*
X035445Y018629D01*
X035488Y018471D02*
X034647Y018471D01*
X034552Y018312D02*
X035604Y018312D01*
X035905Y018312D02*
X035945Y018312D01*
X035945Y018471D02*
X035905Y018471D01*
X035905Y018629D02*
X035945Y018629D01*
X035945Y018788D02*
X035905Y018788D01*
X035905Y018946D02*
X035945Y018946D01*
X035945Y019105D02*
X035905Y019105D01*
X035905Y019263D02*
X035945Y019263D01*
X035945Y019422D02*
X035905Y019422D01*
X035905Y019580D02*
X035945Y019580D01*
X036293Y019580D02*
X037439Y019580D01*
X037433Y019422D02*
X036382Y019422D01*
X036405Y019263D02*
X037437Y019263D01*
X037479Y019105D02*
X036405Y019105D01*
X036405Y018946D02*
X037540Y018946D01*
X037632Y018788D02*
X036405Y018788D01*
X036398Y017995D02*
X033316Y017995D01*
X033194Y017836D02*
X036327Y017836D01*
X036285Y017678D02*
X032945Y017678D01*
X032479Y017678D02*
X032090Y017678D01*
X032217Y017836D02*
X032230Y017836D01*
X031931Y017519D02*
X036272Y017519D01*
X036272Y017361D02*
X031773Y017361D01*
X029675Y015934D02*
X028250Y015934D01*
X028250Y016092D02*
X028610Y016092D01*
X028451Y016251D02*
X028385Y016251D01*
X028385Y016232D02*
X028250Y016097D01*
X028250Y014954D01*
X028259Y014954D01*
X028306Y014961D01*
X028331Y014954D01*
X028358Y014954D01*
X028394Y014939D01*
X028585Y014939D01*
X028769Y014863D01*
X028909Y014722D01*
X028985Y014539D01*
X028985Y014340D01*
X028909Y014156D01*
X028769Y014015D01*
X028585Y013939D01*
X028386Y013939D01*
X028202Y014015D01*
X028061Y014156D01*
X028033Y014224D01*
X027958Y014224D01*
X027813Y014224D01*
X022243Y014224D01*
X022235Y014216D01*
X022073Y014149D01*
X021898Y014149D01*
X021736Y014216D01*
X021612Y014340D01*
X021545Y014502D01*
X021545Y014677D01*
X021612Y014839D01*
X021736Y014962D01*
X021898Y015029D01*
X022073Y015029D01*
X022235Y014962D01*
X022243Y014954D01*
X027520Y014954D01*
X027520Y016097D01*
X027385Y016232D01*
X027385Y016646D01*
X027678Y016939D01*
X028092Y016939D01*
X028385Y016646D01*
X028385Y016232D01*
X028385Y016409D02*
X028445Y016409D01*
X028445Y016568D02*
X028385Y016568D01*
X028305Y016727D02*
X028550Y016727D01*
X028723Y016885D02*
X028147Y016885D01*
X028406Y017202D02*
X026632Y017202D01*
X026685Y017361D02*
X028248Y017361D01*
X028089Y017519D02*
X026685Y017519D01*
X026685Y017678D02*
X027931Y017678D01*
X027772Y017836D02*
X026685Y017836D01*
X026685Y017995D02*
X027614Y017995D01*
X027455Y018153D02*
X026642Y018153D01*
X026550Y018312D02*
X027296Y018312D01*
X027138Y018471D02*
X026550Y018471D01*
X026550Y018629D02*
X027007Y018629D01*
X026970Y018788D02*
X026550Y018788D01*
X026550Y018946D02*
X026865Y018946D01*
X026719Y019105D02*
X026652Y019105D01*
X025820Y018946D02*
X025550Y018946D01*
X025550Y018788D02*
X025820Y018788D01*
X025820Y018629D02*
X025550Y018629D01*
X025550Y018471D02*
X025820Y018471D01*
X025820Y018312D02*
X025550Y018312D01*
X025642Y018153D02*
X025729Y018153D01*
X025685Y017995D02*
X025685Y017995D01*
X025685Y017836D02*
X025685Y017836D01*
X025685Y017678D02*
X025685Y017678D01*
X025685Y017519D02*
X025685Y017519D01*
X025685Y017361D02*
X025685Y017361D01*
X025632Y017202D02*
X025738Y017202D01*
X025864Y017044D02*
X025507Y017044D01*
X024864Y017044D02*
X024507Y017044D01*
X024632Y017202D02*
X024738Y017202D01*
X024685Y017361D02*
X024685Y017361D01*
X024685Y017519D02*
X024685Y017519D01*
X024685Y017678D02*
X024685Y017678D01*
X024685Y017836D02*
X024685Y017836D01*
X024685Y017995D02*
X024685Y017995D01*
X024642Y018153D02*
X024729Y018153D01*
X024820Y018312D02*
X024550Y018312D01*
X024550Y018471D02*
X024820Y018471D01*
X024820Y018629D02*
X024550Y018629D01*
X024550Y018788D02*
X024820Y018788D01*
X024820Y018946D02*
X024550Y018946D01*
X024652Y019105D02*
X024719Y019105D01*
X023820Y018946D02*
X023506Y018946D01*
X023652Y019105D02*
X023719Y019105D01*
X023820Y018788D02*
X006666Y018788D01*
X006725Y018946D02*
X006865Y018946D01*
X006539Y018629D02*
X023820Y018629D01*
X023820Y018471D02*
X006518Y018471D01*
X006657Y018312D02*
X006841Y018312D01*
X006729Y018153D02*
X006723Y018153D01*
X006685Y017678D02*
X006588Y017678D01*
X006685Y017519D02*
X006341Y017519D01*
X006685Y017361D02*
X005523Y017361D01*
X005364Y017202D02*
X006738Y017202D01*
X006864Y017044D02*
X005206Y017044D01*
X005150Y016885D02*
X013449Y016885D01*
X013445Y016727D02*
X005150Y016727D01*
X005150Y016568D02*
X013501Y016568D01*
X013653Y016409D02*
X005150Y016409D01*
X005150Y016251D02*
X013908Y016251D01*
X014066Y016092D02*
X005150Y016092D01*
X005150Y015934D02*
X014225Y015934D01*
X014383Y015775D02*
X005150Y015775D01*
X005193Y015617D02*
X014542Y015617D01*
X014700Y015458D02*
X005205Y015458D01*
X005205Y015300D02*
X014859Y015300D01*
X015017Y015141D02*
X005173Y015141D01*
X005014Y014983D02*
X015176Y014983D01*
X015334Y014824D02*
X004986Y014824D01*
X005144Y014665D02*
X015493Y014665D01*
X015651Y014507D02*
X011984Y014507D01*
X012142Y014348D02*
X015810Y014348D01*
X015969Y014190D02*
X012301Y014190D01*
X012459Y014031D02*
X016127Y014031D01*
X016286Y013873D02*
X012618Y013873D01*
X012777Y013714D02*
X016444Y013714D01*
X016603Y013556D02*
X012935Y013556D01*
X013411Y013080D02*
X016647Y013080D01*
X016501Y012921D02*
X013569Y012921D01*
X013728Y012763D02*
X016343Y012763D01*
X016184Y012604D02*
X013886Y012604D01*
X014045Y012446D02*
X014078Y012446D01*
X014293Y012446D02*
X015078Y012446D01*
X015293Y012446D02*
X016018Y012446D01*
X015816Y012287D02*
X015554Y012287D01*
X015652Y012129D02*
X015719Y012129D01*
X015685Y011970D02*
X015685Y011970D01*
X015685Y011812D02*
X015685Y011812D01*
X015685Y011653D02*
X015685Y011653D01*
X015685Y011495D02*
X015685Y011495D01*
X015685Y011336D02*
X015685Y011336D01*
X014685Y011336D02*
X014685Y011336D01*
X014685Y011495D02*
X014685Y011495D01*
X014685Y011653D02*
X014685Y011653D01*
X014685Y011812D02*
X014685Y011812D01*
X014685Y011970D02*
X014685Y011970D01*
X014652Y012129D02*
X014719Y012129D01*
X014816Y012287D02*
X014554Y012287D01*
X016842Y014348D02*
X021609Y014348D01*
X021545Y014507D02*
X016684Y014507D01*
X016525Y014665D02*
X021545Y014665D01*
X021606Y014824D02*
X016367Y014824D01*
X016208Y014983D02*
X021785Y014983D01*
X022186Y014983D02*
X027520Y014983D01*
X027520Y015141D02*
X016050Y015141D01*
X015891Y015300D02*
X027520Y015300D01*
X027520Y015458D02*
X024694Y015458D01*
X024476Y015458D02*
X015733Y015458D01*
X015574Y015617D02*
X022642Y015617D01*
X022483Y015775D02*
X015416Y015775D01*
X015257Y015934D02*
X022325Y015934D01*
X022166Y016092D02*
X015098Y016092D01*
X014940Y016251D02*
X022008Y016251D01*
X021849Y016409D02*
X014781Y016409D01*
X014623Y016568D02*
X021690Y016568D01*
X021532Y016727D02*
X014464Y016727D01*
X014322Y016885D02*
X021373Y016885D01*
X020864Y017044D02*
X020507Y017044D01*
X020632Y017202D02*
X020738Y017202D01*
X020685Y017361D02*
X020685Y017361D01*
X020685Y017519D02*
X020685Y017519D01*
X020685Y017678D02*
X020685Y017678D01*
X020685Y017836D02*
X020685Y017836D01*
X020685Y017995D02*
X020685Y017995D01*
X020642Y018153D02*
X020729Y018153D01*
X020841Y018312D02*
X020530Y018312D01*
X019841Y018312D02*
X019530Y018312D01*
X019642Y018153D02*
X019729Y018153D01*
X019685Y017995D02*
X019685Y017995D01*
X019685Y017836D02*
X019685Y017836D01*
X019685Y017678D02*
X019685Y017678D01*
X019685Y017519D02*
X019685Y017519D01*
X019685Y017361D02*
X019685Y017361D01*
X019632Y017202D02*
X019738Y017202D01*
X019864Y017044D02*
X019507Y017044D01*
X018864Y017044D02*
X018507Y017044D01*
X018632Y017202D02*
X018738Y017202D01*
X018685Y017361D02*
X018685Y017361D01*
X018685Y017519D02*
X018685Y017519D01*
X018685Y017678D02*
X018685Y017678D01*
X018685Y017836D02*
X018685Y017836D01*
X018685Y017995D02*
X018685Y017995D01*
X018642Y018153D02*
X018729Y018153D01*
X018841Y018312D02*
X018530Y018312D01*
X018506Y018946D02*
X018865Y018946D01*
X018719Y019105D02*
X018652Y019105D01*
X017865Y018946D02*
X017506Y018946D01*
X017652Y019105D02*
X017719Y019105D01*
X016865Y018946D02*
X016370Y018946D01*
X016205Y018946D02*
X016165Y018946D01*
X016165Y019105D02*
X016205Y019105D01*
X016205Y019263D02*
X016165Y019263D01*
X016165Y019422D02*
X016205Y019422D01*
X016205Y019580D02*
X016165Y019580D01*
X016165Y019710D02*
X016165Y020469D01*
X016165Y020669D01*
X016205Y020669D01*
X016205Y020469D01*
X016205Y019710D01*
X016165Y019710D01*
X016165Y019739D02*
X016205Y019739D01*
X016205Y019897D02*
X016165Y019897D01*
X016165Y020056D02*
X016205Y020056D01*
X016205Y020214D02*
X016165Y020214D01*
X016165Y020373D02*
X016205Y020373D01*
X016205Y020532D02*
X016165Y020532D01*
X016165Y020710D02*
X016165Y020909D01*
X016165Y021669D01*
X016205Y021669D01*
X016205Y020909D01*
X016205Y020710D01*
X016165Y020710D01*
X016165Y020849D02*
X016205Y020849D01*
X016205Y021007D02*
X016165Y021007D01*
X016165Y021166D02*
X016205Y021166D01*
X016205Y021324D02*
X016165Y021324D01*
X016165Y021483D02*
X016205Y021483D01*
X016205Y021641D02*
X016165Y021641D01*
X016165Y021710D02*
X016165Y022469D01*
X016090Y022469D01*
X015913Y022396D01*
X015778Y022261D01*
X015718Y022115D01*
X015643Y022295D01*
X015491Y022447D01*
X015293Y022529D01*
X015078Y022529D01*
X014879Y022447D01*
X014728Y022295D01*
X014685Y022193D01*
X014643Y022295D01*
X014491Y022447D01*
X014293Y022529D01*
X014078Y022529D01*
X013879Y022447D01*
X013728Y022295D01*
X013685Y022193D01*
X013643Y022295D01*
X013491Y022447D01*
X013293Y022529D01*
X013078Y022529D01*
X012879Y022447D01*
X012728Y022295D01*
X012685Y022193D01*
X012643Y022295D01*
X012491Y022447D01*
X012293Y022529D01*
X012078Y022529D01*
X011879Y022447D01*
X011728Y022295D01*
X011685Y022193D01*
X011643Y022295D01*
X011491Y022447D01*
X011293Y022529D01*
X011078Y022529D01*
X010879Y022447D01*
X010728Y022295D01*
X010685Y022193D01*
X010643Y022295D01*
X010491Y022447D01*
X010293Y022529D01*
X010078Y022529D01*
X009879Y022447D01*
X009728Y022295D01*
X009685Y022193D01*
X009643Y022295D01*
X009491Y022447D01*
X009293Y022529D01*
X009078Y022529D01*
X008879Y022447D01*
X008728Y022295D01*
X008685Y022193D01*
X008643Y022295D01*
X008491Y022447D01*
X008293Y022529D01*
X008078Y022529D01*
X007879Y022447D01*
X007728Y022295D01*
X007685Y022193D01*
X007643Y022295D01*
X007491Y022447D01*
X007363Y022500D01*
X008137Y023274D01*
X018054Y023274D01*
X017304Y022524D01*
X017293Y022529D01*
X017078Y022529D01*
X016879Y022447D01*
X016728Y022295D01*
X016653Y022115D01*
X016592Y022261D01*
X016457Y022396D01*
X016281Y022469D01*
X016205Y022469D01*
X016205Y021710D01*
X016165Y021710D01*
X016165Y021800D02*
X016205Y021800D01*
X016205Y021958D02*
X016165Y021958D01*
X016165Y022117D02*
X016205Y022117D01*
X016205Y022276D02*
X016165Y022276D01*
X016165Y022434D02*
X016205Y022434D01*
X016366Y022434D02*
X016866Y022434D01*
X016719Y022276D02*
X016578Y022276D01*
X016652Y022117D02*
X016654Y022117D01*
X016005Y022434D02*
X015504Y022434D01*
X015651Y022276D02*
X015793Y022276D01*
X015719Y022117D02*
X015717Y022117D01*
X014866Y022434D02*
X014504Y022434D01*
X014651Y022276D02*
X014719Y022276D01*
X013866Y022434D02*
X013504Y022434D01*
X013651Y022276D02*
X013719Y022276D01*
X012866Y022434D02*
X012504Y022434D01*
X012651Y022276D02*
X012719Y022276D01*
X011866Y022434D02*
X011504Y022434D01*
X011651Y022276D02*
X011719Y022276D01*
X010866Y022434D02*
X010504Y022434D01*
X010651Y022276D02*
X010719Y022276D01*
X009866Y022434D02*
X009504Y022434D01*
X009651Y022276D02*
X009719Y022276D01*
X008866Y022434D02*
X008504Y022434D01*
X008651Y022276D02*
X008719Y022276D01*
X007866Y022434D02*
X007504Y022434D01*
X007455Y022593D02*
X017373Y022593D01*
X017531Y022751D02*
X007613Y022751D01*
X007772Y022910D02*
X017690Y022910D01*
X017848Y023068D02*
X007930Y023068D01*
X008089Y023227D02*
X018007Y023227D01*
X017815Y025624D02*
X017556Y025624D01*
X017316Y025724D01*
X017132Y025907D01*
X017033Y026147D01*
X017033Y027232D01*
X017132Y027471D01*
X017316Y027655D01*
X017556Y027754D01*
X017815Y027754D01*
X018055Y027655D01*
X018239Y027471D01*
X018338Y027232D01*
X018338Y026147D01*
X018239Y025907D01*
X018055Y025724D01*
X017815Y025624D01*
X018095Y025764D02*
X019276Y025764D01*
X019316Y025724D02*
X019132Y025907D01*
X019033Y026147D01*
X019033Y027232D01*
X019132Y027471D01*
X019316Y027655D01*
X019556Y027754D01*
X019815Y027754D01*
X020055Y027655D01*
X020239Y027471D01*
X020338Y027232D01*
X020338Y026147D01*
X020239Y025907D01*
X020055Y025724D01*
X019815Y025624D01*
X019556Y025624D01*
X019316Y025724D01*
X019126Y025922D02*
X018245Y025922D01*
X018310Y026081D02*
X019060Y026081D01*
X019033Y026239D02*
X018338Y026239D01*
X018338Y026398D02*
X019033Y026398D01*
X019033Y026556D02*
X018338Y026556D01*
X018338Y026715D02*
X019033Y026715D01*
X019033Y026873D02*
X018338Y026873D01*
X018338Y027032D02*
X019033Y027032D01*
X019033Y027190D02*
X018338Y027190D01*
X018289Y027349D02*
X019081Y027349D01*
X019168Y027507D02*
X018202Y027507D01*
X018028Y027666D02*
X019342Y027666D01*
X020028Y027666D02*
X021842Y027666D01*
X021816Y027655D02*
X021632Y027471D01*
X021533Y027232D01*
X021533Y026147D01*
X021632Y025907D01*
X021816Y025724D01*
X022056Y025624D01*
X022315Y025624D01*
X022555Y025724D01*
X022739Y025907D01*
X022838Y026147D01*
X022838Y027232D01*
X022739Y027471D01*
X022555Y027655D01*
X022315Y027754D01*
X022056Y027754D01*
X021816Y027655D01*
X021668Y027507D02*
X020202Y027507D01*
X020289Y027349D02*
X021581Y027349D01*
X021533Y027190D02*
X020338Y027190D01*
X020338Y027032D02*
X021533Y027032D01*
X021533Y026873D02*
X020338Y026873D01*
X020338Y026715D02*
X021533Y026715D01*
X021533Y026556D02*
X020338Y026556D01*
X020338Y026398D02*
X021533Y026398D01*
X021533Y026239D02*
X020338Y026239D01*
X020310Y026081D02*
X021560Y026081D01*
X021626Y025922D02*
X020245Y025922D01*
X020095Y025764D02*
X021776Y025764D01*
X022595Y025764D02*
X023776Y025764D01*
X023816Y025724D02*
X024056Y025624D01*
X024315Y025624D01*
X024555Y025724D01*
X024739Y025907D01*
X024838Y026147D01*
X024838Y027232D01*
X024739Y027471D01*
X024555Y027655D01*
X024315Y027754D01*
X024056Y027754D01*
X023816Y027655D01*
X023632Y027471D01*
X023533Y027232D01*
X023533Y026147D01*
X023632Y025907D01*
X023816Y025724D01*
X023626Y025922D02*
X022745Y025922D01*
X022810Y026081D02*
X023560Y026081D01*
X023533Y026239D02*
X022838Y026239D01*
X022838Y026398D02*
X023533Y026398D01*
X023533Y026556D02*
X022838Y026556D01*
X022838Y026715D02*
X023533Y026715D01*
X023533Y026873D02*
X022838Y026873D01*
X022838Y027032D02*
X023533Y027032D01*
X023533Y027190D02*
X022838Y027190D01*
X022789Y027349D02*
X023581Y027349D01*
X023668Y027507D02*
X022702Y027507D01*
X022528Y027666D02*
X023842Y027666D01*
X024528Y027666D02*
X025842Y027666D01*
X025816Y027655D02*
X025632Y027471D01*
X025533Y027232D01*
X025533Y026147D01*
X025632Y025907D01*
X025816Y025724D01*
X026056Y025624D01*
X026315Y025624D01*
X026555Y025724D01*
X026739Y025907D01*
X026838Y026147D01*
X026838Y027232D01*
X026739Y027471D01*
X026555Y027655D01*
X026315Y027754D01*
X026056Y027754D01*
X025816Y027655D01*
X025668Y027507D02*
X024702Y027507D01*
X024789Y027349D02*
X025581Y027349D01*
X025533Y027190D02*
X024838Y027190D01*
X024838Y027032D02*
X025533Y027032D01*
X025533Y026873D02*
X024838Y026873D01*
X024838Y026715D02*
X025533Y026715D01*
X025533Y026556D02*
X024838Y026556D01*
X024838Y026398D02*
X025533Y026398D01*
X025533Y026239D02*
X024838Y026239D01*
X024810Y026081D02*
X025560Y026081D01*
X025626Y025922D02*
X024745Y025922D01*
X024595Y025764D02*
X025776Y025764D01*
X026595Y025764D02*
X027776Y025764D01*
X027816Y025724D02*
X028056Y025624D01*
X028315Y025624D01*
X028555Y025724D01*
X028739Y025907D01*
X028838Y026147D01*
X028838Y027232D01*
X028739Y027471D01*
X028555Y027655D01*
X028315Y027754D01*
X028056Y027754D01*
X027816Y027655D01*
X027632Y027471D01*
X027533Y027232D01*
X027533Y026147D01*
X027632Y025907D01*
X027816Y025724D01*
X027626Y025922D02*
X026745Y025922D01*
X026810Y026081D02*
X027560Y026081D01*
X027533Y026239D02*
X026838Y026239D01*
X026838Y026398D02*
X027533Y026398D01*
X027533Y026556D02*
X026838Y026556D01*
X026838Y026715D02*
X027533Y026715D01*
X027533Y026873D02*
X026838Y026873D01*
X026838Y027032D02*
X027533Y027032D01*
X027533Y027190D02*
X026838Y027190D01*
X026789Y027349D02*
X027581Y027349D01*
X027668Y027507D02*
X026702Y027507D01*
X026528Y027666D02*
X027842Y027666D01*
X028528Y027666D02*
X029842Y027666D01*
X029816Y027655D02*
X029632Y027471D01*
X029533Y027232D01*
X029533Y026147D01*
X029632Y025907D01*
X029816Y025724D01*
X030056Y025624D01*
X030315Y025624D01*
X030555Y025724D01*
X030739Y025907D01*
X030838Y026147D01*
X030838Y027232D01*
X030739Y027471D01*
X030555Y027655D01*
X030315Y027754D01*
X030056Y027754D01*
X029816Y027655D01*
X029668Y027507D02*
X028702Y027507D01*
X028789Y027349D02*
X029581Y027349D01*
X029533Y027190D02*
X028838Y027190D01*
X028838Y027032D02*
X029533Y027032D01*
X029533Y026873D02*
X028838Y026873D01*
X028838Y026715D02*
X029533Y026715D01*
X029533Y026556D02*
X028838Y026556D01*
X028838Y026398D02*
X029533Y026398D01*
X029533Y026239D02*
X028838Y026239D01*
X028810Y026081D02*
X029560Y026081D01*
X029626Y025922D02*
X028745Y025922D01*
X028595Y025764D02*
X029776Y025764D01*
X030595Y025764D02*
X031776Y025764D01*
X031816Y025724D02*
X032056Y025624D01*
X032315Y025624D01*
X032555Y025724D01*
X032739Y025907D01*
X032838Y026147D01*
X032838Y027232D01*
X032739Y027471D01*
X032555Y027655D01*
X032315Y027754D01*
X032056Y027754D01*
X031816Y027655D01*
X031632Y027471D01*
X031533Y027232D01*
X031533Y026147D01*
X031632Y025907D01*
X031816Y025724D01*
X031626Y025922D02*
X030745Y025922D01*
X030810Y026081D02*
X031560Y026081D01*
X031533Y026239D02*
X030838Y026239D01*
X030838Y026398D02*
X031533Y026398D01*
X031533Y026556D02*
X030838Y026556D01*
X030838Y026715D02*
X031533Y026715D01*
X031533Y026873D02*
X030838Y026873D01*
X030838Y027032D02*
X031533Y027032D01*
X031533Y027190D02*
X030838Y027190D01*
X030789Y027349D02*
X031581Y027349D01*
X031668Y027507D02*
X030702Y027507D01*
X030528Y027666D02*
X031842Y027666D01*
X032528Y027666D02*
X033842Y027666D01*
X033816Y027655D02*
X033632Y027471D01*
X033533Y027232D01*
X033533Y026147D01*
X033632Y025907D01*
X033816Y025724D01*
X034056Y025624D01*
X034315Y025624D01*
X034555Y025724D01*
X034739Y025907D01*
X034838Y026147D01*
X034838Y027232D01*
X034739Y027471D01*
X034555Y027655D01*
X034315Y027754D01*
X034056Y027754D01*
X033816Y027655D01*
X033668Y027507D02*
X032702Y027507D01*
X032789Y027349D02*
X033581Y027349D01*
X033533Y027190D02*
X032838Y027190D01*
X032838Y027032D02*
X033533Y027032D01*
X033533Y026873D02*
X032838Y026873D01*
X032838Y026715D02*
X033533Y026715D01*
X033533Y026556D02*
X032838Y026556D01*
X032838Y026398D02*
X033533Y026398D01*
X033533Y026239D02*
X032838Y026239D01*
X032810Y026081D02*
X033560Y026081D01*
X033626Y025922D02*
X032745Y025922D01*
X032595Y025764D02*
X033776Y025764D01*
X034595Y025764D02*
X035670Y025764D01*
X035670Y025605D02*
X003445Y025605D01*
X003583Y025764D02*
X005276Y025764D01*
X005316Y025724D02*
X005556Y025624D01*
X005815Y025624D01*
X006055Y025724D01*
X006239Y025907D01*
X006338Y026147D01*
X006338Y027232D01*
X006239Y027471D01*
X006055Y027655D01*
X005815Y027754D01*
X005556Y027754D01*
X005316Y027655D01*
X005132Y027471D01*
X005033Y027232D01*
X005033Y026147D01*
X005132Y025907D01*
X005316Y025724D01*
X005126Y025922D02*
X003660Y025922D01*
X003736Y026081D02*
X005060Y026081D01*
X005033Y026239D02*
X003797Y026239D01*
X003821Y026398D02*
X005033Y026398D01*
X005033Y026556D02*
X003845Y026556D01*
X003861Y026715D02*
X005033Y026715D01*
X005033Y026873D02*
X003838Y026873D01*
X003814Y027032D02*
X005033Y027032D01*
X005033Y027190D02*
X003788Y027190D01*
X003711Y027349D02*
X005081Y027349D01*
X005168Y027507D02*
X003635Y027507D01*
X003545Y027666D02*
X005342Y027666D01*
X006028Y027666D02*
X007342Y027666D01*
X007316Y027655D02*
X007132Y027471D01*
X007033Y027232D01*
X007033Y026147D01*
X007132Y025907D01*
X007316Y025724D01*
X007556Y025624D01*
X007815Y025624D01*
X008055Y025724D01*
X008239Y025907D01*
X008338Y026147D01*
X008338Y027232D01*
X008239Y027471D01*
X008055Y027655D01*
X007815Y027754D01*
X007556Y027754D01*
X007316Y027655D01*
X007168Y027507D02*
X006202Y027507D01*
X006289Y027349D02*
X007081Y027349D01*
X007033Y027190D02*
X006338Y027190D01*
X006338Y027032D02*
X007033Y027032D01*
X007033Y026873D02*
X006338Y026873D01*
X006338Y026715D02*
X007033Y026715D01*
X007033Y026556D02*
X006338Y026556D01*
X006338Y026398D02*
X007033Y026398D01*
X007033Y026239D02*
X006338Y026239D01*
X006310Y026081D02*
X007060Y026081D01*
X007126Y025922D02*
X006245Y025922D01*
X006095Y025764D02*
X007276Y025764D01*
X008095Y025764D02*
X009276Y025764D01*
X009316Y025724D02*
X009556Y025624D01*
X009815Y025624D01*
X010055Y025724D01*
X010239Y025907D01*
X010338Y026147D01*
X010338Y027232D01*
X010239Y027471D01*
X010055Y027655D01*
X009815Y027754D01*
X009556Y027754D01*
X009316Y027655D01*
X009132Y027471D01*
X009033Y027232D01*
X009033Y026147D01*
X009132Y025907D01*
X009316Y025724D01*
X009126Y025922D02*
X008245Y025922D01*
X008310Y026081D02*
X009060Y026081D01*
X009033Y026239D02*
X008338Y026239D01*
X008338Y026398D02*
X009033Y026398D01*
X009033Y026556D02*
X008338Y026556D01*
X008338Y026715D02*
X009033Y026715D01*
X009033Y026873D02*
X008338Y026873D01*
X008338Y027032D02*
X009033Y027032D01*
X009033Y027190D02*
X008338Y027190D01*
X008289Y027349D02*
X009081Y027349D01*
X009168Y027507D02*
X008202Y027507D01*
X008028Y027666D02*
X009342Y027666D01*
X010028Y027666D02*
X011342Y027666D01*
X011316Y027655D02*
X011132Y027471D01*
X011033Y027232D01*
X011033Y026147D01*
X011132Y025907D01*
X011316Y025724D01*
X011556Y025624D01*
X011815Y025624D01*
X012055Y025724D01*
X012239Y025907D01*
X012338Y026147D01*
X012338Y027232D01*
X012239Y027471D01*
X012055Y027655D01*
X011815Y027754D01*
X011556Y027754D01*
X011316Y027655D01*
X011168Y027507D02*
X010202Y027507D01*
X010289Y027349D02*
X011081Y027349D01*
X011033Y027190D02*
X010338Y027190D01*
X010338Y027032D02*
X011033Y027032D01*
X011033Y026873D02*
X010338Y026873D01*
X010338Y026715D02*
X011033Y026715D01*
X011033Y026556D02*
X010338Y026556D01*
X010338Y026398D02*
X011033Y026398D01*
X011033Y026239D02*
X010338Y026239D01*
X010310Y026081D02*
X011060Y026081D01*
X011126Y025922D02*
X010245Y025922D01*
X010095Y025764D02*
X011276Y025764D01*
X012095Y025764D02*
X013276Y025764D01*
X013316Y025724D02*
X013132Y025907D01*
X013033Y026147D01*
X013033Y027232D01*
X013132Y027471D01*
X013316Y027655D01*
X013556Y027754D01*
X013815Y027754D01*
X014055Y027655D01*
X014239Y027471D01*
X014338Y027232D01*
X014338Y026147D01*
X014239Y025907D01*
X014055Y025724D01*
X013815Y025624D01*
X013556Y025624D01*
X013316Y025724D01*
X013126Y025922D02*
X012245Y025922D01*
X012310Y026081D02*
X013060Y026081D01*
X013033Y026239D02*
X012338Y026239D01*
X012338Y026398D02*
X013033Y026398D01*
X013033Y026556D02*
X012338Y026556D01*
X012338Y026715D02*
X013033Y026715D01*
X013033Y026873D02*
X012338Y026873D01*
X012338Y027032D02*
X013033Y027032D01*
X013033Y027190D02*
X012338Y027190D01*
X012289Y027349D02*
X013081Y027349D01*
X013168Y027507D02*
X012202Y027507D01*
X012028Y027666D02*
X013342Y027666D01*
X014028Y027666D02*
X015342Y027666D01*
X015316Y027655D02*
X015132Y027471D01*
X015033Y027232D01*
X015033Y026147D01*
X015132Y025907D01*
X015316Y025724D01*
X015556Y025624D01*
X015815Y025624D01*
X016055Y025724D01*
X016239Y025907D01*
X016338Y026147D01*
X016338Y027232D01*
X016239Y027471D01*
X016055Y027655D01*
X015815Y027754D01*
X015556Y027754D01*
X015316Y027655D01*
X015168Y027507D02*
X014202Y027507D01*
X014289Y027349D02*
X015081Y027349D01*
X015033Y027190D02*
X014338Y027190D01*
X014338Y027032D02*
X015033Y027032D01*
X015033Y026873D02*
X014338Y026873D01*
X014338Y026715D02*
X015033Y026715D01*
X015033Y026556D02*
X014338Y026556D01*
X014338Y026398D02*
X015033Y026398D01*
X015033Y026239D02*
X014338Y026239D01*
X014310Y026081D02*
X015060Y026081D01*
X015126Y025922D02*
X014245Y025922D01*
X014095Y025764D02*
X015276Y025764D01*
X016095Y025764D02*
X017276Y025764D01*
X017126Y025922D02*
X016245Y025922D01*
X016310Y026081D02*
X017060Y026081D01*
X017033Y026239D02*
X016338Y026239D01*
X016338Y026398D02*
X017033Y026398D01*
X017033Y026556D02*
X016338Y026556D01*
X016338Y026715D02*
X017033Y026715D01*
X017033Y026873D02*
X016338Y026873D01*
X016338Y027032D02*
X017033Y027032D01*
X017033Y027190D02*
X016338Y027190D01*
X016289Y027349D02*
X017081Y027349D01*
X017168Y027507D02*
X016202Y027507D01*
X016028Y027666D02*
X017342Y027666D01*
X007719Y022276D02*
X007651Y022276D01*
X006898Y023068D02*
X002804Y023068D01*
X002728Y023037D02*
X002967Y023136D01*
X003151Y023320D01*
X003250Y023559D01*
X003250Y023819D01*
X003151Y024059D01*
X002967Y024242D01*
X002728Y024342D01*
X001643Y024342D01*
X001403Y024242D01*
X001220Y024059D01*
X001120Y023819D01*
X001120Y023559D01*
X001220Y023320D01*
X001403Y023136D01*
X001643Y023037D01*
X002728Y023037D01*
X003058Y023227D02*
X007057Y023227D01*
X007215Y023385D02*
X003178Y023385D01*
X003244Y023544D02*
X007374Y023544D01*
X007532Y023702D02*
X003250Y023702D01*
X003233Y023861D02*
X007691Y023861D01*
X006740Y022910D02*
X000780Y022910D01*
X000780Y023068D02*
X001567Y023068D01*
X001312Y023227D02*
X000780Y023227D01*
X000780Y023385D02*
X001192Y023385D01*
X001127Y023544D02*
X000780Y023544D01*
X000780Y023702D02*
X001120Y023702D01*
X001138Y023861D02*
X000780Y023861D01*
X000780Y024020D02*
X001203Y024020D01*
X001339Y024178D02*
X000780Y024178D01*
X000780Y024337D02*
X001631Y024337D01*
X000780Y024495D02*
X035025Y024495D01*
X034866Y024337D02*
X002740Y024337D01*
X003032Y024178D02*
X034708Y024178D01*
X034549Y024020D02*
X003167Y024020D01*
X002806Y025129D02*
X035659Y025129D01*
X035670Y025288D02*
X003080Y025288D01*
X003298Y025446D02*
X035670Y025446D01*
X035626Y025922D02*
X034745Y025922D01*
X034810Y026081D02*
X035560Y026081D01*
X035533Y026239D02*
X034838Y026239D01*
X034838Y026398D02*
X035533Y026398D01*
X035533Y026556D02*
X034838Y026556D01*
X034838Y026715D02*
X035533Y026715D01*
X035533Y026873D02*
X034838Y026873D01*
X034838Y027032D02*
X035533Y027032D01*
X035533Y027190D02*
X034838Y027190D01*
X034789Y027349D02*
X035581Y027349D01*
X035668Y027507D02*
X034702Y027507D01*
X034528Y027666D02*
X035842Y027666D01*
X036528Y027666D02*
X037841Y027666D01*
X037949Y027825D02*
X003398Y027825D01*
X003251Y027983D02*
X038143Y027983D01*
X037954Y027832D02*
X037954Y027832D01*
X037733Y027507D02*
X036702Y027507D01*
X036789Y027349D02*
X037650Y027349D01*
X037601Y027190D02*
X036838Y027190D01*
X036838Y027032D02*
X037553Y027032D01*
X037524Y026873D02*
X036838Y026873D01*
X036838Y026715D02*
X037524Y026715D01*
X037524Y026556D02*
X036838Y026556D01*
X036838Y026398D02*
X037537Y026398D01*
X037586Y026239D02*
X036838Y026239D01*
X036810Y026081D02*
X037635Y026081D01*
X037698Y025922D02*
X036745Y025922D01*
X036595Y025764D02*
X037806Y025764D01*
X037914Y025605D02*
X036400Y025605D01*
X036400Y025446D02*
X038079Y025446D01*
X038278Y025288D02*
X036400Y025288D01*
X036400Y025129D02*
X038613Y025129D01*
X039806Y025129D02*
X040290Y025129D01*
X040290Y024971D02*
X036400Y024971D01*
X036357Y024812D02*
X040290Y024812D01*
X040290Y024654D02*
X036216Y024654D01*
X036057Y024495D02*
X040290Y024495D01*
X040290Y024337D02*
X039740Y024337D01*
X039728Y024342D02*
X038643Y024342D01*
X038403Y024242D01*
X038220Y024059D01*
X038120Y023819D01*
X038120Y023559D01*
X038220Y023320D01*
X038403Y023136D01*
X038643Y023037D01*
X039728Y023037D01*
X039967Y023136D01*
X040151Y023320D01*
X040250Y023559D01*
X040250Y023819D01*
X040151Y024059D01*
X039967Y024242D01*
X039728Y024342D01*
X040032Y024178D02*
X040290Y024178D01*
X040290Y024020D02*
X040167Y024020D01*
X040233Y023861D02*
X040290Y023861D01*
X040290Y023702D02*
X040250Y023702D01*
X040244Y023544D02*
X040290Y023544D01*
X040290Y023385D02*
X040178Y023385D01*
X040290Y023227D02*
X040058Y023227D01*
X040290Y023068D02*
X039804Y023068D01*
X040290Y022910D02*
X034472Y022910D01*
X034631Y023068D02*
X038567Y023068D01*
X038312Y023227D02*
X034789Y023227D01*
X034948Y023385D02*
X038192Y023385D01*
X038127Y023544D02*
X035106Y023544D01*
X035265Y023702D02*
X038120Y023702D01*
X038138Y023861D02*
X035423Y023861D01*
X035582Y024020D02*
X038203Y024020D01*
X038339Y024178D02*
X035740Y024178D01*
X035899Y024337D02*
X038631Y024337D01*
X040080Y025288D02*
X040290Y025288D01*
X040290Y022751D02*
X034313Y022751D01*
X034155Y022593D02*
X040290Y022593D01*
X040290Y022434D02*
X033996Y022434D01*
X033838Y022276D02*
X038640Y022276D01*
X038655Y022282D02*
X038437Y022192D01*
X038271Y022025D01*
X038180Y021807D01*
X038180Y021747D01*
X039128Y021747D01*
X039128Y022282D01*
X038655Y022282D01*
X038363Y022117D02*
X033679Y022117D01*
X033521Y021958D02*
X038243Y021958D01*
X038180Y021800D02*
X033362Y021800D01*
X033204Y021641D02*
X039128Y021641D01*
X039128Y021632D02*
X038180Y021632D01*
X038180Y021571D01*
X038271Y021354D01*
X038437Y021187D01*
X038655Y021097D01*
X039128Y021097D01*
X039128Y021632D01*
X039128Y021747D01*
X039243Y021747D01*
X039243Y022282D01*
X039716Y022282D01*
X039934Y022192D01*
X040100Y022025D01*
X040190Y021807D01*
X040190Y021747D01*
X039243Y021747D01*
X039243Y021632D01*
X040190Y021632D01*
X040190Y021571D01*
X040100Y021354D01*
X039934Y021187D01*
X039716Y021097D01*
X039243Y021097D01*
X039243Y021632D01*
X039128Y021632D01*
X039243Y021641D02*
X040290Y021641D01*
X040290Y021483D02*
X040154Y021483D01*
X040071Y021324D02*
X040290Y021324D01*
X040290Y021166D02*
X039882Y021166D01*
X040290Y021007D02*
X032569Y021007D01*
X032411Y020849D02*
X040290Y020849D01*
X040290Y020690D02*
X032329Y020690D01*
X032200Y020532D02*
X040290Y020532D01*
X040290Y020373D02*
X038989Y020373D01*
X039220Y020214D02*
X040290Y020214D01*
X040290Y020056D02*
X039370Y020056D01*
X039462Y019897D02*
X040290Y019897D01*
X040290Y019739D02*
X039525Y019739D01*
X039567Y019580D02*
X040290Y019580D01*
X040290Y019422D02*
X039573Y019422D01*
X039569Y019263D02*
X040290Y019263D01*
X040290Y019105D02*
X039527Y019105D01*
X039466Y018946D02*
X040290Y018946D01*
X040290Y018788D02*
X039374Y018788D01*
X038940Y018153D02*
X038191Y018153D01*
X038285Y017995D02*
X038830Y017995D01*
X038751Y017836D02*
X038356Y017836D01*
X038399Y017678D02*
X038709Y017678D01*
X035945Y015775D02*
X035905Y015775D01*
X036185Y013873D02*
X036186Y013873D01*
X036185Y013714D02*
X036186Y013714D01*
X036185Y013556D02*
X036186Y013556D01*
X036610Y013714D02*
X037195Y013714D01*
X037214Y013873D02*
X036930Y013873D01*
X037150Y014031D02*
X037305Y014031D01*
X037235Y013556D02*
X036680Y013556D01*
X036680Y013397D02*
X037270Y013397D01*
X037270Y013239D02*
X036680Y013239D01*
X036641Y013873D02*
X036452Y013873D01*
X038185Y014031D02*
X038186Y014031D01*
X038185Y014190D02*
X038186Y014190D01*
X038185Y014348D02*
X038186Y014348D01*
X039100Y013080D02*
X039218Y013080D01*
X039199Y012921D02*
X039100Y012921D01*
X039100Y012763D02*
X039199Y012763D01*
X039199Y012604D02*
X039100Y012604D01*
X039100Y012446D02*
X039199Y012446D01*
X039222Y012287D02*
X039100Y012287D01*
X039100Y012129D02*
X039550Y012129D01*
X039342Y011970D02*
X039100Y011970D01*
X039229Y011812D02*
X039270Y011812D01*
X038473Y009909D02*
X040290Y009909D01*
X040290Y009751D02*
X038631Y009751D01*
X038685Y009592D02*
X040290Y009592D01*
X040290Y009434D02*
X038685Y009434D01*
X038678Y009275D02*
X040290Y009275D01*
X040290Y009116D02*
X038520Y009116D01*
X037851Y009116D02*
X026717Y009116D01*
X026725Y008958D02*
X040290Y008958D01*
X040290Y008799D02*
X026725Y008799D01*
X026725Y008641D02*
X040290Y008641D01*
X040290Y008482D02*
X026725Y008482D01*
X026725Y008324D02*
X040290Y008324D01*
X040290Y008165D02*
X026697Y008165D01*
X026725Y008007D02*
X040290Y008007D01*
X040290Y007848D02*
X026725Y007848D01*
X026725Y007690D02*
X038350Y007690D01*
X038403Y007742D02*
X038220Y007559D01*
X038120Y007319D01*
X038120Y007059D01*
X038220Y006820D01*
X038403Y006636D01*
X038643Y006537D01*
X039728Y006537D01*
X039967Y006636D01*
X040151Y006820D01*
X040250Y007059D01*
X040250Y007319D01*
X040151Y007559D01*
X039967Y007742D01*
X039728Y007842D01*
X038643Y007842D01*
X038403Y007742D01*
X038208Y007531D02*
X030760Y007531D01*
X030918Y007372D02*
X038142Y007372D01*
X038120Y007214D02*
X031077Y007214D01*
X031235Y007055D02*
X038122Y007055D01*
X038188Y006897D02*
X031394Y006897D01*
X031552Y006738D02*
X038301Y006738D01*
X038539Y006580D02*
X031711Y006580D01*
X031870Y006421D02*
X040290Y006421D01*
X040290Y006263D02*
X032028Y006263D01*
X032187Y006104D02*
X040290Y006104D01*
X040290Y005946D02*
X032345Y005946D01*
X032504Y005787D02*
X040290Y005787D01*
X040290Y005629D02*
X039997Y005629D01*
X039934Y005692D02*
X039716Y005782D01*
X039243Y005782D01*
X039243Y005247D01*
X039128Y005247D01*
X039128Y005782D01*
X038655Y005782D01*
X038437Y005692D01*
X038271Y005525D01*
X038180Y005307D01*
X038180Y005247D01*
X039128Y005247D01*
X039128Y005132D01*
X038180Y005132D01*
X038180Y005071D01*
X038271Y004854D01*
X038437Y004687D01*
X038655Y004597D01*
X039128Y004597D01*
X039128Y005132D01*
X039243Y005132D01*
X039243Y005247D01*
X040190Y005247D01*
X040190Y005307D01*
X040100Y005525D01*
X039934Y005692D01*
X040123Y005470D02*
X040290Y005470D01*
X040290Y005311D02*
X040189Y005311D01*
X040190Y005132D02*
X039243Y005132D01*
X039243Y004597D01*
X039716Y004597D01*
X039934Y004687D01*
X040100Y004854D01*
X040190Y005071D01*
X040190Y005132D01*
X040290Y005153D02*
X039243Y005153D01*
X039128Y005153D02*
X033138Y005153D01*
X032979Y005311D02*
X038182Y005311D01*
X038248Y005470D02*
X032821Y005470D01*
X032662Y005629D02*
X038374Y005629D01*
X038212Y004994D02*
X033296Y004994D01*
X033455Y004836D02*
X038288Y004836D01*
X038461Y004677D02*
X033614Y004677D01*
X033772Y004519D02*
X040290Y004519D01*
X040290Y004677D02*
X039910Y004677D01*
X040082Y004836D02*
X040290Y004836D01*
X040290Y004994D02*
X040158Y004994D01*
X040290Y004360D02*
X033931Y004360D01*
X034089Y004202D02*
X040290Y004202D01*
X040290Y004043D02*
X034248Y004043D01*
X034406Y003885D02*
X040290Y003885D01*
X040290Y003726D02*
X039846Y003726D01*
X040121Y003567D02*
X040290Y003567D01*
X039243Y004677D02*
X039128Y004677D01*
X039128Y004836D02*
X039243Y004836D01*
X039243Y004994D02*
X039128Y004994D01*
X039128Y005311D02*
X039243Y005311D01*
X039243Y005470D02*
X039128Y005470D01*
X039128Y005629D02*
X039243Y005629D01*
X039831Y006580D02*
X040290Y006580D01*
X040290Y006738D02*
X040070Y006738D01*
X040183Y006897D02*
X040290Y006897D01*
X040290Y007055D02*
X040249Y007055D01*
X040250Y007214D02*
X040290Y007214D01*
X040290Y007372D02*
X040228Y007372D01*
X040290Y007531D02*
X040163Y007531D01*
X040290Y007690D02*
X040020Y007690D01*
X038554Y003726D02*
X034565Y003726D01*
X034723Y003567D02*
X038249Y003567D01*
X038050Y003409D02*
X034882Y003409D01*
X035040Y003250D02*
X036046Y003250D01*
X036325Y003250D02*
X037898Y003250D01*
X037790Y003092D02*
X036618Y003092D01*
X036754Y002933D02*
X037682Y002933D01*
X037628Y002775D02*
X036820Y002775D01*
X036838Y002616D02*
X037579Y002616D01*
X037530Y002458D02*
X036838Y002458D01*
X036838Y002299D02*
X037524Y002299D01*
X037524Y002141D02*
X036838Y002141D01*
X036838Y001982D02*
X037524Y001982D01*
X037560Y001823D02*
X036838Y001823D01*
X036838Y001665D02*
X037609Y001665D01*
X037658Y001506D02*
X036780Y001506D01*
X036679Y001348D02*
X037748Y001348D01*
X037856Y001189D02*
X036472Y001189D01*
X035898Y001189D02*
X034472Y001189D01*
X034679Y001348D02*
X035691Y001348D01*
X035591Y001506D02*
X034780Y001506D01*
X034838Y001665D02*
X035533Y001665D01*
X035533Y001823D02*
X034838Y001823D01*
X034838Y001982D02*
X035533Y001982D01*
X035533Y002141D02*
X034838Y002141D01*
X034838Y002299D02*
X035533Y002299D01*
X025117Y005787D02*
X000780Y005787D01*
X000780Y005629D02*
X001374Y005629D01*
X001248Y005470D02*
X000780Y005470D01*
X000780Y006580D02*
X001539Y006580D01*
X001301Y006738D02*
X000780Y006738D01*
X000780Y006897D02*
X001188Y006897D01*
X001122Y007055D02*
X000780Y007055D01*
X000780Y007214D02*
X001120Y007214D01*
X001142Y007372D02*
X000780Y007372D01*
X000780Y007531D02*
X001208Y007531D01*
X001350Y007690D02*
X000780Y007690D01*
X000780Y007848D02*
X006645Y007848D01*
X006645Y007690D02*
X003020Y007690D01*
X003163Y007531D02*
X006645Y007531D01*
X006645Y008007D02*
X000780Y008007D01*
X000780Y008165D02*
X006674Y008165D01*
X006645Y008324D02*
X000780Y008324D01*
X000780Y008482D02*
X006645Y008482D01*
X006645Y008641D02*
X000780Y008641D01*
X000780Y008799D02*
X006645Y008799D01*
X006645Y008958D02*
X001861Y008958D01*
X001792Y008889D02*
X002085Y009182D01*
X002085Y009596D01*
X001792Y009889D01*
X001378Y009889D01*
X001085Y009596D01*
X001085Y009182D01*
X001378Y008889D01*
X001792Y008889D01*
X002020Y009116D02*
X006654Y009116D01*
X006648Y009275D02*
X006528Y009275D01*
X006623Y009909D02*
X006645Y009909D01*
X006645Y010068D02*
X006464Y010068D01*
X006699Y010226D02*
X000780Y010226D01*
X000780Y010068D02*
X002392Y010068D01*
X002403Y010079D02*
X002145Y009821D01*
X002145Y009639D01*
X002145Y009457D01*
X002403Y009199D01*
X002585Y009199D01*
X002585Y009639D01*
X002145Y009639D01*
X002585Y009639D01*
X002585Y009639D01*
X002586Y009639D01*
X002586Y009639D01*
X003025Y009639D01*
X003025Y009457D01*
X002768Y009199D01*
X002586Y009199D01*
X002586Y009639D01*
X003025Y009639D01*
X003025Y009821D01*
X002768Y010079D01*
X002586Y010079D01*
X002586Y009640D01*
X002585Y009640D01*
X002585Y010079D01*
X002403Y010079D01*
X002585Y010068D02*
X002586Y010068D01*
X002585Y009909D02*
X002586Y009909D01*
X002585Y009751D02*
X002586Y009751D01*
X002585Y009592D02*
X002586Y009592D01*
X002585Y009434D02*
X002586Y009434D01*
X002585Y009275D02*
X002586Y009275D01*
X002843Y009275D02*
X003243Y009275D01*
X003378Y009139D02*
X003085Y009432D01*
X003085Y009846D01*
X003378Y010139D01*
X003792Y010139D01*
X004085Y009846D01*
X004085Y009432D01*
X003792Y009139D01*
X003378Y009139D01*
X003085Y009434D02*
X003002Y009434D01*
X003025Y009592D02*
X003085Y009592D01*
X003085Y009751D02*
X003025Y009751D01*
X002938Y009909D02*
X003148Y009909D01*
X003307Y010068D02*
X002779Y010068D01*
X002533Y010385D02*
X000780Y010385D01*
X000780Y010543D02*
X002374Y010543D01*
X002335Y010702D02*
X000780Y010702D01*
X000780Y010860D02*
X002335Y010860D01*
X002358Y011019D02*
X001837Y011019D01*
X001768Y010949D02*
X002025Y011207D01*
X002025Y011389D01*
X001586Y011389D01*
X001586Y011389D01*
X002025Y011389D01*
X002025Y011571D01*
X001768Y011829D01*
X001586Y011829D01*
X001586Y011390D01*
X001585Y011390D01*
X001585Y011829D01*
X001403Y011829D01*
X001145Y011571D01*
X001145Y011389D01*
X001145Y011207D01*
X001403Y010949D01*
X001585Y010949D01*
X001585Y011389D01*
X001145Y011389D01*
X001585Y011389D01*
X001585Y011389D01*
X001586Y011389D01*
X001586Y010949D01*
X001768Y010949D01*
X001586Y011019D02*
X001585Y011019D01*
X001585Y011178D02*
X001586Y011178D01*
X001585Y011336D02*
X001586Y011336D01*
X001585Y011495D02*
X001586Y011495D01*
X001585Y011653D02*
X001586Y011653D01*
X001585Y011812D02*
X001586Y011812D01*
X001785Y011812D02*
X003347Y011812D01*
X003188Y011970D02*
X000780Y011970D01*
X000780Y011812D02*
X001386Y011812D01*
X001227Y011653D02*
X000780Y011653D01*
X000780Y011495D02*
X001145Y011495D01*
X001145Y011336D02*
X000780Y011336D01*
X000780Y011178D02*
X001175Y011178D01*
X001333Y011019D02*
X000780Y011019D01*
X001996Y011178D02*
X002516Y011178D01*
X002025Y011336D02*
X003822Y011336D01*
X003664Y011495D02*
X002025Y011495D01*
X001944Y011653D02*
X003505Y011653D01*
X003516Y011178D02*
X003154Y011178D01*
X003313Y011019D02*
X003358Y011019D01*
X003335Y010860D02*
X003335Y010860D01*
X003335Y010702D02*
X003335Y010702D01*
X003296Y010543D02*
X003374Y010543D01*
X003533Y010385D02*
X003138Y010385D01*
X003864Y010068D02*
X004992Y010068D01*
X005003Y010079D02*
X004745Y009821D01*
X004745Y009639D01*
X004745Y009457D01*
X005003Y009199D01*
X005185Y009199D01*
X005185Y009639D01*
X004745Y009639D01*
X005185Y009639D01*
X005185Y009639D01*
X005186Y009639D01*
X005186Y009639D01*
X005625Y009639D01*
X005625Y009457D01*
X005368Y009199D01*
X005186Y009199D01*
X005186Y009639D01*
X005625Y009639D01*
X005625Y009821D01*
X005368Y010079D01*
X005186Y010079D01*
X005186Y009640D01*
X005185Y009640D01*
X005185Y010079D01*
X005003Y010079D01*
X005185Y010068D02*
X005186Y010068D01*
X005185Y009909D02*
X005186Y009909D01*
X005185Y009751D02*
X005186Y009751D01*
X005185Y009592D02*
X005186Y009592D01*
X005185Y009434D02*
X005186Y009434D01*
X005185Y009275D02*
X005186Y009275D01*
X005443Y009275D02*
X005843Y009275D01*
X005685Y009434D02*
X005602Y009434D01*
X005625Y009592D02*
X005685Y009592D01*
X005685Y009751D02*
X005625Y009751D01*
X005538Y009909D02*
X005748Y009909D01*
X005907Y010068D02*
X005379Y010068D01*
X005288Y010385D02*
X005683Y010385D01*
X005524Y010543D02*
X005446Y010543D01*
X005485Y010702D02*
X005485Y010702D01*
X005485Y010860D02*
X005485Y010860D01*
X004683Y010385D02*
X004138Y010385D01*
X004296Y010543D02*
X004524Y010543D01*
X004485Y010702D02*
X004335Y010702D01*
X004335Y010860D02*
X004485Y010860D01*
X004833Y009909D02*
X004023Y009909D01*
X004085Y009751D02*
X004745Y009751D01*
X004745Y009592D02*
X004085Y009592D01*
X004085Y009434D02*
X004769Y009434D01*
X004927Y009275D02*
X003928Y009275D01*
X002327Y009275D02*
X002085Y009275D01*
X002085Y009434D02*
X002169Y009434D01*
X002145Y009592D02*
X002085Y009592D01*
X002145Y009751D02*
X001931Y009751D01*
X002233Y009909D02*
X000780Y009909D01*
X000780Y009751D02*
X001240Y009751D01*
X001085Y009592D02*
X000780Y009592D01*
X000780Y009434D02*
X001085Y009434D01*
X001085Y009275D02*
X000780Y009275D01*
X000780Y009116D02*
X001151Y009116D01*
X001310Y008958D02*
X000780Y008958D01*
X002831Y006580D02*
X006629Y006580D01*
X001554Y003726D02*
X000780Y003726D01*
X000780Y003567D02*
X001249Y003567D01*
X001050Y003409D02*
X000780Y003409D01*
X000780Y003250D02*
X000898Y003250D01*
X000954Y003332D02*
X000954Y003332D01*
X000790Y003092D02*
X000780Y003092D01*
X006288Y010385D02*
X006817Y010385D01*
X006765Y010543D02*
X006446Y010543D01*
X006485Y010702D02*
X006607Y010702D01*
X003030Y012129D02*
X000780Y012129D01*
X000780Y012287D02*
X002871Y012287D01*
X002713Y012446D02*
X000780Y012446D01*
X000780Y012604D02*
X000891Y012604D01*
X000789Y012763D02*
X000780Y012763D01*
X000780Y013095D02*
X000780Y013784D01*
X000828Y013667D01*
X000963Y013532D01*
X001140Y013459D01*
X001515Y013459D01*
X001515Y013919D01*
X001555Y013919D01*
X001555Y013459D01*
X001931Y013459D01*
X002107Y013532D01*
X002170Y013596D01*
X002170Y013283D01*
X002107Y013346D01*
X001931Y013419D01*
X001555Y013419D01*
X001555Y012960D01*
X001515Y012960D01*
X001515Y013419D01*
X001140Y013419D01*
X000963Y013346D01*
X000828Y013211D01*
X000780Y013095D01*
X000780Y013239D02*
X000856Y013239D01*
X000780Y013397D02*
X001086Y013397D01*
X000940Y013556D02*
X000780Y013556D01*
X000780Y013714D02*
X000809Y013714D01*
X001515Y013714D02*
X001555Y013714D01*
X001555Y013556D02*
X001515Y013556D01*
X001515Y013397D02*
X001555Y013397D01*
X001555Y013239D02*
X001515Y013239D01*
X001515Y013080D02*
X001555Y013080D01*
X001555Y012763D02*
X001515Y012763D01*
X001515Y012604D02*
X001555Y012604D01*
X002179Y012604D02*
X002554Y012604D01*
X002396Y012763D02*
X002282Y012763D01*
X002170Y013397D02*
X001984Y013397D01*
X002131Y013556D02*
X002170Y013556D01*
X001555Y013873D02*
X001515Y013873D01*
X002900Y013970D02*
X002900Y015212D01*
X002845Y015346D01*
X002742Y015449D01*
X002371Y015820D01*
X002375Y015832D01*
X002375Y016047D01*
X002293Y016245D01*
X002141Y016397D01*
X002039Y016439D01*
X002141Y016481D01*
X002293Y016633D01*
X002375Y016832D01*
X002375Y017047D01*
X002293Y017245D01*
X002141Y017397D01*
X002039Y017439D01*
X002141Y017481D01*
X002293Y017633D01*
X002364Y017804D01*
X002528Y017639D01*
X002720Y017639D01*
X002720Y017617D01*
X002720Y016547D01*
X002712Y016539D01*
X002645Y016377D01*
X002645Y016202D01*
X002712Y016040D01*
X002836Y015916D01*
X002998Y015849D01*
X003173Y015849D01*
X003335Y015916D01*
X003458Y016040D01*
X003525Y016202D01*
X003525Y016377D01*
X003458Y016539D01*
X003450Y016547D01*
X003450Y017538D01*
X004235Y018323D01*
X004235Y017932D01*
X004528Y017639D01*
X004769Y017639D01*
X004476Y017346D01*
X004420Y017212D01*
X004420Y017067D01*
X004420Y015860D01*
X004165Y015605D01*
X004165Y015174D01*
X004450Y014889D01*
X004185Y014625D01*
X003901Y014909D01*
X003470Y014909D01*
X003165Y014605D01*
X003165Y014235D01*
X002900Y013970D01*
X002900Y014031D02*
X002961Y014031D01*
X002900Y014190D02*
X003120Y014190D01*
X003165Y014348D02*
X002900Y014348D01*
X002900Y014507D02*
X003165Y014507D01*
X003226Y014665D02*
X002900Y014665D01*
X002900Y014824D02*
X003385Y014824D01*
X003495Y014929D02*
X003225Y015199D01*
X003225Y015379D01*
X003675Y015379D01*
X003675Y015399D01*
X003225Y015399D01*
X003225Y015580D01*
X003495Y015849D01*
X003675Y015849D01*
X003675Y015400D01*
X003695Y015400D01*
X003695Y015849D01*
X003876Y015849D01*
X004145Y015580D01*
X004145Y015399D01*
X003696Y015399D01*
X003696Y015379D01*
X004145Y015379D01*
X004145Y015199D01*
X003876Y014929D01*
X003695Y014929D01*
X003695Y015379D01*
X003675Y015379D01*
X003675Y014929D01*
X003495Y014929D01*
X003442Y014983D02*
X002900Y014983D01*
X002900Y015141D02*
X003283Y015141D01*
X003225Y015300D02*
X002864Y015300D01*
X002733Y015458D02*
X003225Y015458D01*
X003262Y015617D02*
X002574Y015617D01*
X002416Y015775D02*
X003421Y015775D01*
X003352Y015934D02*
X004420Y015934D01*
X004420Y016092D02*
X003480Y016092D01*
X003525Y016251D02*
X004420Y016251D01*
X004420Y016409D02*
X003512Y016409D01*
X003450Y016568D02*
X004420Y016568D01*
X004420Y016727D02*
X003450Y016727D01*
X003450Y016885D02*
X004420Y016885D01*
X004420Y017044D02*
X003450Y017044D01*
X003450Y017202D02*
X004420Y017202D01*
X004491Y017361D02*
X003450Y017361D01*
X003450Y017519D02*
X004649Y017519D01*
X004490Y017678D02*
X003590Y017678D01*
X003749Y017836D02*
X004331Y017836D01*
X004235Y017995D02*
X003907Y017995D01*
X004066Y018153D02*
X004235Y018153D01*
X004224Y018312D02*
X004235Y018312D01*
X003509Y018629D02*
X002953Y018629D01*
X003111Y018471D02*
X003350Y018471D01*
X003668Y018788D02*
X000780Y018788D01*
X000780Y018946D02*
X003826Y018946D01*
X003985Y019105D02*
X000780Y019105D01*
X000780Y019263D02*
X004143Y019263D01*
X004302Y019422D02*
X000780Y019422D01*
X000780Y019580D02*
X004460Y019580D01*
X004619Y019739D02*
X000780Y019739D01*
X000780Y019897D02*
X004777Y019897D01*
X004936Y020056D02*
X000780Y020056D01*
X000780Y020214D02*
X005094Y020214D01*
X005253Y020373D02*
X000780Y020373D01*
X000780Y020532D02*
X005411Y020532D01*
X005570Y020690D02*
X000780Y020690D01*
X000780Y020849D02*
X005729Y020849D01*
X005887Y021007D02*
X000780Y021007D01*
X000780Y021166D02*
X001374Y021166D01*
X001403Y021136D02*
X001643Y021037D01*
X002728Y021037D01*
X002967Y021136D01*
X003151Y021320D01*
X003250Y021559D01*
X003250Y021819D01*
X003151Y022059D01*
X002967Y022242D01*
X002728Y022342D01*
X001643Y022342D01*
X001403Y022242D01*
X001220Y022059D01*
X001120Y021819D01*
X001120Y021559D01*
X001220Y021320D01*
X001403Y021136D01*
X001218Y021324D02*
X000780Y021324D01*
X000780Y021483D02*
X001152Y021483D01*
X001120Y021641D02*
X000780Y021641D01*
X000780Y021800D02*
X001120Y021800D01*
X001178Y021958D02*
X000780Y021958D01*
X000780Y022117D02*
X001278Y022117D01*
X001483Y022276D02*
X000780Y022276D01*
X000780Y022434D02*
X006271Y022434D01*
X006220Y022276D02*
X002888Y022276D01*
X003093Y022117D02*
X006220Y022117D01*
X006220Y021958D02*
X003193Y021958D01*
X003250Y021800D02*
X006220Y021800D01*
X006220Y021641D02*
X003250Y021641D01*
X003219Y021483D02*
X006220Y021483D01*
X006204Y021324D02*
X003153Y021324D01*
X002997Y021166D02*
X006046Y021166D01*
X006423Y022593D02*
X000780Y022593D01*
X000780Y022751D02*
X006581Y022751D01*
X007652Y019105D02*
X007719Y019105D01*
X007865Y018946D02*
X007506Y018946D01*
X007530Y018312D02*
X007841Y018312D01*
X007729Y018153D02*
X007642Y018153D01*
X007685Y017995D02*
X007685Y017995D01*
X007685Y017836D02*
X007685Y017836D01*
X007685Y017678D02*
X007685Y017678D01*
X007685Y017519D02*
X007685Y017519D01*
X007685Y017361D02*
X007685Y017361D01*
X007632Y017202D02*
X007738Y017202D01*
X007864Y017044D02*
X007507Y017044D01*
X008507Y017044D02*
X008864Y017044D01*
X008738Y017202D02*
X008632Y017202D01*
X008685Y017361D02*
X008685Y017361D01*
X008685Y017519D02*
X008685Y017519D01*
X008685Y017678D02*
X008685Y017678D01*
X008685Y017836D02*
X008685Y017836D01*
X008685Y017995D02*
X008685Y017995D01*
X008642Y018153D02*
X008729Y018153D01*
X008841Y018312D02*
X008530Y018312D01*
X008506Y018946D02*
X008865Y018946D01*
X008719Y019105D02*
X008652Y019105D01*
X009506Y018946D02*
X009865Y018946D01*
X009719Y019105D02*
X009652Y019105D01*
X010506Y018946D02*
X010865Y018946D01*
X010719Y019105D02*
X010652Y019105D01*
X011506Y018946D02*
X011865Y018946D01*
X011719Y019105D02*
X011652Y019105D01*
X012506Y018946D02*
X012865Y018946D01*
X012719Y019105D02*
X012652Y019105D01*
X013506Y018946D02*
X013865Y018946D01*
X013719Y019105D02*
X013652Y019105D01*
X014506Y018946D02*
X014865Y018946D01*
X014719Y019105D02*
X014652Y019105D01*
X015506Y018946D02*
X016001Y018946D01*
X015791Y019105D02*
X015652Y019105D01*
X015718Y019263D02*
X015718Y019263D01*
X016580Y019105D02*
X016719Y019105D01*
X016653Y019263D02*
X016653Y019263D01*
X016273Y018389D02*
X016435Y018322D01*
X016558Y018199D01*
X016625Y018037D01*
X016625Y017689D01*
X016186Y017689D01*
X016186Y017689D01*
X016625Y017689D01*
X016625Y017342D01*
X016558Y017180D01*
X016435Y017056D01*
X016273Y016989D01*
X016186Y016989D01*
X016186Y017689D01*
X016185Y017689D01*
X015745Y017689D01*
X015745Y017342D01*
X015812Y017180D01*
X015936Y017056D01*
X016098Y016989D01*
X016185Y016989D01*
X016185Y017689D01*
X016185Y017689D01*
X015745Y017689D01*
X015745Y018037D01*
X015812Y018199D01*
X015936Y018322D01*
X016098Y018389D01*
X016185Y018389D01*
X016185Y017690D01*
X016186Y017690D01*
X016186Y018389D01*
X016273Y018389D01*
X016185Y018312D02*
X016186Y018312D01*
X016185Y018153D02*
X016186Y018153D01*
X016185Y017995D02*
X016186Y017995D01*
X016185Y017836D02*
X016186Y017836D01*
X016185Y017678D02*
X016186Y017678D01*
X016185Y017519D02*
X016186Y017519D01*
X016185Y017361D02*
X016186Y017361D01*
X016185Y017202D02*
X016186Y017202D01*
X016185Y017044D02*
X016186Y017044D01*
X016404Y017044D02*
X016864Y017044D01*
X016738Y017202D02*
X016567Y017202D01*
X016625Y017361D02*
X016685Y017361D01*
X016685Y017519D02*
X016625Y017519D01*
X016625Y017678D02*
X016685Y017678D01*
X016685Y017836D02*
X016625Y017836D01*
X016625Y017995D02*
X016685Y017995D01*
X016729Y018153D02*
X016577Y018153D01*
X016445Y018312D02*
X016841Y018312D01*
X017530Y018312D02*
X017841Y018312D01*
X017729Y018153D02*
X017642Y018153D01*
X017685Y017995D02*
X017685Y017995D01*
X017685Y017836D02*
X017685Y017836D01*
X017685Y017678D02*
X017685Y017678D01*
X017685Y017519D02*
X017685Y017519D01*
X017685Y017361D02*
X017685Y017361D01*
X017632Y017202D02*
X017738Y017202D01*
X017864Y017044D02*
X017507Y017044D01*
X015967Y017044D02*
X015507Y017044D01*
X015469Y017005D02*
X015609Y017146D01*
X015685Y017330D01*
X015685Y018049D01*
X015609Y018232D01*
X015469Y018373D01*
X015285Y018449D01*
X015086Y018449D01*
X014902Y018373D01*
X014761Y018232D01*
X014685Y018049D01*
X014685Y017330D01*
X014761Y017146D01*
X014902Y017005D01*
X015086Y016929D01*
X015285Y016929D01*
X015469Y017005D01*
X015632Y017202D02*
X015803Y017202D01*
X015745Y017361D02*
X015685Y017361D01*
X015685Y017519D02*
X015745Y017519D01*
X015745Y017678D02*
X015685Y017678D01*
X015685Y017836D02*
X015745Y017836D01*
X015745Y017995D02*
X015685Y017995D01*
X015642Y018153D02*
X015794Y018153D01*
X015926Y018312D02*
X015530Y018312D01*
X014841Y018312D02*
X014530Y018312D01*
X014642Y018153D02*
X014729Y018153D01*
X014685Y017995D02*
X014685Y017995D01*
X014685Y017836D02*
X014685Y017836D01*
X014685Y017678D02*
X014685Y017678D01*
X014685Y017519D02*
X014685Y017519D01*
X014685Y017361D02*
X014685Y017361D01*
X014632Y017202D02*
X014738Y017202D01*
X014864Y017044D02*
X014507Y017044D01*
X013732Y017202D02*
X013632Y017202D01*
X013685Y017361D02*
X013685Y017361D01*
X013685Y017519D02*
X013685Y017519D01*
X013685Y017678D02*
X013685Y017678D01*
X013685Y017836D02*
X013685Y017836D01*
X013685Y017995D02*
X013685Y017995D01*
X013642Y018153D02*
X013729Y018153D01*
X013841Y018312D02*
X013530Y018312D01*
X012841Y018312D02*
X012530Y018312D01*
X012642Y018153D02*
X012729Y018153D01*
X012685Y017995D02*
X012685Y017995D01*
X012685Y017836D02*
X012685Y017836D01*
X012685Y017678D02*
X012685Y017678D01*
X012685Y017519D02*
X012685Y017519D01*
X012685Y017361D02*
X012685Y017361D01*
X012632Y017202D02*
X012738Y017202D01*
X012864Y017044D02*
X012507Y017044D01*
X011864Y017044D02*
X011507Y017044D01*
X011632Y017202D02*
X011738Y017202D01*
X011685Y017361D02*
X011685Y017361D01*
X011685Y017519D02*
X011685Y017519D01*
X011685Y017678D02*
X011685Y017678D01*
X011685Y017836D02*
X011685Y017836D01*
X011685Y017995D02*
X011685Y017995D01*
X011642Y018153D02*
X011729Y018153D01*
X011841Y018312D02*
X011530Y018312D01*
X010841Y018312D02*
X010530Y018312D01*
X010642Y018153D02*
X010729Y018153D01*
X010685Y017995D02*
X010685Y017995D01*
X010685Y017836D02*
X010685Y017836D01*
X010685Y017678D02*
X010685Y017678D01*
X010685Y017519D02*
X010685Y017519D01*
X010685Y017361D02*
X010685Y017361D01*
X010632Y017202D02*
X010738Y017202D01*
X010864Y017044D02*
X010507Y017044D01*
X009864Y017044D02*
X009507Y017044D01*
X009632Y017202D02*
X009738Y017202D01*
X009685Y017361D02*
X009685Y017361D01*
X009685Y017519D02*
X009685Y017519D01*
X009685Y017678D02*
X009685Y017678D01*
X009685Y017836D02*
X009685Y017836D01*
X009685Y017995D02*
X009685Y017995D01*
X009642Y018153D02*
X009729Y018153D01*
X009841Y018312D02*
X009530Y018312D01*
X013507Y017044D02*
X013517Y017044D01*
X017001Y014190D02*
X021800Y014190D01*
X022171Y014190D02*
X028047Y014190D01*
X028186Y014031D02*
X017159Y014031D01*
X017318Y013873D02*
X019947Y013873D01*
X019832Y013714D02*
X019777Y013714D01*
X021554Y012287D02*
X021816Y012287D01*
X021719Y012129D02*
X021652Y012129D01*
X021685Y011970D02*
X021685Y011970D01*
X021685Y011812D02*
X021685Y011812D01*
X021685Y011653D02*
X021685Y011653D01*
X021685Y011495D02*
X021685Y011495D01*
X021685Y011336D02*
X021685Y011336D01*
X021622Y011178D02*
X021748Y011178D01*
X021820Y011019D02*
X021550Y011019D01*
X021550Y010860D02*
X021820Y010860D01*
X021820Y010702D02*
X021550Y010702D01*
X021550Y010543D02*
X021820Y010543D01*
X021817Y010385D02*
X021553Y010385D01*
X021672Y010226D02*
X021699Y010226D01*
X022553Y010385D02*
X022817Y010385D01*
X022820Y010543D02*
X022550Y010543D01*
X022550Y010702D02*
X022820Y010702D01*
X022820Y010860D02*
X022550Y010860D01*
X022550Y011019D02*
X022820Y011019D01*
X022748Y011178D02*
X022622Y011178D01*
X022685Y011336D02*
X022685Y011336D01*
X022685Y011495D02*
X022685Y011495D01*
X022685Y011653D02*
X022685Y011653D01*
X022685Y011812D02*
X022685Y011812D01*
X022685Y011970D02*
X022685Y011970D01*
X022652Y012129D02*
X022719Y012129D01*
X022816Y012287D02*
X022554Y012287D01*
X023554Y012287D02*
X023816Y012287D01*
X023719Y012129D02*
X023652Y012129D01*
X023685Y011970D02*
X023685Y011970D01*
X023685Y011812D02*
X023685Y011812D01*
X023685Y011653D02*
X023685Y011653D01*
X023685Y011495D02*
X023685Y011495D01*
X023685Y011336D02*
X023685Y011336D01*
X023622Y011178D02*
X023748Y011178D01*
X023820Y011019D02*
X023550Y011019D01*
X023550Y010860D02*
X023820Y010860D01*
X023820Y010702D02*
X023550Y010702D01*
X023550Y010543D02*
X023820Y010543D01*
X023817Y010385D02*
X023553Y010385D01*
X023672Y010226D02*
X023699Y010226D01*
X024553Y010385D02*
X024817Y010385D01*
X024820Y010543D02*
X024550Y010543D01*
X024550Y010702D02*
X024820Y010702D01*
X024820Y010860D02*
X024550Y010860D01*
X024550Y011019D02*
X024820Y011019D01*
X024748Y011178D02*
X024622Y011178D01*
X024685Y011336D02*
X024685Y011336D01*
X024685Y011495D02*
X024685Y011495D01*
X024685Y011653D02*
X024685Y011653D01*
X024685Y011812D02*
X024685Y011812D01*
X024685Y011970D02*
X024685Y011970D01*
X024652Y012129D02*
X024719Y012129D01*
X024816Y012287D02*
X024554Y012287D01*
X025554Y012287D02*
X025816Y012287D01*
X025719Y012129D02*
X025652Y012129D01*
X025685Y011970D02*
X025685Y011970D01*
X025685Y011812D02*
X025685Y011812D01*
X025685Y011653D02*
X025685Y011653D01*
X025685Y011495D02*
X025685Y011495D01*
X025685Y011336D02*
X025685Y011336D01*
X025622Y011178D02*
X025748Y011178D01*
X025820Y011019D02*
X025550Y011019D01*
X025550Y010860D02*
X025820Y010860D01*
X025820Y010702D02*
X025550Y010702D01*
X025550Y010543D02*
X025820Y010543D01*
X025817Y010385D02*
X025553Y010385D01*
X025672Y010226D02*
X025699Y010226D01*
X024699Y010226D02*
X024672Y010226D01*
X022699Y010226D02*
X022672Y010226D01*
X018205Y007531D02*
X018165Y007531D01*
X018165Y007372D02*
X018205Y007372D01*
X018205Y007214D02*
X018165Y007214D01*
X018165Y007055D02*
X018205Y007055D01*
X017840Y007055D02*
X017615Y007055D01*
X017697Y007214D02*
X017738Y007214D01*
X020408Y006897D02*
X020963Y006897D01*
X020756Y007055D02*
X020615Y007055D01*
X021408Y006897D02*
X021963Y006897D01*
X021756Y007055D02*
X021615Y007055D01*
X022408Y006897D02*
X022963Y006897D01*
X022756Y007055D02*
X022615Y007055D01*
X023408Y006897D02*
X023963Y006897D01*
X023756Y007055D02*
X023615Y007055D01*
X028485Y009751D02*
X028552Y009751D01*
X028545Y009909D02*
X028485Y009909D01*
X028485Y010068D02*
X028545Y010068D01*
X028450Y010226D02*
X028650Y010226D01*
X028450Y010385D02*
X030624Y010385D01*
X030465Y010543D02*
X028450Y010543D01*
X028450Y010702D02*
X030307Y010702D01*
X030148Y010860D02*
X028450Y010860D01*
X028450Y011019D02*
X030040Y011019D01*
X030020Y011178D02*
X028450Y011178D01*
X028450Y011336D02*
X030020Y011336D01*
X030020Y011495D02*
X028450Y011495D01*
X028450Y011653D02*
X030020Y011653D01*
X030020Y011812D02*
X028450Y011812D01*
X028450Y011970D02*
X030020Y011970D01*
X030020Y012129D02*
X028782Y012129D01*
X028922Y012287D02*
X030020Y012287D01*
X030020Y012446D02*
X028985Y012446D01*
X028985Y012604D02*
X030020Y012604D01*
X030020Y012763D02*
X028934Y012763D01*
X028810Y012921D02*
X030020Y012921D01*
X030020Y013080D02*
X028311Y013080D01*
X028152Y013239D02*
X030020Y013239D01*
X030020Y013397D02*
X027994Y013397D01*
X027835Y013556D02*
X030020Y013556D01*
X030020Y013714D02*
X027677Y013714D01*
X027484Y013873D02*
X030020Y013873D01*
X030020Y014031D02*
X028784Y014031D01*
X028923Y014190D02*
X030020Y014190D01*
X030020Y014348D02*
X028985Y014348D01*
X028985Y014507D02*
X030020Y014507D01*
X030020Y014665D02*
X028933Y014665D01*
X028808Y014824D02*
X030020Y014824D01*
X030020Y014983D02*
X028250Y014983D01*
X028250Y015141D02*
X030020Y015141D01*
X030020Y015300D02*
X028250Y015300D01*
X028250Y015458D02*
X030020Y015458D01*
X029992Y015617D02*
X028250Y015617D01*
X028250Y015775D02*
X029833Y015775D01*
X029516Y016092D02*
X029161Y016092D01*
X029319Y016251D02*
X029358Y016251D01*
X028886Y016251D02*
X028885Y016251D01*
X028885Y016409D02*
X028886Y016409D01*
X028885Y016092D02*
X028886Y016092D01*
X027520Y016092D02*
X024977Y016092D01*
X025025Y015934D02*
X027520Y015934D01*
X027520Y015775D02*
X025014Y015775D01*
X024935Y015617D02*
X027520Y015617D01*
X027385Y016251D02*
X024846Y016251D01*
X023864Y017044D02*
X023507Y017044D01*
X023632Y017202D02*
X023738Y017202D01*
X023685Y017361D02*
X023685Y017361D01*
X023685Y017519D02*
X023685Y017519D01*
X023685Y017678D02*
X023685Y017678D01*
X023685Y017836D02*
X023685Y017836D01*
X023685Y017995D02*
X023685Y017995D01*
X023642Y018153D02*
X023729Y018153D01*
X023820Y018312D02*
X023530Y018312D01*
X022841Y018312D02*
X022530Y018312D01*
X022642Y018153D02*
X022729Y018153D01*
X022685Y017995D02*
X022685Y017995D01*
X022685Y017836D02*
X022685Y017836D01*
X022685Y017678D02*
X022685Y017678D01*
X022685Y017519D02*
X022685Y017519D01*
X022685Y017361D02*
X022685Y017361D01*
X022632Y017202D02*
X022738Y017202D01*
X022864Y017044D02*
X022507Y017044D01*
X022406Y016885D02*
X027624Y016885D01*
X027466Y016727D02*
X022564Y016727D01*
X022723Y016568D02*
X027385Y016568D01*
X027385Y016409D02*
X022881Y016409D01*
X021685Y017617D02*
X021685Y017617D01*
X021685Y018049D01*
X021685Y017617D01*
X021685Y017678D02*
X021685Y017678D01*
X021685Y017836D02*
X021685Y017836D01*
X021685Y017995D02*
X021685Y017995D01*
X021642Y018153D02*
X021729Y018153D01*
X021841Y018312D02*
X021530Y018312D01*
X021506Y018946D02*
X021865Y018946D01*
X021719Y019105D02*
X021652Y019105D01*
X020865Y018946D02*
X020506Y018946D01*
X020652Y019105D02*
X020719Y019105D01*
X019865Y018946D02*
X019506Y018946D01*
X019652Y019105D02*
X019719Y019105D01*
X022506Y018946D02*
X022865Y018946D01*
X022719Y019105D02*
X022652Y019105D01*
X025652Y019105D02*
X025719Y019105D01*
X026507Y017044D02*
X028565Y017044D01*
X032279Y014983D02*
X033235Y014983D01*
X033235Y015141D02*
X032438Y015141D01*
X032445Y015300D02*
X033389Y015300D01*
X033104Y014824D02*
X032236Y014824D01*
X032394Y014665D02*
X032945Y014665D01*
X032787Y014507D02*
X032505Y014507D01*
X032505Y014348D02*
X032628Y014348D01*
X031485Y012104D02*
X031221Y011839D01*
X031505Y011555D01*
X031505Y011124D01*
X031211Y010830D01*
X031687Y010354D01*
X032365Y010354D01*
X032336Y010366D01*
X032212Y010490D01*
X032145Y010652D01*
X032145Y010827D01*
X032167Y010879D01*
X031995Y010879D01*
X031995Y011329D01*
X031975Y011329D01*
X031525Y011329D01*
X031525Y011149D01*
X031795Y010879D01*
X031975Y010879D01*
X031975Y011329D01*
X031975Y011349D01*
X031525Y011349D01*
X031525Y011530D01*
X031795Y011799D01*
X031975Y011799D01*
X031975Y011350D01*
X031995Y011350D01*
X031995Y011799D01*
X032176Y011799D01*
X032220Y011755D01*
X032220Y011839D01*
X032201Y011819D01*
X031770Y011819D01*
X031485Y012104D01*
X031352Y011970D02*
X031619Y011970D01*
X031649Y011653D02*
X031407Y011653D01*
X031505Y011495D02*
X031525Y011495D01*
X031505Y011336D02*
X031975Y011336D01*
X031975Y011178D02*
X031995Y011178D01*
X031995Y011019D02*
X031975Y011019D01*
X032159Y010860D02*
X031242Y010860D01*
X031339Y010702D02*
X032145Y010702D01*
X032190Y010543D02*
X031497Y010543D01*
X031656Y010385D02*
X032318Y010385D01*
X031655Y011019D02*
X031400Y011019D01*
X031505Y011178D02*
X031525Y011178D01*
X031975Y011495D02*
X031995Y011495D01*
X031995Y011653D02*
X031975Y011653D01*
X032220Y011812D02*
X031248Y011812D01*
X031885Y020056D02*
X037636Y020056D01*
X037786Y020214D02*
X031800Y020214D01*
X031800Y020373D02*
X038017Y020373D01*
X038488Y021166D02*
X032728Y021166D01*
X032887Y021324D02*
X038300Y021324D01*
X038217Y021483D02*
X033045Y021483D01*
X032488Y021958D02*
X030982Y021958D01*
X031141Y021800D02*
X032330Y021800D01*
X032171Y021641D02*
X031299Y021641D01*
X031458Y021483D02*
X032013Y021483D01*
X031836Y021324D02*
X031616Y021324D01*
X030824Y022117D02*
X032647Y022117D01*
X032805Y022276D02*
X030665Y022276D01*
X030507Y022434D02*
X032964Y022434D01*
X033123Y022593D02*
X030348Y022593D01*
X030190Y022751D02*
X033281Y022751D01*
X033440Y022910D02*
X030031Y022910D01*
X029873Y023068D02*
X033598Y023068D01*
X033757Y023227D02*
X029714Y023227D01*
X029555Y023385D02*
X033915Y023385D01*
X034074Y023544D02*
X029397Y023544D01*
X029238Y023702D02*
X034232Y023702D01*
X034391Y023861D02*
X029080Y023861D01*
X035184Y024654D02*
X000780Y024654D01*
X000780Y024812D02*
X035342Y024812D01*
X035501Y024971D02*
X000780Y024971D01*
X000780Y025129D02*
X001613Y025129D01*
X001278Y025288D02*
X000780Y025288D01*
X000780Y025446D02*
X001079Y025446D01*
X000914Y025605D02*
X000780Y025605D01*
X000780Y025764D02*
X000806Y025764D01*
X000780Y018629D02*
X002518Y018629D01*
X002359Y018471D02*
X001964Y018471D01*
X002226Y018312D02*
X002235Y018312D01*
X002311Y017678D02*
X002490Y017678D01*
X002720Y017519D02*
X002179Y017519D01*
X002178Y017361D02*
X002720Y017361D01*
X002720Y017202D02*
X002311Y017202D01*
X002375Y017044D02*
X002720Y017044D01*
X002720Y016885D02*
X002375Y016885D01*
X002332Y016727D02*
X002720Y016727D01*
X002720Y016568D02*
X002228Y016568D01*
X002111Y016409D02*
X002659Y016409D01*
X002645Y016251D02*
X002287Y016251D01*
X002356Y016092D02*
X002691Y016092D01*
X002819Y015934D02*
X002375Y015934D01*
X003675Y015775D02*
X003695Y015775D01*
X003695Y015617D02*
X003675Y015617D01*
X003675Y015458D02*
X003695Y015458D01*
X003695Y015300D02*
X003675Y015300D01*
X003675Y015141D02*
X003695Y015141D01*
X003695Y014983D02*
X003675Y014983D01*
X003929Y014983D02*
X004357Y014983D01*
X004385Y014824D02*
X003986Y014824D01*
X004144Y014665D02*
X004226Y014665D01*
X004198Y015141D02*
X004088Y015141D01*
X004145Y015300D02*
X004165Y015300D01*
X004165Y015458D02*
X004145Y015458D01*
X004177Y015617D02*
X004108Y015617D01*
X003950Y015775D02*
X004336Y015775D01*
X001107Y018471D02*
X000780Y018471D01*
X000780Y018312D02*
X000844Y018312D01*
X039128Y021166D02*
X039243Y021166D01*
X039243Y021324D02*
X039128Y021324D01*
X039128Y021483D02*
X039243Y021483D01*
X039243Y021800D02*
X039128Y021800D01*
X039128Y021958D02*
X039243Y021958D01*
X039243Y022117D02*
X039128Y022117D01*
X039128Y022276D02*
X039243Y022276D01*
X039731Y022276D02*
X040290Y022276D01*
X040290Y022117D02*
X040008Y022117D01*
X040128Y021958D02*
X040290Y021958D01*
X040290Y021800D02*
X040190Y021800D01*
M02*
