%
M48
M72
T01C0.0197
T02C0.0315
T03C0.0354
T04C0.0400
T05C0.0472
T06C0.0512
T07C0.0590
T08C0.1102
%
T01
X15367Y11082
X15867Y11082
X15117Y11582
X15367Y12332
X15867Y12332
X16117Y12082
X17617Y11582
X18617Y12082
X18867Y12332
X19367Y12332
X19117Y11082
X18617Y11082
X13617Y14832
X18617Y19332
X17867Y21582
X14867Y22582
X13367Y22332
X11867Y21582
X12117Y25832
X21617Y25082
X21867Y23582
X24367Y21832
X25117Y22832
X25867Y21582
X27367Y20582
X28117Y21582
X29117Y20582
X29867Y20082
X30617Y20082
X30617Y21082
X32367Y21332
X32367Y20832
X32617Y20332
X32617Y19332
X34367Y19832
X34117Y18082
X32117Y17582
X31617Y17582
X31617Y17082
X32117Y17082
X29617Y14582
X27367Y17082
X27367Y19332
X28617Y19332
X30117Y22582
X31117Y23082
X32717Y21832
X33367Y21832
X34867Y22082
X34867Y22582
X34867Y23082
X34867Y23582
X34867Y24082
X34117Y24332
X32617Y27332
X32617Y27832
X34117Y27832
X34117Y28332
X30617Y27332
X27117Y23582
X26117Y27582
X21867Y31832
X22117Y32082
X21367Y31832
X21617Y33082
X22117Y33082
X23117Y32582
X24617Y32082
X24867Y31832
X25367Y31832
X25367Y33082
X25867Y33082
X26367Y32582
X24867Y33082
X26867Y35332
X29867Y35332
X32617Y36082
X32867Y35832
X32367Y31832
X34117Y31832
X36367Y32082
X36867Y32082
X37367Y32082
X37867Y32082
X37617Y33082
X37117Y33082
X38367Y33082
X40117Y33082
X40617Y33082
X41117Y33082
X41117Y32582
X41367Y32082
X40867Y32082
X40367Y32082
X40367Y25832
X40867Y25832
X41867Y25832
X42367Y25832
X42867Y25582
X43367Y25832
X43867Y25832
X44367Y25582
X44367Y24832
X43617Y24832
X42867Y24832
X42117Y24832
X42867Y26582
X42867Y27082
X44367Y27082
X44367Y26582
X40867Y22832
X42617Y21832
X40867Y19832
X41367Y17832
X42117Y17832
X42867Y17832
X43617Y17832
X44367Y17832
X44367Y17082
X43617Y17082
X42117Y17082
X41867Y16332
X40617Y17082
X38617Y18082
X38117Y18082
X36867Y16332
X36367Y19582
X35367Y21582
X37617Y24832
X42367Y14332
X42617Y14082
X39367Y9332
X38867Y9332
X39367Y8832
X39867Y8832
X38867Y7832
X38867Y7332
X34617Y8082
X34117Y8082
X34117Y11332
X34617Y11332
X34617Y12332
X35117Y12332
X34117Y12332
X33117Y11832
X31617Y12332
X31117Y12332
X30617Y12332
X30617Y11832
X30867Y11332
X31367Y11332
X27867Y12332
X26617Y12832
X25867Y12832
X25617Y11832
X23367Y8082
X23617Y7832
X18867Y8082
X18367Y8082
X21867Y16582
X22117Y36082
X21617Y36082
X17367Y36082
X17367Y36582
X37117Y36082
X37617Y36082
T02
X15617Y35332
X11617Y35332
T03
X41367Y12282
X41367Y11282
X42367Y11382
X43367Y11282
X43367Y12282
X44367Y12382
X45367Y12282
X45367Y11282
X44367Y11382
X42367Y12382
T04
X24117Y17082
X24117Y18082
X25117Y18182
X26117Y18082
X26117Y17082
X25117Y17182
X15917Y27332
X15817Y26332
X15917Y25332
X15817Y24332
X15917Y23332
X15817Y22332
X9627Y24692
X9627Y26472
T05
X12117Y6582
X13617Y6582
X15617Y6582
X17117Y6582
X19117Y6582
X20617Y6582
X22617Y6582
X24117Y6582
X26867Y6582
X28367Y6582
X30367Y6582
X31867Y6582
X33867Y6582
X35367Y6582
X37367Y6582
X38867Y6582
X44117Y37582
X42617Y37582
X40617Y37582
X39117Y37582
X37117Y37582
X35617Y37582
X33617Y37582
X32117Y37582
X29367Y37582
X27867Y37582
X25867Y37582
X24367Y37582
X22367Y37582
X20867Y37582
X18867Y37582
X17367Y37582
X10117Y22332
X10117Y20832
X10117Y18832
X10117Y17332
T06
X13835Y37832
X11867Y37832
T07
X10607Y24202
X10607Y26962
T08
X9652Y6212
X17367Y13932
X32487Y25502
X38867Y30232
X45117Y35832
X23367Y30232
X32867Y13932
M30
