G75*
%MOIN*%
%OFA0B0*%
%FSLAX24Y24*%
%IPPOS*%
%LPD*%
%AMOC8*
5,1,8,0,0,1.08239X$1,22.5*
%
%ADD10C,0.0160*%
%ADD11C,0.0000*%
%ADD12C,0.0100*%
%ADD13C,0.0050*%
%ADD14C,0.0060*%
%ADD15C,0.0080*%
D10*
X008367Y005257D02*
X008367Y038903D01*
X008369Y038947D01*
X008375Y038990D01*
X008384Y039032D01*
X008397Y039074D01*
X008414Y039114D01*
X008434Y039153D01*
X008457Y039190D01*
X008484Y039224D01*
X008513Y039257D01*
X008546Y039286D01*
X008580Y039313D01*
X008617Y039336D01*
X008656Y039356D01*
X008696Y039373D01*
X008738Y039386D01*
X008780Y039395D01*
X008823Y039401D01*
X008867Y039403D01*
X046135Y039403D01*
X046179Y039401D01*
X046222Y039395D01*
X046264Y039386D01*
X046306Y039373D01*
X046346Y039356D01*
X046385Y039336D01*
X046422Y039313D01*
X046456Y039286D01*
X046489Y039257D01*
X046518Y039224D01*
X046545Y039190D01*
X046568Y039153D01*
X046588Y039114D01*
X046605Y039074D01*
X046618Y039032D01*
X046627Y038990D01*
X046633Y038947D01*
X046635Y038903D01*
X046635Y005257D01*
X046633Y005213D01*
X046627Y005170D01*
X046618Y005128D01*
X046605Y005086D01*
X046588Y005046D01*
X046568Y005007D01*
X046545Y004970D01*
X046518Y004936D01*
X046489Y004903D01*
X046456Y004874D01*
X046422Y004847D01*
X046385Y004824D01*
X046346Y004804D01*
X046306Y004787D01*
X046264Y004774D01*
X046222Y004765D01*
X046179Y004759D01*
X046135Y004757D01*
X008867Y004757D01*
X008823Y004759D01*
X008780Y004765D01*
X008738Y004774D01*
X008696Y004787D01*
X008656Y004804D01*
X008617Y004824D01*
X008580Y004847D01*
X008546Y004874D01*
X008513Y004903D01*
X008484Y004936D01*
X008457Y004970D01*
X008434Y005007D01*
X008414Y005046D01*
X008397Y005086D01*
X008384Y005128D01*
X008375Y005170D01*
X008369Y005213D01*
X008367Y005257D01*
D11*
X009101Y006212D02*
X009103Y006259D01*
X009109Y006305D01*
X009119Y006351D01*
X009132Y006396D01*
X009150Y006439D01*
X009171Y006481D01*
X009195Y006521D01*
X009223Y006558D01*
X009254Y006593D01*
X009288Y006626D01*
X009324Y006655D01*
X009363Y006681D01*
X009404Y006704D01*
X009447Y006723D01*
X009491Y006739D01*
X009536Y006751D01*
X009582Y006759D01*
X009629Y006763D01*
X009675Y006763D01*
X009722Y006759D01*
X009768Y006751D01*
X009813Y006739D01*
X009857Y006723D01*
X009900Y006704D01*
X009941Y006681D01*
X009980Y006655D01*
X010016Y006626D01*
X010050Y006593D01*
X010081Y006558D01*
X010109Y006521D01*
X010133Y006481D01*
X010154Y006439D01*
X010172Y006396D01*
X010185Y006351D01*
X010195Y006305D01*
X010201Y006259D01*
X010203Y006212D01*
X010201Y006165D01*
X010195Y006119D01*
X010185Y006073D01*
X010172Y006028D01*
X010154Y005985D01*
X010133Y005943D01*
X010109Y005903D01*
X010081Y005866D01*
X010050Y005831D01*
X010016Y005798D01*
X009980Y005769D01*
X009941Y005743D01*
X009900Y005720D01*
X009857Y005701D01*
X009813Y005685D01*
X009768Y005673D01*
X009722Y005665D01*
X009675Y005661D01*
X009629Y005661D01*
X009582Y005665D01*
X009536Y005673D01*
X009491Y005685D01*
X009447Y005701D01*
X009404Y005720D01*
X009363Y005743D01*
X009324Y005769D01*
X009288Y005798D01*
X009254Y005831D01*
X009223Y005866D01*
X009195Y005903D01*
X009171Y005943D01*
X009150Y005985D01*
X009132Y006028D01*
X009119Y006073D01*
X009109Y006119D01*
X009103Y006165D01*
X009101Y006212D01*
X016816Y013932D02*
X016818Y013979D01*
X016824Y014025D01*
X016834Y014071D01*
X016847Y014116D01*
X016865Y014159D01*
X016886Y014201D01*
X016910Y014241D01*
X016938Y014278D01*
X016969Y014313D01*
X017003Y014346D01*
X017039Y014375D01*
X017078Y014401D01*
X017119Y014424D01*
X017162Y014443D01*
X017206Y014459D01*
X017251Y014471D01*
X017297Y014479D01*
X017344Y014483D01*
X017390Y014483D01*
X017437Y014479D01*
X017483Y014471D01*
X017528Y014459D01*
X017572Y014443D01*
X017615Y014424D01*
X017656Y014401D01*
X017695Y014375D01*
X017731Y014346D01*
X017765Y014313D01*
X017796Y014278D01*
X017824Y014241D01*
X017848Y014201D01*
X017869Y014159D01*
X017887Y014116D01*
X017900Y014071D01*
X017910Y014025D01*
X017916Y013979D01*
X017918Y013932D01*
X017916Y013885D01*
X017910Y013839D01*
X017900Y013793D01*
X017887Y013748D01*
X017869Y013705D01*
X017848Y013663D01*
X017824Y013623D01*
X017796Y013586D01*
X017765Y013551D01*
X017731Y013518D01*
X017695Y013489D01*
X017656Y013463D01*
X017615Y013440D01*
X017572Y013421D01*
X017528Y013405D01*
X017483Y013393D01*
X017437Y013385D01*
X017390Y013381D01*
X017344Y013381D01*
X017297Y013385D01*
X017251Y013393D01*
X017206Y013405D01*
X017162Y013421D01*
X017119Y013440D01*
X017078Y013463D01*
X017039Y013489D01*
X017003Y013518D01*
X016969Y013551D01*
X016938Y013586D01*
X016910Y013623D01*
X016886Y013663D01*
X016865Y013705D01*
X016847Y013748D01*
X016834Y013793D01*
X016824Y013839D01*
X016818Y013885D01*
X016816Y013932D01*
X031936Y025502D02*
X031938Y025549D01*
X031944Y025595D01*
X031954Y025641D01*
X031967Y025686D01*
X031985Y025729D01*
X032006Y025771D01*
X032030Y025811D01*
X032058Y025848D01*
X032089Y025883D01*
X032123Y025916D01*
X032159Y025945D01*
X032198Y025971D01*
X032239Y025994D01*
X032282Y026013D01*
X032326Y026029D01*
X032371Y026041D01*
X032417Y026049D01*
X032464Y026053D01*
X032510Y026053D01*
X032557Y026049D01*
X032603Y026041D01*
X032648Y026029D01*
X032692Y026013D01*
X032735Y025994D01*
X032776Y025971D01*
X032815Y025945D01*
X032851Y025916D01*
X032885Y025883D01*
X032916Y025848D01*
X032944Y025811D01*
X032968Y025771D01*
X032989Y025729D01*
X033007Y025686D01*
X033020Y025641D01*
X033030Y025595D01*
X033036Y025549D01*
X033038Y025502D01*
X033036Y025455D01*
X033030Y025409D01*
X033020Y025363D01*
X033007Y025318D01*
X032989Y025275D01*
X032968Y025233D01*
X032944Y025193D01*
X032916Y025156D01*
X032885Y025121D01*
X032851Y025088D01*
X032815Y025059D01*
X032776Y025033D01*
X032735Y025010D01*
X032692Y024991D01*
X032648Y024975D01*
X032603Y024963D01*
X032557Y024955D01*
X032510Y024951D01*
X032464Y024951D01*
X032417Y024955D01*
X032371Y024963D01*
X032326Y024975D01*
X032282Y024991D01*
X032239Y025010D01*
X032198Y025033D01*
X032159Y025059D01*
X032123Y025088D01*
X032089Y025121D01*
X032058Y025156D01*
X032030Y025193D01*
X032006Y025233D01*
X031985Y025275D01*
X031967Y025318D01*
X031954Y025363D01*
X031944Y025409D01*
X031938Y025455D01*
X031936Y025502D01*
X038316Y030232D02*
X038318Y030279D01*
X038324Y030325D01*
X038334Y030371D01*
X038347Y030416D01*
X038365Y030459D01*
X038386Y030501D01*
X038410Y030541D01*
X038438Y030578D01*
X038469Y030613D01*
X038503Y030646D01*
X038539Y030675D01*
X038578Y030701D01*
X038619Y030724D01*
X038662Y030743D01*
X038706Y030759D01*
X038751Y030771D01*
X038797Y030779D01*
X038844Y030783D01*
X038890Y030783D01*
X038937Y030779D01*
X038983Y030771D01*
X039028Y030759D01*
X039072Y030743D01*
X039115Y030724D01*
X039156Y030701D01*
X039195Y030675D01*
X039231Y030646D01*
X039265Y030613D01*
X039296Y030578D01*
X039324Y030541D01*
X039348Y030501D01*
X039369Y030459D01*
X039387Y030416D01*
X039400Y030371D01*
X039410Y030325D01*
X039416Y030279D01*
X039418Y030232D01*
X039416Y030185D01*
X039410Y030139D01*
X039400Y030093D01*
X039387Y030048D01*
X039369Y030005D01*
X039348Y029963D01*
X039324Y029923D01*
X039296Y029886D01*
X039265Y029851D01*
X039231Y029818D01*
X039195Y029789D01*
X039156Y029763D01*
X039115Y029740D01*
X039072Y029721D01*
X039028Y029705D01*
X038983Y029693D01*
X038937Y029685D01*
X038890Y029681D01*
X038844Y029681D01*
X038797Y029685D01*
X038751Y029693D01*
X038706Y029705D01*
X038662Y029721D01*
X038619Y029740D01*
X038578Y029763D01*
X038539Y029789D01*
X038503Y029818D01*
X038469Y029851D01*
X038438Y029886D01*
X038410Y029923D01*
X038386Y029963D01*
X038365Y030005D01*
X038347Y030048D01*
X038334Y030093D01*
X038324Y030139D01*
X038318Y030185D01*
X038316Y030232D01*
X044566Y035832D02*
X044568Y035879D01*
X044574Y035925D01*
X044584Y035971D01*
X044597Y036016D01*
X044615Y036059D01*
X044636Y036101D01*
X044660Y036141D01*
X044688Y036178D01*
X044719Y036213D01*
X044753Y036246D01*
X044789Y036275D01*
X044828Y036301D01*
X044869Y036324D01*
X044912Y036343D01*
X044956Y036359D01*
X045001Y036371D01*
X045047Y036379D01*
X045094Y036383D01*
X045140Y036383D01*
X045187Y036379D01*
X045233Y036371D01*
X045278Y036359D01*
X045322Y036343D01*
X045365Y036324D01*
X045406Y036301D01*
X045445Y036275D01*
X045481Y036246D01*
X045515Y036213D01*
X045546Y036178D01*
X045574Y036141D01*
X045598Y036101D01*
X045619Y036059D01*
X045637Y036016D01*
X045650Y035971D01*
X045660Y035925D01*
X045666Y035879D01*
X045668Y035832D01*
X045666Y035785D01*
X045660Y035739D01*
X045650Y035693D01*
X045637Y035648D01*
X045619Y035605D01*
X045598Y035563D01*
X045574Y035523D01*
X045546Y035486D01*
X045515Y035451D01*
X045481Y035418D01*
X045445Y035389D01*
X045406Y035363D01*
X045365Y035340D01*
X045322Y035321D01*
X045278Y035305D01*
X045233Y035293D01*
X045187Y035285D01*
X045140Y035281D01*
X045094Y035281D01*
X045047Y035285D01*
X045001Y035293D01*
X044956Y035305D01*
X044912Y035321D01*
X044869Y035340D01*
X044828Y035363D01*
X044789Y035389D01*
X044753Y035418D01*
X044719Y035451D01*
X044688Y035486D01*
X044660Y035523D01*
X044636Y035563D01*
X044615Y035605D01*
X044597Y035648D01*
X044584Y035693D01*
X044574Y035739D01*
X044568Y035785D01*
X044566Y035832D01*
X022816Y030232D02*
X022818Y030279D01*
X022824Y030325D01*
X022834Y030371D01*
X022847Y030416D01*
X022865Y030459D01*
X022886Y030501D01*
X022910Y030541D01*
X022938Y030578D01*
X022969Y030613D01*
X023003Y030646D01*
X023039Y030675D01*
X023078Y030701D01*
X023119Y030724D01*
X023162Y030743D01*
X023206Y030759D01*
X023251Y030771D01*
X023297Y030779D01*
X023344Y030783D01*
X023390Y030783D01*
X023437Y030779D01*
X023483Y030771D01*
X023528Y030759D01*
X023572Y030743D01*
X023615Y030724D01*
X023656Y030701D01*
X023695Y030675D01*
X023731Y030646D01*
X023765Y030613D01*
X023796Y030578D01*
X023824Y030541D01*
X023848Y030501D01*
X023869Y030459D01*
X023887Y030416D01*
X023900Y030371D01*
X023910Y030325D01*
X023916Y030279D01*
X023918Y030232D01*
X023916Y030185D01*
X023910Y030139D01*
X023900Y030093D01*
X023887Y030048D01*
X023869Y030005D01*
X023848Y029963D01*
X023824Y029923D01*
X023796Y029886D01*
X023765Y029851D01*
X023731Y029818D01*
X023695Y029789D01*
X023656Y029763D01*
X023615Y029740D01*
X023572Y029721D01*
X023528Y029705D01*
X023483Y029693D01*
X023437Y029685D01*
X023390Y029681D01*
X023344Y029681D01*
X023297Y029685D01*
X023251Y029693D01*
X023206Y029705D01*
X023162Y029721D01*
X023119Y029740D01*
X023078Y029763D01*
X023039Y029789D01*
X023003Y029818D01*
X022969Y029851D01*
X022938Y029886D01*
X022910Y029923D01*
X022886Y029963D01*
X022865Y030005D01*
X022847Y030048D01*
X022834Y030093D01*
X022824Y030139D01*
X022818Y030185D01*
X022816Y030232D01*
X032316Y013932D02*
X032318Y013979D01*
X032324Y014025D01*
X032334Y014071D01*
X032347Y014116D01*
X032365Y014159D01*
X032386Y014201D01*
X032410Y014241D01*
X032438Y014278D01*
X032469Y014313D01*
X032503Y014346D01*
X032539Y014375D01*
X032578Y014401D01*
X032619Y014424D01*
X032662Y014443D01*
X032706Y014459D01*
X032751Y014471D01*
X032797Y014479D01*
X032844Y014483D01*
X032890Y014483D01*
X032937Y014479D01*
X032983Y014471D01*
X033028Y014459D01*
X033072Y014443D01*
X033115Y014424D01*
X033156Y014401D01*
X033195Y014375D01*
X033231Y014346D01*
X033265Y014313D01*
X033296Y014278D01*
X033324Y014241D01*
X033348Y014201D01*
X033369Y014159D01*
X033387Y014116D01*
X033400Y014071D01*
X033410Y014025D01*
X033416Y013979D01*
X033418Y013932D01*
X033416Y013885D01*
X033410Y013839D01*
X033400Y013793D01*
X033387Y013748D01*
X033369Y013705D01*
X033348Y013663D01*
X033324Y013623D01*
X033296Y013586D01*
X033265Y013551D01*
X033231Y013518D01*
X033195Y013489D01*
X033156Y013463D01*
X033115Y013440D01*
X033072Y013421D01*
X033028Y013405D01*
X032983Y013393D01*
X032937Y013385D01*
X032890Y013381D01*
X032844Y013381D01*
X032797Y013385D01*
X032751Y013393D01*
X032706Y013405D01*
X032662Y013421D01*
X032619Y013440D01*
X032578Y013463D01*
X032539Y013489D01*
X032503Y013518D01*
X032469Y013551D01*
X032438Y013586D01*
X032410Y013623D01*
X032386Y013663D01*
X032365Y013705D01*
X032347Y013748D01*
X032334Y013793D01*
X032324Y013839D01*
X032318Y013885D01*
X032316Y013932D01*
D12*
X031894Y005782D02*
X031894Y005382D01*
X032027Y005382D02*
X031760Y005382D01*
X032027Y005649D02*
X031894Y005782D01*
X030527Y005715D02*
X030461Y005782D01*
X030327Y005782D01*
X030260Y005715D01*
X030260Y005649D01*
X030527Y005382D01*
X030260Y005382D01*
X028527Y005382D02*
X028260Y005382D01*
X028394Y005382D02*
X028394Y005782D01*
X028527Y005649D01*
X027027Y005715D02*
X026961Y005782D01*
X026827Y005782D01*
X026760Y005715D01*
X026760Y005649D01*
X027027Y005382D01*
X026760Y005382D01*
X024277Y005382D02*
X024010Y005382D01*
X024144Y005382D02*
X024144Y005782D01*
X024277Y005649D01*
X022777Y005715D02*
X022711Y005782D01*
X022577Y005782D01*
X022510Y005715D01*
X022510Y005649D01*
X022777Y005382D01*
X022510Y005382D01*
X020777Y005382D02*
X020510Y005382D01*
X020644Y005382D02*
X020644Y005782D01*
X020777Y005649D01*
X019277Y005715D02*
X019211Y005782D01*
X019077Y005782D01*
X019010Y005715D01*
X019010Y005649D01*
X019277Y005382D01*
X019010Y005382D01*
X017277Y005382D02*
X017010Y005382D01*
X017144Y005382D02*
X017144Y005782D01*
X017277Y005649D01*
X015777Y005715D02*
X015711Y005782D01*
X015577Y005782D01*
X015510Y005715D01*
X015510Y005649D01*
X015777Y005382D01*
X015510Y005382D01*
X013777Y005382D02*
X013510Y005382D01*
X013644Y005382D02*
X013644Y005782D01*
X013777Y005649D01*
X012277Y005715D02*
X012211Y005782D01*
X012077Y005782D01*
X012010Y005715D01*
X012010Y005649D01*
X012277Y005382D01*
X012010Y005382D01*
X009184Y017171D02*
X009317Y017305D01*
X008917Y017305D01*
X008917Y017438D02*
X008917Y017171D01*
X008917Y018671D02*
X009184Y018938D01*
X009251Y018938D01*
X009317Y018871D01*
X009317Y018738D01*
X009251Y018671D01*
X008917Y018671D02*
X008917Y018938D01*
X008917Y020671D02*
X008917Y020938D01*
X008917Y020805D02*
X009317Y020805D01*
X009184Y020671D01*
X009251Y022171D02*
X009317Y022238D01*
X009317Y022371D01*
X009251Y022438D01*
X009184Y022438D01*
X008917Y022171D01*
X008917Y022438D01*
X017300Y038382D02*
X017567Y038382D01*
X017433Y038382D02*
X017433Y038782D01*
X017567Y038649D01*
X018800Y038649D02*
X018800Y038715D01*
X018867Y038782D01*
X019000Y038782D01*
X019067Y038715D01*
X018800Y038649D02*
X019067Y038382D01*
X018800Y038382D01*
X020800Y038382D02*
X021067Y038382D01*
X020933Y038382D02*
X020933Y038782D01*
X021067Y038649D01*
X022300Y038649D02*
X022300Y038715D01*
X022367Y038782D01*
X022500Y038782D01*
X022567Y038715D01*
X022300Y038649D02*
X022567Y038382D01*
X022300Y038382D01*
X024300Y038382D02*
X024567Y038382D01*
X024433Y038382D02*
X024433Y038782D01*
X024567Y038649D01*
X025800Y038649D02*
X026067Y038382D01*
X025800Y038382D01*
X025800Y038649D02*
X025800Y038715D01*
X025867Y038782D01*
X026000Y038782D01*
X026067Y038715D01*
X027800Y038382D02*
X028067Y038382D01*
X027933Y038382D02*
X027933Y038782D01*
X028067Y038649D01*
X029300Y038649D02*
X029567Y038382D01*
X029300Y038382D01*
X029300Y038649D02*
X029300Y038715D01*
X029367Y038782D01*
X029500Y038782D01*
X029567Y038715D01*
X032050Y038382D02*
X032317Y038382D01*
X032183Y038382D02*
X032183Y038782D01*
X032317Y038649D01*
X033550Y038649D02*
X033817Y038382D01*
X033550Y038382D01*
X033550Y038649D02*
X033550Y038715D01*
X033617Y038782D01*
X033750Y038782D01*
X033817Y038715D01*
X035550Y038382D02*
X035817Y038382D01*
X035683Y038382D02*
X035683Y038782D01*
X035817Y038649D01*
X037050Y038649D02*
X037317Y038382D01*
X037050Y038382D01*
X037050Y038649D02*
X037050Y038715D01*
X037117Y038782D01*
X037250Y038782D01*
X037317Y038715D01*
X039050Y038382D02*
X039317Y038382D01*
X039183Y038382D02*
X039183Y038782D01*
X039317Y038649D01*
X040550Y038649D02*
X040550Y038715D01*
X040617Y038782D01*
X040750Y038782D01*
X040817Y038715D01*
X040550Y038649D02*
X040817Y038382D01*
X040550Y038382D01*
X042550Y038382D02*
X042817Y038382D01*
X042683Y038382D02*
X042683Y038782D01*
X042817Y038649D01*
X044050Y038649D02*
X044050Y038715D01*
X044117Y038782D01*
X044250Y038782D01*
X044317Y038715D01*
X044050Y038649D02*
X044317Y038382D01*
X044050Y038382D01*
X038894Y005782D02*
X038894Y005382D01*
X039027Y005382D02*
X038760Y005382D01*
X039027Y005649D02*
X038894Y005782D01*
X037527Y005715D02*
X037461Y005782D01*
X037327Y005782D01*
X037260Y005715D01*
X037260Y005649D01*
X037527Y005382D01*
X037260Y005382D01*
X035527Y005382D02*
X035260Y005382D01*
X035394Y005382D02*
X035394Y005782D01*
X035527Y005649D01*
X034027Y005715D02*
X033961Y005782D01*
X033827Y005782D01*
X033760Y005715D01*
X033760Y005649D01*
X034027Y005382D01*
X033760Y005382D01*
D13*
X035467Y008682D02*
X030267Y008682D01*
X030267Y016182D01*
X035467Y016182D01*
X035467Y008682D01*
X019967Y008682D02*
X014767Y008682D01*
X014767Y016182D01*
X019967Y016182D01*
X019967Y008682D01*
X020767Y027982D02*
X025967Y027982D01*
X025967Y035482D01*
X020767Y035482D01*
X020767Y027982D01*
X014067Y039832D02*
X013717Y039832D01*
X036267Y035482D02*
X036267Y027982D01*
X041467Y027982D01*
X041467Y035482D01*
X036267Y035482D01*
D14*
X039017Y026982D02*
X040717Y026982D01*
X040734Y026980D01*
X040751Y026976D01*
X040767Y026969D01*
X040781Y026959D01*
X040794Y026946D01*
X040804Y026932D01*
X040811Y026916D01*
X040815Y026899D01*
X040817Y026882D01*
X040817Y026282D01*
X040815Y026265D01*
X040811Y026248D01*
X040804Y026232D01*
X040794Y026218D01*
X040781Y026205D01*
X040767Y026195D01*
X040751Y026188D01*
X040734Y026184D01*
X040717Y026182D01*
X039017Y026182D01*
X039000Y026184D01*
X038983Y026188D01*
X038967Y026195D01*
X038953Y026205D01*
X038940Y026218D01*
X038930Y026232D01*
X038923Y026248D01*
X038919Y026265D01*
X038917Y026282D01*
X038917Y026882D01*
X038919Y026899D01*
X038923Y026916D01*
X038930Y026932D01*
X038940Y026946D01*
X038953Y026959D01*
X038967Y026969D01*
X038983Y026976D01*
X039000Y026980D01*
X039017Y026982D01*
X039017Y025482D02*
X040717Y025482D01*
X040734Y025480D01*
X040751Y025476D01*
X040767Y025469D01*
X040781Y025459D01*
X040794Y025446D01*
X040804Y025432D01*
X040811Y025416D01*
X040815Y025399D01*
X040817Y025382D01*
X040817Y024782D01*
X040815Y024765D01*
X040811Y024748D01*
X040804Y024732D01*
X040794Y024718D01*
X040781Y024705D01*
X040767Y024695D01*
X040751Y024688D01*
X040734Y024684D01*
X040717Y024682D01*
X039017Y024682D01*
X039000Y024684D01*
X038983Y024688D01*
X038967Y024695D01*
X038953Y024705D01*
X038940Y024718D01*
X038930Y024732D01*
X038923Y024748D01*
X038919Y024765D01*
X038917Y024782D01*
X038917Y025382D01*
X038919Y025399D01*
X038923Y025416D01*
X038930Y025432D01*
X038940Y025446D01*
X038953Y025459D01*
X038967Y025469D01*
X038983Y025476D01*
X039000Y025480D01*
X039017Y025482D01*
X039017Y023982D02*
X040717Y023982D01*
X040734Y023980D01*
X040751Y023976D01*
X040767Y023969D01*
X040781Y023959D01*
X040794Y023946D01*
X040804Y023932D01*
X040811Y023916D01*
X040815Y023899D01*
X040817Y023882D01*
X040817Y023282D01*
X040815Y023265D01*
X040811Y023248D01*
X040804Y023232D01*
X040794Y023218D01*
X040781Y023205D01*
X040767Y023195D01*
X040751Y023188D01*
X040734Y023184D01*
X040717Y023182D01*
X039017Y023182D01*
X039000Y023184D01*
X038983Y023188D01*
X038967Y023195D01*
X038953Y023205D01*
X038940Y023218D01*
X038930Y023232D01*
X038923Y023248D01*
X038919Y023265D01*
X038917Y023282D01*
X038917Y023882D01*
X038919Y023899D01*
X038923Y023916D01*
X038930Y023932D01*
X038940Y023946D01*
X038953Y023959D01*
X038967Y023969D01*
X038983Y023976D01*
X039000Y023980D01*
X039017Y023982D01*
X039017Y022482D02*
X040717Y022482D01*
X040734Y022480D01*
X040751Y022476D01*
X040767Y022469D01*
X040781Y022459D01*
X040794Y022446D01*
X040804Y022432D01*
X040811Y022416D01*
X040815Y022399D01*
X040817Y022382D01*
X040817Y021782D01*
X040815Y021765D01*
X040811Y021748D01*
X040804Y021732D01*
X040794Y021718D01*
X040781Y021705D01*
X040767Y021695D01*
X040751Y021688D01*
X040734Y021684D01*
X040717Y021682D01*
X039017Y021682D01*
X039000Y021684D01*
X038983Y021688D01*
X038967Y021695D01*
X038953Y021705D01*
X038940Y021718D01*
X038930Y021732D01*
X038923Y021748D01*
X038919Y021765D01*
X038917Y021782D01*
X038917Y022382D01*
X038919Y022399D01*
X038923Y022416D01*
X038930Y022432D01*
X038940Y022446D01*
X038953Y022459D01*
X038967Y022469D01*
X038983Y022476D01*
X039000Y022480D01*
X039017Y022482D01*
X039017Y020982D02*
X040717Y020982D01*
X040734Y020980D01*
X040751Y020976D01*
X040767Y020969D01*
X040781Y020959D01*
X040794Y020946D01*
X040804Y020932D01*
X040811Y020916D01*
X040815Y020899D01*
X040817Y020882D01*
X040817Y020282D01*
X040815Y020265D01*
X040811Y020248D01*
X040804Y020232D01*
X040794Y020218D01*
X040781Y020205D01*
X040767Y020195D01*
X040751Y020188D01*
X040734Y020184D01*
X040717Y020182D01*
X039017Y020182D01*
X039000Y020184D01*
X038983Y020188D01*
X038967Y020195D01*
X038953Y020205D01*
X038940Y020218D01*
X038930Y020232D01*
X038923Y020248D01*
X038919Y020265D01*
X038917Y020282D01*
X038917Y020882D01*
X038919Y020899D01*
X038923Y020916D01*
X038930Y020932D01*
X038940Y020946D01*
X038953Y020959D01*
X038967Y020969D01*
X038983Y020976D01*
X039000Y020980D01*
X039017Y020982D01*
X039017Y019482D02*
X040717Y019482D01*
X040734Y019480D01*
X040751Y019476D01*
X040767Y019469D01*
X040781Y019459D01*
X040794Y019446D01*
X040804Y019432D01*
X040811Y019416D01*
X040815Y019399D01*
X040817Y019382D01*
X040817Y018782D01*
X040815Y018765D01*
X040811Y018748D01*
X040804Y018732D01*
X040794Y018718D01*
X040781Y018705D01*
X040767Y018695D01*
X040751Y018688D01*
X040734Y018684D01*
X040717Y018682D01*
X039017Y018682D01*
X039000Y018684D01*
X038983Y018688D01*
X038967Y018695D01*
X038953Y018705D01*
X038940Y018718D01*
X038930Y018732D01*
X038923Y018748D01*
X038919Y018765D01*
X038917Y018782D01*
X038917Y019382D01*
X038919Y019399D01*
X038923Y019416D01*
X038930Y019432D01*
X038940Y019446D01*
X038953Y019459D01*
X038967Y019469D01*
X038983Y019476D01*
X039000Y019480D01*
X039017Y019482D01*
D15*
X039827Y019675D02*
X039827Y019728D01*
X039880Y019782D01*
X040040Y019782D01*
X040040Y019675D01*
X039987Y019622D01*
X039880Y019622D01*
X039827Y019675D01*
X040040Y019782D02*
X039934Y019889D01*
X039827Y019942D01*
X040195Y019942D02*
X040302Y019942D01*
X040248Y019942D02*
X040248Y019675D01*
X040302Y019622D01*
X040355Y019622D01*
X040409Y019675D01*
X040563Y019675D02*
X040617Y019622D01*
X040724Y019622D01*
X040777Y019675D01*
X040724Y019782D02*
X040617Y019782D01*
X040563Y019728D01*
X040563Y019675D01*
X040724Y019782D02*
X040777Y019835D01*
X040777Y019889D01*
X040724Y019942D01*
X040617Y019942D01*
X040563Y019889D01*
X040617Y021122D02*
X040724Y021122D01*
X040777Y021175D01*
X040724Y021282D02*
X040617Y021282D01*
X040563Y021228D01*
X040563Y021175D01*
X040617Y021122D01*
X040724Y021282D02*
X040777Y021335D01*
X040777Y021389D01*
X040724Y021442D01*
X040617Y021442D01*
X040563Y021389D01*
X040409Y021175D02*
X040355Y021122D01*
X040302Y021122D01*
X040248Y021175D01*
X040248Y021442D01*
X040195Y021442D02*
X040302Y021442D01*
X040040Y021442D02*
X040040Y021282D01*
X039934Y021335D01*
X039880Y021335D01*
X039827Y021282D01*
X039827Y021175D01*
X039880Y021122D01*
X039987Y021122D01*
X040040Y021175D01*
X040040Y021442D02*
X039827Y021442D01*
X039880Y022622D02*
X039880Y022942D01*
X040040Y022782D01*
X039827Y022782D01*
X040195Y022942D02*
X040302Y022942D01*
X040248Y022942D02*
X040248Y022675D01*
X040302Y022622D01*
X040355Y022622D01*
X040409Y022675D01*
X040563Y022675D02*
X040617Y022622D01*
X040724Y022622D01*
X040777Y022675D01*
X040724Y022782D02*
X040617Y022782D01*
X040563Y022728D01*
X040563Y022675D01*
X040724Y022782D02*
X040777Y022835D01*
X040777Y022889D01*
X040724Y022942D01*
X040617Y022942D01*
X040563Y022889D01*
X040617Y024122D02*
X040724Y024122D01*
X040777Y024175D01*
X040724Y024282D02*
X040617Y024282D01*
X040563Y024228D01*
X040563Y024175D01*
X040617Y024122D01*
X040724Y024282D02*
X040777Y024335D01*
X040777Y024389D01*
X040724Y024442D01*
X040617Y024442D01*
X040563Y024389D01*
X040409Y024175D02*
X040355Y024122D01*
X040302Y024122D01*
X040248Y024175D01*
X040248Y024442D01*
X040195Y024442D02*
X040302Y024442D01*
X040040Y024389D02*
X039987Y024442D01*
X039880Y024442D01*
X039827Y024389D01*
X039827Y024335D01*
X039880Y024282D01*
X039827Y024228D01*
X039827Y024175D01*
X039880Y024122D01*
X039987Y024122D01*
X040040Y024175D01*
X039934Y024282D02*
X039880Y024282D01*
X039827Y025622D02*
X040040Y025622D01*
X039827Y025835D01*
X039827Y025889D01*
X039880Y025942D01*
X039987Y025942D01*
X040040Y025889D01*
X040195Y025942D02*
X040302Y025942D01*
X040248Y025942D02*
X040248Y025675D01*
X040302Y025622D01*
X040355Y025622D01*
X040409Y025675D01*
X040563Y025675D02*
X040617Y025622D01*
X040724Y025622D01*
X040777Y025675D01*
X040724Y025782D02*
X040617Y025782D01*
X040563Y025728D01*
X040563Y025675D01*
X040724Y025782D02*
X040777Y025835D01*
X040777Y025889D01*
X040724Y025942D01*
X040617Y025942D01*
X040563Y025889D01*
X040617Y027122D02*
X040724Y027122D01*
X040777Y027175D01*
X040724Y027282D02*
X040617Y027282D01*
X040563Y027228D01*
X040563Y027175D01*
X040617Y027122D01*
X040724Y027282D02*
X040777Y027335D01*
X040777Y027389D01*
X040724Y027442D01*
X040617Y027442D01*
X040563Y027389D01*
X040409Y027175D02*
X040355Y027122D01*
X040302Y027122D01*
X040248Y027175D01*
X040248Y027442D01*
X040195Y027442D02*
X040302Y027442D01*
X040040Y027335D02*
X039934Y027442D01*
X039934Y027122D01*
X040040Y027122D02*
X039827Y027122D01*
X017617Y023232D02*
X017617Y036432D01*
X009617Y036432D01*
X009617Y023232D01*
X017617Y023232D01*
X013760Y032564D02*
X013814Y032618D01*
X013814Y032671D01*
X013760Y032724D01*
X013653Y032724D01*
X013600Y032671D01*
X013600Y032618D01*
X013653Y032564D01*
X013760Y032564D01*
X013760Y032724D02*
X013814Y032778D01*
X013814Y032831D01*
X013760Y032884D01*
X013653Y032884D01*
X013600Y032831D01*
X013600Y032778D01*
X013653Y032724D01*
X013445Y032724D02*
X013232Y032724D01*
X013232Y032778D02*
X013232Y032564D01*
X013445Y032564D02*
X013445Y032778D01*
X013338Y032884D01*
X013232Y032778D01*
X013482Y035300D02*
X013695Y035300D01*
X013588Y035300D02*
X013588Y035621D01*
X013695Y035514D01*
X013850Y035621D02*
X014064Y035621D01*
X014064Y035300D01*
X014064Y035461D02*
X013957Y035461D01*
M02*
