G75*
%MOIN*%
%OFA0B0*%
%FSLAX24Y24*%
%IPPOS*%
%LPD*%
%AMOC8*
5,1,8,0,0,1.08239X$1,22.5*
%
%ADD10C,0.0160*%
%ADD11C,0.0000*%
%ADD12C,0.0177*%
%ADD13R,0.0500X0.0220*%
%ADD14R,0.0220X0.0500*%
%ADD15R,0.0433X0.0394*%
%ADD16R,0.0217X0.0472*%
%ADD17R,0.0512X0.0591*%
%ADD18R,0.2126X0.1575*%
%ADD19R,0.0906X0.1378*%
%ADD20R,0.0610X0.0669*%
%ADD21R,0.0580X0.0140*%
%ADD22R,0.0315X0.0354*%
%ADD23R,0.1496X0.0551*%
%ADD24R,0.0551X0.1496*%
%ADD25R,0.0472X0.0551*%
%ADD26R,0.0354X0.0374*%
%ADD27R,0.0600X0.0240*%
%ADD28R,0.0500X0.0579*%
D10*
X008367Y005257D02*
X008367Y038903D01*
X008369Y038947D01*
X008375Y038990D01*
X008384Y039032D01*
X008397Y039074D01*
X008414Y039114D01*
X008434Y039153D01*
X008457Y039190D01*
X008484Y039224D01*
X008513Y039257D01*
X008546Y039286D01*
X008580Y039313D01*
X008617Y039336D01*
X008656Y039356D01*
X008696Y039373D01*
X008738Y039386D01*
X008780Y039395D01*
X008823Y039401D01*
X008867Y039403D01*
X046135Y039403D01*
X046179Y039401D01*
X046222Y039395D01*
X046264Y039386D01*
X046306Y039373D01*
X046346Y039356D01*
X046385Y039336D01*
X046422Y039313D01*
X046456Y039286D01*
X046489Y039257D01*
X046518Y039224D01*
X046545Y039190D01*
X046568Y039153D01*
X046588Y039114D01*
X046605Y039074D01*
X046618Y039032D01*
X046627Y038990D01*
X046633Y038947D01*
X046635Y038903D01*
X046635Y005257D01*
X046633Y005213D01*
X046627Y005170D01*
X046618Y005128D01*
X046605Y005086D01*
X046588Y005046D01*
X046568Y005007D01*
X046545Y004970D01*
X046518Y004936D01*
X046489Y004903D01*
X046456Y004874D01*
X046422Y004847D01*
X046385Y004824D01*
X046346Y004804D01*
X046306Y004787D01*
X046264Y004774D01*
X046222Y004765D01*
X046179Y004759D01*
X046135Y004757D01*
X008867Y004757D01*
X008823Y004759D01*
X008780Y004765D01*
X008738Y004774D01*
X008696Y004787D01*
X008656Y004804D01*
X008617Y004824D01*
X008580Y004847D01*
X008546Y004874D01*
X008513Y004903D01*
X008484Y004936D01*
X008457Y004970D01*
X008434Y005007D01*
X008414Y005046D01*
X008397Y005086D01*
X008384Y005128D01*
X008375Y005170D01*
X008369Y005213D01*
X008367Y005257D01*
D11*
X009101Y006212D02*
X009103Y006259D01*
X009109Y006305D01*
X009119Y006351D01*
X009132Y006396D01*
X009150Y006439D01*
X009171Y006481D01*
X009195Y006521D01*
X009223Y006558D01*
X009254Y006593D01*
X009288Y006626D01*
X009324Y006655D01*
X009363Y006681D01*
X009404Y006704D01*
X009447Y006723D01*
X009491Y006739D01*
X009536Y006751D01*
X009582Y006759D01*
X009629Y006763D01*
X009675Y006763D01*
X009722Y006759D01*
X009768Y006751D01*
X009813Y006739D01*
X009857Y006723D01*
X009900Y006704D01*
X009941Y006681D01*
X009980Y006655D01*
X010016Y006626D01*
X010050Y006593D01*
X010081Y006558D01*
X010109Y006521D01*
X010133Y006481D01*
X010154Y006439D01*
X010172Y006396D01*
X010185Y006351D01*
X010195Y006305D01*
X010201Y006259D01*
X010203Y006212D01*
X010201Y006165D01*
X010195Y006119D01*
X010185Y006073D01*
X010172Y006028D01*
X010154Y005985D01*
X010133Y005943D01*
X010109Y005903D01*
X010081Y005866D01*
X010050Y005831D01*
X010016Y005798D01*
X009980Y005769D01*
X009941Y005743D01*
X009900Y005720D01*
X009857Y005701D01*
X009813Y005685D01*
X009768Y005673D01*
X009722Y005665D01*
X009675Y005661D01*
X009629Y005661D01*
X009582Y005665D01*
X009536Y005673D01*
X009491Y005685D01*
X009447Y005701D01*
X009404Y005720D01*
X009363Y005743D01*
X009324Y005769D01*
X009288Y005798D01*
X009254Y005831D01*
X009223Y005866D01*
X009195Y005903D01*
X009171Y005943D01*
X009150Y005985D01*
X009132Y006028D01*
X009119Y006073D01*
X009109Y006119D01*
X009103Y006165D01*
X009101Y006212D01*
X016816Y013932D02*
X016818Y013979D01*
X016824Y014025D01*
X016834Y014071D01*
X016847Y014116D01*
X016865Y014159D01*
X016886Y014201D01*
X016910Y014241D01*
X016938Y014278D01*
X016969Y014313D01*
X017003Y014346D01*
X017039Y014375D01*
X017078Y014401D01*
X017119Y014424D01*
X017162Y014443D01*
X017206Y014459D01*
X017251Y014471D01*
X017297Y014479D01*
X017344Y014483D01*
X017390Y014483D01*
X017437Y014479D01*
X017483Y014471D01*
X017528Y014459D01*
X017572Y014443D01*
X017615Y014424D01*
X017656Y014401D01*
X017695Y014375D01*
X017731Y014346D01*
X017765Y014313D01*
X017796Y014278D01*
X017824Y014241D01*
X017848Y014201D01*
X017869Y014159D01*
X017887Y014116D01*
X017900Y014071D01*
X017910Y014025D01*
X017916Y013979D01*
X017918Y013932D01*
X017916Y013885D01*
X017910Y013839D01*
X017900Y013793D01*
X017887Y013748D01*
X017869Y013705D01*
X017848Y013663D01*
X017824Y013623D01*
X017796Y013586D01*
X017765Y013551D01*
X017731Y013518D01*
X017695Y013489D01*
X017656Y013463D01*
X017615Y013440D01*
X017572Y013421D01*
X017528Y013405D01*
X017483Y013393D01*
X017437Y013385D01*
X017390Y013381D01*
X017344Y013381D01*
X017297Y013385D01*
X017251Y013393D01*
X017206Y013405D01*
X017162Y013421D01*
X017119Y013440D01*
X017078Y013463D01*
X017039Y013489D01*
X017003Y013518D01*
X016969Y013551D01*
X016938Y013586D01*
X016910Y013623D01*
X016886Y013663D01*
X016865Y013705D01*
X016847Y013748D01*
X016834Y013793D01*
X016824Y013839D01*
X016818Y013885D01*
X016816Y013932D01*
X031936Y025502D02*
X031938Y025549D01*
X031944Y025595D01*
X031954Y025641D01*
X031967Y025686D01*
X031985Y025729D01*
X032006Y025771D01*
X032030Y025811D01*
X032058Y025848D01*
X032089Y025883D01*
X032123Y025916D01*
X032159Y025945D01*
X032198Y025971D01*
X032239Y025994D01*
X032282Y026013D01*
X032326Y026029D01*
X032371Y026041D01*
X032417Y026049D01*
X032464Y026053D01*
X032510Y026053D01*
X032557Y026049D01*
X032603Y026041D01*
X032648Y026029D01*
X032692Y026013D01*
X032735Y025994D01*
X032776Y025971D01*
X032815Y025945D01*
X032851Y025916D01*
X032885Y025883D01*
X032916Y025848D01*
X032944Y025811D01*
X032968Y025771D01*
X032989Y025729D01*
X033007Y025686D01*
X033020Y025641D01*
X033030Y025595D01*
X033036Y025549D01*
X033038Y025502D01*
X033036Y025455D01*
X033030Y025409D01*
X033020Y025363D01*
X033007Y025318D01*
X032989Y025275D01*
X032968Y025233D01*
X032944Y025193D01*
X032916Y025156D01*
X032885Y025121D01*
X032851Y025088D01*
X032815Y025059D01*
X032776Y025033D01*
X032735Y025010D01*
X032692Y024991D01*
X032648Y024975D01*
X032603Y024963D01*
X032557Y024955D01*
X032510Y024951D01*
X032464Y024951D01*
X032417Y024955D01*
X032371Y024963D01*
X032326Y024975D01*
X032282Y024991D01*
X032239Y025010D01*
X032198Y025033D01*
X032159Y025059D01*
X032123Y025088D01*
X032089Y025121D01*
X032058Y025156D01*
X032030Y025193D01*
X032006Y025233D01*
X031985Y025275D01*
X031967Y025318D01*
X031954Y025363D01*
X031944Y025409D01*
X031938Y025455D01*
X031936Y025502D01*
X038316Y030232D02*
X038318Y030279D01*
X038324Y030325D01*
X038334Y030371D01*
X038347Y030416D01*
X038365Y030459D01*
X038386Y030501D01*
X038410Y030541D01*
X038438Y030578D01*
X038469Y030613D01*
X038503Y030646D01*
X038539Y030675D01*
X038578Y030701D01*
X038619Y030724D01*
X038662Y030743D01*
X038706Y030759D01*
X038751Y030771D01*
X038797Y030779D01*
X038844Y030783D01*
X038890Y030783D01*
X038937Y030779D01*
X038983Y030771D01*
X039028Y030759D01*
X039072Y030743D01*
X039115Y030724D01*
X039156Y030701D01*
X039195Y030675D01*
X039231Y030646D01*
X039265Y030613D01*
X039296Y030578D01*
X039324Y030541D01*
X039348Y030501D01*
X039369Y030459D01*
X039387Y030416D01*
X039400Y030371D01*
X039410Y030325D01*
X039416Y030279D01*
X039418Y030232D01*
X039416Y030185D01*
X039410Y030139D01*
X039400Y030093D01*
X039387Y030048D01*
X039369Y030005D01*
X039348Y029963D01*
X039324Y029923D01*
X039296Y029886D01*
X039265Y029851D01*
X039231Y029818D01*
X039195Y029789D01*
X039156Y029763D01*
X039115Y029740D01*
X039072Y029721D01*
X039028Y029705D01*
X038983Y029693D01*
X038937Y029685D01*
X038890Y029681D01*
X038844Y029681D01*
X038797Y029685D01*
X038751Y029693D01*
X038706Y029705D01*
X038662Y029721D01*
X038619Y029740D01*
X038578Y029763D01*
X038539Y029789D01*
X038503Y029818D01*
X038469Y029851D01*
X038438Y029886D01*
X038410Y029923D01*
X038386Y029963D01*
X038365Y030005D01*
X038347Y030048D01*
X038334Y030093D01*
X038324Y030139D01*
X038318Y030185D01*
X038316Y030232D01*
X044566Y035832D02*
X044568Y035879D01*
X044574Y035925D01*
X044584Y035971D01*
X044597Y036016D01*
X044615Y036059D01*
X044636Y036101D01*
X044660Y036141D01*
X044688Y036178D01*
X044719Y036213D01*
X044753Y036246D01*
X044789Y036275D01*
X044828Y036301D01*
X044869Y036324D01*
X044912Y036343D01*
X044956Y036359D01*
X045001Y036371D01*
X045047Y036379D01*
X045094Y036383D01*
X045140Y036383D01*
X045187Y036379D01*
X045233Y036371D01*
X045278Y036359D01*
X045322Y036343D01*
X045365Y036324D01*
X045406Y036301D01*
X045445Y036275D01*
X045481Y036246D01*
X045515Y036213D01*
X045546Y036178D01*
X045574Y036141D01*
X045598Y036101D01*
X045619Y036059D01*
X045637Y036016D01*
X045650Y035971D01*
X045660Y035925D01*
X045666Y035879D01*
X045668Y035832D01*
X045666Y035785D01*
X045660Y035739D01*
X045650Y035693D01*
X045637Y035648D01*
X045619Y035605D01*
X045598Y035563D01*
X045574Y035523D01*
X045546Y035486D01*
X045515Y035451D01*
X045481Y035418D01*
X045445Y035389D01*
X045406Y035363D01*
X045365Y035340D01*
X045322Y035321D01*
X045278Y035305D01*
X045233Y035293D01*
X045187Y035285D01*
X045140Y035281D01*
X045094Y035281D01*
X045047Y035285D01*
X045001Y035293D01*
X044956Y035305D01*
X044912Y035321D01*
X044869Y035340D01*
X044828Y035363D01*
X044789Y035389D01*
X044753Y035418D01*
X044719Y035451D01*
X044688Y035486D01*
X044660Y035523D01*
X044636Y035563D01*
X044615Y035605D01*
X044597Y035648D01*
X044584Y035693D01*
X044574Y035739D01*
X044568Y035785D01*
X044566Y035832D01*
X022816Y030232D02*
X022818Y030279D01*
X022824Y030325D01*
X022834Y030371D01*
X022847Y030416D01*
X022865Y030459D01*
X022886Y030501D01*
X022910Y030541D01*
X022938Y030578D01*
X022969Y030613D01*
X023003Y030646D01*
X023039Y030675D01*
X023078Y030701D01*
X023119Y030724D01*
X023162Y030743D01*
X023206Y030759D01*
X023251Y030771D01*
X023297Y030779D01*
X023344Y030783D01*
X023390Y030783D01*
X023437Y030779D01*
X023483Y030771D01*
X023528Y030759D01*
X023572Y030743D01*
X023615Y030724D01*
X023656Y030701D01*
X023695Y030675D01*
X023731Y030646D01*
X023765Y030613D01*
X023796Y030578D01*
X023824Y030541D01*
X023848Y030501D01*
X023869Y030459D01*
X023887Y030416D01*
X023900Y030371D01*
X023910Y030325D01*
X023916Y030279D01*
X023918Y030232D01*
X023916Y030185D01*
X023910Y030139D01*
X023900Y030093D01*
X023887Y030048D01*
X023869Y030005D01*
X023848Y029963D01*
X023824Y029923D01*
X023796Y029886D01*
X023765Y029851D01*
X023731Y029818D01*
X023695Y029789D01*
X023656Y029763D01*
X023615Y029740D01*
X023572Y029721D01*
X023528Y029705D01*
X023483Y029693D01*
X023437Y029685D01*
X023390Y029681D01*
X023344Y029681D01*
X023297Y029685D01*
X023251Y029693D01*
X023206Y029705D01*
X023162Y029721D01*
X023119Y029740D01*
X023078Y029763D01*
X023039Y029789D01*
X023003Y029818D01*
X022969Y029851D01*
X022938Y029886D01*
X022910Y029923D01*
X022886Y029963D01*
X022865Y030005D01*
X022847Y030048D01*
X022834Y030093D01*
X022824Y030139D01*
X022818Y030185D01*
X022816Y030232D01*
X032316Y013932D02*
X032318Y013979D01*
X032324Y014025D01*
X032334Y014071D01*
X032347Y014116D01*
X032365Y014159D01*
X032386Y014201D01*
X032410Y014241D01*
X032438Y014278D01*
X032469Y014313D01*
X032503Y014346D01*
X032539Y014375D01*
X032578Y014401D01*
X032619Y014424D01*
X032662Y014443D01*
X032706Y014459D01*
X032751Y014471D01*
X032797Y014479D01*
X032844Y014483D01*
X032890Y014483D01*
X032937Y014479D01*
X032983Y014471D01*
X033028Y014459D01*
X033072Y014443D01*
X033115Y014424D01*
X033156Y014401D01*
X033195Y014375D01*
X033231Y014346D01*
X033265Y014313D01*
X033296Y014278D01*
X033324Y014241D01*
X033348Y014201D01*
X033369Y014159D01*
X033387Y014116D01*
X033400Y014071D01*
X033410Y014025D01*
X033416Y013979D01*
X033418Y013932D01*
X033416Y013885D01*
X033410Y013839D01*
X033400Y013793D01*
X033387Y013748D01*
X033369Y013705D01*
X033348Y013663D01*
X033324Y013623D01*
X033296Y013586D01*
X033265Y013551D01*
X033231Y013518D01*
X033195Y013489D01*
X033156Y013463D01*
X033115Y013440D01*
X033072Y013421D01*
X033028Y013405D01*
X032983Y013393D01*
X032937Y013385D01*
X032890Y013381D01*
X032844Y013381D01*
X032797Y013385D01*
X032751Y013393D01*
X032706Y013405D01*
X032662Y013421D01*
X032619Y013440D01*
X032578Y013463D01*
X032539Y013489D01*
X032503Y013518D01*
X032469Y013551D01*
X032438Y013586D01*
X032410Y013623D01*
X032386Y013663D01*
X032365Y013705D01*
X032347Y013748D01*
X032334Y013793D01*
X032324Y013839D01*
X032318Y013885D01*
X032316Y013932D01*
D12*
X019580Y020109D02*
X019580Y020109D01*
X020154Y020109D01*
X020154Y020109D01*
X019580Y020109D01*
X019580Y020582D02*
X019580Y020582D01*
X020154Y020582D01*
X020154Y020582D01*
X019580Y020582D01*
X019580Y021054D02*
X019580Y021054D01*
X020154Y021054D01*
X020154Y021054D01*
X019580Y021054D01*
D13*
X023427Y021044D03*
X023427Y020729D03*
X023427Y021359D03*
X023427Y021674D03*
X023427Y021989D03*
X023427Y022304D03*
X023427Y022619D03*
X023427Y022934D03*
X026807Y022934D03*
X026807Y022619D03*
X026807Y022304D03*
X026807Y021989D03*
X026807Y021674D03*
X026807Y021359D03*
X026807Y021044D03*
X026807Y020729D03*
D14*
X026219Y020142D03*
X025904Y020142D03*
X025589Y020142D03*
X025274Y020142D03*
X024959Y020142D03*
X024644Y020142D03*
X024329Y020142D03*
X024015Y020142D03*
X024015Y023522D03*
X024329Y023522D03*
X024644Y023522D03*
X024959Y023522D03*
X025274Y023522D03*
X025589Y023522D03*
X025904Y023522D03*
X026219Y023522D03*
D15*
X029782Y023082D03*
X030452Y023082D03*
X030452Y022082D03*
X029782Y022082D03*
X029782Y021082D03*
X030452Y021082D03*
X030702Y019082D03*
X030032Y019082D03*
X030782Y015832D03*
X031452Y015832D03*
X034282Y015832D03*
X034952Y015832D03*
X034782Y018082D03*
X035452Y018082D03*
X035452Y019082D03*
X034782Y019082D03*
X039532Y018332D03*
X040202Y018332D03*
X041032Y018332D03*
X041702Y018332D03*
X042532Y018332D03*
X043202Y018332D03*
X044032Y018332D03*
X044702Y018332D03*
X044702Y024332D03*
X044032Y024332D03*
X043202Y024332D03*
X042532Y024332D03*
X041702Y024332D03*
X041032Y024332D03*
X040202Y024332D03*
X039532Y024332D03*
X040282Y028332D03*
X040952Y028332D03*
X037452Y028332D03*
X036782Y028332D03*
X033952Y035832D03*
X033282Y035832D03*
X028952Y035832D03*
X028282Y035832D03*
X025452Y028332D03*
X024782Y028332D03*
X021952Y028332D03*
X021282Y028332D03*
X020202Y024582D03*
X019532Y024582D03*
X019532Y022082D03*
X020202Y022082D03*
X014202Y021582D03*
X013532Y021582D03*
X013532Y020582D03*
X014202Y020582D03*
X014202Y019582D03*
X013532Y019582D03*
X013532Y023332D03*
X014202Y023332D03*
X014202Y024332D03*
X013532Y024332D03*
X013532Y025332D03*
X014202Y025332D03*
X013952Y034082D03*
X013282Y034082D03*
X017782Y035582D03*
X018452Y035582D03*
X018782Y015832D03*
X019452Y015832D03*
X015952Y015832D03*
X015282Y015832D03*
X012452Y008082D03*
X011782Y008082D03*
X022282Y008082D03*
X022952Y008082D03*
X027282Y008332D03*
X027952Y008332D03*
X037782Y008332D03*
X038452Y008332D03*
X043032Y036082D03*
X043702Y036082D03*
D16*
X040491Y033594D03*
X039743Y033594D03*
X039743Y032570D03*
X040117Y032570D03*
X040491Y032570D03*
X037991Y032570D03*
X037617Y032570D03*
X037243Y032570D03*
X037243Y033594D03*
X037991Y033594D03*
X024991Y033594D03*
X024243Y033594D03*
X024243Y032570D03*
X024617Y032570D03*
X024991Y032570D03*
X022491Y032570D03*
X022117Y032570D03*
X021743Y032570D03*
X021743Y033594D03*
X022491Y033594D03*
X018991Y011594D03*
X018617Y011594D03*
X018243Y011594D03*
X018243Y010570D03*
X018991Y010570D03*
X016491Y010570D03*
X015743Y010570D03*
X015743Y011594D03*
X016117Y011594D03*
X016491Y011594D03*
X031243Y011844D03*
X031617Y011844D03*
X031991Y011844D03*
X031991Y010820D03*
X031243Y010820D03*
X033743Y010820D03*
X034491Y010820D03*
X034491Y011844D03*
X034117Y011844D03*
X033743Y011844D03*
D17*
X033743Y009582D03*
X034491Y009582D03*
X034491Y008832D03*
X033743Y008832D03*
X031991Y008832D03*
X031243Y008832D03*
X031243Y009582D03*
X031991Y009582D03*
X018991Y009582D03*
X018243Y009582D03*
X018243Y008832D03*
X018991Y008832D03*
X016491Y008832D03*
X015743Y008832D03*
X015743Y009582D03*
X016491Y009582D03*
X021743Y034582D03*
X022491Y034582D03*
X022491Y035332D03*
X021743Y035332D03*
X024243Y035332D03*
X024991Y035332D03*
X024991Y034582D03*
X024243Y034582D03*
X037243Y034582D03*
X037991Y034582D03*
X037991Y035332D03*
X037243Y035332D03*
X039743Y035332D03*
X040491Y035332D03*
X040491Y034582D03*
X039743Y034582D03*
D18*
X044067Y033511D03*
X044067Y029653D03*
X033617Y029653D03*
X033617Y033511D03*
X028617Y033511D03*
X028617Y029653D03*
X018117Y029653D03*
X018117Y033511D03*
X022617Y014511D03*
X022617Y010653D03*
X027617Y010653D03*
X027617Y014511D03*
X038117Y014511D03*
X038117Y010653D03*
X011117Y010653D03*
X011117Y014511D03*
D19*
X015617Y014363D03*
X019117Y014363D03*
X031117Y014363D03*
X034617Y014363D03*
X037117Y029800D03*
X040617Y029800D03*
X025117Y029800D03*
X021617Y029800D03*
D20*
X021617Y031178D03*
X025117Y031178D03*
X037117Y031178D03*
X040617Y031178D03*
X034617Y012985D03*
X031117Y012985D03*
X019117Y012985D03*
X015617Y012985D03*
D21*
X033967Y020422D03*
X033967Y020672D03*
X033967Y020932D03*
X033967Y021182D03*
X033967Y021442D03*
X033967Y021702D03*
X033967Y021952D03*
X033967Y022212D03*
X033967Y022462D03*
X033967Y022722D03*
X033967Y022982D03*
X033967Y023232D03*
X033967Y023492D03*
X033967Y023742D03*
X036267Y023742D03*
X036267Y023492D03*
X036267Y023232D03*
X036267Y022982D03*
X036267Y022722D03*
X036267Y022462D03*
X036267Y022212D03*
X036267Y021952D03*
X036267Y021702D03*
X036267Y021442D03*
X036267Y021182D03*
X036267Y020932D03*
X036267Y020672D03*
X036267Y020422D03*
D22*
X039493Y017475D03*
X040241Y017475D03*
X040993Y017475D03*
X041741Y017475D03*
X042493Y017475D03*
X043241Y017475D03*
X043993Y017475D03*
X044741Y017475D03*
X044367Y016649D03*
X042867Y016649D03*
X041367Y016649D03*
X039867Y016649D03*
X040241Y025188D03*
X039493Y025188D03*
X039867Y026015D03*
X040993Y025188D03*
X041741Y025188D03*
X041367Y026015D03*
X042493Y025188D03*
X042867Y026015D03*
X043241Y025188D03*
X043993Y025188D03*
X044367Y026015D03*
X044741Y025188D03*
D23*
X014548Y017332D03*
X012186Y017332D03*
X011686Y029082D03*
X014048Y029082D03*
D24*
X042117Y009263D03*
X042117Y006901D03*
D25*
X020457Y023332D03*
X019276Y023332D03*
D26*
X014237Y033082D03*
X012997Y033082D03*
D27*
X011447Y033082D03*
X011447Y032582D03*
X011447Y032082D03*
X011447Y033582D03*
X009287Y033582D03*
X009287Y033082D03*
X009287Y032582D03*
X009287Y032082D03*
D28*
X012770Y031832D03*
X014463Y031832D03*
M02*
