G75*
%MOIN*%
%OFA0B0*%
%FSLAX24Y24*%
%IPPOS*%
%LPD*%
%AMOC8*
5,1,8,0,0,1.08239X$1,22.5*
%
%ADD10C,0.0160*%
%ADD11C,0.0000*%
%ADD12OC8,0.0740*%
%ADD13C,0.0740*%
%ADD14OC8,0.1000*%
%ADD15R,0.1000X0.1000*%
%ADD16R,0.0740X0.0740*%
%ADD17C,0.0640*%
%ADD18C,0.1000*%
%ADD19R,0.0460X0.0630*%
%ADD20R,0.1500X0.1500*%
%ADD21C,0.1500*%
%ADD22C,0.0740*%
%ADD23C,0.0317*%
%ADD24C,0.0120*%
%ADD25C,0.0240*%
%ADD26C,0.0400*%
%ADD27C,0.0320*%
D10*
X008367Y005257D02*
X008367Y038903D01*
X008627Y038903D02*
X008632Y038949D01*
X008667Y039036D01*
X008734Y039102D01*
X008820Y039138D01*
X008867Y039143D01*
X046135Y039143D01*
X046181Y039138D01*
X046268Y039102D01*
X046334Y039036D01*
X046370Y038949D01*
X046375Y038903D01*
X046375Y005257D01*
X046370Y005210D01*
X046334Y005124D01*
X046268Y005057D01*
X046181Y005021D01*
X046135Y005017D01*
X008867Y005017D01*
X008820Y005021D01*
X008734Y005057D01*
X008667Y005124D01*
X008632Y005210D01*
X008627Y005257D01*
X008627Y038903D01*
X008627Y038824D02*
X046375Y038824D01*
X046375Y038666D02*
X014247Y038666D01*
X014286Y038647D02*
X014192Y038692D01*
X014093Y038727D01*
X013991Y038750D01*
X013888Y038762D01*
X013883Y038762D01*
X013883Y037880D01*
X013787Y037880D01*
X013787Y037784D01*
X012905Y037784D01*
X012905Y037779D01*
X012917Y037676D01*
X012940Y037574D01*
X012975Y037475D01*
X013020Y037381D01*
X013076Y037293D01*
X013141Y037211D01*
X013215Y037137D01*
X013296Y037072D01*
X013385Y037016D01*
X013479Y036971D01*
X013578Y036937D01*
X013679Y036913D01*
X013783Y036902D01*
X013787Y036902D01*
X013787Y037784D01*
X013883Y037784D01*
X013883Y036902D01*
X013888Y036902D01*
X013991Y036913D01*
X014093Y036937D01*
X014192Y036971D01*
X014286Y037016D01*
X014374Y037072D01*
X014456Y037137D01*
X014530Y037211D01*
X014595Y037293D01*
X014651Y037381D01*
X014696Y037475D01*
X014730Y037574D01*
X014754Y037676D01*
X014765Y037779D01*
X014765Y037784D01*
X013883Y037784D01*
X013883Y037880D01*
X014765Y037880D01*
X014765Y037884D01*
X014754Y037988D01*
X014730Y038090D01*
X014696Y038188D01*
X014651Y038282D01*
X014595Y038371D01*
X014530Y038452D01*
X014456Y038526D01*
X014374Y038591D01*
X014286Y038647D01*
X014475Y038507D02*
X046375Y038507D01*
X046375Y038349D02*
X014609Y038349D01*
X014695Y038190D02*
X016749Y038190D01*
X016707Y038148D02*
X016707Y037015D01*
X016801Y036922D01*
X017247Y036922D01*
X017163Y036887D01*
X017062Y036786D01*
X017007Y036653D01*
X017007Y036010D01*
X017062Y035878D01*
X017163Y035776D01*
X017295Y035722D01*
X022188Y035722D01*
X022321Y035776D01*
X022422Y035878D01*
X022477Y036010D01*
X022477Y036153D01*
X022432Y036262D01*
X022984Y036262D01*
X025596Y033650D01*
X025686Y033560D01*
X025803Y033512D01*
X029234Y033512D01*
X032297Y030449D01*
X032297Y027268D01*
X032346Y027150D01*
X032436Y027060D01*
X032553Y027012D01*
X032681Y027012D01*
X032798Y027060D01*
X032888Y027150D01*
X032937Y027268D01*
X032937Y030645D01*
X032888Y030763D01*
X032798Y030853D01*
X029548Y034103D01*
X029431Y034152D01*
X025999Y034152D01*
X023298Y036853D01*
X023181Y036902D01*
X021749Y036902D01*
X021527Y037124D01*
X021527Y038148D01*
X021433Y038242D01*
X020301Y038242D01*
X020207Y038148D01*
X020207Y037015D01*
X020301Y036922D01*
X020824Y036922D01*
X021304Y036442D01*
X017727Y036442D01*
X017727Y036653D01*
X017672Y036786D01*
X017571Y036887D01*
X017487Y036922D01*
X017933Y036922D01*
X018027Y037015D01*
X018027Y038148D01*
X017933Y038242D01*
X016801Y038242D01*
X016707Y038148D01*
X016707Y038032D02*
X014744Y038032D01*
X014758Y037715D02*
X016707Y037715D01*
X016707Y037873D02*
X013883Y037873D01*
X013787Y037873D02*
X012777Y037873D01*
X012905Y037880D02*
X013787Y037880D01*
X013787Y038762D01*
X013783Y038762D01*
X013679Y038750D01*
X013578Y038727D01*
X013479Y038692D01*
X013385Y038647D01*
X013296Y038591D01*
X013215Y038526D01*
X013141Y038452D01*
X013076Y038371D01*
X013020Y038282D01*
X012975Y038188D01*
X012940Y038090D01*
X012917Y037988D01*
X012905Y037884D01*
X012905Y037880D01*
X012927Y038032D02*
X012777Y038032D01*
X012777Y038190D02*
X012976Y038190D01*
X013062Y038349D02*
X012777Y038349D01*
X012777Y038507D02*
X013196Y038507D01*
X013424Y038666D02*
X012759Y038666D01*
X012777Y038648D02*
X012683Y038742D01*
X011051Y038742D01*
X010957Y038648D01*
X010957Y037015D01*
X011051Y036922D01*
X012683Y036922D01*
X012777Y037015D01*
X012777Y038648D01*
X012777Y037715D02*
X012913Y037715D01*
X012946Y037556D02*
X012777Y037556D01*
X012777Y037398D02*
X013012Y037398D01*
X013118Y037239D02*
X012777Y037239D01*
X012777Y037081D02*
X013285Y037081D01*
X013641Y036922D02*
X012684Y036922D01*
X011917Y036151D02*
X011722Y036232D01*
X011511Y036232D01*
X011317Y036151D01*
X011168Y036002D01*
X011087Y035807D01*
X011087Y034856D01*
X011168Y034661D01*
X011317Y034512D01*
X011511Y034432D01*
X011722Y034432D01*
X011917Y034512D01*
X012066Y034661D01*
X012147Y034856D01*
X012147Y035807D01*
X012066Y036002D01*
X011917Y036151D01*
X011938Y036130D02*
X015295Y036130D01*
X015317Y036151D02*
X015168Y036002D01*
X015087Y035807D01*
X015087Y034856D01*
X015168Y034661D01*
X015317Y034512D01*
X015511Y034432D01*
X015722Y034432D01*
X015917Y034512D01*
X016066Y034661D01*
X016147Y034856D01*
X016147Y035807D01*
X016066Y036002D01*
X015917Y036151D01*
X015722Y036232D01*
X015511Y036232D01*
X015317Y036151D01*
X015155Y035971D02*
X012079Y035971D01*
X012145Y035813D02*
X015089Y035813D01*
X015087Y035654D02*
X012147Y035654D01*
X012147Y035496D02*
X015087Y035496D01*
X015087Y035337D02*
X012147Y035337D01*
X012147Y035179D02*
X015087Y035179D01*
X015087Y035020D02*
X012147Y035020D01*
X012147Y034862D02*
X015087Y034862D01*
X015150Y034703D02*
X012084Y034703D01*
X011949Y034545D02*
X015284Y034545D01*
X015949Y034545D02*
X024701Y034545D01*
X024543Y034703D02*
X016084Y034703D01*
X016147Y034862D02*
X024384Y034862D01*
X024226Y035020D02*
X016147Y035020D01*
X016147Y035179D02*
X024067Y035179D01*
X023909Y035337D02*
X016147Y035337D01*
X016147Y035496D02*
X023750Y035496D01*
X023592Y035654D02*
X016147Y035654D01*
X016145Y035813D02*
X017127Y035813D01*
X017023Y035971D02*
X016079Y035971D01*
X015938Y036130D02*
X017007Y036130D01*
X017007Y036288D02*
X008627Y036288D01*
X008627Y036130D02*
X011295Y036130D01*
X011155Y035971D02*
X008627Y035971D01*
X008627Y035813D02*
X011089Y035813D01*
X011087Y035654D02*
X008627Y035654D01*
X008627Y035496D02*
X011087Y035496D01*
X011087Y035337D02*
X008627Y035337D01*
X008627Y035179D02*
X011087Y035179D01*
X011087Y035020D02*
X008627Y035020D01*
X008627Y034862D02*
X011087Y034862D01*
X011150Y034703D02*
X008627Y034703D01*
X008627Y034545D02*
X011284Y034545D01*
X011050Y036922D02*
X008627Y036922D01*
X008627Y036764D02*
X017053Y036764D01*
X017007Y036605D02*
X008627Y036605D01*
X008627Y036447D02*
X017007Y036447D01*
X016800Y036922D02*
X014030Y036922D01*
X013883Y036922D02*
X013787Y036922D01*
X013787Y037081D02*
X013883Y037081D01*
X013883Y037239D02*
X013787Y037239D01*
X013787Y037398D02*
X013883Y037398D01*
X013883Y037556D02*
X013787Y037556D01*
X013787Y037715D02*
X013883Y037715D01*
X013883Y038032D02*
X013787Y038032D01*
X013787Y038190D02*
X013883Y038190D01*
X013883Y038349D02*
X013787Y038349D01*
X013787Y038507D02*
X013883Y038507D01*
X013883Y038666D02*
X013787Y038666D01*
X014724Y037556D02*
X016707Y037556D01*
X016707Y037398D02*
X014659Y037398D01*
X014552Y037239D02*
X016707Y037239D01*
X016707Y037081D02*
X014385Y037081D01*
X017681Y036764D02*
X020982Y036764D01*
X021141Y036605D02*
X017727Y036605D01*
X017727Y036447D02*
X021299Y036447D01*
X021729Y036922D02*
X022093Y036922D01*
X022094Y036922D02*
X022640Y036922D01*
X023027Y037308D01*
X023027Y037855D01*
X022640Y038242D01*
X022094Y038242D01*
X021707Y037855D01*
X021707Y037308D01*
X022094Y036922D01*
X021934Y037081D02*
X021570Y037081D01*
X021527Y037239D02*
X021776Y037239D01*
X021707Y037398D02*
X021527Y037398D01*
X021527Y037556D02*
X021707Y037556D01*
X021707Y037715D02*
X021527Y037715D01*
X021527Y037873D02*
X021725Y037873D01*
X021884Y038032D02*
X021527Y038032D01*
X021485Y038190D02*
X022042Y038190D01*
X022692Y038190D02*
X023749Y038190D01*
X023707Y038148D02*
X023707Y037015D01*
X023801Y036922D01*
X024047Y036922D01*
X024047Y036768D01*
X024096Y036650D01*
X024186Y036560D01*
X026096Y034650D01*
X026186Y034560D01*
X026303Y034512D01*
X029984Y034512D01*
X033797Y030699D01*
X033797Y027768D01*
X033846Y027650D01*
X033936Y027560D01*
X034053Y027512D01*
X034181Y027512D01*
X034298Y027560D01*
X034388Y027650D01*
X034437Y027768D01*
X034437Y030895D01*
X034388Y031013D01*
X034298Y031103D01*
X030298Y035103D01*
X030181Y035152D01*
X026499Y035152D01*
X024729Y036922D01*
X024933Y036922D01*
X025027Y037015D01*
X025027Y038148D01*
X024933Y038242D01*
X023801Y038242D01*
X023707Y038148D01*
X023707Y038032D02*
X022850Y038032D01*
X023009Y037873D02*
X023707Y037873D01*
X023707Y037715D02*
X023027Y037715D01*
X023027Y037556D02*
X023707Y037556D01*
X023707Y037398D02*
X023027Y037398D01*
X022958Y037239D02*
X023707Y037239D01*
X023707Y037081D02*
X022799Y037081D01*
X022641Y036922D02*
X023800Y036922D01*
X024049Y036764D02*
X023387Y036764D01*
X023546Y036605D02*
X024141Y036605D01*
X024186Y036560D02*
X024186Y036560D01*
X024299Y036447D02*
X023704Y036447D01*
X023863Y036288D02*
X024458Y036288D01*
X024616Y036130D02*
X024021Y036130D01*
X024180Y035971D02*
X024775Y035971D01*
X024933Y035813D02*
X024338Y035813D01*
X024497Y035654D02*
X025092Y035654D01*
X025250Y035496D02*
X024655Y035496D01*
X024814Y035337D02*
X025409Y035337D01*
X025567Y035179D02*
X024972Y035179D01*
X025131Y035020D02*
X025726Y035020D01*
X025884Y034862D02*
X025289Y034862D01*
X025448Y034703D02*
X026043Y034703D01*
X026096Y034650D02*
X026096Y034650D01*
X026223Y034545D02*
X025606Y034545D01*
X025765Y034386D02*
X030110Y034386D01*
X030268Y034228D02*
X025923Y034228D01*
X025494Y033752D02*
X008627Y033752D01*
X008627Y033594D02*
X025652Y033594D01*
X025335Y033911D02*
X008627Y033911D01*
X008627Y034069D02*
X025177Y034069D01*
X025018Y034228D02*
X008627Y034228D01*
X008627Y034386D02*
X024860Y034386D01*
X025997Y035654D02*
X032535Y035654D01*
X032562Y035628D02*
X032562Y035628D01*
X032663Y035526D01*
X032795Y035472D01*
X036438Y035472D01*
X036571Y035526D01*
X036766Y035722D01*
X037688Y035722D01*
X037821Y035776D01*
X037922Y035878D01*
X037977Y036010D01*
X037977Y036153D01*
X037932Y036262D01*
X038234Y036262D01*
X040596Y033900D01*
X040686Y033810D01*
X040803Y033762D01*
X041734Y033762D01*
X042547Y032949D01*
X042547Y026518D01*
X042596Y026400D01*
X042686Y026310D01*
X042803Y026262D01*
X042931Y026262D01*
X043048Y026310D01*
X043138Y026400D01*
X043187Y026518D01*
X043187Y033145D01*
X043138Y033263D01*
X043048Y033353D01*
X042048Y034353D01*
X041931Y034402D01*
X040999Y034402D01*
X038548Y036853D01*
X038431Y036902D01*
X036499Y036902D01*
X036277Y037124D01*
X036277Y038148D01*
X036183Y038242D01*
X035051Y038242D01*
X034957Y038148D01*
X034957Y037015D01*
X035051Y036922D01*
X035574Y036922D01*
X036096Y036400D01*
X036186Y036310D01*
X036292Y036266D01*
X036218Y036192D01*
X033016Y036192D01*
X032821Y036387D01*
X032688Y036442D01*
X032545Y036442D01*
X032413Y036387D01*
X032312Y036286D01*
X032257Y036153D01*
X032257Y036010D01*
X032312Y035878D01*
X032562Y035628D01*
X032737Y035496D02*
X026155Y035496D01*
X026314Y035337D02*
X039159Y035337D01*
X039317Y035179D02*
X026472Y035179D01*
X025838Y035813D02*
X032377Y035813D01*
X032273Y035971D02*
X025680Y035971D01*
X025521Y036130D02*
X032257Y036130D01*
X032314Y036288D02*
X025363Y036288D01*
X025204Y036447D02*
X036049Y036447D01*
X035891Y036605D02*
X025046Y036605D01*
X024887Y036764D02*
X035732Y036764D01*
X036320Y037081D02*
X036684Y037081D01*
X036526Y037239D02*
X036277Y037239D01*
X036277Y037398D02*
X036457Y037398D01*
X036457Y037308D02*
X036844Y036922D01*
X037390Y036922D01*
X037777Y037308D01*
X037777Y037855D01*
X037390Y038242D01*
X036844Y038242D01*
X036457Y037855D01*
X036457Y037308D01*
X036457Y037556D02*
X036277Y037556D01*
X036277Y037715D02*
X036457Y037715D01*
X036475Y037873D02*
X036277Y037873D01*
X036277Y038032D02*
X036634Y038032D01*
X036792Y038190D02*
X036235Y038190D01*
X034999Y038190D02*
X033942Y038190D01*
X033890Y038242D02*
X033344Y038242D01*
X032957Y037855D01*
X032957Y037308D01*
X033344Y036922D01*
X033890Y036922D01*
X034277Y037308D01*
X034277Y037855D01*
X033890Y038242D01*
X034100Y038032D02*
X034957Y038032D01*
X034957Y037873D02*
X034259Y037873D01*
X034277Y037715D02*
X034957Y037715D01*
X034957Y037556D02*
X034277Y037556D01*
X034277Y037398D02*
X034957Y037398D01*
X034957Y037239D02*
X034208Y037239D01*
X034049Y037081D02*
X034957Y037081D01*
X035050Y036922D02*
X033891Y036922D01*
X033343Y036922D02*
X032684Y036922D01*
X032683Y036922D02*
X032777Y037015D01*
X032777Y038148D01*
X032683Y038242D01*
X031551Y038242D01*
X031457Y038148D01*
X031457Y037015D01*
X031551Y036922D01*
X032683Y036922D01*
X032777Y037081D02*
X033184Y037081D01*
X033026Y037239D02*
X032777Y037239D01*
X032777Y037398D02*
X032957Y037398D01*
X032957Y037556D02*
X032777Y037556D01*
X032777Y037715D02*
X032957Y037715D01*
X032975Y037873D02*
X032777Y037873D01*
X032777Y038032D02*
X033134Y038032D01*
X033292Y038190D02*
X032735Y038190D01*
X031499Y038190D02*
X029692Y038190D01*
X029640Y038242D02*
X029094Y038242D01*
X028707Y037855D01*
X028707Y037308D01*
X029094Y036922D01*
X029640Y036922D01*
X030027Y037308D01*
X030027Y037855D01*
X029640Y038242D01*
X029850Y038032D02*
X031457Y038032D01*
X031457Y037873D02*
X030009Y037873D01*
X030027Y037715D02*
X031457Y037715D01*
X031457Y037556D02*
X030027Y037556D01*
X030027Y037398D02*
X031457Y037398D01*
X031457Y037239D02*
X029958Y037239D01*
X029799Y037081D02*
X031457Y037081D01*
X031550Y036922D02*
X029641Y036922D01*
X029093Y036922D02*
X028434Y036922D01*
X028433Y036922D02*
X028527Y037015D01*
X028527Y038148D01*
X028433Y038242D01*
X027301Y038242D01*
X027207Y038148D01*
X027207Y037015D01*
X027301Y036922D01*
X028433Y036922D01*
X028527Y037081D02*
X028934Y037081D01*
X028776Y037239D02*
X028527Y037239D01*
X028527Y037398D02*
X028707Y037398D01*
X028707Y037556D02*
X028527Y037556D01*
X028527Y037715D02*
X028707Y037715D01*
X028725Y037873D02*
X028527Y037873D01*
X028527Y038032D02*
X028884Y038032D01*
X029042Y038190D02*
X028485Y038190D01*
X027249Y038190D02*
X026192Y038190D01*
X026140Y038242D02*
X025594Y038242D01*
X025207Y037855D01*
X025207Y037308D01*
X025594Y036922D01*
X026140Y036922D01*
X026527Y037308D01*
X026527Y037855D01*
X026140Y038242D01*
X026350Y038032D02*
X027207Y038032D01*
X027207Y037873D02*
X026509Y037873D01*
X026527Y037715D02*
X027207Y037715D01*
X027207Y037556D02*
X026527Y037556D01*
X026527Y037398D02*
X027207Y037398D01*
X027207Y037239D02*
X026458Y037239D01*
X026299Y037081D02*
X027207Y037081D01*
X027300Y036922D02*
X026141Y036922D01*
X025593Y036922D02*
X024934Y036922D01*
X025027Y037081D02*
X025434Y037081D01*
X025276Y037239D02*
X025027Y037239D01*
X025027Y037398D02*
X025207Y037398D01*
X025207Y037556D02*
X025027Y037556D01*
X025027Y037715D02*
X025207Y037715D01*
X025225Y037873D02*
X025027Y037873D01*
X025027Y038032D02*
X025384Y038032D01*
X025542Y038190D02*
X024985Y038190D01*
X023116Y036130D02*
X022477Y036130D01*
X022461Y035971D02*
X023275Y035971D01*
X023433Y035813D02*
X022357Y035813D01*
X020300Y036922D02*
X019141Y036922D01*
X019140Y036922D02*
X019527Y037308D01*
X019527Y037855D01*
X019140Y038242D01*
X018594Y038242D01*
X018207Y037855D01*
X018207Y037308D01*
X018594Y036922D01*
X019140Y036922D01*
X019299Y037081D02*
X020207Y037081D01*
X020207Y037239D02*
X019458Y037239D01*
X019527Y037398D02*
X020207Y037398D01*
X020207Y037556D02*
X019527Y037556D01*
X019527Y037715D02*
X020207Y037715D01*
X020207Y037873D02*
X019509Y037873D01*
X019350Y038032D02*
X020207Y038032D01*
X020249Y038190D02*
X019192Y038190D01*
X018542Y038190D02*
X017985Y038190D01*
X018027Y038032D02*
X018384Y038032D01*
X018225Y037873D02*
X018027Y037873D01*
X018027Y037715D02*
X018207Y037715D01*
X018207Y037556D02*
X018027Y037556D01*
X018027Y037398D02*
X018207Y037398D01*
X018276Y037239D02*
X018027Y037239D01*
X018027Y037081D02*
X018434Y037081D01*
X018593Y036922D02*
X017934Y036922D01*
X022847Y032762D02*
X022798Y032645D01*
X022798Y032518D01*
X022847Y032401D01*
X022937Y032312D01*
X023054Y032263D01*
X023124Y032263D01*
X031397Y023991D01*
X031397Y023238D01*
X031387Y023262D01*
X031297Y023352D01*
X031180Y023400D01*
X031110Y023400D01*
X030708Y023802D01*
X027347Y023802D01*
X027297Y023852D01*
X027180Y023900D01*
X027054Y023900D01*
X026937Y023852D01*
X026847Y023762D01*
X026798Y023645D01*
X026798Y023518D01*
X026847Y023401D01*
X026937Y023312D01*
X027054Y023263D01*
X027180Y023263D01*
X027297Y023312D01*
X027347Y023362D01*
X030526Y023362D01*
X030798Y023089D01*
X030798Y023018D01*
X030847Y022901D01*
X030937Y022812D01*
X031054Y022763D01*
X031180Y022763D01*
X031297Y022812D01*
X031387Y022901D01*
X031397Y022926D01*
X031397Y020741D01*
X031526Y020612D01*
X032026Y020112D01*
X032387Y020112D01*
X032437Y020062D01*
X032554Y020013D01*
X032680Y020013D01*
X032797Y020062D01*
X032887Y020151D01*
X032935Y020268D01*
X032935Y020395D01*
X032887Y020512D01*
X032797Y020602D01*
X032680Y020650D01*
X032636Y020650D01*
X032637Y020651D01*
X032685Y020768D01*
X032685Y020895D01*
X032637Y021012D01*
X032567Y021082D01*
X032637Y021151D01*
X032685Y021268D01*
X032685Y021395D01*
X032637Y021512D01*
X032623Y021526D01*
X032654Y021513D01*
X032780Y021513D01*
X032897Y021562D01*
X032987Y021651D01*
X033035Y021768D01*
X033035Y021895D01*
X032987Y022012D01*
X032897Y022102D01*
X032837Y022127D01*
X032837Y023491D01*
X037337Y027991D01*
X037337Y029741D01*
X039958Y032362D01*
X040887Y032362D01*
X040937Y032312D01*
X041054Y032263D01*
X041180Y032263D01*
X041297Y032312D01*
X041387Y032401D01*
X041435Y032518D01*
X041435Y032645D01*
X041387Y032762D01*
X041297Y032852D01*
X041180Y032900D01*
X041054Y032900D01*
X040937Y032852D01*
X040887Y032802D01*
X039776Y032802D01*
X039647Y032673D01*
X039647Y032673D01*
X038587Y031613D01*
X038587Y032851D01*
X038637Y032901D01*
X038685Y033018D01*
X038685Y033145D01*
X038637Y033262D01*
X038547Y033352D01*
X038430Y033400D01*
X038304Y033400D01*
X038187Y033352D01*
X038097Y033262D01*
X038048Y033145D01*
X038048Y033018D01*
X038097Y032901D01*
X038147Y032851D01*
X038147Y031673D01*
X036647Y030173D01*
X036647Y028423D01*
X032087Y023863D01*
X032087Y024423D01*
X027587Y028923D01*
X027587Y031673D01*
X026685Y032574D01*
X026685Y032645D01*
X026637Y032762D01*
X026547Y032852D01*
X026430Y032900D01*
X026304Y032900D01*
X026187Y032852D01*
X026097Y032762D01*
X026048Y032645D01*
X026048Y032518D01*
X026097Y032401D01*
X026187Y032312D01*
X026304Y032263D01*
X026374Y032263D01*
X027147Y031491D01*
X027147Y028863D01*
X023435Y032574D01*
X023435Y032645D01*
X023387Y032762D01*
X023297Y032852D01*
X023180Y032900D01*
X023054Y032900D01*
X022937Y032852D01*
X022847Y032762D01*
X022886Y032801D02*
X008627Y032801D01*
X008627Y032643D02*
X022798Y032643D01*
X022813Y032484D02*
X008627Y032484D01*
X008627Y032326D02*
X022923Y032326D01*
X023220Y032167D02*
X008627Y032167D01*
X008627Y032009D02*
X023379Y032009D01*
X023537Y031850D02*
X008627Y031850D01*
X008627Y031692D02*
X023696Y031692D01*
X023854Y031533D02*
X008627Y031533D01*
X008627Y031375D02*
X024013Y031375D01*
X024171Y031216D02*
X008627Y031216D01*
X008627Y031058D02*
X024330Y031058D01*
X024488Y030899D02*
X023666Y030899D01*
X023781Y030852D02*
X023512Y030963D01*
X023221Y030963D01*
X022953Y030852D01*
X022747Y030646D01*
X022636Y030377D01*
X022636Y030086D01*
X022747Y029818D01*
X022953Y029612D01*
X023221Y029501D01*
X023512Y029501D01*
X023781Y029612D01*
X023987Y029818D01*
X024098Y030086D01*
X024098Y030377D01*
X023987Y030646D01*
X023781Y030852D01*
X023892Y030741D02*
X024647Y030741D01*
X024805Y030582D02*
X024013Y030582D01*
X024079Y030424D02*
X024964Y030424D01*
X025122Y030265D02*
X024098Y030265D01*
X024098Y030107D02*
X025281Y030107D01*
X025439Y029948D02*
X024041Y029948D01*
X023959Y029790D02*
X025598Y029790D01*
X025756Y029631D02*
X023800Y029631D01*
X022933Y029631D02*
X008627Y029631D01*
X008627Y029473D02*
X025915Y029473D01*
X026073Y029314D02*
X008627Y029314D01*
X008627Y029156D02*
X026232Y029156D01*
X026390Y028997D02*
X008627Y028997D01*
X008627Y028839D02*
X026549Y028839D01*
X026707Y028680D02*
X008627Y028680D01*
X008627Y028522D02*
X026866Y028522D01*
X027024Y028363D02*
X008627Y028363D01*
X008627Y028205D02*
X027183Y028205D01*
X027341Y028046D02*
X008627Y028046D01*
X008627Y027888D02*
X027500Y027888D01*
X027658Y027729D02*
X016269Y027729D01*
X016217Y027781D02*
X016022Y027862D01*
X015811Y027862D01*
X015617Y027781D01*
X015468Y027632D01*
X015387Y027437D01*
X015387Y027226D01*
X015468Y027031D01*
X015617Y026882D01*
X015689Y026852D01*
X015517Y026781D01*
X015368Y026632D01*
X015287Y026437D01*
X015287Y026226D01*
X015368Y026031D01*
X015517Y025882D01*
X015689Y025811D01*
X015617Y025781D01*
X015468Y025632D01*
X015387Y025437D01*
X015387Y025226D01*
X015468Y025031D01*
X015617Y024882D01*
X015689Y024852D01*
X015517Y024781D01*
X015368Y024632D01*
X015287Y024437D01*
X015287Y024226D01*
X015368Y024031D01*
X015517Y023882D01*
X015665Y023821D01*
X015629Y023802D01*
X015559Y023751D01*
X015497Y023690D01*
X015446Y023620D01*
X015407Y023543D01*
X015380Y023460D01*
X015367Y023375D01*
X015367Y023352D01*
X015897Y023352D01*
X015897Y023312D01*
X015367Y023312D01*
X015367Y023288D01*
X015380Y023203D01*
X015407Y023121D01*
X015446Y023043D01*
X015497Y022973D01*
X015559Y022912D01*
X015629Y022861D01*
X015644Y022854D01*
X015606Y022841D01*
X015529Y022802D01*
X015459Y022751D01*
X015397Y022690D01*
X015346Y022620D01*
X015307Y022543D01*
X015280Y022460D01*
X015267Y022375D01*
X015267Y022352D01*
X015797Y022352D01*
X015797Y022312D01*
X015267Y022312D01*
X015267Y022288D01*
X015280Y022203D01*
X015307Y022121D01*
X015346Y022043D01*
X015397Y021973D01*
X015459Y021912D01*
X015529Y021861D01*
X015606Y021822D01*
X015688Y021795D01*
X015774Y021782D01*
X015797Y021782D01*
X015797Y022312D01*
X015837Y022312D01*
X015837Y022352D01*
X016367Y022352D01*
X016367Y022375D01*
X016353Y022460D01*
X016327Y022543D01*
X016287Y022620D01*
X016236Y022690D01*
X016175Y022751D01*
X016105Y022802D01*
X016090Y022810D01*
X016128Y022822D01*
X016205Y022861D01*
X016275Y022912D01*
X016336Y022973D01*
X016387Y023043D01*
X016427Y023121D01*
X016453Y023203D01*
X016467Y023288D01*
X016467Y023312D01*
X015937Y023312D01*
X015937Y023352D01*
X016467Y023352D01*
X016467Y023375D01*
X016453Y023460D01*
X016427Y023543D01*
X016387Y023620D01*
X016336Y023690D01*
X016275Y023751D01*
X016205Y023802D01*
X016128Y023841D01*
X016066Y023861D01*
X016117Y023882D01*
X016266Y024031D01*
X016347Y024226D01*
X016347Y024437D01*
X016266Y024632D01*
X016117Y024781D01*
X016045Y024811D01*
X016217Y024882D01*
X016366Y025031D01*
X016447Y025226D01*
X016447Y025437D01*
X016366Y025632D01*
X016217Y025781D01*
X016045Y025852D01*
X016117Y025882D01*
X016266Y026031D01*
X016347Y026226D01*
X016347Y026437D01*
X016266Y026632D01*
X016117Y026781D01*
X016045Y026811D01*
X016217Y026882D01*
X016366Y027031D01*
X016447Y027226D01*
X016447Y027437D01*
X016366Y027632D01*
X016217Y027781D01*
X016392Y027571D02*
X027817Y027571D01*
X027975Y027412D02*
X016447Y027412D01*
X016447Y027254D02*
X028134Y027254D01*
X028292Y027095D02*
X016393Y027095D01*
X016271Y026937D02*
X028451Y026937D01*
X028609Y026778D02*
X016120Y026778D01*
X016271Y026620D02*
X028768Y026620D01*
X028926Y026461D02*
X016337Y026461D01*
X016347Y026303D02*
X029085Y026303D01*
X029243Y026144D02*
X016313Y026144D01*
X016220Y025986D02*
X029402Y025986D01*
X029560Y025827D02*
X016106Y025827D01*
X016329Y025669D02*
X029719Y025669D01*
X029877Y025510D02*
X016417Y025510D01*
X016447Y025352D02*
X030036Y025352D01*
X030194Y025193D02*
X016433Y025193D01*
X016368Y025035D02*
X030353Y025035D01*
X030511Y024876D02*
X016202Y024876D01*
X016180Y024718D02*
X030670Y024718D01*
X030828Y024559D02*
X016296Y024559D01*
X016347Y024401D02*
X030987Y024401D01*
X031145Y024242D02*
X016347Y024242D01*
X016288Y024084D02*
X031304Y024084D01*
X031397Y023925D02*
X016160Y023925D01*
X016254Y023767D02*
X021602Y023767D01*
X021597Y023762D02*
X021548Y023645D01*
X021548Y023574D01*
X019776Y021802D01*
X018097Y021802D01*
X018047Y021852D01*
X017930Y021900D01*
X017804Y021900D01*
X017687Y021852D01*
X017597Y021762D01*
X017548Y021645D01*
X017548Y021518D01*
X017597Y021401D01*
X017687Y021312D01*
X017804Y021263D01*
X017930Y021263D01*
X018047Y021312D01*
X018097Y021362D01*
X019958Y021362D01*
X020087Y021491D01*
X021860Y023263D01*
X021930Y023263D01*
X022047Y023312D01*
X022137Y023401D01*
X022185Y023518D01*
X022185Y023645D01*
X022137Y023762D01*
X022047Y023852D01*
X021930Y023900D01*
X021804Y023900D01*
X021687Y023852D01*
X021597Y023762D01*
X021548Y023608D02*
X016393Y023608D01*
X016455Y023450D02*
X021424Y023450D01*
X021265Y023291D02*
X016467Y023291D01*
X016431Y023133D02*
X021107Y023133D01*
X020948Y022974D02*
X016337Y022974D01*
X016109Y022816D02*
X020790Y022816D01*
X020631Y022657D02*
X016260Y022657D01*
X016341Y022499D02*
X020473Y022499D01*
X020314Y022340D02*
X015837Y022340D01*
X015837Y022312D02*
X016367Y022312D01*
X016367Y022288D01*
X016353Y022203D01*
X016327Y022121D01*
X016287Y022043D01*
X016236Y021973D01*
X016175Y021912D01*
X016105Y021861D01*
X016028Y021822D01*
X015946Y021795D01*
X015860Y021782D01*
X015837Y021782D01*
X015837Y022312D01*
X015797Y022340D02*
X014419Y022340D01*
X014261Y022499D02*
X015293Y022499D01*
X015374Y022657D02*
X010725Y022657D01*
X010777Y022605D02*
X010390Y022992D01*
X009844Y022992D01*
X009457Y022605D01*
X009457Y022058D01*
X009844Y021672D01*
X010390Y021672D01*
X010777Y022058D01*
X010777Y022605D01*
X010777Y022499D02*
X013091Y022499D01*
X013097Y022512D02*
X013048Y022395D01*
X013048Y022268D01*
X013097Y022151D01*
X013187Y022062D01*
X013304Y022013D01*
X013430Y022013D01*
X013547Y022062D01*
X013597Y022112D01*
X014026Y022112D01*
X015397Y020741D01*
X015526Y020612D01*
X025208Y020612D01*
X025860Y021263D01*
X025930Y021263D01*
X026047Y021312D01*
X026137Y021401D01*
X026185Y021518D01*
X026185Y021645D01*
X026137Y021762D01*
X026047Y021852D01*
X025930Y021900D01*
X025804Y021900D01*
X025687Y021852D01*
X025597Y021762D01*
X025548Y021645D01*
X025548Y021574D01*
X025026Y021052D01*
X015708Y021052D01*
X014208Y022552D01*
X013597Y022552D01*
X013547Y022602D01*
X013430Y022650D01*
X013304Y022650D01*
X013187Y022602D01*
X013097Y022512D01*
X013048Y022340D02*
X010777Y022340D01*
X010777Y022182D02*
X013084Y022182D01*
X013280Y022023D02*
X010742Y022023D01*
X010583Y021865D02*
X014273Y021865D01*
X014114Y022023D02*
X013454Y022023D01*
X014431Y021706D02*
X010425Y021706D01*
X010683Y021492D02*
X009551Y021492D01*
X009457Y021398D01*
X009457Y020265D01*
X009551Y020172D01*
X010683Y020172D01*
X010777Y020265D01*
X010777Y021398D01*
X010683Y021492D01*
X010777Y021389D02*
X014748Y021389D01*
X014590Y021548D02*
X008627Y021548D01*
X008627Y021706D02*
X009809Y021706D01*
X009650Y021865D02*
X008627Y021865D01*
X008627Y022023D02*
X009492Y022023D01*
X009457Y022182D02*
X008627Y022182D01*
X008627Y022340D02*
X009457Y022340D01*
X009457Y022499D02*
X008627Y022499D01*
X008627Y022657D02*
X009509Y022657D01*
X009668Y022816D02*
X008627Y022816D01*
X008627Y022974D02*
X009826Y022974D01*
X010408Y022974D02*
X015497Y022974D01*
X015555Y022816D02*
X010566Y022816D01*
X010476Y023542D02*
X010738Y023542D01*
X010981Y023642D01*
X011166Y023828D01*
X011267Y024070D01*
X011267Y024333D01*
X011166Y024576D01*
X010981Y024761D01*
X010738Y024862D01*
X010476Y024862D01*
X010233Y024761D01*
X010107Y024635D01*
X010107Y024787D01*
X010034Y024964D01*
X009899Y025099D01*
X009722Y025172D01*
X009531Y025172D01*
X009355Y025099D01*
X009220Y024964D01*
X009147Y024787D01*
X009147Y024596D01*
X009220Y024420D01*
X009355Y024285D01*
X009531Y024212D01*
X009722Y024212D01*
X009899Y024285D01*
X009947Y024333D01*
X009947Y024070D01*
X010047Y023828D01*
X010233Y023642D01*
X010476Y023542D01*
X010315Y023608D02*
X008627Y023608D01*
X008627Y023450D02*
X015379Y023450D01*
X015367Y023291D02*
X008627Y023291D01*
X008627Y023133D02*
X015403Y023133D01*
X015441Y023608D02*
X010899Y023608D01*
X011105Y023767D02*
X015580Y023767D01*
X015474Y023925D02*
X011207Y023925D01*
X011267Y024084D02*
X015346Y024084D01*
X015287Y024242D02*
X011267Y024242D01*
X011239Y024401D02*
X015287Y024401D01*
X015337Y024559D02*
X011173Y024559D01*
X011024Y024718D02*
X015453Y024718D01*
X015632Y024876D02*
X010070Y024876D01*
X010107Y024718D02*
X010190Y024718D01*
X009963Y025035D02*
X015466Y025035D01*
X015401Y025193D02*
X008627Y025193D01*
X008627Y025035D02*
X009291Y025035D01*
X009184Y024876D02*
X008627Y024876D01*
X008627Y024718D02*
X009147Y024718D01*
X009162Y024559D02*
X008627Y024559D01*
X008627Y024401D02*
X009239Y024401D01*
X009458Y024242D02*
X008627Y024242D01*
X008627Y024084D02*
X009947Y024084D01*
X009947Y024242D02*
X009796Y024242D01*
X010007Y023925D02*
X008627Y023925D01*
X008627Y023767D02*
X010108Y023767D01*
X008627Y025352D02*
X015387Y025352D01*
X015417Y025510D02*
X008627Y025510D01*
X008627Y025669D02*
X015504Y025669D01*
X015650Y025827D02*
X008627Y025827D01*
X008627Y025986D02*
X009505Y025986D01*
X009510Y025984D02*
X009588Y025972D01*
X009607Y025972D01*
X009607Y026452D01*
X009127Y026452D01*
X009127Y026432D01*
X009139Y026355D01*
X009164Y026280D01*
X009199Y026210D01*
X009246Y026146D01*
X009301Y026090D01*
X009365Y026044D01*
X009435Y026008D01*
X009510Y025984D01*
X009607Y025986D02*
X009647Y025986D01*
X009647Y025972D02*
X009666Y025972D01*
X009744Y025984D01*
X009819Y026008D01*
X009889Y026044D01*
X009953Y026090D01*
X010008Y026146D01*
X010055Y026210D01*
X010090Y026280D01*
X010115Y026355D01*
X010127Y026432D01*
X010127Y026452D01*
X009647Y026452D01*
X009647Y026492D01*
X009607Y026492D01*
X009607Y026972D01*
X009588Y026972D01*
X009510Y026959D01*
X009435Y026935D01*
X009365Y026899D01*
X009301Y026853D01*
X009246Y026797D01*
X009199Y026734D01*
X009164Y026664D01*
X009139Y026589D01*
X009127Y026511D01*
X009127Y026492D01*
X009607Y026492D01*
X009607Y026452D01*
X009647Y026452D01*
X009647Y025972D01*
X009749Y025986D02*
X015413Y025986D01*
X015321Y026144D02*
X010007Y026144D01*
X010098Y026303D02*
X010473Y026303D01*
X010476Y026302D02*
X010738Y026302D01*
X010981Y026402D01*
X011166Y026588D01*
X011267Y026830D01*
X011267Y027093D01*
X011166Y027336D01*
X010981Y027521D01*
X010738Y027622D01*
X010476Y027622D01*
X010233Y027521D01*
X010047Y027336D01*
X009947Y027093D01*
X009947Y026857D01*
X009889Y026899D01*
X009819Y026935D01*
X009744Y026959D01*
X009666Y026972D01*
X009647Y026972D01*
X009647Y026492D01*
X010127Y026492D01*
X010127Y026508D01*
X010233Y026402D01*
X010476Y026302D01*
X010741Y026303D02*
X015287Y026303D01*
X015297Y026461D02*
X011040Y026461D01*
X011180Y026620D02*
X015363Y026620D01*
X015514Y026778D02*
X011245Y026778D01*
X011267Y026937D02*
X015562Y026937D01*
X015441Y027095D02*
X011266Y027095D01*
X011200Y027254D02*
X015387Y027254D01*
X015387Y027412D02*
X011090Y027412D01*
X010861Y027571D02*
X015442Y027571D01*
X015565Y027729D02*
X008627Y027729D01*
X008627Y027571D02*
X010353Y027571D01*
X010124Y027412D02*
X008627Y027412D01*
X008627Y027254D02*
X010013Y027254D01*
X009948Y027095D02*
X008627Y027095D01*
X008627Y026937D02*
X009440Y026937D01*
X009607Y026937D02*
X009647Y026937D01*
X009647Y026778D02*
X009607Y026778D01*
X009607Y026620D02*
X009647Y026620D01*
X009647Y026461D02*
X010174Y026461D01*
X009947Y026937D02*
X009814Y026937D01*
X009607Y026461D02*
X008627Y026461D01*
X008627Y026303D02*
X009156Y026303D01*
X009247Y026144D02*
X008627Y026144D01*
X008627Y026620D02*
X009149Y026620D01*
X009232Y026778D02*
X008627Y026778D01*
X009607Y026303D02*
X009647Y026303D01*
X009647Y026144D02*
X009607Y026144D01*
X008627Y029790D02*
X022775Y029790D01*
X022693Y029948D02*
X008627Y029948D01*
X008627Y030107D02*
X022636Y030107D01*
X022636Y030265D02*
X008627Y030265D01*
X008627Y030424D02*
X022655Y030424D01*
X022721Y030582D02*
X008627Y030582D01*
X008627Y030741D02*
X022842Y030741D01*
X023068Y030899D02*
X008627Y030899D01*
X008627Y032960D02*
X029786Y032960D01*
X029628Y033118D02*
X008627Y033118D01*
X008627Y033277D02*
X029469Y033277D01*
X029311Y033435D02*
X008627Y033435D01*
X008627Y037081D02*
X010957Y037081D01*
X010957Y037239D02*
X008627Y037239D01*
X008627Y037398D02*
X010957Y037398D01*
X010957Y037556D02*
X008627Y037556D01*
X008627Y037715D02*
X010957Y037715D01*
X010957Y037873D02*
X008627Y037873D01*
X008627Y038032D02*
X010957Y038032D01*
X010957Y038190D02*
X008627Y038190D01*
X008627Y038349D02*
X010957Y038349D01*
X010957Y038507D02*
X008627Y038507D01*
X008627Y038666D02*
X010975Y038666D01*
X008867Y039403D02*
X008823Y039401D01*
X008780Y039395D01*
X008738Y039386D01*
X008696Y039373D01*
X008656Y039356D01*
X008617Y039336D01*
X008580Y039313D01*
X008546Y039286D01*
X008513Y039257D01*
X008484Y039224D01*
X008457Y039190D01*
X008434Y039153D01*
X008414Y039114D01*
X008397Y039074D01*
X008384Y039032D01*
X008375Y038990D01*
X008369Y038947D01*
X008367Y038903D01*
X008645Y038983D02*
X046356Y038983D01*
X046635Y038903D02*
X046633Y038947D01*
X046627Y038990D01*
X046618Y039032D01*
X046605Y039074D01*
X046588Y039114D01*
X046568Y039153D01*
X046545Y039190D01*
X046518Y039224D01*
X046489Y039257D01*
X046456Y039286D01*
X046422Y039313D01*
X046385Y039336D01*
X046346Y039356D01*
X046306Y039373D01*
X046264Y039386D01*
X046222Y039395D01*
X046179Y039401D01*
X046135Y039403D01*
X008867Y039403D01*
X008854Y039141D02*
X046148Y039141D01*
X046635Y038903D02*
X046635Y005257D01*
X046371Y005222D02*
X008630Y005222D01*
X008627Y005381D02*
X046375Y005381D01*
X046375Y005539D02*
X009939Y005539D01*
X010066Y005592D02*
X010272Y005798D01*
X010383Y006066D01*
X010383Y006357D01*
X010272Y006626D01*
X010066Y006832D01*
X009797Y006943D01*
X009506Y006943D01*
X009238Y006832D01*
X009032Y006626D01*
X008921Y006357D01*
X008921Y006066D01*
X009032Y005798D01*
X009238Y005592D01*
X009506Y005481D01*
X009797Y005481D01*
X010066Y005592D01*
X010172Y005698D02*
X046375Y005698D01*
X046375Y005856D02*
X010296Y005856D01*
X010362Y006015D02*
X011751Y006015D01*
X011844Y005922D02*
X012390Y005922D01*
X012777Y006308D01*
X012777Y006855D01*
X012390Y007242D01*
X011844Y007242D01*
X011457Y006855D01*
X011457Y006308D01*
X011844Y005922D01*
X011592Y006173D02*
X010383Y006173D01*
X010383Y006332D02*
X011457Y006332D01*
X011457Y006490D02*
X010328Y006490D01*
X010249Y006649D02*
X011457Y006649D01*
X011457Y006807D02*
X010090Y006807D01*
X009213Y006807D02*
X008627Y006807D01*
X008627Y006649D02*
X009055Y006649D01*
X008976Y006490D02*
X008627Y006490D01*
X008627Y006332D02*
X008921Y006332D01*
X008921Y006173D02*
X008627Y006173D01*
X008627Y006015D02*
X008942Y006015D01*
X009008Y005856D02*
X008627Y005856D01*
X008627Y005698D02*
X009132Y005698D01*
X009365Y005539D02*
X008627Y005539D01*
X008367Y005257D02*
X008369Y005213D01*
X008375Y005170D01*
X008384Y005128D01*
X008397Y005086D01*
X008414Y005046D01*
X008434Y005007D01*
X008457Y004970D01*
X008484Y004936D01*
X008513Y004903D01*
X008546Y004874D01*
X008580Y004847D01*
X008617Y004824D01*
X008656Y004804D01*
X008696Y004787D01*
X008738Y004774D01*
X008780Y004765D01*
X008823Y004759D01*
X008867Y004757D01*
X046135Y004757D01*
X046274Y005064D02*
X008727Y005064D01*
X008627Y006966D02*
X011568Y006966D01*
X011726Y007124D02*
X008627Y007124D01*
X008627Y007283D02*
X016837Y007283D01*
X016837Y007242D02*
X016551Y007242D01*
X016457Y007148D01*
X016457Y006015D01*
X016551Y005922D01*
X017683Y005922D01*
X017777Y006015D01*
X017777Y007148D01*
X017683Y007242D01*
X017397Y007242D01*
X017397Y007906D01*
X017458Y007844D01*
X017958Y007344D01*
X018061Y007302D01*
X019501Y007302D01*
X019957Y006846D01*
X019957Y006015D01*
X020051Y005922D01*
X021183Y005922D01*
X021277Y006015D01*
X021277Y007148D01*
X021183Y007242D01*
X020353Y007242D01*
X019873Y007722D01*
X023218Y007722D01*
X023413Y007526D01*
X023545Y007472D01*
X023688Y007472D01*
X023821Y007526D01*
X023922Y007628D01*
X023977Y007760D01*
X023977Y007903D01*
X023922Y008036D01*
X023672Y008286D01*
X023571Y008387D01*
X023438Y008442D01*
X018295Y008442D01*
X018163Y008387D01*
X018062Y008286D01*
X018007Y008153D01*
X018007Y008088D01*
X017897Y008198D01*
X017897Y008716D01*
X018483Y009302D01*
X020423Y009302D01*
X020525Y009344D01*
X026233Y015052D01*
X028673Y015052D01*
X028775Y015094D01*
X030483Y016802D01*
X031461Y016802D01*
X031554Y016763D01*
X031680Y016763D01*
X031773Y016802D01*
X031961Y016802D01*
X032054Y016763D01*
X032180Y016763D01*
X032297Y016812D01*
X032387Y016901D01*
X032435Y017018D01*
X032435Y017145D01*
X032387Y017262D01*
X032317Y017332D01*
X032387Y017401D01*
X032435Y017518D01*
X032435Y017645D01*
X032387Y017762D01*
X032297Y017852D01*
X032180Y017900D01*
X032054Y017900D01*
X031961Y017862D01*
X031773Y017862D01*
X031680Y017900D01*
X031554Y017900D01*
X031461Y017862D01*
X030311Y017862D01*
X030208Y017819D01*
X030130Y017740D01*
X028501Y016112D01*
X025811Y016112D01*
X025708Y016069D01*
X025630Y015990D01*
X020001Y010362D01*
X018061Y010362D01*
X017958Y010319D01*
X017880Y010240D01*
X016880Y009240D01*
X016837Y009137D01*
X016837Y007242D01*
X016837Y007441D02*
X008627Y007441D01*
X008627Y007600D02*
X016837Y007600D01*
X016837Y007758D02*
X008627Y007758D01*
X008627Y007917D02*
X016837Y007917D01*
X016837Y008075D02*
X008627Y008075D01*
X008627Y008234D02*
X016837Y008234D01*
X016837Y008392D02*
X008627Y008392D01*
X008627Y008551D02*
X016837Y008551D01*
X016837Y008709D02*
X008627Y008709D01*
X008627Y008868D02*
X016837Y008868D01*
X016837Y009026D02*
X008627Y009026D01*
X008627Y009185D02*
X016856Y009185D01*
X016982Y009343D02*
X008627Y009343D01*
X008627Y009502D02*
X017141Y009502D01*
X017299Y009660D02*
X008627Y009660D01*
X008627Y009819D02*
X017458Y009819D01*
X017616Y009977D02*
X008627Y009977D01*
X008627Y010136D02*
X017775Y010136D01*
X017933Y010294D02*
X008627Y010294D01*
X008627Y010453D02*
X020092Y010453D01*
X020250Y010611D02*
X008627Y010611D01*
X008627Y010770D02*
X020409Y010770D01*
X020567Y010928D02*
X008627Y010928D01*
X008627Y011087D02*
X020726Y011087D01*
X020884Y011245D02*
X008627Y011245D01*
X008627Y011404D02*
X014846Y011404D01*
X014847Y011401D02*
X014937Y011312D01*
X015054Y011263D01*
X015180Y011263D01*
X015297Y011312D01*
X015347Y011362D01*
X016458Y011362D01*
X016587Y011491D01*
X017647Y012551D01*
X017647Y011923D01*
X017624Y011900D01*
X017554Y011900D01*
X017437Y011852D01*
X017347Y011762D01*
X017298Y011645D01*
X017298Y011518D01*
X017347Y011401D01*
X017437Y011312D01*
X017554Y011263D01*
X017680Y011263D01*
X017797Y011312D01*
X017887Y011401D01*
X017935Y011518D01*
X017935Y011589D01*
X018087Y011741D01*
X018087Y012491D01*
X020587Y014991D01*
X020587Y017241D01*
X022958Y019612D01*
X029026Y019612D01*
X029276Y019362D01*
X030458Y019362D01*
X030587Y019491D01*
X030837Y019741D01*
X030837Y019851D01*
X030887Y019901D01*
X030935Y020018D01*
X030935Y020145D01*
X030887Y020262D01*
X030797Y020352D01*
X030773Y020362D01*
X031026Y020362D01*
X031647Y019741D01*
X031647Y019423D01*
X031276Y019052D01*
X027208Y019052D01*
X027087Y019173D01*
X026958Y019302D01*
X024776Y019302D01*
X024086Y018612D01*
X023897Y018612D01*
X023587Y018301D01*
X023587Y017862D01*
X023853Y017596D01*
X023567Y017310D01*
X023567Y017102D01*
X024097Y017102D01*
X024097Y017062D01*
X023567Y017062D01*
X023567Y016854D01*
X023889Y016532D01*
X024097Y016532D01*
X024097Y017062D01*
X024137Y017062D01*
X024137Y016532D01*
X024345Y016532D01*
X024667Y016854D01*
X024667Y016882D01*
X024897Y016652D01*
X025336Y016652D01*
X025587Y016902D01*
X025587Y016862D01*
X025897Y016552D01*
X026336Y016552D01*
X026647Y016862D01*
X026647Y017301D01*
X026366Y017582D01*
X026646Y017862D01*
X026776Y017862D01*
X027147Y017491D01*
X027147Y017312D01*
X027097Y017262D01*
X027048Y017145D01*
X027048Y017018D01*
X027097Y016901D01*
X027187Y016812D01*
X027304Y016763D01*
X027430Y016763D01*
X027547Y016812D01*
X027637Y016901D01*
X027685Y017018D01*
X027685Y017145D01*
X027637Y017262D01*
X027587Y017312D01*
X027587Y017673D01*
X027458Y017802D01*
X026958Y018302D01*
X026646Y018302D01*
X026336Y018612D01*
X025897Y018612D01*
X025647Y018361D01*
X025647Y018401D01*
X025336Y018712D01*
X024897Y018712D01*
X024587Y018401D01*
X024587Y018361D01*
X024522Y018426D01*
X024958Y018862D01*
X026776Y018862D01*
X027026Y018612D01*
X031458Y018612D01*
X031587Y018741D01*
X032087Y019241D01*
X032087Y019923D01*
X031337Y020673D01*
X031208Y020802D01*
X030773Y020802D01*
X030797Y020812D01*
X030887Y020901D01*
X030935Y021018D01*
X030935Y021145D01*
X030887Y021262D01*
X030837Y021312D01*
X030837Y022173D01*
X030435Y022574D01*
X030435Y022645D01*
X030387Y022762D01*
X030297Y022852D01*
X030180Y022900D01*
X030054Y022900D01*
X029937Y022852D01*
X029847Y022762D01*
X029798Y022645D01*
X029798Y022518D01*
X029847Y022401D01*
X029937Y022312D01*
X030054Y022263D01*
X030124Y022263D01*
X030397Y021991D01*
X030397Y021312D01*
X030347Y021262D01*
X030298Y021145D01*
X030298Y021018D01*
X030347Y020901D01*
X030437Y020812D01*
X030461Y020802D01*
X029958Y020802D01*
X027708Y023052D01*
X025347Y023052D01*
X025297Y023102D01*
X025180Y023150D01*
X025054Y023150D01*
X024937Y023102D01*
X024847Y023012D01*
X024798Y022895D01*
X024798Y022768D01*
X024847Y022651D01*
X024937Y022562D01*
X025054Y022513D01*
X025180Y022513D01*
X025297Y022562D01*
X025347Y022612D01*
X027526Y022612D01*
X029278Y020860D01*
X029180Y020900D01*
X029054Y020900D01*
X028937Y020852D01*
X028887Y020802D01*
X027597Y020802D01*
X027547Y020852D01*
X027430Y020900D01*
X027304Y020900D01*
X027187Y020852D01*
X027097Y020762D01*
X027048Y020645D01*
X027048Y020518D01*
X027097Y020401D01*
X027187Y020312D01*
X027211Y020302D01*
X022526Y020302D01*
X020026Y017802D01*
X019897Y017673D01*
X019897Y015423D01*
X016276Y011802D01*
X015347Y011802D01*
X015297Y011852D01*
X015180Y011900D01*
X015054Y011900D01*
X014937Y011852D01*
X014847Y011762D01*
X014798Y011645D01*
X014798Y011518D01*
X014847Y011401D01*
X014798Y011562D02*
X008627Y011562D01*
X008627Y011721D02*
X014830Y011721D01*
X015003Y011879D02*
X008627Y011879D01*
X008627Y012038D02*
X016512Y012038D01*
X016670Y012196D02*
X008627Y012196D01*
X008627Y012355D02*
X016829Y012355D01*
X016987Y012513D02*
X008627Y012513D01*
X008627Y012672D02*
X017146Y012672D01*
X017304Y012830D02*
X008627Y012830D01*
X008627Y012989D02*
X017463Y012989D01*
X017512Y013201D02*
X017221Y013201D01*
X016953Y013312D01*
X016747Y013518D01*
X016636Y013786D01*
X016636Y014077D01*
X016747Y014346D01*
X016953Y014552D01*
X017221Y014663D01*
X017512Y014663D01*
X017781Y014552D01*
X017987Y014346D01*
X018098Y014077D01*
X018098Y013786D01*
X017987Y013518D01*
X017781Y013312D01*
X017512Y013201D01*
X017621Y013147D02*
X008627Y013147D01*
X008627Y013306D02*
X016967Y013306D01*
X016800Y013464D02*
X008627Y013464D01*
X008627Y013623D02*
X016703Y013623D01*
X016638Y013781D02*
X008627Y013781D01*
X008627Y013940D02*
X016636Y013940D01*
X016644Y014098D02*
X008627Y014098D01*
X008627Y014257D02*
X016710Y014257D01*
X016816Y014415D02*
X008627Y014415D01*
X008627Y014574D02*
X017006Y014574D01*
X017728Y014574D02*
X019048Y014574D01*
X019206Y014732D02*
X008627Y014732D01*
X008627Y014891D02*
X019365Y014891D01*
X019523Y015049D02*
X008627Y015049D01*
X008627Y015208D02*
X019682Y015208D01*
X019840Y015366D02*
X008627Y015366D01*
X008627Y015525D02*
X019897Y015525D01*
X019897Y015683D02*
X008627Y015683D01*
X008627Y015842D02*
X019897Y015842D01*
X019897Y016000D02*
X008627Y016000D01*
X008627Y016159D02*
X019897Y016159D01*
X019897Y016317D02*
X008627Y016317D01*
X008627Y016476D02*
X019897Y016476D01*
X019897Y016634D02*
X008627Y016634D01*
X008627Y016793D02*
X009457Y016793D01*
X009457Y016765D02*
X009551Y016672D01*
X010683Y016672D01*
X010777Y016765D01*
X010777Y017898D01*
X010683Y017992D01*
X009551Y017992D01*
X009457Y017898D01*
X009457Y016765D01*
X009457Y016951D02*
X008627Y016951D01*
X008627Y017110D02*
X009457Y017110D01*
X009457Y017268D02*
X008627Y017268D01*
X008627Y017427D02*
X009457Y017427D01*
X009457Y017585D02*
X008627Y017585D01*
X008627Y017744D02*
X009457Y017744D01*
X009461Y017902D02*
X008627Y017902D01*
X008627Y018061D02*
X020285Y018061D01*
X020443Y018219D02*
X010466Y018219D01*
X010399Y018152D02*
X010797Y018550D01*
X010797Y018794D01*
X010155Y018794D01*
X010155Y018870D01*
X010079Y018870D01*
X010079Y019512D01*
X009835Y019512D01*
X009437Y019113D01*
X009437Y018870D01*
X010079Y018870D01*
X010079Y018794D01*
X009437Y018794D01*
X009437Y018550D01*
X009835Y018152D01*
X010079Y018152D01*
X010079Y018794D01*
X010155Y018794D01*
X010155Y018152D01*
X010399Y018152D01*
X010155Y018219D02*
X010079Y018219D01*
X010079Y018378D02*
X010155Y018378D01*
X010155Y018536D02*
X010079Y018536D01*
X010079Y018695D02*
X010155Y018695D01*
X010155Y018853D02*
X021077Y018853D01*
X020919Y018695D02*
X010797Y018695D01*
X010783Y018536D02*
X020760Y018536D01*
X020602Y018378D02*
X010625Y018378D01*
X010773Y017902D02*
X020126Y017902D01*
X019968Y017744D02*
X010777Y017744D01*
X010777Y017585D02*
X019897Y017585D01*
X019897Y017427D02*
X010777Y017427D01*
X010777Y017268D02*
X019897Y017268D01*
X019897Y017110D02*
X010777Y017110D01*
X010777Y016951D02*
X019897Y016951D01*
X019897Y016793D02*
X010777Y016793D01*
X009768Y018219D02*
X008627Y018219D01*
X008627Y018378D02*
X009609Y018378D01*
X009451Y018536D02*
X008627Y018536D01*
X008627Y018695D02*
X009437Y018695D01*
X009437Y019012D02*
X008627Y019012D01*
X008627Y019170D02*
X009494Y019170D01*
X009652Y019329D02*
X008627Y019329D01*
X008627Y019487D02*
X009811Y019487D01*
X010079Y019487D02*
X010155Y019487D01*
X010155Y019512D02*
X010399Y019512D01*
X010797Y019113D01*
X010797Y018870D01*
X010155Y018870D01*
X010155Y019512D01*
X010155Y019329D02*
X010079Y019329D01*
X010079Y019170D02*
X010155Y019170D01*
X010155Y019012D02*
X010079Y019012D01*
X010079Y018853D02*
X008627Y018853D01*
X008627Y019646D02*
X021870Y019646D01*
X022028Y019804D02*
X008627Y019804D01*
X008627Y019963D02*
X022187Y019963D01*
X022345Y020121D02*
X008627Y020121D01*
X008627Y020280D02*
X009457Y020280D01*
X009457Y020438D02*
X008627Y020438D01*
X008627Y020597D02*
X009457Y020597D01*
X009457Y020755D02*
X008627Y020755D01*
X008627Y020914D02*
X009457Y020914D01*
X009457Y021072D02*
X008627Y021072D01*
X008627Y021231D02*
X009457Y021231D01*
X009457Y021389D02*
X008627Y021389D01*
X010423Y019487D02*
X021711Y019487D01*
X021553Y019329D02*
X010582Y019329D01*
X010740Y019170D02*
X021394Y019170D01*
X021236Y019012D02*
X010797Y019012D01*
X010777Y020280D02*
X022504Y020280D01*
X022834Y019487D02*
X029150Y019487D01*
X030584Y019487D02*
X031647Y019487D01*
X031647Y019646D02*
X030742Y019646D01*
X030837Y019804D02*
X031583Y019804D01*
X031425Y019963D02*
X030912Y019963D01*
X030935Y020121D02*
X031266Y020121D01*
X031108Y020280D02*
X030869Y020280D01*
X031254Y020755D02*
X031397Y020755D01*
X031397Y020914D02*
X030892Y020914D01*
X030935Y021072D02*
X031397Y021072D01*
X031397Y021231D02*
X030900Y021231D01*
X030837Y021389D02*
X031397Y021389D01*
X031397Y021548D02*
X030837Y021548D01*
X030837Y021706D02*
X031397Y021706D01*
X031397Y021865D02*
X030837Y021865D01*
X030837Y022023D02*
X031397Y022023D01*
X031397Y022182D02*
X030828Y022182D01*
X030669Y022340D02*
X031397Y022340D01*
X031397Y022499D02*
X030511Y022499D01*
X030430Y022657D02*
X031397Y022657D01*
X031397Y022816D02*
X031301Y022816D01*
X030933Y022816D02*
X030333Y022816D01*
X029901Y022816D02*
X027944Y022816D01*
X027785Y022974D02*
X030817Y022974D01*
X030755Y023133D02*
X025222Y023133D01*
X025012Y023133D02*
X021729Y023133D01*
X021571Y022974D02*
X024831Y022974D01*
X024798Y022816D02*
X021412Y022816D01*
X021254Y022657D02*
X024844Y022657D01*
X025718Y021865D02*
X020461Y021865D01*
X020620Y022023D02*
X028114Y022023D01*
X027956Y022182D02*
X020778Y022182D01*
X020937Y022340D02*
X027797Y022340D01*
X027639Y022499D02*
X021095Y022499D01*
X020156Y022182D02*
X016346Y022182D01*
X016273Y022023D02*
X019997Y022023D01*
X019839Y021865D02*
X018016Y021865D01*
X017718Y021865D02*
X016110Y021865D01*
X015837Y021865D02*
X015797Y021865D01*
X015797Y022023D02*
X015837Y022023D01*
X015837Y022182D02*
X015797Y022182D01*
X015524Y021865D02*
X014895Y021865D01*
X014736Y022023D02*
X015361Y022023D01*
X015287Y022182D02*
X014578Y022182D01*
X015053Y021706D02*
X017574Y021706D01*
X017548Y021548D02*
X015212Y021548D01*
X015370Y021389D02*
X017609Y021389D01*
X015687Y021072D02*
X025046Y021072D01*
X025205Y021231D02*
X015529Y021231D01*
X015224Y020914D02*
X010777Y020914D01*
X010777Y021072D02*
X015065Y021072D01*
X014907Y021231D02*
X010777Y021231D01*
X010777Y020755D02*
X015382Y020755D01*
X010777Y020597D02*
X027048Y020597D01*
X027082Y020438D02*
X010777Y020438D01*
X017917Y014415D02*
X018889Y014415D01*
X018731Y014257D02*
X018024Y014257D01*
X018089Y014098D02*
X018572Y014098D01*
X018414Y013940D02*
X018098Y013940D01*
X018096Y013781D02*
X018255Y013781D01*
X018097Y013623D02*
X018030Y013623D01*
X017938Y013464D02*
X017933Y013464D01*
X017780Y013306D02*
X017766Y013306D01*
X018427Y012830D02*
X022469Y012830D01*
X022311Y012672D02*
X018268Y012672D01*
X018110Y012513D02*
X022152Y012513D01*
X021994Y012355D02*
X018087Y012355D01*
X018087Y012196D02*
X021835Y012196D01*
X021677Y012038D02*
X018087Y012038D01*
X018087Y011879D02*
X021518Y011879D01*
X021360Y011721D02*
X018067Y011721D01*
X017935Y011562D02*
X021201Y011562D01*
X021043Y011404D02*
X017888Y011404D01*
X017346Y011404D02*
X016500Y011404D01*
X016659Y011562D02*
X017298Y011562D01*
X017330Y011721D02*
X016817Y011721D01*
X016976Y011879D02*
X017503Y011879D01*
X017647Y012038D02*
X017134Y012038D01*
X017293Y012196D02*
X017647Y012196D01*
X017647Y012355D02*
X017451Y012355D01*
X017610Y012513D02*
X017647Y012513D01*
X018585Y012989D02*
X022628Y012989D01*
X022786Y013147D02*
X018744Y013147D01*
X018902Y013306D02*
X022945Y013306D01*
X023103Y013464D02*
X019061Y013464D01*
X019219Y013623D02*
X023262Y013623D01*
X023420Y013781D02*
X019378Y013781D01*
X019536Y013940D02*
X023579Y013940D01*
X023737Y014098D02*
X019695Y014098D01*
X019853Y014257D02*
X023896Y014257D01*
X024054Y014415D02*
X020012Y014415D01*
X020170Y014574D02*
X024213Y014574D01*
X024371Y014732D02*
X020329Y014732D01*
X020487Y014891D02*
X024530Y014891D01*
X024688Y015049D02*
X020587Y015049D01*
X020587Y015208D02*
X024847Y015208D01*
X025005Y015366D02*
X020587Y015366D01*
X020587Y015525D02*
X025164Y015525D01*
X025322Y015683D02*
X020587Y015683D01*
X020587Y015842D02*
X025481Y015842D01*
X025639Y016000D02*
X020587Y016000D01*
X020587Y016159D02*
X028548Y016159D01*
X028706Y016317D02*
X020587Y016317D01*
X020587Y016476D02*
X028865Y016476D01*
X029023Y016634D02*
X026419Y016634D01*
X026577Y016793D02*
X027232Y016793D01*
X027076Y016951D02*
X026647Y016951D01*
X026647Y017110D02*
X027048Y017110D01*
X027103Y017268D02*
X026647Y017268D01*
X026521Y017427D02*
X027147Y017427D01*
X027052Y017585D02*
X026370Y017585D01*
X026528Y017744D02*
X026894Y017744D01*
X027199Y018061D02*
X033147Y018061D01*
X033147Y018219D02*
X027040Y018219D01*
X027357Y017902D02*
X033147Y017902D01*
X033147Y017744D02*
X032394Y017744D01*
X032435Y017585D02*
X033147Y017585D01*
X033147Y017427D02*
X032397Y017427D01*
X032381Y017268D02*
X033147Y017268D01*
X033147Y017173D02*
X030026Y014052D01*
X029897Y013923D01*
X029897Y012241D01*
X030298Y011839D01*
X030298Y011768D01*
X030347Y011651D01*
X030437Y011562D01*
X030554Y011513D01*
X030680Y011513D01*
X030797Y011562D01*
X030887Y011651D01*
X030935Y011768D01*
X030935Y011895D01*
X030887Y012012D01*
X030797Y012102D01*
X030680Y012150D01*
X030610Y012150D01*
X030337Y012423D01*
X030337Y013741D01*
X031647Y015051D01*
X031647Y012991D01*
X032798Y011839D01*
X032798Y011768D01*
X032847Y011651D01*
X032937Y011562D01*
X033054Y011513D01*
X033180Y011513D01*
X033297Y011562D01*
X033387Y011651D01*
X033435Y011768D01*
X033435Y011895D01*
X033387Y012012D01*
X033297Y012102D01*
X033180Y012150D01*
X033110Y012150D01*
X032087Y013173D01*
X032087Y014991D01*
X033837Y016741D01*
X033837Y017926D01*
X033847Y017901D01*
X033937Y017812D01*
X034054Y017763D01*
X034180Y017763D01*
X034297Y017812D01*
X034347Y017862D01*
X036958Y017862D01*
X037087Y017991D01*
X037958Y018862D01*
X038877Y018862D01*
X038877Y018700D01*
X038971Y018607D01*
X039047Y018607D01*
X039047Y018341D01*
X039397Y017991D01*
X039526Y017862D01*
X040708Y017862D01*
X041458Y018612D01*
X041587Y018741D01*
X041587Y027173D01*
X041337Y027423D01*
X041208Y027552D01*
X039526Y027552D01*
X039276Y027302D01*
X039147Y027173D01*
X039147Y027057D01*
X038971Y027057D01*
X038877Y026963D01*
X038877Y026200D01*
X038971Y026107D01*
X039563Y026107D01*
X039567Y026110D01*
X039571Y026107D01*
X039581Y026107D01*
X039526Y026052D01*
X036526Y026052D01*
X036397Y025923D01*
X034874Y024400D01*
X034804Y024400D01*
X034687Y024352D01*
X034597Y024262D01*
X034548Y024145D01*
X034548Y024018D01*
X034597Y023901D01*
X034667Y023832D01*
X034597Y023762D01*
X034548Y023645D01*
X034548Y023518D01*
X034597Y023401D01*
X034667Y023332D01*
X034597Y023262D01*
X034548Y023145D01*
X034548Y023018D01*
X034597Y022901D01*
X034667Y022832D01*
X034597Y022762D01*
X034548Y022645D01*
X034548Y022518D01*
X034597Y022401D01*
X034667Y022332D01*
X034597Y022262D01*
X034548Y022145D01*
X034548Y022018D01*
X034597Y021901D01*
X034687Y021812D01*
X034804Y021763D01*
X034930Y021763D01*
X035047Y021812D01*
X035097Y021862D01*
X035211Y021862D01*
X035187Y021852D01*
X035097Y021762D01*
X035048Y021645D01*
X035048Y021518D01*
X035097Y021401D01*
X035187Y021312D01*
X035304Y021263D01*
X035374Y021263D01*
X036897Y019741D01*
X037026Y019612D01*
X039526Y019612D01*
X039581Y019557D01*
X039571Y019557D01*
X039567Y019553D01*
X039563Y019557D01*
X038971Y019557D01*
X038877Y019463D01*
X038877Y019302D01*
X037776Y019302D01*
X036776Y018302D01*
X034347Y018302D01*
X034297Y018352D01*
X034180Y018400D01*
X034054Y018400D01*
X033937Y018352D01*
X033847Y018262D01*
X033837Y018238D01*
X033837Y018991D01*
X034360Y019513D01*
X034430Y019513D01*
X034547Y019562D01*
X034637Y019651D01*
X034685Y019768D01*
X034685Y019895D01*
X034637Y020012D01*
X034547Y020102D01*
X034430Y020150D01*
X034304Y020150D01*
X034187Y020102D01*
X034097Y020012D01*
X034048Y019895D01*
X034048Y019824D01*
X033587Y019363D01*
X033587Y021601D01*
X033637Y021651D01*
X033685Y021768D01*
X033685Y021895D01*
X033637Y022012D01*
X033547Y022102D01*
X033430Y022150D01*
X033304Y022150D01*
X033187Y022102D01*
X033097Y022012D01*
X033048Y021895D01*
X033048Y021768D01*
X033097Y021651D01*
X033147Y021601D01*
X033147Y017173D01*
X033084Y017110D02*
X032435Y017110D01*
X032408Y016951D02*
X032925Y016951D01*
X032767Y016793D02*
X032251Y016793D01*
X031982Y016793D02*
X031751Y016793D01*
X031482Y016793D02*
X030474Y016793D01*
X030315Y016634D02*
X032608Y016634D01*
X032450Y016476D02*
X030157Y016476D01*
X029998Y016317D02*
X032291Y016317D01*
X032133Y016159D02*
X029840Y016159D01*
X029681Y016000D02*
X031974Y016000D01*
X031816Y015842D02*
X029523Y015842D01*
X029364Y015683D02*
X031657Y015683D01*
X031499Y015525D02*
X029206Y015525D01*
X029047Y015366D02*
X031340Y015366D01*
X031182Y015208D02*
X028889Y015208D01*
X030072Y014098D02*
X025279Y014098D01*
X025121Y013940D02*
X029914Y013940D01*
X029897Y013781D02*
X024962Y013781D01*
X024804Y013623D02*
X029897Y013623D01*
X029897Y013464D02*
X024645Y013464D01*
X024487Y013306D02*
X029897Y013306D01*
X029897Y013147D02*
X026687Y013147D01*
X026680Y013150D02*
X026554Y013150D01*
X026437Y013102D01*
X026347Y013012D01*
X026298Y012895D01*
X026298Y012768D01*
X026339Y012671D01*
X026185Y012824D01*
X026185Y012895D01*
X026137Y013012D01*
X026047Y013102D01*
X025930Y013150D01*
X025804Y013150D01*
X025687Y013102D01*
X025597Y013012D01*
X025548Y012895D01*
X025548Y012768D01*
X025597Y012651D01*
X025687Y012562D01*
X025804Y012513D01*
X025874Y012513D01*
X023694Y012513D01*
X023536Y012355D02*
X026033Y012355D01*
X026191Y012196D02*
X023377Y012196D01*
X023219Y012038D02*
X025373Y012038D01*
X025347Y012012D02*
X025298Y011895D01*
X025298Y011768D01*
X025347Y011651D01*
X025437Y011562D01*
X025554Y011513D01*
X025624Y011513D01*
X027276Y009862D01*
X044208Y009862D01*
X044337Y009991D01*
X045123Y010776D01*
X045147Y010752D01*
X045586Y010752D01*
X045897Y011062D01*
X045897Y011501D01*
X045666Y011732D01*
X045761Y011732D01*
X045806Y011744D01*
X045847Y011768D01*
X045881Y011801D01*
X045905Y011842D01*
X045917Y011888D01*
X045917Y012273D01*
X045375Y012273D01*
X045375Y012290D01*
X045358Y012290D01*
X045358Y012832D01*
X044973Y012832D01*
X044927Y012819D01*
X044886Y012796D01*
X044853Y012762D01*
X044829Y012721D01*
X044818Y012680D01*
X044586Y012912D01*
X044348Y012912D01*
X044087Y013173D01*
X043958Y013302D01*
X037776Y013302D01*
X035526Y011052D01*
X029458Y011052D01*
X028185Y012324D01*
X028185Y012395D01*
X028137Y012512D01*
X028047Y012602D01*
X027930Y012650D01*
X027804Y012650D01*
X027687Y012602D01*
X027597Y012512D01*
X027548Y012395D01*
X027548Y012268D01*
X027589Y012171D01*
X026935Y012824D01*
X026935Y012895D01*
X026887Y013012D01*
X026797Y013102D01*
X026680Y013150D01*
X026547Y013147D02*
X025937Y013147D01*
X025797Y013147D02*
X024328Y013147D01*
X024170Y012989D02*
X025587Y012989D01*
X025548Y012830D02*
X024011Y012830D01*
X023853Y012672D02*
X025588Y012672D01*
X025874Y012513D02*
X028086Y010302D01*
X027458Y010302D01*
X025935Y011824D01*
X025935Y011895D01*
X025887Y012012D01*
X025797Y012102D01*
X025680Y012150D01*
X025554Y012150D01*
X025437Y012102D01*
X025347Y012012D01*
X025298Y011879D02*
X023060Y011879D01*
X022902Y011721D02*
X025318Y011721D01*
X025436Y011562D02*
X022743Y011562D01*
X022585Y011404D02*
X025734Y011404D01*
X025892Y011245D02*
X022426Y011245D01*
X022268Y011087D02*
X026051Y011087D01*
X026209Y010928D02*
X022109Y010928D01*
X021951Y010770D02*
X026368Y010770D01*
X026526Y010611D02*
X021792Y010611D01*
X021634Y010453D02*
X026685Y010453D01*
X026843Y010294D02*
X021475Y010294D01*
X021317Y010136D02*
X027002Y010136D01*
X027160Y009977D02*
X021158Y009977D01*
X021000Y009819D02*
X046375Y009819D01*
X046375Y009977D02*
X044324Y009977D01*
X044482Y010136D02*
X046375Y010136D01*
X046375Y010294D02*
X044641Y010294D01*
X044799Y010453D02*
X046375Y010453D01*
X046375Y010611D02*
X044958Y010611D01*
X045116Y010770D02*
X045129Y010770D01*
X045604Y010770D02*
X046375Y010770D01*
X046375Y010928D02*
X045763Y010928D01*
X045897Y011087D02*
X046375Y011087D01*
X046375Y011245D02*
X045897Y011245D01*
X045897Y011404D02*
X046375Y011404D01*
X046375Y011562D02*
X045836Y011562D01*
X045677Y011721D02*
X046375Y011721D01*
X046375Y011879D02*
X045915Y011879D01*
X045917Y012038D02*
X046375Y012038D01*
X046375Y012196D02*
X045917Y012196D01*
X045917Y012290D02*
X045917Y012675D01*
X045905Y012721D01*
X045881Y012762D01*
X045847Y012796D01*
X045806Y012819D01*
X045761Y012832D01*
X045375Y012832D01*
X045375Y012290D01*
X045917Y012290D01*
X045917Y012355D02*
X046375Y012355D01*
X046375Y012513D02*
X045917Y012513D01*
X045917Y012672D02*
X046375Y012672D01*
X046375Y012830D02*
X045766Y012830D01*
X045375Y012830D02*
X045358Y012830D01*
X045358Y012672D02*
X045375Y012672D01*
X045358Y012513D02*
X045375Y012513D01*
X045358Y012355D02*
X045375Y012355D01*
X044968Y012830D02*
X044668Y012830D01*
X044271Y012989D02*
X046375Y012989D01*
X046375Y013147D02*
X044113Y013147D01*
X042979Y013798D02*
X043022Y013901D01*
X043022Y014012D01*
X042979Y014115D01*
X042925Y014169D01*
X042887Y014262D01*
X042797Y014352D01*
X042704Y014390D01*
X042675Y014419D01*
X042637Y014512D01*
X042547Y014602D01*
X042454Y014640D01*
X038925Y018169D01*
X038887Y018262D01*
X038797Y018352D01*
X038680Y018400D01*
X038554Y018400D01*
X038461Y018362D01*
X038273Y018362D01*
X038180Y018400D01*
X038054Y018400D01*
X037937Y018352D01*
X037847Y018262D01*
X037798Y018145D01*
X037798Y018018D01*
X037847Y017901D01*
X037937Y017812D01*
X038054Y017763D01*
X038180Y017763D01*
X038273Y017802D01*
X038461Y017802D01*
X038529Y017773D01*
X042059Y014244D01*
X042097Y014151D01*
X042187Y014062D01*
X042279Y014023D01*
X042309Y013994D01*
X042347Y013901D01*
X042437Y013812D01*
X042529Y013773D01*
X042583Y013719D01*
X042686Y013677D01*
X042798Y013677D01*
X042900Y013719D01*
X042979Y013798D01*
X042962Y013781D02*
X046375Y013781D01*
X046375Y013623D02*
X033530Y013623D01*
X033487Y013518D02*
X033598Y013786D01*
X033598Y014077D01*
X033487Y014346D01*
X033281Y014552D01*
X033012Y014663D01*
X032721Y014663D01*
X032453Y014552D01*
X032247Y014346D01*
X032136Y014077D01*
X032136Y013786D01*
X032247Y013518D01*
X032453Y013312D01*
X032721Y013201D01*
X033012Y013201D01*
X033281Y013312D01*
X033487Y013518D01*
X033433Y013464D02*
X046375Y013464D01*
X046375Y013306D02*
X033266Y013306D01*
X033596Y013781D02*
X042510Y013781D01*
X042331Y013940D02*
X033598Y013940D01*
X033589Y014098D02*
X042150Y014098D01*
X042046Y014257D02*
X033524Y014257D01*
X033417Y014415D02*
X041887Y014415D01*
X041729Y014574D02*
X033228Y014574D01*
X032506Y014574D02*
X032087Y014574D01*
X032087Y014732D02*
X041570Y014732D01*
X041412Y014891D02*
X032087Y014891D01*
X032146Y015049D02*
X041253Y015049D01*
X041095Y015208D02*
X032304Y015208D01*
X032463Y015366D02*
X040936Y015366D01*
X040778Y015525D02*
X032621Y015525D01*
X032780Y015683D02*
X040619Y015683D01*
X040461Y015842D02*
X032938Y015842D01*
X033097Y016000D02*
X040302Y016000D01*
X040144Y016159D02*
X033255Y016159D01*
X033414Y016317D02*
X039985Y016317D01*
X039827Y016476D02*
X033572Y016476D01*
X033731Y016634D02*
X039668Y016634D01*
X039510Y016793D02*
X033837Y016793D01*
X033837Y016951D02*
X039351Y016951D01*
X039193Y017110D02*
X033837Y017110D01*
X033837Y017268D02*
X039034Y017268D01*
X038876Y017427D02*
X033837Y017427D01*
X033837Y017585D02*
X038717Y017585D01*
X038559Y017744D02*
X033837Y017744D01*
X033837Y017902D02*
X033847Y017902D01*
X033837Y018378D02*
X033999Y018378D01*
X033837Y018536D02*
X037010Y018536D01*
X036852Y018378D02*
X034234Y018378D01*
X033837Y018695D02*
X037169Y018695D01*
X037327Y018853D02*
X033837Y018853D01*
X033858Y019012D02*
X037486Y019012D01*
X037644Y019170D02*
X034017Y019170D01*
X034175Y019329D02*
X038877Y019329D01*
X038901Y019487D02*
X034334Y019487D01*
X034631Y019646D02*
X036992Y019646D01*
X036833Y019804D02*
X034685Y019804D01*
X034657Y019963D02*
X036675Y019963D01*
X036516Y020121D02*
X034500Y020121D01*
X034234Y020121D02*
X033587Y020121D01*
X033587Y019963D02*
X034077Y019963D01*
X034028Y019804D02*
X033587Y019804D01*
X033587Y019646D02*
X033870Y019646D01*
X033711Y019487D02*
X033587Y019487D01*
X033147Y019487D02*
X032087Y019487D01*
X032087Y019329D02*
X033147Y019329D01*
X033147Y019170D02*
X032017Y019170D01*
X031858Y019012D02*
X033147Y019012D01*
X033147Y018853D02*
X031700Y018853D01*
X031541Y018695D02*
X033147Y018695D01*
X033147Y018536D02*
X026412Y018536D01*
X026570Y018378D02*
X033147Y018378D01*
X033147Y019646D02*
X032087Y019646D01*
X032087Y019804D02*
X033147Y019804D01*
X033147Y019963D02*
X032047Y019963D01*
X032016Y020121D02*
X031888Y020121D01*
X031858Y020280D02*
X031730Y020280D01*
X031699Y020438D02*
X031571Y020438D01*
X031541Y020597D02*
X031413Y020597D01*
X030342Y020914D02*
X029846Y020914D01*
X029687Y021072D02*
X030298Y021072D01*
X030334Y021231D02*
X029529Y021231D01*
X029370Y021389D02*
X030397Y021389D01*
X030397Y021548D02*
X029212Y021548D01*
X029053Y021706D02*
X030397Y021706D01*
X030397Y021865D02*
X028895Y021865D01*
X028736Y022023D02*
X030364Y022023D01*
X030206Y022182D02*
X028578Y022182D01*
X028419Y022340D02*
X029908Y022340D01*
X029807Y022499D02*
X028261Y022499D01*
X028102Y022657D02*
X029804Y022657D01*
X030596Y023291D02*
X027248Y023291D01*
X026986Y023291D02*
X021998Y023291D01*
X022157Y023450D02*
X026827Y023450D01*
X026798Y023608D02*
X022185Y023608D01*
X022132Y023767D02*
X026852Y023767D01*
X026016Y021865D02*
X028273Y021865D01*
X028431Y021706D02*
X026160Y021706D01*
X026185Y021548D02*
X028590Y021548D01*
X028748Y021389D02*
X026125Y021389D01*
X025827Y021231D02*
X028907Y021231D01*
X029065Y021072D02*
X025669Y021072D01*
X025510Y020914D02*
X029224Y020914D01*
X027089Y019170D02*
X031394Y019170D01*
X031553Y019329D02*
X022675Y019329D01*
X022517Y019170D02*
X024644Y019170D01*
X024486Y019012D02*
X022358Y019012D01*
X022200Y018853D02*
X024327Y018853D01*
X024169Y018695D02*
X022041Y018695D01*
X021883Y018536D02*
X023822Y018536D01*
X023663Y018378D02*
X021724Y018378D01*
X021566Y018219D02*
X023587Y018219D01*
X023587Y018061D02*
X021407Y018061D01*
X021249Y017902D02*
X023587Y017902D01*
X023705Y017744D02*
X021090Y017744D01*
X020932Y017585D02*
X023843Y017585D01*
X023684Y017427D02*
X020773Y017427D01*
X020615Y017268D02*
X023567Y017268D01*
X023567Y017110D02*
X020587Y017110D01*
X020587Y016951D02*
X023567Y016951D01*
X023628Y016793D02*
X020587Y016793D01*
X020587Y016634D02*
X023787Y016634D01*
X024097Y016634D02*
X024137Y016634D01*
X024137Y016793D02*
X024097Y016793D01*
X024097Y016951D02*
X024137Y016951D01*
X024447Y016634D02*
X025815Y016634D01*
X025656Y016793D02*
X025477Y016793D01*
X024756Y016793D02*
X024606Y016793D01*
X024570Y018378D02*
X024587Y018378D01*
X024633Y018536D02*
X024722Y018536D01*
X024791Y018695D02*
X024880Y018695D01*
X024950Y018853D02*
X026784Y018853D01*
X026943Y018695D02*
X025353Y018695D01*
X025512Y018536D02*
X025822Y018536D01*
X025663Y018378D02*
X025647Y018378D01*
X027516Y017744D02*
X030133Y017744D01*
X029974Y017585D02*
X027587Y017585D01*
X027587Y017427D02*
X029816Y017427D01*
X029657Y017268D02*
X027631Y017268D01*
X027685Y017110D02*
X029499Y017110D01*
X029340Y016951D02*
X027658Y016951D01*
X027501Y016793D02*
X029182Y016793D01*
X031023Y015049D02*
X026230Y015049D01*
X026072Y014891D02*
X030865Y014891D01*
X030706Y014732D02*
X025913Y014732D01*
X025755Y014574D02*
X030548Y014574D01*
X030389Y014415D02*
X025596Y014415D01*
X025438Y014257D02*
X030231Y014257D01*
X030536Y013940D02*
X031647Y013940D01*
X031647Y014098D02*
X030695Y014098D01*
X030853Y014257D02*
X031647Y014257D01*
X031647Y014415D02*
X031012Y014415D01*
X031170Y014574D02*
X031647Y014574D01*
X031647Y014732D02*
X031329Y014732D01*
X031487Y014891D02*
X031647Y014891D01*
X031646Y015049D02*
X031647Y015049D01*
X032087Y014415D02*
X032316Y014415D01*
X032210Y014257D02*
X032087Y014257D01*
X032087Y014098D02*
X032144Y014098D01*
X032136Y013940D02*
X032087Y013940D01*
X032087Y013781D02*
X032138Y013781D01*
X032087Y013623D02*
X032203Y013623D01*
X032300Y013464D02*
X032087Y013464D01*
X032087Y013306D02*
X032467Y013306D01*
X032271Y012989D02*
X037463Y012989D01*
X037621Y013147D02*
X032113Y013147D01*
X031807Y012830D02*
X030337Y012830D01*
X030337Y012672D02*
X031966Y012672D01*
X032124Y012513D02*
X030337Y012513D01*
X030405Y012355D02*
X032283Y012355D01*
X032441Y012196D02*
X030564Y012196D01*
X030861Y012038D02*
X032600Y012038D01*
X032758Y011879D02*
X030935Y011879D01*
X030916Y011721D02*
X032818Y011721D01*
X032936Y011562D02*
X030798Y011562D01*
X030436Y011562D02*
X028948Y011562D01*
X029106Y011404D02*
X035878Y011404D01*
X036036Y011562D02*
X033298Y011562D01*
X033416Y011721D02*
X036195Y011721D01*
X036353Y011879D02*
X033435Y011879D01*
X033361Y012038D02*
X036512Y012038D01*
X036670Y012196D02*
X033064Y012196D01*
X032905Y012355D02*
X036829Y012355D01*
X036987Y012513D02*
X032747Y012513D01*
X032588Y012672D02*
X037146Y012672D01*
X037304Y012830D02*
X032430Y012830D01*
X031649Y012989D02*
X030337Y012989D01*
X030337Y013147D02*
X031647Y013147D01*
X031647Y013306D02*
X030337Y013306D01*
X030337Y013464D02*
X031647Y013464D01*
X031647Y013623D02*
X030337Y013623D01*
X030378Y013781D02*
X031647Y013781D01*
X029897Y012989D02*
X026897Y012989D01*
X026935Y012830D02*
X029897Y012830D01*
X029897Y012672D02*
X027088Y012672D01*
X027247Y012513D02*
X027598Y012513D01*
X027548Y012355D02*
X027405Y012355D01*
X027564Y012196D02*
X027578Y012196D01*
X028136Y012513D02*
X029897Y012513D01*
X029897Y012355D02*
X028185Y012355D01*
X028314Y012196D02*
X029941Y012196D01*
X030100Y012038D02*
X028472Y012038D01*
X028631Y011879D02*
X030258Y011879D01*
X030318Y011721D02*
X028789Y011721D01*
X029265Y011245D02*
X035719Y011245D01*
X035561Y011087D02*
X029423Y011087D01*
X027935Y010453D02*
X027307Y010453D01*
X027149Y010611D02*
X027776Y010611D01*
X027618Y010770D02*
X026990Y010770D01*
X026832Y010928D02*
X027459Y010928D01*
X027301Y011087D02*
X026673Y011087D01*
X026515Y011245D02*
X027142Y011245D01*
X026984Y011404D02*
X026356Y011404D01*
X026198Y011562D02*
X026825Y011562D01*
X026667Y011721D02*
X026039Y011721D01*
X025935Y011879D02*
X026508Y011879D01*
X026350Y012038D02*
X025861Y012038D01*
X026338Y012672D02*
X026338Y012672D01*
X026298Y012830D02*
X026185Y012830D01*
X026147Y012989D02*
X026337Y012989D01*
X023558Y008392D02*
X032531Y008392D01*
X032373Y008234D02*
X023724Y008234D01*
X023883Y008075D02*
X032214Y008075D01*
X032056Y007917D02*
X023971Y007917D01*
X023976Y007758D02*
X031897Y007758D01*
X031739Y007600D02*
X023894Y007600D01*
X023551Y007242D02*
X023457Y007148D01*
X023457Y006015D01*
X023551Y005922D01*
X024683Y005922D01*
X024777Y006015D01*
X024777Y007148D01*
X024683Y007242D01*
X023551Y007242D01*
X023457Y007124D02*
X023008Y007124D01*
X022890Y007242D02*
X022344Y007242D01*
X021957Y006855D01*
X021957Y006308D01*
X022344Y005922D01*
X022890Y005922D01*
X023277Y006308D01*
X023277Y006855D01*
X022890Y007242D01*
X023166Y006966D02*
X023457Y006966D01*
X023457Y006807D02*
X023277Y006807D01*
X023277Y006649D02*
X023457Y006649D01*
X023457Y006490D02*
X023277Y006490D01*
X023277Y006332D02*
X023457Y006332D01*
X023457Y006173D02*
X023142Y006173D01*
X022983Y006015D02*
X023458Y006015D01*
X022251Y006015D02*
X021276Y006015D01*
X021277Y006173D02*
X022092Y006173D01*
X021957Y006332D02*
X021277Y006332D01*
X021277Y006490D02*
X021957Y006490D01*
X021957Y006649D02*
X021277Y006649D01*
X021277Y006807D02*
X021957Y006807D01*
X022068Y006966D02*
X021277Y006966D01*
X021277Y007124D02*
X022226Y007124D01*
X023340Y007600D02*
X019995Y007600D01*
X020153Y007441D02*
X031609Y007441D01*
X031630Y007490D02*
X031587Y007387D01*
X031587Y007242D01*
X031301Y007242D01*
X031207Y007148D01*
X031207Y006015D01*
X031301Y005922D01*
X032433Y005922D01*
X032527Y006015D01*
X032527Y007148D01*
X032433Y007242D01*
X032173Y007242D01*
X033100Y008169D01*
X033087Y008137D01*
X033087Y007776D01*
X033130Y007673D01*
X033208Y007594D01*
X033458Y007344D01*
X033561Y007302D01*
X034251Y007302D01*
X034707Y006846D01*
X034707Y006015D01*
X034801Y005922D01*
X035933Y005922D01*
X036027Y006015D01*
X036027Y007148D01*
X035933Y007242D01*
X035103Y007242D01*
X034623Y007722D01*
X035188Y007722D01*
X035321Y007776D01*
X035422Y007878D01*
X035516Y007972D01*
X038302Y007972D01*
X038507Y007767D01*
X038507Y007260D01*
X038515Y007242D01*
X038301Y007242D01*
X038207Y007148D01*
X038207Y006015D01*
X038301Y005922D01*
X039433Y005922D01*
X039527Y006015D01*
X039527Y007148D01*
X039433Y007242D01*
X039219Y007242D01*
X039227Y007260D01*
X039227Y007988D01*
X039172Y008120D01*
X039071Y008222D01*
X039071Y008222D01*
X038757Y008536D01*
X038741Y008552D01*
X039211Y008552D01*
X039304Y008513D01*
X039430Y008513D01*
X039523Y008552D01*
X039711Y008552D01*
X039804Y008513D01*
X039930Y008513D01*
X040047Y008562D01*
X040137Y008651D01*
X040185Y008768D01*
X040185Y008895D01*
X040137Y009012D01*
X040047Y009102D01*
X039930Y009150D01*
X039804Y009150D01*
X039711Y009112D01*
X039597Y009112D01*
X039637Y009151D01*
X039685Y009268D01*
X039685Y009395D01*
X039637Y009512D01*
X039547Y009602D01*
X039430Y009650D01*
X039304Y009650D01*
X039211Y009612D01*
X039023Y009612D01*
X038930Y009650D01*
X038804Y009650D01*
X038711Y009612D01*
X033811Y009612D01*
X033708Y009569D01*
X033630Y009490D01*
X031630Y007490D01*
X031587Y007283D02*
X020312Y007283D01*
X019837Y006966D02*
X019666Y006966D01*
X019777Y006855D02*
X019390Y007242D01*
X018844Y007242D01*
X018457Y006855D01*
X018457Y006308D01*
X018844Y005922D01*
X019390Y005922D01*
X019777Y006308D01*
X019777Y006855D01*
X019777Y006807D02*
X019957Y006807D01*
X019957Y006649D02*
X019777Y006649D01*
X019777Y006490D02*
X019957Y006490D01*
X019957Y006332D02*
X019777Y006332D01*
X019642Y006173D02*
X019957Y006173D01*
X019958Y006015D02*
X019483Y006015D01*
X018751Y006015D02*
X017776Y006015D01*
X017777Y006173D02*
X018592Y006173D01*
X018457Y006332D02*
X017777Y006332D01*
X017777Y006490D02*
X018457Y006490D01*
X018457Y006649D02*
X017777Y006649D01*
X017777Y006807D02*
X018457Y006807D01*
X018568Y006966D02*
X017777Y006966D01*
X017777Y007124D02*
X018726Y007124D01*
X019508Y007124D02*
X019678Y007124D01*
X019520Y007283D02*
X017397Y007283D01*
X017397Y007441D02*
X017861Y007441D01*
X017703Y007600D02*
X017397Y007600D01*
X017397Y007758D02*
X017544Y007758D01*
X017897Y008234D02*
X018040Y008234D01*
X018176Y008392D02*
X017897Y008392D01*
X017897Y008551D02*
X032690Y008551D01*
X032848Y008709D02*
X017897Y008709D01*
X018049Y008868D02*
X033007Y008868D01*
X033165Y009026D02*
X018207Y009026D01*
X018366Y009185D02*
X033324Y009185D01*
X033482Y009343D02*
X020523Y009343D01*
X020683Y009502D02*
X033641Y009502D01*
X033087Y008075D02*
X033006Y008075D01*
X033087Y007917D02*
X032848Y007917D01*
X032689Y007758D02*
X033094Y007758D01*
X033203Y007600D02*
X032531Y007600D01*
X032372Y007441D02*
X033361Y007441D01*
X033594Y007242D02*
X033207Y006855D01*
X033207Y006308D01*
X033594Y005922D01*
X034140Y005922D01*
X034527Y006308D01*
X034527Y006855D01*
X034140Y007242D01*
X033594Y007242D01*
X033476Y007124D02*
X032527Y007124D01*
X032527Y006966D02*
X033318Y006966D01*
X033207Y006807D02*
X032527Y006807D01*
X032527Y006649D02*
X033207Y006649D01*
X033207Y006490D02*
X032527Y006490D01*
X032527Y006332D02*
X033207Y006332D01*
X033342Y006173D02*
X032527Y006173D01*
X032526Y006015D02*
X033501Y006015D01*
X034233Y006015D02*
X034708Y006015D01*
X034707Y006173D02*
X034392Y006173D01*
X034527Y006332D02*
X034707Y006332D01*
X034707Y006490D02*
X034527Y006490D01*
X034527Y006649D02*
X034707Y006649D01*
X034707Y006807D02*
X034527Y006807D01*
X034587Y006966D02*
X034416Y006966D01*
X034428Y007124D02*
X034258Y007124D01*
X034270Y007283D02*
X032214Y007283D01*
X031207Y007124D02*
X030758Y007124D01*
X030640Y007242D02*
X030094Y007242D01*
X029707Y006855D01*
X029707Y006308D01*
X030094Y005922D01*
X030640Y005922D01*
X031027Y006308D01*
X031027Y006855D01*
X030640Y007242D01*
X030916Y006966D02*
X031207Y006966D01*
X031207Y006807D02*
X031027Y006807D01*
X031027Y006649D02*
X031207Y006649D01*
X031207Y006490D02*
X031027Y006490D01*
X031027Y006332D02*
X031207Y006332D01*
X031207Y006173D02*
X030892Y006173D01*
X030733Y006015D02*
X031208Y006015D01*
X030001Y006015D02*
X029026Y006015D01*
X029027Y006015D02*
X029027Y007148D01*
X028933Y007242D01*
X027801Y007242D01*
X027707Y007148D01*
X027707Y006015D01*
X027801Y005922D01*
X028933Y005922D01*
X029027Y006015D01*
X029027Y006173D02*
X029842Y006173D01*
X029707Y006332D02*
X029027Y006332D01*
X029027Y006490D02*
X029707Y006490D01*
X029707Y006649D02*
X029027Y006649D01*
X029027Y006807D02*
X029707Y006807D01*
X029818Y006966D02*
X029027Y006966D01*
X029027Y007124D02*
X029976Y007124D01*
X027707Y007124D02*
X027258Y007124D01*
X027140Y007242D02*
X027527Y006855D01*
X027527Y006308D01*
X027140Y005922D01*
X026594Y005922D01*
X026207Y006308D01*
X026207Y006855D01*
X026594Y007242D01*
X027140Y007242D01*
X027416Y006966D02*
X027707Y006966D01*
X027707Y006807D02*
X027527Y006807D01*
X027527Y006649D02*
X027707Y006649D01*
X027707Y006490D02*
X027527Y006490D01*
X027527Y006332D02*
X027707Y006332D01*
X027707Y006173D02*
X027392Y006173D01*
X027233Y006015D02*
X027708Y006015D01*
X026501Y006015D02*
X024776Y006015D01*
X024777Y006173D02*
X026342Y006173D01*
X026207Y006332D02*
X024777Y006332D01*
X024777Y006490D02*
X026207Y006490D01*
X026207Y006649D02*
X024777Y006649D01*
X024777Y006807D02*
X026207Y006807D01*
X026318Y006966D02*
X024777Y006966D01*
X024777Y007124D02*
X026476Y007124D01*
X020841Y009660D02*
X046375Y009660D01*
X046375Y009502D02*
X039641Y009502D01*
X039685Y009343D02*
X046375Y009343D01*
X046375Y009185D02*
X039651Y009185D01*
X040123Y009026D02*
X046375Y009026D01*
X046375Y008868D02*
X040185Y008868D01*
X040161Y008709D02*
X046375Y008709D01*
X046375Y008551D02*
X040021Y008551D01*
X039713Y008551D02*
X039521Y008551D01*
X039213Y008551D02*
X038742Y008551D01*
X038900Y008392D02*
X046375Y008392D01*
X046375Y008234D02*
X039059Y008234D01*
X039191Y008075D02*
X046375Y008075D01*
X046375Y007917D02*
X039227Y007917D01*
X039227Y007758D02*
X046375Y007758D01*
X046375Y007600D02*
X039227Y007600D01*
X039227Y007441D02*
X046375Y007441D01*
X046375Y007283D02*
X039227Y007283D01*
X039527Y007124D02*
X046375Y007124D01*
X046375Y006966D02*
X039527Y006966D01*
X039527Y006807D02*
X046375Y006807D01*
X046375Y006649D02*
X039527Y006649D01*
X039527Y006490D02*
X046375Y006490D01*
X046375Y006332D02*
X039527Y006332D01*
X039527Y006173D02*
X046375Y006173D01*
X046375Y006015D02*
X039526Y006015D01*
X038208Y006015D02*
X037733Y006015D01*
X037640Y005922D02*
X038027Y006308D01*
X038027Y006855D01*
X037640Y007242D01*
X037094Y007242D01*
X036707Y006855D01*
X036707Y006308D01*
X037094Y005922D01*
X037640Y005922D01*
X037892Y006173D02*
X038207Y006173D01*
X038207Y006332D02*
X038027Y006332D01*
X038027Y006490D02*
X038207Y006490D01*
X038207Y006649D02*
X038027Y006649D01*
X038027Y006807D02*
X038207Y006807D01*
X038207Y006966D02*
X037916Y006966D01*
X037758Y007124D02*
X038207Y007124D01*
X038507Y007283D02*
X035062Y007283D01*
X034903Y007441D02*
X038507Y007441D01*
X038507Y007600D02*
X034745Y007600D01*
X035277Y007758D02*
X038507Y007758D01*
X038357Y007917D02*
X035461Y007917D01*
X036027Y007124D02*
X036976Y007124D01*
X036818Y006966D02*
X036027Y006966D01*
X036027Y006807D02*
X036707Y006807D01*
X036707Y006649D02*
X036027Y006649D01*
X036027Y006490D02*
X036707Y006490D01*
X036707Y006332D02*
X036027Y006332D01*
X036027Y006173D02*
X036842Y006173D01*
X037001Y006015D02*
X036026Y006015D01*
X035898Y010802D02*
X037958Y012862D01*
X042097Y012862D01*
X041837Y012601D01*
X041837Y012561D01*
X041586Y012812D01*
X041147Y012812D01*
X040837Y012501D01*
X040837Y012062D01*
X041103Y011796D01*
X040817Y011510D01*
X040817Y011290D01*
X041358Y011290D01*
X041358Y011273D01*
X040817Y011273D01*
X040817Y011054D01*
X041069Y010802D01*
X035898Y010802D01*
X036025Y010928D02*
X040943Y010928D01*
X040817Y011087D02*
X036183Y011087D01*
X036342Y011245D02*
X040817Y011245D01*
X040817Y011404D02*
X036500Y011404D01*
X036659Y011562D02*
X040870Y011562D01*
X041028Y011721D02*
X036817Y011721D01*
X036976Y011879D02*
X041020Y011879D01*
X040861Y012038D02*
X037134Y012038D01*
X037293Y012196D02*
X040837Y012196D01*
X040837Y012355D02*
X037451Y012355D01*
X037610Y012513D02*
X040849Y012513D01*
X041007Y012672D02*
X037768Y012672D01*
X037927Y012830D02*
X042066Y012830D01*
X041907Y012672D02*
X041726Y012672D01*
X043022Y013940D02*
X046375Y013940D01*
X046375Y014098D02*
X042986Y014098D01*
X042889Y014257D02*
X046375Y014257D01*
X046375Y014415D02*
X042679Y014415D01*
X042575Y014574D02*
X046375Y014574D01*
X046375Y014732D02*
X042362Y014732D01*
X042204Y014891D02*
X046375Y014891D01*
X046375Y015049D02*
X042045Y015049D01*
X041887Y015208D02*
X046375Y015208D01*
X046375Y015366D02*
X041728Y015366D01*
X041570Y015525D02*
X046375Y015525D01*
X046375Y015683D02*
X041411Y015683D01*
X041253Y015842D02*
X046375Y015842D01*
X046375Y016000D02*
X041094Y016000D01*
X040936Y016159D02*
X046375Y016159D01*
X046375Y016317D02*
X040777Y016317D01*
X040619Y016476D02*
X046375Y016476D01*
X046375Y016634D02*
X040460Y016634D01*
X040302Y016793D02*
X046375Y016793D01*
X046375Y016951D02*
X040143Y016951D01*
X039985Y017110D02*
X046375Y017110D01*
X046375Y017268D02*
X039826Y017268D01*
X039668Y017427D02*
X046375Y017427D01*
X046375Y017585D02*
X039509Y017585D01*
X039351Y017744D02*
X046375Y017744D01*
X046375Y017902D02*
X040749Y017902D01*
X040907Y018061D02*
X046375Y018061D01*
X046375Y018219D02*
X041066Y018219D01*
X041224Y018378D02*
X046375Y018378D01*
X046375Y018536D02*
X041383Y018536D01*
X041541Y018695D02*
X046375Y018695D01*
X046375Y018853D02*
X041587Y018853D01*
X041587Y019012D02*
X046375Y019012D01*
X046375Y019170D02*
X041587Y019170D01*
X041587Y019329D02*
X046375Y019329D01*
X046375Y019487D02*
X041587Y019487D01*
X041587Y019646D02*
X046375Y019646D01*
X046375Y019804D02*
X041587Y019804D01*
X041587Y019963D02*
X046375Y019963D01*
X046375Y020121D02*
X041587Y020121D01*
X041587Y020280D02*
X046375Y020280D01*
X046375Y020438D02*
X041587Y020438D01*
X041587Y020597D02*
X046375Y020597D01*
X046375Y020755D02*
X041587Y020755D01*
X041587Y020914D02*
X046375Y020914D01*
X046375Y021072D02*
X041587Y021072D01*
X041587Y021231D02*
X046375Y021231D01*
X046375Y021389D02*
X041587Y021389D01*
X041587Y021548D02*
X046375Y021548D01*
X046375Y021706D02*
X041587Y021706D01*
X041587Y021865D02*
X046375Y021865D01*
X046375Y022023D02*
X041587Y022023D01*
X041587Y022182D02*
X046375Y022182D01*
X046375Y022340D02*
X041587Y022340D01*
X041587Y022499D02*
X046375Y022499D01*
X046375Y022657D02*
X041587Y022657D01*
X041587Y022816D02*
X046375Y022816D01*
X046375Y022974D02*
X041587Y022974D01*
X041587Y023133D02*
X046375Y023133D01*
X046375Y023291D02*
X041587Y023291D01*
X041587Y023450D02*
X046375Y023450D01*
X046375Y023608D02*
X041587Y023608D01*
X041587Y023767D02*
X046375Y023767D01*
X046375Y023925D02*
X041587Y023925D01*
X041587Y024084D02*
X046375Y024084D01*
X046375Y024242D02*
X041587Y024242D01*
X041587Y024401D02*
X046375Y024401D01*
X046375Y024559D02*
X041587Y024559D01*
X041587Y024718D02*
X046375Y024718D01*
X046375Y024876D02*
X041587Y024876D01*
X041587Y025035D02*
X046375Y025035D01*
X046375Y025193D02*
X041587Y025193D01*
X041587Y025352D02*
X046375Y025352D01*
X046375Y025510D02*
X041587Y025510D01*
X041587Y025669D02*
X046375Y025669D01*
X046375Y025827D02*
X041587Y025827D01*
X041587Y025986D02*
X046375Y025986D01*
X046375Y026144D02*
X041587Y026144D01*
X041587Y026303D02*
X042704Y026303D01*
X042570Y026461D02*
X041587Y026461D01*
X041587Y026620D02*
X042547Y026620D01*
X042547Y026778D02*
X041587Y026778D01*
X041587Y026937D02*
X042547Y026937D01*
X042547Y027095D02*
X041587Y027095D01*
X041506Y027254D02*
X042547Y027254D01*
X042547Y027412D02*
X041347Y027412D01*
X041042Y027095D02*
X039692Y027095D01*
X039708Y027112D02*
X041026Y027112D01*
X041147Y026991D01*
X041147Y024552D01*
X039708Y024552D01*
X039653Y024607D01*
X040154Y024607D01*
X040167Y024599D01*
X040213Y024587D01*
X040432Y024587D01*
X040432Y025047D01*
X040502Y025047D01*
X040502Y025117D01*
X040432Y025117D01*
X040432Y025577D01*
X040213Y025577D01*
X040167Y025564D01*
X040154Y025557D01*
X039953Y025557D01*
X039803Y025707D01*
X039958Y025862D01*
X040087Y025991D01*
X040087Y026107D01*
X040154Y026107D01*
X040167Y026099D01*
X040213Y026087D01*
X040432Y026087D01*
X040432Y026547D01*
X040502Y026547D01*
X040502Y026617D01*
X040432Y026617D01*
X040432Y027077D01*
X040213Y027077D01*
X040167Y027064D01*
X040154Y027057D01*
X039653Y027057D01*
X039708Y027112D01*
X039386Y027412D02*
X036759Y027412D01*
X036917Y027571D02*
X042547Y027571D01*
X042547Y027729D02*
X037076Y027729D01*
X037234Y027888D02*
X042547Y027888D01*
X042547Y028046D02*
X037337Y028046D01*
X037337Y028205D02*
X042547Y028205D01*
X042547Y028363D02*
X037337Y028363D01*
X037337Y028522D02*
X042547Y028522D01*
X042547Y028680D02*
X037337Y028680D01*
X037337Y028839D02*
X042547Y028839D01*
X042547Y028997D02*
X037337Y028997D01*
X037337Y029156D02*
X042547Y029156D01*
X042547Y029314D02*
X037337Y029314D01*
X037337Y029473D02*
X042547Y029473D01*
X042547Y029631D02*
X039300Y029631D01*
X039281Y029612D02*
X039487Y029818D01*
X039598Y030086D01*
X039598Y030377D01*
X039487Y030646D01*
X039281Y030852D01*
X039012Y030963D01*
X038721Y030963D01*
X038453Y030852D01*
X038247Y030646D01*
X038136Y030377D01*
X038136Y030086D01*
X038247Y029818D01*
X038453Y029612D01*
X038721Y029501D01*
X039012Y029501D01*
X039281Y029612D01*
X039459Y029790D02*
X042547Y029790D01*
X042547Y029948D02*
X039541Y029948D01*
X039598Y030107D02*
X042547Y030107D01*
X042547Y030265D02*
X039598Y030265D01*
X039579Y030424D02*
X042547Y030424D01*
X042547Y030582D02*
X039513Y030582D01*
X039392Y030741D02*
X042547Y030741D01*
X042547Y030899D02*
X039166Y030899D01*
X038813Y031216D02*
X042547Y031216D01*
X042547Y031058D02*
X038654Y031058D01*
X038568Y030899D02*
X038496Y030899D01*
X038342Y030741D02*
X038337Y030741D01*
X038221Y030582D02*
X038179Y030582D01*
X038155Y030424D02*
X038020Y030424D01*
X038136Y030265D02*
X037862Y030265D01*
X037703Y030107D02*
X038136Y030107D01*
X038193Y029948D02*
X037545Y029948D01*
X037386Y029790D02*
X038275Y029790D01*
X038433Y029631D02*
X037337Y029631D01*
X036647Y029631D02*
X034437Y029631D01*
X034437Y029473D02*
X036647Y029473D01*
X036647Y029314D02*
X034437Y029314D01*
X034437Y029156D02*
X036647Y029156D01*
X036647Y028997D02*
X034437Y028997D01*
X034437Y028839D02*
X036647Y028839D01*
X036647Y028680D02*
X034437Y028680D01*
X034437Y028522D02*
X036647Y028522D01*
X036587Y028363D02*
X034437Y028363D01*
X034437Y028205D02*
X036429Y028205D01*
X036270Y028046D02*
X034437Y028046D01*
X034437Y027888D02*
X036112Y027888D01*
X035953Y027729D02*
X034421Y027729D01*
X034308Y027571D02*
X035795Y027571D01*
X035636Y027412D02*
X032937Y027412D01*
X032931Y027254D02*
X035478Y027254D01*
X035319Y027095D02*
X032833Y027095D01*
X032401Y027095D02*
X029414Y027095D01*
X029256Y027254D02*
X032303Y027254D01*
X032297Y027412D02*
X029097Y027412D01*
X028939Y027571D02*
X032297Y027571D01*
X032297Y027729D02*
X028780Y027729D01*
X028622Y027888D02*
X032297Y027888D01*
X032297Y028046D02*
X028463Y028046D01*
X028305Y028205D02*
X032297Y028205D01*
X032297Y028363D02*
X028146Y028363D01*
X027988Y028522D02*
X032297Y028522D01*
X032297Y028680D02*
X027829Y028680D01*
X027671Y028839D02*
X032297Y028839D01*
X032297Y028997D02*
X027587Y028997D01*
X027587Y029156D02*
X032297Y029156D01*
X032297Y029314D02*
X027587Y029314D01*
X027587Y029473D02*
X032297Y029473D01*
X032297Y029631D02*
X027587Y029631D01*
X027587Y029790D02*
X032297Y029790D01*
X032297Y029948D02*
X027587Y029948D01*
X027587Y030107D02*
X032297Y030107D01*
X032297Y030265D02*
X027587Y030265D01*
X027587Y030424D02*
X032297Y030424D01*
X032164Y030582D02*
X027587Y030582D01*
X027587Y030741D02*
X032005Y030741D01*
X031847Y030899D02*
X027587Y030899D01*
X027587Y031058D02*
X031688Y031058D01*
X031530Y031216D02*
X027587Y031216D01*
X027587Y031375D02*
X031371Y031375D01*
X031213Y031533D02*
X027587Y031533D01*
X027568Y031692D02*
X031054Y031692D01*
X030896Y031850D02*
X027409Y031850D01*
X027251Y032009D02*
X030737Y032009D01*
X030579Y032167D02*
X027092Y032167D01*
X026934Y032326D02*
X030420Y032326D01*
X030262Y032484D02*
X026775Y032484D01*
X026685Y032643D02*
X030103Y032643D01*
X029945Y032801D02*
X026598Y032801D01*
X026136Y032801D02*
X023348Y032801D01*
X023435Y032643D02*
X026048Y032643D01*
X026063Y032484D02*
X023525Y032484D01*
X023684Y032326D02*
X026173Y032326D01*
X026470Y032167D02*
X023842Y032167D01*
X024001Y032009D02*
X026629Y032009D01*
X026787Y031850D02*
X024159Y031850D01*
X024318Y031692D02*
X026946Y031692D01*
X027104Y031533D02*
X024476Y031533D01*
X024635Y031375D02*
X027147Y031375D01*
X027147Y031216D02*
X024793Y031216D01*
X024952Y031058D02*
X027147Y031058D01*
X027147Y030899D02*
X025110Y030899D01*
X025269Y030741D02*
X027147Y030741D01*
X027147Y030582D02*
X025427Y030582D01*
X025586Y030424D02*
X027147Y030424D01*
X027147Y030265D02*
X025744Y030265D01*
X025903Y030107D02*
X027147Y030107D01*
X027147Y029948D02*
X026061Y029948D01*
X026220Y029790D02*
X027147Y029790D01*
X027147Y029631D02*
X026378Y029631D01*
X026537Y029473D02*
X027147Y029473D01*
X027147Y029314D02*
X026695Y029314D01*
X026854Y029156D02*
X027147Y029156D01*
X027147Y028997D02*
X027012Y028997D01*
X029573Y026937D02*
X035161Y026937D01*
X035002Y026778D02*
X029731Y026778D01*
X029890Y026620D02*
X034844Y026620D01*
X034685Y026461D02*
X030048Y026461D01*
X030207Y026303D02*
X034527Y026303D01*
X034368Y026144D02*
X032846Y026144D01*
X032901Y026122D02*
X032632Y026233D01*
X032341Y026233D01*
X032073Y026122D01*
X031867Y025916D01*
X031756Y025647D01*
X031756Y025356D01*
X031867Y025088D01*
X032073Y024882D01*
X032341Y024771D01*
X032632Y024771D01*
X032901Y024882D01*
X033107Y025088D01*
X033218Y025356D01*
X033218Y025647D01*
X033107Y025916D01*
X032901Y026122D01*
X033037Y025986D02*
X034210Y025986D01*
X034051Y025827D02*
X033143Y025827D01*
X033209Y025669D02*
X033893Y025669D01*
X033734Y025510D02*
X033218Y025510D01*
X033216Y025352D02*
X033576Y025352D01*
X033417Y025193D02*
X033151Y025193D01*
X033054Y025035D02*
X033259Y025035D01*
X033100Y024876D02*
X032888Y024876D01*
X032942Y024718D02*
X031792Y024718D01*
X031633Y024876D02*
X032086Y024876D01*
X031920Y025035D02*
X031475Y025035D01*
X031316Y025193D02*
X031823Y025193D01*
X031758Y025352D02*
X031158Y025352D01*
X030999Y025510D02*
X031756Y025510D01*
X031765Y025669D02*
X030841Y025669D01*
X030682Y025827D02*
X031830Y025827D01*
X031937Y025986D02*
X030524Y025986D01*
X030365Y026144D02*
X032127Y026144D01*
X032937Y027571D02*
X033925Y027571D01*
X033813Y027729D02*
X032937Y027729D01*
X032937Y027888D02*
X033797Y027888D01*
X033797Y028046D02*
X032937Y028046D01*
X032937Y028205D02*
X033797Y028205D01*
X033797Y028363D02*
X032937Y028363D01*
X032937Y028522D02*
X033797Y028522D01*
X033797Y028680D02*
X032937Y028680D01*
X032937Y028839D02*
X033797Y028839D01*
X033797Y028997D02*
X032937Y028997D01*
X032937Y029156D02*
X033797Y029156D01*
X033797Y029314D02*
X032937Y029314D01*
X032937Y029473D02*
X033797Y029473D01*
X033797Y029631D02*
X032937Y029631D01*
X032937Y029790D02*
X033797Y029790D01*
X033797Y029948D02*
X032937Y029948D01*
X032937Y030107D02*
X033797Y030107D01*
X033797Y030265D02*
X032937Y030265D01*
X032937Y030424D02*
X033797Y030424D01*
X033797Y030582D02*
X032937Y030582D01*
X032897Y030741D02*
X033755Y030741D01*
X033597Y030899D02*
X032752Y030899D01*
X032593Y031058D02*
X033438Y031058D01*
X033280Y031216D02*
X032435Y031216D01*
X032276Y031375D02*
X033121Y031375D01*
X032963Y031533D02*
X032118Y031533D01*
X031959Y031692D02*
X032804Y031692D01*
X032646Y031850D02*
X031801Y031850D01*
X031642Y032009D02*
X032487Y032009D01*
X032329Y032167D02*
X031484Y032167D01*
X031325Y032326D02*
X032170Y032326D01*
X032012Y032484D02*
X031167Y032484D01*
X031008Y032643D02*
X031853Y032643D01*
X031695Y032801D02*
X030850Y032801D01*
X030691Y032960D02*
X031536Y032960D01*
X031378Y033118D02*
X030533Y033118D01*
X030374Y033277D02*
X031219Y033277D01*
X031061Y033435D02*
X030216Y033435D01*
X030057Y033594D02*
X030902Y033594D01*
X030744Y033752D02*
X029899Y033752D01*
X029740Y033911D02*
X030585Y033911D01*
X030427Y034069D02*
X029582Y034069D01*
X030381Y035020D02*
X039476Y035020D01*
X039634Y034862D02*
X030539Y034862D01*
X030698Y034703D02*
X039793Y034703D01*
X039951Y034545D02*
X030856Y034545D01*
X031015Y034386D02*
X040110Y034386D01*
X040268Y034228D02*
X031173Y034228D01*
X031332Y034069D02*
X040427Y034069D01*
X040585Y033911D02*
X031490Y033911D01*
X031649Y033752D02*
X041744Y033752D01*
X041902Y033594D02*
X031807Y033594D01*
X031966Y033435D02*
X042061Y033435D01*
X042219Y033277D02*
X038622Y033277D01*
X038685Y033118D02*
X042378Y033118D01*
X042536Y032960D02*
X038661Y032960D01*
X038587Y032801D02*
X039775Y032801D01*
X039617Y032643D02*
X038587Y032643D01*
X038587Y032484D02*
X039458Y032484D01*
X039300Y032326D02*
X038587Y032326D01*
X038587Y032167D02*
X039141Y032167D01*
X038983Y032009D02*
X038587Y032009D01*
X038587Y031850D02*
X038824Y031850D01*
X038666Y031692D02*
X038587Y031692D01*
X038147Y031692D02*
X033709Y031692D01*
X033551Y031850D02*
X038147Y031850D01*
X038147Y032009D02*
X033392Y032009D01*
X033234Y032167D02*
X038147Y032167D01*
X038147Y032326D02*
X033075Y032326D01*
X032917Y032484D02*
X038147Y032484D01*
X038147Y032643D02*
X032758Y032643D01*
X032600Y032801D02*
X038147Y032801D01*
X038073Y032960D02*
X032441Y032960D01*
X032283Y033118D02*
X038048Y033118D01*
X038112Y033277D02*
X032124Y033277D01*
X033868Y031533D02*
X038007Y031533D01*
X037849Y031375D02*
X034026Y031375D01*
X034185Y031216D02*
X037690Y031216D01*
X037532Y031058D02*
X034343Y031058D01*
X034298Y031103D02*
X034298Y031103D01*
X034435Y030899D02*
X037373Y030899D01*
X037215Y030741D02*
X034437Y030741D01*
X034437Y030582D02*
X037056Y030582D01*
X036898Y030424D02*
X034437Y030424D01*
X034437Y030265D02*
X036739Y030265D01*
X036647Y030107D02*
X034437Y030107D01*
X034437Y029948D02*
X036647Y029948D01*
X036647Y029790D02*
X034437Y029790D01*
X036600Y027254D02*
X039228Y027254D01*
X039147Y027095D02*
X036442Y027095D01*
X036283Y026937D02*
X038877Y026937D01*
X038877Y026778D02*
X036125Y026778D01*
X035966Y026620D02*
X038877Y026620D01*
X038877Y026461D02*
X035808Y026461D01*
X035649Y026303D02*
X038877Y026303D01*
X038933Y026144D02*
X035491Y026144D01*
X035332Y025986D02*
X036460Y025986D01*
X036301Y025827D02*
X035174Y025827D01*
X035015Y025669D02*
X036143Y025669D01*
X035984Y025510D02*
X034857Y025510D01*
X034698Y025352D02*
X035826Y025352D01*
X035667Y025193D02*
X034540Y025193D01*
X034381Y025035D02*
X035509Y025035D01*
X035350Y024876D02*
X034223Y024876D01*
X034064Y024718D02*
X035192Y024718D01*
X035033Y024559D02*
X033906Y024559D01*
X033747Y024401D02*
X034875Y024401D01*
X034589Y024242D02*
X033589Y024242D01*
X033430Y024084D02*
X034548Y024084D01*
X034587Y023925D02*
X033272Y023925D01*
X033113Y023767D02*
X034602Y023767D01*
X034548Y023608D02*
X032955Y023608D01*
X032837Y023450D02*
X034577Y023450D01*
X034626Y023291D02*
X032837Y023291D01*
X032837Y023133D02*
X034548Y023133D01*
X034567Y022974D02*
X032837Y022974D01*
X032837Y022816D02*
X034651Y022816D01*
X034554Y022657D02*
X032837Y022657D01*
X032837Y022499D02*
X034557Y022499D01*
X034658Y022340D02*
X032837Y022340D01*
X032837Y022182D02*
X034564Y022182D01*
X034548Y022023D02*
X033626Y022023D01*
X033685Y021865D02*
X034634Y021865D01*
X035074Y021706D02*
X033660Y021706D01*
X033587Y021548D02*
X035048Y021548D01*
X035109Y021389D02*
X033587Y021389D01*
X033587Y021231D02*
X035407Y021231D01*
X035565Y021072D02*
X033587Y021072D01*
X033587Y020914D02*
X035724Y020914D01*
X035882Y020755D02*
X033587Y020755D01*
X033587Y020597D02*
X036041Y020597D01*
X036199Y020438D02*
X033587Y020438D01*
X033587Y020280D02*
X036358Y020280D01*
X037791Y018695D02*
X038883Y018695D01*
X038877Y018853D02*
X037950Y018853D01*
X037633Y018536D02*
X039047Y018536D01*
X039047Y018378D02*
X038734Y018378D01*
X038905Y018219D02*
X039168Y018219D01*
X039034Y018061D02*
X039327Y018061D01*
X039192Y017902D02*
X039485Y017902D01*
X039708Y018302D02*
X039487Y018523D01*
X039487Y018607D01*
X039563Y018607D01*
X039567Y018610D01*
X039571Y018607D01*
X040154Y018607D01*
X040167Y018599D01*
X040213Y018587D01*
X040432Y018587D01*
X040432Y019047D01*
X040502Y019047D01*
X040502Y019117D01*
X040432Y019117D01*
X040432Y019577D01*
X040213Y019577D01*
X040167Y019564D01*
X040154Y019557D01*
X040087Y019557D01*
X040087Y019673D01*
X039958Y019802D01*
X039803Y019957D01*
X039953Y020107D01*
X040154Y020107D01*
X040167Y020099D01*
X040213Y020087D01*
X040432Y020087D01*
X040432Y020547D01*
X040502Y020547D01*
X040502Y020617D01*
X040432Y020617D01*
X040432Y021077D01*
X040213Y021077D01*
X040167Y021064D01*
X040154Y021057D01*
X039653Y021057D01*
X039708Y021112D01*
X041026Y021112D01*
X041147Y020991D01*
X041147Y018923D01*
X040526Y018302D01*
X039708Y018302D01*
X039632Y018378D02*
X040602Y018378D01*
X040760Y018536D02*
X039487Y018536D01*
X039367Y019082D02*
X039867Y019082D01*
X040432Y019012D02*
X040502Y019012D01*
X040502Y019047D02*
X040502Y018587D01*
X040721Y018587D01*
X040766Y018599D01*
X040807Y018623D01*
X040841Y018656D01*
X040865Y018697D01*
X040877Y018743D01*
X040877Y019047D01*
X040502Y019047D01*
X040502Y019117D02*
X040877Y019117D01*
X040877Y019420D01*
X040865Y019466D01*
X040841Y019507D01*
X040807Y019541D01*
X040766Y019564D01*
X040721Y019577D01*
X040502Y019577D01*
X040502Y019117D01*
X040502Y019170D02*
X040432Y019170D01*
X040432Y019329D02*
X040502Y019329D01*
X040502Y019487D02*
X040432Y019487D01*
X040087Y019646D02*
X041147Y019646D01*
X041147Y019804D02*
X039955Y019804D01*
X039809Y019963D02*
X041147Y019963D01*
X041147Y020121D02*
X040805Y020121D01*
X040807Y020123D02*
X040841Y020156D01*
X040865Y020197D01*
X040877Y020243D01*
X040877Y020547D01*
X040502Y020547D01*
X040502Y020087D01*
X040721Y020087D01*
X040766Y020099D01*
X040807Y020123D01*
X040877Y020280D02*
X041147Y020280D01*
X041147Y020438D02*
X040877Y020438D01*
X040877Y020617D02*
X040877Y020920D01*
X040865Y020966D01*
X040841Y021007D01*
X040807Y021041D01*
X040766Y021064D01*
X040721Y021077D01*
X040502Y021077D01*
X040502Y020617D01*
X040877Y020617D01*
X040877Y020755D02*
X041147Y020755D01*
X041147Y020597D02*
X040502Y020597D01*
X040502Y020755D02*
X040432Y020755D01*
X040432Y020914D02*
X040502Y020914D01*
X040502Y021072D02*
X040432Y021072D01*
X040196Y021072D02*
X039669Y021072D01*
X039708Y021552D02*
X039653Y021607D01*
X040154Y021607D01*
X040167Y021599D01*
X040213Y021587D01*
X040432Y021587D01*
X040432Y022047D01*
X040502Y022047D01*
X040502Y022117D01*
X040432Y022117D01*
X040432Y022577D01*
X040213Y022577D01*
X040167Y022564D01*
X040154Y022557D01*
X040087Y022557D01*
X040087Y022673D01*
X039803Y022957D01*
X039953Y023107D01*
X040154Y023107D01*
X040167Y023099D01*
X040213Y023087D01*
X040432Y023087D01*
X040432Y023547D01*
X040502Y023547D01*
X040502Y023617D01*
X040432Y023617D01*
X040432Y024077D01*
X040213Y024077D01*
X040167Y024064D01*
X040154Y024057D01*
X039653Y024057D01*
X039708Y024112D01*
X041026Y024112D01*
X041147Y023991D01*
X041147Y021552D01*
X039708Y021552D01*
X039867Y022082D02*
X039367Y022082D01*
X040087Y022657D02*
X041147Y022657D01*
X041147Y022499D02*
X040846Y022499D01*
X040841Y022507D02*
X040807Y022541D01*
X040766Y022564D01*
X040721Y022577D01*
X040502Y022577D01*
X040502Y022117D01*
X040877Y022117D01*
X040877Y022420D01*
X040865Y022466D01*
X040841Y022507D01*
X040877Y022340D02*
X041147Y022340D01*
X041147Y022182D02*
X040877Y022182D01*
X040877Y022047D02*
X040502Y022047D01*
X040502Y021587D01*
X040721Y021587D01*
X040766Y021599D01*
X040807Y021623D01*
X040841Y021656D01*
X040865Y021697D01*
X040877Y021743D01*
X040877Y022047D01*
X040877Y022023D02*
X041147Y022023D01*
X041147Y021865D02*
X040877Y021865D01*
X040867Y021706D02*
X041147Y021706D01*
X040502Y021706D02*
X040432Y021706D01*
X040432Y021865D02*
X040502Y021865D01*
X040502Y022023D02*
X040432Y022023D01*
X040432Y022182D02*
X040502Y022182D01*
X040502Y022340D02*
X040432Y022340D01*
X040432Y022499D02*
X040502Y022499D01*
X039944Y022816D02*
X041147Y022816D01*
X041147Y022974D02*
X039821Y022974D01*
X039867Y023582D02*
X039367Y023582D01*
X038877Y023608D02*
X035205Y023608D01*
X035185Y023589D02*
X036958Y025362D01*
X038877Y025362D01*
X038877Y024700D01*
X038971Y024607D01*
X039047Y024607D01*
X039047Y024591D01*
X039306Y024332D01*
X039047Y024073D01*
X039047Y024057D01*
X038971Y024057D01*
X038877Y023963D01*
X038877Y023302D01*
X035097Y023302D01*
X035067Y023332D01*
X035137Y023401D01*
X035185Y023518D01*
X035185Y023589D01*
X035157Y023450D02*
X038877Y023450D01*
X038877Y023767D02*
X035363Y023767D01*
X035522Y023925D02*
X038877Y023925D01*
X039058Y024084D02*
X035680Y024084D01*
X035839Y024242D02*
X039216Y024242D01*
X039237Y024401D02*
X035997Y024401D01*
X036156Y024559D02*
X039078Y024559D01*
X038877Y024718D02*
X036314Y024718D01*
X036473Y024876D02*
X038877Y024876D01*
X038877Y025035D02*
X036631Y025035D01*
X036790Y025193D02*
X038877Y025193D01*
X038877Y025352D02*
X036948Y025352D01*
X039367Y025082D02*
X039867Y025082D01*
X039700Y024559D02*
X041147Y024559D01*
X041147Y024718D02*
X040870Y024718D01*
X040865Y024697D02*
X040877Y024743D01*
X040877Y025047D01*
X040502Y025047D01*
X040502Y024587D01*
X040721Y024587D01*
X040766Y024599D01*
X040807Y024623D01*
X040841Y024656D01*
X040865Y024697D01*
X040877Y024876D02*
X041147Y024876D01*
X041147Y025035D02*
X040877Y025035D01*
X040877Y025117D02*
X040877Y025420D01*
X040865Y025466D01*
X040841Y025507D01*
X040807Y025541D01*
X040766Y025564D01*
X040721Y025577D01*
X040502Y025577D01*
X040502Y025117D01*
X040877Y025117D01*
X040877Y025193D02*
X041147Y025193D01*
X041147Y025352D02*
X040877Y025352D01*
X040838Y025510D02*
X041147Y025510D01*
X041147Y025669D02*
X039841Y025669D01*
X039924Y025827D02*
X041147Y025827D01*
X041147Y025986D02*
X040082Y025986D01*
X040432Y026144D02*
X040502Y026144D01*
X040502Y026087D02*
X040721Y026087D01*
X040766Y026099D01*
X040807Y026123D01*
X040841Y026156D01*
X040865Y026197D01*
X040877Y026243D01*
X040877Y026547D01*
X040502Y026547D01*
X040502Y026087D01*
X040502Y026303D02*
X040432Y026303D01*
X040432Y026461D02*
X040502Y026461D01*
X040502Y026617D02*
X040877Y026617D01*
X040877Y026920D01*
X040865Y026966D01*
X040841Y027007D01*
X040807Y027041D01*
X040766Y027064D01*
X040721Y027077D01*
X040502Y027077D01*
X040502Y026617D01*
X040502Y026620D02*
X040432Y026620D01*
X040432Y026778D02*
X040502Y026778D01*
X040502Y026937D02*
X040432Y026937D01*
X040873Y026937D02*
X041147Y026937D01*
X041147Y026778D02*
X040877Y026778D01*
X040877Y026620D02*
X041147Y026620D01*
X041147Y026461D02*
X040877Y026461D01*
X040877Y026303D02*
X041147Y026303D01*
X041147Y026144D02*
X040829Y026144D01*
X040502Y025510D02*
X040432Y025510D01*
X040432Y025352D02*
X040502Y025352D01*
X040502Y025193D02*
X040432Y025193D01*
X040432Y025035D02*
X040502Y025035D01*
X040502Y024876D02*
X040432Y024876D01*
X040432Y024718D02*
X040502Y024718D01*
X040502Y024077D02*
X040502Y023617D01*
X040877Y023617D01*
X040877Y023920D01*
X040865Y023966D01*
X040841Y024007D01*
X040807Y024041D01*
X040766Y024064D01*
X040721Y024077D01*
X040502Y024077D01*
X040502Y023925D02*
X040432Y023925D01*
X040432Y023767D02*
X040502Y023767D01*
X040502Y023608D02*
X041147Y023608D01*
X041147Y023450D02*
X040877Y023450D01*
X040877Y023547D02*
X040502Y023547D01*
X040502Y023087D01*
X040721Y023087D01*
X040766Y023099D01*
X040807Y023123D01*
X040841Y023156D01*
X040865Y023197D01*
X040877Y023243D01*
X040877Y023547D01*
X040877Y023767D02*
X041147Y023767D01*
X041147Y023925D02*
X040876Y023925D01*
X041054Y024084D02*
X039680Y024084D01*
X040432Y023450D02*
X040502Y023450D01*
X040502Y023291D02*
X040432Y023291D01*
X040432Y023133D02*
X040502Y023133D01*
X040817Y023133D02*
X041147Y023133D01*
X041147Y023291D02*
X040877Y023291D01*
X040737Y021072D02*
X041065Y021072D01*
X041147Y020914D02*
X040877Y020914D01*
X040502Y020438D02*
X040432Y020438D01*
X040432Y020280D02*
X040502Y020280D01*
X040502Y020121D02*
X040432Y020121D01*
X039867Y020582D02*
X039367Y020582D01*
X040852Y019487D02*
X041147Y019487D01*
X041147Y019329D02*
X040877Y019329D01*
X040877Y019170D02*
X041147Y019170D01*
X041147Y019012D02*
X040877Y019012D01*
X040877Y018853D02*
X041077Y018853D01*
X040919Y018695D02*
X040863Y018695D01*
X040502Y018695D02*
X040432Y018695D01*
X040432Y018853D02*
X040502Y018853D01*
X038499Y018378D02*
X038234Y018378D01*
X037999Y018378D02*
X037474Y018378D01*
X037316Y018219D02*
X037829Y018219D01*
X037798Y018061D02*
X037157Y018061D01*
X036999Y017902D02*
X037847Y017902D01*
X033147Y020121D02*
X032857Y020121D01*
X032935Y020280D02*
X033147Y020280D01*
X033147Y020438D02*
X032917Y020438D01*
X032802Y020597D02*
X033147Y020597D01*
X033147Y020755D02*
X032680Y020755D01*
X032678Y020914D02*
X033147Y020914D01*
X033147Y021072D02*
X032577Y021072D01*
X032670Y021231D02*
X033147Y021231D01*
X033147Y021389D02*
X032685Y021389D01*
X032863Y021548D02*
X033147Y021548D01*
X033074Y021706D02*
X033010Y021706D01*
X033035Y021865D02*
X033048Y021865D01*
X033108Y022023D02*
X032976Y022023D01*
X031397Y023291D02*
X031358Y023291D01*
X031397Y023450D02*
X031060Y023450D01*
X030901Y023608D02*
X031397Y023608D01*
X031397Y023767D02*
X030743Y023767D01*
X031950Y024559D02*
X032783Y024559D01*
X032625Y024401D02*
X032087Y024401D01*
X032087Y024242D02*
X032466Y024242D01*
X032308Y024084D02*
X032087Y024084D01*
X032087Y023925D02*
X032149Y023925D01*
X027094Y020755D02*
X025352Y020755D01*
X025363Y021389D02*
X019986Y021389D01*
X020087Y021491D02*
X020087Y021491D01*
X020144Y021548D02*
X025522Y021548D01*
X025574Y021706D02*
X020303Y021706D01*
X016353Y011879D02*
X015231Y011879D01*
X015344Y007242D02*
X014957Y006855D01*
X014957Y006308D01*
X015344Y005922D01*
X015890Y005922D01*
X016277Y006308D01*
X016277Y006855D01*
X015890Y007242D01*
X015344Y007242D01*
X015226Y007124D02*
X014277Y007124D01*
X014277Y007148D02*
X014183Y007242D01*
X013051Y007242D01*
X012957Y007148D01*
X012957Y006015D01*
X013051Y005922D01*
X014183Y005922D01*
X014277Y006015D01*
X014277Y007148D01*
X014277Y006966D02*
X015068Y006966D01*
X014957Y006807D02*
X014277Y006807D01*
X014277Y006649D02*
X014957Y006649D01*
X014957Y006490D02*
X014277Y006490D01*
X014277Y006332D02*
X014957Y006332D01*
X015092Y006173D02*
X014277Y006173D01*
X014276Y006015D02*
X015251Y006015D01*
X015983Y006015D02*
X016458Y006015D01*
X016457Y006173D02*
X016142Y006173D01*
X016277Y006332D02*
X016457Y006332D01*
X016457Y006490D02*
X016277Y006490D01*
X016277Y006649D02*
X016457Y006649D01*
X016457Y006807D02*
X016277Y006807D01*
X016166Y006966D02*
X016457Y006966D01*
X016457Y007124D02*
X016008Y007124D01*
X012957Y007124D02*
X012508Y007124D01*
X012666Y006966D02*
X012957Y006966D01*
X012957Y006807D02*
X012777Y006807D01*
X012777Y006649D02*
X012957Y006649D01*
X012957Y006490D02*
X012777Y006490D01*
X012777Y006332D02*
X012957Y006332D01*
X012957Y006173D02*
X012642Y006173D01*
X012483Y006015D02*
X012958Y006015D01*
X039367Y026582D02*
X039867Y026582D01*
X043030Y026303D02*
X044204Y026303D01*
X044186Y026310D02*
X044303Y026262D01*
X044431Y026262D01*
X044548Y026310D01*
X044638Y026400D01*
X044687Y026518D01*
X044687Y033395D01*
X044638Y033513D01*
X044548Y033603D01*
X042798Y035353D01*
X042681Y035402D01*
X041249Y035402D01*
X039706Y036945D01*
X039777Y037015D01*
X039777Y038148D01*
X039683Y038242D01*
X038551Y038242D01*
X038457Y038148D01*
X038457Y037015D01*
X038551Y036922D01*
X038837Y036922D01*
X038846Y036900D01*
X040846Y034900D01*
X040936Y034810D01*
X041053Y034762D01*
X042484Y034762D01*
X044047Y033199D01*
X044047Y026518D01*
X044096Y026400D01*
X044186Y026310D01*
X044070Y026461D02*
X043163Y026461D01*
X043187Y026620D02*
X044047Y026620D01*
X044047Y026778D02*
X043187Y026778D01*
X043187Y026937D02*
X044047Y026937D01*
X044047Y027095D02*
X043187Y027095D01*
X043187Y027254D02*
X044047Y027254D01*
X044047Y027412D02*
X043187Y027412D01*
X043187Y027571D02*
X044047Y027571D01*
X044047Y027729D02*
X043187Y027729D01*
X043187Y027888D02*
X044047Y027888D01*
X044047Y028046D02*
X043187Y028046D01*
X043187Y028205D02*
X044047Y028205D01*
X044047Y028363D02*
X043187Y028363D01*
X043187Y028522D02*
X044047Y028522D01*
X044047Y028680D02*
X043187Y028680D01*
X043187Y028839D02*
X044047Y028839D01*
X044047Y028997D02*
X043187Y028997D01*
X043187Y029156D02*
X044047Y029156D01*
X044047Y029314D02*
X043187Y029314D01*
X043187Y029473D02*
X044047Y029473D01*
X044047Y029631D02*
X043187Y029631D01*
X043187Y029790D02*
X044047Y029790D01*
X044047Y029948D02*
X043187Y029948D01*
X043187Y030107D02*
X044047Y030107D01*
X044047Y030265D02*
X043187Y030265D01*
X043187Y030424D02*
X044047Y030424D01*
X044047Y030582D02*
X043187Y030582D01*
X043187Y030741D02*
X044047Y030741D01*
X044047Y030899D02*
X043187Y030899D01*
X043187Y031058D02*
X044047Y031058D01*
X044047Y031216D02*
X043187Y031216D01*
X043187Y031375D02*
X044047Y031375D01*
X044047Y031533D02*
X043187Y031533D01*
X043187Y031692D02*
X044047Y031692D01*
X044047Y031850D02*
X043187Y031850D01*
X043187Y032009D02*
X044047Y032009D01*
X044047Y032167D02*
X043187Y032167D01*
X043187Y032326D02*
X044047Y032326D01*
X044047Y032484D02*
X043187Y032484D01*
X043187Y032643D02*
X044047Y032643D01*
X044047Y032801D02*
X043187Y032801D01*
X043187Y032960D02*
X044047Y032960D01*
X044047Y033118D02*
X043187Y033118D01*
X043124Y033277D02*
X043969Y033277D01*
X043811Y033435D02*
X042966Y033435D01*
X042807Y033594D02*
X043652Y033594D01*
X043494Y033752D02*
X042649Y033752D01*
X042490Y033911D02*
X043335Y033911D01*
X043177Y034069D02*
X042332Y034069D01*
X042173Y034228D02*
X043018Y034228D01*
X042860Y034386D02*
X041968Y034386D01*
X042543Y034703D02*
X040698Y034703D01*
X040856Y034545D02*
X042701Y034545D01*
X043131Y035020D02*
X046375Y035020D01*
X046375Y034862D02*
X043289Y034862D01*
X043448Y034703D02*
X046375Y034703D01*
X046375Y034545D02*
X043606Y034545D01*
X043765Y034386D02*
X046375Y034386D01*
X046375Y034228D02*
X043923Y034228D01*
X044082Y034069D02*
X046375Y034069D01*
X046375Y033911D02*
X044240Y033911D01*
X044399Y033752D02*
X046375Y033752D01*
X046375Y033594D02*
X044557Y033594D01*
X044670Y033435D02*
X046375Y033435D01*
X046375Y033277D02*
X044687Y033277D01*
X044687Y033118D02*
X046375Y033118D01*
X046375Y032960D02*
X044687Y032960D01*
X044687Y032801D02*
X046375Y032801D01*
X046375Y032643D02*
X044687Y032643D01*
X044687Y032484D02*
X046375Y032484D01*
X046375Y032326D02*
X044687Y032326D01*
X044687Y032167D02*
X046375Y032167D01*
X046375Y032009D02*
X044687Y032009D01*
X044687Y031850D02*
X046375Y031850D01*
X046375Y031692D02*
X044687Y031692D01*
X044687Y031533D02*
X046375Y031533D01*
X046375Y031375D02*
X044687Y031375D01*
X044687Y031216D02*
X046375Y031216D01*
X046375Y031058D02*
X044687Y031058D01*
X044687Y030899D02*
X046375Y030899D01*
X046375Y030741D02*
X044687Y030741D01*
X044687Y030582D02*
X046375Y030582D01*
X046375Y030424D02*
X044687Y030424D01*
X044687Y030265D02*
X046375Y030265D01*
X046375Y030107D02*
X044687Y030107D01*
X044687Y029948D02*
X046375Y029948D01*
X046375Y029790D02*
X044687Y029790D01*
X044687Y029631D02*
X046375Y029631D01*
X046375Y029473D02*
X044687Y029473D01*
X044687Y029314D02*
X046375Y029314D01*
X046375Y029156D02*
X044687Y029156D01*
X044687Y028997D02*
X046375Y028997D01*
X046375Y028839D02*
X044687Y028839D01*
X044687Y028680D02*
X046375Y028680D01*
X046375Y028522D02*
X044687Y028522D01*
X044687Y028363D02*
X046375Y028363D01*
X046375Y028205D02*
X044687Y028205D01*
X044687Y028046D02*
X046375Y028046D01*
X046375Y027888D02*
X044687Y027888D01*
X044687Y027729D02*
X046375Y027729D01*
X046375Y027571D02*
X044687Y027571D01*
X044687Y027412D02*
X046375Y027412D01*
X046375Y027254D02*
X044687Y027254D01*
X044687Y027095D02*
X046375Y027095D01*
X046375Y026937D02*
X044687Y026937D01*
X044687Y026778D02*
X046375Y026778D01*
X046375Y026620D02*
X044687Y026620D01*
X044663Y026461D02*
X046375Y026461D01*
X046375Y026303D02*
X044530Y026303D01*
X042547Y031375D02*
X038971Y031375D01*
X039130Y031533D02*
X042547Y031533D01*
X042547Y031692D02*
X039288Y031692D01*
X039447Y031850D02*
X042547Y031850D01*
X042547Y032009D02*
X039605Y032009D01*
X039764Y032167D02*
X042547Y032167D01*
X042547Y032326D02*
X041311Y032326D01*
X041421Y032484D02*
X042547Y032484D01*
X042547Y032643D02*
X041435Y032643D01*
X041348Y032801D02*
X042547Y032801D01*
X040923Y032326D02*
X039922Y032326D01*
X040539Y034862D02*
X040884Y034862D01*
X040726Y035020D02*
X040381Y035020D01*
X040222Y035179D02*
X040567Y035179D01*
X040409Y035337D02*
X040064Y035337D01*
X039905Y035496D02*
X040250Y035496D01*
X040092Y035654D02*
X039747Y035654D01*
X039588Y035813D02*
X039933Y035813D01*
X039775Y035971D02*
X039430Y035971D01*
X039271Y036130D02*
X039616Y036130D01*
X039458Y036288D02*
X039113Y036288D01*
X038954Y036447D02*
X039299Y036447D01*
X039141Y036605D02*
X038796Y036605D01*
X038637Y036764D02*
X038982Y036764D01*
X038550Y036922D02*
X037391Y036922D01*
X037549Y037081D02*
X038457Y037081D01*
X038457Y037239D02*
X037708Y037239D01*
X037777Y037398D02*
X038457Y037398D01*
X038457Y037556D02*
X037777Y037556D01*
X037777Y037715D02*
X038457Y037715D01*
X038457Y037873D02*
X037759Y037873D01*
X037600Y038032D02*
X038457Y038032D01*
X038499Y038190D02*
X037442Y038190D01*
X036843Y036922D02*
X036479Y036922D01*
X036239Y036288D02*
X032919Y036288D01*
X036497Y035496D02*
X039000Y035496D01*
X038842Y035654D02*
X036699Y035654D01*
X037857Y035813D02*
X038683Y035813D01*
X038525Y035971D02*
X037961Y035971D01*
X037977Y036130D02*
X038366Y036130D01*
X039729Y036922D02*
X040343Y036922D01*
X040344Y036922D02*
X040890Y036922D01*
X041277Y037308D01*
X041277Y037855D01*
X040890Y038242D01*
X040344Y038242D01*
X039957Y037855D01*
X039957Y037308D01*
X040344Y036922D01*
X040184Y037081D02*
X039777Y037081D01*
X039777Y037239D02*
X040026Y037239D01*
X039957Y037398D02*
X039777Y037398D01*
X039777Y037556D02*
X039957Y037556D01*
X039957Y037715D02*
X039777Y037715D01*
X039777Y037873D02*
X039975Y037873D01*
X040134Y038032D02*
X039777Y038032D01*
X039735Y038190D02*
X040292Y038190D01*
X040942Y038190D02*
X041999Y038190D01*
X041957Y038148D02*
X041957Y037015D01*
X042051Y036922D01*
X043183Y036922D01*
X043277Y037015D01*
X043277Y038148D01*
X043183Y038242D01*
X042051Y038242D01*
X041957Y038148D01*
X041957Y038032D02*
X041100Y038032D01*
X041259Y037873D02*
X041957Y037873D01*
X041957Y037715D02*
X041277Y037715D01*
X041277Y037556D02*
X041957Y037556D01*
X041957Y037398D02*
X041277Y037398D01*
X041208Y037239D02*
X041957Y037239D01*
X041957Y037081D02*
X041049Y037081D01*
X040891Y036922D02*
X042050Y036922D01*
X043184Y036922D02*
X043843Y036922D01*
X043844Y036922D02*
X044390Y036922D01*
X044777Y037308D01*
X044777Y037855D01*
X044390Y038242D01*
X043844Y038242D01*
X043457Y037855D01*
X043457Y037308D01*
X043844Y036922D01*
X043684Y037081D02*
X043277Y037081D01*
X043277Y037239D02*
X043526Y037239D01*
X043457Y037398D02*
X043277Y037398D01*
X043277Y037556D02*
X043457Y037556D01*
X043457Y037715D02*
X043277Y037715D01*
X043277Y037873D02*
X043475Y037873D01*
X043634Y038032D02*
X043277Y038032D01*
X043235Y038190D02*
X043792Y038190D01*
X044442Y038190D02*
X046375Y038190D01*
X046375Y038032D02*
X044600Y038032D01*
X044759Y037873D02*
X046375Y037873D01*
X046375Y037715D02*
X044777Y037715D01*
X044777Y037556D02*
X046375Y037556D01*
X046375Y037398D02*
X044777Y037398D01*
X044708Y037239D02*
X046375Y037239D01*
X046375Y037081D02*
X044549Y037081D01*
X044391Y036922D02*
X046375Y036922D01*
X046375Y036764D02*
X039887Y036764D01*
X040046Y036605D02*
X046375Y036605D01*
X046375Y036447D02*
X045536Y036447D01*
X045531Y036452D02*
X045262Y036563D01*
X044971Y036563D01*
X044703Y036452D01*
X044497Y036246D01*
X044386Y035977D01*
X044386Y035686D01*
X044497Y035418D01*
X044703Y035212D01*
X044971Y035101D01*
X045262Y035101D01*
X045531Y035212D01*
X045737Y035418D01*
X045848Y035686D01*
X045848Y035977D01*
X045737Y036246D01*
X045531Y036452D01*
X045694Y036288D02*
X046375Y036288D01*
X046375Y036130D02*
X045785Y036130D01*
X045848Y035971D02*
X046375Y035971D01*
X046375Y035813D02*
X045848Y035813D01*
X045835Y035654D02*
X046375Y035654D01*
X046375Y035496D02*
X045769Y035496D01*
X045656Y035337D02*
X046375Y035337D01*
X046375Y035179D02*
X045451Y035179D01*
X044783Y035179D02*
X042972Y035179D01*
X042814Y035337D02*
X044577Y035337D01*
X044465Y035496D02*
X041155Y035496D01*
X040997Y035654D02*
X044399Y035654D01*
X044386Y035813D02*
X040838Y035813D01*
X040680Y035971D02*
X044386Y035971D01*
X044449Y036130D02*
X040521Y036130D01*
X040363Y036288D02*
X044539Y036288D01*
X044698Y036447D02*
X040204Y036447D01*
X046635Y005257D02*
X046633Y005213D01*
X046627Y005170D01*
X046618Y005128D01*
X046605Y005086D01*
X046588Y005046D01*
X046568Y005007D01*
X046545Y004970D01*
X046518Y004936D01*
X046489Y004903D01*
X046456Y004874D01*
X046422Y004847D01*
X046385Y004824D01*
X046346Y004804D01*
X046306Y004787D01*
X046264Y004774D01*
X046222Y004765D01*
X046179Y004759D01*
X046135Y004757D01*
D11*
X032316Y013932D02*
X032318Y013979D01*
X032324Y014025D01*
X032334Y014071D01*
X032347Y014116D01*
X032365Y014159D01*
X032386Y014201D01*
X032410Y014241D01*
X032438Y014278D01*
X032469Y014313D01*
X032503Y014346D01*
X032539Y014375D01*
X032578Y014401D01*
X032619Y014424D01*
X032662Y014443D01*
X032706Y014459D01*
X032751Y014471D01*
X032797Y014479D01*
X032844Y014483D01*
X032890Y014483D01*
X032937Y014479D01*
X032983Y014471D01*
X033028Y014459D01*
X033072Y014443D01*
X033115Y014424D01*
X033156Y014401D01*
X033195Y014375D01*
X033231Y014346D01*
X033265Y014313D01*
X033296Y014278D01*
X033324Y014241D01*
X033348Y014201D01*
X033369Y014159D01*
X033387Y014116D01*
X033400Y014071D01*
X033410Y014025D01*
X033416Y013979D01*
X033418Y013932D01*
X033416Y013885D01*
X033410Y013839D01*
X033400Y013793D01*
X033387Y013748D01*
X033369Y013705D01*
X033348Y013663D01*
X033324Y013623D01*
X033296Y013586D01*
X033265Y013551D01*
X033231Y013518D01*
X033195Y013489D01*
X033156Y013463D01*
X033115Y013440D01*
X033072Y013421D01*
X033028Y013405D01*
X032983Y013393D01*
X032937Y013385D01*
X032890Y013381D01*
X032844Y013381D01*
X032797Y013385D01*
X032751Y013393D01*
X032706Y013405D01*
X032662Y013421D01*
X032619Y013440D01*
X032578Y013463D01*
X032539Y013489D01*
X032503Y013518D01*
X032469Y013551D01*
X032438Y013586D01*
X032410Y013623D01*
X032386Y013663D01*
X032365Y013705D01*
X032347Y013748D01*
X032334Y013793D01*
X032324Y013839D01*
X032318Y013885D01*
X032316Y013932D01*
X031936Y025502D02*
X031938Y025549D01*
X031944Y025595D01*
X031954Y025641D01*
X031967Y025686D01*
X031985Y025729D01*
X032006Y025771D01*
X032030Y025811D01*
X032058Y025848D01*
X032089Y025883D01*
X032123Y025916D01*
X032159Y025945D01*
X032198Y025971D01*
X032239Y025994D01*
X032282Y026013D01*
X032326Y026029D01*
X032371Y026041D01*
X032417Y026049D01*
X032464Y026053D01*
X032510Y026053D01*
X032557Y026049D01*
X032603Y026041D01*
X032648Y026029D01*
X032692Y026013D01*
X032735Y025994D01*
X032776Y025971D01*
X032815Y025945D01*
X032851Y025916D01*
X032885Y025883D01*
X032916Y025848D01*
X032944Y025811D01*
X032968Y025771D01*
X032989Y025729D01*
X033007Y025686D01*
X033020Y025641D01*
X033030Y025595D01*
X033036Y025549D01*
X033038Y025502D01*
X033036Y025455D01*
X033030Y025409D01*
X033020Y025363D01*
X033007Y025318D01*
X032989Y025275D01*
X032968Y025233D01*
X032944Y025193D01*
X032916Y025156D01*
X032885Y025121D01*
X032851Y025088D01*
X032815Y025059D01*
X032776Y025033D01*
X032735Y025010D01*
X032692Y024991D01*
X032648Y024975D01*
X032603Y024963D01*
X032557Y024955D01*
X032510Y024951D01*
X032464Y024951D01*
X032417Y024955D01*
X032371Y024963D01*
X032326Y024975D01*
X032282Y024991D01*
X032239Y025010D01*
X032198Y025033D01*
X032159Y025059D01*
X032123Y025088D01*
X032089Y025121D01*
X032058Y025156D01*
X032030Y025193D01*
X032006Y025233D01*
X031985Y025275D01*
X031967Y025318D01*
X031954Y025363D01*
X031944Y025409D01*
X031938Y025455D01*
X031936Y025502D01*
X038316Y030232D02*
X038318Y030279D01*
X038324Y030325D01*
X038334Y030371D01*
X038347Y030416D01*
X038365Y030459D01*
X038386Y030501D01*
X038410Y030541D01*
X038438Y030578D01*
X038469Y030613D01*
X038503Y030646D01*
X038539Y030675D01*
X038578Y030701D01*
X038619Y030724D01*
X038662Y030743D01*
X038706Y030759D01*
X038751Y030771D01*
X038797Y030779D01*
X038844Y030783D01*
X038890Y030783D01*
X038937Y030779D01*
X038983Y030771D01*
X039028Y030759D01*
X039072Y030743D01*
X039115Y030724D01*
X039156Y030701D01*
X039195Y030675D01*
X039231Y030646D01*
X039265Y030613D01*
X039296Y030578D01*
X039324Y030541D01*
X039348Y030501D01*
X039369Y030459D01*
X039387Y030416D01*
X039400Y030371D01*
X039410Y030325D01*
X039416Y030279D01*
X039418Y030232D01*
X039416Y030185D01*
X039410Y030139D01*
X039400Y030093D01*
X039387Y030048D01*
X039369Y030005D01*
X039348Y029963D01*
X039324Y029923D01*
X039296Y029886D01*
X039265Y029851D01*
X039231Y029818D01*
X039195Y029789D01*
X039156Y029763D01*
X039115Y029740D01*
X039072Y029721D01*
X039028Y029705D01*
X038983Y029693D01*
X038937Y029685D01*
X038890Y029681D01*
X038844Y029681D01*
X038797Y029685D01*
X038751Y029693D01*
X038706Y029705D01*
X038662Y029721D01*
X038619Y029740D01*
X038578Y029763D01*
X038539Y029789D01*
X038503Y029818D01*
X038469Y029851D01*
X038438Y029886D01*
X038410Y029923D01*
X038386Y029963D01*
X038365Y030005D01*
X038347Y030048D01*
X038334Y030093D01*
X038324Y030139D01*
X038318Y030185D01*
X038316Y030232D01*
X044566Y035832D02*
X044568Y035879D01*
X044574Y035925D01*
X044584Y035971D01*
X044597Y036016D01*
X044615Y036059D01*
X044636Y036101D01*
X044660Y036141D01*
X044688Y036178D01*
X044719Y036213D01*
X044753Y036246D01*
X044789Y036275D01*
X044828Y036301D01*
X044869Y036324D01*
X044912Y036343D01*
X044956Y036359D01*
X045001Y036371D01*
X045047Y036379D01*
X045094Y036383D01*
X045140Y036383D01*
X045187Y036379D01*
X045233Y036371D01*
X045278Y036359D01*
X045322Y036343D01*
X045365Y036324D01*
X045406Y036301D01*
X045445Y036275D01*
X045481Y036246D01*
X045515Y036213D01*
X045546Y036178D01*
X045574Y036141D01*
X045598Y036101D01*
X045619Y036059D01*
X045637Y036016D01*
X045650Y035971D01*
X045660Y035925D01*
X045666Y035879D01*
X045668Y035832D01*
X045666Y035785D01*
X045660Y035739D01*
X045650Y035693D01*
X045637Y035648D01*
X045619Y035605D01*
X045598Y035563D01*
X045574Y035523D01*
X045546Y035486D01*
X045515Y035451D01*
X045481Y035418D01*
X045445Y035389D01*
X045406Y035363D01*
X045365Y035340D01*
X045322Y035321D01*
X045278Y035305D01*
X045233Y035293D01*
X045187Y035285D01*
X045140Y035281D01*
X045094Y035281D01*
X045047Y035285D01*
X045001Y035293D01*
X044956Y035305D01*
X044912Y035321D01*
X044869Y035340D01*
X044828Y035363D01*
X044789Y035389D01*
X044753Y035418D01*
X044719Y035451D01*
X044688Y035486D01*
X044660Y035523D01*
X044636Y035563D01*
X044615Y035605D01*
X044597Y035648D01*
X044584Y035693D01*
X044574Y035739D01*
X044568Y035785D01*
X044566Y035832D01*
X022816Y030232D02*
X022818Y030279D01*
X022824Y030325D01*
X022834Y030371D01*
X022847Y030416D01*
X022865Y030459D01*
X022886Y030501D01*
X022910Y030541D01*
X022938Y030578D01*
X022969Y030613D01*
X023003Y030646D01*
X023039Y030675D01*
X023078Y030701D01*
X023119Y030724D01*
X023162Y030743D01*
X023206Y030759D01*
X023251Y030771D01*
X023297Y030779D01*
X023344Y030783D01*
X023390Y030783D01*
X023437Y030779D01*
X023483Y030771D01*
X023528Y030759D01*
X023572Y030743D01*
X023615Y030724D01*
X023656Y030701D01*
X023695Y030675D01*
X023731Y030646D01*
X023765Y030613D01*
X023796Y030578D01*
X023824Y030541D01*
X023848Y030501D01*
X023869Y030459D01*
X023887Y030416D01*
X023900Y030371D01*
X023910Y030325D01*
X023916Y030279D01*
X023918Y030232D01*
X023916Y030185D01*
X023910Y030139D01*
X023900Y030093D01*
X023887Y030048D01*
X023869Y030005D01*
X023848Y029963D01*
X023824Y029923D01*
X023796Y029886D01*
X023765Y029851D01*
X023731Y029818D01*
X023695Y029789D01*
X023656Y029763D01*
X023615Y029740D01*
X023572Y029721D01*
X023528Y029705D01*
X023483Y029693D01*
X023437Y029685D01*
X023390Y029681D01*
X023344Y029681D01*
X023297Y029685D01*
X023251Y029693D01*
X023206Y029705D01*
X023162Y029721D01*
X023119Y029740D01*
X023078Y029763D01*
X023039Y029789D01*
X023003Y029818D01*
X022969Y029851D01*
X022938Y029886D01*
X022910Y029923D01*
X022886Y029963D01*
X022865Y030005D01*
X022847Y030048D01*
X022834Y030093D01*
X022824Y030139D01*
X022818Y030185D01*
X022816Y030232D01*
X016816Y013932D02*
X016818Y013979D01*
X016824Y014025D01*
X016834Y014071D01*
X016847Y014116D01*
X016865Y014159D01*
X016886Y014201D01*
X016910Y014241D01*
X016938Y014278D01*
X016969Y014313D01*
X017003Y014346D01*
X017039Y014375D01*
X017078Y014401D01*
X017119Y014424D01*
X017162Y014443D01*
X017206Y014459D01*
X017251Y014471D01*
X017297Y014479D01*
X017344Y014483D01*
X017390Y014483D01*
X017437Y014479D01*
X017483Y014471D01*
X017528Y014459D01*
X017572Y014443D01*
X017615Y014424D01*
X017656Y014401D01*
X017695Y014375D01*
X017731Y014346D01*
X017765Y014313D01*
X017796Y014278D01*
X017824Y014241D01*
X017848Y014201D01*
X017869Y014159D01*
X017887Y014116D01*
X017900Y014071D01*
X017910Y014025D01*
X017916Y013979D01*
X017918Y013932D01*
X017916Y013885D01*
X017910Y013839D01*
X017900Y013793D01*
X017887Y013748D01*
X017869Y013705D01*
X017848Y013663D01*
X017824Y013623D01*
X017796Y013586D01*
X017765Y013551D01*
X017731Y013518D01*
X017695Y013489D01*
X017656Y013463D01*
X017615Y013440D01*
X017572Y013421D01*
X017528Y013405D01*
X017483Y013393D01*
X017437Y013385D01*
X017390Y013381D01*
X017344Y013381D01*
X017297Y013385D01*
X017251Y013393D01*
X017206Y013405D01*
X017162Y013421D01*
X017119Y013440D01*
X017078Y013463D01*
X017039Y013489D01*
X017003Y013518D01*
X016969Y013551D01*
X016938Y013586D01*
X016910Y013623D01*
X016886Y013663D01*
X016865Y013705D01*
X016847Y013748D01*
X016834Y013793D01*
X016824Y013839D01*
X016818Y013885D01*
X016816Y013932D01*
X009101Y006212D02*
X009103Y006259D01*
X009109Y006305D01*
X009119Y006351D01*
X009132Y006396D01*
X009150Y006439D01*
X009171Y006481D01*
X009195Y006521D01*
X009223Y006558D01*
X009254Y006593D01*
X009288Y006626D01*
X009324Y006655D01*
X009363Y006681D01*
X009404Y006704D01*
X009447Y006723D01*
X009491Y006739D01*
X009536Y006751D01*
X009582Y006759D01*
X009629Y006763D01*
X009675Y006763D01*
X009722Y006759D01*
X009768Y006751D01*
X009813Y006739D01*
X009857Y006723D01*
X009900Y006704D01*
X009941Y006681D01*
X009980Y006655D01*
X010016Y006626D01*
X010050Y006593D01*
X010081Y006558D01*
X010109Y006521D01*
X010133Y006481D01*
X010154Y006439D01*
X010172Y006396D01*
X010185Y006351D01*
X010195Y006305D01*
X010201Y006259D01*
X010203Y006212D01*
X010201Y006165D01*
X010195Y006119D01*
X010185Y006073D01*
X010172Y006028D01*
X010154Y005985D01*
X010133Y005943D01*
X010109Y005903D01*
X010081Y005866D01*
X010050Y005831D01*
X010016Y005798D01*
X009980Y005769D01*
X009941Y005743D01*
X009900Y005720D01*
X009857Y005701D01*
X009813Y005685D01*
X009768Y005673D01*
X009722Y005665D01*
X009675Y005661D01*
X009629Y005661D01*
X009582Y005665D01*
X009536Y005673D01*
X009491Y005685D01*
X009447Y005701D01*
X009404Y005720D01*
X009363Y005743D01*
X009324Y005769D01*
X009288Y005798D01*
X009254Y005831D01*
X009223Y005866D01*
X009195Y005903D01*
X009171Y005943D01*
X009150Y005985D01*
X009132Y006028D01*
X009119Y006073D01*
X009109Y006119D01*
X009103Y006165D01*
X009101Y006212D01*
D12*
X024117Y017082D03*
X024117Y018082D03*
X025117Y018182D03*
X026117Y018082D03*
X026117Y017082D03*
X025117Y017182D03*
X041367Y012282D03*
X041367Y011282D03*
X042367Y011382D03*
X043367Y011282D03*
X043367Y012282D03*
X044367Y012382D03*
X044367Y011382D03*
X045367Y011282D03*
X042367Y012382D03*
D13*
X015817Y022332D03*
X015917Y023332D03*
X015817Y024332D03*
X015917Y025332D03*
X015817Y026332D03*
X015917Y027332D03*
D14*
X010117Y022332D03*
X010117Y018832D03*
X012117Y006582D03*
X015617Y006582D03*
X019117Y006582D03*
X022617Y006582D03*
X026867Y006582D03*
X030367Y006582D03*
X033867Y006582D03*
X037367Y006582D03*
X037117Y037582D03*
X040617Y037582D03*
X044117Y037582D03*
X033617Y037582D03*
X029367Y037582D03*
X025867Y037582D03*
X022367Y037582D03*
X018867Y037582D03*
D15*
X017367Y037582D03*
X020867Y037582D03*
X024367Y037582D03*
X027867Y037582D03*
X032117Y037582D03*
X035617Y037582D03*
X039117Y037582D03*
X042617Y037582D03*
X010117Y020832D03*
X010117Y017332D03*
X013617Y006582D03*
X017117Y006582D03*
X020617Y006582D03*
X024117Y006582D03*
X028367Y006582D03*
X031867Y006582D03*
X035367Y006582D03*
X038867Y006582D03*
D16*
X045367Y012282D03*
D17*
X009627Y024692D03*
X009627Y026472D03*
D18*
X010607Y026962D03*
X010607Y024202D03*
D19*
X039267Y023582D03*
X039867Y023582D03*
X040467Y023582D03*
X040467Y025082D03*
X039867Y025082D03*
X039267Y025082D03*
X039267Y026582D03*
X039867Y026582D03*
X040467Y026582D03*
X040467Y022082D03*
X039867Y022082D03*
X039267Y022082D03*
X039267Y020582D03*
X039867Y020582D03*
X040467Y020582D03*
X040467Y019082D03*
X039867Y019082D03*
X039267Y019082D03*
D20*
X011867Y037832D03*
D21*
X013835Y037832D03*
D22*
X015617Y035702D02*
X015617Y034962D01*
X011617Y034962D02*
X011617Y035702D01*
D23*
X017367Y036082D03*
X017367Y036582D03*
X021617Y036082D03*
X022117Y036082D03*
X022117Y033082D03*
X021617Y033082D03*
X022117Y032082D03*
X021867Y031832D03*
X021367Y031832D03*
X023117Y032582D03*
X024617Y032082D03*
X024867Y031832D03*
X025367Y031832D03*
X025367Y033082D03*
X025867Y033082D03*
X026367Y032582D03*
X024867Y033082D03*
X026867Y035332D03*
X029867Y035332D03*
X032617Y036082D03*
X032867Y035832D03*
X032367Y031832D03*
X034117Y031832D03*
X036367Y032082D03*
X036867Y032082D03*
X037367Y032082D03*
X037867Y032082D03*
X037617Y033082D03*
X037117Y033082D03*
X038367Y033082D03*
X040117Y033082D03*
X040617Y033082D03*
X041117Y033082D03*
X041117Y032582D03*
X041367Y032082D03*
X040867Y032082D03*
X040367Y032082D03*
X037617Y036082D03*
X037117Y036082D03*
X034117Y028332D03*
X034117Y027832D03*
X032617Y027832D03*
X032617Y027332D03*
X030617Y027332D03*
X034117Y024332D03*
X034867Y024082D03*
X034867Y023582D03*
X034867Y023082D03*
X034867Y022582D03*
X034867Y022082D03*
X035367Y021582D03*
X033367Y021832D03*
X032717Y021832D03*
X032367Y021332D03*
X032367Y020832D03*
X032617Y020332D03*
X032617Y019332D03*
X034367Y019832D03*
X034117Y018082D03*
X032117Y017582D03*
X031617Y017582D03*
X031617Y017082D03*
X032117Y017082D03*
X029617Y014582D03*
X027367Y017082D03*
X027367Y019332D03*
X028617Y019332D03*
X029117Y020582D03*
X029867Y020082D03*
X030617Y020082D03*
X030617Y021082D03*
X030117Y022582D03*
X031117Y023082D03*
X028117Y021582D03*
X027367Y020582D03*
X025867Y021582D03*
X025117Y022832D03*
X024367Y021832D03*
X021867Y023582D03*
X021617Y025082D03*
X017867Y021582D03*
X018617Y019332D03*
X021867Y016582D03*
X025867Y012832D03*
X026617Y012832D03*
X027867Y012332D03*
X025617Y011832D03*
X023367Y008082D03*
X023617Y007832D03*
X019117Y011082D03*
X018617Y011082D03*
X018617Y012082D03*
X018867Y012332D03*
X019367Y012332D03*
X017617Y011582D03*
X016117Y012082D03*
X015867Y012332D03*
X015367Y012332D03*
X015117Y011582D03*
X015367Y011082D03*
X015867Y011082D03*
X018367Y008082D03*
X018867Y008082D03*
X013617Y014832D03*
X011867Y021582D03*
X013367Y022332D03*
X014867Y022582D03*
X012117Y025832D03*
X026117Y027582D03*
X027117Y023582D03*
X036367Y019582D03*
X038117Y018082D03*
X038617Y018082D03*
X040617Y017082D03*
X041367Y017832D03*
X042117Y017832D03*
X042867Y017832D03*
X043617Y017832D03*
X044367Y017832D03*
X044367Y017082D03*
X043617Y017082D03*
X042117Y017082D03*
X041867Y016332D03*
X042367Y014332D03*
X042617Y014082D03*
X039367Y009332D03*
X038867Y009332D03*
X039367Y008832D03*
X039867Y008832D03*
X038867Y007832D03*
X038867Y007332D03*
X034617Y008082D03*
X034117Y008082D03*
X034117Y011332D03*
X034617Y011332D03*
X034617Y012332D03*
X035117Y012332D03*
X034117Y012332D03*
X033117Y011832D03*
X031617Y012332D03*
X031117Y012332D03*
X030617Y012332D03*
X030617Y011832D03*
X030867Y011332D03*
X031367Y011332D03*
X036867Y016332D03*
X040867Y019832D03*
X042617Y021832D03*
X040867Y022832D03*
X042117Y024832D03*
X042867Y024832D03*
X042867Y025582D03*
X043367Y025832D03*
X043867Y025832D03*
X044367Y025582D03*
X044367Y024832D03*
X043617Y024832D03*
X042367Y025832D03*
X041867Y025832D03*
X040867Y025832D03*
X040367Y025832D03*
X042867Y026582D03*
X042867Y027082D03*
X044367Y027082D03*
X044367Y026582D03*
X037617Y024832D03*
D24*
X036867Y025582D02*
X039617Y025582D01*
X039867Y025332D01*
X039867Y025082D01*
X039267Y024682D02*
X039617Y024332D01*
X041117Y024332D01*
X041367Y024082D01*
X041367Y027082D01*
X041117Y027332D01*
X039617Y027332D01*
X039367Y027082D01*
X039367Y026682D01*
X039267Y026582D01*
X039867Y026582D02*
X039867Y026082D01*
X039617Y025832D01*
X036617Y025832D01*
X034867Y024082D01*
X034867Y023582D02*
X036867Y025582D01*
X039267Y025082D02*
X039267Y024682D01*
X039617Y024332D02*
X039267Y023982D01*
X039267Y023582D01*
X039617Y023082D02*
X039867Y023332D01*
X039867Y023582D01*
X039617Y023082D02*
X034867Y023082D01*
X034867Y022582D02*
X035117Y022582D01*
X035367Y022832D01*
X039617Y022832D01*
X039867Y022582D01*
X039867Y022082D01*
X039267Y022082D02*
X039267Y021682D01*
X039617Y021332D01*
X041117Y021332D01*
X041367Y021082D01*
X041367Y024082D01*
X039617Y021332D02*
X039267Y020982D01*
X039267Y020582D01*
X039617Y020082D02*
X039867Y020332D01*
X039867Y020582D01*
X039617Y020082D02*
X037367Y020082D01*
X035367Y022082D01*
X034867Y022082D01*
X035367Y021582D02*
X037117Y019832D01*
X039617Y019832D01*
X039867Y019582D01*
X039867Y019082D01*
X039267Y019082D02*
X039267Y018432D01*
X039617Y018082D01*
X040617Y018082D01*
X041367Y018832D01*
X041367Y021082D01*
X039267Y019082D02*
X037867Y019082D01*
X036867Y018082D01*
X034117Y018082D01*
X033617Y019082D02*
X033617Y016832D01*
X031867Y015082D01*
X031867Y013082D01*
X033117Y011832D01*
X030617Y011832D02*
X030117Y012332D01*
X030117Y013832D01*
X033367Y017082D01*
X033367Y021832D01*
X032717Y021832D02*
X032617Y021932D01*
X032617Y023582D01*
X037117Y028082D01*
X037117Y029832D01*
X039867Y032582D01*
X041117Y032582D01*
X038367Y033082D02*
X038367Y031582D01*
X036867Y030082D01*
X036867Y028332D01*
X032117Y023582D01*
X032117Y021582D01*
X032367Y021332D01*
X032367Y020832D02*
X032117Y020832D01*
X031867Y021082D01*
X031867Y024332D01*
X027367Y028832D01*
X027367Y031582D01*
X026367Y032582D01*
X023117Y032582D02*
X031617Y024082D01*
X031617Y020832D01*
X032117Y020332D01*
X032617Y020332D01*
X031867Y019832D02*
X031117Y020582D01*
X029867Y020582D01*
X027617Y022832D01*
X025117Y022832D01*
X025867Y021582D02*
X025117Y020832D01*
X015617Y020832D01*
X014117Y022332D01*
X013367Y022332D01*
X017867Y021582D02*
X019867Y021582D01*
X021867Y023582D01*
X022617Y020082D02*
X020117Y017582D01*
X020117Y015332D01*
X016367Y011582D01*
X015117Y011582D01*
X017617Y011582D02*
X017867Y011832D01*
X017867Y012582D01*
X020367Y015082D01*
X020367Y017332D01*
X022867Y019832D01*
X029117Y019832D01*
X029367Y019582D01*
X030367Y019582D01*
X030617Y019832D01*
X030617Y020082D01*
X029867Y020082D02*
X022617Y020082D01*
X024117Y018332D02*
X024117Y018082D01*
X024117Y018332D02*
X024867Y019082D01*
X026867Y019082D01*
X027117Y018832D01*
X031367Y018832D01*
X031867Y019332D01*
X031867Y019832D01*
X030617Y021082D02*
X030617Y022082D01*
X030117Y022582D01*
X030617Y023582D02*
X031117Y023082D01*
X030617Y023582D02*
X027117Y023582D01*
X027367Y020582D02*
X029117Y020582D01*
X026867Y018082D02*
X026117Y018082D01*
X026867Y018082D02*
X027367Y017582D01*
X027367Y017082D01*
X026617Y012832D02*
X028867Y010582D01*
X042617Y010582D01*
X043317Y011282D01*
X043367Y011282D01*
X043367Y010332D02*
X028367Y010332D01*
X025867Y012832D01*
X025617Y011832D02*
X027367Y010082D01*
X044117Y010082D01*
X045317Y011282D01*
X045367Y011282D01*
X044367Y011332D02*
X043367Y010332D01*
X044367Y011332D02*
X044367Y011382D01*
X044367Y012382D02*
X044367Y012582D01*
X043867Y013082D01*
X037867Y013082D01*
X035617Y010832D01*
X029367Y010832D01*
X027867Y012332D01*
X033617Y019082D02*
X034367Y019832D01*
D25*
X032117Y017582D02*
X031617Y017582D01*
X030367Y017582D01*
X028617Y015832D01*
X025867Y015832D01*
X020117Y010082D01*
X018117Y010082D01*
X017117Y009082D01*
X017117Y006582D01*
X018117Y007582D02*
X017617Y008082D01*
X017617Y008832D01*
X018367Y009582D01*
X020367Y009582D01*
X026117Y015332D01*
X028617Y015332D01*
X030367Y017082D01*
X031617Y017082D01*
X032117Y017082D01*
X038117Y018082D02*
X038617Y018082D01*
X042367Y014332D01*
X042617Y014082D01*
X042742Y013957D01*
X039367Y009332D02*
X038867Y009332D01*
X033867Y009332D01*
X031867Y007332D01*
X031867Y006582D01*
X033367Y007832D02*
X033367Y008082D01*
X034117Y008832D01*
X039367Y008832D01*
X039867Y008832D01*
X035367Y006582D02*
X034367Y007582D01*
X033617Y007582D01*
X033367Y007832D01*
X020617Y006582D02*
X019617Y007582D01*
X018117Y007582D01*
D26*
X018367Y008082D02*
X023367Y008082D01*
X023617Y007832D01*
X034117Y008082D02*
X035117Y008082D01*
X035367Y008332D01*
X038452Y008332D01*
X038867Y007916D01*
X038867Y007832D01*
X038867Y007332D01*
X036367Y035832D02*
X032867Y035832D01*
X032617Y036082D01*
X036367Y035832D02*
X036617Y036082D01*
X037617Y036082D01*
X022117Y036082D02*
X017367Y036082D01*
X017367Y036582D01*
D27*
X020867Y037332D02*
X021617Y036582D01*
X023117Y036582D01*
X025867Y033832D01*
X029367Y033832D01*
X032617Y030582D01*
X032617Y027832D01*
X032617Y027332D01*
X034117Y027832D02*
X034117Y028332D01*
X034117Y030832D01*
X030117Y034832D01*
X026367Y034832D01*
X024367Y036832D01*
X024367Y037582D01*
X020867Y037582D02*
X020867Y037332D01*
X035617Y037332D02*
X036367Y036582D01*
X038367Y036582D01*
X040867Y034082D01*
X041867Y034082D01*
X042867Y033082D01*
X042867Y027082D01*
X042867Y026582D01*
X044367Y026582D02*
X044367Y027082D01*
X044367Y033332D01*
X042617Y035082D01*
X041117Y035082D01*
X039117Y037082D01*
X039117Y037582D01*
X035617Y037582D02*
X035617Y037332D01*
M02*
