G75*
%MOIN*%
%OFA0B0*%
%FSLAX24Y24*%
%IPPOS*%
%LPD*%
%AMOC8*
5,1,8,0,0,1.08239X$1,22.5*
%
%ADD10C,0.0160*%
%ADD11C,0.0000*%
%ADD12C,0.0177*%
%ADD13R,0.0500X0.0220*%
%ADD14R,0.0220X0.0500*%
%ADD15R,0.0394X0.0433*%
%ADD16R,0.0433X0.0394*%
%ADD17R,0.0551X0.1496*%
%ADD18R,0.4098X0.4252*%
%ADD19R,0.0850X0.0420*%
%ADD20R,0.2126X0.1575*%
%ADD21R,0.1181X0.0551*%
%ADD22R,0.0906X0.1378*%
%ADD23R,0.0610X0.0669*%
%ADD24R,0.0354X0.0374*%
%ADD25R,0.0600X0.0240*%
%ADD26R,0.0260X0.0800*%
%ADD27R,0.0354X0.0315*%
%ADD28R,0.0472X0.0217*%
%ADD29R,0.0800X0.0260*%
%ADD30R,0.0217X0.0472*%
%ADD31R,0.0512X0.0591*%
%ADD32R,0.0315X0.0354*%
%ADD33R,0.0787X0.0787*%
%ADD34R,0.0472X0.0551*%
%ADD35R,0.0236X0.0472*%
%ADD36R,0.0579X0.0500*%
%ADD37R,0.0701X0.1378*%
D10*
X008367Y006725D02*
X008367Y040371D01*
X008369Y040415D01*
X008375Y040458D01*
X008384Y040500D01*
X008397Y040542D01*
X008414Y040582D01*
X008434Y040621D01*
X008457Y040658D01*
X008484Y040692D01*
X008513Y040725D01*
X008546Y040754D01*
X008580Y040781D01*
X008617Y040804D01*
X008656Y040824D01*
X008696Y040841D01*
X008738Y040854D01*
X008780Y040863D01*
X008823Y040869D01*
X008867Y040871D01*
X046135Y040871D01*
X046179Y040869D01*
X046222Y040863D01*
X046264Y040854D01*
X046306Y040841D01*
X046346Y040824D01*
X046385Y040804D01*
X046422Y040781D01*
X046456Y040754D01*
X046489Y040725D01*
X046518Y040692D01*
X046545Y040658D01*
X046568Y040621D01*
X046588Y040582D01*
X046605Y040542D01*
X046618Y040500D01*
X046627Y040458D01*
X046633Y040415D01*
X046635Y040371D01*
X046635Y006725D01*
X046633Y006681D01*
X046627Y006638D01*
X046618Y006596D01*
X046605Y006554D01*
X046588Y006514D01*
X046568Y006475D01*
X046545Y006438D01*
X046518Y006404D01*
X046489Y006371D01*
X046456Y006342D01*
X046422Y006315D01*
X046385Y006292D01*
X046346Y006272D01*
X046306Y006255D01*
X046264Y006242D01*
X046222Y006233D01*
X046179Y006227D01*
X046135Y006225D01*
X008867Y006225D01*
X008823Y006227D01*
X008780Y006233D01*
X008738Y006242D01*
X008696Y006255D01*
X008656Y006272D01*
X008617Y006292D01*
X008580Y006315D01*
X008546Y006342D01*
X008513Y006371D01*
X008484Y006404D01*
X008457Y006438D01*
X008434Y006475D01*
X008414Y006514D01*
X008397Y006554D01*
X008384Y006596D01*
X008375Y006638D01*
X008369Y006681D01*
X008367Y006725D01*
D11*
X009103Y007678D02*
X009105Y007725D01*
X009111Y007771D01*
X009121Y007817D01*
X009134Y007862D01*
X009152Y007905D01*
X009173Y007947D01*
X009197Y007987D01*
X009225Y008024D01*
X009256Y008059D01*
X009290Y008092D01*
X009326Y008121D01*
X009365Y008147D01*
X009406Y008170D01*
X009449Y008189D01*
X009493Y008205D01*
X009538Y008217D01*
X009584Y008225D01*
X009631Y008229D01*
X009677Y008229D01*
X009724Y008225D01*
X009770Y008217D01*
X009815Y008205D01*
X009859Y008189D01*
X009902Y008170D01*
X009943Y008147D01*
X009982Y008121D01*
X010018Y008092D01*
X010052Y008059D01*
X010083Y008024D01*
X010111Y007987D01*
X010135Y007947D01*
X010156Y007905D01*
X010174Y007862D01*
X010187Y007817D01*
X010197Y007771D01*
X010203Y007725D01*
X010205Y007678D01*
X010203Y007631D01*
X010197Y007585D01*
X010187Y007539D01*
X010174Y007494D01*
X010156Y007451D01*
X010135Y007409D01*
X010111Y007369D01*
X010083Y007332D01*
X010052Y007297D01*
X010018Y007264D01*
X009982Y007235D01*
X009943Y007209D01*
X009902Y007186D01*
X009859Y007167D01*
X009815Y007151D01*
X009770Y007139D01*
X009724Y007131D01*
X009677Y007127D01*
X009631Y007127D01*
X009584Y007131D01*
X009538Y007139D01*
X009493Y007151D01*
X009449Y007167D01*
X009406Y007186D01*
X009365Y007209D01*
X009326Y007235D01*
X009290Y007264D01*
X009256Y007297D01*
X009225Y007332D01*
X009197Y007369D01*
X009173Y007409D01*
X009152Y007451D01*
X009134Y007494D01*
X009121Y007539D01*
X009111Y007585D01*
X009105Y007631D01*
X009103Y007678D01*
X031938Y007678D02*
X031940Y007725D01*
X031946Y007771D01*
X031956Y007817D01*
X031969Y007862D01*
X031987Y007905D01*
X032008Y007947D01*
X032032Y007987D01*
X032060Y008024D01*
X032091Y008059D01*
X032125Y008092D01*
X032161Y008121D01*
X032200Y008147D01*
X032241Y008170D01*
X032284Y008189D01*
X032328Y008205D01*
X032373Y008217D01*
X032419Y008225D01*
X032466Y008229D01*
X032512Y008229D01*
X032559Y008225D01*
X032605Y008217D01*
X032650Y008205D01*
X032694Y008189D01*
X032737Y008170D01*
X032778Y008147D01*
X032817Y008121D01*
X032853Y008092D01*
X032887Y008059D01*
X032918Y008024D01*
X032946Y007987D01*
X032970Y007947D01*
X032991Y007905D01*
X033009Y007862D01*
X033022Y007817D01*
X033032Y007771D01*
X033038Y007725D01*
X033040Y007678D01*
X033038Y007631D01*
X033032Y007585D01*
X033022Y007539D01*
X033009Y007494D01*
X032991Y007451D01*
X032970Y007409D01*
X032946Y007369D01*
X032918Y007332D01*
X032887Y007297D01*
X032853Y007264D01*
X032817Y007235D01*
X032778Y007209D01*
X032737Y007186D01*
X032694Y007167D01*
X032650Y007151D01*
X032605Y007139D01*
X032559Y007131D01*
X032512Y007127D01*
X032466Y007127D01*
X032419Y007131D01*
X032373Y007139D01*
X032328Y007151D01*
X032284Y007167D01*
X032241Y007186D01*
X032200Y007209D01*
X032161Y007235D01*
X032125Y007264D01*
X032091Y007297D01*
X032060Y007332D01*
X032032Y007369D01*
X032008Y007409D01*
X031987Y007451D01*
X031969Y007494D01*
X031956Y007539D01*
X031946Y007585D01*
X031940Y007631D01*
X031938Y007678D01*
X038737Y008050D02*
X038739Y008100D01*
X038745Y008150D01*
X038755Y008199D01*
X038769Y008247D01*
X038786Y008294D01*
X038807Y008339D01*
X038832Y008383D01*
X038860Y008424D01*
X038892Y008463D01*
X038926Y008500D01*
X038963Y008534D01*
X039003Y008564D01*
X039045Y008591D01*
X039089Y008615D01*
X039135Y008636D01*
X039182Y008652D01*
X039230Y008665D01*
X039280Y008674D01*
X039329Y008679D01*
X039380Y008680D01*
X039430Y008677D01*
X039479Y008670D01*
X039528Y008659D01*
X039576Y008644D01*
X039622Y008626D01*
X039667Y008604D01*
X039710Y008578D01*
X039751Y008549D01*
X039790Y008517D01*
X039826Y008482D01*
X039858Y008444D01*
X039888Y008404D01*
X039915Y008361D01*
X039938Y008317D01*
X039957Y008271D01*
X039973Y008223D01*
X039985Y008174D01*
X039993Y008125D01*
X039997Y008075D01*
X039997Y008025D01*
X039993Y007975D01*
X039985Y007926D01*
X039973Y007877D01*
X039957Y007829D01*
X039938Y007783D01*
X039915Y007739D01*
X039888Y007696D01*
X039858Y007656D01*
X039826Y007618D01*
X039790Y007583D01*
X039751Y007551D01*
X039710Y007522D01*
X039667Y007496D01*
X039622Y007474D01*
X039576Y007456D01*
X039528Y007441D01*
X039479Y007430D01*
X039430Y007423D01*
X039380Y007420D01*
X039329Y007421D01*
X039280Y007426D01*
X039230Y007435D01*
X039182Y007448D01*
X039135Y007464D01*
X039089Y007485D01*
X039045Y007509D01*
X039003Y007536D01*
X038963Y007566D01*
X038926Y007600D01*
X038892Y007637D01*
X038860Y007676D01*
X038832Y007717D01*
X038807Y007761D01*
X038786Y007806D01*
X038769Y007853D01*
X038755Y007901D01*
X038745Y007950D01*
X038739Y008000D01*
X038737Y008050D01*
X043737Y008050D02*
X043739Y008100D01*
X043745Y008150D01*
X043755Y008199D01*
X043769Y008247D01*
X043786Y008294D01*
X043807Y008339D01*
X043832Y008383D01*
X043860Y008424D01*
X043892Y008463D01*
X043926Y008500D01*
X043963Y008534D01*
X044003Y008564D01*
X044045Y008591D01*
X044089Y008615D01*
X044135Y008636D01*
X044182Y008652D01*
X044230Y008665D01*
X044280Y008674D01*
X044329Y008679D01*
X044380Y008680D01*
X044430Y008677D01*
X044479Y008670D01*
X044528Y008659D01*
X044576Y008644D01*
X044622Y008626D01*
X044667Y008604D01*
X044710Y008578D01*
X044751Y008549D01*
X044790Y008517D01*
X044826Y008482D01*
X044858Y008444D01*
X044888Y008404D01*
X044915Y008361D01*
X044938Y008317D01*
X044957Y008271D01*
X044973Y008223D01*
X044985Y008174D01*
X044993Y008125D01*
X044997Y008075D01*
X044997Y008025D01*
X044993Y007975D01*
X044985Y007926D01*
X044973Y007877D01*
X044957Y007829D01*
X044938Y007783D01*
X044915Y007739D01*
X044888Y007696D01*
X044858Y007656D01*
X044826Y007618D01*
X044790Y007583D01*
X044751Y007551D01*
X044710Y007522D01*
X044667Y007496D01*
X044622Y007474D01*
X044576Y007456D01*
X044528Y007441D01*
X044479Y007430D01*
X044430Y007423D01*
X044380Y007420D01*
X044329Y007421D01*
X044280Y007426D01*
X044230Y007435D01*
X044182Y007448D01*
X044135Y007464D01*
X044089Y007485D01*
X044045Y007509D01*
X044003Y007536D01*
X043963Y007566D01*
X043926Y007600D01*
X043892Y007637D01*
X043860Y007676D01*
X043832Y007717D01*
X043807Y007761D01*
X043786Y007806D01*
X043769Y007853D01*
X043755Y007901D01*
X043745Y007950D01*
X043739Y008000D01*
X043737Y008050D01*
X031938Y026969D02*
X031940Y027016D01*
X031946Y027062D01*
X031956Y027108D01*
X031969Y027153D01*
X031987Y027196D01*
X032008Y027238D01*
X032032Y027278D01*
X032060Y027315D01*
X032091Y027350D01*
X032125Y027383D01*
X032161Y027412D01*
X032200Y027438D01*
X032241Y027461D01*
X032284Y027480D01*
X032328Y027496D01*
X032373Y027508D01*
X032419Y027516D01*
X032466Y027520D01*
X032512Y027520D01*
X032559Y027516D01*
X032605Y027508D01*
X032650Y027496D01*
X032694Y027480D01*
X032737Y027461D01*
X032778Y027438D01*
X032817Y027412D01*
X032853Y027383D01*
X032887Y027350D01*
X032918Y027315D01*
X032946Y027278D01*
X032970Y027238D01*
X032991Y027196D01*
X033009Y027153D01*
X033022Y027108D01*
X033032Y027062D01*
X033038Y027016D01*
X033040Y026969D01*
X033038Y026922D01*
X033032Y026876D01*
X033022Y026830D01*
X033009Y026785D01*
X032991Y026742D01*
X032970Y026700D01*
X032946Y026660D01*
X032918Y026623D01*
X032887Y026588D01*
X032853Y026555D01*
X032817Y026526D01*
X032778Y026500D01*
X032737Y026477D01*
X032694Y026458D01*
X032650Y026442D01*
X032605Y026430D01*
X032559Y026422D01*
X032512Y026418D01*
X032466Y026418D01*
X032419Y026422D01*
X032373Y026430D01*
X032328Y026442D01*
X032284Y026458D01*
X032241Y026477D01*
X032200Y026500D01*
X032161Y026526D01*
X032125Y026555D01*
X032091Y026588D01*
X032060Y026623D01*
X032032Y026660D01*
X032008Y026700D01*
X031987Y026742D01*
X031969Y026785D01*
X031956Y026830D01*
X031946Y026876D01*
X031940Y026922D01*
X031938Y026969D01*
X038316Y031700D02*
X038318Y031747D01*
X038324Y031793D01*
X038334Y031839D01*
X038347Y031884D01*
X038365Y031927D01*
X038386Y031969D01*
X038410Y032009D01*
X038438Y032046D01*
X038469Y032081D01*
X038503Y032114D01*
X038539Y032143D01*
X038578Y032169D01*
X038619Y032192D01*
X038662Y032211D01*
X038706Y032227D01*
X038751Y032239D01*
X038797Y032247D01*
X038844Y032251D01*
X038890Y032251D01*
X038937Y032247D01*
X038983Y032239D01*
X039028Y032227D01*
X039072Y032211D01*
X039115Y032192D01*
X039156Y032169D01*
X039195Y032143D01*
X039231Y032114D01*
X039265Y032081D01*
X039296Y032046D01*
X039324Y032009D01*
X039348Y031969D01*
X039369Y031927D01*
X039387Y031884D01*
X039400Y031839D01*
X039410Y031793D01*
X039416Y031747D01*
X039418Y031700D01*
X039416Y031653D01*
X039410Y031607D01*
X039400Y031561D01*
X039387Y031516D01*
X039369Y031473D01*
X039348Y031431D01*
X039324Y031391D01*
X039296Y031354D01*
X039265Y031319D01*
X039231Y031286D01*
X039195Y031257D01*
X039156Y031231D01*
X039115Y031208D01*
X039072Y031189D01*
X039028Y031173D01*
X038983Y031161D01*
X038937Y031153D01*
X038890Y031149D01*
X038844Y031149D01*
X038797Y031153D01*
X038751Y031161D01*
X038706Y031173D01*
X038662Y031189D01*
X038619Y031208D01*
X038578Y031231D01*
X038539Y031257D01*
X038503Y031286D01*
X038469Y031319D01*
X038438Y031354D01*
X038410Y031391D01*
X038386Y031431D01*
X038365Y031473D01*
X038347Y031516D01*
X038334Y031561D01*
X038324Y031607D01*
X038318Y031653D01*
X038316Y031700D01*
X044566Y037300D02*
X044568Y037347D01*
X044574Y037393D01*
X044584Y037439D01*
X044597Y037484D01*
X044615Y037527D01*
X044636Y037569D01*
X044660Y037609D01*
X044688Y037646D01*
X044719Y037681D01*
X044753Y037714D01*
X044789Y037743D01*
X044828Y037769D01*
X044869Y037792D01*
X044912Y037811D01*
X044956Y037827D01*
X045001Y037839D01*
X045047Y037847D01*
X045094Y037851D01*
X045140Y037851D01*
X045187Y037847D01*
X045233Y037839D01*
X045278Y037827D01*
X045322Y037811D01*
X045365Y037792D01*
X045406Y037769D01*
X045445Y037743D01*
X045481Y037714D01*
X045515Y037681D01*
X045546Y037646D01*
X045574Y037609D01*
X045598Y037569D01*
X045619Y037527D01*
X045637Y037484D01*
X045650Y037439D01*
X045660Y037393D01*
X045666Y037347D01*
X045668Y037300D01*
X045666Y037253D01*
X045660Y037207D01*
X045650Y037161D01*
X045637Y037116D01*
X045619Y037073D01*
X045598Y037031D01*
X045574Y036991D01*
X045546Y036954D01*
X045515Y036919D01*
X045481Y036886D01*
X045445Y036857D01*
X045406Y036831D01*
X045365Y036808D01*
X045322Y036789D01*
X045278Y036773D01*
X045233Y036761D01*
X045187Y036753D01*
X045140Y036749D01*
X045094Y036749D01*
X045047Y036753D01*
X045001Y036761D01*
X044956Y036773D01*
X044912Y036789D01*
X044869Y036808D01*
X044828Y036831D01*
X044789Y036857D01*
X044753Y036886D01*
X044719Y036919D01*
X044688Y036954D01*
X044660Y036991D01*
X044636Y037031D01*
X044615Y037073D01*
X044597Y037116D01*
X044584Y037161D01*
X044574Y037207D01*
X044568Y037253D01*
X044566Y037300D01*
X027987Y039800D02*
X027989Y039850D01*
X027995Y039900D01*
X028005Y039949D01*
X028019Y039997D01*
X028036Y040044D01*
X028057Y040089D01*
X028082Y040133D01*
X028110Y040174D01*
X028142Y040213D01*
X028176Y040250D01*
X028213Y040284D01*
X028253Y040314D01*
X028295Y040341D01*
X028339Y040365D01*
X028385Y040386D01*
X028432Y040402D01*
X028480Y040415D01*
X028530Y040424D01*
X028579Y040429D01*
X028630Y040430D01*
X028680Y040427D01*
X028729Y040420D01*
X028778Y040409D01*
X028826Y040394D01*
X028872Y040376D01*
X028917Y040354D01*
X028960Y040328D01*
X029001Y040299D01*
X029040Y040267D01*
X029076Y040232D01*
X029108Y040194D01*
X029138Y040154D01*
X029165Y040111D01*
X029188Y040067D01*
X029207Y040021D01*
X029223Y039973D01*
X029235Y039924D01*
X029243Y039875D01*
X029247Y039825D01*
X029247Y039775D01*
X029243Y039725D01*
X029235Y039676D01*
X029223Y039627D01*
X029207Y039579D01*
X029188Y039533D01*
X029165Y039489D01*
X029138Y039446D01*
X029108Y039406D01*
X029076Y039368D01*
X029040Y039333D01*
X029001Y039301D01*
X028960Y039272D01*
X028917Y039246D01*
X028872Y039224D01*
X028826Y039206D01*
X028778Y039191D01*
X028729Y039180D01*
X028680Y039173D01*
X028630Y039170D01*
X028579Y039171D01*
X028530Y039176D01*
X028480Y039185D01*
X028432Y039198D01*
X028385Y039214D01*
X028339Y039235D01*
X028295Y039259D01*
X028253Y039286D01*
X028213Y039316D01*
X028176Y039350D01*
X028142Y039387D01*
X028110Y039426D01*
X028082Y039467D01*
X028057Y039511D01*
X028036Y039556D01*
X028019Y039603D01*
X028005Y039651D01*
X027995Y039700D01*
X027989Y039750D01*
X027987Y039800D01*
X022987Y039800D02*
X022989Y039850D01*
X022995Y039900D01*
X023005Y039949D01*
X023019Y039997D01*
X023036Y040044D01*
X023057Y040089D01*
X023082Y040133D01*
X023110Y040174D01*
X023142Y040213D01*
X023176Y040250D01*
X023213Y040284D01*
X023253Y040314D01*
X023295Y040341D01*
X023339Y040365D01*
X023385Y040386D01*
X023432Y040402D01*
X023480Y040415D01*
X023530Y040424D01*
X023579Y040429D01*
X023630Y040430D01*
X023680Y040427D01*
X023729Y040420D01*
X023778Y040409D01*
X023826Y040394D01*
X023872Y040376D01*
X023917Y040354D01*
X023960Y040328D01*
X024001Y040299D01*
X024040Y040267D01*
X024076Y040232D01*
X024108Y040194D01*
X024138Y040154D01*
X024165Y040111D01*
X024188Y040067D01*
X024207Y040021D01*
X024223Y039973D01*
X024235Y039924D01*
X024243Y039875D01*
X024247Y039825D01*
X024247Y039775D01*
X024243Y039725D01*
X024235Y039676D01*
X024223Y039627D01*
X024207Y039579D01*
X024188Y039533D01*
X024165Y039489D01*
X024138Y039446D01*
X024108Y039406D01*
X024076Y039368D01*
X024040Y039333D01*
X024001Y039301D01*
X023960Y039272D01*
X023917Y039246D01*
X023872Y039224D01*
X023826Y039206D01*
X023778Y039191D01*
X023729Y039180D01*
X023680Y039173D01*
X023630Y039170D01*
X023579Y039171D01*
X023530Y039176D01*
X023480Y039185D01*
X023432Y039198D01*
X023385Y039214D01*
X023339Y039235D01*
X023295Y039259D01*
X023253Y039286D01*
X023213Y039316D01*
X023176Y039350D01*
X023142Y039387D01*
X023110Y039426D01*
X023082Y039467D01*
X023057Y039511D01*
X023036Y039556D01*
X023019Y039603D01*
X023005Y039651D01*
X022995Y039700D01*
X022989Y039750D01*
X022987Y039800D01*
D12*
X022330Y017022D02*
X022330Y017022D01*
X022904Y017022D01*
X022904Y017022D01*
X022330Y017022D01*
X022330Y016550D02*
X022330Y016550D01*
X022904Y016550D01*
X022904Y016550D01*
X022330Y016550D01*
X022330Y016078D02*
X022330Y016078D01*
X022904Y016078D01*
X022904Y016078D01*
X022330Y016078D01*
D13*
X024677Y016948D03*
X024677Y017263D03*
X024677Y017578D03*
X024677Y017893D03*
X024677Y018207D03*
X024677Y018522D03*
X024677Y018837D03*
X024677Y019152D03*
X028057Y019152D03*
X028057Y018837D03*
X028057Y018522D03*
X028057Y018207D03*
X028057Y017893D03*
X028057Y017578D03*
X028057Y017263D03*
X028057Y016948D03*
D14*
X027469Y016360D03*
X027154Y016360D03*
X026839Y016360D03*
X026524Y016360D03*
X026209Y016360D03*
X025894Y016360D03*
X025579Y016360D03*
X025265Y016360D03*
X025265Y019740D03*
X025579Y019740D03*
X025894Y019740D03*
X026209Y019740D03*
X026524Y019740D03*
X026839Y019740D03*
X027154Y019740D03*
X027469Y019740D03*
D15*
X022117Y022215D03*
X022117Y022885D03*
X021867Y013885D03*
X021867Y013215D03*
X022867Y013215D03*
X022867Y013885D03*
X023867Y013885D03*
X023867Y013215D03*
X023617Y010885D03*
X023617Y010215D03*
X022617Y010215D03*
X022617Y010885D03*
X021617Y010885D03*
X021617Y010215D03*
X020617Y010215D03*
X020617Y010885D03*
X019367Y013215D03*
X019367Y013885D03*
X016867Y012885D03*
X016867Y012215D03*
X014367Y012215D03*
X014367Y012885D03*
X013367Y012885D03*
X013367Y012215D03*
X012367Y012215D03*
X012367Y012885D03*
X029367Y010885D03*
X029367Y010215D03*
X030317Y010215D03*
X030317Y010885D03*
X032617Y010385D03*
X032617Y009715D03*
X033617Y009715D03*
X033617Y010385D03*
X034617Y010385D03*
X034617Y009715D03*
X035617Y009715D03*
X035617Y010385D03*
X037117Y026465D03*
X037117Y027135D03*
X038617Y027135D03*
X038617Y026465D03*
X040117Y026465D03*
X040117Y027135D03*
X041617Y027135D03*
X041617Y026465D03*
D16*
X044532Y027550D03*
X045202Y027550D03*
X045202Y028550D03*
X044532Y028550D03*
X040952Y029800D03*
X040282Y029800D03*
X037452Y029800D03*
X036782Y029800D03*
X029952Y034300D03*
X029282Y034300D03*
X027952Y033550D03*
X027282Y033550D03*
X027282Y032800D03*
X027952Y032800D03*
X027952Y030800D03*
X027282Y030800D03*
X027282Y028800D03*
X027952Y028800D03*
X021452Y024300D03*
X020782Y024300D03*
X023282Y022550D03*
X023952Y022550D03*
X022952Y020050D03*
X022282Y020050D03*
X021452Y021300D03*
X020782Y021300D03*
X022282Y019050D03*
X022952Y019050D03*
X022952Y018050D03*
X022282Y018050D03*
X029782Y017550D03*
X030452Y017550D03*
X030452Y016550D03*
X029782Y016550D03*
X029782Y018550D03*
X030452Y018550D03*
X030452Y019550D03*
X029782Y019550D03*
X029782Y020550D03*
X030452Y020550D03*
X030452Y021550D03*
X029782Y021550D03*
X033782Y022300D03*
X034452Y022300D03*
X034452Y023300D03*
X033782Y023300D03*
X033782Y019800D03*
X034452Y019800D03*
X034452Y018800D03*
X033782Y018800D03*
X033782Y016300D03*
X034452Y016300D03*
X034452Y015300D03*
X033782Y015300D03*
X019202Y029300D03*
X018532Y029300D03*
X018532Y033550D03*
X019202Y033550D03*
X012202Y036050D03*
X011532Y036050D03*
X011782Y023050D03*
X012452Y023050D03*
X012452Y022300D03*
X012452Y021550D03*
X011782Y021550D03*
X011782Y022300D03*
X011782Y020800D03*
X011782Y020050D03*
X012452Y020050D03*
X012452Y020800D03*
X012452Y019300D03*
X011782Y019300D03*
X011782Y018550D03*
X011782Y017800D03*
X012452Y017800D03*
X012452Y018550D03*
X012452Y017050D03*
X011782Y017050D03*
X037282Y037550D03*
X037952Y037550D03*
X043032Y037550D03*
X043702Y037550D03*
D17*
X021367Y037231D03*
X021367Y034869D03*
X017867Y034869D03*
X017867Y037231D03*
X014367Y037231D03*
X014367Y034869D03*
D18*
X023867Y031550D03*
D19*
X020587Y031550D03*
X020587Y030880D03*
X020587Y030210D03*
X020587Y032220D03*
X020587Y032890D03*
D20*
X015367Y033229D03*
X015367Y029371D03*
X033617Y031121D03*
X033617Y034979D03*
X044067Y034979D03*
X044067Y031121D03*
D21*
X011062Y030300D03*
X009172Y030300D03*
X009172Y032900D03*
X011062Y032900D03*
D22*
X018867Y032081D03*
X037117Y031269D03*
X040617Y031269D03*
D23*
X040617Y032646D03*
X037117Y032646D03*
X018867Y030704D03*
D24*
X012487Y037300D03*
X011247Y037300D03*
D25*
X012537Y038300D03*
X012537Y038800D03*
X012537Y039300D03*
X012537Y039800D03*
X014697Y039800D03*
X014697Y039300D03*
X014697Y038800D03*
X014697Y038300D03*
D26*
X025117Y013760D03*
X025617Y013760D03*
X026117Y013760D03*
X026617Y013760D03*
X027117Y013760D03*
X027617Y013760D03*
X028117Y013760D03*
X028617Y013760D03*
X028617Y011340D03*
X028117Y011340D03*
X027617Y011340D03*
X027117Y011340D03*
X026617Y011340D03*
X026117Y011340D03*
X025617Y011340D03*
X025117Y011340D03*
D27*
X033723Y017176D03*
X034550Y017550D03*
X033723Y017924D03*
X033723Y020676D03*
X034550Y021050D03*
X033723Y021424D03*
X028011Y029426D03*
X028011Y030174D03*
X027184Y029800D03*
X028011Y031426D03*
X028011Y032174D03*
X027184Y031800D03*
X028011Y034676D03*
X028011Y035424D03*
X027184Y035050D03*
X026261Y034676D03*
X025434Y035050D03*
X026261Y035424D03*
X024511Y035424D03*
X024511Y034676D03*
X023684Y035050D03*
X021511Y022924D03*
X021511Y022176D03*
X020684Y022550D03*
D28*
X023105Y023676D03*
X023105Y024424D03*
X024129Y024424D03*
X024129Y024050D03*
X024129Y023676D03*
D29*
X019347Y023800D03*
X019347Y023300D03*
X019347Y022800D03*
X019347Y022300D03*
X019347Y021800D03*
X019347Y021300D03*
X019347Y020800D03*
X019347Y020300D03*
X019347Y019800D03*
X015387Y019800D03*
X015387Y020300D03*
X015387Y020800D03*
X015387Y021300D03*
X015387Y021800D03*
X015387Y022300D03*
X015387Y022800D03*
X015387Y023300D03*
X015387Y023800D03*
X015387Y024300D03*
X019347Y024300D03*
D30*
X020243Y014062D03*
X020617Y014062D03*
X020991Y014062D03*
X020991Y013038D03*
X020243Y013038D03*
X037243Y034038D03*
X037617Y034038D03*
X037991Y034038D03*
X037991Y035062D03*
X037243Y035062D03*
X039743Y035062D03*
X040491Y035062D03*
X040491Y034038D03*
X040117Y034038D03*
X039743Y034038D03*
D31*
X039743Y036050D03*
X040491Y036050D03*
X040491Y036800D03*
X039743Y036800D03*
X037991Y036800D03*
X037243Y036800D03*
X037243Y036050D03*
X037991Y036050D03*
D32*
X037367Y028733D03*
X037741Y027906D03*
X036993Y027906D03*
X038493Y027906D03*
X039241Y027906D03*
X039993Y027906D03*
X040741Y027906D03*
X041493Y027906D03*
X042241Y027906D03*
X041867Y028733D03*
X040367Y028733D03*
X038867Y028733D03*
X015617Y012983D03*
X015991Y012156D03*
X015243Y012156D03*
D33*
X035867Y018263D03*
X035867Y019837D03*
D34*
X044276Y026800D03*
X045457Y026800D03*
X045457Y029300D03*
X044276Y029300D03*
D35*
X035617Y013652D03*
X035117Y013652D03*
X034617Y013652D03*
X034117Y013652D03*
X033617Y013652D03*
X033117Y013652D03*
X032617Y013652D03*
X032117Y013652D03*
X032117Y011448D03*
X032617Y011448D03*
X033117Y011448D03*
X033617Y011448D03*
X034117Y011448D03*
X034617Y011448D03*
X035117Y011448D03*
X035617Y011448D03*
D36*
X029617Y030454D03*
X029617Y032146D03*
D37*
X030837Y037050D03*
X032896Y037050D03*
M02*
