%
M48
M72
T01C0.0197
T02C0.0236
T03C0.0315
T04C0.0320
T05C0.0354
T06C0.0400
T07C0.0472
T08C0.0512
T09C0.0520
T10C0.0590
T11C0.0787
T12C0.1102
T13C0.1260
%
T01
X9617Y9800
X9617Y10550
X11617Y12300
X11711Y14004
X13867Y14550
X14267Y15600
X15117Y14300
X15617Y12550
X17761Y13654
X19375Y12588
X19925Y11976
X18505Y10362
X21143Y8312
X24617Y11050
X26367Y12650
X27017Y13000
X27867Y12800
X28367Y12050
X29217Y12950
X28867Y15300
X27617Y15550
X26617Y15300
X26417Y14450
X25467Y14500
X24567Y14200
X23867Y14800
X22617Y14750
X22367Y12800
X20367Y13550
X20617Y16800
X21617Y16800
X20317Y18350
X19617Y18550
X18367Y19800
X17117Y18400
X15867Y19050
X15167Y18850
X14717Y19450
X14317Y20450
X12917Y19731
X12967Y17931
X12917Y21981
X13117Y24800
X11617Y25550
X9617Y23550
X9117Y23050
X9117Y24800
X14767Y25150
X16617Y23650
X17617Y23550
X17617Y23050
X17617Y24050
X18117Y25300
X17117Y25300
X20667Y23850
X21717Y24800
X21117Y25800
X22867Y25800
X23617Y24800
X24367Y25850
X24117Y23300
X23617Y23300
X25267Y22150
X25867Y20731
X25467Y20381
X26617Y18981
X26867Y17981
X26117Y17231
X25617Y16981
X24867Y16050
X24367Y16050
X23867Y16550
X23617Y17800
X23667Y19450
X20367Y20150
X25617Y15800
X27467Y16950
X28617Y16550
X28767Y18200
X28617Y18550
X29117Y19300
X29117Y20150
X31117Y21150
X31367Y22300
X31867Y22800
X32767Y22550
X33617Y22800
X33117Y23300
X32367Y21800
X32967Y20600
X30867Y23050
X28117Y23300
X27367Y25050
X30667Y28750
X31917Y28250
X33117Y29300
X33367Y28800
X34017Y29700
X34617Y28550
X34617Y27550
X36117Y27300
X36617Y28300
X37367Y28300
X38867Y28300
X39617Y29050
X40367Y28300
X41867Y28300
X42117Y27300
X43117Y28050
X42867Y29300
X44367Y32300
X44367Y32800
X43867Y32800
X44117Y33550
X43617Y33550
X43117Y33550
X42367Y33550
X41367Y33550
X40867Y33550
X40367Y33550
X40367Y34550
X40867Y34550
X41367Y34550
X40860Y35556
X39117Y37050
X39067Y37500
X38617Y37050
X36667Y37100
X36167Y37100
X36117Y34550
X36617Y34550
X36867Y33550
X37367Y33550
X37867Y33300
X36367Y33050
X36367Y33550
X35617Y30300
X35117Y31300
X33367Y33300
X32867Y33300
X32367Y33300
X31867Y33300
X31617Y34000
X30867Y34800
X28467Y35450
X28467Y35950
X27617Y35300
X27117Y34800
X26717Y35450
X26717Y35950
X25867Y35300
X25367Y34550
X24967Y35450
X24967Y35950
X24117Y35300
X23867Y34550
X23867Y32550
X24617Y32550
X25367Y32550
X25367Y31800
X24617Y31800
X23867Y31800
X23867Y31050
X24617Y31050
X25367Y31050
X25367Y30300
X24617Y30300
X23867Y30300
X23117Y30300
X23117Y31050
X22367Y31050
X22367Y30300
X22367Y31800
X23117Y31800
X23117Y32550
X22367Y32550
X26517Y32650
X27617Y31800
X28617Y31500
X29017Y30150
X30367Y30550
X30417Y31600
X32117Y30050
X35617Y26300
X36367Y26050
X37867Y24300
X39367Y24550
X38617Y25800
X41117Y25800
X45867Y26050
X40867Y20800
X40867Y19300
X42867Y19300
X44617Y19300
X41867Y17050
X41817Y14300
X40867Y13300
X39967Y12400
X40267Y11800
X42767Y12200
X43417Y11200
X43917Y10200
X44117Y9100
X42117Y7300
X40117Y7550
X38617Y8800
X40067Y9100
X45517Y11850
X37367Y14300
X35617Y14800
X35117Y15800
X36117Y16550
X35867Y17300
X37367Y16550
X33117Y14300
X34117Y12100
X30617Y15800
X31617Y18050
X36617Y21750
X35617Y22800
X27117Y30300
X26617Y31300
X20117Y38550
X19617Y38550
X15867Y39300
X15867Y39800
X15867Y40300
X15367Y40300
X15367Y39800
X15367Y39300
X12917Y36700
X12917Y36200
X12017Y36600
X11867Y36900
X11867Y37300
X11517Y36700
X13617Y34300
X13117Y33800
X14367Y34550
X13367Y31300
X17117Y30050
X17867Y30050
X40617Y38100
X42367Y40300
X45867Y33550
X45867Y33050
X45867Y32550
X28717Y9700
X33867Y7550
X14617Y9800
T02
X13617Y16550
X13617Y17050
X37367Y29200
X38867Y29200
X40367Y29200
X41867Y29200
T03
X29936Y32869
X29936Y36869
T04
X12267Y32950
X12267Y31950
X12267Y31150
X12267Y30150
T05
X11617Y7900
X12617Y7800
X12617Y8800
X13617Y8900
X14617Y8800
X14617Y7800
X15617Y7900
X16617Y7800
X17617Y7900
X18617Y7800
X18617Y8800
X17617Y8900
X16617Y8800
X15617Y8900
X13617Y7900
X11617Y8900
X23617Y8900
X24617Y8800
X24617Y7800
X25617Y7900
X26617Y7800
X26617Y8800
X27617Y8900
X28617Y8800
X28617Y7800
X29617Y7900
X30617Y7800
X30617Y8800
X29617Y8900
X27617Y7900
X25617Y8900
X23617Y7900
X40867Y9050
X41267Y9750
X40467Y9750
X41667Y9050
X42467Y9050
X42867Y9750
X42067Y9750
X43267Y9050
X43367Y12750
X43367Y13750
X44367Y13850
X44367Y12850
X45367Y12750
X45367Y13750
X42367Y13850
X42367Y12850
X41367Y12750
X41367Y13750
X41367Y23250
X42367Y23350
X42367Y24350
X43367Y24250
X44367Y24350
X44367Y23350
X45367Y23250
X45367Y24250
X43367Y23250
X41367Y24250
X30587Y26618
X29603Y26518
X28587Y26618
X28587Y27618
X27587Y27518
X26587Y27618
X26587Y26618
X25587Y26518
X24587Y26618
X24587Y27618
X23587Y27518
X22587Y27618
X22587Y26618
X21587Y26518
X20587Y26618
X20587Y27618
X19587Y27518
X18587Y27618
X18587Y26618
X17587Y26518
X16587Y26618
X16587Y27618
X17587Y27518
X15587Y27518
X14587Y27618
X14587Y26618
X13587Y26518
X12587Y26618
X12587Y27618
X11587Y27518
X11587Y26518
X13587Y27518
X15587Y26518
X19587Y26518
X21587Y27518
X23587Y26518
X25587Y27518
X27587Y26518
X29587Y27518
X30587Y27618
X27517Y38100
X26717Y38100
X25917Y38100
X25117Y38100
X25517Y38800
X26317Y38800
X27117Y38800
X24717Y38800
T06
X11367Y10850
X12367Y10750
X13367Y10850
X14367Y10750
X15367Y10850
X16367Y10750
X17367Y16550
X17367Y17550
X16367Y17650
X16367Y16650
X15367Y16550
X15367Y17550
X9627Y26160
X9627Y27940
X9317Y35800
X10317Y35800
X10417Y36800
X9417Y36800
X9317Y37800
X10317Y37800
X10417Y38800
X9417Y38800
X9317Y39800
X10317Y39800
X31867Y16800
X31867Y15700
X36917Y13300
X36817Y12300
X36917Y11300
T07
X10167Y12300
X10067Y13800
X10167Y15300
X10067Y16800
X10167Y18300
X10067Y19800
X10167Y21300
X10067Y22800
X30367Y39000
X31867Y39100
X33367Y39000
X34867Y39100
X36367Y39000
X37867Y39100
X39867Y39050
X41367Y39050
X43367Y39050
X44867Y39050
X34617Y8100
X36117Y8000
X37617Y8100
T08
X19085Y39800
X17117Y39800
T09
X43717Y16700
X38917Y16700
X38117Y19050
X38917Y21400
X43717Y21400
T10
X10607Y25670
X10607Y28430
T11
X11817Y34109
X11817Y28991
T12
X9654Y7678
X32489Y7678
X32489Y26969
X38867Y31700
X45117Y37300
T13
X39367Y8050
X44367Y8050
X28617Y39800
X23617Y39800
M30
