%
M48
M72
T01C0.0197
T02C0.0315
T03C0.0354
T04C0.0394
T05C0.0400
T06C0.0433
T07C0.0472
T08C0.0512
T09C0.0866
T10C0.1102
T11C0.1180
T12C0.1181
T13C0.1260
%
T01
X11735Y24963
X12129Y24963
X12523Y24963
X12916Y24963
X13310Y24963
X13704Y24963
X14097Y24963
X14491Y24963
X14885Y24963
X15279Y24963
X15261Y27416
X14761Y28916
X15261Y30416
X12261Y30166
X11761Y30166
X9511Y29166
X9011Y29166
X8511Y29166
X8011Y29166
X8511Y28166
X9011Y28166
X9511Y28166
X9511Y27666
X9511Y27166
X9011Y27166
X9011Y27666
X8511Y27666
X8511Y27166
X11511Y21666
X12511Y16916
X13011Y17416
X13511Y18166
X12511Y14416
X17011Y12916
X22261Y10416
X26261Y4916
X36761Y4916
X38761Y9916
X42761Y10916
X42761Y11916
X42761Y12916
X41011Y14666
X40261Y13666
X39261Y13666
X38511Y13666
X37511Y14666
X36261Y14916
X33261Y16916
X33511Y18166
X34261Y18166
X35511Y18416
X38011Y17916
X39511Y18666
X42761Y16666
X21011Y17666
X24261Y20166
X27261Y20666
X30761Y19916
X28761Y16416
X28761Y15166
X30511Y13666
X30011Y13166
X31511Y13666
X43011Y6166
X43011Y4666
X41656Y24963
X41263Y24963
X40869Y24963
X40475Y24963
X40082Y24963
X39688Y24963
X39294Y24963
X38901Y24963
X28271Y24963
X27877Y24963
X27483Y24963
X27090Y24963
X26696Y24963
X26302Y24963
X25908Y24963
X25515Y24963
X25121Y24963
X25761Y26166
X26011Y27416
X26011Y28416
X26011Y29416
X26761Y30916
X26511Y31416
X25761Y31666
X25761Y32666
X23761Y32166
X22511Y31916
X21261Y31416
X20761Y31416
X20261Y31416
X19761Y31416
X19511Y32166
X19761Y29416
X20261Y29416
X20761Y29416
X19261Y29416
X23511Y29416
X23511Y28916
X23511Y28416
X27761Y28416
X27761Y27416
X28261Y27416
X29261Y28416
X31011Y28416
X31011Y28916
X31011Y29416
X31511Y30916
X32011Y31166
X31011Y31416
X32011Y32916
X29011Y32166
X29011Y31666
X28511Y31666
X28511Y32166
X28511Y32666
X28511Y33166
X28011Y32666
X33761Y27816
X35061Y28766
X35511Y28916
X37011Y29416
X35011Y30166
X39261Y29666
X41011Y30916
X42761Y29166
X16261Y35416
X16261Y34916
X16261Y34416
X16261Y33916
X27761Y26166
X34511Y35166
T02
X13161Y26766
X12511Y26766
X11661Y27666
X31511Y26666
X32261Y26666
X33011Y26666
T03
X8971Y19763
X9671Y19363
X8971Y18963
X9671Y18563
X8971Y18163
X9671Y17763
X8971Y17363
X9671Y16963
T04
X8668Y9495
X8668Y8510
X8668Y7526
T05
X16761Y27666
X17761Y27666
X18761Y27666
X19761Y27666
X20761Y27666
X20761Y28666
X19761Y28666
X18761Y28666
X17761Y28666
X16761Y28666
X8942Y13630
X9942Y13730
X9942Y12730
X10942Y12630
X10942Y13630
X8942Y12630
X23054Y6750
X23054Y8530
X25614Y8530
X25614Y6750
X24015Y3703
X30140Y6750
X30140Y8530
X32700Y8530
X32700Y6750
X31015Y3703
X37227Y6750
X37227Y8530
X39787Y8530
X39787Y6750
X45379Y11920
X45279Y12920
X45379Y13920
X45279Y14920
X45379Y15920
X45279Y16920
X25328Y23768
X26328Y23768
X27328Y23768
X28328Y23768
X29328Y23768
X30328Y23768
X31328Y23768
X32328Y23768
X33328Y23768
X34328Y23768
X35328Y23768
X36328Y23768
X37328Y23768
X38328Y23768
X39328Y23768
X40328Y23768
X7961Y30916
X8961Y30916
X9061Y31916
X8061Y31916
X7961Y32916
X8961Y32916
X9061Y33916
X8061Y33916
X7961Y34916
X8961Y34916
T06
X15279Y10337
X13094Y9274
X12936Y6282
X17464Y6006
X17464Y9274
T07
X41261Y34166
X42761Y34166
T08
X45261Y18932
X44277Y19916
X45261Y20900
X19729Y34666
X17761Y34666
T09
X9968Y10479
X13064Y7640
X9968Y6542
X17493Y7640
T10
X43761Y32416
T11
X36280Y33053
X37751Y34684
T12
X11011Y23416
X12011Y4666
X33261Y4416
X44761Y23166
T13
X7971Y20863
X7971Y15863
X37761Y31802
M30
