G75*
%MOIN*%
%OFA0B0*%
%FSLAX24Y24*%
%IPPOS*%
%LPD*%
%AMOC8*
5,1,8,0,0,1.08239X$1,22.5*
%
%ADD10C,0.0120*%
%ADD11C,0.0000*%
%ADD12C,0.1142*%
%ADD13C,0.0237*%
%ADD14C,0.1221*%
%ADD15OC8,0.0800*%
%ADD16R,0.0800X0.0800*%
%ADD17R,0.0003X0.0003*%
%ADD18R,0.0029X0.0003*%
%ADD19R,0.0003X0.0003*%
%ADD20R,0.0044X0.0003*%
%ADD21R,0.0148X0.0003*%
%ADD22R,0.0112X0.0003*%
%ADD23R,0.0138X0.0003*%
%ADD24R,0.0159X0.0003*%
%ADD25R,0.0127X0.0003*%
%ADD26R,0.0159X0.0003*%
%ADD27R,0.0122X0.0003*%
%ADD28R,0.0156X0.0003*%
%ADD29R,0.0161X0.0003*%
%ADD30R,0.0161X0.0003*%
%ADD31R,0.0130X0.0003*%
%ADD32R,0.0161X0.0003*%
%ADD33R,0.0133X0.0003*%
%ADD34R,0.0164X0.0003*%
%ADD35R,0.0133X0.0003*%
%ADD36R,0.0135X0.0003*%
%ADD37R,0.0164X0.0003*%
%ADD38R,0.0138X0.0003*%
%ADD39R,0.0143X0.0003*%
%ADD40R,0.0140X0.0003*%
%ADD41R,0.0161X0.0003*%
%ADD42R,0.0164X0.0003*%
%ADD43R,0.0146X0.0003*%
%ADD44R,0.0146X0.0003*%
%ADD45R,0.0148X0.0003*%
%ADD46R,0.0164X0.0003*%
%ADD47R,0.0151X0.0003*%
%ADD48R,0.0153X0.0003*%
%ADD49R,0.0151X0.0003*%
%ADD50R,0.0153X0.0003*%
%ADD51R,0.0153X0.0003*%
%ADD52R,0.0156X0.0003*%
%ADD53R,0.0156X0.0003*%
%ADD54R,0.0166X0.0003*%
%ADD55R,0.0166X0.0003*%
%ADD56R,0.0169X0.0003*%
%ADD57R,0.0172X0.0003*%
%ADD58R,0.0174X0.0003*%
%ADD59R,0.0169X0.0003*%
%ADD60R,0.0179X0.0003*%
%ADD61R,0.0179X0.0003*%
%ADD62R,0.0185X0.0003*%
%ADD63R,0.0182X0.0003*%
%ADD64R,0.0185X0.0003*%
%ADD65R,0.0190X0.0003*%
%ADD66R,0.0192X0.0003*%
%ADD67R,0.0195X0.0003*%
%ADD68R,0.0198X0.0003*%
%ADD69R,0.0200X0.0003*%
%ADD70R,0.0203X0.0003*%
%ADD71R,0.0200X0.0003*%
%ADD72R,0.0203X0.0003*%
%ADD73R,0.0205X0.0003*%
%ADD74R,0.0205X0.0003*%
%ADD75R,0.0208X0.0003*%
%ADD76R,0.0208X0.0003*%
%ADD77R,0.0211X0.0003*%
%ADD78R,0.0213X0.0003*%
%ADD79R,0.0213X0.0003*%
%ADD80R,0.0216X0.0003*%
%ADD81R,0.0216X0.0003*%
%ADD82R,0.0218X0.0003*%
%ADD83R,0.0221X0.0003*%
%ADD84R,0.0221X0.0003*%
%ADD85R,0.0221X0.0003*%
%ADD86R,0.0224X0.0003*%
%ADD87R,0.0226X0.0003*%
%ADD88R,0.0226X0.0003*%
%ADD89R,0.0231X0.0003*%
%ADD90R,0.0229X0.0003*%
%ADD91R,0.0231X0.0003*%
%ADD92R,0.0234X0.0003*%
%ADD93R,0.0237X0.0003*%
%ADD94R,0.0239X0.0003*%
%ADD95R,0.0156X0.0003*%
%ADD96R,0.0242X0.0003*%
%ADD97R,0.0239X0.0003*%
%ADD98R,0.0242X0.0003*%
%ADD99R,0.0244X0.0003*%
%ADD100R,0.0244X0.0003*%
%ADD101R,0.0247X0.0003*%
%ADD102R,0.0250X0.0003*%
%ADD103R,0.0250X0.0003*%
%ADD104R,0.0252X0.0003*%
%ADD105R,0.0153X0.0003*%
%ADD106R,0.0252X0.0003*%
%ADD107R,0.0255X0.0003*%
%ADD108R,0.0255X0.0003*%
%ADD109R,0.0257X0.0003*%
%ADD110R,0.0257X0.0003*%
%ADD111R,0.0260X0.0003*%
%ADD112R,0.0260X0.0003*%
%ADD113R,0.0263X0.0003*%
%ADD114R,0.0265X0.0003*%
%ADD115R,0.0265X0.0003*%
%ADD116R,0.0268X0.0003*%
%ADD117R,0.0133X0.0003*%
%ADD118R,0.0127X0.0003*%
%ADD119R,0.0130X0.0003*%
%ADD120R,0.0127X0.0003*%
%ADD121R,0.0127X0.0003*%
%ADD122R,0.0125X0.0003*%
%ADD123R,0.0125X0.0003*%
%ADD124R,0.0125X0.0003*%
%ADD125R,0.0122X0.0003*%
%ADD126R,0.0125X0.0003*%
%ADD127R,0.0133X0.0003*%
%ADD128R,0.0296X0.0003*%
%ADD129R,0.0296X0.0003*%
%ADD130R,0.0294X0.0003*%
%ADD131R,0.0296X0.0003*%
%ADD132R,0.0294X0.0003*%
%ADD133R,0.0294X0.0003*%
%ADD134R,0.0294X0.0003*%
%ADD135R,0.0291X0.0003*%
%ADD136R,0.0291X0.0003*%
%ADD137R,0.0289X0.0003*%
%ADD138R,0.0289X0.0003*%
%ADD139R,0.0286X0.0003*%
%ADD140R,0.0286X0.0003*%
%ADD141R,0.0286X0.0003*%
%ADD142R,0.0286X0.0003*%
%ADD143R,0.0283X0.0003*%
%ADD144R,0.0283X0.0003*%
%ADD145R,0.0281X0.0003*%
%ADD146R,0.0278X0.0003*%
%ADD147R,0.0281X0.0003*%
%ADD148R,0.0278X0.0003*%
%ADD149R,0.0278X0.0003*%
%ADD150R,0.0276X0.0003*%
%ADD151R,0.0278X0.0003*%
%ADD152R,0.0276X0.0003*%
%ADD153R,0.0273X0.0003*%
%ADD154R,0.0273X0.0003*%
%ADD155R,0.0273X0.0003*%
%ADD156R,0.0273X0.0003*%
%ADD157R,0.0270X0.0003*%
%ADD158R,0.0270X0.0003*%
%ADD159R,0.0268X0.0003*%
%ADD160R,0.0268X0.0003*%
%ADD161R,0.0263X0.0003*%
%ADD162R,0.0263X0.0003*%
%ADD163R,0.0263X0.0003*%
%ADD164R,0.0265X0.0003*%
%ADD165R,0.0255X0.0003*%
%ADD166R,0.0257X0.0003*%
%ADD167R,0.0247X0.0003*%
%ADD168R,0.0244X0.0003*%
%ADD169R,0.0237X0.0003*%
%ADD170R,0.0237X0.0003*%
%ADD171R,0.0003X0.0003*%
%ADD172R,0.0003X0.0003*%
%ADD173R,0.0190X0.0003*%
%ADD174OC8,0.0780*%
%ADD175R,0.1540X0.1540*%
%ADD176C,0.1540*%
%ADD177OC8,0.1040*%
%ADD178R,0.1040X0.1040*%
%ADD179R,0.0780X0.0780*%
%ADD180C,0.0780*%
%ADD181C,0.0634*%
%ADD182C,0.1300*%
%ADD183OC8,0.1540*%
%ADD184C,0.0900*%
%ADD185OC8,0.0900*%
%ADD186R,0.0512X0.0591*%
%ADD187C,0.1040*%
%ADD188C,0.1700*%
%ADD189C,0.1660*%
D10*
X007011Y006459D02*
X007011Y021420D01*
X007013Y021474D01*
X007018Y021527D01*
X007027Y021580D01*
X007040Y021632D01*
X007056Y021684D01*
X007076Y021734D01*
X007099Y021782D01*
X007126Y021829D01*
X007155Y021874D01*
X007188Y021917D01*
X007223Y021957D01*
X007261Y021995D01*
X007301Y022030D01*
X007344Y022063D01*
X007389Y022092D01*
X007436Y022119D01*
X007484Y022142D01*
X007534Y022162D01*
X007586Y022178D01*
X007638Y022191D01*
X007691Y022200D01*
X007744Y022205D01*
X007798Y022207D01*
X008979Y022207D01*
X008979Y022208D02*
X009033Y022210D01*
X009086Y022215D01*
X009139Y022224D01*
X009191Y022237D01*
X009243Y022253D01*
X009293Y022273D01*
X009341Y022296D01*
X009388Y022323D01*
X009433Y022352D01*
X009476Y022385D01*
X009516Y022420D01*
X009554Y022458D01*
X009589Y022498D01*
X009622Y022541D01*
X009651Y022586D01*
X009678Y022633D01*
X009701Y022681D01*
X009721Y022731D01*
X009737Y022783D01*
X009750Y022835D01*
X009759Y022888D01*
X009764Y022941D01*
X009766Y022995D01*
X009767Y022995D02*
X009767Y024176D01*
X009769Y024230D01*
X009774Y024283D01*
X009783Y024336D01*
X009796Y024388D01*
X009812Y024440D01*
X009832Y024490D01*
X009855Y024538D01*
X009882Y024585D01*
X009911Y024630D01*
X009944Y024673D01*
X009979Y024713D01*
X010017Y024751D01*
X010057Y024786D01*
X010100Y024819D01*
X010145Y024848D01*
X010192Y024875D01*
X010240Y024898D01*
X010290Y024918D01*
X010342Y024934D01*
X010394Y024947D01*
X010447Y024956D01*
X010500Y024961D01*
X010554Y024963D01*
X010948Y024963D01*
X010987Y024965D01*
X011025Y024971D01*
X011062Y024980D01*
X011099Y024993D01*
X011134Y025010D01*
X011167Y025029D01*
X011198Y025052D01*
X011227Y025078D01*
X011253Y025107D01*
X011276Y025138D01*
X011295Y025171D01*
X011312Y025206D01*
X011325Y025243D01*
X011334Y025280D01*
X011340Y025318D01*
X011342Y025357D01*
X011340Y025396D01*
X011334Y025434D01*
X011325Y025471D01*
X011312Y025508D01*
X011295Y025543D01*
X011276Y025576D01*
X011253Y025607D01*
X011227Y025636D01*
X011198Y025662D01*
X011167Y025685D01*
X011134Y025704D01*
X011099Y025721D01*
X011062Y025734D01*
X011025Y025743D01*
X010987Y025749D01*
X010948Y025751D01*
X007798Y025751D01*
X007744Y025753D01*
X007691Y025758D01*
X007638Y025767D01*
X007586Y025780D01*
X007534Y025796D01*
X007484Y025816D01*
X007436Y025839D01*
X007389Y025866D01*
X007344Y025895D01*
X007301Y025928D01*
X007261Y025963D01*
X007223Y026001D01*
X007188Y026041D01*
X007155Y026084D01*
X007126Y026129D01*
X007099Y026176D01*
X007076Y026224D01*
X007056Y026274D01*
X007040Y026326D01*
X007027Y026378D01*
X007018Y026431D01*
X007013Y026484D01*
X007011Y026538D01*
X007011Y035199D01*
X007013Y035253D01*
X007018Y035306D01*
X007027Y035359D01*
X007040Y035411D01*
X007056Y035463D01*
X007076Y035513D01*
X007099Y035561D01*
X007126Y035608D01*
X007155Y035653D01*
X007188Y035696D01*
X007223Y035736D01*
X007261Y035774D01*
X007301Y035809D01*
X007344Y035842D01*
X007389Y035871D01*
X007436Y035898D01*
X007484Y035921D01*
X007534Y035941D01*
X007586Y035957D01*
X007638Y035970D01*
X007691Y035979D01*
X007744Y035984D01*
X007798Y035986D01*
X007798Y035987D02*
X044491Y035987D01*
X044491Y035986D02*
X044545Y035984D01*
X044598Y035979D01*
X044651Y035970D01*
X044703Y035957D01*
X044755Y035941D01*
X044805Y035921D01*
X044853Y035898D01*
X044900Y035871D01*
X044945Y035842D01*
X044988Y035809D01*
X045028Y035774D01*
X045066Y035736D01*
X045101Y035696D01*
X045134Y035653D01*
X045163Y035608D01*
X045190Y035561D01*
X045213Y035513D01*
X045233Y035463D01*
X045249Y035411D01*
X045262Y035359D01*
X045271Y035306D01*
X045276Y035253D01*
X045278Y035199D01*
X045279Y035199D02*
X045279Y026538D01*
X045278Y026538D02*
X045276Y026484D01*
X045271Y026431D01*
X045262Y026378D01*
X045249Y026326D01*
X045233Y026274D01*
X045213Y026224D01*
X045190Y026176D01*
X045163Y026129D01*
X045134Y026084D01*
X045101Y026041D01*
X045066Y026001D01*
X045028Y025963D01*
X044988Y025928D01*
X044945Y025895D01*
X044900Y025866D01*
X044853Y025839D01*
X044805Y025816D01*
X044755Y025796D01*
X044703Y025780D01*
X044651Y025767D01*
X044598Y025758D01*
X044545Y025753D01*
X044491Y025751D01*
X042444Y025751D01*
X042405Y025749D01*
X042367Y025743D01*
X042330Y025734D01*
X042293Y025721D01*
X042258Y025704D01*
X042225Y025685D01*
X042194Y025662D01*
X042165Y025636D01*
X042139Y025607D01*
X042116Y025576D01*
X042097Y025543D01*
X042080Y025508D01*
X042067Y025471D01*
X042058Y025434D01*
X042052Y025396D01*
X042050Y025357D01*
X042052Y025318D01*
X042058Y025280D01*
X042067Y025243D01*
X042080Y025206D01*
X042097Y025171D01*
X042116Y025138D01*
X042139Y025107D01*
X042165Y025078D01*
X042194Y025052D01*
X042225Y025029D01*
X042258Y025010D01*
X042293Y024993D01*
X042330Y024980D01*
X042367Y024971D01*
X042405Y024965D01*
X042444Y024963D01*
X045594Y024963D01*
X045593Y024963D02*
X045647Y024958D01*
X045699Y024950D01*
X045751Y024938D01*
X045802Y024922D01*
X045852Y024902D01*
X045901Y024879D01*
X045947Y024853D01*
X045991Y024823D01*
X046034Y024790D01*
X046074Y024754D01*
X046111Y024716D01*
X046145Y024675D01*
X046176Y024632D01*
X046205Y024586D01*
X046229Y024539D01*
X046251Y024490D01*
X046269Y024440D01*
X046283Y024388D01*
X046293Y024336D01*
X046300Y024282D01*
X046303Y024229D01*
X046302Y024176D01*
X046302Y003703D01*
X046303Y003650D01*
X046300Y003597D01*
X046293Y003543D01*
X046283Y003491D01*
X046269Y003439D01*
X046251Y003389D01*
X046229Y003340D01*
X046205Y003293D01*
X046176Y003247D01*
X046145Y003204D01*
X046111Y003163D01*
X046074Y003125D01*
X046034Y003089D01*
X045991Y003056D01*
X045947Y003026D01*
X045901Y003000D01*
X045852Y002977D01*
X045802Y002957D01*
X045751Y002941D01*
X045699Y002929D01*
X045647Y002921D01*
X045593Y002916D01*
X045594Y002916D02*
X010554Y002916D01*
X010500Y002918D01*
X010447Y002923D01*
X010394Y002932D01*
X010342Y002945D01*
X010290Y002961D01*
X010240Y002981D01*
X010192Y003004D01*
X010145Y003031D01*
X010100Y003060D01*
X010057Y003093D01*
X010017Y003128D01*
X009979Y003166D01*
X009944Y003206D01*
X009911Y003249D01*
X009882Y003294D01*
X009855Y003341D01*
X009832Y003389D01*
X009812Y003439D01*
X009796Y003491D01*
X009783Y003543D01*
X009774Y003596D01*
X009769Y003649D01*
X009767Y003703D01*
X009767Y004884D01*
X009766Y004884D02*
X009764Y004938D01*
X009759Y004991D01*
X009750Y005044D01*
X009737Y005096D01*
X009721Y005148D01*
X009701Y005198D01*
X009678Y005246D01*
X009651Y005293D01*
X009622Y005338D01*
X009589Y005381D01*
X009554Y005421D01*
X009516Y005459D01*
X009476Y005494D01*
X009433Y005527D01*
X009388Y005556D01*
X009341Y005583D01*
X009293Y005606D01*
X009243Y005626D01*
X009191Y005642D01*
X009139Y005655D01*
X009086Y005664D01*
X009033Y005669D01*
X008979Y005671D01*
X008979Y005672D02*
X007798Y005672D01*
X007744Y005674D01*
X007691Y005679D01*
X007638Y005688D01*
X007586Y005701D01*
X007534Y005717D01*
X007484Y005737D01*
X007436Y005760D01*
X007389Y005787D01*
X007344Y005816D01*
X007301Y005849D01*
X007261Y005884D01*
X007223Y005922D01*
X007188Y005962D01*
X007155Y006005D01*
X007126Y006050D01*
X007099Y006097D01*
X007076Y006145D01*
X007056Y006195D01*
X007040Y006247D01*
X007027Y006299D01*
X007018Y006352D01*
X007013Y006405D01*
X007011Y006459D01*
X016066Y024963D02*
X024334Y024963D01*
X024373Y024965D01*
X024411Y024971D01*
X024448Y024980D01*
X024485Y024993D01*
X024520Y025010D01*
X024553Y025029D01*
X024584Y025052D01*
X024613Y025078D01*
X024639Y025107D01*
X024662Y025138D01*
X024681Y025171D01*
X024698Y025206D01*
X024711Y025243D01*
X024720Y025280D01*
X024726Y025318D01*
X024728Y025357D01*
X024726Y025396D01*
X024720Y025434D01*
X024711Y025471D01*
X024698Y025508D01*
X024681Y025543D01*
X024662Y025576D01*
X024639Y025607D01*
X024613Y025636D01*
X024584Y025662D01*
X024553Y025685D01*
X024520Y025704D01*
X024485Y025721D01*
X024448Y025734D01*
X024411Y025743D01*
X024373Y025749D01*
X024334Y025751D01*
X016066Y025751D01*
X015672Y025357D02*
X015674Y025318D01*
X015680Y025280D01*
X015689Y025243D01*
X015702Y025206D01*
X015719Y025171D01*
X015738Y025138D01*
X015761Y025107D01*
X015787Y025078D01*
X015816Y025052D01*
X015847Y025029D01*
X015880Y025010D01*
X015915Y024993D01*
X015952Y024980D01*
X015989Y024971D01*
X016027Y024965D01*
X016066Y024963D01*
X015672Y025357D02*
X015674Y025396D01*
X015680Y025434D01*
X015689Y025471D01*
X015702Y025508D01*
X015719Y025543D01*
X015738Y025576D01*
X015761Y025607D01*
X015787Y025636D01*
X015816Y025662D01*
X015847Y025685D01*
X015880Y025704D01*
X015915Y025721D01*
X015952Y025734D01*
X015989Y025743D01*
X016027Y025749D01*
X016066Y025751D01*
X029058Y025751D02*
X038113Y025751D01*
X038507Y025357D02*
X038505Y025318D01*
X038499Y025280D01*
X038490Y025243D01*
X038477Y025206D01*
X038460Y025171D01*
X038441Y025138D01*
X038418Y025107D01*
X038392Y025078D01*
X038363Y025052D01*
X038332Y025029D01*
X038299Y025010D01*
X038264Y024993D01*
X038227Y024980D01*
X038190Y024971D01*
X038152Y024965D01*
X038113Y024963D01*
X029058Y024963D01*
X028664Y025357D02*
X028666Y025396D01*
X028672Y025434D01*
X028681Y025471D01*
X028694Y025508D01*
X028711Y025543D01*
X028730Y025576D01*
X028753Y025607D01*
X028779Y025636D01*
X028808Y025662D01*
X028839Y025685D01*
X028872Y025704D01*
X028907Y025721D01*
X028944Y025734D01*
X028981Y025743D01*
X029019Y025749D01*
X029058Y025751D01*
X028664Y025357D02*
X028666Y025318D01*
X028672Y025280D01*
X028681Y025243D01*
X028694Y025206D01*
X028711Y025171D01*
X028730Y025138D01*
X028753Y025107D01*
X028779Y025078D01*
X028808Y025052D01*
X028839Y025029D01*
X028872Y025010D01*
X028907Y024993D01*
X028944Y024980D01*
X028981Y024971D01*
X029019Y024965D01*
X029058Y024963D01*
X038113Y025751D02*
X038152Y025749D01*
X038190Y025743D01*
X038227Y025734D01*
X038264Y025721D01*
X038299Y025704D01*
X038332Y025685D01*
X038363Y025662D01*
X038392Y025636D01*
X038418Y025607D01*
X038441Y025576D01*
X038460Y025543D01*
X038477Y025508D01*
X038490Y025471D01*
X038499Y025434D01*
X038505Y025396D01*
X038507Y025357D01*
D11*
X038803Y024963D02*
X038805Y024982D01*
X038810Y025001D01*
X038820Y025017D01*
X038832Y025032D01*
X038847Y025044D01*
X038863Y025054D01*
X038882Y025059D01*
X038901Y025061D01*
X038920Y025059D01*
X038939Y025054D01*
X038955Y025044D01*
X038970Y025032D01*
X038982Y025017D01*
X038992Y025001D01*
X038997Y024982D01*
X038999Y024963D01*
X038997Y024944D01*
X038992Y024925D01*
X038982Y024909D01*
X038970Y024894D01*
X038955Y024882D01*
X038939Y024872D01*
X038920Y024867D01*
X038901Y024865D01*
X038882Y024867D01*
X038863Y024872D01*
X038847Y024882D01*
X038832Y024894D01*
X038820Y024909D01*
X038810Y024925D01*
X038805Y024944D01*
X038803Y024963D01*
X039196Y024963D02*
X039198Y024982D01*
X039203Y025001D01*
X039213Y025017D01*
X039225Y025032D01*
X039240Y025044D01*
X039256Y025054D01*
X039275Y025059D01*
X039294Y025061D01*
X039313Y025059D01*
X039332Y025054D01*
X039348Y025044D01*
X039363Y025032D01*
X039375Y025017D01*
X039385Y025001D01*
X039390Y024982D01*
X039392Y024963D01*
X039390Y024944D01*
X039385Y024925D01*
X039375Y024909D01*
X039363Y024894D01*
X039348Y024882D01*
X039332Y024872D01*
X039313Y024867D01*
X039294Y024865D01*
X039275Y024867D01*
X039256Y024872D01*
X039240Y024882D01*
X039225Y024894D01*
X039213Y024909D01*
X039203Y024925D01*
X039198Y024944D01*
X039196Y024963D01*
X039590Y024963D02*
X039592Y024982D01*
X039597Y025001D01*
X039607Y025017D01*
X039619Y025032D01*
X039634Y025044D01*
X039650Y025054D01*
X039669Y025059D01*
X039688Y025061D01*
X039707Y025059D01*
X039726Y025054D01*
X039742Y025044D01*
X039757Y025032D01*
X039769Y025017D01*
X039779Y025001D01*
X039784Y024982D01*
X039786Y024963D01*
X039784Y024944D01*
X039779Y024925D01*
X039769Y024909D01*
X039757Y024894D01*
X039742Y024882D01*
X039726Y024872D01*
X039707Y024867D01*
X039688Y024865D01*
X039669Y024867D01*
X039650Y024872D01*
X039634Y024882D01*
X039619Y024894D01*
X039607Y024909D01*
X039597Y024925D01*
X039592Y024944D01*
X039590Y024963D01*
X039984Y024963D02*
X039986Y024982D01*
X039991Y025001D01*
X040001Y025017D01*
X040013Y025032D01*
X040028Y025044D01*
X040044Y025054D01*
X040063Y025059D01*
X040082Y025061D01*
X040101Y025059D01*
X040120Y025054D01*
X040136Y025044D01*
X040151Y025032D01*
X040163Y025017D01*
X040173Y025001D01*
X040178Y024982D01*
X040180Y024963D01*
X040178Y024944D01*
X040173Y024925D01*
X040163Y024909D01*
X040151Y024894D01*
X040136Y024882D01*
X040120Y024872D01*
X040101Y024867D01*
X040082Y024865D01*
X040063Y024867D01*
X040044Y024872D01*
X040028Y024882D01*
X040013Y024894D01*
X040001Y024909D01*
X039991Y024925D01*
X039986Y024944D01*
X039984Y024963D01*
X040377Y024963D02*
X040379Y024982D01*
X040384Y025001D01*
X040394Y025017D01*
X040406Y025032D01*
X040421Y025044D01*
X040437Y025054D01*
X040456Y025059D01*
X040475Y025061D01*
X040494Y025059D01*
X040513Y025054D01*
X040529Y025044D01*
X040544Y025032D01*
X040556Y025017D01*
X040566Y025001D01*
X040571Y024982D01*
X040573Y024963D01*
X040571Y024944D01*
X040566Y024925D01*
X040556Y024909D01*
X040544Y024894D01*
X040529Y024882D01*
X040513Y024872D01*
X040494Y024867D01*
X040475Y024865D01*
X040456Y024867D01*
X040437Y024872D01*
X040421Y024882D01*
X040406Y024894D01*
X040394Y024909D01*
X040384Y024925D01*
X040379Y024944D01*
X040377Y024963D01*
X040771Y024963D02*
X040773Y024982D01*
X040778Y025001D01*
X040788Y025017D01*
X040800Y025032D01*
X040815Y025044D01*
X040831Y025054D01*
X040850Y025059D01*
X040869Y025061D01*
X040888Y025059D01*
X040907Y025054D01*
X040923Y025044D01*
X040938Y025032D01*
X040950Y025017D01*
X040960Y025001D01*
X040965Y024982D01*
X040967Y024963D01*
X040965Y024944D01*
X040960Y024925D01*
X040950Y024909D01*
X040938Y024894D01*
X040923Y024882D01*
X040907Y024872D01*
X040888Y024867D01*
X040869Y024865D01*
X040850Y024867D01*
X040831Y024872D01*
X040815Y024882D01*
X040800Y024894D01*
X040788Y024909D01*
X040778Y024925D01*
X040773Y024944D01*
X040771Y024963D01*
X041165Y024963D02*
X041167Y024982D01*
X041172Y025001D01*
X041182Y025017D01*
X041194Y025032D01*
X041209Y025044D01*
X041225Y025054D01*
X041244Y025059D01*
X041263Y025061D01*
X041282Y025059D01*
X041301Y025054D01*
X041317Y025044D01*
X041332Y025032D01*
X041344Y025017D01*
X041354Y025001D01*
X041359Y024982D01*
X041361Y024963D01*
X041359Y024944D01*
X041354Y024925D01*
X041344Y024909D01*
X041332Y024894D01*
X041317Y024882D01*
X041301Y024872D01*
X041282Y024867D01*
X041263Y024865D01*
X041244Y024867D01*
X041225Y024872D01*
X041209Y024882D01*
X041194Y024894D01*
X041182Y024909D01*
X041172Y024925D01*
X041167Y024944D01*
X041165Y024963D01*
X041558Y024963D02*
X041560Y024982D01*
X041565Y025001D01*
X041575Y025017D01*
X041587Y025032D01*
X041602Y025044D01*
X041618Y025054D01*
X041637Y025059D01*
X041656Y025061D01*
X041675Y025059D01*
X041694Y025054D01*
X041710Y025044D01*
X041725Y025032D01*
X041737Y025017D01*
X041747Y025001D01*
X041752Y024982D01*
X041754Y024963D01*
X041752Y024944D01*
X041747Y024925D01*
X041737Y024909D01*
X041725Y024894D01*
X041710Y024882D01*
X041694Y024872D01*
X041675Y024867D01*
X041656Y024865D01*
X041637Y024867D01*
X041618Y024872D01*
X041602Y024882D01*
X041587Y024894D01*
X041575Y024909D01*
X041565Y024925D01*
X041560Y024944D01*
X041558Y024963D01*
X044170Y023166D02*
X044172Y023214D01*
X044178Y023262D01*
X044188Y023309D01*
X044201Y023355D01*
X044219Y023400D01*
X044239Y023444D01*
X044264Y023486D01*
X044292Y023525D01*
X044322Y023562D01*
X044356Y023596D01*
X044393Y023628D01*
X044431Y023657D01*
X044472Y023682D01*
X044515Y023704D01*
X044560Y023722D01*
X044606Y023736D01*
X044653Y023747D01*
X044701Y023754D01*
X044749Y023757D01*
X044797Y023756D01*
X044845Y023751D01*
X044893Y023742D01*
X044939Y023730D01*
X044984Y023713D01*
X045028Y023693D01*
X045070Y023670D01*
X045110Y023643D01*
X045148Y023613D01*
X045183Y023580D01*
X045215Y023544D01*
X045245Y023506D01*
X045271Y023465D01*
X045293Y023422D01*
X045313Y023378D01*
X045328Y023333D01*
X045340Y023286D01*
X045348Y023238D01*
X045352Y023190D01*
X045352Y023142D01*
X045348Y023094D01*
X045340Y023046D01*
X045328Y022999D01*
X045313Y022954D01*
X045293Y022910D01*
X045271Y022867D01*
X045245Y022826D01*
X045215Y022788D01*
X045183Y022752D01*
X045148Y022719D01*
X045110Y022689D01*
X045070Y022662D01*
X045028Y022639D01*
X044984Y022619D01*
X044939Y022602D01*
X044893Y022590D01*
X044845Y022581D01*
X044797Y022576D01*
X044749Y022575D01*
X044701Y022578D01*
X044653Y022585D01*
X044606Y022596D01*
X044560Y022610D01*
X044515Y022628D01*
X044472Y022650D01*
X044431Y022675D01*
X044393Y022704D01*
X044356Y022736D01*
X044322Y022770D01*
X044292Y022807D01*
X044264Y022846D01*
X044239Y022888D01*
X044219Y022932D01*
X044201Y022977D01*
X044188Y023023D01*
X044178Y023070D01*
X044172Y023118D01*
X044170Y023166D01*
X043210Y032416D02*
X043212Y032463D01*
X043218Y032509D01*
X043228Y032555D01*
X043241Y032600D01*
X043259Y032643D01*
X043280Y032685D01*
X043304Y032725D01*
X043332Y032762D01*
X043363Y032797D01*
X043397Y032830D01*
X043433Y032859D01*
X043472Y032885D01*
X043513Y032908D01*
X043556Y032927D01*
X043600Y032943D01*
X043645Y032955D01*
X043691Y032963D01*
X043738Y032967D01*
X043784Y032967D01*
X043831Y032963D01*
X043877Y032955D01*
X043922Y032943D01*
X043966Y032927D01*
X044009Y032908D01*
X044050Y032885D01*
X044089Y032859D01*
X044125Y032830D01*
X044159Y032797D01*
X044190Y032762D01*
X044218Y032725D01*
X044242Y032685D01*
X044263Y032643D01*
X044281Y032600D01*
X044294Y032555D01*
X044304Y032509D01*
X044310Y032463D01*
X044312Y032416D01*
X044310Y032369D01*
X044304Y032323D01*
X044294Y032277D01*
X044281Y032232D01*
X044263Y032189D01*
X044242Y032147D01*
X044218Y032107D01*
X044190Y032070D01*
X044159Y032035D01*
X044125Y032002D01*
X044089Y031973D01*
X044050Y031947D01*
X044009Y031924D01*
X043966Y031905D01*
X043922Y031889D01*
X043877Y031877D01*
X043831Y031869D01*
X043784Y031865D01*
X043738Y031865D01*
X043691Y031869D01*
X043645Y031877D01*
X043600Y031889D01*
X043556Y031905D01*
X043513Y031924D01*
X043472Y031947D01*
X043433Y031973D01*
X043397Y032002D01*
X043363Y032035D01*
X043332Y032070D01*
X043304Y032107D01*
X043280Y032147D01*
X043259Y032189D01*
X043241Y032232D01*
X043228Y032277D01*
X043218Y032323D01*
X043212Y032369D01*
X043210Y032416D01*
X028173Y024963D02*
X028175Y024982D01*
X028180Y025001D01*
X028190Y025017D01*
X028202Y025032D01*
X028217Y025044D01*
X028233Y025054D01*
X028252Y025059D01*
X028271Y025061D01*
X028290Y025059D01*
X028309Y025054D01*
X028325Y025044D01*
X028340Y025032D01*
X028352Y025017D01*
X028362Y025001D01*
X028367Y024982D01*
X028369Y024963D01*
X028367Y024944D01*
X028362Y024925D01*
X028352Y024909D01*
X028340Y024894D01*
X028325Y024882D01*
X028309Y024872D01*
X028290Y024867D01*
X028271Y024865D01*
X028252Y024867D01*
X028233Y024872D01*
X028217Y024882D01*
X028202Y024894D01*
X028190Y024909D01*
X028180Y024925D01*
X028175Y024944D01*
X028173Y024963D01*
X027779Y024963D02*
X027781Y024982D01*
X027786Y025001D01*
X027796Y025017D01*
X027808Y025032D01*
X027823Y025044D01*
X027839Y025054D01*
X027858Y025059D01*
X027877Y025061D01*
X027896Y025059D01*
X027915Y025054D01*
X027931Y025044D01*
X027946Y025032D01*
X027958Y025017D01*
X027968Y025001D01*
X027973Y024982D01*
X027975Y024963D01*
X027973Y024944D01*
X027968Y024925D01*
X027958Y024909D01*
X027946Y024894D01*
X027931Y024882D01*
X027915Y024872D01*
X027896Y024867D01*
X027877Y024865D01*
X027858Y024867D01*
X027839Y024872D01*
X027823Y024882D01*
X027808Y024894D01*
X027796Y024909D01*
X027786Y024925D01*
X027781Y024944D01*
X027779Y024963D01*
X027385Y024963D02*
X027387Y024982D01*
X027392Y025001D01*
X027402Y025017D01*
X027414Y025032D01*
X027429Y025044D01*
X027445Y025054D01*
X027464Y025059D01*
X027483Y025061D01*
X027502Y025059D01*
X027521Y025054D01*
X027537Y025044D01*
X027552Y025032D01*
X027564Y025017D01*
X027574Y025001D01*
X027579Y024982D01*
X027581Y024963D01*
X027579Y024944D01*
X027574Y024925D01*
X027564Y024909D01*
X027552Y024894D01*
X027537Y024882D01*
X027521Y024872D01*
X027502Y024867D01*
X027483Y024865D01*
X027464Y024867D01*
X027445Y024872D01*
X027429Y024882D01*
X027414Y024894D01*
X027402Y024909D01*
X027392Y024925D01*
X027387Y024944D01*
X027385Y024963D01*
X026992Y024963D02*
X026994Y024982D01*
X026999Y025001D01*
X027009Y025017D01*
X027021Y025032D01*
X027036Y025044D01*
X027052Y025054D01*
X027071Y025059D01*
X027090Y025061D01*
X027109Y025059D01*
X027128Y025054D01*
X027144Y025044D01*
X027159Y025032D01*
X027171Y025017D01*
X027181Y025001D01*
X027186Y024982D01*
X027188Y024963D01*
X027186Y024944D01*
X027181Y024925D01*
X027171Y024909D01*
X027159Y024894D01*
X027144Y024882D01*
X027128Y024872D01*
X027109Y024867D01*
X027090Y024865D01*
X027071Y024867D01*
X027052Y024872D01*
X027036Y024882D01*
X027021Y024894D01*
X027009Y024909D01*
X026999Y024925D01*
X026994Y024944D01*
X026992Y024963D01*
X026598Y024963D02*
X026600Y024982D01*
X026605Y025001D01*
X026615Y025017D01*
X026627Y025032D01*
X026642Y025044D01*
X026658Y025054D01*
X026677Y025059D01*
X026696Y025061D01*
X026715Y025059D01*
X026734Y025054D01*
X026750Y025044D01*
X026765Y025032D01*
X026777Y025017D01*
X026787Y025001D01*
X026792Y024982D01*
X026794Y024963D01*
X026792Y024944D01*
X026787Y024925D01*
X026777Y024909D01*
X026765Y024894D01*
X026750Y024882D01*
X026734Y024872D01*
X026715Y024867D01*
X026696Y024865D01*
X026677Y024867D01*
X026658Y024872D01*
X026642Y024882D01*
X026627Y024894D01*
X026615Y024909D01*
X026605Y024925D01*
X026600Y024944D01*
X026598Y024963D01*
X026204Y024963D02*
X026206Y024982D01*
X026211Y025001D01*
X026221Y025017D01*
X026233Y025032D01*
X026248Y025044D01*
X026264Y025054D01*
X026283Y025059D01*
X026302Y025061D01*
X026321Y025059D01*
X026340Y025054D01*
X026356Y025044D01*
X026371Y025032D01*
X026383Y025017D01*
X026393Y025001D01*
X026398Y024982D01*
X026400Y024963D01*
X026398Y024944D01*
X026393Y024925D01*
X026383Y024909D01*
X026371Y024894D01*
X026356Y024882D01*
X026340Y024872D01*
X026321Y024867D01*
X026302Y024865D01*
X026283Y024867D01*
X026264Y024872D01*
X026248Y024882D01*
X026233Y024894D01*
X026221Y024909D01*
X026211Y024925D01*
X026206Y024944D01*
X026204Y024963D01*
X025810Y024963D02*
X025812Y024982D01*
X025817Y025001D01*
X025827Y025017D01*
X025839Y025032D01*
X025854Y025044D01*
X025870Y025054D01*
X025889Y025059D01*
X025908Y025061D01*
X025927Y025059D01*
X025946Y025054D01*
X025962Y025044D01*
X025977Y025032D01*
X025989Y025017D01*
X025999Y025001D01*
X026004Y024982D01*
X026006Y024963D01*
X026004Y024944D01*
X025999Y024925D01*
X025989Y024909D01*
X025977Y024894D01*
X025962Y024882D01*
X025946Y024872D01*
X025927Y024867D01*
X025908Y024865D01*
X025889Y024867D01*
X025870Y024872D01*
X025854Y024882D01*
X025839Y024894D01*
X025827Y024909D01*
X025817Y024925D01*
X025812Y024944D01*
X025810Y024963D01*
X025417Y024963D02*
X025419Y024982D01*
X025424Y025001D01*
X025434Y025017D01*
X025446Y025032D01*
X025461Y025044D01*
X025477Y025054D01*
X025496Y025059D01*
X025515Y025061D01*
X025534Y025059D01*
X025553Y025054D01*
X025569Y025044D01*
X025584Y025032D01*
X025596Y025017D01*
X025606Y025001D01*
X025611Y024982D01*
X025613Y024963D01*
X025611Y024944D01*
X025606Y024925D01*
X025596Y024909D01*
X025584Y024894D01*
X025569Y024882D01*
X025553Y024872D01*
X025534Y024867D01*
X025515Y024865D01*
X025496Y024867D01*
X025477Y024872D01*
X025461Y024882D01*
X025446Y024894D01*
X025434Y024909D01*
X025424Y024925D01*
X025419Y024944D01*
X025417Y024963D01*
X025023Y024963D02*
X025025Y024982D01*
X025030Y025001D01*
X025040Y025017D01*
X025052Y025032D01*
X025067Y025044D01*
X025083Y025054D01*
X025102Y025059D01*
X025121Y025061D01*
X025140Y025059D01*
X025159Y025054D01*
X025175Y025044D01*
X025190Y025032D01*
X025202Y025017D01*
X025212Y025001D01*
X025217Y024982D01*
X025219Y024963D01*
X025217Y024944D01*
X025212Y024925D01*
X025202Y024909D01*
X025190Y024894D01*
X025175Y024882D01*
X025159Y024872D01*
X025140Y024867D01*
X025121Y024865D01*
X025102Y024867D01*
X025083Y024872D01*
X025067Y024882D01*
X025052Y024894D01*
X025040Y024909D01*
X025030Y024925D01*
X025025Y024944D01*
X025023Y024963D01*
X015181Y024963D02*
X015183Y024982D01*
X015188Y025001D01*
X015198Y025017D01*
X015210Y025032D01*
X015225Y025044D01*
X015241Y025054D01*
X015260Y025059D01*
X015279Y025061D01*
X015298Y025059D01*
X015317Y025054D01*
X015333Y025044D01*
X015348Y025032D01*
X015360Y025017D01*
X015370Y025001D01*
X015375Y024982D01*
X015377Y024963D01*
X015375Y024944D01*
X015370Y024925D01*
X015360Y024909D01*
X015348Y024894D01*
X015333Y024882D01*
X015317Y024872D01*
X015298Y024867D01*
X015279Y024865D01*
X015260Y024867D01*
X015241Y024872D01*
X015225Y024882D01*
X015210Y024894D01*
X015198Y024909D01*
X015188Y024925D01*
X015183Y024944D01*
X015181Y024963D01*
X014787Y024963D02*
X014789Y024982D01*
X014794Y025001D01*
X014804Y025017D01*
X014816Y025032D01*
X014831Y025044D01*
X014847Y025054D01*
X014866Y025059D01*
X014885Y025061D01*
X014904Y025059D01*
X014923Y025054D01*
X014939Y025044D01*
X014954Y025032D01*
X014966Y025017D01*
X014976Y025001D01*
X014981Y024982D01*
X014983Y024963D01*
X014981Y024944D01*
X014976Y024925D01*
X014966Y024909D01*
X014954Y024894D01*
X014939Y024882D01*
X014923Y024872D01*
X014904Y024867D01*
X014885Y024865D01*
X014866Y024867D01*
X014847Y024872D01*
X014831Y024882D01*
X014816Y024894D01*
X014804Y024909D01*
X014794Y024925D01*
X014789Y024944D01*
X014787Y024963D01*
X014393Y024963D02*
X014395Y024982D01*
X014400Y025001D01*
X014410Y025017D01*
X014422Y025032D01*
X014437Y025044D01*
X014453Y025054D01*
X014472Y025059D01*
X014491Y025061D01*
X014510Y025059D01*
X014529Y025054D01*
X014545Y025044D01*
X014560Y025032D01*
X014572Y025017D01*
X014582Y025001D01*
X014587Y024982D01*
X014589Y024963D01*
X014587Y024944D01*
X014582Y024925D01*
X014572Y024909D01*
X014560Y024894D01*
X014545Y024882D01*
X014529Y024872D01*
X014510Y024867D01*
X014491Y024865D01*
X014472Y024867D01*
X014453Y024872D01*
X014437Y024882D01*
X014422Y024894D01*
X014410Y024909D01*
X014400Y024925D01*
X014395Y024944D01*
X014393Y024963D01*
X013999Y024963D02*
X014001Y024982D01*
X014006Y025001D01*
X014016Y025017D01*
X014028Y025032D01*
X014043Y025044D01*
X014059Y025054D01*
X014078Y025059D01*
X014097Y025061D01*
X014116Y025059D01*
X014135Y025054D01*
X014151Y025044D01*
X014166Y025032D01*
X014178Y025017D01*
X014188Y025001D01*
X014193Y024982D01*
X014195Y024963D01*
X014193Y024944D01*
X014188Y024925D01*
X014178Y024909D01*
X014166Y024894D01*
X014151Y024882D01*
X014135Y024872D01*
X014116Y024867D01*
X014097Y024865D01*
X014078Y024867D01*
X014059Y024872D01*
X014043Y024882D01*
X014028Y024894D01*
X014016Y024909D01*
X014006Y024925D01*
X014001Y024944D01*
X013999Y024963D01*
X013606Y024963D02*
X013608Y024982D01*
X013613Y025001D01*
X013623Y025017D01*
X013635Y025032D01*
X013650Y025044D01*
X013666Y025054D01*
X013685Y025059D01*
X013704Y025061D01*
X013723Y025059D01*
X013742Y025054D01*
X013758Y025044D01*
X013773Y025032D01*
X013785Y025017D01*
X013795Y025001D01*
X013800Y024982D01*
X013802Y024963D01*
X013800Y024944D01*
X013795Y024925D01*
X013785Y024909D01*
X013773Y024894D01*
X013758Y024882D01*
X013742Y024872D01*
X013723Y024867D01*
X013704Y024865D01*
X013685Y024867D01*
X013666Y024872D01*
X013650Y024882D01*
X013635Y024894D01*
X013623Y024909D01*
X013613Y024925D01*
X013608Y024944D01*
X013606Y024963D01*
X013212Y024963D02*
X013214Y024982D01*
X013219Y025001D01*
X013229Y025017D01*
X013241Y025032D01*
X013256Y025044D01*
X013272Y025054D01*
X013291Y025059D01*
X013310Y025061D01*
X013329Y025059D01*
X013348Y025054D01*
X013364Y025044D01*
X013379Y025032D01*
X013391Y025017D01*
X013401Y025001D01*
X013406Y024982D01*
X013408Y024963D01*
X013406Y024944D01*
X013401Y024925D01*
X013391Y024909D01*
X013379Y024894D01*
X013364Y024882D01*
X013348Y024872D01*
X013329Y024867D01*
X013310Y024865D01*
X013291Y024867D01*
X013272Y024872D01*
X013256Y024882D01*
X013241Y024894D01*
X013229Y024909D01*
X013219Y024925D01*
X013214Y024944D01*
X013212Y024963D01*
X012818Y024963D02*
X012820Y024982D01*
X012825Y025001D01*
X012835Y025017D01*
X012847Y025032D01*
X012862Y025044D01*
X012878Y025054D01*
X012897Y025059D01*
X012916Y025061D01*
X012935Y025059D01*
X012954Y025054D01*
X012970Y025044D01*
X012985Y025032D01*
X012997Y025017D01*
X013007Y025001D01*
X013012Y024982D01*
X013014Y024963D01*
X013012Y024944D01*
X013007Y024925D01*
X012997Y024909D01*
X012985Y024894D01*
X012970Y024882D01*
X012954Y024872D01*
X012935Y024867D01*
X012916Y024865D01*
X012897Y024867D01*
X012878Y024872D01*
X012862Y024882D01*
X012847Y024894D01*
X012835Y024909D01*
X012825Y024925D01*
X012820Y024944D01*
X012818Y024963D01*
X012425Y024963D02*
X012427Y024982D01*
X012432Y025001D01*
X012442Y025017D01*
X012454Y025032D01*
X012469Y025044D01*
X012485Y025054D01*
X012504Y025059D01*
X012523Y025061D01*
X012542Y025059D01*
X012561Y025054D01*
X012577Y025044D01*
X012592Y025032D01*
X012604Y025017D01*
X012614Y025001D01*
X012619Y024982D01*
X012621Y024963D01*
X012619Y024944D01*
X012614Y024925D01*
X012604Y024909D01*
X012592Y024894D01*
X012577Y024882D01*
X012561Y024872D01*
X012542Y024867D01*
X012523Y024865D01*
X012504Y024867D01*
X012485Y024872D01*
X012469Y024882D01*
X012454Y024894D01*
X012442Y024909D01*
X012432Y024925D01*
X012427Y024944D01*
X012425Y024963D01*
X012031Y024963D02*
X012033Y024982D01*
X012038Y025001D01*
X012048Y025017D01*
X012060Y025032D01*
X012075Y025044D01*
X012091Y025054D01*
X012110Y025059D01*
X012129Y025061D01*
X012148Y025059D01*
X012167Y025054D01*
X012183Y025044D01*
X012198Y025032D01*
X012210Y025017D01*
X012220Y025001D01*
X012225Y024982D01*
X012227Y024963D01*
X012225Y024944D01*
X012220Y024925D01*
X012210Y024909D01*
X012198Y024894D01*
X012183Y024882D01*
X012167Y024872D01*
X012148Y024867D01*
X012129Y024865D01*
X012110Y024867D01*
X012091Y024872D01*
X012075Y024882D01*
X012060Y024894D01*
X012048Y024909D01*
X012038Y024925D01*
X012033Y024944D01*
X012031Y024963D01*
X011637Y024963D02*
X011639Y024982D01*
X011644Y025001D01*
X011654Y025017D01*
X011666Y025032D01*
X011681Y025044D01*
X011697Y025054D01*
X011716Y025059D01*
X011735Y025061D01*
X011754Y025059D01*
X011773Y025054D01*
X011789Y025044D01*
X011804Y025032D01*
X011816Y025017D01*
X011826Y025001D01*
X011831Y024982D01*
X011833Y024963D01*
X011831Y024944D01*
X011826Y024925D01*
X011816Y024909D01*
X011804Y024894D01*
X011789Y024882D01*
X011773Y024872D01*
X011754Y024867D01*
X011735Y024865D01*
X011716Y024867D01*
X011697Y024872D01*
X011681Y024882D01*
X011666Y024894D01*
X011654Y024909D01*
X011644Y024925D01*
X011639Y024944D01*
X011637Y024963D01*
X010420Y023416D02*
X010422Y023464D01*
X010428Y023512D01*
X010438Y023559D01*
X010451Y023605D01*
X010469Y023650D01*
X010489Y023694D01*
X010514Y023736D01*
X010542Y023775D01*
X010572Y023812D01*
X010606Y023846D01*
X010643Y023878D01*
X010681Y023907D01*
X010722Y023932D01*
X010765Y023954D01*
X010810Y023972D01*
X010856Y023986D01*
X010903Y023997D01*
X010951Y024004D01*
X010999Y024007D01*
X011047Y024006D01*
X011095Y024001D01*
X011143Y023992D01*
X011189Y023980D01*
X011234Y023963D01*
X011278Y023943D01*
X011320Y023920D01*
X011360Y023893D01*
X011398Y023863D01*
X011433Y023830D01*
X011465Y023794D01*
X011495Y023756D01*
X011521Y023715D01*
X011543Y023672D01*
X011563Y023628D01*
X011578Y023583D01*
X011590Y023536D01*
X011598Y023488D01*
X011602Y023440D01*
X011602Y023392D01*
X011598Y023344D01*
X011590Y023296D01*
X011578Y023249D01*
X011563Y023204D01*
X011543Y023160D01*
X011521Y023117D01*
X011495Y023076D01*
X011465Y023038D01*
X011433Y023002D01*
X011398Y022969D01*
X011360Y022939D01*
X011320Y022912D01*
X011278Y022889D01*
X011234Y022869D01*
X011189Y022852D01*
X011143Y022840D01*
X011095Y022831D01*
X011047Y022826D01*
X010999Y022825D01*
X010951Y022828D01*
X010903Y022835D01*
X010856Y022846D01*
X010810Y022860D01*
X010765Y022878D01*
X010722Y022900D01*
X010681Y022925D01*
X010643Y022954D01*
X010606Y022986D01*
X010572Y023020D01*
X010542Y023057D01*
X010514Y023096D01*
X010489Y023138D01*
X010469Y023182D01*
X010451Y023227D01*
X010438Y023273D01*
X010428Y023320D01*
X010422Y023368D01*
X010420Y023416D01*
X007341Y020863D02*
X007343Y020913D01*
X007349Y020963D01*
X007359Y021012D01*
X007373Y021060D01*
X007390Y021107D01*
X007411Y021152D01*
X007436Y021196D01*
X007464Y021237D01*
X007496Y021276D01*
X007530Y021313D01*
X007567Y021347D01*
X007607Y021377D01*
X007649Y021404D01*
X007693Y021428D01*
X007739Y021449D01*
X007786Y021465D01*
X007834Y021478D01*
X007884Y021487D01*
X007933Y021492D01*
X007984Y021493D01*
X008034Y021490D01*
X008083Y021483D01*
X008132Y021472D01*
X008180Y021457D01*
X008226Y021439D01*
X008271Y021417D01*
X008314Y021391D01*
X008355Y021362D01*
X008394Y021330D01*
X008430Y021295D01*
X008462Y021257D01*
X008492Y021217D01*
X008519Y021174D01*
X008542Y021130D01*
X008561Y021084D01*
X008577Y021036D01*
X008589Y020987D01*
X008597Y020938D01*
X008601Y020888D01*
X008601Y020838D01*
X008597Y020788D01*
X008589Y020739D01*
X008577Y020690D01*
X008561Y020642D01*
X008542Y020596D01*
X008519Y020552D01*
X008492Y020509D01*
X008462Y020469D01*
X008430Y020431D01*
X008394Y020396D01*
X008355Y020364D01*
X008314Y020335D01*
X008271Y020309D01*
X008226Y020287D01*
X008180Y020269D01*
X008132Y020254D01*
X008083Y020243D01*
X008034Y020236D01*
X007984Y020233D01*
X007933Y020234D01*
X007884Y020239D01*
X007834Y020248D01*
X007786Y020261D01*
X007739Y020277D01*
X007693Y020298D01*
X007649Y020322D01*
X007607Y020349D01*
X007567Y020379D01*
X007530Y020413D01*
X007496Y020450D01*
X007464Y020489D01*
X007436Y020530D01*
X007411Y020574D01*
X007390Y020619D01*
X007373Y020666D01*
X007359Y020714D01*
X007349Y020763D01*
X007343Y020813D01*
X007341Y020863D01*
X007341Y015863D02*
X007343Y015913D01*
X007349Y015963D01*
X007359Y016012D01*
X007373Y016060D01*
X007390Y016107D01*
X007411Y016152D01*
X007436Y016196D01*
X007464Y016237D01*
X007496Y016276D01*
X007530Y016313D01*
X007567Y016347D01*
X007607Y016377D01*
X007649Y016404D01*
X007693Y016428D01*
X007739Y016449D01*
X007786Y016465D01*
X007834Y016478D01*
X007884Y016487D01*
X007933Y016492D01*
X007984Y016493D01*
X008034Y016490D01*
X008083Y016483D01*
X008132Y016472D01*
X008180Y016457D01*
X008226Y016439D01*
X008271Y016417D01*
X008314Y016391D01*
X008355Y016362D01*
X008394Y016330D01*
X008430Y016295D01*
X008462Y016257D01*
X008492Y016217D01*
X008519Y016174D01*
X008542Y016130D01*
X008561Y016084D01*
X008577Y016036D01*
X008589Y015987D01*
X008597Y015938D01*
X008601Y015888D01*
X008601Y015838D01*
X008597Y015788D01*
X008589Y015739D01*
X008577Y015690D01*
X008561Y015642D01*
X008542Y015596D01*
X008519Y015552D01*
X008492Y015509D01*
X008462Y015469D01*
X008430Y015431D01*
X008394Y015396D01*
X008355Y015364D01*
X008314Y015335D01*
X008271Y015309D01*
X008226Y015287D01*
X008180Y015269D01*
X008132Y015254D01*
X008083Y015243D01*
X008034Y015236D01*
X007984Y015233D01*
X007933Y015234D01*
X007884Y015239D01*
X007834Y015248D01*
X007786Y015261D01*
X007739Y015277D01*
X007693Y015298D01*
X007649Y015322D01*
X007607Y015349D01*
X007567Y015379D01*
X007530Y015413D01*
X007496Y015450D01*
X007464Y015489D01*
X007436Y015530D01*
X007411Y015574D01*
X007390Y015619D01*
X007373Y015666D01*
X007359Y015714D01*
X007349Y015763D01*
X007343Y015813D01*
X007341Y015863D01*
X011420Y004666D02*
X011422Y004714D01*
X011428Y004762D01*
X011438Y004809D01*
X011451Y004855D01*
X011469Y004900D01*
X011489Y004944D01*
X011514Y004986D01*
X011542Y005025D01*
X011572Y005062D01*
X011606Y005096D01*
X011643Y005128D01*
X011681Y005157D01*
X011722Y005182D01*
X011765Y005204D01*
X011810Y005222D01*
X011856Y005236D01*
X011903Y005247D01*
X011951Y005254D01*
X011999Y005257D01*
X012047Y005256D01*
X012095Y005251D01*
X012143Y005242D01*
X012189Y005230D01*
X012234Y005213D01*
X012278Y005193D01*
X012320Y005170D01*
X012360Y005143D01*
X012398Y005113D01*
X012433Y005080D01*
X012465Y005044D01*
X012495Y005006D01*
X012521Y004965D01*
X012543Y004922D01*
X012563Y004878D01*
X012578Y004833D01*
X012590Y004786D01*
X012598Y004738D01*
X012602Y004690D01*
X012602Y004642D01*
X012598Y004594D01*
X012590Y004546D01*
X012578Y004499D01*
X012563Y004454D01*
X012543Y004410D01*
X012521Y004367D01*
X012495Y004326D01*
X012465Y004288D01*
X012433Y004252D01*
X012398Y004219D01*
X012360Y004189D01*
X012320Y004162D01*
X012278Y004139D01*
X012234Y004119D01*
X012189Y004102D01*
X012143Y004090D01*
X012095Y004081D01*
X012047Y004076D01*
X011999Y004075D01*
X011951Y004078D01*
X011903Y004085D01*
X011856Y004096D01*
X011810Y004110D01*
X011765Y004128D01*
X011722Y004150D01*
X011681Y004175D01*
X011643Y004204D01*
X011606Y004236D01*
X011572Y004270D01*
X011542Y004307D01*
X011514Y004346D01*
X011489Y004388D01*
X011469Y004432D01*
X011451Y004477D01*
X011438Y004523D01*
X011428Y004570D01*
X011422Y004618D01*
X011420Y004666D01*
X032670Y004416D02*
X032672Y004464D01*
X032678Y004512D01*
X032688Y004559D01*
X032701Y004605D01*
X032719Y004650D01*
X032739Y004694D01*
X032764Y004736D01*
X032792Y004775D01*
X032822Y004812D01*
X032856Y004846D01*
X032893Y004878D01*
X032931Y004907D01*
X032972Y004932D01*
X033015Y004954D01*
X033060Y004972D01*
X033106Y004986D01*
X033153Y004997D01*
X033201Y005004D01*
X033249Y005007D01*
X033297Y005006D01*
X033345Y005001D01*
X033393Y004992D01*
X033439Y004980D01*
X033484Y004963D01*
X033528Y004943D01*
X033570Y004920D01*
X033610Y004893D01*
X033648Y004863D01*
X033683Y004830D01*
X033715Y004794D01*
X033745Y004756D01*
X033771Y004715D01*
X033793Y004672D01*
X033813Y004628D01*
X033828Y004583D01*
X033840Y004536D01*
X033848Y004488D01*
X033852Y004440D01*
X033852Y004392D01*
X033848Y004344D01*
X033840Y004296D01*
X033828Y004249D01*
X033813Y004204D01*
X033793Y004160D01*
X033771Y004117D01*
X033745Y004076D01*
X033715Y004038D01*
X033683Y004002D01*
X033648Y003969D01*
X033610Y003939D01*
X033570Y003912D01*
X033528Y003889D01*
X033484Y003869D01*
X033439Y003852D01*
X033393Y003840D01*
X033345Y003831D01*
X033297Y003826D01*
X033249Y003825D01*
X033201Y003828D01*
X033153Y003835D01*
X033106Y003846D01*
X033060Y003860D01*
X033015Y003878D01*
X032972Y003900D01*
X032931Y003925D01*
X032893Y003954D01*
X032856Y003986D01*
X032822Y004020D01*
X032792Y004057D01*
X032764Y004096D01*
X032739Y004138D01*
X032719Y004182D01*
X032701Y004227D01*
X032688Y004273D01*
X032678Y004320D01*
X032672Y004368D01*
X032670Y004416D01*
D12*
X043761Y032416D03*
D13*
X041656Y024963D03*
X041263Y024963D03*
X040869Y024963D03*
X040475Y024963D03*
X040082Y024963D03*
X039688Y024963D03*
X039294Y024963D03*
X038901Y024963D03*
X028271Y024963D03*
X027877Y024963D03*
X027483Y024963D03*
X027090Y024963D03*
X026696Y024963D03*
X026302Y024963D03*
X025908Y024963D03*
X025515Y024963D03*
X025121Y024963D03*
X015279Y024963D03*
X014885Y024963D03*
X014491Y024963D03*
X014097Y024963D03*
X013704Y024963D03*
X013310Y024963D03*
X012916Y024963D03*
X012523Y024963D03*
X012129Y024963D03*
X011735Y024963D03*
D14*
X011011Y023416D03*
X012011Y004666D03*
X033261Y004416D03*
X044761Y023166D03*
D15*
X008961Y030916D03*
X007961Y030916D03*
X008061Y031916D03*
X009061Y031916D03*
X008961Y032916D03*
X007961Y032916D03*
X008061Y033916D03*
X009061Y033916D03*
X007961Y034916D03*
X008668Y009495D03*
X008668Y008510D03*
X008668Y007526D03*
D16*
X008961Y034916D03*
D17*
X024159Y032912D03*
X024279Y032912D03*
X024289Y032912D03*
X024300Y032912D03*
X024305Y032912D03*
X024310Y032912D03*
X024315Y032912D03*
X024362Y032907D03*
X024596Y032912D03*
X024606Y032912D03*
X024612Y032912D03*
X024617Y032912D03*
X024622Y032912D03*
X024648Y032169D03*
X024653Y032169D03*
X024658Y032169D03*
X024664Y032169D03*
X024669Y032169D03*
X024679Y032169D03*
X024736Y032169D03*
X024742Y032169D03*
X024778Y032169D03*
X024791Y032171D03*
X024521Y032171D03*
X024502Y032169D03*
X024492Y032169D03*
X024487Y032169D03*
X024482Y032169D03*
X024476Y032169D03*
X024466Y032169D03*
X024456Y032169D03*
X024445Y032169D03*
X024440Y032169D03*
X024435Y032169D03*
X024430Y032169D03*
X024419Y032169D03*
X024409Y032169D03*
X024404Y032169D03*
X024263Y032169D03*
X024258Y032169D03*
X024253Y032169D03*
X024242Y032169D03*
X024232Y032169D03*
X024227Y032169D03*
X024222Y032169D03*
X024216Y032169D03*
X024206Y032169D03*
X024196Y032169D03*
X024185Y032169D03*
X024180Y032169D03*
X024175Y032169D03*
X024170Y032169D03*
X024159Y032169D03*
X024149Y032169D03*
X024144Y032169D03*
X024131Y032171D03*
D18*
X024760Y032169D03*
D19*
X024731Y032169D03*
X024674Y032169D03*
X024515Y032171D03*
X024497Y032169D03*
X024471Y032169D03*
X024461Y032169D03*
X024450Y032169D03*
X024424Y032169D03*
X024414Y032169D03*
X024276Y032171D03*
X024248Y032169D03*
X024237Y032169D03*
X024211Y032169D03*
X024201Y032169D03*
X024190Y032169D03*
X024164Y032169D03*
X024154Y032169D03*
X024284Y032912D03*
X024294Y032912D03*
X024320Y032912D03*
X024591Y032912D03*
X024601Y032912D03*
X024627Y032912D03*
D20*
X024705Y032169D03*
D21*
X024713Y032171D03*
X024458Y032218D03*
X024458Y032223D03*
D22*
X024456Y032171D03*
D23*
X024458Y032197D03*
X024203Y032171D03*
D24*
X024206Y032174D03*
X024203Y032291D03*
X024203Y032301D03*
X024203Y032312D03*
X024203Y032317D03*
X024203Y032322D03*
X024203Y032327D03*
X024203Y032338D03*
X024203Y032348D03*
X024203Y032353D03*
X024203Y032358D03*
X024203Y032364D03*
X024203Y032369D03*
X024203Y032374D03*
X024203Y032384D03*
X024203Y032395D03*
X024203Y032400D03*
X024201Y032403D03*
X024203Y032405D03*
X024201Y032413D03*
X024201Y032418D03*
X024201Y032423D03*
X024201Y032429D03*
X024201Y032434D03*
X024201Y032439D03*
X024201Y032449D03*
X024201Y032460D03*
X024201Y032465D03*
X024201Y032470D03*
X024201Y032475D03*
X024201Y032486D03*
X024201Y032496D03*
X024458Y032254D03*
X024458Y032244D03*
X024713Y032244D03*
X024713Y032239D03*
X024713Y032234D03*
X024713Y032228D03*
X024713Y032223D03*
X024713Y032218D03*
X024713Y032208D03*
X024713Y032197D03*
X024713Y032192D03*
X024713Y032187D03*
X024713Y032182D03*
X024713Y032174D03*
X024713Y032254D03*
X024713Y032265D03*
X024713Y032270D03*
X024713Y032275D03*
X024713Y032280D03*
X024713Y032291D03*
X024713Y032301D03*
X024713Y032312D03*
X024713Y032317D03*
X024716Y032319D03*
X024713Y032322D03*
X024713Y032327D03*
X024713Y032338D03*
X024713Y032348D03*
X024713Y032353D03*
X024713Y032358D03*
X024713Y032364D03*
X024713Y032369D03*
X024716Y032403D03*
X024716Y032405D03*
X024716Y032410D03*
X024716Y032413D03*
X024716Y032418D03*
X024716Y032421D03*
X024716Y032423D03*
X024716Y032429D03*
X024716Y032434D03*
X024716Y032439D03*
X024716Y032449D03*
X024716Y032460D03*
X024716Y032465D03*
X024716Y032468D03*
X024716Y032470D03*
X024716Y032475D03*
X024716Y032483D03*
X024716Y032486D03*
X024716Y032488D03*
X024716Y032496D03*
D25*
X024536Y032535D03*
X024536Y032540D03*
X024544Y032579D03*
X024544Y032582D03*
X024378Y032564D03*
X024378Y032559D03*
X024378Y032553D03*
X024385Y032525D03*
X024385Y032517D03*
X024385Y032514D03*
X024367Y032605D03*
X024359Y032634D03*
X024461Y032179D03*
X024461Y032174D03*
D26*
X024458Y032249D03*
X024713Y032249D03*
X024713Y032260D03*
X024713Y032286D03*
X024713Y032296D03*
X024713Y032306D03*
X024716Y032314D03*
X024716Y032325D03*
X024713Y032332D03*
X024713Y032343D03*
X024716Y032397D03*
X024716Y032408D03*
X024716Y032416D03*
X024716Y032444D03*
X024716Y032455D03*
X024716Y032462D03*
X024716Y032473D03*
X024716Y032481D03*
X024716Y032491D03*
X024716Y032501D03*
X024713Y032213D03*
X024713Y032202D03*
X024713Y032176D03*
X024203Y032286D03*
X024203Y032296D03*
X024203Y032306D03*
X024203Y032332D03*
X024203Y032343D03*
X024203Y032379D03*
X024203Y032390D03*
X024201Y032397D03*
X024201Y032408D03*
X024201Y032444D03*
X024201Y032455D03*
X024201Y032481D03*
X024201Y032491D03*
X024201Y032501D03*
D27*
X024461Y032176D03*
D28*
X024205Y032176D03*
X024717Y032426D03*
X024717Y032436D03*
X024717Y032509D03*
X024717Y032520D03*
X024717Y032556D03*
X024717Y032566D03*
X024717Y032592D03*
D29*
X024714Y032478D03*
X024714Y032400D03*
X024714Y032395D03*
X024714Y032392D03*
X024714Y032387D03*
X024714Y032384D03*
X024714Y032382D03*
X024714Y032377D03*
X024714Y032374D03*
X024714Y032335D03*
X024714Y032330D03*
X024714Y032309D03*
X024714Y032304D03*
X024712Y032205D03*
X024712Y032200D03*
X024712Y032189D03*
X024712Y032179D03*
X024460Y032247D03*
X024460Y032252D03*
X024202Y032366D03*
X024202Y032377D03*
X024202Y032382D03*
X024202Y032387D03*
X024202Y032392D03*
D30*
X024205Y032280D03*
X024205Y032275D03*
X024205Y032270D03*
X024205Y032265D03*
X024205Y032254D03*
X024205Y032244D03*
X024205Y032239D03*
X024205Y032234D03*
X024205Y032228D03*
X024205Y032223D03*
X024205Y032218D03*
X024205Y032208D03*
X024205Y032197D03*
X024205Y032192D03*
X024205Y032187D03*
X024205Y032182D03*
X024205Y032179D03*
D31*
X024460Y032182D03*
X024389Y032507D03*
X024384Y032522D03*
X024382Y032543D03*
X024379Y032548D03*
X024356Y032647D03*
X024551Y032616D03*
X024551Y032608D03*
X024548Y032600D03*
X024545Y032590D03*
X024543Y032569D03*
X024540Y032564D03*
X024538Y032543D03*
X024532Y032517D03*
X024530Y032512D03*
X024553Y032626D03*
X024553Y032629D03*
X024556Y032637D03*
X024558Y032647D03*
X024561Y032652D03*
X024561Y032655D03*
D32*
X024714Y032390D03*
X024714Y032379D03*
X024712Y032195D03*
X024712Y032184D03*
X024460Y032260D03*
X024202Y032361D03*
X024202Y032371D03*
D33*
X024458Y032184D03*
X024560Y032650D03*
X024354Y032657D03*
D34*
X024203Y032351D03*
X024203Y032325D03*
X024203Y032314D03*
X024203Y032278D03*
X024203Y032267D03*
X024203Y032241D03*
X024203Y032231D03*
X024203Y032221D03*
X024203Y032195D03*
X024203Y032184D03*
D35*
X024461Y032187D03*
X024359Y032637D03*
D36*
X024350Y032663D03*
X024564Y032663D03*
X024460Y032192D03*
X024460Y032189D03*
D37*
X024458Y032257D03*
X024458Y032262D03*
X024203Y032262D03*
X024203Y032257D03*
X024203Y032252D03*
X024203Y032247D03*
X024203Y032236D03*
X024203Y032226D03*
X024203Y032215D03*
X024203Y032210D03*
X024203Y032205D03*
X024203Y032200D03*
X024203Y032189D03*
X024203Y032273D03*
X024203Y032283D03*
X024203Y032288D03*
X024203Y032293D03*
X024203Y032299D03*
X024203Y032304D03*
X024203Y032309D03*
X024203Y032319D03*
X024203Y032330D03*
X024203Y032335D03*
X024203Y032340D03*
X024203Y032345D03*
X024203Y032356D03*
D38*
X024461Y032195D03*
D39*
X024458Y032200D03*
X024458Y032205D03*
X024461Y032208D03*
D40*
X024460Y032202D03*
D41*
X024205Y032202D03*
X024205Y032213D03*
X024205Y032249D03*
X024205Y032260D03*
D42*
X024713Y032262D03*
X024713Y032257D03*
X024713Y032252D03*
X024713Y032247D03*
X024713Y032236D03*
X024713Y032226D03*
X024713Y032215D03*
X024713Y032210D03*
X024713Y032273D03*
X024713Y032283D03*
X024713Y032288D03*
X024713Y032293D03*
X024713Y032299D03*
X024713Y032340D03*
X024713Y032345D03*
X024713Y032356D03*
X024713Y032366D03*
D43*
X024460Y032210D03*
D44*
X024460Y032213D03*
D45*
X024461Y032215D03*
D46*
X024713Y032221D03*
X024713Y032231D03*
X024713Y032241D03*
X024713Y032267D03*
X024713Y032278D03*
X024713Y032351D03*
X024713Y032361D03*
X024713Y032371D03*
D47*
X024720Y032639D03*
X024720Y032650D03*
X024460Y032221D03*
D48*
X024458Y032226D03*
X024718Y032517D03*
X024718Y032522D03*
X024718Y032525D03*
X024718Y032530D03*
X024718Y032533D03*
X024718Y032535D03*
X024718Y032540D03*
X024718Y032543D03*
X024718Y032548D03*
X024718Y032551D03*
X024718Y032553D03*
X024718Y032559D03*
X024718Y032564D03*
X024718Y032569D03*
X024718Y032579D03*
X024718Y032590D03*
X024718Y032595D03*
X024718Y032600D03*
X024718Y032605D03*
X024718Y032608D03*
X024718Y032613D03*
X024718Y032616D03*
X024718Y032626D03*
X024718Y032637D03*
X024718Y032642D03*
X024718Y032647D03*
X024718Y032652D03*
X024718Y032655D03*
X024198Y032637D03*
X024198Y032626D03*
X024198Y032616D03*
X024198Y032605D03*
X024198Y032600D03*
X024198Y032595D03*
X024198Y032590D03*
X024198Y032579D03*
X024198Y032569D03*
X024198Y032564D03*
X024198Y032559D03*
D49*
X024460Y032228D03*
X024720Y032618D03*
X024720Y032624D03*
X024720Y032629D03*
X024720Y032634D03*
X024720Y032644D03*
D50*
X024718Y032631D03*
X024718Y032621D03*
X024718Y032611D03*
X024718Y032603D03*
X024718Y032585D03*
X024718Y032574D03*
X024718Y032546D03*
X024718Y032538D03*
X024718Y032527D03*
X024718Y032657D03*
X024458Y032231D03*
X024198Y032574D03*
X024198Y032585D03*
X024198Y032611D03*
X024198Y032621D03*
X024198Y032631D03*
D51*
X024201Y032577D03*
X024201Y032572D03*
X024201Y032561D03*
X024201Y032551D03*
X024201Y032540D03*
X024201Y032535D03*
X024201Y032530D03*
X024201Y032525D03*
X024201Y032514D03*
X024201Y032504D03*
X024201Y032499D03*
X024201Y032494D03*
X024201Y032488D03*
X024201Y032483D03*
X024201Y032478D03*
X024201Y032468D03*
X024201Y032457D03*
X024201Y032452D03*
X024201Y032447D03*
X024461Y032234D03*
D52*
X024460Y032236D03*
X024460Y032239D03*
X024202Y032410D03*
X024202Y032421D03*
X024202Y032431D03*
X024202Y032442D03*
X024200Y032507D03*
X024200Y032512D03*
X024200Y032517D03*
X024200Y032522D03*
X024200Y032533D03*
X024200Y032543D03*
X024200Y032548D03*
X024200Y032553D03*
X024200Y032582D03*
X024200Y032587D03*
X024200Y032598D03*
X024200Y032608D03*
X024200Y032613D03*
X024200Y032618D03*
X024200Y032624D03*
X024200Y032629D03*
X024200Y032634D03*
X024200Y032642D03*
X024200Y032644D03*
X024200Y032647D03*
X024200Y032652D03*
X024200Y032655D03*
X024200Y032660D03*
X024200Y032663D03*
D53*
X024200Y032657D03*
X024200Y032650D03*
X024200Y032639D03*
X024200Y032603D03*
X024200Y032592D03*
X024200Y032538D03*
X024200Y032527D03*
X024202Y032436D03*
X024202Y032426D03*
X024202Y032416D03*
X024460Y032241D03*
D54*
X024460Y032265D03*
D55*
X024460Y032267D03*
D56*
X024458Y032270D03*
X024458Y032273D03*
X024458Y032275D03*
X024458Y032280D03*
D57*
X024460Y032278D03*
D58*
X024458Y032283D03*
X024458Y032288D03*
X024458Y032291D03*
X024458Y032293D03*
D59*
X024458Y032286D03*
D60*
X024458Y032296D03*
X024458Y032306D03*
D61*
X024458Y032301D03*
X024458Y032299D03*
D62*
X024458Y032304D03*
X024458Y032309D03*
X024458Y032319D03*
D63*
X024457Y032312D03*
D64*
X024458Y032314D03*
X024669Y032910D03*
D65*
X024458Y032327D03*
X024458Y032322D03*
X024458Y032317D03*
D66*
X024460Y032325D03*
X024460Y032332D03*
D67*
X024458Y032330D03*
X024458Y032335D03*
X024458Y032338D03*
D68*
X024460Y032340D03*
D69*
X024458Y032343D03*
D70*
X024460Y032345D03*
X024460Y032353D03*
D71*
X024458Y032348D03*
D72*
X024460Y032351D03*
D73*
X024458Y032356D03*
D74*
X024461Y032358D03*
D75*
X024460Y032361D03*
D76*
X024460Y032364D03*
D77*
X024461Y032366D03*
X024458Y032369D03*
D78*
X024460Y032371D03*
D79*
X024460Y032374D03*
D80*
X024458Y032377D03*
D81*
X024461Y032379D03*
D82*
X024460Y032382D03*
X024460Y032384D03*
D83*
X024461Y032387D03*
X024461Y032392D03*
D84*
X024458Y032390D03*
D85*
X024458Y032395D03*
D86*
X024460Y032397D03*
D87*
X024461Y032400D03*
X024461Y032405D03*
D88*
X024458Y032403D03*
X024245Y032907D03*
D89*
X024458Y032416D03*
X024461Y032408D03*
D90*
X024460Y032410D03*
D91*
X024461Y032413D03*
D92*
X024460Y032418D03*
X024460Y032421D03*
X024460Y032423D03*
D93*
X024461Y032426D03*
D94*
X024460Y032429D03*
X024460Y032431D03*
X024670Y032904D03*
D95*
X024717Y032665D03*
X024717Y032663D03*
X024717Y032660D03*
X024717Y032598D03*
X024717Y032587D03*
X024717Y032582D03*
X024717Y032577D03*
X024717Y032572D03*
X024717Y032561D03*
X024717Y032514D03*
X024717Y032512D03*
X024717Y032507D03*
X024717Y032504D03*
X024717Y032499D03*
X024717Y032494D03*
X024717Y032457D03*
X024717Y032452D03*
X024717Y032447D03*
X024717Y032442D03*
X024717Y032431D03*
D96*
X024461Y032434D03*
X024461Y032439D03*
D97*
X024460Y032436D03*
D98*
X024458Y032442D03*
X024248Y032902D03*
X024669Y032902D03*
D99*
X024246Y032899D03*
X024460Y032444D03*
D100*
X024460Y032447D03*
X024246Y032897D03*
D101*
X024248Y032894D03*
X024248Y032889D03*
X024461Y032452D03*
X024458Y032449D03*
D102*
X024460Y032455D03*
D103*
X024460Y032457D03*
X024460Y032460D03*
X024668Y032884D03*
X024249Y032884D03*
D104*
X024248Y032881D03*
X024248Y032891D03*
X024250Y032863D03*
X024669Y032881D03*
X024669Y032891D03*
X024458Y032462D03*
D105*
X024201Y032462D03*
X024201Y032473D03*
X024201Y032509D03*
X024201Y032520D03*
X024201Y032546D03*
X024201Y032556D03*
X024201Y032566D03*
D106*
X024458Y032468D03*
X024461Y032465D03*
X024250Y032858D03*
X024250Y032868D03*
X024250Y032873D03*
X024250Y032878D03*
X024248Y032886D03*
X024669Y032886D03*
D107*
X024668Y032878D03*
X024668Y032876D03*
X024668Y032873D03*
X024668Y032868D03*
X024249Y032876D03*
X024460Y032470D03*
D108*
X024460Y032473D03*
X024249Y032871D03*
D109*
X024250Y032865D03*
X024250Y032860D03*
X024250Y032855D03*
X024250Y032850D03*
X024253Y032847D03*
X024253Y032842D03*
X024253Y032837D03*
X024253Y032832D03*
X024458Y032475D03*
D110*
X024461Y032478D03*
X024666Y032860D03*
X024666Y032865D03*
D111*
X024665Y032852D03*
X024254Y032826D03*
X024252Y032845D03*
X024460Y032481D03*
D112*
X024460Y032483D03*
X024460Y032486D03*
X024252Y032839D03*
X024665Y032842D03*
X024665Y032847D03*
X024665Y032855D03*
X024665Y032858D03*
D113*
X024664Y032850D03*
X024664Y032839D03*
X024664Y032837D03*
X024661Y032832D03*
X024661Y032821D03*
X024661Y032811D03*
X024458Y032494D03*
X024458Y032488D03*
X024253Y032819D03*
X024253Y032824D03*
X024253Y032829D03*
D114*
X024460Y032491D03*
D115*
X024460Y032496D03*
X024460Y032499D03*
X024257Y032800D03*
X024254Y032813D03*
D116*
X024255Y032798D03*
X024258Y032780D03*
X024458Y032501D03*
X024658Y032806D03*
D117*
X024565Y032665D03*
X024565Y032660D03*
X024557Y032642D03*
X024547Y032595D03*
X024528Y032504D03*
X024357Y032644D03*
X024354Y032652D03*
X024352Y032660D03*
D118*
X024354Y032655D03*
X024357Y032642D03*
X024362Y032626D03*
X024365Y032618D03*
X024370Y032598D03*
X024370Y032595D03*
X024372Y032590D03*
X024372Y032579D03*
X024375Y032577D03*
X024375Y032572D03*
X024375Y032569D03*
X024380Y032551D03*
X024380Y032540D03*
X024383Y032533D03*
X024388Y032512D03*
X024391Y032504D03*
X024528Y032507D03*
X024531Y032514D03*
X024534Y032522D03*
X024534Y032525D03*
X024534Y032533D03*
X024539Y032548D03*
X024539Y032553D03*
X024539Y032559D03*
X024541Y032561D03*
X024541Y032572D03*
X024541Y032577D03*
X024547Y032587D03*
X024547Y032598D03*
X024549Y032605D03*
X024552Y032613D03*
X024552Y032618D03*
X024552Y032624D03*
X024557Y032634D03*
X024557Y032644D03*
D119*
X024553Y032621D03*
X024543Y032574D03*
X024530Y032509D03*
X024356Y032650D03*
D120*
X024362Y032631D03*
X024370Y032592D03*
X024372Y032585D03*
X024375Y032574D03*
X024375Y032566D03*
X024380Y032546D03*
X024383Y032538D03*
X024383Y032527D03*
X024388Y032509D03*
X024531Y032520D03*
X024534Y032527D03*
X024539Y032556D03*
X024541Y032566D03*
X024547Y032592D03*
X024547Y032603D03*
X024549Y032611D03*
X024557Y032639D03*
D121*
X024554Y032631D03*
X024544Y032585D03*
X024536Y032546D03*
X024536Y032538D03*
X024385Y032520D03*
X024367Y032611D03*
X024359Y032639D03*
D122*
X024361Y032629D03*
X024366Y032616D03*
X024366Y032613D03*
X024369Y032600D03*
X024376Y032561D03*
X024384Y032530D03*
X024535Y032530D03*
X024538Y032551D03*
D123*
X024382Y032535D03*
X024374Y032582D03*
X024371Y032587D03*
X024363Y032624D03*
D124*
X024369Y032603D03*
X024379Y032556D03*
D125*
X024367Y032608D03*
D126*
X024363Y032621D03*
D127*
X024562Y032657D03*
D128*
X024270Y032665D03*
D129*
X024647Y032668D03*
D130*
X024268Y032668D03*
D131*
X024647Y032670D03*
D132*
X024268Y032670D03*
X024268Y032673D03*
X024268Y032678D03*
X024268Y032683D03*
D133*
X024648Y032683D03*
X024648Y032678D03*
X024648Y032673D03*
D134*
X024648Y032676D03*
D135*
X024649Y032686D03*
X024649Y032696D03*
X024267Y032686D03*
X024267Y032676D03*
D136*
X024267Y032681D03*
X024267Y032689D03*
X024267Y032691D03*
X024649Y032691D03*
X024649Y032689D03*
X024649Y032694D03*
X024649Y032681D03*
D137*
X024651Y032699D03*
X024651Y032702D03*
X024651Y032709D03*
X024266Y032699D03*
X024266Y032694D03*
D138*
X024266Y032696D03*
X024266Y032704D03*
X024651Y032704D03*
D139*
X024265Y032702D03*
X024265Y032707D03*
X024265Y032709D03*
X024265Y032712D03*
X024265Y032717D03*
D140*
X024652Y032717D03*
X024652Y032712D03*
X024652Y032707D03*
D141*
X024652Y032715D03*
D142*
X024265Y032715D03*
D143*
X024263Y032720D03*
X024263Y032725D03*
X024263Y032730D03*
X024653Y032730D03*
X024653Y032725D03*
X024653Y032720D03*
X024653Y032735D03*
D144*
X024651Y032722D03*
X024263Y032722D03*
D145*
X024262Y032728D03*
X024262Y032735D03*
X024652Y032728D03*
D146*
X024653Y032733D03*
X024261Y032751D03*
X024261Y032761D03*
D147*
X024262Y032741D03*
X024262Y032733D03*
X024655Y032741D03*
D148*
X024653Y032743D03*
X024653Y032738D03*
X024653Y032748D03*
X024263Y032743D03*
X024261Y032746D03*
X024263Y032738D03*
X024261Y032756D03*
D149*
X024656Y032756D03*
X024656Y032746D03*
X024656Y032767D03*
D150*
X024262Y032748D03*
X024259Y032767D03*
D151*
X024656Y032761D03*
X024656Y032751D03*
D152*
X024655Y032754D03*
X024657Y032772D03*
D153*
X024261Y032764D03*
X024261Y032759D03*
X024261Y032754D03*
D154*
X024258Y032772D03*
X024258Y032777D03*
X024258Y032782D03*
X024656Y032774D03*
X024658Y032777D03*
X024658Y032782D03*
X024658Y032793D03*
X024656Y032764D03*
X024656Y032759D03*
D155*
X024656Y032769D03*
X024658Y032787D03*
X024258Y032787D03*
D156*
X024261Y032769D03*
D157*
X024259Y032774D03*
X024257Y032793D03*
D158*
X024657Y032780D03*
X024660Y032798D03*
D159*
X024658Y032800D03*
X024658Y032795D03*
X024658Y032790D03*
X024658Y032785D03*
X024258Y032785D03*
X024258Y032790D03*
X024258Y032795D03*
X024255Y032803D03*
X024255Y032808D03*
D160*
X024661Y032808D03*
X024661Y032803D03*
X024661Y032813D03*
X024661Y032819D03*
D161*
X024255Y032816D03*
X024255Y032806D03*
D162*
X024255Y032811D03*
X024255Y032821D03*
D163*
X024253Y032834D03*
X024661Y032826D03*
X024664Y032834D03*
X024664Y032845D03*
X024661Y032816D03*
D164*
X024662Y032824D03*
X024662Y032829D03*
D165*
X024252Y032852D03*
D166*
X024666Y032863D03*
X024666Y032871D03*
D167*
X024669Y032889D03*
X024669Y032894D03*
X024669Y032897D03*
D168*
X024670Y032899D03*
D169*
X024248Y032904D03*
D170*
X024671Y032907D03*
D171*
X024573Y032910D03*
X024775Y032910D03*
D172*
X024770Y032910D03*
X024765Y032910D03*
X024567Y032910D03*
X024344Y032910D03*
X024339Y032910D03*
X024141Y032910D03*
D173*
X024240Y032910D03*
D174*
X020761Y028666D03*
X019761Y028666D03*
X018761Y028666D03*
X017761Y028666D03*
X016761Y028666D03*
X016761Y027666D03*
X017761Y027666D03*
X018761Y027666D03*
X019761Y027666D03*
X020761Y027666D03*
X010942Y013630D03*
X009942Y013730D03*
X009942Y012730D03*
X010942Y012630D03*
X008942Y012630D03*
X008942Y013630D03*
D175*
X017761Y034666D03*
D176*
X019729Y034666D03*
D177*
X042761Y034166D03*
D178*
X041261Y034166D03*
D179*
X040328Y023768D03*
D180*
X039328Y023768D03*
X038328Y023768D03*
X037328Y023768D03*
X036328Y023768D03*
X035328Y023768D03*
X034328Y023768D03*
X033328Y023768D03*
X032328Y023768D03*
X031328Y023768D03*
X030328Y023768D03*
X029328Y023768D03*
X028328Y023768D03*
X027328Y023768D03*
X026328Y023768D03*
X025328Y023768D03*
X025614Y008530D03*
X025614Y006750D03*
X023054Y006750D03*
X023054Y008530D03*
X024015Y003703D03*
X030140Y006750D03*
X030140Y008530D03*
X032700Y008530D03*
X032700Y006750D03*
X031015Y003703D03*
X037227Y006750D03*
X037227Y008530D03*
X039787Y008530D03*
X039787Y006750D03*
X045379Y011920D03*
X045279Y012920D03*
X045379Y013920D03*
X045279Y014920D03*
X045379Y015920D03*
X045279Y016920D03*
D181*
X010266Y016963D02*
X009671Y016963D01*
X008971Y017363D02*
X008377Y017363D01*
X008377Y018163D02*
X008971Y018163D01*
X009671Y018563D02*
X010266Y018563D01*
X010266Y019363D02*
X009671Y019363D01*
X008971Y019763D02*
X008377Y019763D01*
X008377Y018963D02*
X008971Y018963D01*
X009671Y017763D02*
X010266Y017763D01*
D182*
X007971Y015863D03*
X007971Y020863D03*
D183*
X009968Y010479D03*
X013064Y007640D03*
X009968Y006542D03*
X017493Y007640D03*
D184*
X017464Y009274D03*
D185*
X015279Y010337D03*
X013094Y009274D03*
X012936Y006282D03*
X017464Y006006D03*
D186*
X037920Y003666D03*
X039101Y003666D03*
X044170Y005416D03*
X045351Y005416D03*
X045351Y008416D03*
X044170Y008416D03*
D187*
X045261Y018932D03*
X044277Y019916D03*
X045261Y020900D03*
D188*
X037761Y031802D03*
D189*
X036280Y033053D03*
X037751Y034684D03*
M02*
