G75*
%MOIN*%
%OFA0B0*%
%FSLAX24Y24*%
%IPPOS*%
%LPD*%
%AMOC8*
5,1,8,0,0,1.08239X$1,22.5*
%
%ADD10C,0.0120*%
%ADD11C,0.0000*%
%ADD12C,0.1142*%
%ADD13C,0.0237*%
%ADD14C,0.1221*%
%ADD15C,0.0500*%
%ADD16C,0.0434*%
%ADD17OC8,0.0800*%
%ADD18R,0.0800X0.0800*%
%ADD19R,0.0394X0.0414*%
%ADD20R,0.0473X0.0434*%
%ADD21R,0.0280X0.0640*%
%ADD22R,0.0540X0.0619*%
%ADD23R,0.0631X0.0197*%
%ADD24R,0.0434X0.0473*%
%ADD25R,0.0591X0.0512*%
%ADD26R,0.0906X0.0296*%
%ADD27R,0.1420X0.4060*%
%ADD28OC8,0.0780*%
%ADD29R,0.1540X0.1540*%
%ADD30C,0.1540*%
%ADD31R,0.1221X0.0670*%
%ADD32R,0.2290X0.1940*%
%ADD33OC8,0.1040*%
%ADD34R,0.1040X0.1040*%
%ADD35R,0.0394X0.0355*%
%ADD36R,0.0003X0.0003*%
%ADD37R,0.0029X0.0003*%
%ADD38R,0.0003X0.0003*%
%ADD39R,0.0044X0.0003*%
%ADD40R,0.0148X0.0003*%
%ADD41R,0.0112X0.0003*%
%ADD42R,0.0138X0.0003*%
%ADD43R,0.0159X0.0003*%
%ADD44R,0.0127X0.0003*%
%ADD45R,0.0159X0.0003*%
%ADD46R,0.0122X0.0003*%
%ADD47R,0.0156X0.0003*%
%ADD48R,0.0161X0.0003*%
%ADD49R,0.0161X0.0003*%
%ADD50R,0.0130X0.0003*%
%ADD51R,0.0161X0.0003*%
%ADD52R,0.0133X0.0003*%
%ADD53R,0.0164X0.0003*%
%ADD54R,0.0133X0.0003*%
%ADD55R,0.0135X0.0003*%
%ADD56R,0.0164X0.0003*%
%ADD57R,0.0138X0.0003*%
%ADD58R,0.0143X0.0003*%
%ADD59R,0.0140X0.0003*%
%ADD60R,0.0161X0.0003*%
%ADD61R,0.0164X0.0003*%
%ADD62R,0.0146X0.0003*%
%ADD63R,0.0146X0.0003*%
%ADD64R,0.0148X0.0003*%
%ADD65R,0.0164X0.0003*%
%ADD66R,0.0151X0.0003*%
%ADD67R,0.0153X0.0003*%
%ADD68R,0.0151X0.0003*%
%ADD69R,0.0153X0.0003*%
%ADD70R,0.0153X0.0003*%
%ADD71R,0.0156X0.0003*%
%ADD72R,0.0156X0.0003*%
%ADD73R,0.0166X0.0003*%
%ADD74R,0.0166X0.0003*%
%ADD75R,0.0169X0.0003*%
%ADD76R,0.0172X0.0003*%
%ADD77R,0.0174X0.0003*%
%ADD78R,0.0169X0.0003*%
%ADD79R,0.0179X0.0003*%
%ADD80R,0.0179X0.0003*%
%ADD81R,0.0185X0.0003*%
%ADD82R,0.0182X0.0003*%
%ADD83R,0.0185X0.0003*%
%ADD84R,0.0190X0.0003*%
%ADD85R,0.0192X0.0003*%
%ADD86R,0.0195X0.0003*%
%ADD87R,0.0198X0.0003*%
%ADD88R,0.0200X0.0003*%
%ADD89R,0.0203X0.0003*%
%ADD90R,0.0200X0.0003*%
%ADD91R,0.0203X0.0003*%
%ADD92R,0.0205X0.0003*%
%ADD93R,0.0205X0.0003*%
%ADD94R,0.0208X0.0003*%
%ADD95R,0.0208X0.0003*%
%ADD96R,0.0211X0.0003*%
%ADD97R,0.0213X0.0003*%
%ADD98R,0.0213X0.0003*%
%ADD99R,0.0216X0.0003*%
%ADD100R,0.0216X0.0003*%
%ADD101R,0.0218X0.0003*%
%ADD102R,0.0221X0.0003*%
%ADD103R,0.0221X0.0003*%
%ADD104R,0.0221X0.0003*%
%ADD105R,0.0224X0.0003*%
%ADD106R,0.0226X0.0003*%
%ADD107R,0.0226X0.0003*%
%ADD108R,0.0231X0.0003*%
%ADD109R,0.0229X0.0003*%
%ADD110R,0.0231X0.0003*%
%ADD111R,0.0234X0.0003*%
%ADD112R,0.0237X0.0003*%
%ADD113R,0.0239X0.0003*%
%ADD114R,0.0156X0.0003*%
%ADD115R,0.0242X0.0003*%
%ADD116R,0.0239X0.0003*%
%ADD117R,0.0242X0.0003*%
%ADD118R,0.0244X0.0003*%
%ADD119R,0.0244X0.0003*%
%ADD120R,0.0247X0.0003*%
%ADD121R,0.0250X0.0003*%
%ADD122R,0.0250X0.0003*%
%ADD123R,0.0252X0.0003*%
%ADD124R,0.0153X0.0003*%
%ADD125R,0.0252X0.0003*%
%ADD126R,0.0255X0.0003*%
%ADD127R,0.0255X0.0003*%
%ADD128R,0.0257X0.0003*%
%ADD129R,0.0257X0.0003*%
%ADD130R,0.0260X0.0003*%
%ADD131R,0.0260X0.0003*%
%ADD132R,0.0263X0.0003*%
%ADD133R,0.0265X0.0003*%
%ADD134R,0.0265X0.0003*%
%ADD135R,0.0268X0.0003*%
%ADD136R,0.0133X0.0003*%
%ADD137R,0.0127X0.0003*%
%ADD138R,0.0130X0.0003*%
%ADD139R,0.0127X0.0003*%
%ADD140R,0.0127X0.0003*%
%ADD141R,0.0125X0.0003*%
%ADD142R,0.0125X0.0003*%
%ADD143R,0.0125X0.0003*%
%ADD144R,0.0122X0.0003*%
%ADD145R,0.0125X0.0003*%
%ADD146R,0.0133X0.0003*%
%ADD147R,0.0296X0.0003*%
%ADD148R,0.0296X0.0003*%
%ADD149R,0.0294X0.0003*%
%ADD150R,0.0296X0.0003*%
%ADD151R,0.0294X0.0003*%
%ADD152R,0.0294X0.0003*%
%ADD153R,0.0294X0.0003*%
%ADD154R,0.0291X0.0003*%
%ADD155R,0.0291X0.0003*%
%ADD156R,0.0289X0.0003*%
%ADD157R,0.0289X0.0003*%
%ADD158R,0.0286X0.0003*%
%ADD159R,0.0286X0.0003*%
%ADD160R,0.0286X0.0003*%
%ADD161R,0.0286X0.0003*%
%ADD162R,0.0283X0.0003*%
%ADD163R,0.0283X0.0003*%
%ADD164R,0.0281X0.0003*%
%ADD165R,0.0278X0.0003*%
%ADD166R,0.0281X0.0003*%
%ADD167R,0.0278X0.0003*%
%ADD168R,0.0278X0.0003*%
%ADD169R,0.0276X0.0003*%
%ADD170R,0.0278X0.0003*%
%ADD171R,0.0276X0.0003*%
%ADD172R,0.0273X0.0003*%
%ADD173R,0.0273X0.0003*%
%ADD174R,0.0273X0.0003*%
%ADD175R,0.0273X0.0003*%
%ADD176R,0.0270X0.0003*%
%ADD177R,0.0270X0.0003*%
%ADD178R,0.0268X0.0003*%
%ADD179R,0.0268X0.0003*%
%ADD180R,0.0263X0.0003*%
%ADD181R,0.0263X0.0003*%
%ADD182R,0.0263X0.0003*%
%ADD183R,0.0265X0.0003*%
%ADD184R,0.0255X0.0003*%
%ADD185R,0.0257X0.0003*%
%ADD186R,0.0247X0.0003*%
%ADD187R,0.0244X0.0003*%
%ADD188R,0.0237X0.0003*%
%ADD189R,0.0237X0.0003*%
%ADD190R,0.0003X0.0003*%
%ADD191R,0.0003X0.0003*%
%ADD192R,0.0190X0.0003*%
%ADD193R,0.0780X0.0780*%
%ADD194C,0.0780*%
%ADD195R,0.0540X0.0260*%
%ADD196R,0.0260X0.0540*%
%ADD197C,0.0217*%
%ADD198R,0.0604X0.1376*%
%ADD199C,0.0634*%
%ADD200C,0.1300*%
%ADD201OC8,0.1540*%
%ADD202C,0.0900*%
%ADD203OC8,0.0900*%
%ADD204R,0.0591X0.0670*%
%ADD205R,0.0840X0.0300*%
%ADD206R,0.0355X0.0512*%
%ADD207C,0.1040*%
%ADD208C,0.1700*%
%ADD209C,0.1660*%
D10*
X007011Y006459D02*
X007011Y021420D01*
X007013Y021474D01*
X007018Y021527D01*
X007027Y021580D01*
X007040Y021632D01*
X007056Y021684D01*
X007076Y021734D01*
X007099Y021782D01*
X007126Y021829D01*
X007155Y021874D01*
X007188Y021917D01*
X007223Y021957D01*
X007261Y021995D01*
X007301Y022030D01*
X007344Y022063D01*
X007389Y022092D01*
X007436Y022119D01*
X007484Y022142D01*
X007534Y022162D01*
X007586Y022178D01*
X007638Y022191D01*
X007691Y022200D01*
X007744Y022205D01*
X007798Y022207D01*
X008979Y022207D01*
X008979Y022208D02*
X009033Y022210D01*
X009086Y022215D01*
X009139Y022224D01*
X009191Y022237D01*
X009243Y022253D01*
X009293Y022273D01*
X009341Y022296D01*
X009388Y022323D01*
X009433Y022352D01*
X009476Y022385D01*
X009516Y022420D01*
X009554Y022458D01*
X009589Y022498D01*
X009622Y022541D01*
X009651Y022586D01*
X009678Y022633D01*
X009701Y022681D01*
X009721Y022731D01*
X009737Y022783D01*
X009750Y022835D01*
X009759Y022888D01*
X009764Y022941D01*
X009766Y022995D01*
X009767Y022995D02*
X009767Y024176D01*
X009769Y024230D01*
X009774Y024283D01*
X009783Y024336D01*
X009796Y024388D01*
X009812Y024440D01*
X009832Y024490D01*
X009855Y024538D01*
X009882Y024585D01*
X009911Y024630D01*
X009944Y024673D01*
X009979Y024713D01*
X010017Y024751D01*
X010057Y024786D01*
X010100Y024819D01*
X010145Y024848D01*
X010192Y024875D01*
X010240Y024898D01*
X010290Y024918D01*
X010342Y024934D01*
X010394Y024947D01*
X010447Y024956D01*
X010500Y024961D01*
X010554Y024963D01*
X010948Y024963D01*
X010987Y024965D01*
X011025Y024971D01*
X011062Y024980D01*
X011099Y024993D01*
X011134Y025010D01*
X011167Y025029D01*
X011198Y025052D01*
X011227Y025078D01*
X011253Y025107D01*
X011276Y025138D01*
X011295Y025171D01*
X011312Y025206D01*
X011325Y025243D01*
X011334Y025280D01*
X011340Y025318D01*
X011342Y025357D01*
X011340Y025396D01*
X011334Y025434D01*
X011325Y025471D01*
X011312Y025508D01*
X011295Y025543D01*
X011276Y025576D01*
X011253Y025607D01*
X011227Y025636D01*
X011198Y025662D01*
X011167Y025685D01*
X011134Y025704D01*
X011099Y025721D01*
X011062Y025734D01*
X011025Y025743D01*
X010987Y025749D01*
X010948Y025751D01*
X007798Y025751D01*
X007744Y025753D01*
X007691Y025758D01*
X007638Y025767D01*
X007586Y025780D01*
X007534Y025796D01*
X007484Y025816D01*
X007436Y025839D01*
X007389Y025866D01*
X007344Y025895D01*
X007301Y025928D01*
X007261Y025963D01*
X007223Y026001D01*
X007188Y026041D01*
X007155Y026084D01*
X007126Y026129D01*
X007099Y026176D01*
X007076Y026224D01*
X007056Y026274D01*
X007040Y026326D01*
X007027Y026378D01*
X007018Y026431D01*
X007013Y026484D01*
X007011Y026538D01*
X007011Y035199D01*
X007013Y035253D01*
X007018Y035306D01*
X007027Y035359D01*
X007040Y035411D01*
X007056Y035463D01*
X007076Y035513D01*
X007099Y035561D01*
X007126Y035608D01*
X007155Y035653D01*
X007188Y035696D01*
X007223Y035736D01*
X007261Y035774D01*
X007301Y035809D01*
X007344Y035842D01*
X007389Y035871D01*
X007436Y035898D01*
X007484Y035921D01*
X007534Y035941D01*
X007586Y035957D01*
X007638Y035970D01*
X007691Y035979D01*
X007744Y035984D01*
X007798Y035986D01*
X007798Y035987D02*
X044491Y035987D01*
X044491Y035986D02*
X044545Y035984D01*
X044598Y035979D01*
X044651Y035970D01*
X044703Y035957D01*
X044755Y035941D01*
X044805Y035921D01*
X044853Y035898D01*
X044900Y035871D01*
X044945Y035842D01*
X044988Y035809D01*
X045028Y035774D01*
X045066Y035736D01*
X045101Y035696D01*
X045134Y035653D01*
X045163Y035608D01*
X045190Y035561D01*
X045213Y035513D01*
X045233Y035463D01*
X045249Y035411D01*
X045262Y035359D01*
X045271Y035306D01*
X045276Y035253D01*
X045278Y035199D01*
X045279Y035199D02*
X045279Y026538D01*
X045278Y026538D02*
X045276Y026484D01*
X045271Y026431D01*
X045262Y026378D01*
X045249Y026326D01*
X045233Y026274D01*
X045213Y026224D01*
X045190Y026176D01*
X045163Y026129D01*
X045134Y026084D01*
X045101Y026041D01*
X045066Y026001D01*
X045028Y025963D01*
X044988Y025928D01*
X044945Y025895D01*
X044900Y025866D01*
X044853Y025839D01*
X044805Y025816D01*
X044755Y025796D01*
X044703Y025780D01*
X044651Y025767D01*
X044598Y025758D01*
X044545Y025753D01*
X044491Y025751D01*
X042444Y025751D01*
X042405Y025749D01*
X042367Y025743D01*
X042330Y025734D01*
X042293Y025721D01*
X042258Y025704D01*
X042225Y025685D01*
X042194Y025662D01*
X042165Y025636D01*
X042139Y025607D01*
X042116Y025576D01*
X042097Y025543D01*
X042080Y025508D01*
X042067Y025471D01*
X042058Y025434D01*
X042052Y025396D01*
X042050Y025357D01*
X042052Y025318D01*
X042058Y025280D01*
X042067Y025243D01*
X042080Y025206D01*
X042097Y025171D01*
X042116Y025138D01*
X042139Y025107D01*
X042165Y025078D01*
X042194Y025052D01*
X042225Y025029D01*
X042258Y025010D01*
X042293Y024993D01*
X042330Y024980D01*
X042367Y024971D01*
X042405Y024965D01*
X042444Y024963D01*
X045594Y024963D01*
X045593Y024963D02*
X045647Y024958D01*
X045699Y024950D01*
X045751Y024938D01*
X045802Y024922D01*
X045852Y024902D01*
X045901Y024879D01*
X045947Y024853D01*
X045991Y024823D01*
X046034Y024790D01*
X046074Y024754D01*
X046111Y024716D01*
X046145Y024675D01*
X046176Y024632D01*
X046205Y024586D01*
X046229Y024539D01*
X046251Y024490D01*
X046269Y024440D01*
X046283Y024388D01*
X046293Y024336D01*
X046300Y024282D01*
X046303Y024229D01*
X046302Y024176D01*
X046302Y003703D01*
X046303Y003650D01*
X046300Y003597D01*
X046293Y003543D01*
X046283Y003491D01*
X046269Y003439D01*
X046251Y003389D01*
X046229Y003340D01*
X046205Y003293D01*
X046176Y003247D01*
X046145Y003204D01*
X046111Y003163D01*
X046074Y003125D01*
X046034Y003089D01*
X045991Y003056D01*
X045947Y003026D01*
X045901Y003000D01*
X045852Y002977D01*
X045802Y002957D01*
X045751Y002941D01*
X045699Y002929D01*
X045647Y002921D01*
X045593Y002916D01*
X045594Y002916D02*
X010554Y002916D01*
X010500Y002918D01*
X010447Y002923D01*
X010394Y002932D01*
X010342Y002945D01*
X010290Y002961D01*
X010240Y002981D01*
X010192Y003004D01*
X010145Y003031D01*
X010100Y003060D01*
X010057Y003093D01*
X010017Y003128D01*
X009979Y003166D01*
X009944Y003206D01*
X009911Y003249D01*
X009882Y003294D01*
X009855Y003341D01*
X009832Y003389D01*
X009812Y003439D01*
X009796Y003491D01*
X009783Y003543D01*
X009774Y003596D01*
X009769Y003649D01*
X009767Y003703D01*
X009767Y004884D01*
X009766Y004884D02*
X009764Y004938D01*
X009759Y004991D01*
X009750Y005044D01*
X009737Y005096D01*
X009721Y005148D01*
X009701Y005198D01*
X009678Y005246D01*
X009651Y005293D01*
X009622Y005338D01*
X009589Y005381D01*
X009554Y005421D01*
X009516Y005459D01*
X009476Y005494D01*
X009433Y005527D01*
X009388Y005556D01*
X009341Y005583D01*
X009293Y005606D01*
X009243Y005626D01*
X009191Y005642D01*
X009139Y005655D01*
X009086Y005664D01*
X009033Y005669D01*
X008979Y005671D01*
X008979Y005672D02*
X007798Y005672D01*
X007744Y005674D01*
X007691Y005679D01*
X007638Y005688D01*
X007586Y005701D01*
X007534Y005717D01*
X007484Y005737D01*
X007436Y005760D01*
X007389Y005787D01*
X007344Y005816D01*
X007301Y005849D01*
X007261Y005884D01*
X007223Y005922D01*
X007188Y005962D01*
X007155Y006005D01*
X007126Y006050D01*
X007099Y006097D01*
X007076Y006145D01*
X007056Y006195D01*
X007040Y006247D01*
X007027Y006299D01*
X007018Y006352D01*
X007013Y006405D01*
X007011Y006459D01*
X016066Y024963D02*
X024334Y024963D01*
X024373Y024965D01*
X024411Y024971D01*
X024448Y024980D01*
X024485Y024993D01*
X024520Y025010D01*
X024553Y025029D01*
X024584Y025052D01*
X024613Y025078D01*
X024639Y025107D01*
X024662Y025138D01*
X024681Y025171D01*
X024698Y025206D01*
X024711Y025243D01*
X024720Y025280D01*
X024726Y025318D01*
X024728Y025357D01*
X024726Y025396D01*
X024720Y025434D01*
X024711Y025471D01*
X024698Y025508D01*
X024681Y025543D01*
X024662Y025576D01*
X024639Y025607D01*
X024613Y025636D01*
X024584Y025662D01*
X024553Y025685D01*
X024520Y025704D01*
X024485Y025721D01*
X024448Y025734D01*
X024411Y025743D01*
X024373Y025749D01*
X024334Y025751D01*
X016066Y025751D01*
X015672Y025357D02*
X015674Y025318D01*
X015680Y025280D01*
X015689Y025243D01*
X015702Y025206D01*
X015719Y025171D01*
X015738Y025138D01*
X015761Y025107D01*
X015787Y025078D01*
X015816Y025052D01*
X015847Y025029D01*
X015880Y025010D01*
X015915Y024993D01*
X015952Y024980D01*
X015989Y024971D01*
X016027Y024965D01*
X016066Y024963D01*
X015672Y025357D02*
X015674Y025396D01*
X015680Y025434D01*
X015689Y025471D01*
X015702Y025508D01*
X015719Y025543D01*
X015738Y025576D01*
X015761Y025607D01*
X015787Y025636D01*
X015816Y025662D01*
X015847Y025685D01*
X015880Y025704D01*
X015915Y025721D01*
X015952Y025734D01*
X015989Y025743D01*
X016027Y025749D01*
X016066Y025751D01*
X029058Y025751D02*
X038113Y025751D01*
X038507Y025357D02*
X038505Y025318D01*
X038499Y025280D01*
X038490Y025243D01*
X038477Y025206D01*
X038460Y025171D01*
X038441Y025138D01*
X038418Y025107D01*
X038392Y025078D01*
X038363Y025052D01*
X038332Y025029D01*
X038299Y025010D01*
X038264Y024993D01*
X038227Y024980D01*
X038190Y024971D01*
X038152Y024965D01*
X038113Y024963D01*
X029058Y024963D01*
X028664Y025357D02*
X028666Y025396D01*
X028672Y025434D01*
X028681Y025471D01*
X028694Y025508D01*
X028711Y025543D01*
X028730Y025576D01*
X028753Y025607D01*
X028779Y025636D01*
X028808Y025662D01*
X028839Y025685D01*
X028872Y025704D01*
X028907Y025721D01*
X028944Y025734D01*
X028981Y025743D01*
X029019Y025749D01*
X029058Y025751D01*
X028664Y025357D02*
X028666Y025318D01*
X028672Y025280D01*
X028681Y025243D01*
X028694Y025206D01*
X028711Y025171D01*
X028730Y025138D01*
X028753Y025107D01*
X028779Y025078D01*
X028808Y025052D01*
X028839Y025029D01*
X028872Y025010D01*
X028907Y024993D01*
X028944Y024980D01*
X028981Y024971D01*
X029019Y024965D01*
X029058Y024963D01*
X038113Y025751D02*
X038152Y025749D01*
X038190Y025743D01*
X038227Y025734D01*
X038264Y025721D01*
X038299Y025704D01*
X038332Y025685D01*
X038363Y025662D01*
X038392Y025636D01*
X038418Y025607D01*
X038441Y025576D01*
X038460Y025543D01*
X038477Y025508D01*
X038490Y025471D01*
X038499Y025434D01*
X038505Y025396D01*
X038507Y025357D01*
D11*
X038803Y024963D02*
X038805Y024982D01*
X038810Y025001D01*
X038820Y025017D01*
X038832Y025032D01*
X038847Y025044D01*
X038863Y025054D01*
X038882Y025059D01*
X038901Y025061D01*
X038920Y025059D01*
X038939Y025054D01*
X038955Y025044D01*
X038970Y025032D01*
X038982Y025017D01*
X038992Y025001D01*
X038997Y024982D01*
X038999Y024963D01*
X038997Y024944D01*
X038992Y024925D01*
X038982Y024909D01*
X038970Y024894D01*
X038955Y024882D01*
X038939Y024872D01*
X038920Y024867D01*
X038901Y024865D01*
X038882Y024867D01*
X038863Y024872D01*
X038847Y024882D01*
X038832Y024894D01*
X038820Y024909D01*
X038810Y024925D01*
X038805Y024944D01*
X038803Y024963D01*
X039196Y024963D02*
X039198Y024982D01*
X039203Y025001D01*
X039213Y025017D01*
X039225Y025032D01*
X039240Y025044D01*
X039256Y025054D01*
X039275Y025059D01*
X039294Y025061D01*
X039313Y025059D01*
X039332Y025054D01*
X039348Y025044D01*
X039363Y025032D01*
X039375Y025017D01*
X039385Y025001D01*
X039390Y024982D01*
X039392Y024963D01*
X039390Y024944D01*
X039385Y024925D01*
X039375Y024909D01*
X039363Y024894D01*
X039348Y024882D01*
X039332Y024872D01*
X039313Y024867D01*
X039294Y024865D01*
X039275Y024867D01*
X039256Y024872D01*
X039240Y024882D01*
X039225Y024894D01*
X039213Y024909D01*
X039203Y024925D01*
X039198Y024944D01*
X039196Y024963D01*
X039590Y024963D02*
X039592Y024982D01*
X039597Y025001D01*
X039607Y025017D01*
X039619Y025032D01*
X039634Y025044D01*
X039650Y025054D01*
X039669Y025059D01*
X039688Y025061D01*
X039707Y025059D01*
X039726Y025054D01*
X039742Y025044D01*
X039757Y025032D01*
X039769Y025017D01*
X039779Y025001D01*
X039784Y024982D01*
X039786Y024963D01*
X039784Y024944D01*
X039779Y024925D01*
X039769Y024909D01*
X039757Y024894D01*
X039742Y024882D01*
X039726Y024872D01*
X039707Y024867D01*
X039688Y024865D01*
X039669Y024867D01*
X039650Y024872D01*
X039634Y024882D01*
X039619Y024894D01*
X039607Y024909D01*
X039597Y024925D01*
X039592Y024944D01*
X039590Y024963D01*
X039984Y024963D02*
X039986Y024982D01*
X039991Y025001D01*
X040001Y025017D01*
X040013Y025032D01*
X040028Y025044D01*
X040044Y025054D01*
X040063Y025059D01*
X040082Y025061D01*
X040101Y025059D01*
X040120Y025054D01*
X040136Y025044D01*
X040151Y025032D01*
X040163Y025017D01*
X040173Y025001D01*
X040178Y024982D01*
X040180Y024963D01*
X040178Y024944D01*
X040173Y024925D01*
X040163Y024909D01*
X040151Y024894D01*
X040136Y024882D01*
X040120Y024872D01*
X040101Y024867D01*
X040082Y024865D01*
X040063Y024867D01*
X040044Y024872D01*
X040028Y024882D01*
X040013Y024894D01*
X040001Y024909D01*
X039991Y024925D01*
X039986Y024944D01*
X039984Y024963D01*
X040377Y024963D02*
X040379Y024982D01*
X040384Y025001D01*
X040394Y025017D01*
X040406Y025032D01*
X040421Y025044D01*
X040437Y025054D01*
X040456Y025059D01*
X040475Y025061D01*
X040494Y025059D01*
X040513Y025054D01*
X040529Y025044D01*
X040544Y025032D01*
X040556Y025017D01*
X040566Y025001D01*
X040571Y024982D01*
X040573Y024963D01*
X040571Y024944D01*
X040566Y024925D01*
X040556Y024909D01*
X040544Y024894D01*
X040529Y024882D01*
X040513Y024872D01*
X040494Y024867D01*
X040475Y024865D01*
X040456Y024867D01*
X040437Y024872D01*
X040421Y024882D01*
X040406Y024894D01*
X040394Y024909D01*
X040384Y024925D01*
X040379Y024944D01*
X040377Y024963D01*
X040771Y024963D02*
X040773Y024982D01*
X040778Y025001D01*
X040788Y025017D01*
X040800Y025032D01*
X040815Y025044D01*
X040831Y025054D01*
X040850Y025059D01*
X040869Y025061D01*
X040888Y025059D01*
X040907Y025054D01*
X040923Y025044D01*
X040938Y025032D01*
X040950Y025017D01*
X040960Y025001D01*
X040965Y024982D01*
X040967Y024963D01*
X040965Y024944D01*
X040960Y024925D01*
X040950Y024909D01*
X040938Y024894D01*
X040923Y024882D01*
X040907Y024872D01*
X040888Y024867D01*
X040869Y024865D01*
X040850Y024867D01*
X040831Y024872D01*
X040815Y024882D01*
X040800Y024894D01*
X040788Y024909D01*
X040778Y024925D01*
X040773Y024944D01*
X040771Y024963D01*
X041165Y024963D02*
X041167Y024982D01*
X041172Y025001D01*
X041182Y025017D01*
X041194Y025032D01*
X041209Y025044D01*
X041225Y025054D01*
X041244Y025059D01*
X041263Y025061D01*
X041282Y025059D01*
X041301Y025054D01*
X041317Y025044D01*
X041332Y025032D01*
X041344Y025017D01*
X041354Y025001D01*
X041359Y024982D01*
X041361Y024963D01*
X041359Y024944D01*
X041354Y024925D01*
X041344Y024909D01*
X041332Y024894D01*
X041317Y024882D01*
X041301Y024872D01*
X041282Y024867D01*
X041263Y024865D01*
X041244Y024867D01*
X041225Y024872D01*
X041209Y024882D01*
X041194Y024894D01*
X041182Y024909D01*
X041172Y024925D01*
X041167Y024944D01*
X041165Y024963D01*
X041558Y024963D02*
X041560Y024982D01*
X041565Y025001D01*
X041575Y025017D01*
X041587Y025032D01*
X041602Y025044D01*
X041618Y025054D01*
X041637Y025059D01*
X041656Y025061D01*
X041675Y025059D01*
X041694Y025054D01*
X041710Y025044D01*
X041725Y025032D01*
X041737Y025017D01*
X041747Y025001D01*
X041752Y024982D01*
X041754Y024963D01*
X041752Y024944D01*
X041747Y024925D01*
X041737Y024909D01*
X041725Y024894D01*
X041710Y024882D01*
X041694Y024872D01*
X041675Y024867D01*
X041656Y024865D01*
X041637Y024867D01*
X041618Y024872D01*
X041602Y024882D01*
X041587Y024894D01*
X041575Y024909D01*
X041565Y024925D01*
X041560Y024944D01*
X041558Y024963D01*
X044170Y023166D02*
X044172Y023214D01*
X044178Y023262D01*
X044188Y023309D01*
X044201Y023355D01*
X044219Y023400D01*
X044239Y023444D01*
X044264Y023486D01*
X044292Y023525D01*
X044322Y023562D01*
X044356Y023596D01*
X044393Y023628D01*
X044431Y023657D01*
X044472Y023682D01*
X044515Y023704D01*
X044560Y023722D01*
X044606Y023736D01*
X044653Y023747D01*
X044701Y023754D01*
X044749Y023757D01*
X044797Y023756D01*
X044845Y023751D01*
X044893Y023742D01*
X044939Y023730D01*
X044984Y023713D01*
X045028Y023693D01*
X045070Y023670D01*
X045110Y023643D01*
X045148Y023613D01*
X045183Y023580D01*
X045215Y023544D01*
X045245Y023506D01*
X045271Y023465D01*
X045293Y023422D01*
X045313Y023378D01*
X045328Y023333D01*
X045340Y023286D01*
X045348Y023238D01*
X045352Y023190D01*
X045352Y023142D01*
X045348Y023094D01*
X045340Y023046D01*
X045328Y022999D01*
X045313Y022954D01*
X045293Y022910D01*
X045271Y022867D01*
X045245Y022826D01*
X045215Y022788D01*
X045183Y022752D01*
X045148Y022719D01*
X045110Y022689D01*
X045070Y022662D01*
X045028Y022639D01*
X044984Y022619D01*
X044939Y022602D01*
X044893Y022590D01*
X044845Y022581D01*
X044797Y022576D01*
X044749Y022575D01*
X044701Y022578D01*
X044653Y022585D01*
X044606Y022596D01*
X044560Y022610D01*
X044515Y022628D01*
X044472Y022650D01*
X044431Y022675D01*
X044393Y022704D01*
X044356Y022736D01*
X044322Y022770D01*
X044292Y022807D01*
X044264Y022846D01*
X044239Y022888D01*
X044219Y022932D01*
X044201Y022977D01*
X044188Y023023D01*
X044178Y023070D01*
X044172Y023118D01*
X044170Y023166D01*
X043210Y032416D02*
X043212Y032463D01*
X043218Y032509D01*
X043228Y032555D01*
X043241Y032600D01*
X043259Y032643D01*
X043280Y032685D01*
X043304Y032725D01*
X043332Y032762D01*
X043363Y032797D01*
X043397Y032830D01*
X043433Y032859D01*
X043472Y032885D01*
X043513Y032908D01*
X043556Y032927D01*
X043600Y032943D01*
X043645Y032955D01*
X043691Y032963D01*
X043738Y032967D01*
X043784Y032967D01*
X043831Y032963D01*
X043877Y032955D01*
X043922Y032943D01*
X043966Y032927D01*
X044009Y032908D01*
X044050Y032885D01*
X044089Y032859D01*
X044125Y032830D01*
X044159Y032797D01*
X044190Y032762D01*
X044218Y032725D01*
X044242Y032685D01*
X044263Y032643D01*
X044281Y032600D01*
X044294Y032555D01*
X044304Y032509D01*
X044310Y032463D01*
X044312Y032416D01*
X044310Y032369D01*
X044304Y032323D01*
X044294Y032277D01*
X044281Y032232D01*
X044263Y032189D01*
X044242Y032147D01*
X044218Y032107D01*
X044190Y032070D01*
X044159Y032035D01*
X044125Y032002D01*
X044089Y031973D01*
X044050Y031947D01*
X044009Y031924D01*
X043966Y031905D01*
X043922Y031889D01*
X043877Y031877D01*
X043831Y031869D01*
X043784Y031865D01*
X043738Y031865D01*
X043691Y031869D01*
X043645Y031877D01*
X043600Y031889D01*
X043556Y031905D01*
X043513Y031924D01*
X043472Y031947D01*
X043433Y031973D01*
X043397Y032002D01*
X043363Y032035D01*
X043332Y032070D01*
X043304Y032107D01*
X043280Y032147D01*
X043259Y032189D01*
X043241Y032232D01*
X043228Y032277D01*
X043218Y032323D01*
X043212Y032369D01*
X043210Y032416D01*
X028173Y024963D02*
X028175Y024982D01*
X028180Y025001D01*
X028190Y025017D01*
X028202Y025032D01*
X028217Y025044D01*
X028233Y025054D01*
X028252Y025059D01*
X028271Y025061D01*
X028290Y025059D01*
X028309Y025054D01*
X028325Y025044D01*
X028340Y025032D01*
X028352Y025017D01*
X028362Y025001D01*
X028367Y024982D01*
X028369Y024963D01*
X028367Y024944D01*
X028362Y024925D01*
X028352Y024909D01*
X028340Y024894D01*
X028325Y024882D01*
X028309Y024872D01*
X028290Y024867D01*
X028271Y024865D01*
X028252Y024867D01*
X028233Y024872D01*
X028217Y024882D01*
X028202Y024894D01*
X028190Y024909D01*
X028180Y024925D01*
X028175Y024944D01*
X028173Y024963D01*
X027779Y024963D02*
X027781Y024982D01*
X027786Y025001D01*
X027796Y025017D01*
X027808Y025032D01*
X027823Y025044D01*
X027839Y025054D01*
X027858Y025059D01*
X027877Y025061D01*
X027896Y025059D01*
X027915Y025054D01*
X027931Y025044D01*
X027946Y025032D01*
X027958Y025017D01*
X027968Y025001D01*
X027973Y024982D01*
X027975Y024963D01*
X027973Y024944D01*
X027968Y024925D01*
X027958Y024909D01*
X027946Y024894D01*
X027931Y024882D01*
X027915Y024872D01*
X027896Y024867D01*
X027877Y024865D01*
X027858Y024867D01*
X027839Y024872D01*
X027823Y024882D01*
X027808Y024894D01*
X027796Y024909D01*
X027786Y024925D01*
X027781Y024944D01*
X027779Y024963D01*
X027385Y024963D02*
X027387Y024982D01*
X027392Y025001D01*
X027402Y025017D01*
X027414Y025032D01*
X027429Y025044D01*
X027445Y025054D01*
X027464Y025059D01*
X027483Y025061D01*
X027502Y025059D01*
X027521Y025054D01*
X027537Y025044D01*
X027552Y025032D01*
X027564Y025017D01*
X027574Y025001D01*
X027579Y024982D01*
X027581Y024963D01*
X027579Y024944D01*
X027574Y024925D01*
X027564Y024909D01*
X027552Y024894D01*
X027537Y024882D01*
X027521Y024872D01*
X027502Y024867D01*
X027483Y024865D01*
X027464Y024867D01*
X027445Y024872D01*
X027429Y024882D01*
X027414Y024894D01*
X027402Y024909D01*
X027392Y024925D01*
X027387Y024944D01*
X027385Y024963D01*
X026992Y024963D02*
X026994Y024982D01*
X026999Y025001D01*
X027009Y025017D01*
X027021Y025032D01*
X027036Y025044D01*
X027052Y025054D01*
X027071Y025059D01*
X027090Y025061D01*
X027109Y025059D01*
X027128Y025054D01*
X027144Y025044D01*
X027159Y025032D01*
X027171Y025017D01*
X027181Y025001D01*
X027186Y024982D01*
X027188Y024963D01*
X027186Y024944D01*
X027181Y024925D01*
X027171Y024909D01*
X027159Y024894D01*
X027144Y024882D01*
X027128Y024872D01*
X027109Y024867D01*
X027090Y024865D01*
X027071Y024867D01*
X027052Y024872D01*
X027036Y024882D01*
X027021Y024894D01*
X027009Y024909D01*
X026999Y024925D01*
X026994Y024944D01*
X026992Y024963D01*
X026598Y024963D02*
X026600Y024982D01*
X026605Y025001D01*
X026615Y025017D01*
X026627Y025032D01*
X026642Y025044D01*
X026658Y025054D01*
X026677Y025059D01*
X026696Y025061D01*
X026715Y025059D01*
X026734Y025054D01*
X026750Y025044D01*
X026765Y025032D01*
X026777Y025017D01*
X026787Y025001D01*
X026792Y024982D01*
X026794Y024963D01*
X026792Y024944D01*
X026787Y024925D01*
X026777Y024909D01*
X026765Y024894D01*
X026750Y024882D01*
X026734Y024872D01*
X026715Y024867D01*
X026696Y024865D01*
X026677Y024867D01*
X026658Y024872D01*
X026642Y024882D01*
X026627Y024894D01*
X026615Y024909D01*
X026605Y024925D01*
X026600Y024944D01*
X026598Y024963D01*
X026204Y024963D02*
X026206Y024982D01*
X026211Y025001D01*
X026221Y025017D01*
X026233Y025032D01*
X026248Y025044D01*
X026264Y025054D01*
X026283Y025059D01*
X026302Y025061D01*
X026321Y025059D01*
X026340Y025054D01*
X026356Y025044D01*
X026371Y025032D01*
X026383Y025017D01*
X026393Y025001D01*
X026398Y024982D01*
X026400Y024963D01*
X026398Y024944D01*
X026393Y024925D01*
X026383Y024909D01*
X026371Y024894D01*
X026356Y024882D01*
X026340Y024872D01*
X026321Y024867D01*
X026302Y024865D01*
X026283Y024867D01*
X026264Y024872D01*
X026248Y024882D01*
X026233Y024894D01*
X026221Y024909D01*
X026211Y024925D01*
X026206Y024944D01*
X026204Y024963D01*
X025810Y024963D02*
X025812Y024982D01*
X025817Y025001D01*
X025827Y025017D01*
X025839Y025032D01*
X025854Y025044D01*
X025870Y025054D01*
X025889Y025059D01*
X025908Y025061D01*
X025927Y025059D01*
X025946Y025054D01*
X025962Y025044D01*
X025977Y025032D01*
X025989Y025017D01*
X025999Y025001D01*
X026004Y024982D01*
X026006Y024963D01*
X026004Y024944D01*
X025999Y024925D01*
X025989Y024909D01*
X025977Y024894D01*
X025962Y024882D01*
X025946Y024872D01*
X025927Y024867D01*
X025908Y024865D01*
X025889Y024867D01*
X025870Y024872D01*
X025854Y024882D01*
X025839Y024894D01*
X025827Y024909D01*
X025817Y024925D01*
X025812Y024944D01*
X025810Y024963D01*
X025417Y024963D02*
X025419Y024982D01*
X025424Y025001D01*
X025434Y025017D01*
X025446Y025032D01*
X025461Y025044D01*
X025477Y025054D01*
X025496Y025059D01*
X025515Y025061D01*
X025534Y025059D01*
X025553Y025054D01*
X025569Y025044D01*
X025584Y025032D01*
X025596Y025017D01*
X025606Y025001D01*
X025611Y024982D01*
X025613Y024963D01*
X025611Y024944D01*
X025606Y024925D01*
X025596Y024909D01*
X025584Y024894D01*
X025569Y024882D01*
X025553Y024872D01*
X025534Y024867D01*
X025515Y024865D01*
X025496Y024867D01*
X025477Y024872D01*
X025461Y024882D01*
X025446Y024894D01*
X025434Y024909D01*
X025424Y024925D01*
X025419Y024944D01*
X025417Y024963D01*
X025023Y024963D02*
X025025Y024982D01*
X025030Y025001D01*
X025040Y025017D01*
X025052Y025032D01*
X025067Y025044D01*
X025083Y025054D01*
X025102Y025059D01*
X025121Y025061D01*
X025140Y025059D01*
X025159Y025054D01*
X025175Y025044D01*
X025190Y025032D01*
X025202Y025017D01*
X025212Y025001D01*
X025217Y024982D01*
X025219Y024963D01*
X025217Y024944D01*
X025212Y024925D01*
X025202Y024909D01*
X025190Y024894D01*
X025175Y024882D01*
X025159Y024872D01*
X025140Y024867D01*
X025121Y024865D01*
X025102Y024867D01*
X025083Y024872D01*
X025067Y024882D01*
X025052Y024894D01*
X025040Y024909D01*
X025030Y024925D01*
X025025Y024944D01*
X025023Y024963D01*
X015181Y024963D02*
X015183Y024982D01*
X015188Y025001D01*
X015198Y025017D01*
X015210Y025032D01*
X015225Y025044D01*
X015241Y025054D01*
X015260Y025059D01*
X015279Y025061D01*
X015298Y025059D01*
X015317Y025054D01*
X015333Y025044D01*
X015348Y025032D01*
X015360Y025017D01*
X015370Y025001D01*
X015375Y024982D01*
X015377Y024963D01*
X015375Y024944D01*
X015370Y024925D01*
X015360Y024909D01*
X015348Y024894D01*
X015333Y024882D01*
X015317Y024872D01*
X015298Y024867D01*
X015279Y024865D01*
X015260Y024867D01*
X015241Y024872D01*
X015225Y024882D01*
X015210Y024894D01*
X015198Y024909D01*
X015188Y024925D01*
X015183Y024944D01*
X015181Y024963D01*
X014787Y024963D02*
X014789Y024982D01*
X014794Y025001D01*
X014804Y025017D01*
X014816Y025032D01*
X014831Y025044D01*
X014847Y025054D01*
X014866Y025059D01*
X014885Y025061D01*
X014904Y025059D01*
X014923Y025054D01*
X014939Y025044D01*
X014954Y025032D01*
X014966Y025017D01*
X014976Y025001D01*
X014981Y024982D01*
X014983Y024963D01*
X014981Y024944D01*
X014976Y024925D01*
X014966Y024909D01*
X014954Y024894D01*
X014939Y024882D01*
X014923Y024872D01*
X014904Y024867D01*
X014885Y024865D01*
X014866Y024867D01*
X014847Y024872D01*
X014831Y024882D01*
X014816Y024894D01*
X014804Y024909D01*
X014794Y024925D01*
X014789Y024944D01*
X014787Y024963D01*
X014393Y024963D02*
X014395Y024982D01*
X014400Y025001D01*
X014410Y025017D01*
X014422Y025032D01*
X014437Y025044D01*
X014453Y025054D01*
X014472Y025059D01*
X014491Y025061D01*
X014510Y025059D01*
X014529Y025054D01*
X014545Y025044D01*
X014560Y025032D01*
X014572Y025017D01*
X014582Y025001D01*
X014587Y024982D01*
X014589Y024963D01*
X014587Y024944D01*
X014582Y024925D01*
X014572Y024909D01*
X014560Y024894D01*
X014545Y024882D01*
X014529Y024872D01*
X014510Y024867D01*
X014491Y024865D01*
X014472Y024867D01*
X014453Y024872D01*
X014437Y024882D01*
X014422Y024894D01*
X014410Y024909D01*
X014400Y024925D01*
X014395Y024944D01*
X014393Y024963D01*
X013999Y024963D02*
X014001Y024982D01*
X014006Y025001D01*
X014016Y025017D01*
X014028Y025032D01*
X014043Y025044D01*
X014059Y025054D01*
X014078Y025059D01*
X014097Y025061D01*
X014116Y025059D01*
X014135Y025054D01*
X014151Y025044D01*
X014166Y025032D01*
X014178Y025017D01*
X014188Y025001D01*
X014193Y024982D01*
X014195Y024963D01*
X014193Y024944D01*
X014188Y024925D01*
X014178Y024909D01*
X014166Y024894D01*
X014151Y024882D01*
X014135Y024872D01*
X014116Y024867D01*
X014097Y024865D01*
X014078Y024867D01*
X014059Y024872D01*
X014043Y024882D01*
X014028Y024894D01*
X014016Y024909D01*
X014006Y024925D01*
X014001Y024944D01*
X013999Y024963D01*
X013606Y024963D02*
X013608Y024982D01*
X013613Y025001D01*
X013623Y025017D01*
X013635Y025032D01*
X013650Y025044D01*
X013666Y025054D01*
X013685Y025059D01*
X013704Y025061D01*
X013723Y025059D01*
X013742Y025054D01*
X013758Y025044D01*
X013773Y025032D01*
X013785Y025017D01*
X013795Y025001D01*
X013800Y024982D01*
X013802Y024963D01*
X013800Y024944D01*
X013795Y024925D01*
X013785Y024909D01*
X013773Y024894D01*
X013758Y024882D01*
X013742Y024872D01*
X013723Y024867D01*
X013704Y024865D01*
X013685Y024867D01*
X013666Y024872D01*
X013650Y024882D01*
X013635Y024894D01*
X013623Y024909D01*
X013613Y024925D01*
X013608Y024944D01*
X013606Y024963D01*
X013212Y024963D02*
X013214Y024982D01*
X013219Y025001D01*
X013229Y025017D01*
X013241Y025032D01*
X013256Y025044D01*
X013272Y025054D01*
X013291Y025059D01*
X013310Y025061D01*
X013329Y025059D01*
X013348Y025054D01*
X013364Y025044D01*
X013379Y025032D01*
X013391Y025017D01*
X013401Y025001D01*
X013406Y024982D01*
X013408Y024963D01*
X013406Y024944D01*
X013401Y024925D01*
X013391Y024909D01*
X013379Y024894D01*
X013364Y024882D01*
X013348Y024872D01*
X013329Y024867D01*
X013310Y024865D01*
X013291Y024867D01*
X013272Y024872D01*
X013256Y024882D01*
X013241Y024894D01*
X013229Y024909D01*
X013219Y024925D01*
X013214Y024944D01*
X013212Y024963D01*
X012818Y024963D02*
X012820Y024982D01*
X012825Y025001D01*
X012835Y025017D01*
X012847Y025032D01*
X012862Y025044D01*
X012878Y025054D01*
X012897Y025059D01*
X012916Y025061D01*
X012935Y025059D01*
X012954Y025054D01*
X012970Y025044D01*
X012985Y025032D01*
X012997Y025017D01*
X013007Y025001D01*
X013012Y024982D01*
X013014Y024963D01*
X013012Y024944D01*
X013007Y024925D01*
X012997Y024909D01*
X012985Y024894D01*
X012970Y024882D01*
X012954Y024872D01*
X012935Y024867D01*
X012916Y024865D01*
X012897Y024867D01*
X012878Y024872D01*
X012862Y024882D01*
X012847Y024894D01*
X012835Y024909D01*
X012825Y024925D01*
X012820Y024944D01*
X012818Y024963D01*
X012425Y024963D02*
X012427Y024982D01*
X012432Y025001D01*
X012442Y025017D01*
X012454Y025032D01*
X012469Y025044D01*
X012485Y025054D01*
X012504Y025059D01*
X012523Y025061D01*
X012542Y025059D01*
X012561Y025054D01*
X012577Y025044D01*
X012592Y025032D01*
X012604Y025017D01*
X012614Y025001D01*
X012619Y024982D01*
X012621Y024963D01*
X012619Y024944D01*
X012614Y024925D01*
X012604Y024909D01*
X012592Y024894D01*
X012577Y024882D01*
X012561Y024872D01*
X012542Y024867D01*
X012523Y024865D01*
X012504Y024867D01*
X012485Y024872D01*
X012469Y024882D01*
X012454Y024894D01*
X012442Y024909D01*
X012432Y024925D01*
X012427Y024944D01*
X012425Y024963D01*
X012031Y024963D02*
X012033Y024982D01*
X012038Y025001D01*
X012048Y025017D01*
X012060Y025032D01*
X012075Y025044D01*
X012091Y025054D01*
X012110Y025059D01*
X012129Y025061D01*
X012148Y025059D01*
X012167Y025054D01*
X012183Y025044D01*
X012198Y025032D01*
X012210Y025017D01*
X012220Y025001D01*
X012225Y024982D01*
X012227Y024963D01*
X012225Y024944D01*
X012220Y024925D01*
X012210Y024909D01*
X012198Y024894D01*
X012183Y024882D01*
X012167Y024872D01*
X012148Y024867D01*
X012129Y024865D01*
X012110Y024867D01*
X012091Y024872D01*
X012075Y024882D01*
X012060Y024894D01*
X012048Y024909D01*
X012038Y024925D01*
X012033Y024944D01*
X012031Y024963D01*
X011637Y024963D02*
X011639Y024982D01*
X011644Y025001D01*
X011654Y025017D01*
X011666Y025032D01*
X011681Y025044D01*
X011697Y025054D01*
X011716Y025059D01*
X011735Y025061D01*
X011754Y025059D01*
X011773Y025054D01*
X011789Y025044D01*
X011804Y025032D01*
X011816Y025017D01*
X011826Y025001D01*
X011831Y024982D01*
X011833Y024963D01*
X011831Y024944D01*
X011826Y024925D01*
X011816Y024909D01*
X011804Y024894D01*
X011789Y024882D01*
X011773Y024872D01*
X011754Y024867D01*
X011735Y024865D01*
X011716Y024867D01*
X011697Y024872D01*
X011681Y024882D01*
X011666Y024894D01*
X011654Y024909D01*
X011644Y024925D01*
X011639Y024944D01*
X011637Y024963D01*
X010420Y023416D02*
X010422Y023464D01*
X010428Y023512D01*
X010438Y023559D01*
X010451Y023605D01*
X010469Y023650D01*
X010489Y023694D01*
X010514Y023736D01*
X010542Y023775D01*
X010572Y023812D01*
X010606Y023846D01*
X010643Y023878D01*
X010681Y023907D01*
X010722Y023932D01*
X010765Y023954D01*
X010810Y023972D01*
X010856Y023986D01*
X010903Y023997D01*
X010951Y024004D01*
X010999Y024007D01*
X011047Y024006D01*
X011095Y024001D01*
X011143Y023992D01*
X011189Y023980D01*
X011234Y023963D01*
X011278Y023943D01*
X011320Y023920D01*
X011360Y023893D01*
X011398Y023863D01*
X011433Y023830D01*
X011465Y023794D01*
X011495Y023756D01*
X011521Y023715D01*
X011543Y023672D01*
X011563Y023628D01*
X011578Y023583D01*
X011590Y023536D01*
X011598Y023488D01*
X011602Y023440D01*
X011602Y023392D01*
X011598Y023344D01*
X011590Y023296D01*
X011578Y023249D01*
X011563Y023204D01*
X011543Y023160D01*
X011521Y023117D01*
X011495Y023076D01*
X011465Y023038D01*
X011433Y023002D01*
X011398Y022969D01*
X011360Y022939D01*
X011320Y022912D01*
X011278Y022889D01*
X011234Y022869D01*
X011189Y022852D01*
X011143Y022840D01*
X011095Y022831D01*
X011047Y022826D01*
X010999Y022825D01*
X010951Y022828D01*
X010903Y022835D01*
X010856Y022846D01*
X010810Y022860D01*
X010765Y022878D01*
X010722Y022900D01*
X010681Y022925D01*
X010643Y022954D01*
X010606Y022986D01*
X010572Y023020D01*
X010542Y023057D01*
X010514Y023096D01*
X010489Y023138D01*
X010469Y023182D01*
X010451Y023227D01*
X010438Y023273D01*
X010428Y023320D01*
X010422Y023368D01*
X010420Y023416D01*
X007341Y020863D02*
X007343Y020913D01*
X007349Y020963D01*
X007359Y021012D01*
X007373Y021060D01*
X007390Y021107D01*
X007411Y021152D01*
X007436Y021196D01*
X007464Y021237D01*
X007496Y021276D01*
X007530Y021313D01*
X007567Y021347D01*
X007607Y021377D01*
X007649Y021404D01*
X007693Y021428D01*
X007739Y021449D01*
X007786Y021465D01*
X007834Y021478D01*
X007884Y021487D01*
X007933Y021492D01*
X007984Y021493D01*
X008034Y021490D01*
X008083Y021483D01*
X008132Y021472D01*
X008180Y021457D01*
X008226Y021439D01*
X008271Y021417D01*
X008314Y021391D01*
X008355Y021362D01*
X008394Y021330D01*
X008430Y021295D01*
X008462Y021257D01*
X008492Y021217D01*
X008519Y021174D01*
X008542Y021130D01*
X008561Y021084D01*
X008577Y021036D01*
X008589Y020987D01*
X008597Y020938D01*
X008601Y020888D01*
X008601Y020838D01*
X008597Y020788D01*
X008589Y020739D01*
X008577Y020690D01*
X008561Y020642D01*
X008542Y020596D01*
X008519Y020552D01*
X008492Y020509D01*
X008462Y020469D01*
X008430Y020431D01*
X008394Y020396D01*
X008355Y020364D01*
X008314Y020335D01*
X008271Y020309D01*
X008226Y020287D01*
X008180Y020269D01*
X008132Y020254D01*
X008083Y020243D01*
X008034Y020236D01*
X007984Y020233D01*
X007933Y020234D01*
X007884Y020239D01*
X007834Y020248D01*
X007786Y020261D01*
X007739Y020277D01*
X007693Y020298D01*
X007649Y020322D01*
X007607Y020349D01*
X007567Y020379D01*
X007530Y020413D01*
X007496Y020450D01*
X007464Y020489D01*
X007436Y020530D01*
X007411Y020574D01*
X007390Y020619D01*
X007373Y020666D01*
X007359Y020714D01*
X007349Y020763D01*
X007343Y020813D01*
X007341Y020863D01*
X007341Y015863D02*
X007343Y015913D01*
X007349Y015963D01*
X007359Y016012D01*
X007373Y016060D01*
X007390Y016107D01*
X007411Y016152D01*
X007436Y016196D01*
X007464Y016237D01*
X007496Y016276D01*
X007530Y016313D01*
X007567Y016347D01*
X007607Y016377D01*
X007649Y016404D01*
X007693Y016428D01*
X007739Y016449D01*
X007786Y016465D01*
X007834Y016478D01*
X007884Y016487D01*
X007933Y016492D01*
X007984Y016493D01*
X008034Y016490D01*
X008083Y016483D01*
X008132Y016472D01*
X008180Y016457D01*
X008226Y016439D01*
X008271Y016417D01*
X008314Y016391D01*
X008355Y016362D01*
X008394Y016330D01*
X008430Y016295D01*
X008462Y016257D01*
X008492Y016217D01*
X008519Y016174D01*
X008542Y016130D01*
X008561Y016084D01*
X008577Y016036D01*
X008589Y015987D01*
X008597Y015938D01*
X008601Y015888D01*
X008601Y015838D01*
X008597Y015788D01*
X008589Y015739D01*
X008577Y015690D01*
X008561Y015642D01*
X008542Y015596D01*
X008519Y015552D01*
X008492Y015509D01*
X008462Y015469D01*
X008430Y015431D01*
X008394Y015396D01*
X008355Y015364D01*
X008314Y015335D01*
X008271Y015309D01*
X008226Y015287D01*
X008180Y015269D01*
X008132Y015254D01*
X008083Y015243D01*
X008034Y015236D01*
X007984Y015233D01*
X007933Y015234D01*
X007884Y015239D01*
X007834Y015248D01*
X007786Y015261D01*
X007739Y015277D01*
X007693Y015298D01*
X007649Y015322D01*
X007607Y015349D01*
X007567Y015379D01*
X007530Y015413D01*
X007496Y015450D01*
X007464Y015489D01*
X007436Y015530D01*
X007411Y015574D01*
X007390Y015619D01*
X007373Y015666D01*
X007359Y015714D01*
X007349Y015763D01*
X007343Y015813D01*
X007341Y015863D01*
X011420Y004666D02*
X011422Y004714D01*
X011428Y004762D01*
X011438Y004809D01*
X011451Y004855D01*
X011469Y004900D01*
X011489Y004944D01*
X011514Y004986D01*
X011542Y005025D01*
X011572Y005062D01*
X011606Y005096D01*
X011643Y005128D01*
X011681Y005157D01*
X011722Y005182D01*
X011765Y005204D01*
X011810Y005222D01*
X011856Y005236D01*
X011903Y005247D01*
X011951Y005254D01*
X011999Y005257D01*
X012047Y005256D01*
X012095Y005251D01*
X012143Y005242D01*
X012189Y005230D01*
X012234Y005213D01*
X012278Y005193D01*
X012320Y005170D01*
X012360Y005143D01*
X012398Y005113D01*
X012433Y005080D01*
X012465Y005044D01*
X012495Y005006D01*
X012521Y004965D01*
X012543Y004922D01*
X012563Y004878D01*
X012578Y004833D01*
X012590Y004786D01*
X012598Y004738D01*
X012602Y004690D01*
X012602Y004642D01*
X012598Y004594D01*
X012590Y004546D01*
X012578Y004499D01*
X012563Y004454D01*
X012543Y004410D01*
X012521Y004367D01*
X012495Y004326D01*
X012465Y004288D01*
X012433Y004252D01*
X012398Y004219D01*
X012360Y004189D01*
X012320Y004162D01*
X012278Y004139D01*
X012234Y004119D01*
X012189Y004102D01*
X012143Y004090D01*
X012095Y004081D01*
X012047Y004076D01*
X011999Y004075D01*
X011951Y004078D01*
X011903Y004085D01*
X011856Y004096D01*
X011810Y004110D01*
X011765Y004128D01*
X011722Y004150D01*
X011681Y004175D01*
X011643Y004204D01*
X011606Y004236D01*
X011572Y004270D01*
X011542Y004307D01*
X011514Y004346D01*
X011489Y004388D01*
X011469Y004432D01*
X011451Y004477D01*
X011438Y004523D01*
X011428Y004570D01*
X011422Y004618D01*
X011420Y004666D01*
X032670Y004416D02*
X032672Y004464D01*
X032678Y004512D01*
X032688Y004559D01*
X032701Y004605D01*
X032719Y004650D01*
X032739Y004694D01*
X032764Y004736D01*
X032792Y004775D01*
X032822Y004812D01*
X032856Y004846D01*
X032893Y004878D01*
X032931Y004907D01*
X032972Y004932D01*
X033015Y004954D01*
X033060Y004972D01*
X033106Y004986D01*
X033153Y004997D01*
X033201Y005004D01*
X033249Y005007D01*
X033297Y005006D01*
X033345Y005001D01*
X033393Y004992D01*
X033439Y004980D01*
X033484Y004963D01*
X033528Y004943D01*
X033570Y004920D01*
X033610Y004893D01*
X033648Y004863D01*
X033683Y004830D01*
X033715Y004794D01*
X033745Y004756D01*
X033771Y004715D01*
X033793Y004672D01*
X033813Y004628D01*
X033828Y004583D01*
X033840Y004536D01*
X033848Y004488D01*
X033852Y004440D01*
X033852Y004392D01*
X033848Y004344D01*
X033840Y004296D01*
X033828Y004249D01*
X033813Y004204D01*
X033793Y004160D01*
X033771Y004117D01*
X033745Y004076D01*
X033715Y004038D01*
X033683Y004002D01*
X033648Y003969D01*
X033610Y003939D01*
X033570Y003912D01*
X033528Y003889D01*
X033484Y003869D01*
X033439Y003852D01*
X033393Y003840D01*
X033345Y003831D01*
X033297Y003826D01*
X033249Y003825D01*
X033201Y003828D01*
X033153Y003835D01*
X033106Y003846D01*
X033060Y003860D01*
X033015Y003878D01*
X032972Y003900D01*
X032931Y003925D01*
X032893Y003954D01*
X032856Y003986D01*
X032822Y004020D01*
X032792Y004057D01*
X032764Y004096D01*
X032739Y004138D01*
X032719Y004182D01*
X032701Y004227D01*
X032688Y004273D01*
X032678Y004320D01*
X032672Y004368D01*
X032670Y004416D01*
D12*
X043761Y032416D03*
D13*
X041656Y024963D03*
X041263Y024963D03*
X040869Y024963D03*
X040475Y024963D03*
X040082Y024963D03*
X039688Y024963D03*
X039294Y024963D03*
X038901Y024963D03*
X028271Y024963D03*
X027877Y024963D03*
X027483Y024963D03*
X027090Y024963D03*
X026696Y024963D03*
X026302Y024963D03*
X025908Y024963D03*
X025515Y024963D03*
X025121Y024963D03*
X015279Y024963D03*
X014885Y024963D03*
X014491Y024963D03*
X014097Y024963D03*
X013704Y024963D03*
X013310Y024963D03*
X012916Y024963D03*
X012523Y024963D03*
X012129Y024963D03*
X011735Y024963D03*
D14*
X011011Y023416D03*
X012011Y004666D03*
X033261Y004416D03*
X044761Y023166D03*
D15*
X042407Y023666D02*
X042409Y023703D01*
X042415Y023740D01*
X042424Y023775D01*
X042438Y023810D01*
X042454Y023843D01*
X042475Y023874D01*
X042498Y023903D01*
X042524Y023929D01*
X042553Y023952D01*
X042584Y023973D01*
X042617Y023989D01*
X042652Y024003D01*
X042687Y024012D01*
X042724Y024018D01*
X042761Y024020D01*
X042798Y024018D01*
X042835Y024012D01*
X042870Y024003D01*
X042905Y023989D01*
X042938Y023973D01*
X042969Y023952D01*
X042998Y023929D01*
X043024Y023903D01*
X043047Y023874D01*
X043068Y023843D01*
X043084Y023810D01*
X043098Y023775D01*
X043107Y023740D01*
X043113Y023703D01*
X043115Y023666D01*
X043113Y023629D01*
X043107Y023592D01*
X043098Y023557D01*
X043084Y023522D01*
X043068Y023489D01*
X043047Y023458D01*
X043024Y023429D01*
X042998Y023403D01*
X042969Y023380D01*
X042938Y023359D01*
X042905Y023343D01*
X042870Y023329D01*
X042835Y023320D01*
X042798Y023314D01*
X042761Y023312D01*
X042724Y023314D01*
X042687Y023320D01*
X042652Y023329D01*
X042617Y023343D01*
X042584Y023359D01*
X042553Y023380D01*
X042524Y023403D01*
X042498Y023429D01*
X042475Y023458D01*
X042454Y023489D01*
X042438Y023522D01*
X042424Y023557D01*
X042415Y023592D01*
X042409Y023629D01*
X042407Y023666D01*
X043907Y034866D02*
X043909Y034903D01*
X043915Y034940D01*
X043924Y034975D01*
X043938Y035010D01*
X043954Y035043D01*
X043975Y035074D01*
X043998Y035103D01*
X044024Y035129D01*
X044053Y035152D01*
X044084Y035173D01*
X044117Y035189D01*
X044152Y035203D01*
X044187Y035212D01*
X044224Y035218D01*
X044261Y035220D01*
X044298Y035218D01*
X044335Y035212D01*
X044370Y035203D01*
X044405Y035189D01*
X044438Y035173D01*
X044469Y035152D01*
X044498Y035129D01*
X044524Y035103D01*
X044547Y035074D01*
X044568Y035043D01*
X044584Y035010D01*
X044598Y034975D01*
X044607Y034940D01*
X044613Y034903D01*
X044615Y034866D01*
X044613Y034829D01*
X044607Y034792D01*
X044598Y034757D01*
X044584Y034722D01*
X044568Y034689D01*
X044547Y034658D01*
X044524Y034629D01*
X044498Y034603D01*
X044469Y034580D01*
X044438Y034559D01*
X044405Y034543D01*
X044370Y034529D01*
X044335Y034520D01*
X044298Y034514D01*
X044261Y034512D01*
X044224Y034514D01*
X044187Y034520D01*
X044152Y034529D01*
X044117Y034543D01*
X044084Y034559D01*
X044053Y034580D01*
X044024Y034603D01*
X043998Y034629D01*
X043975Y034658D01*
X043954Y034689D01*
X043938Y034722D01*
X043924Y034757D01*
X043915Y034792D01*
X043909Y034829D01*
X043907Y034866D01*
X010757Y032466D02*
X010759Y032503D01*
X010765Y032540D01*
X010774Y032575D01*
X010788Y032610D01*
X010804Y032643D01*
X010825Y032674D01*
X010848Y032703D01*
X010874Y032729D01*
X010903Y032752D01*
X010934Y032773D01*
X010967Y032789D01*
X011002Y032803D01*
X011037Y032812D01*
X011074Y032818D01*
X011111Y032820D01*
X011148Y032818D01*
X011185Y032812D01*
X011220Y032803D01*
X011255Y032789D01*
X011288Y032773D01*
X011319Y032752D01*
X011348Y032729D01*
X011374Y032703D01*
X011397Y032674D01*
X011418Y032643D01*
X011434Y032610D01*
X011448Y032575D01*
X011457Y032540D01*
X011463Y032503D01*
X011465Y032466D01*
X011463Y032429D01*
X011457Y032392D01*
X011448Y032357D01*
X011434Y032322D01*
X011418Y032289D01*
X011397Y032258D01*
X011374Y032229D01*
X011348Y032203D01*
X011319Y032180D01*
X011288Y032159D01*
X011255Y032143D01*
X011220Y032129D01*
X011185Y032120D01*
X011148Y032114D01*
X011111Y032112D01*
X011074Y032114D01*
X011037Y032120D01*
X011002Y032129D01*
X010967Y032143D01*
X010934Y032159D01*
X010903Y032180D01*
X010874Y032203D01*
X010848Y032229D01*
X010825Y032258D01*
X010804Y032289D01*
X010788Y032322D01*
X010774Y032357D01*
X010765Y032392D01*
X010759Y032429D01*
X010757Y032466D01*
X010657Y008416D02*
X010659Y008453D01*
X010665Y008490D01*
X010674Y008525D01*
X010688Y008560D01*
X010704Y008593D01*
X010725Y008624D01*
X010748Y008653D01*
X010774Y008679D01*
X010803Y008702D01*
X010834Y008723D01*
X010867Y008739D01*
X010902Y008753D01*
X010937Y008762D01*
X010974Y008768D01*
X011011Y008770D01*
X011048Y008768D01*
X011085Y008762D01*
X011120Y008753D01*
X011155Y008739D01*
X011188Y008723D01*
X011219Y008702D01*
X011248Y008679D01*
X011274Y008653D01*
X011297Y008624D01*
X011318Y008593D01*
X011334Y008560D01*
X011348Y008525D01*
X011357Y008490D01*
X011363Y008453D01*
X011365Y008416D01*
X011363Y008379D01*
X011357Y008342D01*
X011348Y008307D01*
X011334Y008272D01*
X011318Y008239D01*
X011297Y008208D01*
X011274Y008179D01*
X011248Y008153D01*
X011219Y008130D01*
X011188Y008109D01*
X011155Y008093D01*
X011120Y008079D01*
X011085Y008070D01*
X011048Y008064D01*
X011011Y008062D01*
X010974Y008064D01*
X010937Y008070D01*
X010902Y008079D01*
X010867Y008093D01*
X010834Y008109D01*
X010803Y008130D01*
X010774Y008153D01*
X010748Y008179D01*
X010725Y008208D01*
X010704Y008239D01*
X010688Y008272D01*
X010674Y008307D01*
X010665Y008342D01*
X010659Y008379D01*
X010657Y008416D01*
X044637Y004083D02*
X044639Y004120D01*
X044645Y004157D01*
X044654Y004192D01*
X044668Y004227D01*
X044684Y004260D01*
X044705Y004291D01*
X044728Y004320D01*
X044754Y004346D01*
X044783Y004369D01*
X044814Y004390D01*
X044847Y004406D01*
X044882Y004420D01*
X044917Y004429D01*
X044954Y004435D01*
X044991Y004437D01*
X045028Y004435D01*
X045065Y004429D01*
X045100Y004420D01*
X045135Y004406D01*
X045168Y004390D01*
X045199Y004369D01*
X045228Y004346D01*
X045254Y004320D01*
X045277Y004291D01*
X045298Y004260D01*
X045314Y004227D01*
X045328Y004192D01*
X045337Y004157D01*
X045343Y004120D01*
X045345Y004083D01*
X045343Y004046D01*
X045337Y004009D01*
X045328Y003974D01*
X045314Y003939D01*
X045298Y003906D01*
X045277Y003875D01*
X045254Y003846D01*
X045228Y003820D01*
X045199Y003797D01*
X045168Y003776D01*
X045135Y003760D01*
X045100Y003746D01*
X045065Y003737D01*
X045028Y003731D01*
X044991Y003729D01*
X044954Y003731D01*
X044917Y003737D01*
X044882Y003746D01*
X044847Y003760D01*
X044814Y003776D01*
X044783Y003797D01*
X044754Y003820D01*
X044728Y003846D01*
X044705Y003875D01*
X044684Y003906D01*
X044668Y003939D01*
X044654Y003974D01*
X044645Y004009D01*
X044639Y004046D01*
X044637Y004083D01*
D16*
X044991Y004083D03*
X042761Y023666D03*
X044261Y034866D03*
X011111Y032466D03*
X011011Y008416D03*
D17*
X008668Y008510D03*
X008668Y007526D03*
X008668Y009495D03*
X008961Y030916D03*
X007961Y030916D03*
X008061Y031916D03*
X009061Y031916D03*
X008961Y032916D03*
X007961Y032916D03*
X008061Y033916D03*
X009061Y033916D03*
X007961Y034916D03*
D18*
X008961Y034916D03*
D19*
X013641Y031416D03*
X014881Y031416D03*
X026141Y030916D03*
X027381Y030916D03*
X041141Y031416D03*
X042381Y031416D03*
D20*
X042095Y032416D03*
X041426Y032416D03*
X041426Y029166D03*
X042095Y029166D03*
X036345Y029416D03*
X035676Y029416D03*
X035676Y030166D03*
X035676Y030916D03*
X036345Y030916D03*
X036345Y030166D03*
X036345Y028416D03*
X035676Y028416D03*
X035676Y027416D03*
X036345Y027416D03*
X034845Y033416D03*
X034176Y033416D03*
X034176Y034416D03*
X034845Y034416D03*
X027095Y032916D03*
X026426Y032916D03*
X026426Y031916D03*
X027095Y031916D03*
X027095Y029916D03*
X026426Y029916D03*
X026426Y028916D03*
X027095Y028916D03*
X027095Y027916D03*
X026426Y027916D03*
X026426Y026916D03*
X027095Y026916D03*
X027095Y026166D03*
X026426Y026166D03*
X025595Y018166D03*
X024926Y018166D03*
X020345Y015666D03*
X019676Y015666D03*
X019676Y014416D03*
X020345Y014416D03*
X020345Y013166D03*
X019676Y013166D03*
X019676Y011166D03*
X020345Y011166D03*
X020345Y009916D03*
X019676Y009916D03*
X019676Y008666D03*
X020345Y008666D03*
X020345Y007416D03*
X019676Y007416D03*
X019676Y006166D03*
X020345Y006166D03*
X020345Y004916D03*
X019676Y004916D03*
X027176Y004916D03*
X027845Y004916D03*
X027845Y006166D03*
X027176Y006166D03*
X027176Y007416D03*
X027845Y007416D03*
X027845Y008666D03*
X027176Y008666D03*
X027176Y009916D03*
X027845Y009916D03*
X027845Y011166D03*
X027176Y011166D03*
X030426Y015166D03*
X031095Y015166D03*
X031095Y016416D03*
X030426Y016416D03*
X034676Y008666D03*
X035345Y008666D03*
X035345Y007416D03*
X034676Y007416D03*
X034676Y006166D03*
X035345Y006166D03*
X035345Y004916D03*
X034676Y004916D03*
X041676Y004916D03*
X042345Y004916D03*
X042345Y006166D03*
X041676Y006166D03*
X041676Y007416D03*
X042345Y007416D03*
X042345Y008666D03*
X041676Y008666D03*
X041676Y009916D03*
X042345Y009916D03*
X042345Y014916D03*
X041676Y014916D03*
X041676Y016166D03*
X042345Y016166D03*
X015845Y015416D03*
X015176Y015416D03*
X015176Y018416D03*
X015845Y018416D03*
X015845Y020916D03*
X015176Y020916D03*
X014595Y027416D03*
X013926Y027416D03*
X013926Y028416D03*
X014595Y028416D03*
X014595Y029416D03*
X013926Y029416D03*
X013926Y030416D03*
X014595Y030416D03*
D21*
X014511Y032586D03*
X015011Y032586D03*
X014011Y032586D03*
X013511Y032586D03*
X013511Y034746D03*
X014011Y034746D03*
X014511Y034746D03*
X015011Y034746D03*
X038011Y030746D03*
X038511Y030746D03*
X039011Y030746D03*
X039511Y030746D03*
X039511Y028586D03*
X039011Y028586D03*
X038511Y028586D03*
X038011Y028586D03*
D22*
X040914Y030166D03*
X042607Y030166D03*
X026357Y034416D03*
X024664Y034416D03*
D23*
X030084Y031329D03*
X030084Y031073D03*
X030084Y030817D03*
X030084Y030562D03*
X030084Y030306D03*
X030084Y030050D03*
X030084Y029794D03*
X030084Y029538D03*
X030084Y029282D03*
X030084Y029026D03*
X030084Y028770D03*
X030084Y028514D03*
X030084Y028258D03*
X030084Y028003D03*
X032938Y028003D03*
X032938Y028258D03*
X032938Y028514D03*
X032938Y028770D03*
X032938Y029026D03*
X032938Y029282D03*
X032938Y029538D03*
X032938Y029794D03*
X032938Y030050D03*
X032938Y030306D03*
X032938Y030562D03*
X032938Y030817D03*
X032938Y031073D03*
X032938Y031329D03*
D24*
X033011Y033831D03*
X033011Y034501D03*
X031011Y034501D03*
X031011Y033831D03*
X029011Y033831D03*
X029011Y034501D03*
D25*
X030011Y034756D03*
X030011Y033575D03*
X032011Y033575D03*
X032011Y034756D03*
X028011Y034756D03*
X028011Y033575D03*
D26*
X038013Y026995D03*
X039469Y026995D03*
D27*
X024811Y028666D03*
X022211Y028666D03*
D28*
X020761Y028666D03*
X019761Y028666D03*
X018761Y028666D03*
X017761Y028666D03*
X016761Y028666D03*
X016761Y027666D03*
X017761Y027666D03*
X018761Y027666D03*
X019761Y027666D03*
X020761Y027666D03*
X010942Y013630D03*
X009942Y013730D03*
X009942Y012730D03*
X010942Y012630D03*
X008942Y012630D03*
X008942Y013630D03*
D29*
X017761Y034666D03*
D30*
X019729Y034666D03*
D31*
X011601Y028564D03*
X011601Y026768D03*
D32*
X008886Y027666D03*
D33*
X042761Y034166D03*
D34*
X041261Y034166D03*
D35*
X042155Y028040D03*
X042155Y027292D03*
X041328Y027666D03*
X025655Y020040D03*
X025655Y019292D03*
X024828Y019666D03*
X015944Y019666D03*
X015117Y020040D03*
X015117Y019292D03*
D36*
X022892Y021453D03*
X022905Y021450D03*
X022941Y021450D03*
X022947Y021450D03*
X023004Y021450D03*
X023014Y021450D03*
X023019Y021450D03*
X023025Y021450D03*
X023030Y021450D03*
X023035Y021450D03*
X023162Y021453D03*
X023181Y021450D03*
X023191Y021450D03*
X023196Y021450D03*
X023201Y021450D03*
X023207Y021450D03*
X023217Y021450D03*
X023227Y021450D03*
X023238Y021450D03*
X023243Y021450D03*
X023248Y021450D03*
X023253Y021450D03*
X023264Y021450D03*
X023274Y021450D03*
X023279Y021450D03*
X023420Y021450D03*
X023425Y021450D03*
X023430Y021450D03*
X023441Y021450D03*
X023451Y021450D03*
X023456Y021450D03*
X023461Y021450D03*
X023467Y021450D03*
X023477Y021450D03*
X023487Y021450D03*
X023498Y021450D03*
X023503Y021450D03*
X023508Y021450D03*
X023513Y021450D03*
X023524Y021450D03*
X023534Y021450D03*
X023539Y021450D03*
X023552Y021453D03*
X023524Y022194D03*
X023404Y022194D03*
X023394Y022194D03*
X023383Y022194D03*
X023378Y022194D03*
X023373Y022194D03*
X023368Y022194D03*
X023321Y022188D03*
X023087Y022194D03*
X023077Y022194D03*
X023071Y022194D03*
X023066Y022194D03*
X023061Y022194D03*
D37*
X022923Y021450D03*
D38*
X022952Y021450D03*
X023009Y021450D03*
X023168Y021453D03*
X023186Y021450D03*
X023212Y021450D03*
X023222Y021450D03*
X023233Y021450D03*
X023259Y021450D03*
X023269Y021450D03*
X023407Y021453D03*
X023435Y021450D03*
X023446Y021450D03*
X023472Y021450D03*
X023482Y021450D03*
X023493Y021450D03*
X023519Y021450D03*
X023529Y021450D03*
X023399Y022194D03*
X023389Y022194D03*
X023363Y022194D03*
X023092Y022194D03*
X023082Y022194D03*
X023056Y022194D03*
D39*
X022978Y021450D03*
D40*
X022970Y021453D03*
X023225Y021499D03*
X023225Y021505D03*
D41*
X023227Y021453D03*
D42*
X023225Y021479D03*
X023480Y021453D03*
D43*
X023477Y021455D03*
X023480Y021572D03*
X023480Y021583D03*
X023480Y021593D03*
X023480Y021598D03*
X023480Y021603D03*
X023480Y021609D03*
X023480Y021619D03*
X023480Y021629D03*
X023480Y021635D03*
X023480Y021640D03*
X023480Y021645D03*
X023480Y021650D03*
X023480Y021655D03*
X023480Y021666D03*
X023480Y021676D03*
X023480Y021681D03*
X023482Y021684D03*
X023480Y021687D03*
X023482Y021694D03*
X023482Y021700D03*
X023482Y021705D03*
X023482Y021710D03*
X023482Y021715D03*
X023482Y021720D03*
X023482Y021731D03*
X023482Y021741D03*
X023482Y021746D03*
X023482Y021752D03*
X023482Y021757D03*
X023482Y021767D03*
X023482Y021778D03*
X023225Y021536D03*
X023225Y021525D03*
X022970Y021525D03*
X022970Y021520D03*
X022970Y021515D03*
X022970Y021510D03*
X022970Y021505D03*
X022970Y021499D03*
X022970Y021489D03*
X022970Y021479D03*
X022970Y021473D03*
X022970Y021468D03*
X022970Y021463D03*
X022970Y021455D03*
X022970Y021536D03*
X022970Y021546D03*
X022970Y021551D03*
X022970Y021557D03*
X022970Y021562D03*
X022970Y021572D03*
X022970Y021583D03*
X022970Y021593D03*
X022970Y021598D03*
X022967Y021601D03*
X022970Y021603D03*
X022970Y021609D03*
X022970Y021619D03*
X022970Y021629D03*
X022970Y021635D03*
X022970Y021640D03*
X022970Y021645D03*
X022970Y021650D03*
X022967Y021684D03*
X022967Y021687D03*
X022967Y021692D03*
X022967Y021694D03*
X022967Y021700D03*
X022967Y021702D03*
X022967Y021705D03*
X022967Y021710D03*
X022967Y021715D03*
X022967Y021720D03*
X022967Y021731D03*
X022967Y021741D03*
X022967Y021746D03*
X022967Y021749D03*
X022967Y021752D03*
X022967Y021757D03*
X022967Y021765D03*
X022967Y021767D03*
X022967Y021770D03*
X022967Y021778D03*
D44*
X023147Y021817D03*
X023147Y021822D03*
X023139Y021861D03*
X023139Y021863D03*
X023305Y021845D03*
X023305Y021840D03*
X023305Y021835D03*
X023298Y021806D03*
X023298Y021798D03*
X023298Y021796D03*
X023316Y021887D03*
X023324Y021915D03*
X023222Y021460D03*
X023222Y021455D03*
D45*
X023225Y021531D03*
X022970Y021531D03*
X022970Y021541D03*
X022970Y021567D03*
X022970Y021577D03*
X022970Y021588D03*
X022967Y021596D03*
X022967Y021606D03*
X022970Y021614D03*
X022970Y021624D03*
X022967Y021679D03*
X022967Y021689D03*
X022967Y021697D03*
X022967Y021726D03*
X022967Y021736D03*
X022967Y021744D03*
X022967Y021754D03*
X022967Y021762D03*
X022967Y021772D03*
X022967Y021783D03*
X022970Y021494D03*
X022970Y021484D03*
X022970Y021458D03*
X023480Y021567D03*
X023480Y021577D03*
X023480Y021588D03*
X023480Y021614D03*
X023480Y021624D03*
X023480Y021661D03*
X023480Y021671D03*
X023482Y021679D03*
X023482Y021689D03*
X023482Y021726D03*
X023482Y021736D03*
X023482Y021762D03*
X023482Y021772D03*
X023482Y021783D03*
D46*
X023222Y021458D03*
D47*
X023478Y021458D03*
X022966Y021707D03*
X022966Y021718D03*
X022966Y021791D03*
X022966Y021801D03*
X022966Y021837D03*
X022966Y021848D03*
X022966Y021874D03*
D48*
X022969Y021759D03*
X022969Y021681D03*
X022969Y021676D03*
X022969Y021674D03*
X022969Y021668D03*
X022969Y021666D03*
X022969Y021663D03*
X022969Y021658D03*
X022969Y021655D03*
X022969Y021616D03*
X022969Y021611D03*
X022969Y021590D03*
X022969Y021585D03*
X022971Y021486D03*
X022971Y021481D03*
X022971Y021471D03*
X022971Y021460D03*
X023224Y021528D03*
X023224Y021533D03*
X023481Y021648D03*
X023481Y021658D03*
X023481Y021663D03*
X023481Y021668D03*
X023481Y021674D03*
D49*
X023478Y021562D03*
X023478Y021557D03*
X023478Y021551D03*
X023478Y021546D03*
X023478Y021536D03*
X023478Y021525D03*
X023478Y021520D03*
X023478Y021515D03*
X023478Y021510D03*
X023478Y021505D03*
X023478Y021499D03*
X023478Y021489D03*
X023478Y021479D03*
X023478Y021473D03*
X023478Y021468D03*
X023478Y021463D03*
X023478Y021460D03*
D50*
X023224Y021463D03*
X023294Y021788D03*
X023299Y021804D03*
X023302Y021824D03*
X023304Y021830D03*
X023328Y021928D03*
X023133Y021897D03*
X023133Y021889D03*
X023135Y021882D03*
X023138Y021871D03*
X023140Y021850D03*
X023143Y021845D03*
X023146Y021824D03*
X023151Y021798D03*
X023153Y021793D03*
X023130Y021908D03*
X023130Y021910D03*
X023127Y021918D03*
X023125Y021928D03*
X023122Y021934D03*
X023122Y021936D03*
D51*
X022969Y021671D03*
X022969Y021661D03*
X022971Y021476D03*
X022971Y021466D03*
X023224Y021541D03*
X023481Y021642D03*
X023481Y021653D03*
D52*
X023225Y021466D03*
X023123Y021931D03*
X023329Y021939D03*
D53*
X023480Y021632D03*
X023480Y021606D03*
X023480Y021596D03*
X023480Y021559D03*
X023480Y021549D03*
X023480Y021523D03*
X023480Y021512D03*
X023480Y021502D03*
X023480Y021476D03*
X023480Y021466D03*
D54*
X023222Y021468D03*
X023324Y021918D03*
D55*
X023333Y021944D03*
X023120Y021944D03*
X023224Y021473D03*
X023224Y021471D03*
D56*
X023225Y021538D03*
X023225Y021544D03*
X023480Y021544D03*
X023480Y021538D03*
X023480Y021533D03*
X023480Y021528D03*
X023480Y021518D03*
X023480Y021507D03*
X023480Y021497D03*
X023480Y021492D03*
X023480Y021486D03*
X023480Y021481D03*
X023480Y021471D03*
X023480Y021554D03*
X023480Y021564D03*
X023480Y021570D03*
X023480Y021575D03*
X023480Y021580D03*
X023480Y021585D03*
X023480Y021590D03*
X023480Y021601D03*
X023480Y021611D03*
X023480Y021616D03*
X023480Y021622D03*
X023480Y021627D03*
X023480Y021637D03*
D57*
X023222Y021476D03*
D58*
X023225Y021481D03*
X023225Y021486D03*
X023222Y021489D03*
D59*
X023224Y021484D03*
D60*
X023478Y021484D03*
X023478Y021494D03*
X023478Y021531D03*
X023478Y021541D03*
D61*
X022970Y021544D03*
X022970Y021538D03*
X022970Y021533D03*
X022970Y021528D03*
X022970Y021518D03*
X022970Y021507D03*
X022970Y021497D03*
X022970Y021492D03*
X022970Y021554D03*
X022970Y021564D03*
X022970Y021570D03*
X022970Y021575D03*
X022970Y021580D03*
X022970Y021622D03*
X022970Y021627D03*
X022970Y021637D03*
X022970Y021648D03*
D62*
X023224Y021492D03*
D63*
X023224Y021494D03*
D64*
X023222Y021497D03*
D65*
X022970Y021502D03*
X022970Y021512D03*
X022970Y021523D03*
X022970Y021549D03*
X022970Y021559D03*
X022970Y021632D03*
X022970Y021642D03*
X022970Y021653D03*
D66*
X022964Y021921D03*
X022964Y021931D03*
X023224Y021502D03*
D67*
X023225Y021507D03*
X022965Y021798D03*
X022965Y021804D03*
X022965Y021806D03*
X022965Y021811D03*
X022965Y021814D03*
X022965Y021817D03*
X022965Y021822D03*
X022965Y021824D03*
X022965Y021830D03*
X022965Y021832D03*
X022965Y021835D03*
X022965Y021840D03*
X022965Y021845D03*
X022965Y021850D03*
X022965Y021861D03*
X022965Y021871D03*
X022965Y021876D03*
X022965Y021882D03*
X022965Y021887D03*
X022965Y021889D03*
X022965Y021895D03*
X022965Y021897D03*
X022965Y021908D03*
X022965Y021918D03*
X022965Y021923D03*
X022965Y021928D03*
X022965Y021934D03*
X022965Y021936D03*
X023485Y021918D03*
X023485Y021908D03*
X023485Y021897D03*
X023485Y021887D03*
X023485Y021882D03*
X023485Y021876D03*
X023485Y021871D03*
X023485Y021861D03*
X023485Y021850D03*
X023485Y021845D03*
X023485Y021840D03*
D68*
X023224Y021510D03*
X022964Y021900D03*
X022964Y021905D03*
X022964Y021910D03*
X022964Y021915D03*
X022964Y021926D03*
D69*
X022965Y021939D03*
X022965Y021913D03*
X022965Y021902D03*
X022965Y021892D03*
X022965Y021884D03*
X022965Y021866D03*
X022965Y021856D03*
X022965Y021827D03*
X022965Y021819D03*
X022965Y021809D03*
X023225Y021512D03*
X023485Y021856D03*
X023485Y021866D03*
X023485Y021892D03*
X023485Y021902D03*
X023485Y021913D03*
D70*
X023482Y021858D03*
X023482Y021853D03*
X023482Y021843D03*
X023482Y021832D03*
X023482Y021822D03*
X023482Y021817D03*
X023482Y021811D03*
X023482Y021806D03*
X023482Y021796D03*
X023482Y021785D03*
X023482Y021780D03*
X023482Y021775D03*
X023482Y021770D03*
X023482Y021765D03*
X023482Y021759D03*
X023482Y021749D03*
X023482Y021739D03*
X023482Y021733D03*
X023482Y021728D03*
X023222Y021515D03*
D71*
X023224Y021518D03*
X023224Y021520D03*
X023481Y021692D03*
X023481Y021702D03*
X023481Y021713D03*
X023481Y021723D03*
X023484Y021788D03*
X023484Y021793D03*
X023484Y021798D03*
X023484Y021804D03*
X023484Y021814D03*
X023484Y021824D03*
X023484Y021830D03*
X023484Y021835D03*
X023484Y021863D03*
X023484Y021869D03*
X023484Y021879D03*
X023484Y021889D03*
X023484Y021895D03*
X023484Y021900D03*
X023484Y021905D03*
X023484Y021910D03*
X023484Y021915D03*
X023484Y021923D03*
X023484Y021926D03*
X023484Y021928D03*
X023484Y021934D03*
X023484Y021936D03*
X023484Y021941D03*
X023484Y021944D03*
D72*
X023484Y021939D03*
X023484Y021931D03*
X023484Y021921D03*
X023484Y021884D03*
X023484Y021874D03*
X023484Y021819D03*
X023484Y021809D03*
X023481Y021718D03*
X023481Y021707D03*
X023481Y021697D03*
X023224Y021523D03*
D73*
X023224Y021546D03*
D74*
X023224Y021549D03*
D75*
X023225Y021551D03*
X023225Y021554D03*
X023225Y021557D03*
X023225Y021562D03*
D76*
X023224Y021559D03*
D77*
X023225Y021564D03*
X023225Y021570D03*
X023225Y021572D03*
X023225Y021575D03*
D78*
X023225Y021567D03*
D79*
X023225Y021577D03*
X023225Y021588D03*
D80*
X023225Y021583D03*
X023225Y021580D03*
D81*
X023225Y021585D03*
X023225Y021590D03*
X023225Y021601D03*
D82*
X023226Y021593D03*
D83*
X023225Y021596D03*
X023014Y022191D03*
D84*
X023225Y021609D03*
X023225Y021603D03*
X023225Y021598D03*
D85*
X023224Y021606D03*
X023224Y021614D03*
D86*
X023225Y021616D03*
X023225Y021619D03*
X023225Y021611D03*
D87*
X023224Y021622D03*
D88*
X023225Y021624D03*
D89*
X023224Y021627D03*
X023224Y021635D03*
D90*
X023225Y021629D03*
D91*
X023224Y021632D03*
D92*
X023225Y021637D03*
D93*
X023222Y021640D03*
D94*
X023224Y021642D03*
D95*
X023224Y021645D03*
D96*
X023222Y021648D03*
X023225Y021650D03*
D97*
X023224Y021653D03*
D98*
X023224Y021655D03*
D99*
X023225Y021658D03*
D100*
X023222Y021661D03*
D101*
X023224Y021663D03*
X023224Y021666D03*
D102*
X023222Y021668D03*
X023222Y021674D03*
D103*
X023225Y021671D03*
D104*
X023225Y021676D03*
D105*
X023224Y021679D03*
D106*
X023222Y021681D03*
X023222Y021687D03*
D107*
X023225Y021684D03*
X023438Y022188D03*
D108*
X023225Y021697D03*
X023222Y021689D03*
D109*
X023224Y021692D03*
D110*
X023222Y021694D03*
D111*
X023224Y021700D03*
X023224Y021702D03*
X023224Y021705D03*
D112*
X023222Y021707D03*
D113*
X023224Y021710D03*
X023224Y021713D03*
X023013Y022186D03*
D114*
X022966Y021947D03*
X022966Y021944D03*
X022966Y021941D03*
X022966Y021879D03*
X022966Y021869D03*
X022966Y021863D03*
X022966Y021858D03*
X022966Y021853D03*
X022966Y021843D03*
X022966Y021796D03*
X022966Y021793D03*
X022966Y021788D03*
X022966Y021785D03*
X022966Y021780D03*
X022966Y021775D03*
X022966Y021739D03*
X022966Y021733D03*
X022966Y021728D03*
X022966Y021723D03*
X022966Y021713D03*
D115*
X023222Y021715D03*
X023222Y021720D03*
D116*
X023224Y021718D03*
D117*
X023225Y021723D03*
X023435Y022183D03*
X023014Y022183D03*
D118*
X023437Y022181D03*
X023224Y021726D03*
D119*
X023224Y021728D03*
X023437Y022178D03*
D120*
X023435Y022175D03*
X023435Y022170D03*
X023222Y021733D03*
X023225Y021731D03*
D121*
X023224Y021736D03*
D122*
X023224Y021739D03*
X023224Y021741D03*
X023016Y022165D03*
X023434Y022165D03*
D123*
X023435Y022162D03*
X023435Y022173D03*
X023433Y022144D03*
X023014Y022162D03*
X023014Y022173D03*
X023225Y021744D03*
D124*
X023482Y021744D03*
X023482Y021754D03*
X023482Y021791D03*
X023482Y021801D03*
X023482Y021827D03*
X023482Y021837D03*
X023482Y021848D03*
D125*
X023225Y021749D03*
X023222Y021746D03*
X023433Y022139D03*
X023433Y022149D03*
X023433Y022155D03*
X023433Y022160D03*
X023435Y022168D03*
X023014Y022168D03*
D126*
X023016Y022160D03*
X023016Y022157D03*
X023016Y022155D03*
X023016Y022149D03*
X023434Y022157D03*
X023224Y021752D03*
D127*
X023224Y021754D03*
X023434Y022152D03*
D128*
X023433Y022147D03*
X023433Y022142D03*
X023433Y022136D03*
X023433Y022131D03*
X023430Y022129D03*
X023430Y022123D03*
X023430Y022118D03*
X023430Y022113D03*
X023225Y021757D03*
D129*
X023222Y021759D03*
X023017Y022142D03*
X023017Y022147D03*
D130*
X023018Y022134D03*
X023429Y022108D03*
X023432Y022126D03*
X023224Y021762D03*
D131*
X023224Y021765D03*
X023224Y021767D03*
X023432Y022121D03*
X023018Y022123D03*
X023018Y022129D03*
X023018Y022136D03*
X023018Y022139D03*
D132*
X023019Y022131D03*
X023019Y022121D03*
X023019Y022118D03*
X023022Y022113D03*
X023022Y022103D03*
X023022Y022092D03*
X023225Y021775D03*
X023225Y021770D03*
X023430Y022100D03*
X023430Y022105D03*
X023430Y022110D03*
D133*
X023224Y021772D03*
D134*
X023224Y021778D03*
X023224Y021780D03*
X023426Y022082D03*
X023429Y022095D03*
D135*
X023428Y022079D03*
X023425Y022061D03*
X023225Y021783D03*
X023025Y022087D03*
D136*
X023118Y021947D03*
X023118Y021941D03*
X023126Y021923D03*
X023136Y021876D03*
X023155Y021785D03*
X023326Y021926D03*
X023329Y021934D03*
X023331Y021941D03*
D137*
X023329Y021936D03*
X023326Y021923D03*
X023321Y021908D03*
X023318Y021900D03*
X023313Y021879D03*
X023313Y021876D03*
X023311Y021871D03*
X023311Y021861D03*
X023308Y021858D03*
X023308Y021853D03*
X023308Y021850D03*
X023303Y021832D03*
X023303Y021822D03*
X023300Y021814D03*
X023295Y021793D03*
X023292Y021785D03*
X023155Y021788D03*
X023152Y021796D03*
X023149Y021804D03*
X023149Y021806D03*
X023149Y021814D03*
X023144Y021830D03*
X023144Y021835D03*
X023144Y021840D03*
X023142Y021843D03*
X023142Y021853D03*
X023142Y021858D03*
X023136Y021869D03*
X023136Y021879D03*
X023134Y021887D03*
X023131Y021895D03*
X023131Y021900D03*
X023131Y021905D03*
X023126Y021915D03*
X023126Y021926D03*
D138*
X023130Y021902D03*
X023140Y021856D03*
X023153Y021791D03*
X023328Y021931D03*
D139*
X023321Y021913D03*
X023313Y021874D03*
X023311Y021866D03*
X023308Y021856D03*
X023308Y021848D03*
X023303Y021827D03*
X023300Y021819D03*
X023300Y021809D03*
X023295Y021791D03*
X023152Y021801D03*
X023149Y021809D03*
X023144Y021837D03*
X023142Y021848D03*
X023136Y021874D03*
X023136Y021884D03*
X023134Y021892D03*
X023126Y021921D03*
D140*
X023129Y021913D03*
X023139Y021866D03*
X023147Y021827D03*
X023147Y021819D03*
X023298Y021801D03*
X023316Y021892D03*
X023324Y021921D03*
D141*
X023322Y021910D03*
X023317Y021897D03*
X023317Y021895D03*
X023315Y021882D03*
X023307Y021843D03*
X023299Y021811D03*
X023148Y021811D03*
X023146Y021832D03*
D142*
X023302Y021817D03*
X023309Y021863D03*
X023312Y021869D03*
X023320Y021905D03*
D143*
X023315Y021884D03*
X023304Y021837D03*
D144*
X023316Y021889D03*
D145*
X023320Y021902D03*
D146*
X023121Y021939D03*
D147*
X023413Y021947D03*
D148*
X023036Y021949D03*
D149*
X023415Y021949D03*
D150*
X023036Y021952D03*
D151*
X023415Y021952D03*
X023415Y021954D03*
X023415Y021960D03*
X023415Y021965D03*
D152*
X023035Y021965D03*
X023035Y021960D03*
X023035Y021954D03*
D153*
X023035Y021957D03*
D154*
X023034Y021967D03*
X023034Y021978D03*
X023416Y021967D03*
X023416Y021957D03*
D155*
X023416Y021962D03*
X023416Y021970D03*
X023416Y021973D03*
X023034Y021973D03*
X023034Y021975D03*
X023034Y021970D03*
X023034Y021962D03*
D156*
X023032Y021980D03*
X023032Y021983D03*
X023032Y021991D03*
X023417Y021980D03*
X023417Y021975D03*
D157*
X023417Y021978D03*
X023417Y021986D03*
X023032Y021986D03*
D158*
X023419Y021988D03*
X023419Y021991D03*
X023419Y021993D03*
X023419Y021999D03*
X023419Y021983D03*
D159*
X023031Y021988D03*
X023031Y021993D03*
X023031Y021999D03*
D160*
X023031Y021996D03*
D161*
X023419Y021996D03*
D162*
X023420Y022001D03*
X023420Y022006D03*
X023420Y022012D03*
X023030Y022012D03*
X023030Y022017D03*
X023030Y022006D03*
X023030Y022001D03*
D163*
X023032Y022004D03*
X023420Y022004D03*
D164*
X023421Y022009D03*
X023421Y022017D03*
X023031Y022009D03*
D165*
X023030Y022014D03*
X023422Y022032D03*
X023422Y022043D03*
D166*
X023421Y022022D03*
X023421Y022014D03*
X023029Y022022D03*
D167*
X023030Y022019D03*
X023030Y022025D03*
X023030Y022030D03*
X023420Y022025D03*
X023422Y022027D03*
X023420Y022019D03*
X023422Y022038D03*
D168*
X023027Y022038D03*
X023027Y022048D03*
X023027Y022027D03*
D169*
X023421Y022030D03*
X023424Y022048D03*
D170*
X023027Y022043D03*
X023027Y022032D03*
D171*
X023029Y022035D03*
X023026Y022053D03*
D172*
X023422Y022045D03*
X023422Y022040D03*
X023422Y022035D03*
D173*
X023425Y022053D03*
X023425Y022058D03*
X023425Y022064D03*
X023027Y022056D03*
X023025Y022058D03*
X023025Y022064D03*
X023025Y022074D03*
X023027Y022045D03*
X023027Y022040D03*
D174*
X023027Y022051D03*
X023025Y022069D03*
X023425Y022069D03*
D175*
X023422Y022051D03*
D176*
X023424Y022056D03*
X023426Y022074D03*
D177*
X023026Y022061D03*
X023023Y022079D03*
D178*
X023025Y022077D03*
X023025Y022082D03*
X023025Y022071D03*
X023025Y022066D03*
X023425Y022066D03*
X023425Y022071D03*
X023425Y022077D03*
X023428Y022084D03*
X023428Y022090D03*
D179*
X023022Y022090D03*
X023022Y022095D03*
X023022Y022100D03*
X023022Y022084D03*
D180*
X023428Y022087D03*
X023428Y022097D03*
D181*
X023428Y022092D03*
X023428Y022103D03*
D182*
X023430Y022116D03*
X023022Y022108D03*
X023019Y022116D03*
X023019Y022126D03*
X023022Y022097D03*
D183*
X023021Y022105D03*
X023021Y022110D03*
D184*
X023432Y022134D03*
D185*
X023017Y022144D03*
X023017Y022152D03*
D186*
X023014Y022170D03*
X023014Y022175D03*
X023014Y022178D03*
D187*
X023013Y022181D03*
D188*
X023435Y022186D03*
D189*
X023012Y022188D03*
D190*
X023110Y022191D03*
X022908Y022191D03*
D191*
X022913Y022191D03*
X022918Y022191D03*
X023116Y022191D03*
X023339Y022191D03*
X023344Y022191D03*
X023542Y022191D03*
D192*
X023443Y022191D03*
D193*
X040328Y023768D03*
D194*
X039328Y023768D03*
X038328Y023768D03*
X037328Y023768D03*
X036328Y023768D03*
X035328Y023768D03*
X034328Y023768D03*
X033328Y023768D03*
X032328Y023768D03*
X031328Y023768D03*
X030328Y023768D03*
X029328Y023768D03*
X028328Y023768D03*
X027328Y023768D03*
X026328Y023768D03*
X025328Y023768D03*
X025614Y008530D03*
X025614Y006750D03*
X023054Y006750D03*
X023054Y008530D03*
X024015Y003703D03*
X030140Y006750D03*
X030140Y008530D03*
X032700Y008530D03*
X032700Y006750D03*
X031015Y003703D03*
X037227Y006750D03*
X037227Y008530D03*
X039787Y008530D03*
X039787Y006750D03*
X045379Y011920D03*
X045279Y012920D03*
X045379Y013920D03*
X045279Y014920D03*
X045379Y015920D03*
X045279Y016920D03*
D195*
X038451Y016518D03*
X038451Y016203D03*
X038451Y015888D03*
X038451Y015573D03*
X038451Y015258D03*
X038451Y014943D03*
X038451Y014629D03*
X038451Y014314D03*
X035071Y014314D03*
X035071Y014629D03*
X035071Y014943D03*
X035071Y015258D03*
X035071Y015573D03*
X035071Y015888D03*
X035071Y016203D03*
X035071Y016518D03*
D196*
X035658Y017106D03*
X035973Y017106D03*
X036288Y017106D03*
X036603Y017106D03*
X036918Y017106D03*
X037233Y017106D03*
X037548Y017106D03*
X037863Y017106D03*
X037863Y013726D03*
X037548Y013726D03*
X037233Y013726D03*
X036918Y013726D03*
X036603Y013726D03*
X036288Y013726D03*
X035973Y013726D03*
X035658Y013726D03*
D197*
X042298Y017193D02*
X042298Y017193D01*
X041724Y017193D01*
X041724Y017193D01*
X042298Y017193D01*
X042298Y017666D02*
X042298Y017666D01*
X041724Y017666D01*
X041724Y017666D01*
X042298Y017666D01*
X042298Y018138D02*
X042298Y018138D01*
X041724Y018138D01*
X041724Y018138D01*
X042298Y018138D01*
D198*
X042012Y017665D03*
D199*
X010266Y017763D02*
X009671Y017763D01*
X008971Y018163D02*
X008377Y018163D01*
X008377Y018963D02*
X008971Y018963D01*
X009671Y019363D02*
X010266Y019363D01*
X010266Y018563D02*
X009671Y018563D01*
X008971Y019763D02*
X008377Y019763D01*
X008377Y017363D02*
X008971Y017363D01*
X009671Y016963D02*
X010266Y016963D01*
D200*
X007971Y015863D03*
X007971Y020863D03*
D201*
X009968Y010479D03*
X013064Y007640D03*
X009968Y006542D03*
X017493Y007640D03*
D202*
X017464Y009274D03*
D203*
X015279Y010337D03*
X013094Y009274D03*
X012936Y006282D03*
X017464Y006006D03*
D204*
X016062Y017166D03*
X014960Y017166D03*
D205*
X029551Y017916D03*
X029551Y018416D03*
X029551Y018916D03*
X029551Y019416D03*
X029551Y019916D03*
X029551Y020416D03*
X029551Y020916D03*
X029551Y021416D03*
X031971Y021416D03*
X031971Y020916D03*
X031971Y020416D03*
X031971Y019916D03*
X031971Y019416D03*
X031971Y018916D03*
X031971Y018416D03*
X031971Y017916D03*
D206*
X025615Y021166D03*
X024906Y021166D03*
D207*
X044277Y019916D03*
X045261Y018932D03*
X045261Y020900D03*
D208*
X037761Y031802D03*
D209*
X036280Y033053D03*
X037751Y034684D03*
M02*
